<?xml version="1.0" encoding="utf-8"?>
<!-- Generator: Adobe Illustrator 25.4.1, SVG Export Plug-In . SVG Version: 6.00 Build 0)  -->
<svg version="1.1" xmlns="http://www.w3.org/2000/svg" xmlns:xlink="http://www.w3.org/1999/xlink" x="0px" y="0px"
	 viewBox="0 0 512 512" style="enable-background:new 0 0 512 512;" xml:space="preserve">
<style type="text/css">
	.st0{fill:#FFFFFF;stroke:#BCBCBC;stroke-miterlimit:10;}
	.st1{fill:#061C2F;}
	.st2{fill:#3B779B;}
	.st3{fill:#245879;}
	.st4{fill:#2F6487;}
	.st5{fill:#5191B2;}
	.st6{fill:#427996;}
	.st7{fill:#87583D;}
	.st8{fill:#AB8D7B;}
	.st9{fill:#0B4B70;}
	.st10{fill:#AAC0CE;}
	.st11{fill:#7999AD;}
	.st12{fill:#517C94;}
	.st13{fill:#D2D2D0;}
	.st14{fill:#E6E4E3;}
</style>
<g id="Layer_1">
	<path class="st0" d="M287.2,494.8c-10.9-0.1-19.9-8.3-21-19.1l-2.2-22.4c-0.4-4.4,0.5-8.7,2.6-12.5l-10.7-91l-10.2,90.2
		c2.3,3.9,3.3,8.5,2.8,13.2l-2.5,22.4c-1.2,10.8-10.3,18.9-21.1,18.9c-0.8,0-1.6,0-2.3-0.1l-111.9-12.7c-5.6-0.6-10.7-3.4-14.2-7.9
		c-3.5-4.4-5.1-10-4.5-15.6l2.5-22.4c0.5-4.7,2.6-9.1,5.9-12.4l34.3-291.8c0-0.9,0.1-1.7,0.2-2.6L141,78c0-0.1,0-0.3,0.1-0.4
		c-1.2-2.7-1.8-5.7-1.8-8.6l0.2-24.8c0-4.3,1.3-8.4,3.7-11.9c2.9-8.5,11-14.5,20.1-14.5l189.3,0.9c10.1,0.1,18.5,7.1,20.6,16.7
		c1.6,3.1,2.5,6.5,2.4,10l-0.2,24.8c0,2.7-0.6,5.4-1.6,7.9L412.3,425c3.4,3.4,5.5,7.9,6,12.8l2.2,22.4c1.1,11.5-7.3,21.9-18.7,23.2
		l-0.1,0C288.2,494.8,288,494.8,287.2,494.8L287.2,494.8z"/>
	<path class="st1" d="M287.3,484.8c-5.7,0-10.5-4.4-11.1-10.1l-2.2-22.4c-0.3-3,0.6-5.9,2.5-8.2c0.2-0.2,0.3-0.4,0.5-0.6
		l-21.3-181.1l-20.4,180.5c2.3,2.3,3.6,5.7,3.2,9.2l-2.5,22.4c-0.7,6.2-6.3,10.6-12.5,9.9l-111.9-12.7c-3-0.3-5.7-1.8-7.5-4.2
		c-1.9-2.3-2.7-5.3-2.4-8.3l2.5-22.4c0.3-3,1.8-5.7,4.2-7.5c0.4-0.3,0.8-0.6,1.2-0.9l34.9-296.5c0-0.6,0-1.2,0.1-1.9l6.2-50.8
		c0.1-0.6,0.2-1.2,0.4-1.8l0.2-1.6c-1.4-1.9-2.2-4.3-2.2-6.8l0.2-24.8c0-2.8,1.1-5.4,2.8-7.4c1-5.2,5.6-9,11.1-9l189.2,0.9
		c5.8,0,10.6,4.5,11.1,10.2c1.3,1.8,2,4.1,2,6.5l-0.2,24.8c0,2.2-0.7,4.3-1.8,6.1l39.2,353.9c0.5,0.3,1,0.6,1.5,1
		c2.3,1.9,3.8,4.6,4.1,7.6l2.2,22.4c0.6,6.1-3.8,11.6-9.9,12.3C400.7,473.5,287.7,484.8,287.3,484.8z"/>
	<polygon class="st2" points="211.6,69.3 201.6,69.2 201.6,72 211.6,72 	"/>
	<polygon class="st2" points="247.4,69.4 253.4,69.4 253.4,69.4 247.4,69.4 247.4,72.3 247.4,72.3 	"/>
	<path class="st2" d="M178,44.3l10,0l0-5.1c0,0,0-0.1,0-0.1l-10,0c0,0,0,0.1,0,0.1L178,44.3z"/>
	<path class="st2" d="M163.7,39.1C163.7,39.1,163.7,39.1,163.7,39.1l-0.4-0.1l0,5.2l0.4,0L163.7,39.1z"/>
	<polygon class="st2" points="253.5,44.6 247.6,44.5 247.6,41.4 256.6,41.4 256.6,39.5 247.6,39.5 247.6,44.5 	"/>
	<path class="st2" d="M201.8,44.4l10,0l0-5.1l-10,0c0,0.1,0,0.1,0,0.2L201.8,44.4z"/>
	<polygon class="st2" points="234,44.5 234.1,39.4 226.4,39.4 226.3,44.5 	"/>
	<polygon class="st2" points="187.8,69.2 177.8,69.2 177.8,71.8 187.8,71.9 	"/>
	<polygon class="st2" points="253.5,44.6 256.6,44.6 256.6,44.6 253.5,44.6 253.5,55.4 253.5,55.4 	"/>
	<polygon class="st2" points="233.9,69.3 226.2,69.3 226.2,72.1 233.9,72.2 	"/>
	
		<rect x="162" y="70.2" transform="matrix(3.106494e-03 -1 1 3.106494e-03 92.3768 233.497)" class="st2" width="2.6" height="0.4"/>
	<polygon class="st2" points="253.4,58.9 253.4,67.8 253.4,58.9 	"/>
	<path class="st3" d="M351.4,40.4l0,4.9l1.1,0l0-5.3l-1.1,0C351.4,40.1,351.4,40.2,351.4,40.4z"/>
	<path class="st3" d="M351.2,73l0.3,0c0.3,0,0.6,0.1,0.8,0.2l0-3l-1.1,0L351.2,73z"/>
	
		<rect x="304.8" y="65.4" transform="matrix(6.705492e-03 -1 1 6.705492e-03 232.9306 376.9601)" class="st3" width="2.9" height="11.7"/>
	<path class="st3" d="M327.2,40.2l0,4.9l9.8,0.1l0-4.9c0-0.1,0-0.3,0-0.4l-9.9-0.1C327.2,39.9,327.2,40.1,327.2,40.2z"/>
	
		<rect x="330.5" y="66.5" transform="matrix(6.705259e-03 -1 1 6.705259e-03 258.2943 402.839)" class="st3" width="2.9" height="9.8"/>
	<path class="st3" d="M275.1,41.6l0-2c0,0,0-0.1,0-0.1l-18.5-0.1l0,0.2l0,1.9L275.1,41.6z"/>
	
		<rect x="264.4" y="36.8" transform="matrix(6.825780e-03 -1 1 6.825780e-03 218.0078 308.8066)" class="st3" width="0" height="15.7"/>
	<path class="st3" d="M300.6,40.1l0,4.9l11.7,0.1l0-4.9c0-0.1,0-0.3,0-0.4l-11.7-0.1C300.6,39.8,300.6,39.9,300.6,40.1z"/>
	
		<rect x="281.3" y="67.5" transform="matrix(6.697116e-03 -1 1 6.697116e-03 209.7338 353.2902)" class="st3" width="2.9" height="7.2"/>
	<path class="st3" d="M279.3,39.6l0,5.2l7.2,0l0-4.9c0-0.1,0-0.3,0-0.4l-7.2,0C279.3,39.5,279.3,39.6,279.3,39.6z"/>
	<rect x="138" y="132.5" class="st4" width="0" height="305"/>
	<path class="st4" d="M257.1,151.2c-1.2,0-2.1-1-2.1-2.1l0.5-72.5l-8.5-0.1c-0.4,0.7-1.2,1.1-2.1,1.1h0l0,0l-8.6-0.1l0,0h0
		c-0.9,0-1.6-0.5-2.1-1.2l-8.7-0.1c-0.4,0.4-0.9,0.6-1.5,0.6l-8.6-0.1l-41.7,365.6l49.7,5.6l33.8-296.3L257.1,151.2
		C257.1,151.2,257.1,151.2,257.1,151.2z"/>
	<rect x="162.5" y="75.9" class="st4" width="0" height="4.7"/>
	<path class="st5" d="M212.2,76.3l-10.9-0.1c-0.4,0.6-1,1-1.8,1l-9.6-0.1c-0.8,0-1.4-0.4-1.8-1L177.5,76c-0.4,0.6-1,1-1.8,1
		L165.6,77c-0.8,0-1.4-0.4-1.8-1l-0.7,0c-0.1,0-0.2,0-0.2,0l-0.6,4.7l38,0.3c0-0.1,0-0.1,0-0.2c0.1-1.2,1.1-2,2.3-1.9
		c1.2,0.1,2,1.1,1.9,2.3c0,0.5-5,52.6-48.5,52.5l-36,302.9l53.7,6.1l41.7-365.6l-1.7,0C213.1,76.9,212.6,76.6,212.2,76.3z"/>
	<polygon class="st3" points="257,173 257.1,151.2 257.1,151.2 257.1,151.9 257,176.5 289,448.6 289.4,448.6 	"/>
	<path class="st3" d="M350.1,77.2c-0.3,0.2-0.6,0.3-1,0.3l-10.1-0.1c-0.4,0-0.7-0.1-1-0.3l-12-0.1c-0.3,0.2-0.6,0.3-1,0.3l-10.7-0.1
		c-0.4,0-0.7-0.1-1-0.3l-13.9-0.1c-0.2,0.1-0.4,0.2-0.6,0.2l40.7,366.5l53.2-5.3l-33.7-303.5c-0.2,0.1-0.5,0.1-0.8,0.1
		c-43.7-0.3-48-52.6-48-53.1c-0.1-1.2,0.8-2.2,1.9-2.3c1.2-0.1,2.2,0.8,2.3,1.9c0,0,0,0.1,0,0.2l38.2,0.3l5.4,48.7
		c0.1,0,0.2,0,0.2,0c0.1,0,0.2,0,0.3,0l-6-53.7c-0.3,0.2-0.6,0.3-1,0.3L350.1,77.2z"/>
	<path class="st6" d="M298.2,77.1l-9.9-0.1c-0.4,0-0.7-0.1-1-0.3l-9.4-0.1c-0.3,0.2-0.6,0.3-1,0.3c-0.4,0-0.7-0.1-1-0.3l-1.3,0
		c-0.1,9.6-0.3,49.1-0.4,58.3c-0.1,8.2-10.5,12.2-15.1,13.5l0,0.6c0,1.2-1,2.1-2.1,2.1L257,173l32.4,275.6l49.9-5L298.7,77.1
		C298.5,77.1,298.4,77.1,298.2,77.1z"/>
	<polygon class="st7" points="253.4,58.9 253.4,67.8 253.4,69.4 253.4,58.9 	"/>
	<polygon class="st7" points="253.5,44.6 272.3,44.7 272.3,44.7 256.6,44.6 	"/>
	<polygon class="st7" points="253.5,55.4 253.5,55.4 253.5,44.6 	"/>
	
		<rect x="319.6" y="52.6" transform="matrix(6.699050e-03 -1 1 6.699050e-03 272.2451 389.1683)" class="st7" width="24.8" height="9.8"/>
	<path class="st7" d="M286.5,44.8l-7.2,0l-0.1,7.6l0.9,0c1.2,0,2.1,1,2.1,2.1l0,5.6c0,1.2-1,2.1-2.1,2.1l-0.9,0l0,7.4l7.2,0
		L286.5,44.8z"/>
	<polygon class="st7" points="351.2,70.1 352.3,70.1 354.2,70.1 354.4,45.3 352.4,45.3 351.4,45.3 	"/>
	
		<rect x="293.9" y="51.5" transform="matrix(6.700254e-03 -1 1 6.700254e-03 246.881 363.2894)" class="st7" width="24.8" height="11.7"/>
	<polygon class="st7" points="272.2,69.6 272.2,69.5 253.4,69.4 253.4,69.4 253.4,69.4 	"/>
	
		<rect x="257.5" y="40.7" transform="matrix(6.713677e-03 -1 1 6.713677e-03 211.0367 312.6287)" class="st7" width="10.8" height="18.8"/>
	
		<rect x="257.5" y="54.8" transform="matrix(6.704384e-03 -1 1 6.704384e-03 196.8109 326.574)" class="st7" width="10.5" height="18.8"/>
	<polygon class="st8" points="211.8,44.4 201.8,44.4 201.6,69.2 211.6,69.3 	"/>
	<polygon class="st8" points="163.7,44.3 163.3,44.3 160.7,44.3 160.5,69.1 163.1,69.1 163.5,69.1 	"/>
	<polygon class="st8" points="234,44.5 226.3,44.5 226.2,69.3 233.9,69.3 	"/>
	<polygon class="st8" points="188,44.4 178,44.3 177.8,69.2 187.8,69.2 	"/>
	<polygon class="st8" points="253.4,69.4 253.4,67.8 253.4,58.9 247.5,58.9 247.5,55.4 253.5,55.4 253.5,44.6 253.5,44.6 
		247.6,44.5 247.4,69.4 253.4,69.4 	"/>
	
		<rect x="224.2" y="53.8" transform="matrix(6.706845e-03 -1 1 6.706845e-03 183.4557 296.0152)" class="st7" width="33.1" height="3.7"/>
	
		<rect x="240.6" y="73.3" transform="matrix(6.700705e-03 -1 1 6.700705e-03 161.3747 317.6582)" class="st7" width="0" height="8.6"/>
	<path class="st6" d="M200.3,80.9l-38-0.3l0,0l-0.2,0l-6,48.7C194.9,129.4,199.9,84.5,200.3,80.9z"/>
	<path class="st9" d="M357.8,130.6l-5.4-48.7l-38.2-0.3C314.5,85.3,319.1,130.2,357.8,130.6z"/>
	<path class="st10" d="M171.6,446.5l-54.5-6.2c-0.8-0.1-1.4-0.6-1.7-1.2l-2.4,21.3l111.9,12.7l-55.7-6.7L171.6,446.5z"/>
	<polygon class="st11" points="340.2,447.9 397.3,442.2 398.5,452.7 397.4,442 285.4,453.2 285.3,453.2 287.4,473.5 342,468.1 	"/>
	<path class="st11" d="M171.6,446.5l-2.4,19.9l55.7,6.7l2.5-20.3c-0.1,0-0.1,0-0.2,0L171.6,446.5z"/>
	<polygon class="st12" points="399.6,462.7 398.5,452.7 397.3,442.2 340.2,447.9 342,468.1 342,468.3 	"/>
	<path class="st11" d="M259.7,76.6l-0.5,71.9c4.6-1.3,15-5.3,15.1-13.5c0.1-9.3,0.3-48.7,0.4-58.3L259.7,76.6z"/>
	
		<rect x="203.2" y="53.9" transform="matrix(6.700634e-03 -1 1 6.700634e-03 160.5651 275.524)" class="st3" width="31.5" height="6.1"/>
	
		<rect x="179.1" y="54.5" transform="matrix(6.701713e-03 -1 1 6.701713e-03 136.3032 251.612)" class="st3" width="31.5" height="5.4"/>
	
		<rect x="155" y="54.1" transform="matrix(6.702902e-03 -1 1 6.702902e-03 112.5849 227.412)" class="st3" width="31.5" height="5.9"/>
	
		<rect x="328.7" y="54.9" transform="matrix(6.705564e-03 -1 1 6.705564e-03 283.981 401.5353)" class="st9" width="30.7" height="5.9"/>
	
		<rect x="304.2" y="54.4" transform="matrix(6.700929e-03 -1 1 6.700929e-03 259.8181 376.8775)" class="st9" width="30.7" height="6.5"/>
	
		<rect x="278.1" y="54.7" transform="matrix(6.697050e-03 -1 1 6.697050e-03 233.9765 350.5128)" class="st9" width="30.7" height="5.7"/>
	<polygon class="st13" points="256.6,44.6 272.3,44.7 272.3,44.7 272.3,44.7 272.2,55.6 275.7,55.6 275.8,41.6 275.1,41.6 
		256.6,41.4 247.6,41.4 247.6,44.5 253.5,44.6 253.5,44.6 	"/>
	<polygon class="st13" points="272.2,59 272.2,69.5 272.2,69.6 253.4,69.4 247.4,69.4 247.4,72.3 247.4,72.5 274.9,72.6 275.6,72.7 
		275.7,59.1 	"/>
	<polygon class="st14" points="272.2,55.6 253.5,55.4 253.5,55.4 253.5,55.4 247.5,55.4 247.5,58.9 253.4,58.9 253.4,58.9 
		253.4,58.9 272.2,59 275.7,59.1 278.7,59.1 278.7,55.6 275.7,55.6 	"/>
</g>
<g id="safe">
</g>
</svg>
