<?xml version="1.0" encoding="utf-8"?>
<!-- Generator: Adobe Illustrator 25.4.1, SVG Export Plug-In . SVG Version: 6.00 Build 0)  -->
<svg version="1.1" xmlns="http://www.w3.org/2000/svg" xmlns:xlink="http://www.w3.org/1999/xlink" x="0px" y="0px"
	 viewBox="0 0 512 512" style="enable-background:new 0 0 512 512;" xml:space="preserve">
<style type="text/css">
	.st0{fill:#FFFFFF;stroke:#BCBCBC;stroke-miterlimit:10;}
	.st1{fill:#061C2F;}
	.st2{fill:#3B779B;}
	.st3{fill:#245879;}
	.st4{fill:#2F6487;}
	.st5{fill:#5191B2;}
	.st6{fill:#427996;}
	.st7{fill:#87583D;}
	.st8{fill:#AB8D7B;}
	.st9{fill:#0B4B70;}
	.st10{fill:#AAC0CE;}
	.st11{fill:#7999AD;}
	.st12{fill:#517C94;}
	.st13{fill:#D2D2D0;}
	.st14{fill:#E6E4E3;}
</style>
<g id="Layer_1">
	<path class="st1" d="M142.1,414.5c-3.7-3.7-4-9.6-0.6-13.8l13.1-16c1.7-2.1,4.2-3.5,7-3.7c0.2,0,0.5,0,0.7,0l103.5-131l-130,103.7
		c0,3-1.3,6-3.9,8.1l-16.1,12.8c-4.5,3.5-10.9,2.8-14.5-1.6l-64.2-80.7c-1.7-2.1-2.5-4.9-2.2-7.6c0.3-2.7,1.7-5.2,3.8-6.9l16.1-12.8
		c2.1-1.7,4.9-2.5,7.6-2.2c0.5,0.1,0.9,0.1,1.4,0.2L278.2,93.6c0.4-0.4,0.8-0.8,1.2-1.2l36.9-28.9c0.4-0.3,0.9-0.7,1.4-0.9l1.2-0.9
		c0.3-2.2,1.4-4.2,3-5.8l16.2-16c1.9-1.8,4.2-2.8,6.6-3c4-2.7,9.5-2.2,13,1.3l121.9,123.1c3.7,3.8,3.9,9.8,0.6,13.8
		c-0.4,2-1.3,3.9-2.9,5.5l-16.2,16c-1.5,1.4-3.3,2.4-5.1,2.8L252.3,454c0.1,0.5,0.2,1.1,0.3,1.6c0.3,2.7-0.5,5.4-2.3,7.6l-13.1,16
		c-3.6,4.4-10,5-14.4,1.5C222.8,480.6,142.4,414.7,142.1,414.5z"/>
	<polygon class="st2" points="362.1,96.4 355.7,89.9 353.9,91.7 360.3,98.2 	"/>
	<polygon class="st2" points="385.3,119.7 389.1,123.5 389.1,123.5 385.3,119.7 383.4,121.5 383.4,121.5 	"/>
	<path class="st2" d="M356.6,58.5L363,65l3.3-3.3c0,0,0.1,0,0.1-0.1l-6.4-6.5c0,0,0,0.1-0.1,0.1L356.6,58.5z"/>
	<path class="st2" d="M350.7,45.9C350.7,45.8,350.7,45.8,350.7,45.9l-0.2-0.3l-3.4,3.4l0.3,0.3L350.7,45.9z"/>
	<polygon class="st2" points="405.3,107.5 401.5,103.7 403.5,101.7 409.3,107.5 410.6,106.3 404.8,100.4 401.5,103.7 	"/>
	<path class="st2" d="M371.9,73.9l6.4,6.5l3.4-3.3l-6.4-6.5c0,0-0.1,0.1-0.1,0.1L371.9,73.9z"/>
	<polygon class="st2" points="392.7,94.9 396,91.6 391.1,86.6 387.8,89.9 	"/>
	<polygon class="st2" points="346.8,80.9 340.4,74.5 338.6,76.2 345.1,82.7 	"/>
	<polygon class="st2" points="405.3,107.6 407.3,109.6 407.3,109.6 405.3,107.5 398.2,114.5 398.2,114.5 	"/>
	<polygon class="st2" points="376.5,110.9 371.6,105.9 369.7,107.7 374.7,112.7 	"/>
	
		<rect x="328.9" y="65.7" transform="matrix(0.7093 -0.7049 0.7049 0.7093 49.5464 251.8541)" class="st2" width="2.4" height="0.4"/>
	<polygon class="st2" points="395.9,116.8 390.1,122.5 395.9,116.8 	"/>
	<path class="st3" d="M471.4,168.2l-3.2,3.1l0.7,0.7l3.4-3.4l-0.7-0.7C471.6,168,471.5,168.1,471.4,168.2z"/>
	<path class="st3" d="M450.1,189.2l0.2,0.2c0.2,0.2,0.3,0.4,0.4,0.6l2-2l-0.7-0.7L450.1,189.2z"/>
	
		<rect x="420.8" y="153.6" transform="matrix(0.7118 -0.7023 0.7023 0.7118 10.0249 342.294)" class="st3" width="2.6" height="10.7"/>
	<path class="st3" d="M455.8,152.4l-3.2,3.1l6.3,6.4l3.2-3.1c0.1-0.1,0.2-0.2,0.3-0.2l-6.4-6.5C456,152.3,455.9,152.4,455.8,152.4z"
		/>
	<rect x="437.4" y="171.2" transform="matrix(0.7118 -0.7023 0.7023 0.7118 3.0191 358.7381)" class="st3" width="2.6" height="9"/>
	<path class="st3" d="M421.2,119.6l1.3-1.3c0,0,0.1,0,0.1-0.1l-11.9-12l-0.1,0.1l-1.3,1.2L421.2,119.6z"/>
	
		<rect x="412.3" y="107.5" transform="matrix(0.7119 -0.7023 0.7023 0.7119 38.2457 322.5986)" class="st3" width="0" height="14.4"/>
	<path class="st3" d="M438.7,135.1l-3.2,3.1l7.5,7.6l3.2-3.1c0.1-0.1,0.2-0.2,0.3-0.2l-7.6-7.7C438.9,134.9,438.8,135,438.7,135.1z"
		/>
	
		<rect x="405.7" y="140.3" transform="matrix(0.7118 -0.7024 0.7024 0.7118 16.4344 327.2566)" class="st3" width="2.6" height="6.6"/>
	<path class="st3" d="M425.2,121l-3.4,3.3l4.6,4.7l3.2-3.1c0.1-0.1,0.2-0.2,0.3-0.2L425.2,121C425.3,121,425.2,121,425.2,121z"/>
	<rect x="174.8" y="48.7" class="st4" width="0" height="279.3"/>
	<path class="st4" d="M338.6,178.9c-0.8-0.8-0.7-2,0-2.7l47.3-46.6l-5.5-5.6c-0.7,0.2-1.5,0-2.1-0.6l0,0l0,0l-5.5-5.6l0,0l0,0
		c-0.6-0.6-0.8-1.4-0.6-2.1l-5.6-5.7c-0.5,0-1-0.2-1.3-0.6l-5.6-5.6L95.9,313.5l28.5,35.8l213.7-170L338.6,178.9
		C338.6,178.9,338.6,178.9,338.6,178.9z"/>
	<rect x="324.6" y="68.3" class="st4" width="0" height="4.3"/>
	<path class="st5" d="M358,101.3l-7-7.1c-0.6,0.2-1.3,0-1.8-0.5l-6.2-6.3c-0.5-0.5-0.7-1.2-0.5-1.8l-6.8-6.9c-0.6,0.2-1.3,0-1.8-0.5
		l-6.5-6.6c-0.5-0.5-0.7-1.2-0.5-1.8l-0.5-0.5c-0.1-0.1-0.1-0.1-0.1-0.2l-3.4,2.7l24.4,24.8c0,0,0.1-0.1,0.1-0.1
		c0.8-0.7,2-0.6,2.7,0.2c0.7,0.8,0.6,2-0.2,2.7c-0.4,0.3-37.3,30.9-65.4,2.6L65.1,274.8l30.8,38.7l263.8-209.8l-1.1-1.1
		C358.2,102.3,358,101.8,358,101.3z"/>
	<polygon class="st3" points="324.4,192.9 338.6,178.9 338.6,178.9 338.1,179.4 322.1,195.2 166.6,392.1 166.9,392.4 	"/>
	<path class="st3" d="M446.7,191.2c-0.3-0.1-0.6-0.2-0.8-0.5l-6.5-6.6c-0.2-0.2-0.4-0.5-0.5-0.8l-7.7-7.8c-0.3-0.1-0.6-0.2-0.8-0.5
		l-6.9-7c-0.2-0.2-0.4-0.5-0.5-0.8l-8.9-9c-0.2-0.1-0.4-0.1-0.5-0.2l-211,263.7l37.9,31l174.7-218.4c-0.2-0.1-0.4-0.2-0.6-0.4
		c-28.1-28.5,2.9-65.1,3.3-65.5c0.7-0.8,1.9-0.9,2.7-0.2c0.8,0.7,0.9,1.9,0.2,2.7c0,0-0.1,0.1-0.1,0.1l24.6,24.9l-28.1,35.1
		c0.1,0.1,0.1,0.1,0.2,0.2c0.1,0.1,0.1,0.1,0.2,0.2l30.9-38.7c-0.3-0.1-0.6-0.2-0.8-0.5L446.7,191.2z"/>
	<path class="st6" d="M413.2,157.6l-6.4-6.4c-0.2-0.2-0.4-0.5-0.5-0.8l-6-6.1c-0.3-0.1-0.6-0.2-0.8-0.5c-0.2-0.2-0.4-0.5-0.5-0.8
		l-0.8-0.8c-6.3,6.2-32,31.6-38,37.5c-5.4,5.3-14.7,1.1-18.5-1l-0.4,0.4c-0.8,0.7-2,0.7-2.7,0l-14.2,14L166.9,392.4l35.6,29.1
		l211-263.7C413.4,157.7,413.3,157.7,413.2,157.6z"/>
	<polygon class="st7" points="395.9,116.8 390.1,122.5 389.1,123.5 395.9,116.8 	"/>
	<polygon class="st7" points="405.3,107.6 417.4,119.8 417.4,119.8 407.3,109.6 	"/>
	<polygon class="st7" points="398.2,114.5 398.2,114.5 405.3,107.6 	"/>
	
		<rect x="436.3" y="162.3" transform="matrix(0.7118 -0.7024 0.7024 0.7118 11.8836 362.5169)" class="st7" width="22.8" height="9"/>
	<path class="st7" d="M426.5,129l-4.6-4.7l-5,4.9l0.6,0.6c0.8,0.8,0.7,2,0,2.7l-3.7,3.6c-0.8,0.7-2,0.7-2.7,0l-0.6-0.6l-4.8,4.8
		l4.6,4.7L426.5,129z"/>
	<polygon class="st7" points="452,187.3 452.7,188 454,189.3 470.2,173.3 468.9,172 468.2,171.3 	"/>
	
		<rect x="419.8" y="144.7" transform="matrix(0.7118 -0.7024 0.7024 0.7118 18.8892 346.0723)" class="st7" width="22.8" height="10.7"/>
	<polygon class="st7" points="401.2,135.8 401.2,135.8 389.1,123.5 389.1,123.5 389.1,123.5 	"/>
	
		<rect x="402.8" y="108.6" transform="matrix(0.7118 -0.7023 0.7023 0.7118 35.2081 320.1707)" class="st7" width="9.9" height="17.2"/>
	
		<rect x="393.8" y="117.7" transform="matrix(0.7118 -0.7024 0.7024 0.7118 26.1691 316.3223)" class="st7" width="9.6" height="17.2"/>
	<polygon class="st8" points="378.3,80.4 371.9,73.9 355.7,89.9 362.1,96.4 	"/>
	<polygon class="st8" points="347.3,49.2 347,48.9 345.4,47.2 329.2,63.2 330.8,64.9 331.1,65.2 	"/>
	<polygon class="st8" points="392.7,94.9 387.8,89.9 371.6,105.9 376.5,110.9 	"/>
	<polygon class="st8" points="363,65 356.6,58.5 340.4,74.5 346.8,80.9 	"/>
	<polygon class="st8" points="389.1,123.5 390.1,122.5 395.9,116.8 392.1,112.9 394.4,110.7 398.2,114.5 405.3,107.5 405.3,107.5 
		401.5,103.7 385.3,119.7 389.1,123.5 	"/>
	
		<rect x="374.7" y="104.7" transform="matrix(0.7118 -0.7023 0.7023 0.7118 37.5741 304.4669)" class="st7" width="30.3" height="3.4"/>
	
		<rect x="375.5" y="116.6" transform="matrix(0.7118 -0.7024 0.7024 0.7118 23.5436 298.4909)" class="st7" width="0" height="7.9"/>
	<path class="st6" d="M347.3,96.6l-24.4-24.8l0,0l-0.1-0.1l-35.4,27.7C312.4,124.5,344.8,98.7,347.3,96.6z"/>
	<path class="st9" d="M417.1,230.8l28.1-35.1l-24.6-24.9C418.4,173.4,392.3,205.4,417.1,230.8z"/>
	<path class="st10" d="M91.9,314.8l-31.3-39.3c-0.4-0.6-0.5-1.3-0.3-1.9L45,285.8l64.2,80.7l-31.7-40.4L91.9,314.8z"/>
	<polygon class="st11" points="200.2,424.9 240.9,458.1 234.9,465.7 241.1,458.1 161.3,392.8 161.3,392.8 149.4,407.2 188.3,439.1 	
		"/>
	<path class="st11" d="M91.9,314.8l-14.4,11.3l31.7,40.4l14.7-11.5c0,0-0.1-0.1-0.1-0.1L91.9,314.8z"/>
	<polygon class="st12" points="229.1,472.9 234.9,465.7 240.9,458.1 200.2,424.9 188.3,439.1 188.2,439.2 	"/>
	<path class="st11" d="M388.6,132.3l-46.9,46.3c3.8,2.1,13.1,6.3,18.5,1c6-6,31.8-31.3,38-37.5L388.6,132.3z"/>
	
		<rect x="360.5" y="90.4" transform="matrix(0.7118 -0.7024 0.7024 0.7118 42.5926 290.1683)" class="st3" width="28.8" height="5.6"/>
	
		<rect x="344.7" y="75.2" transform="matrix(0.7118 -0.7024 0.7024 0.7118 48.9098 274.5975)" class="st3" width="28.8" height="4.9"/>
	
		<rect x="329.2" y="59.3" transform="matrix(0.7118 -0.7024 0.7024 0.7118 55.4609 259.2199)" class="st3" width="28.8" height="5.4"/>
	
		<rect x="441.3" y="172.1" transform="matrix(0.7118 -0.7023 0.7023 0.7118 8.462 370.198)" class="st9" width="28.1" height="5.4"/>
	
		<rect x="425.5" y="155.8" transform="matrix(0.7118 -0.7024 0.7024 0.7118 15.1387 354.533)" class="st9" width="28.1" height="6"/>
	
		<rect x="408.7" y="139.2" transform="matrix(0.7118 -0.7024 0.7024 0.7118 22.2764 337.7804)" class="st9" width="28.1" height="5.2"/>
	<polygon class="st13" points="407.3,109.6 417.4,119.8 417.4,119.8 417.4,119.8 410.3,126.8 412.5,129 421.7,120 421.2,119.6 
		409.3,107.5 403.5,101.7 401.5,103.7 405.3,107.5 405.3,107.5 	"/>
	<polygon class="st13" points="408,129 401.2,135.8 401.2,135.8 389.1,123.5 385.3,119.7 383.4,121.5 383.3,121.7 400.9,139.6 
		401.4,140 410.3,131.3 	"/>
	<polygon class="st14" points="410.3,126.8 398.2,114.5 398.2,114.5 398.2,114.5 394.4,110.7 392.1,112.9 395.9,116.8 395.9,116.8 
		395.9,116.8 408,129 410.3,131.3 412.2,133.2 414.5,131 412.5,129 	"/>
</g>
<g id="safe">
</g>
</svg>
