<svg id="artwotk" xmlns="http://www.w3.org/2000/svg" xmlns:xlink="http://www.w3.org/1999/xlink" viewBox="0 0 512 512"><defs><style>.cls-1,.cls-3{fill:#fff;}.cls-1{stroke:#d2d2d2;stroke-miterlimit:10;}.cls-2{fill:#1c1c1c;}.cls-4{fill:#40160e;}.cls-5{fill:#75330e;}.cls-6{fill:#ba6043;}.cls-7{fill:#3a3a3a;}.cls-8{fill:url(#linear-gradient);}.cls-9{fill:url(#linear-gradient-2);}.cls-10{fill:url(#linear-gradient-3);}.cls-11{fill:url(#linear-gradient-4);}.cls-12{fill:url(#linear-gradient-5);}.cls-13{fill:url(#linear-gradient-6);}.cls-14{fill:url(#linear-gradient-7);}.cls-15{fill:url(#linear-gradient-8);}.cls-16{fill:url(#linear-gradient-9);}.cls-17{fill:url(#linear-gradient-10);}.cls-18{fill:url(#linear-gradient-11);}.cls-19{fill:#d8ddd6;}.cls-20{fill:#ffae00;}.cls-21{fill:#ff863c;}.cls-22{fill:#dbd1d4;}.cls-23{fill:#474747;}.cls-24{fill:url(#linear-gradient-12);}.cls-25{fill:url(#linear-gradient-13);}.cls-26{fill:url(#linear-gradient-14);}.cls-27{fill:url(#linear-gradient-15);}.cls-28{fill:url(#linear-gradient-16);}.cls-29{fill:url(#linear-gradient-17);}.cls-30{fill:url(#linear-gradient-18);}.cls-31{fill:url(#linear-gradient-19);}.cls-32{fill:url(#linear-gradient-20);}.cls-33{fill:url(#linear-gradient-21);}.cls-34{fill:url(#linear-gradient-22);}.cls-35{fill:#aaa1a7;}.cls-36{fill:#106d90;}.cls-37{fill:#090909;}.cls-38{fill:#f8c598;}.cls-39{fill:#f5a06d;}.cls-40{fill:#fcbd94;}.cls-41{fill:url(#linear-gradient-23);}.cls-42{fill:#f8a47c;}.cls-43{fill:#00527d;}</style><linearGradient id="linear-gradient" x1="222.82" y1="348.58" x2="222.82" y2="377.93" gradientUnits="userSpaceOnUse"><stop offset="0" stop-color="#ffff8e"/><stop offset="1" stop-color="#ffae00"/></linearGradient><linearGradient id="linear-gradient-2" x1="226.86" y1="348.58" x2="226.86" y2="377.93" xlink:href="#linear-gradient"/><linearGradient id="linear-gradient-3" x1="221.03" y1="348.58" x2="221.03" y2="377.93" xlink:href="#linear-gradient"/><linearGradient id="linear-gradient-4" x1="221.74" y1="325.72" x2="221.33" y2="382.04" gradientUnits="userSpaceOnUse"><stop offset="0" stop-color="#ffff8e"/><stop offset="0.22" stop-color="#ffae00"/><stop offset="0.44" stop-color="#ff4e49"/></linearGradient><linearGradient id="linear-gradient-5" x1="232.84" y1="348.58" x2="232.84" y2="377.93" xlink:href="#linear-gradient"/><linearGradient id="linear-gradient-6" x1="233.11" y1="325.79" x2="232.7" y2="382.1" xlink:href="#linear-gradient-4"/><linearGradient id="linear-gradient-7" x1="488.38" y1="241.61" x2="286.2" y2="-34.39" gradientUnits="userSpaceOnUse"><stop offset="0" stop-color="#ffff8e"/><stop offset="0.22" stop-color="#ffae00"/><stop offset="0.53" stop-color="#ff5200"/><stop offset="0.73" stop-color="#b92e7a"/><stop offset="0.87" stop-color="#ff527a"/><stop offset="1" stop-color="#ff5200"/></linearGradient><linearGradient id="linear-gradient-8" x1="434.48" y1="259.55" x2="244.61" y2="0.35" xlink:href="#linear-gradient-7"/><linearGradient id="linear-gradient-9" x1="391.96" y1="278.96" x2="207.38" y2="26.97" xlink:href="#linear-gradient-7"/><linearGradient id="linear-gradient-10" x1="413.09" y1="245.3" x2="241.07" y2="10.46" xlink:href="#linear-gradient-7"/><linearGradient id="linear-gradient-11" x1="364.56" y1="298.49" x2="174.23" y2="38.66" xlink:href="#linear-gradient-7"/><linearGradient id="linear-gradient-12" x1="430.08" y1="297.04" x2="455.71" y2="297.04" xlink:href="#linear-gradient-4"/><linearGradient id="linear-gradient-13" x1="430.08" y1="296.95" x2="455.71" y2="296.95" xlink:href="#linear-gradient-4"/><linearGradient id="linear-gradient-14" x1="430.08" y1="296.82" x2="455.71" y2="296.82" xlink:href="#linear-gradient-4"/><linearGradient id="linear-gradient-15" x1="430.08" y1="297.1" x2="455.71" y2="297.1" xlink:href="#linear-gradient-4"/><linearGradient id="linear-gradient-16" x1="430.08" y1="275.72" x2="455.71" y2="275.72" xlink:href="#linear-gradient-4"/><linearGradient id="linear-gradient-17" x1="430.08" y1="296.63" x2="455.71" y2="296.63" xlink:href="#linear-gradient-4"/><linearGradient id="linear-gradient-18" x1="430.08" y1="296.68" x2="455.71" y2="296.68" xlink:href="#linear-gradient-4"/><linearGradient id="linear-gradient-19" x1="430.08" y1="297.04" x2="455.71" y2="297.04" xlink:href="#linear-gradient-4"/><linearGradient id="linear-gradient-20" x1="430.08" y1="296.81" x2="455.71" y2="296.81" xlink:href="#linear-gradient-4"/><linearGradient id="linear-gradient-21" x1="430.08" y1="296.65" x2="455.71" y2="296.65" xlink:href="#linear-gradient-4"/><linearGradient id="linear-gradient-22" x1="430.08" y1="286.38" x2="455.71" y2="286.38" xlink:href="#linear-gradient-4"/><linearGradient id="linear-gradient-23" x1="290.48" y1="262.07" x2="390.5" y2="262.07" gradientUnits="userSpaceOnUse"><stop offset="0" stop-color="#ffae00"/><stop offset="0.24" stop-color="#ff5200"/><stop offset="1" stop-color="#b92e7a"/></linearGradient></defs><path class="cls-1" d="M485.55,233.14,468,223.58l18.48-10.19A10,10,0,0,0,485,195.21L450.84,183l6-32.62a9.8,9.8,0,0,0,.17-1.8v-19a10,10,0,0,0-10-10,10.21,10.21,0,0,0-1.91.18L433.87,122c20.62-29.82,22.28-40.47,22.89-44.42L458,69.47a10,10,0,0,0-7.86-11.33l-5.84-1.2-7.44-39.85A10,10,0,0,0,427.66,9c-.21,0-.42,0-.63,0a10,10,0,0,0-9.52,7l-8,25.14c-3.09-3.89-8.61-10.15-14.59-13.8-5-3.06-11.24-4.6-18.57-4.6a66,66,0,0,0-15.25,1.93l-11.37,2.78A10,10,0,0,0,342.9,41l3.83,9c1.12,2.63,2.45,5.94,3.85,9.64a34.28,34.28,0,0,0-7.86-1.19c-.37,0-.75,0-1.15,0a34.49,34.49,0,0,0-6.42.6l8.53-33.16a10,10,0,0,0-17.8-8.33L290.17,67.2c-1.89,2.63-4.29,5.66-6,7.54L284,75l-.34.41a32.17,32.17,0,0,0,4.83-13.74c.78-5.65-.41-14.25-10.54-23.16-7.22-6.35-22.71-15.81-35.76-15.81h-.39c-8.63.13-16.65,4.28-25.24,13.07-15.32,15.66-28.52,42.65-27,76.64L167.86,73.55a10,10,0,0,0-6.46-4.87l-.34-1.33a10,10,0,0,0-9.69-7.53h-.3a10,10,0,0,0-8.57,5.38,10,10,0,0,0-5.26,9l.08,4.14-12.15,19-16.36,15.47a152.85,152.85,0,0,0-18.38,21.11,39,39,0,0,0-6.12.85l-6.78,1.51A10.05,10.05,0,0,0,73,138.68a10,10,0,0,0-8.7,8.39l-1.19,7.7a136.2,136.2,0,0,1-3.36,14.76q-1.32,4.54-2.89,9.66C53,191.88,49,205,48.21,214.15c-1.15,13.32-1.41,31.69-1.47,38.91L44.35,261c0,.13-.07.25-.1.38l-1.17,4.48a11.1,11.1,0,0,0-.24,1.28C41.65,276.7,40,287,37.92,297.85c-7.37,38.52-8.08,63.17-2.5,87.94l.24,1.1a10.17,10.17,0,0,0,.56,1.72c8.89,36.72,30.43,64.46,64,82.46,28.3,15.15,64.67,22.83,108.13,22.83,3.41,0,6.91,0,10.43-.15l7.3,6.34a9.89,9.89,0,0,0,6,2.44l42.11,2.22h.53a10.14,10.14,0,0,0,1.23-.07l1.26-.16c61.66-7.69,131.3-13.64,134.23-13.89l4.94-.41a10,10,0,0,0,6.41-3.08l18.3-19.26a10,10,0,0,0,1.16-12.31L439,450.39c-.9-1.39-1.79-2.82-2.71-4.37-15-25.09-18.85-49-11.58-71a68.15,68.15,0,0,1,14.84-25.26l.16-.16a17.85,17.85,0,0,0,5.6-16.66c-1.28-6.34-5.95-11.59-12.53-14.1A60.84,60.84,0,0,1,418,310l1.67-1.6.82.31,48.4,20a10,10,0,0,0,11.33-15.85l-5-5.68h1A10,10,0,0,0,481,288.39a10,10,0,0,0,0-3.78,9.88,9.88,0,0,0-1.95-4.36,10,10,0,0,0,.26-13.53,10,10,0,0,0,2.7-11.13,9.82,9.82,0,0,0-1.6-2.74l4.09-1.65a10,10,0,0,0,1.05-18.06Z"/><path class="cls-2" d="M447.16,223.64l34.46-19-42.14-15.06,7.49-41v-19l-36.19,7c16.06-21.05,34-47,36.1-60.62l1.25-8.06-9.81-2s-2.66-.84-2.84-1.78L427,18.93,413,63.22c-2.29,7.19-6.77,20.18-12.22,33.87,1.63-23.62,3.87-42.12,3.9-42.43l.37-3L403.05,49c-1.66-2.21-7.5-9.68-13.34-13.25-8.34-5.09-21.12-2.74-26.23-1.49L352.1,37.05l3.84,9c3.44,8.1,11.51,29,14.59,44.09C365,78.35,354.71,68.84,342.38,68.43c-5.26-.18-15.12,1.23-22,12.62a41.41,41.41,0,0,0-2.46,4.8L334,23.37,298.29,73c-2.19,3-4.78,6.3-6.63,8.37L284.56,90c-1.86,16.48-1.22,19.19-1,20.21l3.83,16.23c-5.81-10.86-13.72-16.94-23.62-18.1-11.07-1.3-21.42,3.74-30.81,15a45.38,45.38,0,0,1-2.32-11c-.93-9.89.83-19.54,4.84-26.49,1-1.77,2-3.29,2.83-4.6V94.61l27.47-9.06,1.89-3.33c2.64-4.64,4.48-7.48,5.83-9.54,2.85-4.36,4.25-6.7,5-12.35.64-4.68-1.79-9.48-7.24-14.28-6.2-5.45-19.81-13.45-29.4-13.32-3.66.06-9.54,1.16-18.25,10.06C206.12,60.73,191.73,95.45,204,139.07c2.3,8.19,6.11,14.7,11.07,19.19.92.83-2.27-.38-2.27-.38s.29,8.79-.45,10.41c-.78-4.44-1.46-7.28-1.55-7.63L209,153.18h-5.87l-1-2.69-8.8.17-.4-.47c-3.3-16.72-7.84-25.2-8.4-26.2l-25.4-45.57,1.46,21.37-3.12-6-6.1-24-1.26,6.56-.73,1.77L147.23,74l.18,8.9-.41,1,.08-2.26-14.15,22.12-17.25,16.32C114.12,121.56,103,132.27,95.74,144a29.1,29.1,0,0,0-9.26.51l-6.78,1.52-.6,2.36-5,.19-1.2,7.71a145.47,145.47,0,0,1-3.64,16c-.89,3.07-1.87,6.33-2.91,9.77-3.7,12.2-7.52,24.83-8.22,32.93-1.22,14.14-1.41,34.57-1.44,39.57l-2.8,9.29-1.17,4.47c-1.22,9.81-2.9,20.37-5,31.39-7.09,37-7.81,60.56-2.57,83.87l.25,1.09.26.47c8,34.38,28,60.31,59.3,77.09,26.87,14.39,61.59,21.65,103.41,21.65q6.88,0,14-.27l10.25,8.92,42.11,2.21,1.25-.15c62.73-7.82,133.92-13.87,134.63-13.93l4.94-.42L433.91,461l-3.35-5.19c-.94-1.46-1.89-3-2.89-4.67-16.51-27.69-20.71-54.35-12.48-79.22,6.16-18.62,17.38-29.32,17.46-29.39l.23-.22c4.92-4.57,3-11.65-3.87-14.15h0c-12.64-5.44-20.44-12.38-25.21-18.39L417.11,297c4.44,1.37,7.1,2.44,7.13,2.45l48.46,20-19.86-22.55,23.38.27-10.7-5,5.64-5.86-10.64-5.1,11.3-7.94-16.11-1.49,17-12.63-18.12,1.88,2.37-2.28-9.05-3.66,32.88-13.24ZM361,194.53h0a36.46,36.46,0,0,0,5.38-3.39l8.05,3.5a36.12,36.12,0,0,0-8.45.38c-1.29.24-2.59.5-3.87.76h-2.83l-1.27.89-2.1.49-.26.06-2.53.63A50,50,0,0,0,361,194.53Zm47.53,3.95-3.89-9c-1.79-4.11-4-12.31-5-28.49l7.84-1.22Zm12.82,10.61-4.35,2a14.91,14.91,0,0,0-1.26-1.36,30,30,0,0,0-3.55-2.84l-.16-.35Zm-81.15,24.14c0,.36.09.7.13,1.05s.12.7.23,1a6.68,6.68,0,0,0,.84,1.94,4.93,4.93,0,0,0,.68.83,2.87,2.87,0,0,0,.71.52c1.92-.17,3.83-.55,5.75-.91s4-.76,6.05-1a17,17,0,0,1,6.61.31,7.47,7.47,0,0,1,3.06,1.72,6.86,6.86,0,0,1,1.66,2.62l-3.19.63a4.37,4.37,0,0,0-.85-1.79A4.24,4.24,0,0,0,360.1,239a14.24,14.24,0,0,0-5.37-.61c-2,.07-3.94.3-6,.53s-4,.46-6.12.49h-.17l-.09,0a3.62,3.62,0,0,1-1.07-.88,4.75,4.75,0,0,1-.65-1,7,7,0,0,1-.66-2.12c-.07-.36-.08-.72-.12-1.07s0-.72,0-1.07,0-.71.08-1.07l.15-1,0,1.06C340.11,232.53,340.14,232.88,340.15,233.23ZM362.06,248l2.27,1.9-13.13,9.62,20.91-10.88h0l10.31-4.4-10.1,4.69L342.7,265.7l-1.18-1.17Zm-57.36,4.39a41.79,41.79,0,0,0,2.73-4,7.37,7.37,0,0,0,.51-1c.08-.17.22-.42.33-.63a4.24,4.24,0,0,1,.54-.59,4.42,4.42,0,0,1,.76-.44,4.37,4.37,0,0,1,.83-.25,7.23,7.23,0,0,1,1.64-.14,20.6,20.6,0,0,1,3,.3c1,.15,1.9.33,2.83.49s1.84.3,2.74.38l.33,0,.16,0h.11a1.13,1.13,0,0,0,.34,0,1,1,0,0,0,.53-.35,3.75,3.75,0,0,0,.73-1.7,12.4,12.4,0,0,0,.21-2.13,24.1,24.1,0,0,0-.41-4.4l3.26-.32a26,26,0,0,1,0,4.83,13.55,13.55,0,0,1-.47,2.45,5.58,5.58,0,0,1-1.44,2.53,3.65,3.65,0,0,1-1.82.92,3.9,3.9,0,0,1-1.07.06h-.26l-.19,0-.38-.06c-1-.15-2-.36-2.89-.58l-2.75-.64a20.26,20.26,0,0,0-2.67-.43,3.54,3.54,0,0,0-2.17.36,3.19,3.19,0,0,0-.33.31c-.08.15-.17.24-.27.43a9.86,9.86,0,0,1-.66,1.09,45.92,45.92,0,0,1-3.15,3.93c-2.23,2.52-4.56,5-6.94,7.39C300.61,257.55,302.72,255,304.7,252.34Zm.71,21-.49-2.6,19.5-1.55,3-.24-2.64,1.13-25.57,11,21.85-10.35ZM389,255.56c.46-12.87,1.83-25.74,1.31-38.62-.15-3.94-1.7-6.79-6.2-8.62a22.58,22.58,0,0,0-2.91-.93,27.69,27.69,0,0,0-5-.73c-.59,0-1.19,0-1.8,0a32.44,32.44,0,0,0-4.66.36c1.68-.37,3.4-.71,5.14-1,8.83-1.65,31.79,4.54,39.74,12.11,5.48,5.21,4.61,33.64,2.57,55q-6.57.15-13.06.83a153.12,153.12,0,0,0-16.93,2.74c.95-3.79,1.76-7.62,1.71-9.79C388.82,263.09,388.88,259.33,389,255.56ZM371.07,118.3c-.05.65-.09,1.3-.14,2l-.51-1.41ZM345.19,147l1.72,4.18c3.43,8.31,1.14,13.67-.51,15.52-2.09-2-6.13-8.74-6.13-24.16,0-19.07,1.48-30.77,3.05-37.81,1,2.4,2.18,5.38,3.38,9.08l1,3.08,3.16,1.94c3.69,2.26,9.45,4,15,2.29Zm-32.65-40.28.08-.33c-.2,1.49-.39,3-.56,4.63l-.17-.07-3-1ZM324,192.89v-.12a25.51,25.51,0,0,0,6.12,4.1,28,28,0,0,0,12.23,2.72,33.74,33.74,0,0,0,7-.76c-23.8,6.53-40.57,16-50.71,23-1.14.79-2.86,2-4.85,3.56Zm-35.36-65.25.09.5s.08.49.21,1.29l-.69-1.45Zm-.42,93.53-1.27,9.94c-5.06,4.69-9.66,10.18-9.66,14.69,0,.4,0,1.37-.07,2.73l-26.42-8.05.68,0a44.27,44.27,0,0,0,22.3-6A46.35,46.35,0,0,0,288.19,221.17Zm-5.51,148-4.75,18.68c-9.64,14.16-7.6,9.91-19.49,14.33l-.46-7.77-.68-11.59c.77-.34,1.5-.68,2.22-1l.69-.31,1.43-.66.72-.33,1.3-.61.64-.3,1.37-.65.43-.2,1.7-.82.19-.09,1.37-.67.44-.22,1-.52.43-.21,1-.5.34-.17,1.15-.6,0,0,1.15-.6.16-.09.85-.46.25-.14.7-.39.22-.12.67-.39.15-.08c.52-.31,1-.59,1.4-.85l.12-.07.46-.29.14-.1.38-.25.12-.08.37-.26.06,0,.37-.27,0,0,.27-.21.09-.07.17-.14L282,370l.13-.12.08-.07.1-.1.09-.09.08-.09.07-.08,0,0,.05-.07v0l0-.07.06-.22h0S282.77,369,282.68,369.2Zm-49.53-58.55c-3.66-.35-8.56-2.09-12.13-1.32-4.74,1-6.59,5.75-11.32,7.26-7.94,2.55-17.39,2.22-25.32-.21-.69-.21-1.06-.35-1.06-.35-10.37,10.59-26,10.07-34.93,8.66l-16.15-15.47,2.93,7.79,1.78,4.74L139,327.2c-11,23,8.9,72.67,8.9,72.67l27.27,1.58L165.91,422l-.11.24,19,20.57c-41.19,8-68.89-3.9-68.89-3.9-2-3.78-3.84-7.47-5.54-11.11-8-17-12.56-32.78-12.3-50.12,0-2.42.13-4.82.26-7.19,2.49-43.46,20.78-78.35,20.78-78.35s35.49,3,68.49-2.67a133.82,133.82,0,0,0,25.59-6.75c25-9.69,33-14.87,33-14.87a12.45,12.45,0,0,1,3.5,1.53,9,9,0,0,1,4.21,6l-.68.31-.33.14a264.72,264.72,0,0,1-26.79,9.24c-4.64,1.38-9.32,2.67-14,3.92s-9.43,2.45-14.19,3.57q7.26-1.32,14.46-2.84c4.8-1,9.6-2.06,14.36-3.2A271.22,271.22,0,0,0,255,278.42l1-.37v0c2.22-.84,4.38-1.74,6.5-2.7,1.23-.56,2.45-1.14,3.65-1.75.68-.35,1.35-.71,2-1.09.41.26.82.53,1.21.8.83.56,1.63,1.15,2.38,1.76l.46.39a13.38,13.38,0,0,1,3,5.53h0l-.25.06-.31.07-2.51.58c-3.36.76-6.76,1.47-10.17,2.15-6.83,1.37-13.7,2.66-20.58,3.92q-20.64,3.76-41.39,7.2,21-2.28,42-4.86c7-.88,14-1.78,21-2.77,3.49-.5,7-1,10.47-1.61l2.63-.44.33-.06.38-.08.73-.16,1.35-.35c.88-.24,1.72-.49,2.56-.73l.22-.07c1.45,3.65,3.38,11.62-6,14.6l-.88.28c-.11-.66-.22-1.31-.35-2s-.27-1.4-.43-2.13l-.43-1.93-2.31.15-38.56,2.46c-6.42.39-12.85.84-19.27,1.29l-19.27,1.34,38.67-.46,36.21-.36,0,.2c.09.68.17,1.35.24,2l.09,1a9.33,9.33,0,0,1-1,3.91,8.72,8.72,0,0,1-.67,1.12,10.58,10.58,0,0,1-.89,1.08c-.17.17-.35.35-.54.52a12.54,12.54,0,0,1-2,1.45l-.81.44C257.65,311.73,243.33,311.63,233.15,310.65Zm-28.52-44.87c-1.29-.53-2.57-1.1-3.81-1.74,1.45.22,2.86.5,4.27.82.7.16,1.4.31,2.09.49s1.39.34,2.07.54l2.1.61-2.07.8c-.9.35-1.8.72-2.72,1.06s-1.83.67-2.75,1-1.85.63-2.79.93l-1,.31,1.49.66c1.08.5,2.17,1,3.21,1.58-1.24-.2-2.45-.48-3.65-.75l-1.8-.45-1.77-.49-1.86-.51,1.85-.79c.9-.38,1.81-.72,2.71-1.08s1.82-.69,2.74-1,1.85-.65,2.78-.95l.79-.26C205.87,266.3,205.25,266,204.63,265.78Zm29.18-9.61-6.36-1.2-3.42-.64,3.39-.77,8.25-1.88,5.1-1.12-3.47-.8q-3.31-.75-6.62-1.55l-2.42-.57,2.4-.53,4.77-1.06,3.47-.75c-2.68-.81-5.37-1.61-8-2.47,3.22.69,6.41,1.46,9.62,2.19l1.36.31-1.38.37L235.78,247l-2.34.62c1.43.29,2.87.57,4.3.87l6.68,1.4,3.24.68-3.24.74-8.24,1.87-5,1.09,3,.63c2.1.43,4.2.89,6.31,1.35l2.12.45-2,.63c-2.12.66-4.26,1.3-6.4,1.94-1.94.59-3.89,1.15-5.84,1.71q2.32.93,4.63,1.9c-1.83-.56-3.64-1.14-5.45-1.73l-.58-.19.59-.22c2.08-.76,4.15-1.53,6.24-2.26l4.26-1.5C236.64,256.69,235.22,256.44,233.81,256.17Zm23.43-104.55a88.65,88.65,0,0,1,2.75,18.5c1.33,21.48-7.19,32.65-11.07,35.27-2.29-2.8-6-12.08-3.76-32.62l1.46-5.9-6.4-2.57C245.59,162.81,251.75,159.28,257.24,151.62Zm-45.68,75.62c.41-3.37.84-6.83,1.35-10.36a42.61,42.61,0,0,0,14.73,16.56l-6.27-1.91.11,1.09-9.95-5.08Zm.82,16.31c2.86-.75,5.74-1.46,8.61-2.18q-3.57-1.43-7.11-2.88,4,1.33,8,2.72l.65.22-.67.2c-3,.92-6.06,1.85-9.11,2.74l-6.53,1.91c2.82.36,5.65.71,8.47,1.09l11.16,1.49,3.77.5-3.61,1-14,4,5.24,1,8.64,1.63,3.13.59-3,.83c-2.9.8-5.78,1.61-8.69,2.38l-6.83,1.83,4,1.05c2,.51,3.93,1.06,5.88,1.59l1.13.31-1.11.3L212.53,268l3.29.86-3.81-.74-.44-.09.43-.14,7-2.25c-1.62-.36-3.24-.72-4.86-1.1l-6-1.39-1.9-.44,1.88-.57,8.6-2.57c1.87-.57,3.75-1.12,5.62-1.66l-5.56-1-8.67-1.56-3.42-.62,3.31-.95c4.59-1.31,9.2-2.59,13.81-3.88l-7.46-1.1c-3.71-.54-7.41-1.14-11.11-1.71l-2.73-.41,2.62-.69Zm-29.77-87.82c.1.58.19,1.17.29,1.78a18.93,18.93,0,0,1,2.14-.2,21.61,21.61,0,0,1,2.23,3.66,23.06,23.06,0,0,1,6.3-1.08s.18.48.6,1.33l-1,.31a13,13,0,0,0-3.94,2,4.38,4.38,0,0,0-1.46,1.8,2.77,2.77,0,0,0-.19,1.17c0,.12,0,.18,0,.25l0,.2,0,.42c.53,4.39.91,8.79,1.21,13.2s.5,8.83.6,13.25.13,8.84,0,13.26c.4-4.41.65-8.83.82-13.26s.25-8.86.22-13.29-.13-8.87-.39-13.3l0-.42v-.2a.9.9,0,0,1,0-.17,1.06,1.06,0,0,1,.1-.46A2.48,2.48,0,0,1,191,165a10.8,10.8,0,0,1,3.14-1.38,17.45,17.45,0,0,1,3.66-.65c.58,0,1.18-.05,1.78-.06.86,3.78,6,27.89,2.6,48.21s-2.86,37.91-11.77,47.57c-.23.25-2.21,8.87-2.83,19.08-.08,1.33-.13,2.69-.17,4a285.8,285.8,0,0,1-40.07,5.61c6.51-3.56,12.59-10.54,17.77-18.55a84.48,84.48,0,0,0,9.62-14.3,98.17,98.17,0,0,0,8.34-21.94A128.93,128.93,0,0,0,186.64,210a198.83,198.83,0,0,0-2.51-45.32l-.15-.85q-.43-2.68-.94-5.37c-1.16-6.3-2.56-12.56-4.13-18.79A124.37,124.37,0,0,1,182.61,155.73Zm-58.15-29.94-3.83,16.32,13.48-20.05-.87,23.36L144,120.55l3,31,6-29.47,7.32,27.35-.57-27.35,16.06,29.47L174,127.4a47.46,47.46,0,0,1,2.82,6.25,299,299,0,0,1,5.71,31.19,203.54,203.54,0,0,1,1.4,39.53c-.37,4.19-.86,8.57-1.5,13.12A120.44,120.44,0,0,1,179.23,232a101.13,101.13,0,0,1-4.64,12.77c-1.36,2.95-2.89,6-4.57,9a80.73,80.73,0,0,1-14.24,17.94,82.79,82.79,0,0,1-11.37,8.91,18.92,18.92,0,0,1-5.18,1.08c-18.89,1-33.13-17.62-36.81-30.84,0-.29.11-.58.15-.86v-.07a89.53,89.53,0,0,0,.94-10c.14-3.34.19-6.67.19-10v-.1c0-3.3-.09-6.59-.16-9.88l-.22-9.89c.45-4.52.89-9,1.38-13.55,9.41-14.2,35.62-10.69,33.68,12q.2-.58.36-1.17c0-.15.09-.3.13-.44.15-.57.29-1.14.41-1.69,0-.13.05-.26.07-.39.09-.42.17-.84.23-1.25,0-.19.06-.38.09-.58a21.22,21.22,0,0,0-2.7-14.2,19.26,19.26,0,0,0-13.68-8.56h-.11c-.38,0-.77-.08-1.16-.11a18,18,0,0,0-16.35,7.84c.3-2.46.6-4.92.92-7.38.65-4.91,1.34-9.82,2.18-14.68l.33-1.82c0-.29.11-.64.16-1s.08-.71.09-1.07a10.56,10.56,0,0,0-.74-4.35,8.79,8.79,0,0,0-3.28-4,7.89,7.89,0,0,0-1.51-.76,7.32,7.32,0,0,0-.9-.27l-.08,0C108.54,140.11,124.46,125.79,124.46,125.79ZM59.12,301.13c2.29-11.93,4-22.63,5.15-32.33h0l4-13.09s.06-24.31,1.42-40c.82-9.47,6.87-27.5,10.85-41.25a152.18,152.18,0,0,0,3.85-16.93l2.48-.1-9,42.19,13-45.92.4-.1a19,19,0,0,1,2.36-.39,9.48,9.48,0,0,1,3.17.68V154c-.47.08-.91.16-1.42.29l-.89.21-.11.7-7,43.31,9.59-42,2.53-.09h.27a12.57,12.57,0,0,1,1.53.07l.2,0h.09l.18,0a2,2,0,0,1,.45.22,4.67,4.67,0,0,1,1.71,2.1,7.22,7.22,0,0,1,.58,3c0,.26,0,.52,0,.78s-.07.52-.12.84l-.27,1.86c-.69,5-1.23,9.91-1.72,14.85s-.9,9.89-1.28,14.84-.71,9.9-1,14.85V210l.55,9.94c.18,3.32.39,6.63.48,10s.17,6.62.13,9.92a87.6,87.6,0,0,1-.59,9.87v.07a29.22,29.22,0,0,1-1.93,7.69,14.7,14.7,0,0,1-2,3.47,14.88,14.88,0,0,1-3.13,2.87l-.18.13-.06.15c-1.42,3.83-2.59,7.66-3.63,11.54s-1.9,7.77-2.6,11.68-1.24,7.85-1.58,11.8L85.15,302,85,305,85,306.46v1.48l0,3c.25,13.38,4.35,34,7.89,49.48a169.12,169.12,0,0,0,1,19.61l-.64.77-6,7.12c-.46.26-.92.5-1.37.73l-.13.07c-10.91,5.69-16.27,5.18-26.69-2l-2.37-4.27h0L56.5,382C51.21,358.45,52.66,334.9,59.12,301.13ZM414.2,295c-1.26,5.43-9,10.34-19.68,14.59-1.74.7-3.55,1.37-5.42,2-1,.41-2,.81-3,1.21a51.06,51.06,0,0,1,11.13,4.34c8.41,4.51,12.71,11.24,26.67,18.37-11.63-5.94-19.26-5.64-31.5-5.5,0,0-16.66,4.24-26.45,14.09-9.51,9.58-12.15,24.73-12.36,28.19.21-3.46,2.85-16.49,12.36-26.07,9.79-9.85,26.37-12.93,26.37-12.93,12.24-.14,28.38,5.05,29.49,5.43,0,0-1.29,1.39-1.29,1.39s-46.53,42.37-3.24,115c1,1.62,2,3.27,3,4.92L409.46,471.5s-71.43,6-135.19,14L238,483.58l-10.81-9.4-38.06-33.1-17.38-17.37,10.95-20.83.2-.05c.05-.21.11-.42.16-.63,1.85-7.1,4-15,5.77-21l34.47.63s.29.39.68,1a93.72,93.72,0,0,0-1.05-10v0a12.92,12.92,0,0,0-.47-2s-3-1.88-3.36-4.13q0-.13.18-.27c1.16-.84,7.52-1.7,8.39-.28a.66.66,0,0,1,.1.44,8.56,8.56,0,0,1-1.74,3.89l-.12.14a11.7,11.7,0,0,1,.91,2.36c.79,2.66,1.83,7.79,1.94,16.59v.32c.05-.13.11-.25.17-.38,3.48-7.69,13-11.74,21.44-9.56v19.7a10,10,0,0,0,.49,2.22c1.36,4.12,6.31,12.95,24.24,17.49,0,0,14.55,17.65-3.83,41.33,0,0,86.43-7.42,106.68-10,0,0-24.8-71.42-24.37-78.41-.43,7,12.36,72.47,12.36,72.47-20.24,2.55-85.66,10.7-85.66,10.7.4-.51.77-1,1.14-1.53l.24-.34c.35-.5.69-1,1-1.48a1,1,0,0,0,.11-.17c.29-.45.56-.89.82-1.33l.18-.31c.27-.47.53-.94.77-1.41a2,2,0,0,0,.13-.25c.21-.41.42-.83.61-1.24a2.56,2.56,0,0,1,.11-.24c.21-.46.4-.91.58-1.36l.1-.27c.16-.42.32-.84.45-1.25,0,0,0-.09,0-.13.15-.45.28-.89.4-1.32,0-.09.05-.18.07-.27.23-.87.41-1.73.55-2.57l0-.24c.06-.42.12-.83.15-1.24v-.05c0-.4.06-.8.08-1.19v-.17c0-.4,0-.8,0-1.19v-.11q0-.56-.06-1.11v-.1c0-.39-.07-.76-.12-1.14,0,0,0-.08,0-.12-.05-.37-.11-.74-.18-1.1-1.83-9.7-9.58-15.22-9.58-15.22-17.94-4.54-7.74-2.84-9.1-7,26.89-19.09,17.82-56.8,53.61-82.43a53.67,53.67,0,0,1-7.26-.52c-12.25-.83-24.76-10.13-24.76-16.22,0-2,0-4.29.06-6.74h.43c0,.68,0,1.34.08,2a20.2,20.2,0,0,0,.53,3.44,15.2,15.2,0,0,0,.7,2.16,9.65,9.65,0,0,0,3.78,4.7,8.36,8.36,0,0,0,.79.4,7.29,7.29,0,0,0,2.23.63l.54.05a8.58,8.58,0,0,0,2.19-.16,9.23,9.23,0,0,0,1.12-.29c.24-.08.59-.18,1-.29l.73-.19c3.22-.81,9.7-2.28,17.68-4.17l2-.48c8.89-2.13,19.36-4.73,29.12-7.5,2.25-.64,4.47-1.29,6.62-1.95l.84-.26c7.37-2.33,16.89-6.44,22.18-14.59,2.52.06,5,.19,7.54.37a174.74,174.74,0,0,1,18.07,2.41c2.11.41,4.19.86,6.27,1.34C414.6,293.44,414.29,294.59,414.2,295Zm41.51-19.35L446.6,282l6.58,3H440.53l11.64,5H437.5l3.79,3.56,3.8,3.56h0l0,0-.09,0h-.05l-.05,0-.1,0-.16-.06-.17-.06-.12-.05h-.06l-.23-.08-.13,0h0l-.05,0h0l-.26-.1h0l-.79-.31c-3.51-1.33-7.08-2.5-10.7-3.54a165.23,165.23,0,0,0-41.26-6.11,120,120,0,0,0-18.5,1l-10.68-1.21,9.32,1.34,1.33.19h.06q2.07-.17,4.17-.24l1.4,0h.32a5,5,0,0,1-.18,1.11c-1.32,4.28-51.25,8.89-79.52,13.83,0,0,7.69-2.31,17.79-5.37,17.93-5.45,43.48-13.29,47.15-14.83,5.74-2.42,11.05-20.2,11.05-20.2s1.24,9.14,2.33,17.36q-2.86,1-5.62,2.13-2.59,1.09-5.09,2.33c-1.16.58-2.3,1.18-3.43,1.8l-45.2,11.14h0l49.08-9.65-5-.9a90.31,90.31,0,0,1,20.69-7.18,144.37,144.37,0,0,1,22.2-2.76,148.15,148.15,0,0,1,22.31.55c1.87.18,3.55.47,5.78.61a30,30,0,0,0,6.35-.34l.15,0,.6-.11h0l.4.06,14.19-1.39Z"/><path class="cls-2" d="M234.21,413.41c-.07.17-1.37,3.39-7.28,3.61v0s-.75,3.63-8.9,5.15a27.38,27.38,0,0,1,7.2,5.76l17.06-7.31S238.35,419.19,234.21,413.41Z"/><path class="cls-2" d="M228.64,402.2c-.09-.25-.16-.5-.23-.75-.09,1.19-.18,2.42-.29,3.69l2,.85C229.59,404.82,229.1,403.56,228.64,402.2Z"/><path class="cls-2" d="M224.21,391.22c0,.4,0,.79,0,1.19A7.72,7.72,0,0,0,225,391C224.72,391.05,224.47,391.14,224.21,391.22Z"/><path class="cls-2" d="M147.93,209.33c0,.54,0,1.11.09,1.68,0,.16,0,.32,0,.49s.06.59.09.89c1.78-21.62,28.16-26.91,30-6.54v.05a23.1,23.1,0,0,0,0-4.24c-.53-5.58-3.18-9.65-6.7-12-.27-.18-.55-.35-.83-.51l-.21-.12-.81-.41-.06,0-.89-.37-.22-.08c-.26-.1-.53-.18-.8-.26l-.12,0c-.31-.09-.62-.16-.93-.23l-.22,0c-.27-.06-.53-.1-.8-.14l-.17,0c-.31,0-.63-.07-.94-.09h-1.22c-.31,0-.63,0-.94.06l-.2,0-.8.11-.21,0c-.32.06-.63.13-.94.21l-.16,0-.8.25-.23.08c-.3.11-.61.22-.91.36l-.11.05c-.27.12-.53.25-.8.39l-.22.12c-.29.16-.59.33-.87.51l0,0c-.27.18-.53.37-.8.57l-.21.16c-.26.21-.52.42-.78.65l0,0c-.26.23-.52.49-.77.75a1.8,1.8,0,0,0-.19.2c-.22.24-.44.48-.65.74l-.09.1c-.24.29-.46.6-.68.91l-.16.24q-.28.4-.54.84a1.74,1.74,0,0,0-.11.18c-.2.34-.39.7-.57,1.06,0,.09-.09.18-.13.27-.15.31-.3.63-.44,1,0,.09-.07.17-.1.25-.16.4-.31.8-.45,1.22l-.09.29c-.12.36-.23.72-.33,1.1,0,.1-.05.2-.08.31-.12.45-.22.92-.32,1.39,0,.1,0,.19-.05.29-.07.4-.14.82-.2,1.25,0,.12,0,.25-.05.37-.07.51-.12,1-.17,1.57,0,.08,0,.17,0,.25,0,.47-.06.95-.07,1.44,0,.15,0,.29,0,.44,0,.57,0,1.15,0,1.74A1.09,1.09,0,0,0,147.93,209.33Z"/><path class="cls-2" d="M224.14,395.05q0-1.33.06-2.64a6.19,6.19,0,0,1-.75.93,3.27,3.27,0,0,1-.78.59c-2.54,1.29-7.18,1.69-11.8,1.71-1.68,0-3.35,0-4.93-.1l2.18.94,15.42,6.68C223.85,400.44,224,397.71,224.14,395.05Z"/><path class="cls-2" d="M138.05,234.59a7.11,7.11,0,0,0-1.17,3.38,18,18,0,0,0,1.42-1.28c.48-.41.86-.85,1.33-1.21a7.22,7.22,0,0,1,2.68-1.69l.33-.09c.11,0,.21,0,.32,0a2.93,2.93,0,0,1,.66,0,4.8,4.8,0,0,1,1.45.52,17.13,17.13,0,0,1,3,2.14,5,5,0,0,0-1.69-3.31,5,5,0,0,0-4.88-1.1,2.83,2.83,0,0,0-.62.22l-.56.27a11.11,11.11,0,0,0-.94.65A7.07,7.07,0,0,0,138.05,234.59Z"/><path class="cls-3" d="M361,194.53a50,50,0,0,1-7.88,3.31l2.53-.63.26-.06,2.1-.49,1.27-.89h2.83c1.28-.26,2.58-.52,3.87-.76a36.12,36.12,0,0,1,8.45-.38l-8.05-3.5a36.46,36.46,0,0,1-5.38,3.39Z"/><path class="cls-3" d="M312.62,106.38l-.08.33-3.66,3.19,3,1,.17.07C312.23,109.42,312.42,107.87,312.62,106.38Z"/><polygon class="cls-4" points="221.53 414.06 222.95 415.87 226.93 415.87 225.08 413.96 221.53 414.06"/><path class="cls-5" d="M226.19,404.3l1.93.84c.11-1.27.2-2.5.29-3.69a16.71,16.71,0,0,1,.37-11.56v-.32l-2.18.8C226.7,395.65,226.48,400.44,226.19,404.3Z"/><path class="cls-5" d="M226.93,415.87c.51-3.88.91-7.45,1.19-10.73l-1.93-.84c-.46,5.92-1.11,9.66-1.11,9.66Z"/><path class="cls-6" d="M224.2,392.41q0,1.3-.06,2.64c-.1,2.66-.29,5.39-.6,8.11a73.89,73.89,0,0,1-2,10.9l3.55-.1s.65-3.74,1.11-9.66c.29-3.86.51-8.65.41-13.93L225,391a7.72,7.72,0,0,1-.77,1.46Z"/><path class="cls-7" d="M226.93,417v0a21.63,21.63,0,0,1-4.2-.28c-.86-.13-1.78-.31-2.77-.56-12.22-3-15.06-8.43-15.06-8.43l-3.05,7.48a83.43,83.43,0,0,1,16.18,7C226.18,420.67,226.93,417,226.93,417Z"/><path class="cls-7" d="M226.93,415.87h-4l-1.42-1.81a73.89,73.89,0,0,0,2-10.9l-15.42-6.68-2.18-.94c-4.77-.21-8.58-.65-8.58-.65a37,37,0,0,1,2.52,3.91,13.74,13.74,0,0,1,2,5.83v10.6l3.05-7.48s2.84,5.47,15.06,8.43c1,.25,1.91.43,2.77.56a21.63,21.63,0,0,0,4.2.28c5.91-.22,7.21-3.44,7.28-3.61a38.81,38.81,0,0,1-4.12-7.42l-2-.85C227.84,408.42,227.44,412,226.93,415.87Z"/><path class="cls-6" d="M225,391l1.63-.58,2.18-.8c-.11-8.8-1.15-13.93-1.94-16.59a11.7,11.7,0,0,0-.91-2.36l.12-.14a2.74,2.74,0,0,0-.12-.26,11.08,11.08,0,0,0,1.76-4.07c-.87-1.42-7.23-.56-8.39.28a9.61,9.61,0,0,0,3.18,4,18,18,0,0,1,.47,2.35h0v0a93.72,93.72,0,0,1,1.05,10,10.19,10.19,0,0,1,1.66,4.5A8.19,8.19,0,0,1,225,391Z"/><path class="cls-8" d="M219.12,366.7q0-.13.18-.27a4.41,4.41,0,0,1-.18-.8c-.13-1.12,8.95-2.72,8.67-.12,0,.22-.06.43-.1.64a.66.66,0,0,1,.1.44,8.56,8.56,0,0,1-1.74,3.89,20.79,20.79,0,0,1,.79,2.5l1.37,0h0a13,13,0,0,0,4.61-9c0-.23,0-.47,0-.71s0-.47,0-.7,0-.47-.08-.71a9.91,9.91,0,0,0-.31-1.39c-.07-.23-.14-.45-.23-.68a10.62,10.62,0,0,0-1.43-2.61c-.15-.2-.31-.41-.49-.61a14.37,14.37,0,0,0-5-3.62,11.86,11.86,0,0,1-1.72-.95,7.82,7.82,0,0,1-1.24-1,5.08,5.08,0,0,1-1.09-1.68,4.23,4.23,0,0,1-.19-.57c-.33-1.33.49-3.32,3.48-5.61,2.25-1.74,1.39-5.66,1-7,.59,3.74-8.56,13.15-12,21-3.65,8.18,8.34,16,8.34,16l1.13-.14a12.92,12.92,0,0,0-.47-2S219.43,369,219.12,366.7Z"/><path class="cls-6" d="M227.69,366.15a11.08,11.08,0,0,1-1.76,4.07,2.74,2.74,0,0,1,.12.26,8.56,8.56,0,0,0,1.74-3.89A.66.66,0,0,0,227.69,366.15Z"/><path class="cls-9" d="M227.69,366.15a11.08,11.08,0,0,1-1.76,4.07,2.74,2.74,0,0,1,.12.26,8.56,8.56,0,0,0,1.74-3.89A.66.66,0,0,0,227.69,366.15Z"/><path class="cls-6" d="M222.48,370.46a9.61,9.61,0,0,1-3.18-4q-.2.13-.18.27c.31,2.25,3.36,4.13,3.36,4.13a12.92,12.92,0,0,1,.47,2h0A18,18,0,0,0,222.48,370.46Z"/><path class="cls-10" d="M222.48,370.46a9.61,9.61,0,0,1-3.18-4q-.2.13-.18.27c.31,2.25,3.36,4.13,3.36,4.13a12.92,12.92,0,0,1,.47,2h0A18,18,0,0,0,222.48,370.46Z"/><path class="cls-11" d="M213.48,357c3.48-7.82,12.63-17.23,12-21,.39,1.37,1.25,5.29-1,7-3,2.29-3.81,4.28-3.48,5.61a4.23,4.23,0,0,0,.19.57,5.08,5.08,0,0,0,1.09,1.68,7.82,7.82,0,0,0,1.24,1,11.86,11.86,0,0,0,1.72.95,14.37,14.37,0,0,1,5,3.62c.18.2.34.41.49.61a10.62,10.62,0,0,1,1.43,2.61c.09.23.16.45.23.68a9.91,9.91,0,0,1,.31,1.39c0,.24.06.47.08.71s0,.47,0,.7,0,.48,0,.71a13,13,0,0,1-4.61,9c.43-.22,14.88-8,12.79-21.56-1.44-9.25-9.69-16.67-15-22.1a2.23,2.23,0,0,1-.74-2c.3-1.76,2.81-3.27,2.78-4.52-.14-5-4.87-7.14-5.25-7.41,3.24,4.32,2.88,7,2,11.86a5.12,5.12,0,0,1-.12.64c-1.55,7-7.15,13.8-16.08,18.34-15.35,7.81-1.7,21.56,13.23,26.77C221.82,373,209.83,365.14,213.48,357Zm12-21.13c-.05-.15-.08-.25-.09-.29A1,1,0,0,1,225.47,335.83Z"/><path class="cls-12" d="M232.84,363.19c0,.24,0,.48,0,.71C232.84,363.67,232.84,363.43,232.84,363.19Z"/><path class="cls-13" d="M232.84,363.19c0,.24,0,.48,0,.71C232.84,363.67,232.84,363.43,232.84,363.19Z"/><path class="cls-14" d="M426.83,195.15l8.63-47.23v-6.59l-47.77,9.28c0-.52,0-1.2-.07-1.83,12.11-15,45.24-57.22,47.84-73.93,0,0-5.83,2.53-8.55-2.4s-2.31-17.34-3-21c0,0-18.9,74.07-36.34,95.73-.66-42.06,5.61-93.44,5.61-93.44s-5.91-7.88-10.45-10.66-15.9,0-15.9,0,15.48,36.46,16.39,55.2-7.12,86.58-7.12,86.58l16.81,2.42c-3.72-8.59-4.65-17.64-5.19-33.84l30.93-4.85L420,199l29.07,7.92-24.11,17,24.77,17.33-23.06,13.39,12.26,8.84-6.11,4.45,10.65,5.24-7.78-5.64,7.49-5.35-9.7-7.54,28.07-13.39L432.7,223.7l24.1-17.83Z"/><path class="cls-15" d="M323.51,112c-7.09,67.9,7.2,87.3,31.17,74.8s10.93-48.23,10.93-48.23l-7.77,9.72c12.61,30.53-29.08,46.19-29.08-5.74,0-64.8,13.74-68.68,24.12-31.52h13.33C366.21,85.13,329.77,52.08,323.51,112Z"/><path class="cls-16" d="M302.37,200.68,312.29,190s-4-71.3-5-70.59-7.21,7.41-7.21,7.41S306.92,164.92,302.37,200.68Z"/><path class="cls-17" d="M301.88,102.34l5.91-24.69L296.41,90.82s-1.59,15.2-1.05,17.66Z"/><path class="cls-18" d="M249.41,143.67c7.18-12.41,19.78-11,22.07,26,3.16,50.89-45,68.72-37.79,2.31l-12.16-6.89-1.47,14.8c-13.35,73.91,93.81,73.43,61.87-36.86-8.63-29.8-25.73-34.07-42.53-10.47C225.53,152,210.06,108,225.05,82s24.8-18.86,24.8-1.16l7.36-2.43c7.54-13.3,9-12.49,9.9-19.08S248,41.88,242.12,42c-6.5.09-43.79,35-26.9,95.07C221.08,157.86,237.83,163.71,249.41,143.67Z"/><path class="cls-19" d="M148.15,212.39a29.54,29.54,0,0,0,.11,5.84c1.32,11.75,6,16.14,11.3,15.9-4-.21-7.38-3.86-8.39-12.78-2.39-21.21,22.44-27.73,24.05-10A24.22,24.22,0,0,1,167,231.11a26.14,26.14,0,0,0,5.7-6,29.73,29.73,0,0,0,5.46-19.19v-.05C176.31,185.48,149.93,190.77,148.15,212.39Z"/><path class="cls-19" d="M116.08,237.74c-4.56-.18-8.57-3.35-10.22-9.3h-.06c-.1-3.82-.27-8.13-.5-13,0,0,.2-2.68.56-6.74,5.47-18.37,39.15-13.78,25.94,16.23a24.19,24.19,0,0,1-7.91,10.29c4.09-2.53,8-7,10.81-13.46a42.29,42.29,0,0,0,3.69-13.35c1.94-22.69-24.27-26.2-33.68-12-.49,4.52-.93,9-1.38,13.55l.22,9.89c.07,3.29.17,6.58.16,9.88a15.26,15.26,0,0,0,4,5.16A12.3,12.3,0,0,0,116.08,237.74Z"/><path class="cls-3" d="M175.22,211.39c-1.61-17.77-26.44-11.25-24.05,10,1,8.92,4.43,12.57,8.39,12.78,2.42.14,5.05-1,7.44-3A24.22,24.22,0,0,0,175.22,211.39Zm-15.59,8.1c.72-3.57,2.62-6.31,4.25-6.12s2.37,3.21,1.64,6.78-2.63,6.3-4.26,6.12S158.9,223.05,159.63,219.49Z"/><path class="cls-3" d="M123.89,235.23a24.19,24.19,0,0,0,7.91-10.29c13.21-30-20.47-34.6-25.94-16.23-.36,4.06-.56,6.74-.56,6.74.23,4.86.4,9.17.5,13h.06c1.65,5.95,5.66,9.12,10.22,9.3A12.77,12.77,0,0,0,123.89,235.23Zm-2.41-23.76c1.65,0,3,2.92,3,6.53s-1.33,6.51-3,6.51-3-2.92-3-6.51S119.83,211.47,121.48,211.47Z"/><path class="cls-3" d="M226,258.38l3-.83-3.13-.59-8.64-1.63-5.24-1,14-4,3.61-1-3.77-.5-11.16-1.49c-2.82-.38-5.65-.73-8.47-1.09l6.53-1.91c3.05-.89,6.07-1.82,9.11-2.74l.67-.2-.65-.22q-4-1.38-8-2.72,3.54,1.45,7.11,2.88c-2.87.72-5.75,1.43-8.61,2.18L203.14,246l-2.62.69,2.73.41c3.7.57,7.4,1.17,11.11,1.71l7.46,1.1c-4.61,1.29-9.22,2.57-13.81,3.88l-3.31.95,3.42.62,8.67,1.56,5.56,1c-1.87.54-3.75,1.09-5.62,1.66l-8.6,2.57-1.88.57,1.9.44,6,1.39c1.62.38,3.24.74,4.86,1.1l-7,2.25-.43.14.44.09,3.81.74-3.29-.86,7.81-2.11,1.11-.3-1.13-.31c-1.95-.53-3.91-1.08-5.88-1.59l-4-1.05,6.83-1.83C220.19,260,223.07,259.18,226,258.38Z"/><path class="cls-3" d="M244.42,251.28l3.24-.74-3.24-.68-6.68-1.4c-1.43-.3-2.87-.58-4.3-.87l2.34-.62,4.69-1.27,1.38-.37-1.36-.31c-3.21-.73-6.4-1.5-9.62-2.19,2.66.86,5.35,1.66,8,2.47l-3.47.75-4.77,1.06-2.4.53,2.42.57q3.3.79,6.62,1.55l3.47.8-5.1,1.12-8.25,1.88-3.39.77,3.42.64,6.36,1.2c1.41.27,2.83.52,4.25.78l-4.26,1.5c-2.09.73-4.16,1.5-6.24,2.26l-.59.22.58.19c1.81.59,3.62,1.17,5.45,1.73q-2.31-1-4.63-1.9c1.95-.56,3.9-1.12,5.84-1.71,2.14-.64,4.28-1.28,6.4-1.94l2-.63-2.12-.45c-2.11-.46-4.21-.92-6.31-1.35l-3-.63,5-1.09Z"/><path class="cls-3" d="M203.81,269.35c.92-.32,1.84-.65,2.75-1s1.82-.71,2.72-1.06l2.07-.8-2.1-.61c-.68-.2-1.38-.36-2.07-.54s-1.39-.33-2.09-.49c-1.41-.32-2.82-.6-4.27-.82,1.24.64,2.52,1.21,3.81,1.74.62.26,1.24.52,1.87.75l-.79.26c-.93.3-1.86.63-2.78.95s-1.83.67-2.74,1-1.81.7-2.71,1.08l-1.85.79,1.86.51,1.77.49,1.8.45c1.2.27,2.41.55,3.65.75-1-.58-2.13-1.08-3.21-1.58l-1.49-.66,1-.31C202,270,202.88,269.67,203.81,269.35Z"/><path class="cls-20" d="M376.2,206.66a27.69,27.69,0,0,1,5,.73,22.58,22.58,0,0,1,2.91.93,13.86,13.86,0,0,1,3.45,2c2.91,2.35,2.95,5.8,2.91,8.91-.17,15.88-2,31.78-1.58,47.66,0,2.17-.76,6-1.71,9.79a153.12,153.12,0,0,1,16.93-2.74q6.48-.69,13.06-.83c2-21.39,2.91-49.82-2.57-55-7.95-7.57-30.91-13.76-39.74-12.11-1.74.32-3.46.66-5.14,1a32.44,32.44,0,0,1,4.66-.36C375,206.61,375.61,206.63,376.2,206.66Z"/><path class="cls-20" d="M390.63,288c-2.5-.18-5-.31-7.54-.37-5.29,8.15-14.81,12.26-22.18,14.59l-.84.26c-2.15.66-4.37,1.31-6.62,1.95-9.76,2.77-20.23,5.37-29.12,7.5l-2,.48c-8,1.89-14.46,3.36-17.68,4.17l-.73.19c-.44.11-.79.21-1,.29a9.23,9.23,0,0,1-1.12.29,8.58,8.58,0,0,1-2.19.16l-.54-.05a7.29,7.29,0,0,1-2.23-.63,8.36,8.36,0,0,1-.79-.4,9.65,9.65,0,0,1-3.78-4.7,15.2,15.2,0,0,1-.7-2.16,20.2,20.2,0,0,1-.53-3.44c-.05-.62-.07-1.28-.08-2h-.43c0,2.45-.06,4.72-.06,6.74,0,6.09,12.51,15.39,24.76,16.22-11.84-1.66-18.91-6.86-11.16-8.16,8.81-1.48,34.05-8,53.75-13.37,12-3.28,21.72-10,24.67-11.12,7.78-2.86,33.8,1.34,24,8.09a96.77,96.77,0,0,1-17.3,9.05c1.87-.66,3.68-1.33,5.42-2,10.64-4.25,18.42-9.16,19.68-14.59.09-.41.4-1.56.77-3.25-2.08-.48-4.16-.93-6.27-1.34A174.74,174.74,0,0,0,390.63,288Z"/><path class="cls-21" d="M406.4,302.57c9.84-6.75-16.18-10.95-24-8.09-2.95,1.08-12.68,7.84-24.67,11.12C338.07,311,312.83,317.49,304,319c-7.75,1.3-.68,6.5,11.16,8.16a53.67,53.67,0,0,0,7.26.52,99.67,99.67,0,0,1,21.36-11.43c14.42-5.73,29.42-6.79,42.31-3.39,1-.4,2-.8,3-1.21A96.77,96.77,0,0,0,406.4,302.57Z"/><path class="cls-3" d="M378.15,287.63h-.32c.05.39.1.76.14,1.11A5,5,0,0,0,378.15,287.63Z"/><path class="cls-3" d="M366.51,287.28l-49.08,9.65h0l-1.19.27c-10.1,3.06-17.79,5.37-17.79,5.37,28.27-4.94,78.2-9.55,79.52-13.83-.5.12-1-.34-1.54-1.07q-2.1.07-4.17.24h-.06l-1.33-.19-1.14.15Z"/><path class="cls-3" d="M374.44,262.17s-5.31,17.78-11.05,20.2c-3.67,1.54-29.22,9.38-47.15,14.83l1.19-.27,45.2-11.14c1.13-.62,2.27-1.22,3.43-1.8l3.67-1.95,1.42-.38q2.76-1.14,5.62-2.13C375.68,271.31,374.44,262.17,374.44,262.17Z"/><path class="cls-3" d="M378,288.74c0-.35-.09-.72-.14-1.11l-1.4,0C377,288.4,377.47,288.86,378,288.74Z"/><path class="cls-22" d="M440,277.18l-.4-.06h0Z"/><rect class="cls-22" x="437.5" y="290" width="14.67"/><path class="cls-22" d="M443.8,296.65l-.05,0Z"/><polygon class="cls-22" points="445.09 297.12 441.29 293.56 445.09 297.12 445.09 297.12"/><path class="cls-22" d="M366.06,284q2.49-1.23,5.09-2.33l-1.42.38Z"/><path class="cls-22" d="M423.9,287.83l4.42-1.22-8.59-1.18,17.13-2.7-10-1.57L439,277.23l-.15,0a30,30,0,0,1-6.35.34c-2.23-.14-3.91-.43-5.78-.61a148.15,148.15,0,0,0-22.31-.55,144.37,144.37,0,0,0-22.2,2.76,90.31,90.31,0,0,0-20.69,7.18C392.67,282.49,423.9,287.83,423.9,287.83Zm-18.75-8.61c18.48.52,14.75,1.84,14.75,1.84-25.83-1-38.39.76-52,3.74C367.9,284.8,386.68,278.7,405.15,279.22Z"/><path class="cls-22" d="M366.51,287.28l3.22.59,1.14-.15-9.32-1.34Z"/><path class="cls-23" d="M444.81,297l-.1,0Z"/><path class="cls-23" d="M443.48,296.53l.26.1-.26-.1Z"/><path class="cls-23" d="M445,297.09l-.09,0Z"/><path class="cls-23" d="M445.09,297.12h0Z"/><path class="cls-23" d="M439,277.23l-12.19,3.93,10,1.57-17.13,2.7,8.59,1.18-4.42,1.22,8.09,4.85c3.62,1,7.19,2.21,10.7,3.54l-4.36-2.82-8.25-5.26h13.26l-9.26-3,11-2.39-5.72-.36,14.84-6.58L440,277.18l-.4-.06Z"/><path class="cls-23" d="M444,296.71l.23.08Z"/><path class="cls-23" d="M444.38,296.86l.17.06Z"/><path class="cls-24" d="M444.86,297l-.05,0,.1,0h-.05Z"/><path class="cls-25" d="M444.71,297l-.16-.06Z"/><path class="cls-26" d="M444.23,296.8h0l.18.07-.12-.05Z"/><path class="cls-27" d="M445,297.11l0,0Z"/><polygon class="cls-28" points="454.22 275.79 454.22 275.79 455.71 275.65 454.22 275.79"/><polygon class="cls-29" points="443.75 296.63 443.75 296.63 443.75 296.63 443.75 296.63"/><path class="cls-30" d="M443.8,296.65l.17.06-.13,0Z"/><path class="cls-22" d="M444.86,297h0Z"/><path class="cls-31" d="M444.86,297h0Z"/><path class="cls-22" d="M444.23,296.8h0Z"/><path class="cls-32" d="M444.23,296.8h0Z"/><path class="cls-22" d="M443.75,296.63h0l.05,0h0Z"/><path class="cls-33" d="M443.75,296.63h0l.05,0h0Z"/><path class="cls-23" d="M439.38,282.37l5.72.36-11,2.39,9.26,3H430.08l8.25,5.26,4.36,2.82.79.31.26.1h0l.09,0,.13,0,.23.08h.06l.12.05.17.06.16.06.1,0,.05,0h.05l.09,0,0,0h0l-3.8-3.56L437.5,290h14.67l-11.64-5h12.65l-6.58-3,9.11-6.39-1.49.14Z"/><path class="cls-34" d="M439.38,282.37l5.72.36-11,2.39,9.26,3H430.08l8.25,5.26,4.36,2.82.79.31.26.1h0l.09,0,.13,0,.23.08h.06l.12.05.17.06.16.06.1,0,.05,0h.05l.09,0,0,0h0l-3.8-3.56L437.5,290h14.67l-11.64-5h12.65l-6.58-3,9.11-6.39-1.49.14Z"/><path class="cls-3" d="M367.9,284.8c13.61-3,26.17-4.73,52-3.74,0,0,3.73-1.32-14.75-1.84S367.9,284.8,367.9,284.8Z"/><path class="cls-35" d="M372.23,287.59a120,120,0,0,1,18.5-1A165.23,165.23,0,0,1,432,292.68l-8.09-4.85s-31.23-5.34-62.35-1.45Z"/><path class="cls-36" d="M287.89,435.83v0Z"/><path class="cls-36" d="M286.54,444.31s0-.09,0-.13S286.56,444.27,286.54,444.31Z"/><path class="cls-36" d="M281.44,454l.24-.34Z"/><path class="cls-36" d="M287.79,438.54v0Z"/><path class="cls-36" d="M287.61,440l0-.24Z"/><path class="cls-36" d="M287.83,434.72v0Z"/><path class="cls-36" d="M287.88,437.3v0Z"/><path class="cls-36" d="M286,445.83l.1-.27Z"/><path class="cls-36" d="M287.71,433.48s0-.08,0-.12S287.7,433.44,287.71,433.48Z"/><path class="cls-36" d="M283.61,450.64l.18-.31Z"/><path class="cls-36" d="M282.68,452.14a1,1,0,0,0,.11-.17A1,1,0,0,1,282.68,452.14Z"/><path class="cls-36" d="M285.3,447.43a2.56,2.56,0,0,1,.11-.24A2.56,2.56,0,0,0,285.3,447.43Z"/><path class="cls-36" d="M284.56,448.92a2,2,0,0,0,.13-.25A2,2,0,0,1,284.56,448.92Z"/><path class="cls-36" d="M287,442.86c0-.09.05-.18.07-.27C287,442.68,287,442.77,287,442.86Z"/><path class="cls-37" d="M161.26,226.27c1.63.18,3.54-2.56,4.26-6.12s0-6.6-1.64-6.78-3.53,2.55-4.25,6.12S159.63,226.08,161.26,226.27Z"/><path class="cls-37" d="M121.48,224.51c1.65,0,3-2.92,3-6.51s-1.33-6.53-3-6.53-3,2.92-3,6.53S119.83,224.51,121.48,224.51Z"/><path class="cls-38" d="M378,450.73c-20.25,2.54-106.68,10-106.68,10,18.38-23.68,3.83-41.33,3.83-41.33-17.93-4.54-22.88-13.37-24.24-17.49a10,10,0,0,1-.49-2.22V380c-8.47-2.18-18,1.87-21.44,9.56-.06.13-.12.25-.17.38a16.71,16.71,0,0,0-.37,11.56c.07.25.14.5.23.75.46,1.36,1,2.62,1.45,3.79a38.81,38.81,0,0,0,4.12,7.42c4.14,5.78,8.08,7.23,8.08,7.23L225.23,428a27.38,27.38,0,0,0-7.2-5.76,83.43,83.43,0,0,0-16.18-7v-10.6a13.74,13.74,0,0,0-2-5.83,37,37,0,0,0-2.52-3.91s3.81.44,8.58.65c1.58.06,3.25.11,4.93.1,4.62,0,9.26-.42,11.8-1.71a3.27,3.27,0,0,0,.78-.59,6.19,6.19,0,0,0,.75-.93c0-.4,0-.79,0-1.19.26-.08.51-.17.76-.27a8.19,8.19,0,0,0,.69-3.59,10.19,10.19,0,0,0-1.66-4.5c-.39-.62-.68-1-.68-1l-34.47-.63c-1.79,6-3.92,13.88-5.77,21-.05.21-.11.42-.16.63l-.2.05-10.95,20.83,17.38,17.37,38.06,33.1,10.81,9.4,36.25,1.9c63.76-7.94,135.19-14,135.19-14l10.88-11.45c-1.07-1.65-2.08-3.3-3-4.92-43.29-72.62,3.24-115,3.24-115s1.32-1.38,1.29-1.39c-1.11-.38-17.25-5.57-29.49-5.43,0,0-16.58,3.08-26.37,12.93-9.51,9.58-12.15,22.61-12.36,26.07C353.17,379.31,378,450.73,378,450.73Z"/><path class="cls-39" d="M184,163.85l.15.85A198.83,198.83,0,0,1,186.64,210a128.93,128.93,0,0,1-3.54,22.63,98.17,98.17,0,0,1-8.34,21.94,84.48,84.48,0,0,1-9.62,14.3c-5.18,8-11.26,15-17.77,18.55a285.8,285.8,0,0,0,40.07-5.61c0-1.35.09-2.71.17-4,.62-10.21,2.6-18.83,2.83-19.08,8.91-9.66,8.34-27.26,11.77-47.57s-1.74-44.43-2.6-48.21c-.6,0-1.2,0-1.78.06a17.45,17.45,0,0,0-3.66.65A10.8,10.8,0,0,0,191,165a2.48,2.48,0,0,0-.85.92,1.06,1.06,0,0,0-.1.46.9.9,0,0,0,0,.17v.2l0,.42c.26,4.43.37,8.87.39,13.3s-.05,8.86-.22,13.29-.42,8.85-.82,13.26c.13-4.42.1-8.84,0-13.26s-.3-8.84-.6-13.25-.68-8.81-1.21-13.2l0-.42,0-.2c0-.07,0-.13,0-.25a2.77,2.77,0,0,1,.19-1.17,4.38,4.38,0,0,1,1.46-1.8,13,13,0,0,1,3.94-2l1-.31c-.42-.85-.6-1.33-.6-1.33a23.06,23.06,0,0,0-6.3,1.08C185.64,161.55,184.27,162.46,184,163.85Z"/><path class="cls-39" d="M103.83,152.77a7.89,7.89,0,0,1,1.51.76,8.79,8.79,0,0,1,3.28,4,10.56,10.56,0,0,1,.74,4.35c0,.36,0,.71-.09,1.07s-.11.71-.16,1l-.33,1.82c-.84,4.86-1.53,9.77-2.18,14.68-.32,2.46-.62,4.92-.92,7.38A18,18,0,0,1,122,180h0c7.41-7.75,16.74-11.3,25.87-10.72,11.29.71,19.62,7.56,23.55,20.36h0c3.52,2.35,6.17,6.42,6.7,12a23.1,23.1,0,0,1,0,4.24,29.73,29.73,0,0,1-5.46,19.19c-4.49,29.31-20.77,51.43-37.84,50.35-14.29-.9-24.85-17.77-27.17-40.54a15.26,15.26,0,0,1-4-5.16v.1c0,3.33,0,6.66-.19,10a89.53,89.53,0,0,1-.94,10v.07c0,.28-.1.57-.15.86,3.68,13.22,17.92,31.87,36.81,30.84a18.92,18.92,0,0,0,5.18-1.08,82.79,82.79,0,0,0,11.37-8.91A80.73,80.73,0,0,0,170,253.7c1.68-3,3.21-6,4.57-9A101.13,101.13,0,0,0,179.23,232a120.44,120.44,0,0,0,3.22-14.48c.64-4.55,1.13-8.93,1.5-13.12a203.54,203.54,0,0,0-1.4-39.53,299,299,0,0,0-5.71-31.19A47.46,47.46,0,0,0,174,127.4l1.74,24.13L159.7,122.06l.57,27.35L153,122.06l-6,29.47-3-31-10.78,24.87.87-23.36-13.48,20.05,3.83-16.32s-15.92,14.32-21.61,26.69l.08,0A7.32,7.32,0,0,1,103.83,152.77Z"/><path class="cls-40" d="M123.3,180.14c.36.05.72.1,1.08.17l.11,0a19.64,19.64,0,0,1,4.54,1.43l.12.06c9.15,4.2,11.61,13.3,10.53,21.08,0,.2-.05.39-.09.58-.06.41-.14.83-.23,1.25,0,.13,0,.26-.07.39-.12.55-.26,1.12-.41,1.69,0,.14-.09.29-.13.44q-.17.58-.36,1.17a42.29,42.29,0,0,1-3.69,13.35c-2.85,6.48-6.72,10.93-10.81,13.46a12.77,12.77,0,0,1-7.81,2.51,12.3,12.3,0,0,1-8.39-2.84c2.32,22.77,12.88,39.64,27.17,40.54,17.07,1.08,33.35-21,37.84-50.35a26.14,26.14,0,0,1-5.7,6c-2.39,2-5,3.16-7.44,3-5.29.24-10-4.15-11.3-15.9a29.54,29.54,0,0,1-.11-5.84c0-.3-.07-.6-.09-.89s0-.33,0-.49c0-.57-.08-1.14-.09-1.68a1.09,1.09,0,0,1,0-.18A29.84,29.84,0,0,1,150,197a15.7,15.7,0,0,1,7.22-8,14.39,14.39,0,0,1,13.18.1l.21.12c.28.16.56.33.83.51-3.93-12.8-12.26-19.65-23.55-20.36-9.13-.58-18.46,3-25.87,10.72.39,0,.78.06,1.16.11Zm17.56,52a2.83,2.83,0,0,1,.62-.22,5,5,0,0,1,4.88,1.1,5,5,0,0,1,1.69,3.31,17.13,17.13,0,0,0-3-2.14,4.8,4.8,0,0,0-1.45-.52,2.93,2.93,0,0,0-.66,0c-.11,0-.21,0-.32,0l-.33.09a7.22,7.22,0,0,0-2.68,1.69c-.47.36-.85.8-1.33,1.21a18,18,0,0,1-1.42,1.28,7.44,7.44,0,0,1,2.48-4.9,11.11,11.11,0,0,1,.94-.65Z"/><path class="cls-39" d="M85.81,388.68l-1.28.65C71.22,386,59.86,366.39,72.36,302.57c10.87-55.51,20.93-114.64,27.33-146.19h-.27l-2.53.09-9.59,42,7-43.31.11-.7.89-.21c.51-.13,1-.21,1.42-.29v-.14a9.48,9.48,0,0,0-3.17-.68,19,19,0,0,0-2.36.39l-.4.1-13,45.92,9-42.19-2.48.1a152.18,152.18,0,0,1-3.85,16.93c-4,13.75-10,31.78-10.85,41.25-1.36,15.74-1.42,40-1.42,40l-4,13.09h0c-1.19,9.7-2.86,20.4-5.15,32.33C52.66,334.9,51.21,358.45,56.5,382l2.62,4.72C69.54,393.86,74.9,394.37,85.81,388.68Z"/><path class="cls-40" d="M93.91,380a169.12,169.12,0,0,1-1-19.61c-3.54-15.5-7.64-36.1-7.89-49.48h0l0-3v-1.48L85,305l.11-3,.22-2.95c.34-3.95.85-7.89,1.58-11.8s1.56-7.81,2.6-11.68,2.21-7.71,3.63-11.54l.06-.15.18-.13a14.88,14.88,0,0,0,3.13-2.87,14.7,14.7,0,0,0,2-3.47,29.22,29.22,0,0,0,1.93-7.69v-.07a87.6,87.6,0,0,0,.59-9.87c0-3.3,0-6.61-.13-9.92s-.3-6.63-.48-10L100,210v-.13c.33-4.95.65-9.9,1-14.85s.81-9.89,1.28-14.84,1-9.89,1.72-14.85l.27-1.86c0-.32.09-.58.12-.84s0-.52,0-.78a7.22,7.22,0,0,0-.58-3,4.67,4.67,0,0,0-1.71-2.1,2,2,0,0,0-.45-.22l-.18,0h-.09l-.2,0a12.57,12.57,0,0,0-1.53-.07c-6.4,31.55-16.46,90.68-27.33,146.19-12.5,63.82-1.14,83.43,12.17,86.76l1.28-.65.13-.07c.45-.23.91-.47,1.37-.73Z"/><path class="cls-38" d="M213.24,282.67a133.82,133.82,0,0,1-25.59,6.75c-33,5.64-68.49,2.67-68.49,2.67S100.87,327,98.38,370.44c-.13,2.37-.23,4.77-.26,7.19-.26,17.34,4.35,33.12,12.3,50.12,1.7,3.64,3.54,7.33,5.54,11.11,0,0,27.7,11.87,68.89,3.9l-19-20.57.11-.24a62.72,62.72,0,0,1-6.56.24s-22.77-4.39-22.47-5.15c0-.1-15.35,5.24-15.4,5.15-1.39-2.5-4.37-41.64,15.4-98.62a3.78,3.78,0,0,0,.07-1.82L135.17,317c-1.71-3.54-3.84-7.35-2.93-9.54,0,0,18.76,10.78,46.65,1.75,0,0,19.07,6.5,40.69-5.15,0,0,39,10.53,49.72-3.74l-.09-1c-.07-.67-.15-1.34-.24-2l0-.2-36.21.36-38.67.46,19.27-1.34c6.42-.45,12.85-.9,19.27-1.29l38.56-2.46,2.31-.15.43,1.93c.16.73.3,1.42.43,2.13s.24,1.3.35,2l.88-.28c9.34-3,7.41-11,6-14.6l-.22.07c-.84.24-1.68.49-2.56.73l-1.35.35-.73.16-.38.08-.33.06-2.63.44c-3.5.59-7,1.11-10.47,1.61-7,1-14,1.89-21,2.77q-21,2.6-42,4.86,20.73-3.45,41.39-7.2c6.88-1.26,13.75-2.55,20.58-3.92,3.41-.68,6.81-1.39,10.17-2.15l2.51-.58.31-.07.25-.06h0a13.38,13.38,0,0,0-3-5.53l-.46-.39c-.75-.61-1.55-1.2-2.38-1.76-.39-.27-.8-.54-1.21-.8-.67.38-1.34.74-2,1.09-1.2.61-2.42,1.19-3.65,1.75-2.12,1-4.28,1.86-6.5,2.7v0l-1,.37a271.22,271.22,0,0,1-28.21,8.08c-4.76,1.14-9.56,2.2-14.36,3.2s-9.62,2-14.46,2.84c4.76-1.12,9.48-2.32,14.19-3.57s9.39-2.54,14-3.92A264.72,264.72,0,0,0,253,275.81l.33-.14.68-.31a9,9,0,0,0-4.21-6,12.45,12.45,0,0,0-3.5-1.53S238.23,273,213.24,282.67Z"/><path class="cls-41" d="M291,306.13a20.2,20.2,0,0,0,.53,3.44,15.2,15.2,0,0,0,.7,2.16,9.65,9.65,0,0,0,3.78,4.7,8.36,8.36,0,0,0,.79.4,7.29,7.29,0,0,0,2.23.63l.54.05a8.58,8.58,0,0,0,2.19-.16,9.23,9.23,0,0,0,1.12-.29c.24-.08.59-.18,1-.29l.73-.19c3.22-.81,9.7-2.28,17.68-4.17l2-.48c8.89-2.13,19.36-4.73,29.12-7.5,2.25-.64,4.47-1.29,6.62-1.95l.84-.26c7.37-2.33,16.89-6.44,22.18-14.59-1.64,0-3.28,0-4.92,0,0,1.16-.1,3.41-.2,3.75-1.32,4.28-51.25,6.25-79.52,11.19,0,0,7.69-2.31,17.79-5.37,17.93-5.45,38.95-17.26,42.63-18.81,5.74-2.41,17.54-24.23,17.54-24.23s1.9,15.68,3,24.52l2.37-.69c1.8-.49,3.61-.93,5.43-1.34.95-3.79,1.76-7.62,1.71-9.79-.37-15.9,1.4-31.82,1.58-47.73,0-3.09,0-6.51-2.91-8.84a13.86,13.86,0,0,0-3.45-2,22.58,22.58,0,0,0-2.91-.93,27.69,27.69,0,0,0-5-.73c-.59,0-1.19,0-1.8,0a32.44,32.44,0,0,0-4.66.36h0c-1.54.33-3.06.67-4.55,1l-.07,0c-49.11,11.72-72.82,37.49-72.82,41.21,0,3.51-1.47,35-1.79,54.94h.43C290.92,304.85,290.94,305.51,291,306.13Zm81.12-57.54h0l10.31-4.4-10.1,4.69L342.7,265.7l-1.18-1.17L362.06,248l2.27,1.9-13.13,9.62ZM340,232.17l.15-1,0,1.06c0,.35,0,.7,0,1s.09.7.13,1.05.12.7.23,1a6.68,6.68,0,0,0,.84,1.94,4.93,4.93,0,0,0,.68.83,2.87,2.87,0,0,0,.71.52c1.92-.17,3.83-.55,5.75-.91s4-.76,6.05-1a17,17,0,0,1,6.61.31,7.47,7.47,0,0,1,3.06,1.72,6.86,6.86,0,0,1,1.66,2.62l-3.19.63a4.37,4.37,0,0,0-.85-1.79A4.24,4.24,0,0,0,360.1,239a14.24,14.24,0,0,0-5.37-.61c-2,.07-3.94.3-6,.53s-4,.46-6.12.49h-.17l-.09,0a3.62,3.62,0,0,1-1.07-.88,4.75,4.75,0,0,1-.65-1,7,7,0,0,1-.66-2.12c-.07-.36-.08-.72-.12-1.07s0-.72,0-1.07S339.94,232.53,340,232.17ZM324.8,270.06l-25.57,11,21.85-10.35-15.67,2.61-.49-2.6,19.5-1.55,3-.24Zm-20.1-17.72a41.79,41.79,0,0,0,2.73-4,7.37,7.37,0,0,0,.51-1c.08-.17.22-.42.33-.63a4.24,4.24,0,0,1,.54-.59,4.42,4.42,0,0,1,.76-.44,4.37,4.37,0,0,1,.83-.25,7.23,7.23,0,0,1,1.64-.14,20.6,20.6,0,0,1,3,.3c1,.15,1.9.33,2.83.49s1.84.3,2.74.38l.33,0,.16,0h.11a1.13,1.13,0,0,0,.34,0,1,1,0,0,0,.53-.35,3.75,3.75,0,0,0,.73-1.7,12.4,12.4,0,0,0,.21-2.13,24.1,24.1,0,0,0-.41-4.4l3.26-.32a26,26,0,0,1,0,4.83,13.55,13.55,0,0,1-.47,2.45,5.58,5.58,0,0,1-1.44,2.53,3.65,3.65,0,0,1-1.82.92,3.9,3.9,0,0,1-1.07.06h-.26l-.19,0-.38-.06c-1-.15-2-.36-2.89-.58l-2.75-.64a20.26,20.26,0,0,0-2.67-.43,3.54,3.54,0,0,0-2.17.36,3.19,3.19,0,0,0-.33.31c-.08.15-.17.24-.27.43a9.86,9.86,0,0,1-.66,1.09,45.92,45.92,0,0,1-3.15,3.93c-2.23,2.52-4.56,5-6.94,7.39C300.61,257.55,302.72,255,304.7,252.34Z"/><path class="cls-2" d="M342.4,239.38l.09,0h.17c2.08,0,4.11-.27,6.12-.49s4-.46,6-.53a14.24,14.24,0,0,1,5.37.61,4.24,4.24,0,0,1,1.73,1.17,4.37,4.37,0,0,1,.85,1.79l3.19-.63a6.86,6.86,0,0,0-1.66-2.62,7.47,7.47,0,0,0-3.06-1.72,17,17,0,0,0-6.61-.31c-2.09.24-4.08.63-6.05,1s-3.83.74-5.75.91a2.87,2.87,0,0,1-.71-.52,4.93,4.93,0,0,1-.68-.83,6.68,6.68,0,0,1-.84-1.94c-.11-.33-.15-.68-.23-1s-.1-.69-.13-1.05,0-.7,0-1l0-1.06-.15,1c0,.36-.05.71-.08,1.07s0,.71,0,1.07.05.71.12,1.07a7,7,0,0,0,.66,2.12,4.75,4.75,0,0,0,.65,1A3.62,3.62,0,0,0,342.4,239.38Z"/><path class="cls-2" d="M308.54,248.77a9.86,9.86,0,0,0,.66-1.09c.1-.19.19-.28.27-.43a3.19,3.19,0,0,1,.33-.31,3.54,3.54,0,0,1,2.17-.36,20.26,20.26,0,0,1,2.67.43l2.75.64c.93.22,1.89.43,2.89.58l.38.06.19,0h.26a3.9,3.9,0,0,0,1.07-.06,3.65,3.65,0,0,0,1.82-.92,5.58,5.58,0,0,0,1.44-2.53,13.55,13.55,0,0,0,.47-2.45,26,26,0,0,0,0-4.83l-3.26.32a24.1,24.1,0,0,1,.41,4.4,12.4,12.4,0,0,1-.21,2.13,3.75,3.75,0,0,1-.73,1.7,1,1,0,0,1-.53.35,1.13,1.13,0,0,1-.34,0h-.11l-.16,0-.33,0c-.9-.08-1.81-.22-2.74-.38s-1.87-.34-2.83-.49a20.6,20.6,0,0,0-3-.3,7.23,7.23,0,0,0-1.64.14,4.37,4.37,0,0,0-.83.25,4.42,4.42,0,0,0-.76.44,4.24,4.24,0,0,0-.54.59c-.11.21-.25.46-.33.63a7.37,7.37,0,0,1-.51,1,41.79,41.79,0,0,1-2.73,4c-2,2.63-4.09,5.21-6.25,7.75,2.38-2.41,4.71-4.87,6.94-7.39A45.92,45.92,0,0,0,308.54,248.77Z"/><polygon class="cls-2" points="304.92 270.72 305.42 273.32 321.08 270.71 299.23 281.06 324.8 270.06 327.44 268.93 324.42 269.17 304.92 270.72"/><polygon class="cls-2" points="372.13 248.58 372.12 248.58 372.11 248.59 351.2 259.47 364.33 249.85 362.06 247.95 341.52 264.53 342.69 265.7 372.34 248.87 382.44 244.18 372.13 248.58"/><path class="cls-38" d="M278.82,384.36a27.75,27.75,0,0,1-8.33,5.21c-2.38.88-6.76,2.62-12.51,4.87l.46,7.77s3.07,5.49,4.92,4.91c3.5-1.09,8.26-10,14.57-19.24l4.75-18.68h0Z"/><path class="cls-42" d="M137,321.75a3.78,3.78,0,0,1-.07,1.82c-19.77,57-16.79,96.12-15.4,98.62,0,.09,15.44-5.25,15.4-5.15-.3.76,22.47,5.15,22.47,5.15a62.72,62.72,0,0,0,6.56-.24h0l9.26-20.5-27.27-1.58S128,350.21,139,327.2h0Z"/><path class="cls-42" d="M269.3,300.33c-10.74,14.27-49.72,3.74-49.72,3.74-21.62,11.65-40.69,5.15-40.69,5.15-27.89,9-46.65-1.75-46.65-1.75-.91,2.19,1.22,6,2.93,9.54l-2.93-7.79,16.15,15.47c8.94,1.41,24.56,1.93,34.93-8.66,0,0,.37.14,1.06.35s1.3.38,2.23.6c.69.17,1.48.34,2.36.5s1.84.32,2.88.45c1.38.16,2.89.29,4.51.33.81,0,1.64,0,2.49,0s1.74-.07,2.63-.14,1.82-.18,2.75-.32l1.4-.24a40,40,0,0,0,5.8-1.5c1-.34,2-.72,3-1.14a18.1,18.1,0,0,1,3.17-3.67,12.85,12.85,0,0,1,1.08-.83,7.85,7.85,0,0,1,.78-.49,7.77,7.77,0,0,1,.82-.4l.43-.16a6.74,6.74,0,0,1,.88-.24,6.84,6.84,0,0,1,.91-.09,5.23,5.23,0,0,1,1.4.18c.44.12.94.23,1.5.35s1.19.23,1.87.34,1.4.22,2.18.32l1.19.15c.81.09,1.67.19,2.55.27,10.18,1,24.5,1.08,30.25-1.79l.81-.44a12.54,12.54,0,0,0,2-1.45c.19-.17.37-.35.54-.52a10.58,10.58,0,0,0,.89-1.08,8.72,8.72,0,0,0,.67-1.12,9.33,9.33,0,0,0,1-3.91Z"/><path class="cls-42" d="M278.82,384.36l3.86-15.16,0,.07v0l-.05.07c-2.68,3.54-7.63,5.84-12,7.82-1.28.59-13.34,4.67-13.28,5.67l.68,11.59c5.75-2.25,10.13-4,12.51-4.87A27.75,27.75,0,0,0,278.82,384.36Z"/><path class="cls-36" d="M343.8,316.22a99.67,99.67,0,0,0-21.36,11.43c-35.79,25.63-26.72,63.34-53.61,82.43,1.36,4.12-8.84,2.42,9.1,7,0,0,7.75,5.52,9.58,15.22h0c13.29-7.86,28-20.59,32.39-39.71,8.49-37.19,32.26-75,72.51-62.51,12.24-.14,19.87-.44,31.5,5.5-14-7.13-18.26-13.86-26.67-18.37a51.06,51.06,0,0,0-11.13-4.34C373.22,309.43,358.22,310.49,343.8,316.22Z"/><path class="cls-43" d="M319.9,392.55c-4.37,19.12-19.1,31.85-32.39,39.71h0c.07.36.13.73.18,1.1,0,0,0,.08,0,.12.05.38.09.75.12,1.14v.1q0,.55.06,1.11v.11c0,.39,0,.79,0,1.19v.17c0,.39,0,.79-.08,1.19v.05c0,.41-.09.82-.15,1.24l0,.24c-.14.84-.32,1.7-.55,2.57,0,.09-.05.18-.07.27-.12.43-.25.87-.4,1.32,0,0,0,.09,0,.13-.13.41-.29.83-.45,1.25l-.1.27c-.18.45-.37.9-.58,1.36a2.56,2.56,0,0,0-.11.24c-.19.41-.4.83-.61,1.24a2,2,0,0,1-.13.25c-.24.47-.5.94-.77,1.41l-.18.31c-.26.44-.53.88-.82,1.33a1,1,0,0,1-.11.17c-.31.49-.65,1-1,1.48l-.24.34c-.37.51-.74,1-1.14,1.53,0,0,65.42-8.15,85.66-10.7,0,0-12.79-65.48-12.36-72.47.21-3.46,2.85-18.61,12.36-28.19,9.79-9.85,26.45-14.09,26.45-14.09C352.16,317.55,328.39,355.36,319.9,392.55Z"/><path class="cls-37" d="M142.51,258.82c-1.21,0-2.62,4.18-3.31,7-.07.25-.12.49-.17.71-.62,2.71,1.06,4.69,2.37,4.73s1.76-1.88,2.37-4.59a14.4,14.4,0,0,0,.16-4.3C143.74,260.45,143.24,258.84,142.51,258.82Z"/><path class="cls-2" d="M121.71,170.6s20.75-25.93,16.78-7.79l-8.14,2.25Z"/><path class="cls-2" d="M165.85,171.76s-2.77-29.44-12.79-17.9l5.94,5.92Z"/></svg>