<?xml version="1.0" encoding="utf-8"?>
<!-- Generator: Adobe Illustrator 25.4.1, SVG Export Plug-In . SVG Version: 6.00 Build 0)  -->
<svg version="1.1" xmlns="http://www.w3.org/2000/svg" xmlns:xlink="http://www.w3.org/1999/xlink" x="0px" y="0px"
	 viewBox="0 0 512 512" style="enable-background:new 0 0 512 512;" xml:space="preserve">
<style type="text/css">
	.st0{fill:none;stroke:#FFFFFF;stroke-width:0.7122;stroke-linecap:round;stroke-linejoin:round;stroke-miterlimit:10;}
	.st1{fill:#FFFFFF;stroke:#C4C4C4;stroke-miterlimit:10;}
	.st2{fill:#E0F005;}
	.st3{fill:#FFFF05;}
	.st4{fill:#B2DF00;}
	.st5{fill:#88CA04;}
	.st6{fill:#A9D800;}
	.st7{fill:#FFFFFF;}
	.st8{fill:#86C400;}
</style>
<g id="safe">
</g>
<g id="Layer_1">
	<path class="st1" d="M469.7,210c-7.4-7.8-17.2-12.1-27.8-12.1c-7.7,0-15.5,2.2-23,6.7c-8.5,5-17.8,10.1-22.6,10.1
		c-2,0-4.3-1-9.8-5.9c-3.1-2.8-4.7-6.2-4.4-9.2c0.2-1.5,0.8-3.1,2-4.6c2.7,1.8,6.4,3.2,11.3,3.2c1.6,0,3.2-0.2,4.9-0.5
		c7.3-1.3,12.5-6.3,14.1-13.7c1-4.5,0.5-9.2,0.1-13c-0.1-0.5-0.1-1.2-0.2-1.8c21.5-18.8,31.5-35.2,30.5-50.1
		c-0.5-7.1-3.8-17.4-17.1-25.8c-10-6.4-19.2-9.5-28-9.5c-22.8,0-35,20.6-44.9,37.2l-1.6,2.7c-3.3,5.5-7.3,8.3-11.9,8.3
		c-5.5,0-10.9-4-12.4-7.8c-2.8-6.8-0.3-16.2,3.1-29.3c1.3-4.8,2.7-10.3,4-16.2c3.4-15.5,1.9-37.4-9.3-51.3
		c-6.5-8.1-15.3-12.4-25.4-12.4c-0.9,0-1.8,0-2.7,0.1c-12.4,0.9-22,6.7-28,16.8c-11.1,18.6-6,46-0.3,58.9c1.5,3.3,3.5,9.7,0,15.1
		c-3.6,5.5-12.3,8.7-23.8,8.7c-1.9,0-4-0.1-6.1-0.3c-14.7-1.2-21.1-11.9-30.4-29.2c-7-13.1-15-27.9-29.9-35.5
		c-8.1-4.1-16.4-6.2-24.7-6.2c-12.4,0-23.8,4.7-32.1,13.2c-7.9,8.1-12,18.9-11.7,30.4c0.6,20.5,28.2,35,54.8,49.1
		c10.4,5.5,26.2,13.8,28.5,17.6c5.5,9.5,9.2,23.7,5.3,31.5c-0.8,1.5-3.2,6.2-14.4,7.3c-0.6,0.1-1.3,0.1-1.9,0.1
		c-10,0-23.3-6.8-41.6-16.2c-11.1-5.7-23.8-12.2-38.9-18.8c-10.5-4.6-20.4-6.9-29.4-6.9c-14.8,0-27.1,6.3-34.6,17.8
		c-5.1,6-10.7,16.6-9.6,33.2c0.7,10.4,5.6,24.5,25.5,32.4c8.9,3.9,20,6.1,36,7.2c6.5,0.6,13.2,1,19.7,1.4c2.3,0.1,4.5,0.3,6.7,0.4
		c-0.1,1.6-0.6,3.8-0.9,5.3c-1.1,5.6-2.6,12.6,1.7,18.4c1.7,2.4,5.1,5.3,11.1,5.9c0.4,0,1.3,0.1,2.3,0.1c6.9,0,12.6-4,15.5-11
		c1.6-3.9,1.3-8.4,0.4-15.1c10.7,2.5,17.6,6,21.4,10.8c6.8,10.3,1,26.1-2,31.8c-1.5,1.8-3.3,3.6-5.2,5.2c-4.7,3.2-11.2,6.3-19,8.9
		c-0.6,0.1-1.3,0.3-2.1,0.4c-0.4,0-0.9,0-1.4,0c-5,0-12.4,0.5-19,3.1c-8.7,3-15.7,9.2-19.7,17.6c-3.9,8.1-4.5,17.3-1.6,25.3
		c2.1,6.7,6.7,12.6,12.6,16.4c4.1,2.6,8.9,4,13.7,4c2.9,0,5.6-0.5,8.3-1.5c0.4,0,0.8-0.1,1.1-0.1c11.9-1.5,23-9,32.7-15.6
		c5.6-3.8,12.6-8.6,16.2-9.1c1.4,1.8,3.4,8.8,1.9,21.5c-1.6,13.2-6.3,27.1-12.7,37.1c-2.8,4.4-4.8,9.1-5.8,14.1
		c-2,7.2-1.3,15.3,2,21.1c5.4,12.1,17.3,19.1,32.9,19.1c1.9,0,3.9-0.1,5.9-0.3c9.2-0.9,15.6-4.1,19.7-9.6c6.8-9.3,4.2-21.4,1.3-35.4
		c-1.3-6.2-2.7-12.9-3.5-20.1c0.8,1.7,1.7,3.1,2.6,4.3c4.4,5.7,11.4,9,19.2,9c4.1,0,8.3-0.9,12.3-2.6c8.8-3.7,13.7-11.7,16-19.4
		c0.1,2.1,0.1,4.3,0.1,6.5c0,8.4-0.6,15.7-1.8,22.1c-1,5.6-3.2,10.9-5.5,16.6c-0.4,0.9-0.8,1.9-1.1,2.8c-0.5,1.3-1,2.6-1.5,3.9
		c-6.6,17.4-5.7,33.8,2.5,45c1.9,2.6,4.2,4.8,6.8,6.8c3.7,3.4,8.7,5.7,15.1,6.9c1,0.2,2,0.5,3,0.7c2.6,0.5,5.1,0.7,7.6,0.7
		c11.9,0,22.9-5.8,30-15.9c9.4-13.3,11.2-31.8,4.9-49.5c-10.9-30.6-20.1-81.9-16.7-93.1c1.8-5.8,12.1-12.9,21.7-12.9
		c4.4,0,7.9,1.5,10.6,4.3c10.5,11.5,8,53.4,2.3,69.2c-3.9,10.8-2.8,22.2,3,30.5c5.9,8.4,16,13,28.5,13c2.2,0,4.5-0.1,6.8-0.4
		c14.8-1.7,21.6-9.5,24.6-15.7c8.9-18.2-3.8-41.3-7.9-47.9c-10.3-16.8-16-49.3-17.8-60c-0.4-2.2-0.1-3.5,0.1-3.9c0.1,0,0.2,0,0.3,0
		c0.4,0,1.4,0.1,2.9,0.7c1,0.4,2.6,5.2,3.4,7.8c2.5,7.6,6.2,19,18.9,23.2c3.3,1.1,6.8,1.7,10.2,1.7c9.5,0,18.1-4.1,23.5-11.3
		c6-7.8,7.5-18.3,4.4-29.6c-3.7-13.3-14-21.1-21.6-26.7c-0.9-0.7-1.9-1.5-2.9-2.2c1.2-0.1,2.9-0.2,5.2-0.2c1.8,0,3.7,0.1,5.7,0.1
		c2.1,0.1,4.3,0.1,6.6,0.1c0,0,0,0,0.1,0c8.1,0,32.5-0.1,34.3-27.5C483.1,233.2,478.7,219.6,469.7,210z"/>
	<g>
		<g>
			<path class="st2" d="M276.7,434.7c2.8-7,5.9-13.8,7.2-21.4c1.4-7.9,1.9-15.9,1.9-23.9c0.1-32.5-6.7-59.7-15.6-57.8
				c-5.2,1.1-7.6,4.6-7,13.3c0.4,6.4,2.9,16.5,4.2,25.6c0.8,5.6-2.2,18.7-11.5,22.6c-12.3,5.2-27.3-0.6-21.4-22.4
				c5.2-19.1-2.1-40.1-11.5-38.6c-8.2,1.3-7.1,17.3-8.1,44.5c-1.4,38.6,21.5,67.2-7.8,70.2c-29.3,3-36.8-21-25.5-38.6
				c17.9-28,20.7-75.5,1.8-74c-12.9,1-31.7,22.6-49.6,24.8c-36.7,4.5-32.8-42.4-2.3-43.6c32.9-1.3,53.8-22.2,52.2-45.1
				c-1.3-19.7-13.6-29.2-38.6-33.9c-1.4-0.3-8.6-2.4-8.2,3.5c0.4,5.8,2.6,15.6,1.4,18.5c-2.3,5.5-6.2,4.9-7.6,4.8
				c-14.8-1.5,10.8-29.5-15.3-30.5c-31.7-1.1-67.7-1.5-72.7-26.2c-5.9-29,12.9-58.7,56.6-39.5s67.6,37.6,87.5,35.7
				c35.2-3.4,25.8-38.4,16.8-53.8s-81.3-37.6-82-62c-0.8-24.8,25.8-42.5,53.9-28.2s27.3,62.8,64.1,65.8c36.7,3,48.7-17.8,39.8-37.6
				c-7.7-17.3-11.6-59.3,19.9-61.7c23.7-1.8,32,28.6,27,51.5c-5.1,22.9-12.1,38.4-6.6,51.5c5.5,13.2,28.9,22.9,42.2,0.8
				s27-48.5,60.5-27.1c28.2,18,2.6,45.3-17.1,62.1c-3.7,3.2,5.2,21.9-6.7,24c-11.4,2-12.4-7.1-13.7-6.4
				c-16.2,9.4-16.1,24.6-5.1,34.6c12.9,11.7,18.8,12,44.1-3c25.4-15,50,3.8,48,34.6c-2,30.8-41.4,10.2-52.3,22.2
				s19.5,16.5,25.4,37.6c5.9,21.1-10.5,32-25.4,27.1c-14.8-4.9-10.2-26.3-21.9-30.8s-18.8,3-16.8,14.3c2,11.3,7.8,45.1,19.1,63.6
				c11.3,18.4,16.8,45.5-9.4,48.5c-26.2,3-33.2-14.7-27.7-29.7c5.5-15,10.9-62.8-4.3-79.3c-15.2-16.5-44.5-3-49.2,12.4
				s6.6,70.8,16.8,99.4c10.2,28.6-5.9,56.4-31.3,51.5c-7.2-1.4-14.3-4.5-18.7-10.5c-7.4-10.1-5.4-24.5-1.2-35.5
				C275.7,437.1,276.2,435.9,276.7,434.7z"/>
			<path class="st3" d="M276.6,434.7c2.9-7.1,6.1-14.3,7.3-21.9c1.3-7.6,1.8-15.3,1.8-23.1c0-7.7-0.3-15.4-1.1-23.1
				c-0.9-7.7-2.1-15.3-4.4-22.7c-0.6-1.8-1.3-3.6-2.1-5.4c-0.8-1.7-1.8-3.4-3.1-4.8c-0.7-0.7-1.4-1.3-2.3-1.7
				c-0.9-0.4-1.8-0.4-2.8-0.2c-1.9,0.4-3.7,1.3-4.8,2.8c-1.1,1.5-1.6,3.4-1.8,5.3c-0.2,1.9-0.2,3.8,0,5.8c0.3,3.8,1.1,7.6,1.8,11.4
				c0.7,3.8,1.5,7.6,2,11.4c0.8,3.8,0.3,7.8-0.8,11.5c-1.1,3.7-3,7.2-5.7,10c-1.4,1.4-3.1,2.4-4.8,3.2c-1.8,0.7-3.7,1.3-5.6,1.5
				c-1.9,0.3-3.9,0.2-5.8-0.1c-1.9-0.4-3.8-1-5.4-2.1c-1.6-1.1-3-2.6-3.9-4.3c-1-1.7-1.5-3.6-1.8-5.5c-0.5-3.9,0-7.8,1-11.5
				c1-3.7,1.6-7.5,1.8-11.4c0.2-3.8-0.1-7.7-0.8-11.5c-0.7-3.8-1.9-7.5-3.8-10.8c-1-1.6-2.2-3.2-3.8-4.2c-1.5-1.1-3.5-1.5-5.3-0.9
				c-1.8,0.5-3.1,2.1-3.8,3.8c-0.8,1.7-1.2,3.6-1.5,5.5c-0.6,3.8-0.8,7.7-1,11.5c-0.2,3.9-0.2,7.7-0.3,11.6
				c-0.1,7.7-0.7,15.4-0.1,23.1c0.6,7.7,2,15.3,3.5,22.8c0.8,3.8,1.6,7.6,2.3,11.4c0.7,3.8,1.3,7.7,1.1,11.6
				c-0.1,1.9-0.5,3.9-1.3,5.7c-0.8,1.8-2.2,3.3-3.8,4.5c-3.3,2.2-7.3,2.9-11.2,3.2c-3.9,0.3-7.8,0.2-11.6-0.6
				c-1.9-0.4-3.8-1-5.6-1.8c-1.8-0.8-3.4-1.9-5-3.1c-3.1-2.5-5.3-5.9-6.5-9.6c-1.2-3.7-1.4-7.7-0.9-11.6c0.6-3.9,1.9-7.6,3.9-11
				c1-1.7,2-3.3,3-5c1-1.7,1.8-3.4,2.7-5.1c3.3-6.9,5.8-14.3,7.5-21.8c1.7-7.5,2.7-15.2,2.4-22.9c-0.2-3.8-0.7-7.7-1.9-11.3
				c-0.6-1.8-1.4-3.5-2.6-5c-1.1-1.5-2.6-2.7-4.4-3.3c-1.7-0.6-3.7-0.6-5.5-0.2c-1.8,0.4-3.6,1.1-5.3,1.9c-3.4,1.7-6.7,3.7-9.9,5.9
				c-6.4,4.3-12.7,8.9-19.6,12.4c-3.5,1.8-7.1,3.3-11,4c-3.9,0.7-7.8,0.9-11.7,0.2c-3.9-0.6-7.7-2.2-10.7-4.7
				c-3-2.6-5.1-6.2-5.9-10.1c-0.9-3.8-0.6-7.9,0.4-11.7c1.1-3.8,3.1-7.3,5.8-10.1c2.7-2.8,6.1-5.1,9.8-6.4c0.9-0.3,1.9-0.6,2.8-0.8
				l1.4-0.3c0.5-0.1,1-0.2,1.5-0.2c2-0.2,3.9-0.3,5.8-0.4c7.6-0.6,15.2-2.5,22.2-5.7c7-3.2,13.3-7.9,18-13.9c4.8-6,7.7-13.4,8-21.1
				c0.1-1.9,0-3.8-0.2-5.7l-0.2-1.4c-0.1-0.5-0.2-0.9-0.3-1.4l-0.3-1.4l-0.1-0.7l-0.2-0.7c-0.9-3.7-2.5-7.2-4.8-10.3
				c-2.3-3-5.3-5.6-8.5-7.6c-3.3-2-6.8-3.6-10.4-4.8c-3.6-1.2-7.4-2.2-11.1-3l-2.8-0.6c-0.9-0.2-1.9-0.4-2.8-0.4
				c-0.9,0-1.9,0-2.7,0.4c-0.8,0.3-1.3,1.1-1.5,1.9c-0.2,0.9,0,1.8,0,2.8c0.1,1,0.2,1.9,0.4,2.9l0.8,5.7c0.2,1.9,0.5,3.8,0.5,5.8
				c0,1,0,2-0.4,3c-0.4,0.9-0.9,1.8-1.5,2.6c-0.6,0.8-1.4,1.4-2.4,1.8c-0.9,0.4-2,0.6-3,0.5c-0.5,0-1-0.1-1.5-0.2l-0.7-0.1
				c-0.2-0.1-0.5-0.2-0.7-0.2c-0.5-0.1-0.9-0.4-1.4-0.7c-0.4-0.4-0.8-0.7-1-1.2c-0.6-0.9-0.8-1.9-0.8-2.9c-0.1-1,0-2,0.1-3
				c0.2-1.9,0.7-3.8,1-5.7c0.4-1.9,0.7-3.8,0.8-5.7c0.1-1.9,0-3.8-0.7-5.5c-0.7-1.7-2.1-3.1-3.8-3.9c-1.7-0.8-3.6-1.2-5.5-1.4
				c-15.4-0.8-30.9-0.7-46.1-3.9c-3.8-0.8-7.5-1.9-11.1-3.3c-3.6-1.4-7-3.4-10-6c-1.4-1.3-2.8-2.7-3.9-4.3c-0.6-0.8-1-1.7-1.5-2.5
				c-0.2-0.4-0.4-0.9-0.6-1.3c-0.2-0.4-0.4-0.9-0.6-1.4l-0.5-1.4c-0.2-0.5-0.2-0.9-0.4-1.4c-0.3-0.9-0.4-1.9-0.6-2.9
				c-0.3-1.9-0.5-3.8-0.6-5.8c-0.5-7.7,0.9-15.7,4.6-22.5c3.7-6.8,10.1-12.3,17.6-14.3c3.7-1.1,7.6-1.5,11.5-1.4
				c3.9,0.1,7.7,0.7,11.5,1.7c3.7,1,7.4,2.2,11,3.7c1.8,0.7,3.5,1.5,5.3,2.3c1.8,0.8,3.5,1.6,5.3,2.4c7,3.3,13.9,6.7,20.8,10.1
				c6.9,3.5,13.7,7.1,20.6,10.5c6.9,3.4,13.9,6.7,21.3,9l2.8,0.8c0.5,0.1,0.9,0.3,1.4,0.4l1.4,0.3c0.9,0.2,1.9,0.4,2.8,0.5l2.9,0.2
				c3.8,0.1,7.7-0.3,11.4-1.3c3.7-1,7.3-2.6,10.2-5.1c1.4-1.3,2.7-2.7,3.8-4.3c1-1.6,1.9-3.3,2.5-5.2c0.6-1.8,1-3.7,1.2-5.6
				c0.1-1,0.1-1.9,0.2-2.9c0-1,0-1.9,0-2.9c-0.2-3.8-0.9-7.7-1.9-11.4c-1-3.7-2.4-7.3-4.1-10.8c-0.8-1.7-1.7-3.5-2.8-5.1
				c-1.1-1.5-2.5-2.9-4-4.1c-3-2.4-6.3-4.5-9.6-6.5c-3.3-2-6.7-3.8-10.1-5.7c-6.8-3.7-13.7-7.2-20.4-10.9c-6.8-3.7-13.5-7.6-19.8-12
				c-3.2-2.2-6.2-4.6-9.1-7.3c-2.8-2.7-5.4-5.6-7.1-9.2c-0.8-1.8-1.3-3.7-1.4-5.7c0-1.9,0-3.9,0.3-5.8c0.5-3.9,1.8-7.6,3.7-11
				c3.8-6.8,10.1-12.1,17.5-14.7c3.6-1.4,7.5-2,11.4-2.1c3.9-0.1,7.8,0.4,11.5,1.3c3.8,1,7.4,2.4,10.8,4.3c3.4,1.9,6.5,4.3,9.2,7.1
				c5.4,5.6,9.4,12.3,13.1,19.1c3.7,6.8,7.2,13.7,11.5,20.1c2.2,3.2,4.5,6.2,7.3,8.9c2.7,2.7,5.9,5,9.3,6.7
				c6.9,3.5,14.9,3.8,22.5,3.6c3.8-0.2,7.7-0.6,11.4-1.6c3.7-1,7.3-2.4,10.5-4.5c1.6-1,3.1-2.3,4.4-3.6c1.3-1.4,2.5-2.9,3.4-4.6
				c0.9-1.7,1.6-3.4,2.1-5.3c0.5-1.9,0.7-3.8,0.7-5.7c0-1.9-0.2-3.8-0.6-5.7c-0.4-1.9-1-3.7-1.7-5.5c-1.6-3.5-2.8-7.2-3.7-11
				c-1.8-7.5-2.6-15.4-1.9-23.1c0.3-3.9,1.1-7.7,2.4-11.4c1.3-3.7,3.2-7.2,5.9-10c1.3-1.5,2.9-2.7,4.5-3.7c0.9-0.5,1.7-1,2.6-1.4
				c0.9-0.4,1.8-0.8,2.7-1.1c0.9-0.3,1.9-0.6,2.8-0.8l1.4-0.3c0.5-0.1,1-0.1,1.5-0.2l1.5-0.2c0.5,0,1,0,1.5-0.1c1-0.1,2,0,2.9,0.1
				c1.9,0.2,3.9,0.6,5.7,1.3c1.8,0.7,3.6,1.7,5.2,2.8c1.6,1.2,3,2.5,4.3,4c1.3,1.5,2.4,3.1,3.3,4.8c1.9,3.4,3.3,7.1,4.2,10.9
				c1,3.8,1.5,7.6,1.7,11.5c0.2,3.9,0,7.8-0.5,11.6c-0.3,1.9-0.6,3.8-1,5.7c-0.4,1.9-0.9,3.8-1.3,5.6c-1.8,7.5-4,14.9-5.6,22.5
				c-0.8,3.8-1.4,7.6-1.4,11.4c-0.1,3.8,0.5,7.6,2,11.1c1.5,3.5,4.1,6.4,7.1,8.7c3,2.3,6.6,3.9,10.3,4.5c3.7,0.7,7.6,0.3,11.2-1
				c3.5-1.4,6.6-3.7,9.1-6.6c2.5-2.8,4.3-6.3,6.3-9.6c2-3.3,4-6.6,6.1-9.9c2.1-3.2,4.5-6.4,7-9.3c2.6-2.9,5.5-5.6,8.8-7.6
				c3.3-2,7.1-3.4,11.1-3.8c2-0.2,3.9-0.1,5.9,0.1c1,0.2,1.9,0.3,2.9,0.5c0.9,0.2,1.9,0.4,2.8,0.7c3.7,1.1,7.3,2.8,10.7,4.7
				c3.3,1.9,6.6,4.1,9.4,6.9c2.8,2.7,4.9,6.3,5.9,10.1c0.9,3.9,0.6,7.9-0.5,11.7c-1.1,3.8-2.9,7.3-5,10.6c-2.1,3.3-4.5,6.4-7,9.3
				c-5.1,5.8-10.8,11.1-16.7,16.1c-0.6,0.5-0.8,1.4-0.9,2.3c-0.1,0.9,0,1.9,0,2.8l0.5,5.8c0.1,1.9,0.2,3.9-0.1,5.9
				c-0.1,1-0.4,2-0.8,2.9c-0.4,0.9-1,1.8-1.7,2.5c-1.5,1.5-3.7,2-5.6,2.2c-2,0.2-4,0.1-5.9-0.6c-1.9-0.7-3.6-2.1-4.7-3.7
				c-0.3-0.4-0.6-0.8-0.8-1.2c-0.3-0.4-0.5-0.9-0.7-1.1l-1.9,1.2c-3.2,2.1-6,4.8-8,8c-0.6,0.8-0.9,1.7-1.3,2.5
				c-0.2,0.4-0.3,0.9-0.5,1.3l-0.4,1.3c-0.4,1.8-0.6,3.7-0.4,5.6c0.4,3.7,1.9,7.3,4.3,10.3c1.2,1.5,2.5,2.8,3.9,4.1
				c1.4,1.3,2.9,2.5,4.4,3.6c0.8,0.5,1.5,1.1,2.4,1.6c0.4,0.2,0.8,0.5,1.2,0.7l1.3,0.6l0.6,0.3l0.7,0.2l1.3,0.4l1.4,0.2l0.7,0.1
				c0.2,0,0.5,0,0.7,0c3.8,0.1,7.5-1,11-2.5c3.5-1.5,7-3.2,10.3-5.1c3.4-1.8,6.6-3.9,10.1-5.7c3.5-1.7,7.3-2.9,11.2-3.3
				c3.9-0.4,7.9-0.2,11.7,1c3.8,1.1,7.3,3.1,10.3,5.6c2.9,2.6,5.5,5.7,7.3,9.1c1.9,3.4,3.2,7.1,4,11c0.8,3.8,1.1,7.7,1,11.6
				c-0.1,3.9-0.7,7.9-2.5,11.4c-1,1.7-2.3,3.3-3.8,4.6c-1.6,1.2-3.4,2.1-5.2,2.8c-3.8,1.3-7.7,1.6-11.6,1.7
				c-3.9,0.1-7.7-0.1-11.6-0.2c-3.8-0.1-7.7-0.1-11.4,0.7c-1.8,0.4-3.6,1.1-5.1,2.2c-1.4,1.1-2.7,2.6-3.3,4.3
				c-0.3,0.8-0.3,1.7-0.1,2.6c0.2,0.9,0.6,1.7,1.2,2.4c1.1,1.5,2.5,2.8,4,4c3,2.4,6.2,4.6,9.2,7.1c3,2.4,5.9,5.1,8.3,8.2
				c1.2,1.5,2.3,3.2,3.1,5c0.5,0.9,0.8,1.8,1.2,2.7c0.3,0.9,0.6,1.9,0.9,2.8c1,3.8,1.3,7.8,0.7,11.7c-0.6,3.9-2.4,7.7-5.2,10.5
				c-2.8,2.9-6.5,4.7-10.3,5.5c-3.9,0.8-7.9,0.4-11.7-0.9c-1.9-0.6-3.7-1.7-5.1-3c-1.5-1.3-2.7-2.9-3.7-4.6c-1.9-3.4-3-7.2-4.2-10.9
				c-1.2-3.6-2.5-7.3-5.1-10c-1.3-1.3-2.9-2.2-4.8-2.7c-0.9-0.3-1.8-0.5-2.7-0.7c-0.9-0.1-1.9-0.2-2.8-0.1c-1.8,0.1-3.7,0.6-5.2,1.6
				c-1.5,1-2.7,2.5-3.4,4.3c-0.7,1.7-1,3.6-1,5.5c0,1.9,0.3,3.7,0.6,5.7c2.7,15.2,5.9,30.3,11.1,44.9c0.7,1.8,1.4,3.6,2.1,5.4
				c0.8,1.8,1.5,3.6,2.4,5.3c1.6,3.5,3.8,6.7,5.6,10.1c3.6,6.9,6.3,14.3,7,22.1c0.3,3.9,0,7.9-1.6,11.5c-0.8,1.8-1.8,3.5-3.2,5
				c-1.3,1.5-3,2.6-4.7,3.5c-3.5,1.9-7.4,2.6-11.3,2.9c-3.9,0.3-7.8,0.2-11.6-0.6c-3.8-0.8-7.5-2.5-10.4-5.2
				c-2.9-2.7-4.8-6.3-5.6-10.2c-0.8-3.8-0.5-7.9,0.4-11.6c0.5-1.9,1.3-3.7,1.8-5.5c0.5-1.8,1-3.7,1.4-5.6c1.6-7.5,2.6-15.2,3-22.9
				c0.4-7.7,0.4-15.4-0.5-23.1c-0.5-3.8-1.1-7.6-2.2-11.3c-1.1-3.7-2.5-7.3-4.6-10.5c-1-1.6-2.3-3-3.7-4.4c-1.4-1.3-3-2.4-4.7-3.3
				c-1.7-0.9-3.5-1.5-5.4-2c-1.9-0.4-3.8-0.7-5.7-0.7c-7.7-0.1-15.3,2.6-21.5,7c-3.1,2.2-5.9,4.9-8,8.2c-1,1.6-1.8,3.4-2.3,5.2
				c-0.5,1.8-0.7,3.8-0.8,5.7c-0.2,3.8-0.1,7.7,0.2,11.5c0.3,3.8,0.7,7.7,1.2,11.5c1,7.7,2.3,15.3,3.8,22.8
				c1.5,7.6,3.2,15.1,5.2,22.6c1.9,7.5,4,14.9,6.5,22.2c0.6,1.8,1.3,3.6,1.8,5.5c0.5,1.9,1,3.7,1.3,5.7c0.7,3.8,0.9,7.7,0.7,11.6
				c-0.5,7.7-3,15.4-7.8,21.5c-2.4,3-5.4,5.6-8.9,7.4c-0.4,0.2-0.9,0.4-1.3,0.6c-0.4,0.2-0.9,0.4-1.3,0.6c-0.9,0.3-1.8,0.7-2.8,0.9
				c-1.9,0.5-3.8,0.7-5.7,0.8c-3.9,0.1-7.7-0.6-11.4-1.8c-3.7-1.2-7.2-2.9-10.2-5.4c-3-2.5-5.2-5.8-6.7-9.4c-1.5-3.6-2-7.5-2-11.4
				C271.4,449.3,273.6,441.8,276.6,434.7z M276.7,434.7c-3,7.1-5.2,14.7-5.2,22.4c0,3.8,0.5,7.7,2,11.3c1.4,3.6,3.7,6.8,6.6,9.3
				c3,2.5,6.5,4.2,10.1,5.4c3.7,1.2,7.5,1.8,11.4,1.8c1.9-0.1,3.8-0.3,5.7-0.8c0.9-0.2,1.8-0.6,2.8-0.9c0.4-0.2,0.9-0.4,1.3-0.6
				c0.4-0.2,0.9-0.4,1.3-0.6c3.4-1.8,6.4-4.3,8.8-7.3c4.8-6.1,7.2-13.7,7.7-21.4c0.2-3.8,0-7.7-0.7-11.5c-0.3-1.9-0.8-3.8-1.3-5.6
				c-0.5-1.8-1.2-3.7-1.8-5.5c-2.5-7.3-4.6-14.7-6.6-22.2c-1.9-7.5-3.7-15-5.2-22.6c-1.5-7.6-2.9-15.2-3.9-22.8
				c-0.5-3.8-0.9-7.7-1.2-11.5c-0.3-3.9-0.4-7.7-0.2-11.6c0.1-1.9,0.3-3.9,0.8-5.8c0.5-1.9,1.3-3.7,2.4-5.3c2.1-3.3,4.9-6,8.1-8.3
				c3.2-2.3,6.7-4,10.3-5.3c1.8-0.6,3.7-1.1,5.6-1.4c1.9-0.3,3.9-0.5,5.8-0.4c1.9,0.1,3.9,0.3,5.8,0.7c1.9,0.5,3.7,1.2,5.5,2.1
				c1.7,0.9,3.3,2.1,4.8,3.4c1.4,1.4,2.7,2.8,3.8,4.4c2.2,3.2,3.6,6.9,4.7,10.6c1.1,3.7,1.8,7.6,2.2,11.4c0.9,7.7,1,15.5,0.5,23.2
				c-0.5,7.7-1.4,15.4-3,23c-0.4,1.9-0.9,3.8-1.4,5.6c-0.5,1.9-1.3,3.7-1.7,5.5c-1,3.7-1.2,7.6-0.4,11.3c0.8,3.7,2.6,7.2,5.4,9.8
				c2.8,2.6,6.4,4.2,10.1,5c3.7,0.8,7.6,0.9,11.4,0.6c3.8-0.3,7.6-1,11-2.8c1.7-0.9,3.2-2,4.5-3.4c1.3-1.4,2.3-3,3-4.7
				c1.5-3.5,1.8-7.4,1.5-11.2c-0.6-7.6-3.4-15-6.9-21.8c-1.8-3.4-4-6.6-5.6-10.1c-0.9-1.7-1.6-3.5-2.4-5.3c-0.7-1.8-1.4-3.6-2.1-5.4
				c-5.2-14.6-8.5-29.8-11.2-45c-0.3-1.9-0.7-3.8-0.7-5.8c0-2,0.3-4,1.1-5.8c0.7-1.9,2-3.5,3.7-4.7c1.7-1.2,3.7-1.7,5.7-1.8
				c1-0.1,2,0.1,3,0.2c1,0.2,2,0.4,2.9,0.7c1.9,0.5,3.8,1.5,5.2,2.9c1.4,1.4,2.5,3.2,3.3,4.9c0.8,1.8,1.5,3.6,2.1,5.5
				c1.2,3.7,2.3,7.4,4.2,10.7c0.9,1.6,2.1,3.2,3.5,4.4c1.4,1.2,3,2.2,4.8,2.8c3.6,1.2,7.5,1.6,11.2,0.8c3.7-0.7,7.2-2.5,9.8-5.2
				c2.6-2.7,4.3-6.3,4.9-10c0.6-3.7,0.3-7.6-0.7-11.3c-0.2-0.9-0.5-1.8-0.8-2.7c-0.4-0.9-0.7-1.8-1.1-2.6c-0.8-1.7-1.9-3.3-3-4.8
				c-2.3-3-5.2-5.6-8.1-8c-3-2.4-6.1-4.6-9.2-7.1c-1.5-1.2-3-2.5-4.2-4.2c-0.6-0.8-1.1-1.7-1.3-2.8c-0.2-1-0.2-2.1,0.2-3.1
				c0.3-1,0.9-1.9,1.5-2.7c0.6-0.8,1.3-1.5,2.1-2.1c1.6-1.2,3.5-1.9,5.5-2.3c3.9-0.8,7.8-0.8,11.6-0.8c3.9,0.1,7.7,0.3,11.6,0.2
				c3.8-0.1,7.7-0.4,11.3-1.6c1.8-0.6,3.5-1.5,4.9-2.6c1.4-1.2,2.6-2.6,3.6-4.3c1.7-3.3,2.3-7.2,2.4-11c0.1-3.8-0.2-7.7-1-11.4
				c-0.8-3.7-2.1-7.4-3.9-10.7c-1.8-3.4-4.3-6.3-7.1-8.8c-2.9-2.4-6.3-4.4-9.9-5.4c-3.6-1.1-7.5-1.4-11.3-1
				c-3.8,0.4-7.5,1.6-10.9,3.3c-3.4,1.7-6.7,3.8-10.1,5.6c-3.4,1.9-6.8,3.7-10.4,5.1c-3.6,1.5-7.4,2.7-11.4,2.5c-0.2,0-0.5,0-0.7,0
				l-0.7-0.1l-1.5-0.2l-1.4-0.4l-0.7-0.2l-0.7-0.3l-1.4-0.6c-0.4-0.2-0.9-0.5-1.3-0.7c-0.9-0.5-1.7-1.1-2.5-1.6
				c-1.6-1.1-3.1-2.4-4.5-3.7c-1.5-1.3-2.8-2.7-4.1-4.2c-2.4-3.1-4.1-6.8-4.5-10.8c-0.3-2,0-4,0.4-5.9l0.4-1.4
				c0.2-0.5,0.3-1,0.5-1.4c0.4-0.9,0.8-1.8,1.4-2.6c2.1-3.4,5-6.1,8.2-8.3l1.2-0.8l0.6-0.4c0-0.2,1.1-0.3,1.2,0.1
				c0.4,0.5,0.6,0.9,0.9,1.3c0.3,0.4,0.5,0.8,0.8,1.2c1.1,1.5,2.5,2.7,4.3,3.4c1.7,0.6,3.6,0.7,5.5,0.5c0.9-0.1,1.9-0.3,2.7-0.6
				c0.9-0.3,1.7-0.7,2.3-1.4c1.3-1.2,2-3.1,2.2-4.9c0.3-1.9,0.2-3.8,0.1-5.7l-0.5-5.8c-0.1-1-0.1-2,0-3c0-0.5,0.1-1,0.3-1.5
				c0.1-0.5,0.5-1,0.9-1.4c5.9-5,11.5-10.2,16.6-16c2.5-2.9,4.9-5.9,6.9-9.2c2.1-3.2,3.8-6.7,4.9-10.3c1.1-3.6,1.4-7.5,0.5-11.2
				c-0.9-3.6-2.9-7-5.7-9.7c-2.7-2.7-5.9-4.8-9.2-6.8c-3.3-1.9-6.8-3.5-10.5-4.6c-0.9-0.3-1.8-0.5-2.8-0.7c-0.9-0.2-1.9-0.3-2.8-0.5
				c-1.9-0.2-3.8-0.3-5.7-0.1c-3.8,0.3-7.4,1.7-10.7,3.6c-3.2,2-6.1,4.6-8.6,7.5c-2.5,2.9-4.8,6-7,9.2c-2.1,3.2-4.1,6.5-6.1,9.8
				c-1,1.7-2,3.3-3,5c-0.5,0.8-1,1.7-1.6,2.4c-0.6,0.8-1.2,1.6-1.8,2.3c-2.6,2.9-5.8,5.4-9.5,6.8c-3.7,1.4-7.8,1.8-11.6,1.1
				c-3.9-0.7-7.6-2.3-10.7-4.7c-3.1-2.3-5.8-5.4-7.4-9.1c-1.5-3.6-2.1-7.6-2-11.5c0.1-3.9,0.7-7.8,1.5-11.6c1.6-7.6,3.8-15,5.7-22.5
				c0.5-1.9,0.9-3.7,1.3-5.6c0.4-1.9,0.8-3.8,1-5.7c0.5-3.8,0.7-7.7,0.5-11.5c-0.2-3.8-0.7-7.7-1.6-11.4c-0.9-3.7-2.3-7.3-4.1-10.7
				c-1-1.6-2-3.2-3.2-4.7c-1.2-1.4-2.6-2.8-4.1-3.9c-1.5-1.1-3.2-2-5-2.7c-1.8-0.7-3.6-1.1-5.5-1.3c-0.9,0-1.9-0.1-2.8-0.1
				c-0.5,0-1,0-1.4,0.1l-1.4,0.2c-0.5,0.1-0.9,0.1-1.4,0.2l-1.4,0.3c-0.9,0.2-1.8,0.5-2.8,0.7c-0.9,0.2-1.8,0.7-2.7,1
				c-0.9,0.4-1.7,0.9-2.5,1.4c-1.6,1.1-3.1,2.2-4.4,3.6c-2.6,2.7-4.5,6.2-5.8,9.8c-1.3,3.6-2,7.4-2.4,11.2
				c-0.7,7.7,0.1,15.4,1.9,22.9c0.9,3.7,2.1,7.4,3.7,10.9c0.8,1.8,1.3,3.7,1.7,5.6c0.4,1.9,0.7,3.9,0.6,5.8c0,2-0.2,3.9-0.7,5.8
				c-0.5,1.9-1.2,3.7-2.2,5.4c-0.9,1.7-2.1,3.3-3.5,4.7c-1.3,1.4-2.9,2.7-4.5,3.7c-3.3,2.2-6.9,3.6-10.7,4.6
				c-3.8,1-7.6,1.5-11.5,1.6c-3.9,0.1-7.8,0-11.6-0.4c-3.9-0.5-7.7-1.5-11.2-3.2c-3.5-1.7-6.7-4-9.4-6.8c-2.8-2.7-5.2-5.8-7.4-9
				c-4.3-6.4-7.8-13.4-11.5-20.1c-3.7-6.7-7.7-13.5-13-19c-2.7-2.8-5.7-5.2-9.1-7c-3.4-1.8-7-3.3-10.7-4.2c-3.7-1-7.6-1.5-11.4-1.3
				c-3.8,0.1-7.7,0.8-11.3,2.1c-7.2,2.6-13.5,7.8-17.2,14.5c-1.9,3.4-3.1,7-3.6,10.8c-0.3,1.9-0.3,3.8-0.3,5.7
				c0.1,1.9,0.6,3.8,1.4,5.5c1.6,3.5,4.2,6.4,7,9.1c2.8,2.7,5.9,5,9,7.2c6.3,4.4,13,8.3,19.8,12c6.8,3.7,13.6,7.3,20.4,10.9
				c3.4,1.8,6.8,3.7,10.1,5.7c3.3,2,6.6,4,9.6,6.5c1.5,1.2,2.9,2.6,4.1,4.1c1.1,1.6,1.9,3.4,2.8,5.1c1.7,3.5,3,7.1,4.1,10.9
				c1,3.7,1.7,7.6,1.9,11.4c0.1,1,0,1.9,0,2.9c-0.1,1-0.1,1.9-0.2,2.9c-0.2,1.9-0.6,3.8-1.2,5.7c-0.6,1.9-1.5,3.6-2.5,5.2
				c-1.1,1.6-2.4,3.1-3.9,4.3c-3,2.5-6.6,4.1-10.3,5.1c-3.7,1-7.6,1.5-11.5,1.3l-2.9-0.2c-1-0.1-1.9-0.3-2.9-0.5l-1.4-0.3
				c-0.5-0.1-0.9-0.2-1.4-0.4l-2.8-0.8c-7.4-2.3-14.4-5.6-21.3-9c-6.9-3.4-13.8-7-20.7-10.5c-6.9-3.5-13.8-6.9-20.8-10.1
				c-1.7-0.8-3.5-1.6-5.3-2.4c-1.8-0.8-3.5-1.6-5.3-2.3c-3.5-1.5-7.2-2.7-10.9-3.7c-3.7-1-7.6-1.5-11.4-1.7
				c-3.8-0.1-7.7,0.3-11.4,1.4c-7.4,2-13.7,7.4-17.3,14.1c-3.6,6.8-5,14.6-4.5,22.3c0.1,1.9,0.3,3.8,0.6,5.7
				c0.2,0.9,0.3,1.9,0.6,2.8c0.1,0.5,0.2,0.9,0.4,1.4l0.5,1.4c0.1,0.5,0.3,0.9,0.5,1.3c0.2,0.4,0.4,0.9,0.6,1.3
				c0.5,0.8,0.9,1.7,1.5,2.4c1.1,1.6,2.4,3,3.8,4.2c2.9,2.5,6.3,4.4,9.8,5.8c3.6,1.4,7.3,2.5,11,3.3c7.5,1.6,15.2,2.3,22.9,2.8
				c3.9,0.2,7.7,0.4,11.6,0.5l5.8,0.2c1.9,0.1,3.9,0.1,5.8,0.3c1.9,0.2,3.9,0.6,5.7,1.4c1.8,0.8,3.4,2.3,4.1,4.2
				c0.8,1.9,0.9,3.9,0.8,5.8c-0.1,2-0.5,3.9-0.9,5.8c-0.4,1.9-0.8,3.8-1,5.7c-0.1,0.9-0.2,1.9-0.1,2.8c0,0.9,0.3,1.8,0.7,2.6
				c0.2,0.4,0.6,0.7,0.9,1c0.4,0.2,0.7,0.5,1.2,0.6c0.2,0.1,0.4,0.2,0.7,0.2l0.7,0.1c0.4,0.1,0.9,0.1,1.4,0.2
				c1.9,0.1,3.7-0.7,4.8-2.1c0.6-0.7,1-1.5,1.4-2.4c0.4-0.8,0.4-1.8,0.4-2.7c0-1.9-0.2-3.8-0.5-5.7l-0.8-5.7c-0.1-1-0.3-1.9-0.4-2.9
				c-0.1-1-0.3-1.9,0-3c0.2-1,0.9-2,1.9-2.4c1-0.4,2-0.5,3-0.4c1,0.1,2,0.2,2.9,0.4l2.8,0.6c3.8,0.7,7.5,1.8,11.2,3
				c3.7,1.2,7.2,2.8,10.6,4.9c3.3,2,6.3,4.6,8.7,7.7c2.4,3.1,4,6.8,5,10.5l0.2,0.7l0.1,0.7l0.3,1.4c0.1,0.5,0.2,1,0.3,1.4l0.2,1.5
				c0.2,1.9,0.3,3.9,0.3,5.8c-0.3,7.8-3.3,15.4-8.2,21.5c-4.8,6.1-11.3,10.9-18.3,14.1c-7.1,3.3-14.7,5.1-22.5,5.8
				c-1.9,0.2-3.9,0.2-5.8,0.4c-0.5,0-0.9,0.1-1.4,0.2l-1.4,0.3c-0.9,0.2-1.8,0.5-2.7,0.8c-3.6,1.2-6.8,3.4-9.4,6.1
				c-2.6,2.8-4.5,6.2-5.6,9.8c-1,3.6-1.3,7.5-0.4,11.2c0.8,3.7,2.8,7.1,5.6,9.6c2.9,2.4,6.5,3.9,10.2,4.5c3.8,0.6,7.6,0.4,11.4-0.2
				c3.7-0.7,7.3-2.2,10.7-3.9c6.8-3.5,13.1-8.1,19.5-12.3c3.2-2.1,6.5-4.2,10-5.9c1.8-0.8,3.6-1.6,5.5-2c1.9-0.4,4-0.4,5.9,0.2
				c1.9,0.6,3.6,2,4.8,3.5c1.2,1.6,2,3.4,2.7,5.3c1.2,3.7,1.7,7.6,1.9,11.5c0.3,7.8-0.7,15.5-2.4,23.1c-1.7,7.5-4.2,14.9-7.6,21.9
				c-0.9,1.7-1.7,3.5-2.7,5.2c-0.9,1.7-2,3.3-3,5c-1.9,3.3-3.2,7-3.8,10.7c-0.5,3.8-0.4,7.7,0.8,11.3c1.2,3.6,3.3,6.9,6.3,9.3
				c1.5,1.2,3.1,2.2,4.8,3c1.7,0.8,3.5,1.4,5.4,1.8c3.7,0.8,7.6,0.9,11.4,0.6c3.8-0.3,7.7-1,10.9-3.1c1.6-1.1,2.8-2.5,3.6-4.2
				c0.8-1.7,1.2-3.6,1.3-5.5c0.2-3.8-0.4-7.7-1-11.4c-0.7-3.8-1.5-7.6-2.3-11.3c-1.6-7.6-3-15.2-3.5-22.9c-0.3-3.9-0.4-7.7-0.2-11.6
				l0.4-11.6c0.1-3.9,0.2-7.7,0.4-11.6c0.2-3.9,0.4-7.7,1-11.6c0.3-1.9,0.8-3.8,1.6-5.6c0.4-0.9,0.9-1.8,1.6-2.5
				c0.7-0.7,1.6-1.3,2.5-1.6c1.9-0.6,4.1-0.2,5.7,1c1.6,1.1,2.9,2.7,3.9,4.4c2,3.4,3.1,7.1,3.9,10.9c0.7,3.8,0.9,7.7,0.8,11.6
				c0,7.8-4,15.1-2.8,22.8c0.5,3.8,2.3,7.5,5.6,9.6c1.6,1.1,3.4,1.7,5.3,2.1c1.9,0.3,3.8,0.3,5.7,0.1c1.9-0.3,3.8-0.8,5.5-1.5
				c1.8-0.8,3.4-1.8,4.7-3.1c2.7-2.7,4.6-6.2,5.7-9.9c1.1-3.7,1.7-7.6,0.8-11.4c-0.6-3.8-1.3-7.6-2-11.4c-0.7-3.8-1.4-7.6-1.8-11.5
				c-0.1-1.9-0.2-3.9,0-5.8c0.2-1.9,0.7-3.9,1.9-5.5c1.2-1.6,3.1-2.5,4.9-2.9c1-0.2,2-0.2,2.9,0.2c0.9,0.4,1.7,1.1,2.3,1.7
				c1.3,1.4,2.3,3.1,3.1,4.9c0.8,1.8,1.5,3.6,2.1,5.4c2.3,7.4,3.5,15.1,4.4,22.7c0.8,7.7,1.1,15.4,1.1,23.1c0,7.7-0.5,15.5-1.8,23.1
				C282.8,420.4,279.6,427.6,276.7,434.7z"/>
			<path class="st2" d="M276.7,434.7c2.8-7,5.9-13.8,7.2-21.4c1.4-7.9,1.9-15.9,1.9-23.9c0.1-32.5-6.7-59.7-15.6-57.8
				c-5.2,1.1-7.6,4.6-7,13.3c0.4,6.4,2.9,16.5,4.2,25.6c0.8,5.6-2.2,18.7-11.5,22.6c-12.3,5.2-27.3-0.6-21.4-22.4
				c5.2-19.1-2.1-40.1-11.5-38.6c-8.2,1.3-7.1,17.3-8.1,44.5c-1.4,38.6,21.5,67.2-7.8,70.2c-29.3,3-36.8-21-25.5-38.6
				c17.9-28,20.7-75.5,1.8-74c-12.9,1-31.7,22.6-49.6,24.8c-36.7,4.5-32.8-42.4-2.3-43.6c32.9-1.3,53.8-22.2,52.2-45.1
				c-1.3-19.7-13.6-29.2-38.6-33.9c-1.4-0.3-8.6-2.4-8.2,3.5c0.4,5.8,2.6,15.6,1.4,18.5c-2.3,5.5-6.2,4.9-7.6,4.8
				c-14.8-1.5,10.8-29.5-15.3-30.5c-31.7-1.1-67.7-1.5-72.7-26.2c-5.9-29,12.9-58.7,56.6-39.5s67.6,37.6,87.5,35.7
				c35.2-3.4,25.8-38.4,16.8-53.8s-81.3-37.6-82-62c-0.8-24.8,25.8-42.5,53.9-28.2s27.3,62.8,64.1,65.8c36.7,3,48.7-17.8,39.8-37.6
				c-7.7-17.3-11.6-59.3,19.9-61.7c23.7-1.8,32,28.6,27,51.5c-5.1,22.9-12.1,38.4-6.6,51.5c5.5,13.2,28.9,22.9,42.2,0.8
				s27-48.5,60.5-27.1c28.2,18,2.6,45.3-17.1,62.1c-3.7,3.2,5.2,21.9-6.7,24c-11.4,2-12.4-7.1-13.7-6.4
				c-16.2,9.4-16.1,24.6-5.1,34.6c12.9,11.7,18.8,12,44.1-3c25.4-15,50,3.8,48,34.6c-2,30.8-41.4,10.2-52.3,22.2
				s19.5,16.5,25.4,37.6c5.9,21.1-10.5,32-25.4,27.1c-14.8-4.9-10.2-26.3-21.9-30.8s-18.8,3-16.8,14.3c2,11.3,7.8,45.1,19.1,63.6
				c11.3,18.4,16.8,45.5-9.4,48.5c-26.2,3-33.2-14.7-27.7-29.7c5.5-15,10.9-62.8-4.3-79.3c-15.2-16.5-44.5-3-49.2,12.4
				s6.6,70.8,16.8,99.4c10.2,28.6-5.9,56.4-31.3,51.5c-7.2-1.4-14.3-4.5-18.7-10.5c-7.4-10.1-5.4-24.5-1.2-35.5
				C275.7,437.1,276.2,435.9,276.7,434.7z"/>
		</g>
		<path class="st4" d="M299.2,484.6c-43.1-2.4-7.7-38.8-12.9-95.9c-1.5-24.9,4.2-58.3-16.6-62.8c-36.9,8,12.9,67.2-23.2,67
			c-15-0.1-10.2-15.6-9-31.3c1-12.7-1.4-25.5-10-30.4c-8.5-4.8-17,3-16.2,30.7c-4.5,23.8,11.5,59.1,1.9,76.3
			c-5.1,9.1-25.9,3.5-29.4-4.8c-3.4-5.9-2.7-14.4,1.9-21.6c24.7-34.6,21.9-107.2-29.8-66.6c-39,34.2-67.5-20.8-28.9-27.1
			c12-1.9,36.1-8.6,46.9-20.2c3.9-4.2,20.9-39.6-7-55.3c-33.4-18.8-124.2,2.9-127-41.4c-1.7-27.1,16.8-36.9,31.8-36.7
			c33.2,0.6,85.8,43.9,110.4,42.7c41.2,0.3,39.8-42.9,25.8-60.9c-11.5-14.8-79.9-39.3-81.2-59.2c-1.2-22.4,25.9-37.5,44.9-26.3
			c15,8.8,13.6,12.2,34.9,48.8c4.5,7.7,19.8,20.6,31.2,21.4c84.8,0.8,26.3-56.6,46.8-94.3c7-9.9,26-8.6,31-1.2
			c8.7,9.1,7.2,40.3,2.5,55.3c-19.2,38.5,12.9,82.8,43.8,43.6c8.6-14.3,23.6-39.3,41.8-35.8c43,8.2,23.7,41.9-2,60.1
			c-2.8,2,3.2,21.4-4.7,23.2c-11.3,2.5-10-14.1-12.6-11.8c-23.7,20.2-21.6,56.9,10.8,61.3c10.9,2.1,30.7-16.2,45.5-16.8
			c22.8-2,38.9,48.6,5.9,45.8c-13.3-0.8-36.9-1.7-36.7,16.2c2.5,14,24.5,18.3,27.9,33.1c4.3,12.4-4.4,23.8-17.2,19.7
			c-11-4.6-7.3-26.4-21.6-30.7c-14.9-6.6-29,5.4-25.4,21c2,11.4,8,46.3,19.9,65.7c7.8,12.6,10.6,25.8,7,32.8
			c-9.8,14.2-42.3,5.8-32.6-15.1c5-13.7,12.8-65.5-5.5-85.4c-16.6-19.5-53.9-6.2-60.1,14.7c-5.3,17.3,10.7,71.1,21.1,100.2
			C329.2,451.2,321.8,482.2,299.2,484.6z"/>
		<g>
			<path class="st5" d="M191.1,415c-6.6,9.6-2.3,21.7,9.8,20.5c22.1-5.9,3.7-33.2,3-48.6C201.2,395,195.2,408.7,191.1,415z"/>
			<path class="st5" d="M373.8,405c-3.4,8.5,1.5,14.4,10.1,13.8c27.3,0.5,0.4-32.6-4.1-47.7C378.9,385.4,376.3,398.2,373.8,405z"/>
			<path class="st5" d="M458.2,247.5c0.2-13.3-3.1-25.5-17.5-26.9c-3.5,0-7.3,1.2-11.2,3.5c-14.3,8.5-24.5,13.4-34.3,13.4
				c-19.3-1.3-35.3-16.8-35-34.5c-1-38.7,92.5-68.5,49.5-98.8c-20.7-7.6-28.3,16.2-38,31.4c-19.3,30.2-52.7,22.2-65-2.3
				c-7.6-17.9,8.6-36.8,12.7-56.4c3.2-20-1.8-47-23.8-42.5c-17.6,2.8-11.8,36.7-7.3,50.4c5,13.6,3.7,29.2-3.7,39.3
				c-5.7,7.7-17.8,6.9-33.5,6.9c-27.9-1-42.5-8.3-55.7-38.6c-9.4-15.6-23.8-29.8-40.7-30.6c-12-0.2-22.2,13.7-21.7,25.2
				c9.9,20.3,71.7,38.6,80.4,56.4c33.1,63.6-22.1,87.6-83.3,47.9c-15-6.7-39-22.4-57.8-23.2c-17.1-1.1-26.4,15.6-22.9,32.6
				c18.2,46.1,146,2.7,145.5,69.3c3.7,34.5-31.4,51.8-65.1,51.9c-8.8,0.3-17.3,7.4-14.1,16.9c17.2,35.7,67.8-53.3,88.7,4.1
				c3.2-19.9,18.4-32,34.4-14.3c8.3,10.4,6.6,28.6,2,45.1c-3.6,20.5,19.9,13.4,15.6-1.3c-0.5-3.6-3.6-23.7-3.9-28.1
				c-0.7-21.3,6.9-23.4,17-24.5c8.8,0.3,14.5,5.7,18.3,13.2c3,6,4.5,12.7,4.5,19.3c0.1,18.2,0.3,41,0.3,42.4
				c-0.1,36.3-10.5,40.5-10.9,41.9c-5.6,18.9-4.1,34.2,17.7,36.6c16.3-1.5,25.9-23.8,21-38.1c-4.7-13.3-18.5-47.9-25.1-85.1
				c-0.6-3.3-0.8-6.6-0.6-9.8c0.2-4,0.7-7.2,1.4-9.6c7.3-25.4,50.8-40.1,70.7-17.3c0.2-17,18.6-27.4,34.5-20.3
				c20.1,5.9,13.9,40.8,29.5,28.8c1.8-2.2,2.1-6,0.8-10.6c-6.7-17.2-42.3-24.7-22.7-48.8C420.8,245.8,460.1,262.3,458.2,247.5z"/>
		</g>
		<path class="st6" d="M305.3,151.5c0,0,27.3,21.8,45.3,11.3s33.6-26.3,42.2-23.3c8.6,3-53.1,49.6-43.8,79.7s33.6,27.1,48.4,22.6
			c14.8-4.5,45.1-16,51.6-8c20.3,25.1-37.5,14.5-53.1,30.6c-10.1,10.4-15.7,30.6-32,30.8c-61.7,0.8-60.9,34.6-68.8,44.4
			c-4.8,6-2.5-23.7-18.3-32.7c-9.7-5.6-41.8,24.7-40.8-7.6c0.6-20.5-62.5,9.5-76.9,29.8c-24.6,34.7-58.4,13-39-2.7
			c8.9-7.2,19.8,6.5,52.6-13.8c12.9-8,20.1-7.4,29.3-17.3c13.1-14.1,10.3-44.7-14.1-61.7c-20-14-103.5-9.4-122.3-22.2
			c-18.8-12.8-15.6-28.2-5.5-24.4s-1.2,24.8,37.1,30.1c38.3,5.3,83.6,4.5,102.3,3.8c18.8-0.8,32.8-18.1,32.8-37.6
			s-7.8-46.6-33.6-57.9S140.6,95.7,143,84.4c2.2-10.5,4.5-9.9,23.3,4.4s46.9,43.1,71.1,46.9s58.6-4.5,58.6-36.9s-15.9-59.4,2.9-59.4
			c18.8,0,19,15,12,41.4S286.6,129.7,305.3,151.5z"/>
		<path class="st6" d="M302.9,419.8c0,0,13.3,33.8,8.7,41.5c-4.6,7.6-23.5,12.7-24.8-1.1c-1.2-13.8,12.2-41.1,10.7-64.1
			C296,373.1,300.9,392.7,302.9,419.8z"/>
		<path class="st7" d="M374.9,358.7c0,0-1.6,21.4-3.9,30.1s-9.2,21.1-3.5,27.8c2.7,3.2,5.1,7.9,10.9,7.9s6.6,2.6,5.9,0
			s-6.8-1.4-9.9-4.8c-3.1-3.4-5.3-4.3-3-11.4s1.6-19.6,2.7-23.7C375.3,380.5,377.2,362.1,374.9,358.7z"/>
		<path class="st7" d="M285.5,419c0.3,0.4-2.1,4.8-2.4,5.4c-0.8,2-1.6,4-2.4,6c-1.5,4-2.8,8.2-3.8,12.3c-1,4.2-1.8,8.5-2.1,12.8
			c-0.4,4-0.8,8.1,1.1,11.8c1.4,2.8,3.8,4.9,6.6,6.3c2.2,1.1,4.7,1.4,7.1,1.6c1.4,0.1,6.9,1.1,4.1-1.7c-1.7-1.7-4.5-1.5-6.5-2.7
			c-2.3-1.3-4.3-3.4-5.4-5.9c-1.1-2.6-0.6-4.8-0.3-7.4c0.3-3.1,0.7-6.2,1.1-9.3c0.7-5.3,1.4-10.5,2.4-15.8
			C285.7,428,288.4,423.1,285.5,419z"/>
		<path class="st7" d="M187.7,399.7c0,0-6.7,10.4-9.8,17.3c-3.1,6.9-1.4,15.2,1.7,17.9c3.1,2.7,4.2,9,11.9,9c7.7,0,8.7,2.1,7.7,0
			s-6.7-0.9-10.7-3.6s-6.8-6.3-3.7-12c3.1-5.7-0.4-13,1.1-16.3C187.4,408.7,190.8,402.4,187.7,399.7z"/>
		<path class="st7" d="M49.9,214.5c-5.7-7.4-7.6-17.7-5.8-26.6c1.5-7.3,1.9-7.8,7.7-12.8c-2,5.6-1.6,4.9-2.7,10.8
			c-1.5,7.9,0.5,17.9,4.3,25.1c2.2,4.2,5.6,8,9.9,10.2c6.3,3.2,14.1,3,20.1,6.6c-11.3-1.2-24.2-3.2-32.2-11.8
			C50.8,215.5,50.3,215,49.9,214.5z"/>
		<path class="st8" d="M63.6,170.1c0,0,15.1-10,55.7,11s46.9,29.1,65.1,29.1s-2.1,14.5-24,2.5c-21.9-12-88-42.6-96.4-35.1
			C55.8,185.1,53.8,174.6,63.6,170.1z"/>
		<path class="st4" d="M122.2,232.5c0,0,0.1,0.1,0.3,0.1c1.3,0.7,6.4,3.4,6.5,8.2c0.1,5.5-2.3,14.8-2.4,18c-0.1,3.2,5.3,3.2,6.8,2
			c1.5-1.1,2.6-4.5,1.3-11.5c-1.3-7-2.1-13.7,1.3-14.7c3.5-0.9,3.7-0.9,3.7-0.9S127.4,229.9,122.2,232.5z"/>
		<path class="st7" d="M130.9,249.5c0,0,1.2,9.2-2,9.8c-3.2,0.6-0.6-9.6,0.1-11.7C129.7,245.6,130.9,249.5,130.9,249.5z"/>
		<path class="st7" d="M137.5,59.9c0,0-22,17.6-9.8,33.8s24.3,21.1,27,21.1c2.7,0-24.1-16.9-25.4-25.7s1.3-19.9,7.8-24.1
			S139.5,58.2,137.5,59.9z"/>
		<path class="st7" d="M143.6,314.3c0,0-15.8-1.4-24.1,4.9c-7.5,5.7-12.4,15.5-11.3,24.7c0.6,5.6,4.3,11.1,9.1,14.1
			c4,2.5,9.2,3.3,13.6,1.4c0.2-0.1,0.5-0.2,0.7-0.3c-3.9-3.3-9.6-4-13.5-7.2c-7.6-6.2-6.2-21.6,0.7-27.9c4.9-4.4,10.6-8.2,17.2-8.2
			C137.5,315.9,143.6,314.3,143.6,314.3z"/>
		<path class="st7" d="M238.7,358.3c0,0-9.4,27.2,2.7,32.4c12.1,5.3,17.3-1.8,18.8-3.5c1.4-1.7-1.3-2.4-8.5-0.5
			c-7.2,1.9-11.7-2.1-12.7-8.1S243.7,361.1,238.7,358.3z"/>
		<path class="st7" d="M418.7,103.8c0,0,31.9,13.4-1.1,46.5C401.9,163,401.9,163,401.9,163s1.7,14.9,0.3,18.2
			c-1.4,3.3-7.7,2.5-9.4,0.8c-1.7-1.7-2-4,2.2-7.1c4.2-3,4.5-11,4.2-12.4c-0.3-1.3,11.1-9,19.8-19.1
			C427.6,133.6,435,120.9,418.7,103.8z"/>
	</g>
</g>
</svg>
