<?xml version="1.0" encoding="utf-8"?>
<!-- Generator: Adobe Illustrator 25.4.1, SVG Export Plug-In . SVG Version: 6.00 Build 0)  -->
<svg version="1.1" xmlns="http://www.w3.org/2000/svg" xmlns:xlink="http://www.w3.org/1999/xlink" x="0px" y="0px"
	 viewBox="0 0 512 512" style="enable-background:new 0 0 512 512;" xml:space="preserve">
<style type="text/css">
	.st0{fill:#FFFFFF;stroke:#D2D2D2;stroke-miterlimit:10;}
	.st1{clip-path:url(#SVGID_00000005234762878299913370000009384146117473259163_);fill:#666D78;}
	.st2{fill:#090909;}
	.st3{fill:#666D78;}
	.st4{fill:#FFFFFF;}
	.st5{fill:#CDCDCD;}
	.st6{fill:url(#SVGID_00000021118029246290358020000004385709902941452435_);}
	.st7{fill:#868C94;}
	.st8{fill:#5CD9D8;}
	.st9{opacity:0.2;fill:#D4D3BF;}
	.st10{opacity:0.3;fill:#D4D3BF;}
	.st11{fill:#5CB0B3;}
	.st12{fill:#42004D;}
	.st13{fill:#77006D;}
	.st14{fill:#922992;}
</style>
<g id="Layer_1">
</g>
<g id="safe">
	<path class="st0" d="M456.7,286.8c-1.8-0.3-3.7-0.4-5.5-0.4c-16.3,0-31.4,9.8-40.9,22.4c0.7-17.6-10.6-30.8-28.7-33.4l-2.4-0.5
		l-0.2,0c-0.5-0.8-1-1.5-1.4-2.3c0-0.5-0.1-1.1-0.1-1.7c-0.1-2.1-0.3-4.5-0.5-7.6c-1-10.8,3-32.5,7.3-55c2.5-10.1,6.1-25.2,8.1-40.8
		l0.7-3.6c3.4-24.6,0.2-45.5-9.3-61.7c-9-17-22.6-28.5-39-33.2c-6.5-18.8-21.1-37.5-44.9-38.4c-1.6-0.1-3.2-0.2-4.8-0.2
		c-9.9,0-19.7,2.8-27.7,7.9c-4,2.3-7.4,4.9-10.3,8c-2.8,2.7-4.3,5.7-4.3,5.7c-5.7,9.3-6.4,20.7-1.7,29.3c0.3,0.6,0.7,1.2,1,1.7
		c-8.9,7.5-16.9,18.4-23.8,35.6c-2.2,5.4-8,20.1-1.3,70.6c-8.6-7.2-19.1-13.7-25.7-13.7c-3.8,0-7.4,1.4-10.1,3.9l-0.3,0.3
		c-3,3-4.5,7.1-4.2,11.3l0,0c0.4,5,0.8,9.4,23.5,25.4c-0.5,0-1,0-1.6,0c-43.3,0-46.1,11.9-47.2,16.3l-1.4,7l3.1,3.9
		c-0.7,0-1.4-0.1-2.1-0.1c-12.7,0-26.7,7.4-33.1,21.7c-17.2,2.4-25.2,17.3-29.3,29.9c-1.2-0.5-2.4-0.9-3.7-1.2
		c1.6-7.2,3.3-14.1,5-19.6c0.6-1.6,5.8-15.6-1.7-28.2c-3.5-5.9-10.9-13.2-26.3-15.2c-1.4-0.2-2.8-0.3-4.1-0.3
		c-9.6,0-16.1,4.4-20.1,7.7c-14.1,11.4-21.9,46.8-26,74.6c-9.2,62.9,1.3,97,31.2,101.3c1.7,0.3,3.4,0.4,5,0.4
		c4.3,0,9.6-0.9,15.2-3.7c6,9.5,14.2,15,24.3,16.5c1.6,0.2,3.2,0.3,4.8,0.3c7.8,0,15-2.6,21.7-7.9c5.7,6.1,13.1,9.4,19.8,10.3
		c1.6,0.2,3.2,0.3,4.8,0.3c5.2,0,10.2-1.1,14.9-3.2c4.9,5,11,8.2,17.9,9.2c1.6,0.2,3.1,0.3,4.6,0.3c7.1,0,16.2-2.4,24.5-11.8
		c5.8,3.9,12.5,6.5,19.9,7.6c2.7,0.4,5.3,0.6,7.7,0.6c8,0,18.2-2,28.1-9.4c7.6,10.3,18.3,16.7,31.4,18.6c2.7,0.4,5.3,0.6,7.7,0.6
		c6.9,0,15.3-1.4,23.7-6.5c9.2,22.1,26.4,28.3,37.5,29.9c2.1,0.3,4.1,0.4,6.1,0.4c10.2,0,19.6-3.6,27.7-10.5c0.6,1.3,1.3,2.5,2,3.7
		c5.2,8.2,13.6,13.5,23.5,14.9c1.8,0.3,3.5,0.4,5.2,0.4c18.1,0,33.3-14,36.2-33.3c1.2-8.3-0.1-16.5-3.7-23.5
		c0.5-1.7,0.9-3.5,1.2-5.2c0.5-3.1,0.5-6.3,0-9.5c24.6-17.4,32.2-37.7,34.3-51.7C503.9,320.2,484.9,290.9,456.7,286.8z M224.9,247.1
		l4.6-0.7c0.3,2.5,0.7,5,1.4,7.5c0.3,1.3,0.9,2.5,1.3,3.8c-2.6-2.1-6.1-3.5-10.6-3.5c-0.3,0-18.1,2-30.2,8.9
		c-1.5-3.2-3.2-6.1-5.5-8.7c-1.2-1.3-2.4-2.2-3.6-3.2C196.6,251.2,223.8,247.3,224.9,247.1z"/>
	<g>
		<defs>
			<path id="SVGID_1_" d="M399.6,332.6c0,0,0-3,0-9.1c0-6.1-9.2-18.3-24.4-29.7c-15.2-11.4-12.2-10.7-13.7-27.4
				c-1.5-16.8,5.3-47.2,16-102.1c9.9-71.6-45-80-45-80s-7.3-39.9-38.5-37C252.9,51,258.4,82,267.6,80.4c9.1-1.5,12.1-14.4,19.7-14.4
				c7.6,0-0.3,17-1,17c-18.3,6.1-33.3,12.6-45.5,43.1s12.6,133.4,12.6,133.4s6.1,15.2-2.3,21.3s-27,18.8-43,34L399.6,332.6z"/>
		</defs>
		<use xlink:href="#SVGID_1_"  style="overflow:visible;fill:#868C94;"/>
		<clipPath id="SVGID_00000147203428342302864520000017098499195422306485_">
			<use xlink:href="#SVGID_1_"  style="overflow:visible;"/>
		</clipPath>
		<path style="clip-path:url(#SVGID_00000147203428342302864520000017098499195422306485_);fill:#666D78;" d="M273.8,80.3
			c2.3-0.8,12.4,2.7,12.4,2.7s-35.3,19.4-39.8,56s-1.5,61.7,4.6,71.6s15.2,62.5,9.1,70.1c-6.1,7.6-54.9,32.8-54.9,32.8
			s-22.1-102.9-14.5-114.3c7.6-11.4,32-113.6,39.6-113.6S273.8,80.3,273.8,80.3z"/>
	</g>
	<path class="st2" d="M288.7,170c-4.5,16.7-17.8,27.6-29.8,24.4c-12-3.2-18.1-19.3-13.7-36c4.5-16.7,17.8-27.6,29.8-24.4
		C287.1,137.2,293.2,153.3,288.7,170z"/>
	<path class="st3" d="M287,177.7c3.8-14.2-2.7-28.3-14.5-31.5c-11.8-3.1-24.4,5.8-28.2,20.1c-3.8,14.2,2.7,28.3,14.5,31.5
		C270.6,200.9,283.2,191.9,287,177.7z"/>
	<g>
		<path class="st2" d="M288.7,170c-4.5,16.7-17.8,27.6-29.8,24.4c-12-3.2-18.1-19.3-13.7-36c4.5-16.7,17.8-27.6,29.8-24.4
			C287.1,137.2,293.2,153.3,288.7,170z"/>
	</g>
	<path class="st3" d="M347,180.6c1.8-14.6-6.6-27.7-18.7-29.2c-12.1-1.5-23.4,9.2-25.2,23.8c-1.8,14.6,6.6,27.7,18.7,29.2
		C334,205.8,345.2,195.2,347,180.6z"/>
	<path class="st2" d="M347.4,171.4c-1.8,14.6-12.6,25.3-24.1,23.9c-11.5-1.4-19.3-14.4-17.6-29c1.8-14.6,12.6-25.3,24.1-23.9
		C341.3,143.8,349.2,156.8,347.4,171.4z"/>
	<path class="st3" d="M332.7,248c0,0-0.6,20-6.9,29.7c-6.3,9.7-13.1,14.3-28,13.1c-14.9-1.1-34.3,6.9-41.7-9.1
		c-7.4-16-2.3-32.6-2.3-32.6s50.9-29.2,63.5-22.9C329.8,232.6,332.7,248,332.7,248z"/>
	<path d="M260.2,223.4c2.7-1.6,6-1.9,9.1-1.4c8.6,1.4,23.2,4,31.6,1.6c14-3.9,29.9-4.1,27.1,12.7c-1.8,10.8-4.1,33.2-15.6,41.4
		c-6.4,4.6-20.4-1.5-27.4-1.7C251.8,275.2,241.7,234.3,260.2,223.4z"/>
	<path class="st4" d="M292.9,234.9c0.1-1-5.5-1.6-10-0.3c-1.9,0.6,1,5.9,1.1,8.8c1.7,1,3.8,0.7,3.8,0.7c0.7,0,3.1-0.1,4.9-1.4
		C290.4,241.7,292.9,235.9,292.9,234.9z"/>
	<path class="st4" d="M270.7,229.6c1.6,0.2,3.9,0.2,6.4,0.1c-3.1-0.7-9-2.2-13.8-3.5c0,0-0.3,1.3-0.6,3.1c0-0.1,0.1-0.2,0.1-0.2
		C264.2,226.5,265.4,229,270.7,229.6z"/>
	<path class="st4" d="M276.1,233.4c0-2-9.6-4.5-13.9,2.4c0,0.1,0,0.2,0,0.3c0.1,4.2,7.5,6.2,7.5,6.2c0.9,0.2,4.6,1.3,7-0.4
		c-0.5-0.4-1-0.7-1.2-0.9C274.1,239.8,276.1,235.7,276.1,233.4z"/>
	<path class="st4" d="M299.6,235c0,0.6,0.1,1.1,0.1,1.6c0.1,4.2,2.7,5.9,2.7,5.9c3.9,2.1,9.4,1.9,12.6,0.1c-0.7-2.4-1.4-7.1-2.1-8.9
		C311.8,231,302.1,234.5,299.6,235z"/>
	<path class="st4" d="M298.3,226.9c0,0,0.1,0.6,0.3,1.6l6-0.8C302.5,227.6,300.3,227.4,298.3,226.9z"/>
	<path class="st4" d="M294.8,240.2l2.1-9.3c0,0-9.3,0.2-16.4,0c0,0,0.2,5.9,1.3,9.9c0.4,1.4,1.2,2.2,2.1,2.7c-0.1-2.9-3-8.2-1.1-8.8
		c4.5-1.4,10.1-0.8,10,0.3c-0.1,1-2.6,6.8-0.2,7.9C293.7,242.2,294.4,241.4,294.8,240.2z"/>
	<path class="st5" d="M294.8,240.2l2.1-9.3c0,0-9.3,0.2-16.4,0c0,0,0.2,5.9,1.3,9.9c0.4,1.4,1.2,2.2,2.1,2.7c-0.1-2.9-3-8.2-1.1-8.8
		c4.5-1.4,10.1-0.8,10,0.3c-0.1,1-2.6,6.8-0.2,7.9C293.7,242.2,294.4,241.4,294.8,240.2z"/>
	<path class="st4" d="M277.8,240.7l1.4-10.6c0,0-0.8-0.2-2.1-0.5c-2.5,0.1-4.7,0.1-6.4-0.1c-5.3-0.6-6.5-3.1-7.9-0.5
		c0,0.1-0.1,0.2-0.1,0.2c-0.3,1.9-0.6,4.4-0.6,6.5c4.3-7,13.9-4.4,13.9-2.4c0,2.3-1.9,6.4-0.6,7.6c0.2,0.2,0.7,0.5,1.2,0.9
		C277.1,241.6,277.5,241.2,277.8,240.7z"/>
	<path class="st5" d="M277.8,240.7l1.4-10.6c0,0-0.8-0.2-2.1-0.5c-2.5,0.1-4.7,0.1-6.4-0.1c-5.3-0.6-6.5-3.1-7.9-0.5
		c0,0.1-0.1,0.2-0.1,0.2c-0.3,1.9-0.6,4.4-0.6,6.5c4.3-7,13.9-4.4,13.9-2.4c0,2.3-1.9,6.4-0.6,7.6c0.2,0.2,0.7,0.5,1.2,0.9
		C277.1,241.6,277.5,241.2,277.8,240.7z"/>
	<path class="st4" d="M316.9,240.9l-1.8-14.1c0,0-5.1,1-10.5,0.9l-6,0.8c0.3,1.6,0.8,4.2,1,6.5c2.5-0.5,12.2-4,13.2-1.4
		c0.7,1.9,1.4,6.5,2.1,8.9C315.8,242.1,316.5,241.5,316.9,240.9z"/>
	<path class="st5" d="M316.9,240.9l-1.8-14.1c0,0-5.1,1-10.5,0.9l-6,0.8c0.3,1.6,0.8,4.2,1,6.5c2.5-0.5,12.2-4,13.2-1.4
		c0.7,1.9,1.4,6.5,2.1,8.9C315.8,242.1,316.5,241.5,316.9,240.9z"/>
	
		<linearGradient id="SVGID_00000012474712424968877700000017699113336643596985_" gradientUnits="userSpaceOnUse" x1="242.9718" y1="250.443" x2="336.3656" y2="250.443">
		<stop  offset="0" style="stop-color:#77006D"/>
		<stop  offset="1" style="stop-color:#9A399A"/>
	</linearGradient>
	<path style="fill:url(#SVGID_00000012474712424968877700000017699113336643596985_);" d="M305.8,287.5c-4.7,0-9.6-1.1-14-2.1
		c-2.7-0.6-5.6-1.3-7.1-1.3c-23.9-0.6-36.7-17.6-40.5-32c-3.9-14.9,0.9-29.2,11.8-35.7v0c4.1-2.4,9.1-3.3,14.5-2.4l2,0.3
		c7.5,1.2,20.1,3.2,26.2,1.5c14.6-4.1,25.3-3.1,31.8,2.7c3.4,3.1,7.1,8.9,5.4,19.1c-0.2,1.1-0.4,2.3-0.6,3.5
		c-2,12.6-5.2,33.8-18.3,43.1C313.8,286.7,309.8,287.5,305.8,287.5z M264.3,230.4L264.3,230.4c-5.4,3.2-6.1,11.2-4.4,17.7
		c2.3,9,10.3,19.6,25.2,19.9c3.1,0.1,6.6,0.9,10.3,1.7c3.4,0.8,10.5,2.4,12.4,1.5c7.4-5.3,10.1-22.9,11.6-32.3
		c0.2-1.4,0.4-2.6,0.6-3.7c0.4-2.5,0.2-4.1-0.3-4.5c-0.9-0.8-5.7-2.3-16.7,0.8c-9.5,2.6-23.1,0.5-33.1-1.1L268,230
		C266.5,229.7,265.1,229.9,264.3,230.4z"/>
	<g>
		<path class="st7" d="M448.7,412.5c0.7-5-0.6-9.5-2.2-13.2c1.8-1.3,4.1-2.9,7.1-4.9c21-14.7,27.4-31.3,29.1-42.8
			c3.5-24.1-10.5-46.6-30.5-49.5c-18.4-2.7-38,16.8-40.4,32.8c-1.9,12.9,7,26.4,16.5,27.8c0.1,0,0.2,0,0.3,0
			c-1.1-0.2-2.3-0.5-3.8,0.6c-6.4,4.6-10.7,8.5-13.9,13c-1.7-6.4-4.6-11.3-8.3-14.2c1.4-2.4,2.4-5.3,2.8-8.3
			c1.5-10.2-3.4-21.8-15.4-26c2.1-4.5,4.6-9.7,5.4-15.1c1.7-11.7-5-20.3-17.6-22.1l-0.8-0.1l-2.1,0.2c-11.5,0.3-17.6,9.5-21.7,18.7
			c-2.5-4.6-7.2-7.5-15.3-8.7c-7.9-1.1-13.1,0.3-16.9,4.4c-3.2-4.8-8.7-8.3-15.6-9.3c-6.5-0.9-12.6,0.5-16.9,4
			c-0.4,0.3-0.8,0.9-1.2,1.3c-2.3-5.7-7-9-15.9-10.3c-7.9-1.1-13.1,0.4-16.9,4.5c-3.2-4.8-8.7-8.2-15.6-9.2
			c-6.5-0.9-12.6,0.5-16.9,4.1c-3.9,3.3-7.5,9.6-10.6,17.3c-4.2-4.7-12.1-8.1-19.4-9.1c-4.3-0.6-12.1-0.9-12.2,0.2l1.1-7.6
			c3.9-26.7-11.9-31.1-16.8-31.8c-9.9-1.4-22.7,5-24.9,20.2c0,0.1,0.5,0.8,0.4,1.9c-1-0.4-1.7-0.6-2.7-0.7
			c-19.4-2.8-24.2,18.6-27.2,31.4l-1.2,5.2c-0.1,0.7-0.5,2.1-0.9,4.1c-4.1-6.6-10-12-17.9-13.1c-3.8-0.6-7.6-0.3-10.7,0.7
			c2.6-12.4,5.5-26.7,9.1-38c0,0,8.5-21.4-16.7-24.5c-5.5-0.7-9.4,0.9-13.6,4.4c-12.1,9.8-19.4,56.4-20.8,65.6
			c-5.4,36.9-6.4,81.6,19.3,85.3c10.2,1.5,17.7-4.7,23.3-13.1c3.3,13,9.2,24.5,20.9,26.2c11.9,1.7,21.4-7.7,29-21.7
			c-0.1,1.7-0.1,3-0.1,3.9c0.7,13.5,9.2,19.5,17,20.6c7.5,1.1,16.1-2.3,21.3-9.5c2.5,8,7.9,14.6,15.9,15.8c9.8,1.4,18-5.1,24.5-20.1
			c5.4,9.1,13.5,14.7,24.1,16.3c17.5,2.5,29.1-6.7,37-20c4.4,17.1,14.4,27.5,29.5,29.7c17.5,2.5,29.1-6.6,36.9-19.9
			c1.5,19.5,8.4,40.5,31.4,43.8c19.1,2.8,32.8-14,39.9-34.9c0.3,0.5,0.6,0.9,1,1.4c1.5,2.2,3.1,3.9,4.6,5.3
			c-1.6,2.6-2.8,5.9-3.4,10.3c-2,14.1,4.7,24.7,16.7,26.5c13.7,2,23.6-9.2,25.4-21.2c1.1-7.7-0.9-14.8-5.8-20.1
			C446.9,418.8,448.2,416,448.7,412.5z M174.2,361.1c0.1-0.9,0.2-1.8,0.4-2.7c0.4-3,0.9-5.5,1.5-7.5c-0.1,0.4-0.1,0.8-0.2,1.3
			C175.5,355,174.9,358,174.2,361.1z"/>
		<path class="st4" d="M63.6,258c2.4-2,5.3-2.7,8-2.3c5.7,0.8,10.3,6,9.3,12.7c-5.1,16-10.5,38.5-12.7,53.6
			c-1.2,8.4-1.5,14.4-0.2,16c0,0,5.5-23,20.8-20.8c15.9,2.3,20.1,37,20.1,37c1.3,0.2,8.6-34.3,8.8-35.6c3.1-12.6,5.6-30.9,18.2-29.1
			c3.4,0.5,10.4,5.2,8.8,16.3c-3.3,22.7-18.7,103.3-42.8,99.8c-14.3-2.1-16.2-36.2-17.7-49.3c-4.9,12.8-12.8,38.2-26.5,36.2
			c-16.4-2.4-16.7-39.9-11.6-75C50.3,289.5,57.8,262.7,63.6,258z"/>
		<path class="st4" d="M162.8,268.4c6.3,0.9,11.3,6.4,9.1,21.5l-1.5,10.1c-0.8,5.7-1.4,11.1-0.2,11.3c0,0,10.2-5.2,20.5-3.7
			c20.4,3,21.6,26.9,18,51.3c-1.7,11.7-8.9,58.3-23.8,56.1c-6.3-0.9-10.7-10.6-9.3-20c1.1-7.3,7.1-26.6,9.3-41.5
			c1.5-10.5,1-18.9-4.2-19.7c-9-1.3-13.2,9.6-15.2,23.3c-2.2,15.1-1.3,31.1-2.4,38.6c-1.3,9.2-9.1,13.9-15.4,13
			c-4.8-0.7-8.8-4.5-9.2-12c-0.2-10.3,10.4-112.9,10.8-115.6C150.8,271.8,156.9,267.5,162.8,268.4z"/>
		<path class="st4" d="M210.9,345.9c3.3-22.5,10.8-43.4,16.9-48.5c2.4-2,6.2-2.5,9.7-2c6.1,0.9,11.9,5,10.8,12.5
			c-0.5,3.1-1.8,6.8-4.6,12.6c-2.8,6-5.2,16.8-6.9,27.9c-2.5,17-2.8,34.1,0.3,34.5c4,0.6,8.9-15.6,14-44.7
			c6.3-35.9,8.1-39.7,18.8-38.2c12.4,1.8,11.7,6.6,6.8,40c-4.3,29.6-12.9,75.5-43.3,71C209.6,407.6,206.6,375.5,210.9,345.9z"/>
		<path class="st4" d="M277.4,355.6c3.3-22.5,10.8-43.4,16.9-48.5c2.4-2,6.2-2.5,9.7-2c6.1,0.9,11.9,5,10.8,12.5
			c-0.5,3.1-1.8,6.8-4.6,12.6c-2.8,6-5.2,16.8-6.9,27.9c-2.5,17-2.8,34.1,0.3,34.5c4,0.6,8.9-15.6,14-44.7
			c6.3-35.9,8.1-39.7,18.8-38.2c12.4,1.8,11.7,6.6,6.8,40c-4.3,29.6-12.9,75.5-43.3,71C276.1,417.3,273.1,385.2,277.4,355.6z"/>
		<path class="st4" d="M343.1,341.4c0.6-4.2,2.4-7.8,5.9-7.9c9.5-0.3,10.8-32.9,26.1-33.3l1.3,0c8.8,1.3,10.7,6.1,9.9,11.5
			c-1.1,7.5-7.4,16.9-8,21.3c-0.3,2.3,1.1,2.5,4.7,3c10.7,1.6,14.5,9.6,13.4,16.7c-0.9,6.1-5.5,11.2-12.8,10.1l-1-0.2
			c-4.2-2.1-6.6-3.3-8.1-3.5c-2.1-0.3-2.3,1.2-2.9,4.9c-0.9,5.9-6.1,50.5-0.2,51.4c2.5,0.4,5-8,7.7-25.2
			c2.4-16.4,8.8-23.3,14.4-22.5c6.5,0.9,11.8,12,9,30.7c-3.2,22.2-15.1,49-34.2,46.2c-25.8-3.8-25.2-38.8-22.8-63.7
			c1.9-20.3,2.1-24.5-0.3-27.7C343.2,350.8,342.5,345.8,343.1,341.4z"/>
		<path class="st4" d="M450.9,310.4c14.5,2.1,25.6,19.8,22.7,39.5c-1.8,12.6-9.5,25.8-25.3,36.8c-6.9,4.8-12.7,9.1-12.8,9.7
			c-0.1,0.8,0.9,2.9,1.8,5c2,4.1,2.6,7,2.2,9.7c-0.8,5.7-5.7,8.4-6,10.5c-0.2,1.3,1,2.1,3.7,4.2c4.4,3.4,5.6,9,4.8,14
			c-1.1,7.6-7.1,14.6-15,13.5c-8.6-1.3-10-9.6-9-16.1c1.2-8.4,4.7-10.2,10.9-14.3l-2.7-0.4c-3.1-0.5-6.6-1.6-10.9-7.6
			c-3.9-5.5-4.5-7.3-3.4-15.1c2.1-14.7,6.1-22.5,18.5-31.4c15.1-10.7,20.2-16.8,21-21.8c0.6-4.2-2.1-7.6-4.9-11.9
			c-4.1,5.8-9.5,15.1-16.2,14.1c-4.8-0.7-10.3-7.5-9.2-15.1C422.9,321.7,438.3,308.5,450.9,310.4z"/>
	</g>
	<path class="st8" d="M265.4,258.5c-0.3-0.5,15.3-5.7,20.9-4.6c5.6,1.2,5.6,2,5.6,2s7.3-1.3,12,2.3c4.7,3.6,3.7,12.8,3.3,13
		c-0.4,0.2-0.4,0.2-0.4,0.2s-7.6-0.3-12-1.7c-4.4-1.4-9.3-1.1-12.7-1.1S271.5,267.9,265.4,258.5z"/>
	<path class="st9" d="M384.5,294.9c-18.3-14.5-33.7-14.8-22.3-61.3c6.4-26.2,21.2-71.7,13.9-105c-4.6-21.2-19.9-43.1-45.3-45.3
		l1.3-0.3c0,0-6.5-28.6-25.9-34.3C278.5,40.6,264,61.9,264,61.9s12.1-12.8,34.6-9.8c19.9,2.7,26.3,25.6,27.6,31
		c-4.2,0-8.7,0.6-13.5,1.8c0,0,33.5,10.7,43.4,42.7c2.9,9.3-2.8,22.2-1.2,37.4c0.5,5.3,3.9,4.1-1.1,21.3c-3.8,13,2.4,26.7-4.4,39.8
		c-8.1,15.6-4.9,32.3-6.2,40.3c-3.8,23.6-8.8,41.5,0.4,49.2s32.8,15.6,36.6,14.9c3.8-0.8,15.6,0,15.6,0S402.8,309.4,384.5,294.9z"/>
	<path class="st10" d="M275.5,73c0-2.2-1.7-3.9-3.9-3.9c-2.2,0-6.9,2.6-5,6.9c0.9,2,1.9,1.9,4,1.9C272.8,77.8,275.5,75.2,275.5,73z"
		/>
	<path class="st4" d="M314.8,155.2c0,0-5,4.6-4.5,13.8c0.1,2.4,3.4,3.2,4.1,1c1.5-5.4,3.4-11.6,8.6-15.5c1.5-1.1,0.9-3.6-0.9-3.7
		C319.9,150.8,317,152.2,314.8,155.2z"/>
	<path class="st4" d="M319.1,180.1c0.2-1.8-1-3.4-2.8-3.6c-1.7-0.2-3.3,1-3.5,2.8c-0.2,1.8,1,3.4,2.8,3.6
		C317.3,183.1,318.9,181.8,319.1,180.1z"/>
	<path class="st4" d="M254.8,147.2c0,0-5.7,4.4-6.8,14.5c-0.3,2.7,2.9,4,3.9,1.6c2.4-5.7,5.3-12.2,11.1-15.8c1.7-1,1.5-3.8-0.3-4.1
		C260.6,143.1,257.5,144.2,254.8,147.2z"/>
	<path class="st4" d="M255,174.9c0.5-1.9-0.5-3.8-2.1-4.2c-1.7-0.5-3.5,0.7-4,2.6c-0.5,1.9,0.5,3.8,2.1,4.2
		C252.7,177.9,254.5,176.8,255,174.9z"/>
	<path class="st11" d="M291.2,255.3c0,0-13.7-8.5-20.1-2.5c-6.4,6-7.5,4.4-3.1,9.2s8.6,5.8,8.6,5.8s5.4-10.8,13.4-11.2
		c8-0.4,13.7,1.5,13.7,1.5S300.4,254.3,291.2,255.3z"/>
	<path class="st4" d="M277.2,274.3c0,0,6.1,1.6,15.9,1.7c2.6,0,2.7-0.9,0.1-1.2c-6.2-0.6-13.3-1.3-18.6-2.9
		c-1.5-0.5-4.1-0.4-3.7,0.2C271.3,272.7,273.5,273.6,277.2,274.3z"/>
	<path class="st4" d="M302.9,273.8c-1.9-0.1-3.4,0.2-3.2,0.7c0.2,0.5,1.9,1,3.8,1.1c1.9,0.1,3.4-0.2,3.2-0.7
		C306.6,274.4,304.9,273.9,302.9,273.8z"/>
	<path class="st7" d="M227.4,213.7c0,0-29.5-19.7-26.9-22.2S230.6,210,227.4,213.7z"/>
	<path class="st7" d="M222.6,235.4c0,0-48.6,7.1-47.5,2.4C176.2,233,223.4,229,222.6,235.4z"/>
	<path class="st7" d="M223.6,270.8c0,0-29.2,12.3-29.2,9.1C194.4,276.8,223.2,266.7,223.6,270.8z"/>
	<path class="st7" d="M216.7,236.6"/>
	<g>
		<g>
			<path class="st12" d="M294.1,47c1.3,0,2.6,0.1,3.9,0.2c25.6,0.6,33.3,31.4,34.4,36.3c17.5,2,30,13.6,37.4,27.6
				c6.9,11.9,11.1,28.8,7.7,53.1c-0.2,1.1-0.4,2.2-0.7,3.3c-1.6,13.6-4.6,27.1-7.7,39.5c-5.6,29-8.2,45.5-9.2,57.3
				c0,0.4-0.1,0.8-0.1,1.2c-0.3,5,0.3,10.2,2.3,14.9c1,2.3,2.3,4.4,4,6.3c1.2,1.4,3.7,4.1,5.6,4.5c0.1,0,0.2,0,0.3,0
				c0.3,0,0.5-0.1,0.8-0.1c1-0.2,2.1-0.3,3.1-0.3c5.3,0,10.7,2.5,14.1,6.6c2.9,3.5,3.2,8,3.6,12.3c0.4,5.2,0.8,10.3,1,15.5
				c0.1,1.4,0,2.7-0.1,4.1c0,0.4-0.6,2.8-0.2,3.1c6.3,5.5,12.4,13.9,11.3,21.5c-0.4,3-1.4,5.9-2.8,8.3c3.7,2.9,6.6,7.7,8.3,14.2
				c3.2-4.5,7.5-8.4,13.9-13c0.8-0.6,1.6-0.8,2.3-0.8c0.3,0,0.6,0,0.9,0.1c0.1,0,0.2,0,0.3,0c0.1,0,0.1,0,0.2,0c0,0,0.1,0,0.1,0
				c0,0-0.1,0-0.1,0c-0.1,0-0.3,0-0.4-0.1c-9.4-1.6-18.1-15-16.3-27.8c2.2-15,19.5-33.1,36.9-33.1c1.2,0,2.3,0.1,3.5,0.2
				c20,2.9,34,25.4,30.5,49.5c-1.7,11.5-8.1,28.1-29.1,42.8c-2.9,2-5.3,3.6-7.1,4.9c1.6,3.6,2.9,8.1,2.2,13.2
				c-0.5,3.5-1.9,6.3-3.3,8.5c4.8,5.3,6.9,12.5,5.8,20.1c-1.6,11-10.2,21.4-22.2,21.4c-1,0-2.1-0.1-3.1-0.2
				c-12.1-1.8-18.8-12.4-16.7-26.5c0.6-4.4,1.9-7.7,3.4-10.3c-1.5-1.4-3-3.2-4.6-5.3c-0.4-0.5-0.6-0.9-1-1.4
				c-6.6,19.4-18.9,35.2-35.8,35.2c-1.3,0-2.7-0.1-4.1-0.3c-23-3.3-29.8-24.3-31.4-43.8c-7,11.8-16.9,20.4-31.3,20.4
				c-1.8,0-3.7-0.1-5.7-0.4c-15.1-2.2-25.1-12.6-29.5-29.7c-7,11.8-16.9,20.4-31.3,20.4c-1.8,0-3.7-0.1-5.7-0.4
				c-10.6-1.5-18.7-7.2-24.1-16.3c-5.9,13.7-13.2,20.3-21.9,20.3c-0.9,0-1.7-0.1-2.6-0.2c-8-1.2-13.4-7.7-15.9-15.8
				c-4.6,6.3-11.7,9.7-18.5,9.7c-1,0-1.9-0.1-2.8-0.2c-7.7-1.1-16.3-7.1-17-20.6c0-0.8,0-2.2,0.1-3.9c-7,12.9-15.6,21.9-26.2,21.9
				c-0.9,0-1.8-0.1-2.8-0.2c-11.7-1.7-17.6-13.2-20.9-26.2c-5.1,7.6-11.6,13.3-20.3,13.3c-1,0-2-0.1-3-0.2
				c-25.7-3.7-24.7-48.5-19.3-85.3c1.3-9.2,8.7-55.8,20.8-65.6c3.6-3,6.9-4.6,11.2-4.6c0.8,0,1.6,0.1,2.4,0.2
				c25.1,3.1,16.7,24.5,16.7,24.5c-3.6,11.2-6.5,25.6-9.1,38c2-0.7,4.4-1,6.8-1c1.3,0,2.5,0.1,3.8,0.3c7.9,1.1,13.8,6.5,17.9,13.1
				c0.4-2,0.8-3.5,0.9-4.1l1.2-5.2c2.8-12,7.1-31.7,23.8-31.7c1.1,0,2.2,0.1,3.4,0.3c1,0.1,1.7,0.4,2.7,0.7c0.1-1.1-0.4-1.8-0.4-1.9
				c2-13.8,12.8-20.4,22.1-20.4c0.9,0,1.8,0.1,2.7,0.2c4.9,0.7,20.7,5.1,16.8,31.8l-1.1,7.6c0.1-0.6,2-0.8,4.4-0.8
				c2.5,0,5.6,0.2,7.8,0.5c7.3,1.1,15.1,4.5,19.4,9.1c3.1-7.7,6.6-14,10.6-17.3c3.5-2.8,8.1-4.3,13.1-4.3c1.2,0,2.5,0.1,3.8,0.3
				c1.2,0.2,2.2,0.5,3.3,0.8c3.5-2.5,6.5-4.7,8.8-6.3c1.6-1.1,2.7-2.2,3.3-3.8c-0.7-2.4-0.7-5.4-1-7.7c-4.4-5.3-7.4-11.3-8.9-16.9
				c-2.5-9.5-0.9-19.1,2.3-25.5c-6.2-32.8-13.7-81.5-6-100.8c12.2-30.5,27.2-37,45.5-43.1c0.8,0,8.7-17,1-17
				c-7.6,0-10.5,12.9-19.7,14.4c-0.2,0-0.5,0.1-0.7,0.1c-3.1,0-4.9-3.7-5.5-6.4c-1.9-9.4,4.7-16.5,11.9-21.1
				C278.5,49.8,285.5,47,294.1,47 M174.2,361.1c0.7-3.1,1.2-6.1,1.6-9c0.1-0.4,0.1-0.9,0.2-1.3c-0.5,2-1,4.5-1.5,7.5
				C174.5,359.3,174.3,360.2,174.2,361.1 M294.1,41.5L294.1,41.5c-8.4,0-16.4,2.3-23.6,6.9c-11.3,7.1-16.4,16.6-14.4,26.7
				c1,4.9,4.3,9.9,9.5,10.6c-11.5,6.6-21.5,17.1-30,38.2c-6.3,15.8-4.6,49.2,5.4,102.1c-3.5,8.4-4.2,18.5-1.9,27.6
				c1.6,6.2,4.7,12.2,8.9,17.7c0,0.3,0,0.5,0.1,0.8c0.1,1.1,0.2,2.4,0.4,3.6c-0.2,0.2-0.4,0.4-0.7,0.6c-1.2,0.9-2.6,1.8-4.1,2.9
				c-0.8,0.6-1.7,1.2-2.6,1.8c-0.5-0.1-1-0.2-1.5-0.3c-1.5-0.2-3.1-0.3-4.6-0.3c-6.3,0-12.2,2-16.5,5.6l0,0l0,0
				c-3.3,2.7-6.3,7-9.2,12.9c-4.7-2.9-10.5-5-16.5-5.9c-1.9-0.3-4.4-0.5-6.7-0.6l0.1-0.7c4.7-32.5-17-37.3-21.4-38
				c-1.1-0.2-2.3-0.3-3.5-0.3c-6.2,0-12.3,2.2-17.3,6.3c-4.7,3.8-7.9,9-9.5,15c-0.4,0-0.7,0-1.1,0c-20.3,0-25.8,21.9-28.8,34.6
				c-4.2-3.6-9-5.9-14.2-6.7c-1.5-0.2-3.1-0.3-4.6-0.3c2.1-10.2,4.5-21,7.3-29.8c0.6-1.7,4-11.9-1.2-20.6
				c-3.7-6.2-10.4-9.9-19.9-11.1c-1-0.1-2.1-0.2-3.1-0.2c-5.3,0-9.8,1.8-14.7,5.8c-6.1,5-11.5,16.7-16.3,35.9
				c-3.5,14.1-5.7,27.8-6.5,33.1c-3.4,23.1-4,42.1-2,56.6c1.3,9.4,3.9,17.1,7.5,22.7c4.5,6.9,10.7,11,18.4,12.1
				c1.3,0.2,2.5,0.3,3.8,0.3c6.6,0,12.7-2.6,18.2-7.7c4.9,12.2,12.4,19.1,22.2,20.5c1.2,0.2,2.4,0.3,3.6,0.3c8.3,0,16-4.2,23-12.6
				c3.9,9.5,12.2,14.1,19.3,15.2c1.2,0.2,2.4,0.3,3.6,0.3c6.1,0,11.9-2.1,16.8-5.7c4,6.5,9.9,10.7,16.8,11.7
				c1.1,0.2,2.3,0.2,3.4,0.2c9,0,16.6-5.2,22.8-15.6c5.9,6.2,13.5,10.2,22.4,11.5c2.2,0.3,4.4,0.5,6.5,0.5
				c11.6,0,21.6-4.8,29.7-14.2c6.1,13.4,16.5,21.4,30.4,23.4c2.2,0.3,4.4,0.5,6.5,0.5c10.7,0,20-4.1,27.8-12.2
				c5.8,25.8,21.2,33.7,34.1,35.6c1.6,0.2,3.3,0.4,4.9,0.4c12.5,0,23.7-7.2,32.2-20.4c-0.3,6.6,1.1,12.6,4.2,17.5
				c3.8,6.1,10,10,17.5,11.1c1.3,0.2,2.6,0.3,3.9,0.3c7.1,0,13.8-2.9,18.9-8.2c4.6-4.8,7.7-11.1,8.7-17.8c1.2-7.9-0.5-15.4-4.6-21.4
				c1.1-2.3,1.8-4.7,2.2-7.2c0.7-4.6,0-8.6-1.1-11.9c0.5-0.3,0.9-0.6,1.4-1c0.7-0.5,1.4-1,2.2-1.5c22.6-15.8,29.5-34,31.3-46.5
				c1.9-12.9-0.7-25.8-7.2-36.3c-6.7-10.8-16.6-17.6-27.9-19.3c-1.4-0.2-2.8-0.3-4.3-0.3c-9.5,0-19.4,4.4-27.8,12.4
				c-7.8,7.3-13.2,16.8-14.4,25.3c-0.2,1.3-0.3,2.5-0.3,3.8c-2.1-3.2-4.5-5.9-6.4-7.7c0-0.1,0-0.3,0.1-0.4c0.2-1.7,0.2-3.3,0.2-4.9
				c-0.2-5.3-0.6-10.5-1-15.7l0-0.4c-0.4-4.5-0.9-10.2-4.8-14.9c-4.4-5.3-11.4-8.6-18.3-8.6c-1.1,0-2.2,0.1-3.3,0.2
				c-0.6-0.5-1.4-1.3-2.4-2.5l-0.1-0.1c-1.2-1.4-2.3-3-3-4.8c-1.5-3.5-2.1-7.7-1.9-12.5c0-0.1,0-0.2,0-0.3c0-0.3,0.1-0.6,0.1-1
				c1-11.8,3.7-28.6,9-56.4c2.5-9.9,6-24.7,7.8-39.8l0.3-1.3l0.4-1.9l0-0.1l0-0.1c3.1-22.5,0.3-41.5-8.3-56.5
				c-8.6-16.3-21.9-26.7-37.8-29.8c-1.2-4.3-3.6-11.2-7.8-17.8c-7.6-12.1-18.2-18.7-30.6-19.1C296.9,41.6,295.5,41.5,294.1,41.5
				L294.1,41.5z M278.9,79.8c1.2-1.3,2.3-2.6,3.3-3.8c0.8-0.9,1.6-1.9,2.4-2.7c-0.5,1.8-1.3,3.8-1.9,5.2
				C281.4,78.9,280.2,79.4,278.9,79.8L278.9,79.8z M409.1,361c0.7-1.8,1.2-3.8,1.5-5.7c1.7,2.9,3.7,5.4,6,7.5
				c-1.5,1.2-2.8,2.3-4,3.4C411.6,364.3,410.4,362.5,409.1,361L409.1,361z"/>
		</g>
		<g>
			<path class="st12" d="M201.2,191.4c4,0,20.8,12.5,25.3,19c0.6,0.9-0.1,1.9-1,1.9c-0.2,0-0.4-0.1-0.7-0.2
				c-7.1-4.8-26.5-18.4-24.4-20.5C200.7,191.4,200.9,191.4,201.2,191.4 M201.2,186c-1.7,0-3.2,0.6-4.3,1.7c-1.3,1.2-2,3-1.9,4.8
				c0.2,3,2.1,5.8,12,13.3c5.4,4.2,11.7,8.5,14.9,10.7c1.1,0.8,2.4,1.2,3.7,1.2c2.5,0,4.7-1.4,5.8-3.6c1.1-2.2,1-4.8-0.4-6.8
				c-3.6-5.2-11.7-11.4-14.1-13.2C206.1,186,202.4,186,201.2,186L201.2,186z"/>
		</g>
		<g>
			<path class="st12" d="M208.4,232.1c3.8,0,7.3,0.2,9.8,0.7c1.8,0.3,1.8,3-0.1,3.3c-8.3,1.1-26.2,3.4-36.1,3.4
				c-4.4,0-7.3-0.4-7-1.6C175.8,234.8,194.7,232.1,208.4,232.1 M208.4,226.7c-7.1,0-15.4,0.7-22.4,1.8c-11,1.8-15.2,3.9-16.2,8.1
				c-0.4,1.8,0,3.7,1.1,5.2c2.1,2.6,5.6,3.1,11.1,3.1c10,0,27.4-2.1,36.8-3.4c3.5-0.5,6-3.3,6.1-6.8c0.1-3.5-2.3-6.5-5.8-7.1
				C216.5,227,212.8,226.7,208.4,226.7L208.4,226.7z"/>
		</g>
		<g>
			<path class="st12" d="M221,269.8c1.1,0,1.3,1.5,0.4,1.9c-5.9,2.4-21.8,8.7-26,8.7c-0.7,0-1-0.2-1-0.5
				C194.4,277.4,213.8,270.1,221,269.8C221,269.8,221,269.8,221,269.8 M221,264.4L221,264.4l-0.2,0c-4.6,0.2-12.2,2.4-17.7,4.5
				c-11.8,4.4-14.1,7.4-14.1,10.9c0,1.6,0.6,3,1.7,4.1c0.8,0.8,2.3,1.8,4.8,1.8c1.4,0,5.7,0,28-9.1c2.9-1.2,4.4-4.1,3.9-7.1
				C226.7,266.6,224.1,264.4,221,264.4L221,264.4z"/>
		</g>
	</g>
	<path class="st13" d="M305.8,287.5c-4.7,0-9.6-1.1-14-2.1c-2.7-0.6-5.6-1.3-7.1-1.3c-23.9-0.6-36.7-17.6-40.5-32
		c-3.9-14.9,0.9-29.2,11.8-35.7v0c4.1-2.4,9.1-3.3,14.5-2.4l2,0.3c7.5,1.2,20.1,3.2,26.2,1.5c14.6-4.1,25.3-3.1,31.8,2.7
		c3.4,3.1,7.1,8.9,5.4,19.1c-0.2,1.1-0.4,2.3-0.6,3.5c-2,12.6-5.2,33.8-18.3,43.1C313.8,286.7,309.8,287.5,305.8,287.5z
		 M264.3,230.4L264.3,230.4c-5.4,3.2-6.1,11.2-4.4,17.7c2.3,9,10.3,19.6,25.2,19.9c3.1,0.1,6.6,0.9,10.3,1.7
		c3.4,0.8,10.5,2.4,12.4,1.5c7.4-5.3,10.1-22.9,11.6-32.3c0.2-1.4,0.4-2.6,0.6-3.7c0.4-2.5,0.2-4.1-0.3-4.5
		c-0.9-0.8-5.7-2.3-16.7,0.8c-9.5,2.6-23.1,0.5-33.1-1.1L268,230C266.5,229.7,265.1,229.9,264.3,230.4z"/>
	<path class="st14" d="M302.8,280.3c-3.8,0-7.8-0.9-11.3-1.7c-2.2-0.5-4.5-1-5.7-1.1c-19.3-0.5-29.7-14.2-32.8-25.9
		c-3.1-12,0.7-23.7,9.5-28.9v0c3.3-2,7.4-2.7,11.7-2l1.6,0.3c6.1,1,16.3,2.6,21.2,1.2c11.8-3.3,20.5-2.5,25.8,2.2
		c2.8,2.5,5.8,7.2,4.4,15.5c-0.1,0.9-0.3,1.8-0.5,2.9c-1.6,10.2-4.2,27.4-14.8,34.9C309.2,279.6,306,280.3,302.8,280.3z
		 M264.3,230.2L264.3,230.2c-5.4,3.2-6.1,11.2-4.4,17.7c2.3,9,10.3,19.6,25.2,19.9c3.1,0.1,6.6,0.9,10.3,1.7
		c3.4,0.8,10.5,2.4,12.4,1.5c7.4-5.3,10.1-22.9,11.6-32.3c0.2-1.4,0.4-2.6,0.6-3.7c0.4-2.5,0.2-4.1-0.3-4.5
		c-0.9-0.8-5.7-2.3-16.7,0.8c-9.5,2.6-23.1,0.5-33.1-1.1l-1.9-0.3C266.5,229.5,265.1,229.7,264.3,230.2z"/>
</g>
</svg>
