<?xml version="1.0" encoding="utf-8"?>
<!-- Generator: Adobe Illustrator 25.4.1, SVG Export Plug-In . SVG Version: 6.00 Build 0)  -->
<svg version="1.1" xmlns="http://www.w3.org/2000/svg" xmlns:xlink="http://www.w3.org/1999/xlink" x="0px" y="0px"
	 viewBox="0 0 450 600" style="enable-background:new 0 0 450 600;" xml:space="preserve">
<style type="text/css">
	.st0{fill:#FFFFFF;stroke:#CECECE;stroke-width:1.0133;stroke-miterlimit:10;}
	.st1{fill:#F6F6F6;}
	.st2{fill:#10001C;}
	.st3{fill:#381849;}
	.st4{fill:#FFFFFF;}
	.st5{fill:#CFCFDA;}
	.st6{fill:#0D0019;}
	.st7{fill:#CA1900;}
	.st8{fill:#881900;}
	.st9{fill:#FFCC63;}
	.st10{fill:#4D4D4D;}
	.st11{fill:#9F1900;}
	.st12{fill:#D7D7E2;}
	.st13{fill:#2F1441;}
	.st14{fill:#AFAFC1;}
	.st15{fill:#AA1500;}
	.st16{fill:#861500;}
	.st17{fill:#FFD1C7;}
	.st18{fill:#FF8B63;}
	.st19{fill:#D7AC58;}
	.st20{fill:#D77558;}
	.st21{fill:#D7B0B0;}
	.st22{fill:#FFFF00;}
</style>
<g id="Layer_1">
</g>
<g id="safe">
	<path class="st0" d="M417.7,376.2c-2.8-4.4-5.9-8.1-8.8-11.6c-0.2-0.4-0.5-0.8-0.8-1.1c-1.9-2.3-2.5-4-2.8-6
		c-0.3-2.2-0.6-4.4-0.9-6.6c-0.3-1.9-0.5-3.9-0.8-5.8c2.9-0.2,5.6-1.5,7.4-3.8c1.9-2.3,2.6-5.4,2-8.3l-1.8-8.9l4.2-5.1
		c2-2.4,2.8-5.5,2.1-8.6c-8.7-41.1-33.1-62.5-49.7-72.7c-0.7-17.8-2.3-51.9-4.7-80.5v-4.8h3.4c5.6,0,10.1-4.5,10.1-10.1v-14.8
		c0-5.6-4.5-10.1-10.1-10.1h-1.8c0.2-4.7-0.8-9.2-1.7-12.2c0.2-1.5,0.8-3.9,1-5c1.4-6.3,2.7-12.2,0.4-17.9
		c-6.5-15.5-32.7-32.7-42-36.9c-3.3-1.5-8.1-3-13.6-4.4c-4.8-3.5-9.9-6.7-15.1-9.4c-17.6-9-37.7-13.6-59.8-13.6
		c-2.4,0-4.9,0.1-7.4,0.2c-38,0.9-68,12.7-89.2,35.2c-2,2.1-3.9,4.3-5.8,6.6c-3.5,1.4-6.5,2.6-9.4,3.8l-0.3,0.1
		c-0.6,0.2-1.1,0.6-1.7,0.9l-0.3,0.2c-12.8,8.6-19.9,17.4-21.6,26.8c-0.8,4.6-0.2,8.3,0.8,11l1.6,14.5h-6.7
		c-5.6,0-10.1,4.5-10.1,10.1v14.9c0,5.6,4.5,10.1,10.1,10.1h3.4v4.9c0,2.7,1,5.1,2.7,6.9c-0.9,21-0.2,42.2,0.5,61.2
		c0.1,3.1,0.2,6.1,0.3,9.1c-1.3,1.1-2.8,2.3-4.3,3.6c-3.7,3.1-8,6.7-12.6,10.2c-31.2,23.4-38.5,48.5-42.8,63.4
		c-0.2,0.6-0.4,1.2-0.5,1.8c-2.1,2.5-4,5.2-5.7,8c-7,11.8-9.6,24.7-7.9,38.4l6,47c0.6,4.5,4,8,8.5,8.7c0.5,0.1,1.1,0.1,1.6,0.1
		c1.2,0,2.4-0.2,3.5-0.6c5.4,11.7,13.8,21.8,24.5,29.2c3.9,2.7,7.9,5,12.1,6.9c-2.8,9.9-1.9,20.1,2.8,28.5l13.1,23.3L95.3,520
		c-0.8,3.3,0.2,6.8,2.5,9.3c-0.8,2.5-0.7,5.3,0.5,7.7c1.6,3.2,4.6,5.3,8.1,5.6l13.1,1.3c-0.1,0.1-0.1,0.1-0.1,0.2
		c-1.2,1.4-2.3,2.8-3.4,4.3c-3.1,4.3-4.1,8.5-4.6,10.6l-5.1,17.4c-0.9,3.1-0.3,6.4,1.7,9c1.9,2.5,4.9,4,8.1,4
		c0.1,0,18.1-0.3,18.1-0.3c0.6,0,1.5,0.1,2.5,0.1c1.5,0,3.1-0.1,4.5-0.4c2.8-0.5,5.5-1.4,8.1-2.8c2.2-1.2,4.3-2.5,6-3.5l0.3-0.2
		c1.1-0.7,2.1-1.3,3.1-1.8c5.9-3.2,12.8-6.6,19.1-7.7c1.4-0.2,2.7-0.3,4-0.3c0.8,0,1.6,0,2.5,0.1c3.3,0.4,7.5,1.7,12,3.1
		c2.4,0.7,5.5,1.7,8.5,2.5l9,2.5c0.9,0.2,1.8,0.4,2.7,0.4c3.1,0,6.1-1.4,8.1-4l8.7-11.5c2,1.1,4,2,6.2,2.7c2.8,1,5.8,1.5,8.9,1.5
		c1.6,0,3.2-0.1,4.8-0.4c4.4-0.7,10.7-2.8,15.8-8.4c2.3-2.6,4.6-5.2,6.7-7.8L303,563c1.1,0.4,2.3,0.6,3.4,0.6c3.1,0,6.1-1.4,8.1-4
		l6.2-8.2l2.7-3.4c5.7,1.5,11.7,3.1,17.7,4.6c2,0.5,4,0.7,6,0.7c1.5,0,2.9-0.1,4.4-0.4c6-1,11.7-4,15.9-8.3
		c5.1-5.3,10.2-10.7,15.1-16l11.9-12.7c3.1-3.3,3.6-8.3,1.3-12.2l-5.5-9c-3.2-5.2-7.5-9.1-12.5-11.4c1.7-2,3.5-3.9,5.2-5.9l9.8-11.1
		c1.9-2.1,2.8-4.9,2.5-7.7c-0.3-2.8-1.7-5.3-3.9-7.1L373,437.5c2.5-0.1,4.9-0.3,7.2-0.7c11.6-1.9,21.6-7.5,29.9-16.6
		c0.6-0.4,1.1-0.9,1.6-1.4C424.7,407.2,427,390.5,417.7,376.2z"/>
	<g>
		<path class="st1" d="M65.9,307.6c9.6-28.7,58.4-61.9,58.4-61.9c-1.6-77.2-17.6-202,103.1-204.7c84.9-3.9,107.4,67.4,110.7,94.3
			c4.8,39.9,7.5,116.7,7.5,116.7s39.1,13.2,49.7,63.1L65.9,307.6"/>
		<path class="st2" d="M233.9,40.8c79.5,0,100.9,68.2,104.1,94.4c4.8,39.9,7.5,116.7,7.5,116.7s39.1,13.2,49.7,63.1l-329.3-7.4
			c9.6-28.7,58.4-61.9,58.4-61.9c-1.6-77.2-17.6-202,103.1-204.7C229.6,40.9,231.8,40.8,233.9,40.8 M233.9,28.1v12.7l0-4.6
			L233.9,28.1L233.9,28.1c-2.3,0-4.7,0.1-7,0.2c-35.2,0.8-62.8,11.6-82.1,32c-38.3,40.6-35.9,109.4-33.9,164.7
			c0.2,5,0.3,9.7,0.5,14.3c-5,3.7-12.3,10.4-21.1,17.1c-32.8,24.7-36.4,50.2-41,64.3l16.5-0.3l329.3,7.4l12.8-15.4
			c-9-42.1-35.9-61.4-49.7-68.8c-0.8-20.7-3.3-77.1-7.3-109.9c-1-8.2-5.8-37.1-26-63.3c-9.8-12.7-21.8-22.8-35.6-29.9
			C273,32.3,254.4,28.1,233.9,28.1"/>
		<path class="st3" d="M246.6,226.7c0-5.3-4.3-9.6-9.6-9.6c-5.3,0-9.6,4.3-9.6,9.6c0,5.3,4.3,9.6,9.6,9.6
			C242.3,236.3,246.6,232,246.6,226.7"/>
		<path class="st3" d="M253.6,64.4c0,0-88.3-16.5-99.1,60.5c-8,56.4-3,81.6,40.2,92.6c43.2,11,102.3,0.2,113.8-41.9
			C323.4,121.2,291.7,70.5,253.6,64.4"/>
		<path class="st4" d="M183.2,104.3c0,0-15,4.7-22.4,23c-2,4.8,4.5,9.3,7.9,5.4c8.2-9.3,18-19.6,32.8-22.7c4.3-0.9,5.3-6.2,1.4-7.9
			C198.3,100.1,190.8,100.3,183.2,104.3"/>
		<path class="st4" d="M184.4,158.8c2.7-4.7,0.9-10.8-4-13.7c-5-2.9-11.2-1.5-13.9,3.2c-2.7,4.7-0.9,10.8,4,13.7
			C175.5,164.9,181.7,163.4,184.4,158.8z"/>
		<path class="st5" d="M312.6,112.9c1.5,4.7,2.9,9.6,4.1,14.5c5.5,0,10.9,0,16.4,0c-0.7-2.8-1.4-5.6-2.2-8.2
			C325.5,117.3,318.9,115,312.6,112.9 M235.4,41.7c-13.4,0-22.5,2.4-22.5,2.4s7.2,0.1,18.3,2.2c8.1-0.7,16.2-1,24.1-1h0
			c2.7,0,5.2,0,7.8,0.1C253,42.5,243.4,41.7,235.4,41.7"/>
		<path class="st5" d="M339.5,170.9c0,0.4,0,0.7,0,1.1c-4.6,0-9,0-13.7,0c0,5.1,0,9.9,0,14.9c-0.6,0-1.1,0-1.7,0
			c1.3,37-2.6,67.3-2.6,67.3l23.7-9.1c-0.2-6.2-0.7-16-1.2-27.7C343,206.4,341.6,191.3,339.5,170.9"/>
		<path class="st6" d="M344,217.5c0.6,11.6,1,21.5,1.2,27.7l0.8-0.3C346,244.8,345.9,238.6,344,217.5"/>
		<path d="M271.2,172.3c-4.7,0-9,0-13.6,0c0-5,0-9.8,0-15c-4.6,0-9,0-13.7,0c0-5.2,0-9.9,0-14.9c-9.2,0-18,0-27.2,0
			c0,4.8,0,9.6,0,14.7c-4.7,0-9.1,0-13.7,0c0,5.2,0,9.9,0,14.9c-4.5,0-8.9,0-13.6,0c0,5.1,0,9.9,0,14.9c-18.3,0-36.3,0-54.6,0
			c0-4.9,0-9.6,0-14.7c-4.7,0-9.1,0-13.7,0c0-5.1,0-9.9,0-15c-4.5,0-8.8,0-13.5,0c0-5.1,0-9.9,0-15c-4.7,0-9,0-13.6,0
			c0-5.1,0-9.9,0-14.9c90.8,0,181.6,0,272.4,0c0,4.9,0,9.6,0,14.8c-4.4,0-8.8,0-13.5,0c0,5.1,0,9.9,0,14.9c-4.6,0-8.9,0-13.5,0
			c0,5.1,0,9.8,0,14.9c-4.6,0-9,0-13.7,0c0,5.1,0,9.9,0,14.9c-18.3,0-36.2,0-54.5,0C271.2,182.2,271.2,177.4,271.2,172.3 M284.8,172
			c4.7,0,9,0,13.4,0c0-5,0-9.8,0-15c-4.5,0-8.8,0-13.4,0c0-5.1,0-9.8,0-14.6c-4.7,0-9,0-13.5,0c0,5,0,9.7,0,14.8c4.6,0,9,0,13.5,0
			C284.8,162.4,284.8,167,284.8,172 M148.6,157.4c0,5,0,9.7,0,14.6c4.6,0,8.9,0,13.4,0c0-4.9,0-9.7,0-14.6
			C157.4,157.4,153.1,157.4,148.6,157.4 M135,157.1c4.6,0,9,0,13.2,0c0-5,0-9.8,0-14.6c-4.5,0-8.8,0-13.2,0
			C135,147.4,135,152.1,135,157.1"/>
		<path class="st4" d="M284.8,172c0-5,0-9.7,0-14.7c-4.5,0-8.9,0-13.5,0c0-5.1,0-9.9,0-14.8c4.4,0,8.8,0,13.5,0c0,4.8,0,9.6,0,14.6
			c4.6,0,8.9,0,13.4,0c0,5.1,0,10,0,15C293.8,172,289.5,172,284.8,172"/>
		<path class="st4" d="M148.6,157.4c4.5,0,8.9,0,13.4,0c0,4.9,0,9.6,0,14.6c-4.4,0-8.8,0-13.4,0
			C148.6,167.1,148.6,162.4,148.6,157.4"/>
		<path class="st4" d="M135,157.1c0-5,0-9.7,0-14.6c4.4,0,8.7,0,13.2,0c0,4.8,0,9.6,0,14.6C143.9,157.1,139.6,157.1,135,157.1"/>
		<path class="st7" d="M116,130.1c0,0,50.2-44.9,130.7-37.9c80.5,7,99.2,28,99.2,28s8.5,4.6,3.5-12.8c-1.2-4.1,3.7-16.6,2.3-19.8
			c-4.2-10.1-25.3-25.4-35-29.8c-12.8-5.8-88-24.4-189.2,18.5c-21.2,14.3-15.1,22.9-15.1,22.9L116,130.1"/>
		<path class="st2" d="M113.3,137.4l-4.2-37.1c-0.6-1.2-1.3-3.5-0.7-6.7c1.2-6.5,7-13.3,17.3-20.2l0.3-0.2l0.3-0.1
			c42.9-18.2,87.6-27.8,129.1-27.8h0c33.5,0,55.8,6.1,62.9,9.3c10,4.5,32.1,20.4,36.8,31.6c1.1,2.5,0.3,6.1-0.9,11.8
			c-0.6,2.7-1.6,7.2-1.3,8.5c2.5,8.9,2.3,14-0.9,16.6c-2.5,2-5.7,1.4-7.7,0.3l-0.6-0.3l-0.4-0.5c-0.2-0.2-19.4-20.1-96.9-26.8
			c-77.9-6.8-127.6,36.6-128,37L113.3,137.4 M115.5,97.2l0.7,0.8l-0.1,0.8l2.8,24.5c5.8-4.3,16.2-11.3,30.9-18
			c21-9.6,55-20.3,97.4-16.7c71.3,6.2,95.2,23.4,100.4,28.1c0.1-1.2-0.1-3.7-1.4-8.4c-0.8-2.7-0.1-6.3,1.2-12
			c0.5-2.4,1.4-6.4,1.2-7.6c-3.6-8.4-23.2-23.3-33.2-27.8c-14.5-6.6-88.6-22.8-186,18.4C115.5,88.9,114.6,95.3,115.5,97.2"/>
		<path class="st8" d="M344.5,106.2c0,0,2.9-4.1,1.5-5.6c-14.8-14.9-41.9-14-41.9-14C310,91.8,344.5,106.2,344.5,106.2"/>
		<path d="M116,116.7c0,0,15.8-14,22.2-15.2c0,0-24.5,9.9-25.1,11.7C112.5,115,116,116.7,116,116.7"/>
		<path d="M348,102.7c0,0,5.2-2.3,3.7-3.8c-14.8-14.9-44.1-15.8-44.1-15.8C313.5,88.3,348,102.7,348,102.7"/>
		<path d="M114.9,99.2c0,0,9.5-10.2,13.4-11.1c0,0-14.8,7.2-15.2,8.5C112.7,97.9,114.9,99.2,114.9,99.2"/>
		<path class="st9" d="M137.2,268.5L137.2,268.5c-3.3,2.6-8.1,2.1-10.7-1.2l-6.5-8.1c-2.6-3.3-2.1-8.1,1.2-10.7
			c3.3-2.6,8.1-2.1,10.7,1.2l6.5,8.1C141,261.1,140.5,265.9,137.2,268.5z"/>
		<path class="st2" d="M132.5,271.8c-2.7,0-5.4-1.2-7.2-3.5l-6.5-8.1c-3.2-4-2.5-9.8,1.4-13c4-3.2,9.8-2.5,13,1.4l6.5,8.1
			c3.2,4,2.5,9.8-1.4,13C136.5,271.1,134.5,271.8,132.5,271.8z M126,248.5c-1.3,0-2.7,0.4-3.8,1.3c-2.6,2.1-3,5.9-0.9,8.5l6.5,8.1
			c2.1,2.6,5.9,3,8.5,0.9c2.6-2.1,3-5.9,0.9-8.5l-6.5-8.1C129.5,249.3,127.8,248.5,126,248.5z"/>
		<path class="st9" d="M334.7,266.1L334.7,266.1c3.3,2.6,8.1,2.1,10.7-1.2l6.5-8.1c2.6-3.3,2.1-8.1-1.2-10.7
			c-3.3-2.6-8.1-2.1-10.7,1.2l-6.5,8.1C330.9,258.7,331.4,263.5,334.7,266.1z"/>
		<path class="st2" d="M339.5,269.4c-2,0-4.1-0.7-5.7-2c-1.9-1.5-3.1-3.7-3.4-6.2c-0.3-2.4,0.4-4.9,2-6.8l6.5-8.1
			c3.2-4,9-4.6,13-1.4c1.9,1.5,3.1,3.7,3.4,6.2c0.3,2.4-0.4,4.9-2,6.8l-6.5,8.1C344.9,268.2,342.2,269.4,339.5,269.4z M345.9,246.1
			c-1.8,0-3.5,0.8-4.7,2.3l-6.5,8.1c-1,1.3-1.5,2.8-1.3,4.4c0.2,1.6,1,3,2.2,4c2.6,2.1,6.4,1.7,8.5-0.9l6.5-8.1
			c1-1.3,1.5-2.8,1.3-4.4c-0.2-1.6-1-3-2.2-4C348.6,246.5,347.3,246.1,345.9,246.1z"/>
		<path class="st9" d="M314.9,287.8c3.1,2.9,7.9,2.7,10.8-0.3l7.1-7.5c2.9-3.1,2.7-7.9-0.3-10.8c-3.1-2.9-7.9-2.7-10.8,0.3l-7.1,7.5
			C311.7,280.1,311.9,284.9,314.9,287.8"/>
		<path class="st2" d="M320.2,291.4c-2.3,0-4.5-0.8-6.3-2.5c-1.8-1.7-2.8-4-2.9-6.4c-0.1-2.5,0.8-4.8,2.5-6.6l7.1-7.5
			c1.7-1.8,4-2.8,6.4-2.9c2.5-0.1,4.8,0.8,6.6,2.5c1.8,1.7,2.8,4,2.9,6.4c0.1,2.5-0.8,4.8-2.5,6.6l-7.1,7.5
			C325.1,290.4,322.6,291.4,320.2,291.4 M316,286.6c2.4,2.3,6.2,2.2,8.5-0.3l7.1-7.5c1.1-1.2,1.7-2.7,1.6-4.3
			c-0.1-1.6-0.7-3.1-1.9-4.2c-1.2-1.1-2.7-1.7-4.3-1.6c-1.6,0.1-3.1,0.7-4.2,1.9l-7.1,7.5c-1.1,1.2-1.7,2.7-1.6,4.3
			C314.2,284,314.9,285.5,316,286.6"/>
		<path class="st3" d="M238.5,239.5c0,0-9.6,1.2-12.8-4s-2.4-5.6-2.4-5.6s-4,7.6,1.3,10.6C230,243.5,235.8,242.9,238.5,239.5z"/>
		<path class="st3" d="M228.9,221.2c0,0-5.6,0.1-7.8,4.4c0,0,6-2.5,8.1-1.7c2.2,0.8,2.2,0.8,2.2,0.8L228.9,221.2z"/>
		<path d="M127.9,447.3c-18.5,3.1-35.7-0.7-50.9-11.2c-15.4-10.6-24.7-27.1-26.7-45.3l-7.1,14.9l-6-47c-1.4-11.4,0.8-22.2,6.6-32
			c7.7-13,20.3-21.5,35.5-24c1.1-0.2,2.3-0.3,3.4-0.5c9.6-1,19-0.9,28.2-0.8c3.7,0,7.4,0.1,11.1,0.1c3.3,0,6.7,0,10-0.1l6.5,0
			c0.5,0,1,0,1.4-0.1c0.9-0.1,1.5-0.2,2.4-2.3c1-2.2,2.2-3.7,2.9-4.5l13.8-18.2l9.8,20.6c4,8.4,3.6,17.6,0,25.6
			c-4,8.8-11.8,15.9-24.9,21.3l7.1,42.4c2.4-2.7,3.4-5.4,4.9-8.4l6.6-12.8l13.8,7.2l6.6,3.4l0.8,7.4l0.1,0.4
			c0.2,1.2,0.5,3.3,0.3,5.8c-2.7,26.8-16.6,45.4-40.5,54C138.2,445,133,446.4,127.9,447.3z"/>
		<path class="st4" d="M86.2,334.5c-17.4-0.4-28.4,7.6-35.3,22.4c-1.1-8.7,0.6-16.2,4.7-23.2c6.4-10.8,16.7-16.5,28.5-17.8
			c12.5-1.3,25.3-0.6,38-0.7c5.5-0.1,11-0.1,16.4-0.1c7.7,0,13.1-3.5,16.3-10.6c0.3-0.6,0.8-1.1,1.4-1.8c6.2,13.2-4,25.2-27,31.7
			c4.3,26,8.7,52,13.1,78.3c13.8-5,20.3-16.8,26.3-29c0.4,0.2,0.8,0.4,1.1,0.6c0.1,1.1,0.4,2.3,0.3,3.4c-2,20.4-11.8,35.3-31.4,42.4
			c-18.6,6.7-37.1,6.2-53.9-5.5c-18.7-12.9-25.8-37.4-18-60.4C70.6,353.1,77,343.5,86.2,334.5z M137.4,414.3
			c-0.2-1.3-0.4-2.4-0.6-3.5c-4.2-25.2-8.4-50.4-12.7-76c-3.8-0.2-7.4-0.5-11.5-0.7c2.2,13.2,3.9,25.8,6.5,38.2
			c2,9.7,0,18.3-5.2,26.5c-2.6,4.2-5.5,8.2-8.3,12.3C114.6,416.6,125,417.6,137.4,414.3z M93.3,333.8c-20.2,21.5-16.5,61.2,7.5,75.3
			c3-4.1,4-8.6,3.2-13.6c-3.3-19.3-6.5-38.7-9.7-58C94,336.4,93.7,335.4,93.3,333.8z"/>
		<path d="M207.2,568.4c-2.8-0.8-5.5-1.6-8.2-2.4c-4.9-1.5-9.6-2.9-13.8-3.4c-3-0.4-6.1-0.3-9.3,0.3c-7.8,1.3-15.7,5.2-22.3,8.8
			c-1.3,0.7-2.6,1.5-3.9,2.3c-1.6,1-3.4,2.2-5.4,3.2c-1.5,0.8-3.2,1.4-4.9,1.7c-2.2,0.4-4,0.2-5,0.1l-18.4,0.3l5.2-17.8
			c0.3-1.6,1-4.4,3-7.2c0.9-1.3,2-2.6,3-3.8c1-1.2,2-2.4,2.4-3.2l0.2-0.3c2-3.5,3.9-6.9,4.7-9.7c0.2-0.8,0.4-1.4,0.4-1.9
			c-0.6-0.1-1.4-0.3-2.4-0.4l-25.2-2.4l7.8-12.4l-10.1,2.2l4.8-20.8l-15-26.7c-7.1-12.6-1.1-29.2,8.5-37.2c4.8-4,10.5-6.6,16.8-7.7
			c2.5-0.4,5.1-0.6,7.8-0.5c3.8,0.1,7.9,0.4,12.9,1c1.6,0.2,3,0.2,4.3-0.1c1.8-0.3,3.4-1,5-2c1.6-1,3.1-1.8,4.3-2.3
			c0.3-0.1,0.6-0.3,0.9-0.4l9.1-4.6l3.8,3.9c0.1-0.1,0.2-0.1,0.3-0.2c4.3-2,8.6-3.2,12.5-4.3l2.7-0.8l0.9-0.2
			c4.6-0.8,8.3,0.9,9.7,1.5l17.9,5.9l-11.4,15c-1,1.6-3.1,4.8-7.2,6.8c-1.9,0.9-3.1,1.5-3.8,2c0.1,0.9,0.4,2.5,0.9,4.8
			c2.8,12.4,5.4,24.6,6.9,37c1,8.1,0.3,16-2,23.7c7.1,0,14,1.4,20.6,4.2c1.4-0.8,3.1-1.4,5.1-1.7c0.9-0.1,2,0.1,3,0.1l0.2,0.3
			l11.5-1.9l4,12.8l2,6.6L216.3,571L207.2,568.4z M115.6,489.3c2.7-3.4,6.1-5.5,9.5-7c-0.2-3.2-0.3-6.5,0-10c-0.2,0-0.3-0.1-0.5-0.1
			c-1.8-0.3-3.2-0.5-4.2-0.5L115.6,489.3z"/>
		<path class="st4" d="M131.1,520.9c3.7-5.9,8.9-6.1,14.1-5.7c0.5-10.4-7.2-14.2-21.6-11.1c1.7-7.5,5.3-9.9,16.4-11
			c-0.5-6.6-1.9-13.4-1.1-19.8c0.8-6.4,3.8-12.4,5.9-18.7c-0.5,0.2-1.4,0.5-2.2,1c-4.9,2.9-10.2,4-15.8,3.1
			c-8.5-1.3-16.7-1.8-19.7,9.4c-3.2-5.6-0.2-15.2,5.3-19.9c4.4-3.7,9.7-5.1,15.3-5c3.9,0.1,7.8,0.4,11.7,0.9
			c6.6,0.7,12.8-0.6,18.4-4.2c1.2-0.8,2.6-1.3,3.9-2c0.3,0.3,0.6,0.6,0.9,0.9c-0.9,1.3-1.7,2.7-2.7,3.9c-7,9.3-9.8,19.3-6.5,30.9
			c2.6,9.4,4.4,18.9,6.4,28.5c2.6,12.1,2,24-2.7,35.6c-1,2.6-2,5.2-3.2,8.2c10-7.9,17.3-25.2,16-35.8c-1.6-12.6-4.5-24.9-6.7-37.4
			c-0.8-4.8-1.7-9.6-1.8-14.4c-0.3-9.7,4.3-16.9,13.1-21c3.9-1.8,8.2-2.9,12.4-4.2c0.8-0.2,1.8,0.5,2.8,0.8c-0.6,0.8-1,1.9-1.7,2.2
			c-12.2,5.6-13.6,9.2-10.6,22.4c2.7,11.8,5.2,23.6,6.7,35.6c1.7,14.1-3.3,26.5-12.1,37.5c-1.8,2.2-3.5,4.4-6.2,7.8
			c3.3-1.5,5.4-2.4,7.4-3.4c13.3-6.5,26.8-8.5,40.6-1.4c3.4,1.8,6.4,2.2,8.9-1.6c0.5-0.8,2.5-0.5,3.8-0.7c0.2,0.5,0.3,1,0.5,1.6
			c-5.5,7.3-11.1,14.7-16.1,21.3c-8.4-2.2-16-5.3-23.9-6.2c-14.4-1.7-27.4,3.9-39.8,10.6c-3.2,1.7-6.1,3.8-9.3,5.5
			c-0.8,0.5-2.1,0.1-3.2,0.1c0.3-0.9,0.3-2,0.9-2.8c2-2.8,4.5-5.3,6.2-8.3c2.4-4.2,4.9-8.5,6.2-13.1c3.4-12.1-1.4-18.6-13.9-19.8
			C133.2,521.1,132.5,521.1,131.1,520.9z"/>
		<path d="M341.2,433.6c-6.8,1.1-13.2-1.3-18-6.8l-6.5-7.5l12.4-21.2c-1.2-0.7-2.4-1.4-3.5-2.1c-5-3.1-8.7-8.4-9.7-13.9
			c-3.2-17.9-6.2-36.4-9.2-55c-1-6.5,2.1-13.8,7.5-17.7c7.6-5.5,14.4-10.1,20.9-14.2c2.4-1.5,5.1-2.5,8.1-3c3.2-0.5,6.3-0.4,9.2,0.4
			c5.8,1.6,11.6,3.5,17,5.4c1-1,2-1.9,2.9-2.9c0.9-0.9,1.1-1.6,2.1-2.6l16.5-16.8l12.1,59.2l-11.2,0.2c0,0.2,0.1,0.4,0.1,0.6
			c1.3,7.5,2.2,15.4,3.3,23.2c0.6,4,2,7.5,5,11.1l0.3,0.5c2.9,3.5,5.9,7.1,8.6,11.3c6.6,10.2,5,21.2-4.2,29.5
			c-0.5,0.4-1,0.9-1.5,1.3c-0.1,0.1-0.2,0.2-0.4,0.3c-6.9,7.8-14.9,12.4-24.5,14c-3.9,0.6-7.9,0.8-12.4,0.5c-1.1-0.1-2.4,0-4,0.3
			c-3.5,0.6-7.5,1.9-11.7,3.4c-1.5,0.5-3,1-4.4,1.5C344.6,432.8,343,433.3,341.2,433.6"/>
		<path class="st4" d="M333.7,417.8c4.8-8.2,9.6-16.4,14.7-25c-5.4-2.9-10.6-5.5-15.5-8.5c-1.5-0.9-3-2.9-3.3-4.5
			c-3.2-18.2-6.3-36.5-9.1-54.8c-0.2-1.3,0.8-3.5,2-4.3c6.6-4.8,13.3-9.4,20.2-13.7c1.7-1,4.4-1.5,6.2-1c6.9,1.9,13.8,4.2,20.6,6.6
			c2.8,1,4.9,0.9,7-1.6c2.5-3,5.4-5.5,8.6-8.7c1.1,6.8,2.2,12.9,3.2,19.4c-4.3,0.2-8.5,0.4-13.1,0.6c0.2,2,0.4,3.6,0.6,5.3
			c1.8,11.1,3.9,22.3,5.5,33.4c1,7,3.9,12.8,8.3,18.1c2.8,3.4,5.7,6.7,8,10.4c3,4.6,2.2,8-1.8,11.6c-0.9,0.8-2,1.6-2.8,2.5
			c-6.9,7.9-14.8,10.8-25.8,10c-8.3-0.6-17.1,3.1-25.3,5.7C338.6,420.2,336.4,421,333.7,417.8z M357,377.9c2.4-3.9,4.6-7.3,6.6-10.8
			c0.7-1.3,1.2-3,1-4.3c-1.9-12.1-3.9-24.1-6-36.2c-0.2-1-1-2.7-1.8-2.8c-6.5-1.1-13.1-2-20.2-3c2.8,17,5.5,33.2,8.3,49.4
			c0.2,1.1,1.4,2.4,2.4,3C350.4,374.9,353.6,376.3,357,377.9z M347.3,403.4c13.9-5.2,27.2-5.5,40.8-4c-9.8-6.8-17.9-14.7-22.2-26.8
			C359.6,383,353.8,392.6,347.3,403.4z"/>
		<path d="M202.5,452.5c-0.6,0.1-1.1,0.3-1.7,0.4l-0.3,0.2l-11.3,1.9l-3.9-10.9l-4.3-11.6l4.3-2.9l-16.3-9.9l-0.6-6.6
			c-0.9-6,1.6-10,3.4-12c0-1.1-0.4-3.3-0.6-4.3c-1.9-10.1-3.6-20.4-5.2-30.4c-0.2-1.5-0.9-2.9-1.2-4.4l-9.4,1l-5.9-35.4l9.4-2
			c-0.6-3.3-1.1-4.1-2.6-5l-13.3-7.7l10.2-13.9l5.9-7.9l9.4,2.9c0.9,0.3,1.8,0.5,2.7,0.8c0.6,0.2,1.3,0.3,1.9,0.5
			c4.9-4.9,11.5-8.1,19.4-9.6l30-5.4l-15.7,26.1l-1.1,1.8c-0.7,1.2-1.3,2.1-1.9,3c-1.4,2.1-1.3,3.2-1.1,4.3c0.2,1.1,0.4,2.2,0.6,3.3
			l8.2-9.5l9.5,4.5c12,5.7,19.8,15.4,22.1,27.3c3.1,16.1,6.1,33.6,9.2,54.9c1.6,10.6-2,20.9-10.6,30.8
			c-9.7,11.1-21.8,19.5-35.7,24.8C205,452,203.8,452.3,202.5,452.5z"/>
		<path class="st4" d="M176.8,346.8c-3.2,0.3-6,0.6-9,0.9c-0.5-3.3-1-6.3-1.6-9.6c2.9-0.6,5.6-1.2,8.7-1.9
			c-2.3-10.1-0.4-21.3-11.5-27.7c0.3-0.5,0.7-0.9,1-1.4c3.4,1.1,7,1.8,10.2,3.3c2.6,1.2,3.8,1,5.2-1.5c3.1-5.4,7.9-8.4,15.1-9.7
			c-1.2,2.1-1.9,3.2-2.6,4.3c-2.9,4.4-4.1,9-3.2,14.3c1.8,10.3,3.5,20.7,5.4,32.1c7.2-8.3,13.8-15.9,20.6-23.8
			c7.6,3.6,12.9,9.4,14.5,17.5c3.5,18,6.4,36.1,9.1,54.3c1.1,7.6-2.5,14.1-7.3,19.7c-8.3,9.5-18.4,16.5-30.2,20.9
			c-1,0.4-2.1,0.4-3.1,0.5c-0.2-0.5-0.3-0.9-0.5-1.4c1.2-0.8,2.4-1.6,3.6-2.5c4.1-2.9,8.3-5.7,12.1-8.9c7.7-6.6,11-14.7,9-25.1
			c-3.1-16.2-5.6-32.5-8.2-48.7c-0.7-4.4-2.6-7.6-7.4-9.4c-3.4,3.9-7,7.8-10.3,11.9c-0.6,0.8-0.6,2.4-0.4,3.5
			c2.2,13.3,4.2,26.7,6.8,39.9c0.5,2.7,3.3,4.9,5.5,8c-3.3,4.2-7,9.1-11.1,14.3c-5.2-3.2-10.3-6.2-15.2-9.2c0-0.5-0.2-1-0.1-1.1
			c4.7-4.8,3.8-10.3,2.7-16.1c-2.6-14-4.8-28.1-7.1-42.2C177.4,350.4,177.1,348.7,176.8,346.8z"/>
		<path d="M267,420.8c-12.6-5.4-20.7-15.6-23.2-29.6c-1.6-8.8-3.1-17.8-4.5-26.5c-0.7-4.1-1.3-8.1-2-12.2c-3-1-6.4-3.2-9.3-7.5
			l-5.8-8.7l29.3-34.5l20.5,12.4l14.9-18.5l41.9,25.1L315.9,333c0.1,1,0.5,2.4,0.7,3.5c0.4,1.6,0.9,4,1.2,6.1
			c1.4,9.6,2.7,17.6,4.7,28.5l6.5-1.1l5,10.8l3.5,7.6l-8.5,10.1c-3.3,4-6.7,8-10.2,12.1c-2.3,2.6-5.3,4.2-8.9,4.8
			c-3.5,0.6-7.5,0.1-10.8-1.4c-2.6-1.1-5.5-2.9-8.4-5.5l-14.7,16.3L267,420.8z"/>
		<path class="st4" d="M279.4,327.1c3.4-4.2,7-8.7,10.7-13.3c5.3,3.2,10.2,6.1,15.9,9.5c-6.8,6.4-3,13.7-1.9,20.7
			c1.7,11.3,3.5,22.6,5.7,33.9c0.6,2.9,2.5,5.6,3.9,8.3c0.4-0.3,0.7-0.6,1.1-0.9c2-0.3,3.9-0.7,5.9-1c0.2,0.5,0.5,1,0.7,1.6
			c-4.3,5.2-8.4,10.4-12.9,15.4c-0.6,0.6-2.6,0.5-3.7,0c-5-2.2-8.1-6.3-9.9-11.3c-0.5-1.3-0.9-2.6-1.6-4.9
			c-7.1,7.9-13.8,15.3-20.7,23.1c-8.6-3.7-13.4-10.4-15-19.3c-2.8-15.3-5.1-30.7-7.8-46c-0.4-2-1.6-3.9-2.7-6.6
			c-2.7,2.7-4.7,5.3-7.4,1.2c4.8-5.6,9.7-11.4,15-17.6c5.2,3.2,10.3,6.2,16,9.7c-6.1,4.9-3.9,10.6-3,16.3
			c2.1,12.2,4.1,24.5,6.1,36.7c0.7,4.4,3,7.4,7.5,9.1c3.4-3.8,6.8-7.5,9.9-11.3c0.8-0.9,1.1-2.6,0.9-3.8c-2.2-13.8-4.3-27.6-7-41.3
			C284.3,332.3,281.5,330,279.4,327.1z"/>
		<path d="M252.2,533.9l10-14.7c0.3-0.7,0.1-2.9-0.6-6.6c-1.6-9.1-3.1-18.3-4.6-27.5l-0.6-3.5l-10.9,1.2l-1-36.4l5.9-1.3
			c-0.2-1.2-0.3-2.4-0.4-3.6c-0.6-5.5,1.5-11.5,5.5-15.8c4.3-4.7,8.7-9,13.1-12.9c3.3-2.9,7.6-5,11.7-5.7c1-0.2,2.1-0.3,3.1-0.3
			c4.1,0,7.9,0.3,11.5,0.7c1.3,0.1,2.7,0.3,4.1,0.4l14.1,1.3l-2.6,25.4l3.8-0.6l-2.9,18.7c-0.1,0.7-0.2,1.5-0.2,2.6
			c-0.2,4.2-1.2,10.6-6.3,15.7c-1.2,1.2-2,2-4.6,3l2.4,14.4c0.3,1.9,1.2,3.8,1.6,5.7c0.5,2.6,1.2,5.2,1.6,7.9l21.8-1.6l1.7,13.4
			l0,0.2c0.4,2.1,0.8,7.9-2.9,13.3c-3.4,4.9-7.2,9.5-10.5,14l-3.1,4l-6.2,8.3L252.2,533.9z"/>
		<path class="st4" d="M314.2,515.3c0.1,1.4,0.8,3.3,0.2,4.2c-4.3,6.1-8.8,12.1-12.9,17.5c-9.5-3.4-18.5-6.7-27.8-10.1
			c3.4-5,2.6-10.8,1.6-16.7c-2.3-12.8-4.3-25.7-6.5-38.5c-0.3-1.7-0.6-3.3-0.9-5.3c-3.2,0.3-5.9,0.6-9.1,1c-0.1-3.5-0.2-6.5-0.3-10
			c2.4-0.5,4.7-1,7.6-1.6c-0.9-5.3-2-10.4-2.5-15.7c-0.2-1.6,0.7-3.8,1.9-5c3.8-4.1,7.8-8.1,12-11.8c1.5-1.3,3.9-2.5,5.8-2.5
			c4.6,0,9.3,0.6,14.4,1.1c-0.5,4.8-1,9.2-1.5,14c-5.2-0.3-10.2-0.6-15.4-0.9c1,6,2,11.7,3,17.9c4.2-0.7,8.3-1.4,13.7-2.3
			c-0.6,4.1,0,8.6-1.9,10.4c-2,2-6.4,1.4-10.2,2.1c1.6,9.6,3.1,18.5,4.6,27.4c1.1,6.8,2.5,13.6,3.3,20.4c0.4,3.7,2.1,5.5,5.4,6.7
			c2.9,1.1,5.7,2.6,8.7,4c1.8-2.1,3.4-4.2,5.1-6.2C313.1,515.4,313.6,515.4,314.2,515.3z"/>
		<path d="M349.9,542.9c-2.2,0.4-4.3,0.3-6.4-0.2c-6.3-1.5-12.6-3.2-18.7-4.8l-24.5-6.5l10.9-15.9c0.2-0.9,0-2.9-0.6-6.1
			c-1.2-6.9-2.3-13.8-3.5-20.7c-1.3-7.6-2.5-15.3-3.9-22.9c-1.4-7.8,1.2-14.6,7.4-19.5c4.3-3.4,8.5-7,12.9-10.9
			c1.9-1.6,3.8-3.3,5.7-5l8.6-7.4l47.3,36.6l-9.8,11.1c-2.2,2.5-4.4,5-6.5,7.4c-4.9,5.6-10,11.4-15.2,17.1c0.1,0.7,0.2,1.5,0.3,2.4
			l0.1-0.1c2.9-3.4,6.4-5.4,10.4-6.1c2.5-0.4,11.2-1,17.1,8.6l5.5,9l-11.9,12.7c-5.1,5.4-10,10.7-15,15.9
			C357.5,540.3,353.7,542.3,349.9,542.9z"/>
		<path class="st4" d="M369.8,507.2c-6.7,7.1-13.1,14-19.6,20.8c-0.8,0.8-2.5,1.6-3.5,1.3c-8-1.9-15.9-4.1-24-6.2
			c3.1-4.6,2.5-10.2,1.5-16c-2.5-14.5-4.8-29.1-7.4-43.6c-0.5-2.8,0-4.4,2.4-6.3c6.4-5,12.4-10.5,19.1-16.2
			c8.5,6.6,17.5,13.5,26.7,20.7c-7.9,9-15.4,17.7-23.3,26.2c-2.3,2.5-3.1,4.9-2.1,8c0.4,1.2,0.6,2.5,0.6,3.7
			c-0.3,8.2,3.6,12.3,11.8,13.4c3.6,0.5,6.2,0.8,8.6-2.3c1.1-1.5,2.7-2.6,4-4C366.5,504.3,368.1,504.4,369.8,507.2z M337.4,485.6
			c4.8-5.5,9.1-10.4,13.5-15.5c-6.1-4.6-11.9-9-18.5-14C334.2,466.3,335.7,475.4,337.4,485.6z"/>
		<path d="M251.3,559.3c-2.1,0.4-5.4,0.5-8.8-0.6c-10.8-3.7-18.3-12.6-20.5-24.3c-2.6-14-5.2-28.8-7.9-45.2l-0.1-0.9
			c-0.1-0.9-0.3-2-0.5-2.8l-15.9-6.8l11.4-14.3l19.9-24.8l41.5,27.6l-11.5,10.9c0.1,0.6,0.3,1.3,0.4,1.9c0.2,1.1,0.4,2.2,0.6,3.3
			l0.8,4.8c1.3,8.3,2.7,16.7,4.2,25.1l18.8,14.4l-9.3,11.1l-3.2,3.9c-3.1,3.8-6.4,7.7-9.7,11.4C258.1,557.5,254.1,558.8,251.3,559.3
			z"/>
		<path class="st4" d="M219.7,473.2c4.2-5.3,7.9-9.9,12-15c5.4,3.6,10.6,7.1,16.5,11c-5.4,5.1-3,10.8-2,16.4c2,12.5,4,25.1,6.4,37.5
			c0.5,2.6,2.3,4.9,3.8,7.9c1.9-1.8,2.8-2.6,4-3.7c1,0.8,2,1.5,3.3,2.6c-4.3,5.2-8.4,10.2-12.6,14.9c-0.8,0.8-2.8,1.2-4,0.8
			c-6.5-2.2-10.2-7.2-11.4-13.8c-2.8-14.9-5.4-29.9-7.9-44.9C226.8,481.4,226.3,476,219.7,473.2z"/>
		<polygon points="218.4,461 219.8,419.1 267.6,411.1 241.9,468.5 		"/>
		<path class="st4" d="M232.5,450.8c0.2-6.8,0.5-13.6,0.7-20.4c3.8-0.6,7.1-1.2,11.2-1.9c-3.6,8-6.9,15.4-10.2,22.8
			C233.7,451.1,233.1,451,232.5,450.8z"/>
		<path class="st10" d="M135,142.4L135,142.4c4.4,0,8.7,0,13.2,0c0,4.8,0,9.6,0,14.6l0,0l0,0c-4.3,0-8.6,0-13.2,0
			C135,152.1,135,147.4,135,142.4L135,142.4 M117.6,136.3v15.3h13v13c0,2.9,1.4,3.8,3.4,3.8c3.8,0,9.6-3.8,9.6-3.8v21.6h13l0.4-14.2
			c-2.7,0-5.5,0-8.3,0c0-4.8,0-9.6,0-14.6l0,0l0,0c2.9,0,5.9,0,8.8,0L158,138c-1.2,0-2.4,0-3.6,0C134.2,138,117.6,136.3,117.6,136.3
			"/>
		<path class="st4" d="M157.4,157.4c-2.9,0-5.8,0-8.8,0l0,0c0,5,0,9.7,0,14.6c2.8,0,5.6,0,8.3,0L157.4,157.4"/>
		<path class="st4" d="M148.2,142.4c-4.5,0-8.8,0-13.2,0l0,0c0,4.9,0,9.7,0,14.6c4.6,0,9,0,13.2,0l0,0
			C148.2,152.1,148.2,147.3,148.2,142.4"/>
		<path class="st10" d="M255.8,136.3v15.3h15.5c0-3.1,0-6.1,0-9.2l0,0l0,0c4.4,0,8.8,0,13.5,0c0,4.8,0,9.6,0,14.6
			c4.6,0,8.9,0,13.4,0c0,5.1,0,10,0,15l0,0l0,0c-4.4,0-8.7,0-13.4,0c0-5,0-9.7,0-14.7c-3.9,0-7.7,0-11.7,0v7.3c0,2.9,1,3.8,2.2,3.8
			c2.6,0,6.4-3.8,6.4-3.8v21.6H299l-0.7-48.2c-1.2,0-2.4,0-3.6,0C274.4,138,255.8,136.3,255.8,136.3"/>
		<path class="st4" d="M284.8,142.5c-4.7,0-9,0-13.5,0l0,0c0,3.1,0,6.1,0,9.2h1.8v5.7c3.9,0,7.8,0,11.7,0c0,5.1,0,9.7,0,14.7
			c4.7,0,9,0,13.4,0l0,0c0-5,0-9.8,0-15c-4.5,0-8.8,0-13.4,0C284.8,152,284.8,147.3,284.8,142.5"/>
		<path class="st11" d="M289.7,97.2L263.4,112L223.9,98C223.9,98,261.6,88.5,289.7,97.2"/>
		<path class="st2" d="M263.7,115.9l-52.1-18.6l11.4-2.8c1.6-0.4,39-9.6,67.7-0.7l7.9,2.4L263.7,115.9 M237.5,99l25.6,9.1l17-9.6
			C265,95.9,248.5,97.4,237.5,99"/>
		<path class="st7" d="M277.1,95.8l-49.3,16.6l-28.4-18C199.4,94.5,249.1,87.2,277.1,95.8"/>
		<path class="st2" d="M227.4,116.4l-38-24.1l9.5-1.4c2.1-0.3,50.9-7.3,79.3,1.5l10.5,3.2L227.4,116.4 M209.8,96.8l18.5,11.7
			l35.4-12C245.2,94,222.5,95.5,209.8,96.8"/>
		<path class="st12" d="M112.1,127.3C112.1,127.3,112.1,127.4,112.1,127.3C112.1,127.4,112.1,127.4,112.1,127.3L112.1,127.3
			 M333.8,116.2c0.5,1.5,0.9,3,1.3,4.5l0,0C334.7,119.3,334.3,117.8,333.8,116.2L333.8,116.2"/>
		<path class="st5" d="M329.3,114c0.6,1.7,1.1,3.5,1.6,5.3c1.5,0.5,2.9,1,4.2,1.5c-0.4-1.5-0.8-3-1.3-4.5
			C332.5,115.5,331,114.7,329.3,114 M158,109.6c-5.5,2.3-10.6,4.8-15,7.1c4.5-1.4,9.3-2.9,14.1-4.3
			C157.4,111.4,157.7,110.5,158,109.6 M302.4,104.7c0.9,1.8,1.7,3.7,2.5,5.6c2.4,0.8,5,1.6,7.7,2.5c-0.7-2-1.3-4-2.1-5.9
			C308,106.2,305.3,105.5,302.4,104.7"/>
		<path class="st6" d="M333.8,116.2c0.5,1.5,0.9,3,1.3,4.5c4.1,1.5,6.8,2.4,6.8,2.4c0-0.6-0.1-1.3-0.3-2
			C340.2,120,337.7,118.3,333.8,116.2"/>
		<path class="st13" d="M198,97.8c-15.3,2.7-28.8,7-40,11.8c-0.3,0.9-0.6,1.9-0.9,2.8c7.7-2.3,15.5-4.4,21.7-6.1
			c2.6-1.5,4.4-2,4.4-2c4.5-2.4,9-3.4,12.9-3.4c2.6,0,5,0.5,6.9,1.3c3.3,1.4,3,5.5,0.2,7.2l22,13.7l23.9-8.8l10.5,8.2l28.6-15.2
			c0,0,0,0,3.5-0.6c0.1,0,0.1,0,0.2,0c1.5,0,6.6,1.5,13,3.6c-0.8-1.9-1.6-3.8-2.5-5.6c-4.1-1.1-8.5-2.1-13.4-3.1l-25.2,14.3l-17-6.1
			l-19.3,6.5L198,97.8"/>
		<path class="st12" d="M196.1,100.9c-3.9,0-8.4,1-12.9,3.4c0,0-1.8,0.6-4.4,2c8.1-2.2,13.7-3.6,13.7-3.6l10.7,6.7
			c2.8-1.7,3.1-5.8-0.2-7.2C201.1,101.4,198.8,100.9,196.1,100.9"/>
		<path class="st14" d="M310.6,107c0.7,1.9,1.4,3.9,2.1,5.9c6.3,2.1,12.9,4.4,18.3,6.3c-0.5-1.8-1.1-3.5-1.6-5.3
			C324.5,111.8,318.4,109.4,310.6,107"/>
		<path d="M112.1,127.4C112.1,127.4,112.1,127.4,112.1,127.4c-1,1.7-1.4,2.7-1.4,2.7s0,0,1.6-0.8L112.1,127.4"/>
		<path class="st15" d="M226.6,78c-3.9,0-7.9,0.1-12,0.2c-40.5,1.7-66,13.5-81.6,25.5c0.3-0.1,0.5-0.2,0.8-0.3
			c1.7-0.9,3.2-1.6,4.4-1.8c0,0-1.8,0.7-4.4,1.8c-0.5,0.3-1,0.6-1.5,0.9c-6.2,4.9-10.8,9.7-14.1,13.9l0.6,5.2
			c5.8-4.3,16.2-11.3,30.9-18c18.1-8.3,45.8-17.4,80.3-17.4c2.4,0,4.8,0,7.2,0.1c1,0,2.1,0,3.1,0c9.4,0,19.2,0.5,28,2.1
			c7.6,0.4,15.3,1.5,22.4,3.7l7.9,2.4l-0.3,0.2c14.3,3.3,24.8,7,32.4,10.4C314.3,93,279.7,78,226.6,78"/>
		<path class="st6" d="M298.3,96.4l-9.3,5.3c4.9,1,9.3,2,13.4,3.1c2.9,0.8,5.6,1.5,8.2,2.3c7.8,2.4,14,4.8,18.7,7
			c1.7,0.8,3.2,1.6,4.6,2.3l0,0c3.8,2,6.3,3.8,7.8,4.9c-0.9-4-4.6-9.1-10.9-14.4C323.1,103.4,312.6,99.7,298.3,96.4 M230,87.9
			c-34.4,0-62.2,9.1-80.3,17.4c-14.6,6.7-25.1,13.7-30.9,18l-0.6-5.2c-3,3.8-5,7.1-6.1,9.2l0,0.1l0.2,2c1.7-0.8,5.4-2.6,13-6.2
			c3.8-1.8,10.2-4.1,17.6-6.4c4.5-2.4,9.5-4.8,15-7.1c11.3-4.7,24.7-9.1,40-11.8l-8.7-5.5l9.5-1.4c1.2-0.2,18.5-2.6,38.3-2.9
			C234.7,88,232.3,87.9,230,87.9"/>
		<path d="M133.9,103.3c-0.3,0.1-0.5,0.2-0.8,0.3c-0.2,0.2-0.5,0.4-0.7,0.5C132.9,103.9,133.4,103.6,133.9,103.3 M138.2,101.5
			c-1.2,0.2-2.7,0.9-4.4,1.8C136.4,102.3,138.2,101.5,138.2,101.5"/>
		<polyline class="st16" points="279.7,98.7 257.6,106.2 263.1,108.1 279.7,98.7 		"/>
		<path class="st6" d="M268.3,90.1c3.5,0.6,6.8,1.4,9.9,2.3l10.5,3.2l-9,3l-16.6,9.4l-5.5-2l-10.9,3.7l17,6.1l25.2-14.3l9.3-5.3
			l0.3-0.2l-7.9-2.4C283.5,91.6,275.8,90.5,268.3,90.1"/>
		<path class="st15" d="M240.5,95.2c-11.8,0-23.1,0.9-30.8,1.6l18.5,11.7l35.4-12C256.4,95.6,248.3,95.2,240.5,95.2"/>
		<path class="st6" d="M228.3,108.6l-18.5-11.7c7.7-0.8,18.9-1.6,30.8-1.6c7.8,0,15.8,0.4,23.2,1.4L228.3,108.6 M240.3,88
			c-1,0-2.1,0-3.1,0c-19.8,0.2-37.1,2.7-38.3,2.9l-9.5,1.4l8.7,5.5l29.4,18.6l19.3-6.5l10.9-3.7l22.1-7.5l9-3l-10.5-3.2
			c-3.1-0.9-6.4-1.7-9.9-2.3C259.5,88.6,249.7,88,240.3,88"/>
		<path class="st9" d="M157,290.2L157,290.2c-3.1,2.9-7.9,2.7-10.8-0.3l-7.1-7.5c-2.9-3.1-2.7-7.9,0.3-10.8
			c3.1-2.9,7.9-2.7,10.8,0.3l7.1,7.5C160.2,282.5,160.1,287.3,157,290.2z"/>
		<path class="st2" d="M151.8,293.8c-0.1,0-0.2,0-0.3,0c-2.5-0.1-4.7-1.1-6.4-2.9l-7.1-7.5c-1.7-1.8-2.6-4.1-2.5-6.6
			c0.1-2.5,1.1-4.7,2.9-6.4c1.8-1.7,4.1-2.6,6.6-2.5c2.5,0.1,4.7,1.1,6.4,2.9l7.1,7.5c1.7,1.8,2.6,4.1,2.5,6.6
			c-0.1,2.5-1.1,4.7-2.9,6.4C156.4,292.9,154.1,293.8,151.8,293.8z M144.7,271c-1.5,0-3,0.6-4.1,1.6c-1.2,1.1-1.8,2.6-1.9,4.2
			c-0.1,1.6,0.5,3.1,1.6,4.3l7.1,7.5c1.1,1.2,2.6,1.8,4.2,1.9c1.6,0.1,3.1-0.5,4.3-1.6s1.8-2.6,1.9-4.2c0.1-1.6-0.5-3.1-1.6-4.3
			l-7.1-7.5c-1.1-1.2-2.6-1.8-4.2-1.9L144.7,271z"/>
		<path class="st9" d="M182.3,305.5L182.3,305.5c-2,3.7-6.6,5.1-10.3,3.1l-9.1-4.9c-3.7-2-5.1-6.6-3.1-10.3c2-3.7,6.6-5.1,10.3-3.1
			l9.1,4.9C182.9,297.1,184.3,301.8,182.3,305.5z"/>
		<path class="st2" d="M175.6,311.1c-1.5,0-3-0.4-4.3-1.1l-9.1-4.9c-2.2-1.2-3.8-3.1-4.5-5.5c-0.7-2.4-0.5-4.8,0.7-7
			c1.2-2.2,3.1-3.8,5.5-4.5c2.4-0.7,4.8-0.5,7,0.7l9.1,4.9c4.5,2.4,6.2,8,3.8,12.5c-1.2,2.2-3.1,3.8-5.5,4.5
			C177.4,311,176.5,311.1,175.6,311.1z M166.5,291c-0.6,0-1.2,0.1-1.7,0.3c-1.5,0.5-2.8,1.5-3.6,2.9c-0.8,1.4-0.9,3.1-0.5,4.6
			c0.5,1.5,1.5,2.8,2.9,3.6l9.1,4.9c1.4,0.8,3.1,0.9,4.6,0.5c1.5-0.5,2.8-1.5,3.6-2.9c1.6-2.9,0.5-6.6-2.5-8.2l-9.1-4.9
			C168.5,291.2,167.5,291,166.5,291z"/>
		<path class="st9" d="M208.2,314.7L208.2,314.7c-1.3,4-5.7,6.1-9.7,4.8l-9.8-3.3c-4-1.3-6.1-5.7-4.8-9.7c1.3-4,5.7-6.1,9.7-4.8
			l9.8,3.3C207.3,306.3,209.5,310.7,208.2,314.7z"/>
		<path class="st2" d="M200.9,321.4c-1,0-2-0.2-2.9-0.5l-9.8-3.3c-2.3-0.8-4.2-2.4-5.3-4.6c-1.1-2.2-1.3-4.7-0.5-7
			c0.8-2.3,2.4-4.2,4.6-5.3c2.2-1.1,4.7-1.3,7-0.5l9.8,3.3c4.8,1.6,7.4,6.9,5.8,11.7v0C208.4,319,204.8,321.4,200.9,321.4z
			 M191.1,302.9c-0.9,0-1.8,0.2-2.7,0.6c-1.4,0.7-2.5,2-3,3.5c-0.5,1.5-0.4,3.2,0.3,4.6c0.7,1.4,2,2.5,3.5,3l9.8,3.3
			c3.1,1.1,6.6-0.6,7.6-3.8c1.1-3.2-0.6-6.6-3.8-7.6l-9.8-3.3C192.4,303,191.8,302.9,191.1,302.9z"/>
		<path class="st9" d="M289.6,303.1c2,3.7,6.6,5.1,10.3,3.1l9.1-4.9c3.7-2,5.1-6.6,3.1-10.3c-2-3.7-6.6-5.1-10.3-3.1l-9.1,4.9
			C289,294.8,287.6,299.4,289.6,303.1"/>
		<path class="st2" d="M296.3,308.7c-3.3,0-6.5-1.8-8.1-4.9c-2.4-4.5-0.7-10.1,3.8-12.5l9.1-4.9c2.2-1.2,4.7-1.4,7-0.7
			c2.4,0.7,4.3,2.3,5.5,4.5c1.2,2.2,1.4,4.7,0.7,7c-0.7,2.4-2.3,4.3-4.5,5.5l-9.1,4.9C299.3,308.3,297.8,308.7,296.3,308.7
			 M291,302.3c1.6,2.9,5.2,4,8.2,2.5l9.1-4.9c1.4-0.8,2.5-2,2.9-3.6c0.5-1.5,0.3-3.2-0.5-4.6c-0.8-1.4-2-2.5-3.6-2.9
			c-1.5-0.5-3.2-0.3-4.6,0.5l-9.1,4.9C290.5,295.7,289.4,299.4,291,302.3L291,302.3"/>
		<path class="st9" d="M263.8,312.3L263.8,312.3c1.3,4,5.7,6.1,9.7,4.8l9.8-3.3c4-1.3,6.1-5.7,4.8-9.7c-1.3-4-5.7-6.1-9.7-4.8
			l-9.8,3.3C264.6,303.9,262.4,308.3,263.8,312.3z"/>
		<path class="st2" d="M271,319.1c-3.9,0-7.5-2.4-8.7-6.3c-1.6-4.8,1-10.1,5.8-11.7l9.8-3.3c4.8-1.6,10.1,1,11.7,5.8
			c1.6,4.8-1,10.1-5.8,11.7l-9.8,3.3C273,318.9,272,319.1,271,319.1z M280.8,300.5c-0.6,0-1.3,0.1-1.9,0.3l-9.8,3.3
			c-3.2,1.1-4.9,4.5-3.8,7.6v0c1.1,3.2,4.5,4.9,7.6,3.8l9.8-3.3c3.2-1.1,4.9-4.5,3.8-7.6C285.7,302.1,283.3,300.5,280.8,300.5z"/>
		<path class="st9" d="M265.3,329.9c0-14.8-12-26.8-26.8-26.8c-14.8,0-26.8,12-26.8,26.8c0,14.8,12,26.8,26.8,26.8
			C253.3,356.7,265.3,344.7,265.3,329.9z"/>
		<path class="st2" d="M238.5,359.9c-16.5,0-30-13.5-30-30c0-16.5,13.5-30,30-30c16.5,0,30,13.5,30,30
			C268.5,346.5,255,359.9,238.5,359.9z M238.5,306.3c-13,0-23.6,10.6-23.6,23.6c0,13,10.6,23.6,23.6,23.6c13,0,23.6-10.6,23.6-23.6
			C262.1,316.9,251.5,306.3,238.5,306.3z"/>
		<path d="M238.9,350.3c-0.2-0.2-0.5-0.4-0.7-0.6c-0.5-0.8-0.9-1.6-1.5-2.3c-0.5-0.6-0.5-1,0.1-1.6c0.7-0.7,1.3-1.4,2-2.1
			c-4.8-4.4-9.5-8.7-14.2-12.9c-0.2-0.2-0.8-0.1-1,0.1c-0.9,0.9-1.8,2-2.7,3c-1-0.9-2-1.9-3.1-2.8c1.5-1.6,2.9-3.2,4.4-4.7
			c0.7-0.8,0.6-1.2-0.1-1.8c-1.2-1-2.3-2.1-3.5-3.1c0.8-0.9,1.5-1.7,2.2-2.5c0.2,0.1,0.3,0.1,0.4,0.2c0.8,0.7,1.6,1.5,2.5,2.2
			c2,1.7,1.3,1.8,3.2-0.1c0.7-0.7,0.6-1.1-0.1-1.7c-1.2-1-2.3-2.1-3.5-3.2c0.8-0.9,1.6-1.7,2.3-2.6c0.8,0.7,1.5,1.3,2.2,2
			c0.7,0.6,1.4,1.3,2.2,2c0.6-0.5,1.1-1,1.6-1.4c2.6-2.3,6-2.7,9-1.3c1.8,0.9,2.9,2.3,3,4.4c0,0.6,0,1.3,0,1.7
			c1.9-0.2,3.7-0.3,5.5-0.5c2.1,0.1,3.3,1,5.3,4.8c0,0.1-0.1,0.2,0,0.3c0.8,3,0.3,5.8-1.3,8.4c-0.5,0.9-1.2,1.8-1.9,2.8
			c1.3,1.2,2.7,2.4,4,3.7c-0.8,0.9-1.5,1.7-2.3,2.6c-1.2-1.1-2.3-2.2-3.5-3.3c-0.2-0.2-0.7-0.2-0.8-0.1c-0.7,0.6-1.3,1.4-2,2.2
			c1.5,1.3,2.8,2.5,4.1,3.7c-0.8,0.9-1.5,1.7-2.3,2.6c-1.2-1.1-2.3-2.2-3.5-3.3c-0.2-0.2-0.9-0.1-1.1,0.1
			C241.9,346.9,240.4,348.6,238.9,350.3z M243,339c1.3-1.5,2.7-2.9,3.9-4.3c0.5-0.6,1.1-1.3,1.4-2.1c0.8-1.7,0.5-3.4-0.8-4.6
			c-1.4-1.3-3.1-1.6-4.8-0.6c-2.5,1.4-4,3.9-6,5.9C238.9,335.2,240.9,337,243,339z M228.2,325.6c1.9,1.7,3.6,3.3,5.4,4.9
			c0.1,0.1,0.6,0.1,0.7-0.1c1.2-1.4,2.6-2.7,3.6-4.3c1.1-1.7,0.7-3.5-0.6-4.7c-1.3-1.2-3.2-1.4-4.7-0.1
			C231,322.5,229.7,324.1,228.2,325.6z"/>
		<path class="st17" d="M239,227l91.5,68c0,0,17.4,10.5,23.5-3.2c6.1-13.8-8.5-19.4-8.5-19.4l-99.6-49.8
			C245.9,222.6,239.8,219.3,239,227"/>
		<path class="st2" d="M343.3,302.2c-7.2,0-14.1-4.1-14.5-4.3l-0.3-0.2l-93-69.1l0.2-1.8c0.5-4.4,2.5-6.4,4.1-7.2
			c3.4-1.8,7.1,0,7.5,0.3l99.4,49.7c1.2,0.5,8,3.6,10.7,10.2c1.7,4.1,1.5,8.7-0.6,13.5c-1.9,4.3-4.8,7.1-8.8,8.3
			C346.6,301.9,344.9,302.2,343.3,302.2 M332.3,292.4c2.4,1.4,9.1,4.4,13.9,2.9c2.1-0.7,3.7-2.2,4.8-4.7c1.4-3.2,1.6-5.9,0.6-8.4
			c-1.9-4.5-7.2-6.7-7.3-6.8l-0.3-0.1l-99.6-49.8c-0.6-0.3-1.3-0.4-1.5-0.3c0,0-0.2,0.2-0.3,0.5L332.3,292.4"/>
		<path class="st18" d="M358,287.4c0-7.6-6.2-13.8-13.8-13.8c-7.6,0-13.8,6.2-13.8,13.8c0,7.6,6.2,13.8,13.8,13.8
			C351.8,301.2,358,295,358,287.4"/>
		<path class="st2" d="M344.2,304.5c-9.4,0-17-7.6-17-17.1s7.6-17,17-17s17.1,7.6,17.1,17S353.6,304.5,344.2,304.5 M344.2,276.9
			c-5.8,0-10.6,4.7-10.6,10.6s4.7,10.6,10.6,10.6c5.8,0,10.6-4.7,10.6-10.6S350,276.9,344.2,276.9"/>
		<polyline class="st18" points="263.4,231.3 270.1,250.5 263.4,231.3 		"/>
		<polyline class="st2" points="268.6,251 261.8,231.8 264.9,230.8 271.6,250 268.6,251 		"/>
		<polyline class="st18" points="284.1,243.3 289.2,263.3 284.1,243.3 		"/>
		<polyline class="st2" points="287.7,263.7 282.5,243.7 285.6,242.9 290.8,262.9 287.7,263.7 		"/>
		<polyline class="st18" points="308.3,254.1 314.7,285.3 308.3,254.1 		"/>
		<polyline class="st2" points="313.1,285.6 306.7,254.5 309.9,253.8 316.3,285 313.1,285.6 		"/>
		<path class="st7" d="M338.4,282.4c0,0,0.4-2.9,5.6-1.4c5.2,1.5,5.4,1.3,6.1,2.1c0.7,0.8,2.4,2.4,1.5,4.4c-0.9,2,0.1,0.6-1.2,3.5
			c-1.3,2.9-4.1,3.3-5.9,3.1c-1.8-0.2-3.7,0.7-5.7-1.1c-2-1.8-2.8-3.5-2.8-5C336,286.5,338.4,282.4,338.4,282.4z"/>
		<path class="st5" d="M243.1,234.1c-0.4,0.3-0.8,0.6-1.2,0.9c11.2,11.1,36.4,36.1,54.8,53.9l4.4-2.4c1.4-0.7,2.8-1.1,4.3-1.1
			c0.9,0,1.8,0.1,2.7,0.4c2.4,0.7,4.3,2.3,5.5,4.5c1.2,2.2,1.4,4.7,0.7,7c-0.6,2-1.9,3.7-3.6,4.9c2.7,2.5,4.8,4.4,6.1,5.5
			c4.7-3.3,9.1-6.4,13.3-9.1c-0.7-0.4-1.1-0.6-1.2-0.7l-0.3-0.2l-8.4-6.2c0,0,0,0,0,0c-2.3,0-4.5-0.8-6.3-2.5
			c-1.2-1.1-2.1-2.5-2.5-4.1L243.1,234.1"/>
		<path class="st13" d="M236.1,229.3c0,0,2.1,2.1,5.7,5.7c0.4-0.3,0.9-0.6,1.2-0.9l-0.3-0.3L236.1,229.3"/>
		<path class="st6" d="M311.3,284.8c0.5,1.6,1.3,3,2.5,4.1c1.8,1.7,4,2.5,6.3,2.5c0,0,0,0,0,0L311.3,284.8"/>
		<path d="M330.1,298.5c-4.2,2.8-8.6,5.8-13.3,9.1c0.7,0.6,1.2,0.9,1.4,0.9c0,0,0,0,0,0c1.4-0.2,11.3-4.3,17-6.7
			c-1-0.7-2-1.4-2.9-2.3C331.3,299.2,330.6,298.8,330.1,298.5"/>
		<path class="st19" d="M305.4,288.6c-1,0-2,0.2-2.8,0.7l-3.5,1.9c3.4,3.3,6.5,6.2,9.2,8.8l0,0c1.4-0.8,2.5-2,2.9-3.6
			c0.5-1.5,0.3-3.2-0.5-4.6c-0.8-1.4-2-2.5-3.6-2.9C306.6,288.6,306,288.6,305.4,288.6"/>
		<path class="st6" d="M305.4,285.4c-1.5,0-3,0.4-4.3,1.1l-4.4,2.4c0.8,0.8,1.6,1.6,2.4,2.3l3.5-1.9c0.9-0.5,1.9-0.7,2.8-0.7
			c0.6,0,1.2,0.1,1.7,0.3c1.5,0.5,2.8,1.5,3.6,2.9c0.8,1.4,0.9,3.1,0.5,4.6c-0.5,1.5-1.5,2.8-2.9,3.6l0,0c0.8,0.8,1.7,1.6,2.4,2.3
			c1.7-1.2,3-2.9,3.6-4.9c0.7-2.4,0.5-4.8-0.7-7c-1.2-2.2-3.1-3.8-5.5-4.5C307.2,285.5,306.3,285.4,305.4,285.4"/>
		<path class="st6" d="M242.8,233.9l0.3,0.3l68.2,50.7l8.9,6.6l8.4,6.2l0.3,0.2c0.1,0,0.5,0.3,1.2,0.7c0.5,0.3,1.3,0.6,2.1,1
			c-2-2-3.5-4.4-4.3-7.2l-11.7-8.1l0.1,0.7l-1.6,0.3l-1.6,0.3l-0.8-3.9L242.8,233.9"/>
		<path class="st6" d="M327.9,292.4c0.8,2.7,2.3,5.2,4.3,7.2c0.9,0.9,1.9,1.6,2.9,2.3c2.4-1,4-1.7,4-1.7L327.9,292.4"/>
		<line class="st20" x1="314.7" y1="285.3" x2="314.7" y2="285.3"/>
		<polyline class="st6" points="312.3,281.7 313.1,285.6 314.7,285.3 316.3,285 316.1,284.3 312.3,281.7 		"/>
		<polyline class="st21" points="251.2,228.9 263.6,236.8 262.9,234.7 251.2,228.9 		"/>
		<polyline class="st6" points="242.9,223.5 251.2,228.9 262.9,234.7 262.4,233.4 242.9,223.5 		"/>
		<polyline class="st21" points="267,236.7 267.9,239.6 284.1,249.9 282.7,244.6 267,236.7 		"/>
		<polyline class="st6" points="266.5,235.5 267,236.7 282.7,244.6 282.5,243.7 282.7,243.7 266.5,235.5 		"/>
		<polyline class="st21" points="286.5,246.5 288.1,252.4 309.1,265.9 307.2,256.9 286.5,246.5 		"/>
		<polyline class="st6" points="286.2,245.4 286.5,246.5 307.2,256.9 307.1,256 286.2,245.4 		"/>
		<path class="st21" d="M310.9,258.7l2,9.6l15.5,9.9l2.9-1.9c1.6-1.9,3.7-3.4,5.9-4.4L310.9,258.7"/>
		<path class="st6" d="M310.7,257.8l0.2,0.9l26.3,13.2c0.2-0.1,0.5-0.2,0.7-0.3L310.7,257.8"/>
		<path class="st6" d="M337.9,271.6c-0.2,0.1-0.5,0.2-0.7,0.3c-2.3,1-4.3,2.6-5.9,4.4l6.9-4.6L337.9,271.6"/>
		<polyline class="st6" points="262.4,233.4 262.9,234.7 263.6,236.8 267.9,239.6 267,236.7 266.5,235.5 262.4,233.4 		"/>
		<polyline class="st6" points="282.7,243.7 282.5,243.7 282.7,244.6 284.1,249.9 288.1,252.4 286.5,246.5 286.2,245.4 282.7,243.7 
					"/>
		<polyline class="st6" points="307.1,256 307.2,256.9 309.1,265.9 312.8,268.3 310.9,258.7 310.7,257.8 307.1,256 		"/>
		<circle class="st22" cx="349.6" cy="285.7" r="1.1"/>
		<circle class="st22" cx="340.1" cy="292.1" r="1.1"/>
		<circle class="st22" cx="346.4" cy="292.1" r="1.1"/>
		<path class="st22" d="M344.3,282.5c0-0.6-0.5-1.1-1.1-1.1c-0.6,0-1.1,0.5-1.1,1.1c0,0.6,0.5,1.1,1.1,1.1
			C343.8,283.6,344.3,283.1,344.3,282.5z"/>
	</g>
</g>
</svg>
