<?xml version="1.0" encoding="utf-8"?>
<!-- Generator: Adobe Illustrator 25.4.1, SVG Export Plug-In . SVG Version: 6.00 Build 0)  -->
<svg version="1.1" id="Layer_1" xmlns="http://www.w3.org/2000/svg" xmlns:xlink="http://www.w3.org/1999/xlink" x="0px" y="0px"
	 viewBox="0 0 512 512" style="enable-background:new 0 0 512 512;" xml:space="preserve">
<style type="text/css">
	.st0{fill:#FFFFFF;stroke:#C6C6C6;stroke-width:0.6568;stroke-miterlimit:10;}
	.st1{fill:#662D91;stroke:#000000;stroke-width:5.2544;stroke-miterlimit:10;}
	.st2{fill:#8253A5;}
	.st3{opacity:0.3;}
	.st4{fill:#FFFFFF;stroke:#000000;stroke-width:5.9112;stroke-miterlimit:10;}
	.st5{fill:#9BC3D1;}
	.st6{fill:#DAE9EE;}
	.st7{fill:#8E8E8E;}
	.st8{fill:#A0A0A0;}
	.st9{fill:#B4B4B4;}
	.st10{opacity:0.5;fill:#D6D6D6;}
	.st11{opacity:0.3;fill:#D6D6D6;}
	.st12{fill:#C6DDE5;}
	.st13{opacity:0.6;fill:#FFFFFF;}
	.st14{fill:none;stroke:#000000;stroke-width:5.9112;stroke-miterlimit:10;}
	.st15{fill:#FFFFFF;stroke:#000000;stroke-width:4.2735;stroke-miterlimit:10;}
	.st16{fill:#FFFFFF;stroke:#000000;stroke-width:4.1726;stroke-miterlimit:10;}
	.st17{fill:none;stroke:#000000;stroke-width:4.5976;stroke-miterlimit:10;}
	.st18{fill:#FFFFFF;}
	.st19{fill:none;stroke:#000000;stroke-width:2.6272;stroke-miterlimit:10;}
	.st20{fill:none;stroke:#000000;stroke-width:1.9704;stroke-miterlimit:10;}
	.st21{fill:#FFFFFF;stroke:#000000;stroke-width:1.9704;stroke-miterlimit:10;}
	.st22{fill:#FFFFFF;stroke:#000000;stroke-width:2.0509;stroke-miterlimit:10;}
	.st23{fill:#FFFFFF;stroke:#000000;stroke-width:2.6272;stroke-miterlimit:10;}
	.st24{fill:#FFFFFF;stroke:#000000;stroke-width:2.287;stroke-miterlimit:10;}
	.st25{fill:none;stroke:#000000;stroke-width:1.3136;stroke-linecap:round;stroke-linejoin:round;stroke-miterlimit:10;}
	.st26{fill:none;stroke:#FFFFFF;stroke-width:2.6272;stroke-miterlimit:10;}
	.st27{fill:none;stroke:#000000;stroke-width:3.284;stroke-miterlimit:10;}
	.st28{fill:none;stroke:#000000;stroke-width:2.6272;stroke-linecap:round;stroke-linejoin:round;stroke-miterlimit:10;}
	.st29{fill:#FFFFFF;stroke:#FFFFFF;stroke-width:2.0509;stroke-miterlimit:10;}
</style>
<g>
	<path id="XMLID_256_" class="st0" d="M489.9,236l-0.6-3.3c-0.4-2.4-1.8-4.6-3.8-6l-1.6-1.1c-2.1-1.5-4.5-2.4-7.5-3.4
		c-2.2-0.7-4.6-1.4-7.1-2c-2.3-0.6-4.4-1.1-6.6-1.6c-2.7-0.6-3.3-0.8-3.4-0.9l-1.1-0.3c-0.9-0.3-1.7-0.4-2.6-0.4
		c-0.5,0-1.1,0-1.6,0.1l-3.1,0.6c-1.7,0.3-3.3,1.1-4.5,2.3l-3.6,3.3c-1.3,1.2-2.2,2.6-2.6,4.3l-0.4,1.3c-0.8,2.6-1.5,6-2.1,10.2
		c-0.6,3.7-1.2,7.6-1.7,11.7c-0.6,4-1.1,8.1-1.7,12.3c-0.3,1.9-0.5,3.8-0.8,5.7c-0.3-5.4-0.9-10.7-1.8-15.8l-0.7-3.8
		c-0.4-2.5-1.8-4.7-3.9-6.1l-1.6-1.1c-1.9-1.3-3.7-1.9-7-2.8c-2.1-0.6-4.4-1.1-6.9-1.6c-2-0.4-4-0.8-5.8-1.2
		c-2.9-0.6-3.9-0.8-4.7-0.9l-0.7-0.1c-0.4-0.1-0.9-0.1-1.3-0.1c-0.5,0-1.1,0-1.6,0.1L394,236c-1.9,0.3-3.6,1.3-5,2.7l-0.2,0.2
		c-1.7-1-3.7-1.9-6.1-2.5c-2.9-0.8-6.3-1.2-10.3-1.4c-3.1-0.2-6.4-0.3-9.9-0.3l-0.9,0c-3.8,0-7.4,0.1-10.7,0.2
		c-3.5,0.1-6.7,0.3-9.5,0.6c-3.2,0.3-5.1,0.5-6.5,0.8c-2,0.4-5,1-9.5,2.1c-4.3,1-8.9,2.3-13.5,3.6c-4.5,1.3-8.8,2.6-12.6,3.8
		c-1.4,0.4-2.6,0.8-3.7,1.2c-0.2-0.2-0.4-0.4-0.7-0.6c-2.9-14.3-9.3-42.5-19.4-73.1c0.3,0,0.5,0,0.8,0c7.5,0,13.3-1.9,17.2-5.5
		c2.9-2.7,6.5-7.8,5.4-15.9c4.4-0.6,8.2-2.1,11.4-4.3c4.5-3.1,9.8-9.2,9.8-20.5c0-5.2-1.5-9.9-4.2-14c0.6-0.4,1.2-0.8,1.7-1.2
		c8-5.9,12.3-13.9,12.6-22.9c0.5-17.8-14.9-32.1-19.6-36c-6-5-13.9-7.8-22.2-7.8c-9,0-22.9,3.2-37.9,18.4c-2.3,2.3-8,8.1-12.1,29.5
		c-4.7-6.9-9.6-12.8-14.6-17.9c0.4-0.3,0.8-0.6,1.2-0.9l2.4-2.3c3.7-3.6,3.8-9.4,0.3-13.1c-2.4-2.6-8.8-8.8-16.6-13
		c1-0.4,2-0.9,2.9-1.6c1.9-1.6,3.1-3.8,3.3-6.3l0.3-3.3c0.5-5.1-3.2-9.6-8.3-10.1c-0.1,0-9.5-0.9-15.3-2.1c-4.7-1-11-2.5-11.8-2.7
		l-0.3-0.1c-0.7-0.2-1.4-0.3-2.2-0.3c-0.5,0-1,0-1.6,0.1L167,21.1c-5,0.9-8.4,5.7-7.5,10.7l0.6,3.3c0.4,2.4,1.8,4.6,3.8,6
		c0.5,0.3,1,0.6,1.5,0.9l-9.3,3.3c-2.3,0.8-4.2,2.5-5.3,4.7c-1.1,2.2-1.2,4.8-0.4,7.1l0.3,0.9c-4,1.3-8.1,2.8-12.3,4.6
		c-16.1,7-33.4,17.9-48.8,30.9c-10.6,8.9-45.2,40.2-44.4,67.8c0,1.5,0.2,3,0.3,4.6c-1.6-2.1-4.1-3.6-7-3.7l-3.3-0.1
		c-0.1,0-0.2,0-0.3,0c-4.9,0-9,3.9-9.2,9c-0.2,5.6-0.1,22.6,7.8,32.4c-1.7,0-3.4,0.5-4.9,1.5l-2.7,1.8c-2,1.3-3.5,3.5-4,5.9
		c-0.5,2.4,0,4.9,1.3,7c0,0,3.1,4.8,6.6,10.4c2.6,4.1,5.9,9.8,6.3,10.4l0.2,0.3c0.6,1.1,1.5,2,2.5,2.8l9.2,6.7
		c0.2,0.2,0.5,0.3,0.7,0.5c-14.4,12.9-17.6,29-13.3,41.7c0.9,2.6,3.8,10.6,9.3,17.9c-0.4,1.1-0.8,2.2-1.2,3.4
		c-2.5,6.9-4.1,14.1-4.5,21.3l0,0.6c0,0.8,0,1.5,0.1,2.3l0.1,0.4c0,0.3,0.1,1.6,0.1,5c0,3.6,0,7.7,0,12.1c0,4.6,0.1,9.2,0.2,13.8
		c0.2,5.1,0.5,9.2,1.1,12.4c1.1,6.3,4.7,11.8,10.4,15.7c3.5,2.5,7.7,4.7,12.5,6.6c1.3,0.5,2.6,1,4,1.5c-3.7,1.7-7.9,5.4-9.9,13.3
		c-0.9,3.4-1.6,7.2-2,11.2c-0.4,3.9-0.6,7.7-0.6,11.2c0,4.1,0.2,6.9,0.6,9.1c1.5,8.2,6.6,15.1,14.4,19.3c5.5,3,11.7,5,18.3,6.2
		c6.2,1.1,12.3,1.6,18.2,1.6h0.4c5.9,0,11-0.4,15.2-1.1c2.6-0.5,5.5-1.4,8.4-2.6c4.8-2.1,8.6-5.6,11-10.1c0.1-0.1,0.1-0.2,0.2-0.3
		l0.1-0.1c1.2-2.4,2.3-5.3,3.5-8.9c0.1,0.1,0.2,0.2,0.3,0.4l0.4,0.6c0.6,0.8,1.3,1.5,2.1,2l2,1.4c1.4,1,3.1,1.6,4.8,1.7l23.8,1.2
		c0.1,0,0.3,0,0.4,0c0.5,0,1.1,0,1.6-0.1l3.1-0.6c2.7-0.5,5-2.2,6.4-4.6l2.5-4.5c0.7-1.3,1.1-2.8,1.2-4.3l0-1.1
		c0.3-10.1,0.3-20.4-0.3-30.6c-0.5-10.5-1.7-21-3.6-31.4l-0.8-4.3c-0.2-0.9-0.3-1.9-0.4-3l-0.1-0.8c-0.1-1.1-0.3-2.1-0.8-3.1l0-0.1
		l-0.3-1.6c0.2-0.1,1.1-0.4,1.4-0.4c0.6,1.4,1.1,2.9,1.5,4.4c0,0,0,0,0,0.1c5.7,18.9,11.2,38.5,16.1,58.3l0.8,3
		c0.9,3.6,3.9,6.4,7.6,6.9l3.1,0.4c2.1,0.3,4.4,0.5,7,0.5c0.8,0,1.7,0,2.6-0.1c2.9-0.1,5.9-0.3,8.8-0.5c2.8-0.2,5.8-0.4,8.7-0.7
		c2.4-0.2,4.3-0.3,5.9-0.4l2.4,0c0.3,0,0.6,0,0.9-0.1l8.7,45.1c0.9,4.4,4.7,7.5,9,7.5c0.6,0,1.2-0.1,1.8-0.2l2.6-0.5
		c2.4-0.5,4.5-1.9,5.9-3.9c0,0,0,0,0-0.1c0.9-0.6,1.7-1.4,2.3-2.4c1.4-2,1.9-4.6,1.4-7l-8.6-44.3c0.3,0.1,0.5,0.1,0.8,0.2
		c1.8,0.4,3.9,0.6,6.3,0.6c0.7,0,1.5,0,2.2,0c0.4,0,0.9,0,1.4-0.1l5.6,20.5c0.7,2.4,2.2,4.4,4.3,5.6c1.4,0.8,3,1.2,4.5,1.2
		c0.8,0,1.7-0.1,2.5-0.3l2.5-0.7c0.7-0.2,1.3-0.5,1.9-0.8l0.6-0.2c4.9-1.4,7.8-6.5,6.4-11.4l-4.5-16.3c2.5-0.4,4.9-0.8,7.3-1.2
		c0.1,0.1,0.2,0.2,0.3,0.4l0.6,0.7c2.3,2.7,5.7,4.3,9.2,4.3c2.1,0,4.2-0.6,6.1-1.6l1.2-0.7c3.4-2,5.5-5.4,6-9.1c1.4,3.6,4.8,6,8.6,6
		c0.5,0,1.1,0,1.6-0.1l33.5-6.1c4.3-0.8,7.5-4.6,7.6-9l0.1-3.8c0-1.7-0.1-3.6-0.5-5.4l-0.6-3.4c-0.8-4.4-1.6-8.8-2.5-13.1
		c1.4-0.1,2.9-0.5,4.2-1.2l4.4-2.6c4.4-2.5,5.9-8.1,3.5-12.6l-2-3.7c-0.9-1.7-2.4-3.1-4.1-3.9l0.7-1.8c0.9-2.3,0.9-4.9-0.1-7.1
		c-1-2.3-2.8-4.1-5-5l-10.2-4.1c-1.8-10.7-3.2-21.5-4.3-32.2c-1-10.2-2.3-20.5-3.9-30.6l1.6-0.1c0.3,0,0.5-0.1,0.8-0.1l2.2-0.4
		c-0.3,10.1,0.3,20.2,1.9,30l0.1,0.5c0.1,0.7,0.3,1.3,0.6,2l2.5,6.1c0.7,1.8,2,3.3,3.6,4.4l1.3,0.8c3,1.9,6.1,3.4,9.4,4.4
		c2.5,0.8,5.1,1.5,7.8,2c1.2,0.3,2.3,0.5,3.5,0.7c0,0.1,0,0.2,0,0.3c0.2,4.5,0.5,9.3,0.8,14.5c0.3,5.3,0.7,10.8,1.2,16.4
		c0.5,5.9,1.4,11.5,2.4,16.6c1.2,5.5,2.7,10.4,4.6,14.6c2.9,6.5,7.4,11.2,13.1,13.6c0.2,0.1,0.3,0.1,0.5,0.2l0.5,0.2
		c0.2,0.1,0.3,0.1,0.5,0.2c1.7,0.5,3.5,0.7,5.4,0.7c1.8,0,3.8-0.2,6.1-0.6c3.1-0.6,6.3-1.4,9.5-2.3c2.7-0.8,3.7-1.1,3.9-1.1
		c5.7-1.1,9.8-5.1,12.3-11.9c0.9-2.4,1.7-5.2,2.4-8.3c0.7-3.1,1.2-6.1,1.6-9.1c0.4-4,0.4-6.9,0-9.4c-1.6-8.9-3.2-17.6-4.9-26.1
		c-0.9-4.7-1.7-9.7-2.2-14.9c1.6-0.9,3.1-2,4.5-3.2c0.1,0,0.1-0.1,0.2-0.1c0,0,0.3-0.2,0.3-0.3c2.7-2.6,4.6-6.2,6.6-12.7
		c1.3-4.1,2.6-9.1,3.8-14.8c1.2-5.6,2.4-11.7,3.5-18.2c1-6.3,2-12.4,2.8-18.3c0.9-6,1.5-11.3,1.8-15.8
		C490.5,240.9,490.3,238,489.9,236z M319.1,345.6c0-0.2,0.1-0.3,0.1-0.5l4.4,2.1l0.9,4.8c-0.2-0.5-0.4-0.9-0.6-1.3l-0.3-0.6
		C322.5,348.2,321,346.7,319.1,345.6z M318.6,378.4L315,373c0-0.3-0.1-0.6-0.1-1c0.1,0.1,0.3,0.3,0.4,0.4l6.2,5.5
		c-0.7,0.1-1.4,0.2-2.1,0.4L318.6,378.4z M65,239c1.8,0,3.6-0.5,5.1-1.6l2.7-1.8c2-1.4,3.4-3.5,3.9-5.9c0.5-2.4,0-4.9-1.4-7
		l-0.9-1.4c4.2,5.1,9,10.3,14.1,15.7c-2.6-0.2-5-0.4-7.3-0.4c-6,0-10.9,0.9-14.8,2.6c-0.7,0.3-1.3,0.6-2,0.9c0-0.4,0-0.8,0-1.2
		C64.6,239,64.8,239,65,239z M101.8,356.2c0-0.1,0-0.1,0-0.2l10.2,3.3c0.9,0.3,1.9,0.4,2.8,0.4c2.3,0,4.6-0.9,6.4-2.6l3.2-3.2
		c0.9-0.9,1.6-1.9,2.1-3l0.1-0.3l1,7.7c0,0.1,0,0.3,0.1,0.4l1.3,7.3c0,0.1,0,0.2,0.1,0.3l0.7,3.1c-2.8-1.2-5.8-2.3-8.9-3.5
		c-4-1.5-7.7-2.9-11.2-4.3c-2.9-1.1-5.4-2.3-7.4-3.5C102,357.7,101.9,357,101.8,356.2z M55,193.5c-1.5-1.5-3.1-2.9-4.9-4.1
		c-1.3-1.7-2.6-7.9-2.8-14.3C49,181,51.5,187.1,55,193.5z"/>
	<g id="XMLID_46_">
		<path id="XMLID_222_" class="st1" d="M251.8,407.4c-1.1-4.2-2.1-8.2-3.2-12.1c-1.2-4.6-1.7-6.8-1.9-7.8l-1.5-8.5
			c-0.7-3.9-1.5-8.1-2.5-12.4c-0.9-4.3-2-8.3-3-12c-1.1-3.8-2.1-6.2-3.2-7.8c-0.5-1.2-1.4-3.5-2.6-7.8c-1.2-4.1-2.6-8.7-4.2-13.9
			c-1.6-5.1-3.2-10.5-4.8-16c-1.7-5.6-3.3-10.8-5-15.4c-1.7-4.7-3.3-8.7-4.7-11.9c-1.5-3.3-3.5-6.7-6.9-7.5
			c-0.7-0.2-1.9-0.4-5.1-0.8c-2.3-0.2-4.7-0.5-7.3-0.7c-2.5-0.2-4.9-0.4-7.3-0.6c-3.3-0.2-4.3-0.2-5.1-0.1
			c-3.8,0.7-8.1,1.9-12.8,3.6c-4.6,1.6-9.3,3.5-14,5.6c-4.6,2-9.2,4.2-13.8,6.4c-4.5,2.2-8.4,4.3-11.5,6.1l-2.6,1.6l7.8,60l1.3,7.2
			l3,13.9l1.2,6.9c0.2,0.9,0.3,1.7,0.4,2.6c-1-1.2-2.3-2.4-3.9-3.5c-2.7-1.8-5.9-3.5-9.6-5.1c-3.5-1.6-7.4-3.1-11.6-4.6
			c-4-1.5-7.9-2.9-11.4-4.3c-3.4-1.3-6.4-2.7-8.8-4.1c-2.4-1.3-3.1-2.3-3.2-2.6c-0.7-1.7-1.2-3.7-1.5-6.1c-0.3-2.7-0.7-5.7-1-8.8
			c-0.3-3.1-0.6-6.1-0.8-8.9c0,0,0-0.1,0-0.1c0,0.1,0,0.2,0.1,0.3l0.3,1.9l3.5,2.4l20,6.4l3.2-3.1l0.4-0.8c0.2-0.4,0.5-1.3,1.6-4.1
			c0.8-2.1,1.5-4.4,2.2-6.6c0.6-2.2,1.2-4.3,1.7-6.2c0.3-1.2,0.7-2.6,0.6-4c0.2-0.8,0.4-1.8,0.6-3.1c0.3-1.8,0.6-3.8,0.8-5.9
			c0.2-1.9,0.4-3.7,0.6-5.3c0.2-2.2,0.3-3.6,0.1-4.7c-0.7-3.9-3.5-7.2-8.2-9.7c-3.8-2-8.3-3.7-13.4-4.8c-5-1.1-10.3-1.8-15.9-1.9
			c-5.6-0.2-10.7,0.2-15.1,1c-3.5,0.6-6.6,1.6-9.1,2.9c-3.1,1.6-5.2,3.7-6.3,6.2l-0.1,0.1c-2.2,5.5-4.4,11.1-6.5,16.8
			c-2.2,6-3.6,12.2-4,18.5l0,0.6l0.1,0.6c0.1,0.3,0.2,1.6,0.3,6.3c0,3.6,0,7.7,0,12c0,4.4,0.1,8.9,0.2,13.3c0.2,4.6,0.5,8.2,1,10.9
			c0.7,3.9,2.9,7.1,6.6,9.6c2.9,2,6.5,3.9,10.6,5.5c3.9,1.5,8.1,2.9,12.6,4.1c4.2,1.1,8.1,2.3,11.7,3.5c3.4,1.1,6.3,2.4,8.6,3.7
			c1.3,0.8,2.1,1.6,2.2,2.2c0,0.3,0.2,1.1,0.1,3.2c-0.1,1.7-0.2,3.6-0.4,5.5c-0.1,1-0.2,1.9-0.4,2.9c-0.8-1-2-1.8-3.8-2.1
			c-4-1.2-7.9-2.2-11.7-2.8c-3.6-0.6-7.3-1.3-11-2.2l-0.9-0.2l-0.9,0.2c-3.1,0.6-5.3,3.2-6.5,7.7c-0.8,2.9-1.3,6.2-1.7,9.7
			c-0.4,3.5-0.6,6.9-0.6,10.1c0,3.4,0.1,5.8,0.4,7.3c1,5.4,4.3,9.7,9.7,12.6c4.5,2.4,9.8,5.5,15.6,6.6c5.5,1,11.1,2.8,16.6,2.8
			c0.1,0,0.3,0,0.4,0c5.7,0,10.2-1.7,13.6-2.3c2-0.4,4.2-1.7,6.4-2.7c2.9-1.2,5.1-3.6,6.5-6.3l0.1-0.3c1.6-3.1,3.1-7.6,4.7-13.6
			c1.6-5.7,3-11.8,4.2-18.1c1.2-6.3,2.1-12.6,2.8-18.5c0.1-1.1,0.2-2.2,0.3-3.2c0.4,3,0.8,6,1.1,9c1.1,9.4,2.5,19.1,4.2,28.7
			l0.3,1.7c0.3,1.4,0.8,2.7,1.7,3.8l0.4,0.6l2,1.4l23.8,1.1l3.1-0.6l2.5-4.5l0-1.1c0.3-9.7,0.3-19.7-0.2-29.5
			c-0.5-10-1.7-20-3.4-29.9l-0.8-4.3c-0.2-1.2-0.4-2.5-0.5-3.9l-0.1-0.8l-0.5-1.1l-2-11c2.8-0.6,5.5-1.4,8.3-2.3
			c3.2-1,6.4-1.9,9.6-2.5c0.4,1.8,1,3.6,1.7,5.4c1,2.3,1.9,4.8,2.7,7.4c5.8,18.9,11.2,38.4,16.2,58.1l0.8,3l3,0.4
			c2.2,0.3,4.9,0.4,7.9,0.3c2.8-0.1,5.7-0.3,8.6-0.5c2.8-0.2,5.6-0.4,8.5-0.7c2.6-0.2,4.8-0.4,6.6-0.4l2.4,0l1.3-1.9
			c1.5-2.1,1.2-4.8,0.1-9.6C253.9,415.5,252.9,411.6,251.8,407.4z M182.9,322.9c-3.3,0.4-6.6,0.8-9.8,1.4c-2,0.4-3.9,0.8-5.7,1.3
			c-0.1-0.3-0.3-0.7-0.4-1.1c-0.4-1.4-0.8-2.6-1-3.6l2.8-1.8l1-0.5c1-0.2,2.2-0.6,3.8-1.4c1.8-0.8,3.7-1.8,5.7-2.9l4.8-2.6
			c0.1,0.2,0.1,0.4,0.2,0.6c0.4,1.2,0.8,2.4,1.1,3.5c0.4,1.5,0.5,2.1,0.5,2.4l0.8,4.4C185.5,322.6,184.2,322.8,182.9,322.9z"/>
		<path id="XMLID_229_" class="st1" d="M374.2,277.4l5.6-1l3.5-2.6l0.4-1.6c0.7-2.9,1.6-6.2,2.6-9.9c1.2-4.3,1.5-8.4,0.8-12
			c-0.7-4.1-5.1-5.2-6.6-5.6c-2.3-0.6-5.1-1-8.5-1.2c-3.1-0.2-6.5-0.3-10.2-0.2c-3.7,0-7.2,0.1-10.4,0.2c-3.3,0.1-6.3,0.3-9,0.5
			c-2.8,0.2-4.6,0.5-5.7,0.7c-1.8,0.3-4.7,1-9,2c-4.2,1-8.6,2.2-13.1,3.5c-4.5,1.3-8.7,2.5-12.5,3.7c-5.6,1.7-7.3,2.6-8.3,3.3
			l-1.5,1l-0.4,1.8c-0.2,1-0.7,2.6-1.3,4.6c-0.5,1.6-1,3.3-1.5,5.1l-19.4-3.4l-3,0.5l-3.8,3.4l-0.3,1.5c-3.5,19-5.1,38.3-4.7,57.3
			l0,0.1c0.2,4.5,0.3,9.5,0.4,14.9c0.1,5.5,0.3,11.1,0.7,16.7c0.4,5.5,0.8,11.1,1.3,16.6c0.5,5.5,1.2,10.7,2.1,15.5
			c0.4,2.1,0.8,4.6,1.3,7.7c0.5,3.3,1.3,6.5,2.4,9.7c1.2,3.4,2.7,6.4,4.7,9.1c2.4,3.3,5.5,5.3,9.3,6c1.2,0.3,2.6,0.4,4.4,0.4
			c0.6,0,1.2,0,1.9,0c2.2-0.1,4.6-0.2,7.3-0.4c2.6-0.1,5.1-0.3,7.3-0.6c2.3-0.2,3.9-0.5,5-0.7c5.8-1,11.4-1.9,16.8-2.7
			c6.1-0.8,12.1-3.2,17.6-7.1l1.3-0.9l0.5-1.6c1.2-4.1,1.3-8.5,0.2-12.8c-0.8-3.2-1.2-6.5-1.2-9.8l0-3.9l-3.8-0.6
			c-2.7-0.4-5.6-0.5-8.6-0.2c-2.8,0.3-5.4,0.6-7.6,1l-4,0.7l-8,0.8l-0.7,0.1l-0.1-0.2l-0.2-1c-0.9-4.9-1.7-10.2-2.5-15.7
			c-0.8-5.7-1.5-11.5-2.2-17.2c-0.7-6-1.4-11.8-2.2-17.4c-0.8-5.7-1.6-11-2.5-15.9c-1.3-7.2-2.2-14.6-2.7-21.9
			c-0.2-3.8-0.6-7.6-1.1-11.4l27.4,0.2l11.7,64.5c4.1,22.4,9.5,45,16.2,67.1l1.2,3.9l33.5-6l0.1-3.8c0-1.1-0.1-2.3-0.3-3.6l-0.6-3.4
			c-1.5-8.4-3.3-16.8-5.2-24.9c-1.9-8-3.6-16.2-5.1-24.4c-2.3-12.5-4-25.2-5.3-37.8c-1.3-12.8-3.1-25.7-5.3-38.3l-0.1-0.8l3.4-0.6
			L374.2,277.4z"/>
		<path id="XMLID_230_" class="st1" d="M480.9,237.2l-0.6-3.3l-1.6-1.1c-1-0.7-2.4-1.3-5-2.1c-2-0.6-4.2-1.2-6.6-1.8
			c-2.3-0.6-4.4-1.1-6.5-1.6c-2.5-0.6-3.5-0.9-3.9-1l-1.1-0.3l-3.1,0.6l-3.6,3.2l-0.4,1.2c-0.7,2.2-1.3,5.1-1.9,8.9
			c-0.6,3.6-1.1,7.4-1.7,11.4c-0.6,4-1.1,8.1-1.7,12.2c-0.6,4.2-1.1,8.1-1.5,11.6c-0.4,3.6-0.8,6.3-1.1,8.4
			c-0.2,1.3-0.3,2.1-0.4,2.6c-0.1,0.1-0.3,0.2-0.6,0.4c-1.1,0.6-2.5,1.2-4.1,1.7c-1.8,0.5-3.6,1-5.4,1.4c-1.8,0.4-3.3,0.7-4.3,0.9
			l-0.3,0.1c-0.8-5.2-1.2-10.6-1.2-16.1c0-7.1-0.7-14.1-1.9-20.8l-0.7-3.8l-1.6-1.1c-0.7-0.5-1.4-0.7-4.3-1.5
			c-1.8-0.5-3.9-1-6.2-1.4c-2.1-0.4-4.2-0.8-6.1-1.2c-2.8-0.6-3.6-0.8-4-0.8l-0.7-0.1l-3.3,0.6l-3.4,3.5l-0.3,1.3
			c-2.3,10.6-3.8,21.5-4.5,32.3c-0.7,11-0.2,21.9,1.6,32.6l0.1,0.5l2.5,6.1l1.3,0.8c2.3,1.4,4.7,2.6,7.2,3.3
			c2.2,0.7,4.6,1.3,6.9,1.8c2.3,0.5,4.6,0.9,6.8,1.3c1.1,0.2,2.2,0.5,3.4,0.8c0.3,2,0.5,4.5,0.6,7.4c0.2,4.4,0.5,9.2,0.8,14.3
			c0.3,5.1,0.7,10.4,1.2,15.9c0.5,5.5,1.3,10.7,2.3,15.3c1,4.8,2.4,9.1,4,12.6c1.9,4.3,4.7,7.3,8.3,8.7l0.5,0.2
			c0.8,0.2,1.8,0.4,2.9,0.4c1.3,0,2.7-0.2,4.5-0.5c2.8-0.5,5.7-1.2,8.5-2c3.5-1,4.5-1.3,4.7-1.3c3.5-0.6,4.9-4.3,5.5-5.9
			c0.8-2,1.5-4.4,2.1-7.1c0.6-2.7,1.1-5.3,1.4-7.9c0.3-3,0.4-5.1,0.1-6.6c-1.6-8.7-3.2-17.3-4.9-25.6c-1.4-7.1-2.4-14.6-2.8-22.4
			c0.6-0.2,1.1-0.4,1.7-0.6c2.4-0.8,4.6-2,6.4-3.6l0.2-0.1c1.1-1,2.3-2.8,4.2-8.7c1.2-3.8,2.4-8.5,3.6-13.9
			c1.2-5.4,2.3-11.2,3.4-17.5c1-6.1,2-12.1,2.8-17.8c0.8-5.7,1.4-10.8,1.8-15.1C481.3,240.6,481.1,238.4,480.9,237.2z"/>
	</g>
	<path id="XMLID_208_" class="st2" d="M384,248.5c0,0,2.2,22.8-2.6,24.5c-4.8,1.8-20.1,4.8-21.5,4.4s5.7,44.7,7.9,63.1
		c1.7,14.6,18.4,69.6,14.4,72.2c-3.9,2.6-16.2,3.5-16.2,3.5s-9.2-65.2-14-95c-4.8-29.8-8.8-41.6-8.8-41.6s30.7-7,30.2-10.5
		s-1.3-18.8-1.3-18.8s-30.7-2.6-39.8-0.9C323.1,251.1,366.9,240.6,384,248.5z"/>
	<path id="XMLID_59_" class="st2" d="M252.6,428c0,0,0.9-1.8-1.3-14c-2.2-12.3-12.9-52.7-12.9-52.7L220,349.8
		c0,0,12.5,47.4,13.8,56.2c1.3,8.8,9.5,22,9.5,22H252.6z"/>
	<path id="XMLID_55_" class="st3" d="M51.4,322.7c0,0,12.6,12.6,24,8.6c11.4-4,11.4-4,11.4-4s24.6,17.3,29.6,9.2s7.9-14,8.7-15.8
		c0.8-1.8,6.4-5.2,6.4-5.2s7.4,13.9,16.6,4c9.2-9.9,16-17.6,16-17.6s7.4-0.9,11.1,1.2c3.7,2.2,27.4,14.5,27.4,18.5
		c0,4-7.7,23.1,4.6,34.5s35.9,10.5,35.5,10.3c-0.4-0.2-14-85.2-15.2-86.7c-1.2-1.5-47.4-27.4-47.4-27.4s-28.7,18.8-36.7,19.7
		c-8,0.9-52.1-2.5-52.1-2.5L74.8,294L59.1,303C59.1,303,51.4,314.7,51.4,322.7z"/>
	<path id="XMLID_169_" class="st4" d="M246.3,139.6c0,0,0.9-54.2,12.9-66.3c17-17.2,34.1-17.7,43.7-9.7s24.4,26.8,7.6,39.2
		c-6.4,4.7-21.5,9-21.5,9s19,1.9,19,15.9c0.1,21.1-30.4,9.5-30.4,9.5s14,16,7.8,21.8c-6.3,5.8-29.7-1.4-29.7-1.4L246.3,139.6z"/>
	<path id="XMLID_16_" class="st5" d="M206.8,313.9c0,0-146.7-94-148.4-153.5c-1-33.3,83.2-103.3,129.9-93.2
		c65.9,14.3,97.5,187.7,97.5,187.7S221.2,267.8,206.8,313.9z"/>
	<path id="XMLID_31_" class="st6" d="M210.6,311.2c0,0-138.3-93.3-141.7-149.6c-1.9-31.6,73.8-95.3,117.3-84.4
		c61.3,15.4,95.6,180.5,95.6,180.5S222.5,268,210.6,311.2z"/>
	<path id="XMLID_25_" class="st5" d="M288.5,257.7c1.1-2.7-0.1-3.9-2.6-5c-12.3-5.7-31.6,1-51.3,14.7
		c-19.1,13.1-28.5,32.2-28.6,45.3c0,3.3-1,0.5,2.6-0.2l20.4-4l56.5-41.8C285.2,266,287,261.3,288.5,257.7z"/>
	<path id="XMLID_18_" class="st7" d="M293.1,261c-13.4-11.3-35.6-5.5-55.9,9.9s-31.8,35.3-24.8,51l12.8,23.2l84.9-65.1
		C309.3,279,293.1,261,293.1,261z"/>
	<path id="XMLID_24_" class="st8" d="M208.9,318.2c-1.5-1.9-0.8-4.3-0.8-4.9c0.3-4.6,7-25.6,27.2-41c27.4-21,45.2-18.4,54.9-15.6
		c5,1.4,2.9,4.4,2.9,4.4s-16.7-7.6-42,7.1c-22.4,13-31.9,26-37.6,40.3c-2.5,6.9-1.5,9.3-2.2,10.3
		C210.7,319.5,209.9,319.6,208.9,318.2z"/>
	<path id="XMLID_28_" class="st8" d="M214.5,327.2c-1.7-3.3-0.8-5.7-0.7-6.4c0.3-4.6,7.1-25.4,27.2-41
		c25.4-19.8,45.2-18.4,54.9-15.6c5,1.4,2.9,4.4,2.9,4.4s-19.4-5.5-42,7.1c-22.6,12.6-32.2,27.7-37,42c-1.4,5.4-1.4,9.8-2.1,10.9
		C217.2,329.2,215.3,328.7,214.5,327.2z"/>
	
		<ellipse id="XMLID_14_" transform="matrix(0.7971 -0.6038 0.6038 0.7971 -133.8387 225.0828)" class="st9" cx="268" cy="311.7" rx="57.8" ry="37.1"/>
	
		<ellipse id="XMLID_29_" transform="matrix(0.7971 -0.6038 0.6038 0.7971 -132.7765 235.356)" class="st10" cx="283.8" cy="315.3" rx="28.4" ry="18.2"/>
	<g id="XMLID_15_">
		<path d="M236.8,326.4c-1.7,0-3-0.6-3.8-1.7c-1-1.3-1.1-3-0.3-4.9c0.7-1.7,2-3.4,3.8-4.7c2-1.5,4.3-2.4,6.3-2.4
			c1.7,0,3,0.6,3.8,1.7c1,1.3,1.1,3,0.3,4.9c-0.7,1.7-2,3.4-3.8,4.7C241.1,325.5,238.8,326.4,236.8,326.4z"/>
		<path class="st9" d="M242.7,313.7c1.3,0,2.4,0.4,3.1,1.3c1.5,2,0.1,5.7-3.2,8.2c-1.9,1.4-4,2.2-5.7,2.2c-1.3,0-2.4-0.4-3.1-1.3
			c-1.5-2-0.1-5.7,3.2-8.2C238.9,314.4,241,313.7,242.7,313.7 M242.7,311.7L242.7,311.7c-2.2,0-4.8,0.9-6.9,2.6
			c-4.3,3.2-5.8,8.1-3.6,11c1,1.3,2.7,2.1,4.6,2.1c2.2,0,4.8-0.9,6.9-2.6c1.9-1.4,3.3-3.3,4.1-5.1c0.9-2.2,0.7-4.3-0.5-5.8
			C246.3,312.4,244.7,311.7,242.7,311.7L242.7,311.7z"/>
	</g>
	<g id="XMLID_20_">
		<path d="M259.1,300.4c-1.7,0-3-0.6-3.8-1.7c-1-1.3-1.1-3-0.3-4.9c0.7-1.7,2-3.4,3.8-4.7c2-1.5,4.3-2.4,6.3-2.4
			c1.7,0,3,0.6,3.8,1.7c1,1.3,1.1,3,0.3,4.9c-0.7,1.7-2,3.4-3.8,4.7C263.5,299.5,261.2,300.4,259.1,300.4z"/>
		<path class="st9" d="M265.1,287.7c1.3,0,2.4,0.4,3.1,1.3c1.5,2,0.1,5.7-3.2,8.2c-1.9,1.4-4,2.2-5.7,2.2c-1.3,0-2.4-0.4-3.1-1.3
			c-1.5-2-0.1-5.7,3.2-8.2C261.2,288.4,263.3,287.7,265.1,287.7 M265.1,285.7L265.1,285.7c-2.2,0-4.8,0.9-6.9,2.6
			c-4.3,3.2-5.8,8.1-3.6,11c1,1.3,2.7,2.1,4.6,2.1c2.2,0,4.8-0.9,6.9-2.6c4.3-3.2,5.8-8.1,3.6-11C268.7,286.5,267,285.7,265.1,285.7
			L265.1,285.7z"/>
	</g>
	<g id="XMLID_22_">
		<path d="M285.3,331.6c-1.7,0-3-0.6-3.8-1.7c-1.9-2.5-0.4-6.7,3.4-9.6c2-1.5,4.3-2.4,6.3-2.4c1.7,0,3,0.6,3.8,1.7
			c1.9,2.5,0.4,6.7-3.4,9.6C289.6,330.8,287.3,331.6,285.3,331.6z"/>
		<path class="st9" d="M291.2,319c1.3,0,2.4,0.4,3.1,1.3c1.5,2,0.1,5.7-3.2,8.2c-1.9,1.4-4,2.2-5.7,2.2c-1.3,0-2.4-0.4-3.1-1.3
			c-1.5-2-0.1-5.7,3.2-8.2C287.4,319.7,289.5,319,291.2,319 M291.2,317L291.2,317c-2.2,0-4.8,0.9-6.9,2.6c-1.9,1.4-3.3,3.3-4.1,5.1
			c-0.9,2.2-0.7,4.3,0.5,5.8c1,1.3,2.7,2.1,4.6,2.1c2.2,0,4.8-0.9,6.9-2.6c4.3-3.2,5.8-8.1,3.6-11C294.8,317.7,293.2,317,291.2,317
			L291.2,317z"/>
	</g>
	<g id="XMLID_23_">
		<path d="M251.5,345.7c-1.7,0-3-0.6-3.8-1.7c-1.9-2.5-0.4-6.7,3.4-9.6c2-1.5,4.3-2.4,6.3-2.4c1.7,0,3,0.6,3.8,1.7
			c1.9,2.5,0.4,6.7-3.4,9.6C255.8,344.9,253.5,345.7,251.5,345.7z"/>
		<path class="st9" d="M257.4,333c1.3,0,2.4,0.4,3.1,1.3c1.5,2,0.1,5.7-3.2,8.2c-1.9,1.4-4,2.2-5.7,2.2c-1.3,0-2.4-0.4-3.1-1.3
			c-1.5-2-0.1-5.7,3.2-8.2C253.6,333.8,255.7,333,257.4,333 M257.4,331.1L257.4,331.1c-2.2,0-4.8,0.9-6.9,2.6
			c-1.9,1.4-3.3,3.3-4.1,5.1c-0.9,2.2-0.7,4.3,0.5,5.8c1,1.3,2.7,2.1,4.6,2.1c2.2,0,4.8-0.9,6.9-2.6c4.3-3.2,5.8-8.1,3.6-11
			C261,331.8,259.4,331.1,257.4,331.1L257.4,331.1z"/>
	</g>
	<g id="XMLID_21_">
		<path d="M292.4,297.5c-1.7,0-3-0.6-3.8-1.7c-1.9-2.5-0.4-6.7,3.4-9.6c2-1.5,4.3-2.4,6.3-2.4c1.7,0,3,0.6,3.8,1.7
			c1.9,2.5,0.4,6.7-3.4,9.6C296.7,296.6,294.4,297.5,292.4,297.5z"/>
		<path class="st9" d="M298.3,284.8c1.3,0,2.4,0.4,3.1,1.3c1.5,2,0.1,5.7-3.2,8.2c-1.9,1.4-4,2.2-5.7,2.2c-1.3,0-2.4-0.4-3.1-1.3
			c-1.5-2-0.1-5.7,3.2-8.2C294.4,285.5,296.5,284.8,298.3,284.8 M298.3,282.8L298.3,282.8c-2.2,0-4.8,0.9-6.9,2.6
			c-1.9,1.4-3.3,3.3-4.1,5.1c-0.9,2.2-0.7,4.3,0.5,5.8c1,1.3,2.7,2.1,4.6,2.1c2.2,0,4.8-0.9,6.9-2.6c1.9-1.4,3.3-3.3,4.1-5.1
			c0.9-2.2,0.7-4.3-0.5-5.8C301.9,283.5,300.2,282.8,298.3,282.8L298.3,282.8z"/>
	</g>
	<path id="XMLID_27_" class="st10" d="M290.1,267.4c0,0-31.6,0.7-55,30.7C242.1,292.8,260.7,274.6,290.1,267.4z"/>
	<path id="XMLID_30_" class="st11" d="M244.4,267.6c0,0-1.3-0.2-0.9,2.7s-2.7,3,0.4,2.9c3.1-0.1,4.3,3.9,4.3,3.9
		s21.6-12.1,35.7-11.9c10.4,0,10.4,0,10.4,0s2.5-4.3-1.2-4.3c-3.7,0.1-1.4-1.6-4.5-3.4C285.4,255.9,264.6,252.5,244.4,267.6z"/>
	<path id="XMLID_33_" class="st12" d="M229.1,272L194.4,228c0,0-17.3,18.3-37.2,5.7c-19.9-12.6,0.1-52.7,0.1-52.7l-9-11.4l-7.1-12.5
		l-12.9-4.8l-20.9-19.8l-20.8-5.7c0,0-33,22.7-14.3,54.5s81.9,87.9,107.7,107.6c12.7,9.7,26.4,19,26.4,19S214,282.4,229.1,272z"/>
	<path id="XMLID_41_" class="st13" d="M204.7,304.8c0,0,11.2-34.1,40.8-44.9c29.6-10.8,33.4-12.3,33.4-12.3s-32-102-40.4-110.6
		c0,0-2.5-7.1-19.6,2c-12.2,6.5-19.1-0.1-34,7.8c-14.9,7.9-10.4,21.5-16.4,23.3c-6,1.7-13.4,12.8-17.3,22.7s-16.2,7.2-21.9,11.1
		c-5.7,3.9-7.5,21.5-8.8,24.8c-1.3,3.3-2.3,7.6-2.3,7.6s60.5,55.3,73.5,61.9"/>
	<g id="XMLID_32_">
		<path id="XMLID_38_" class="st14" d="M204.8,314.9C204.8,314.9,204.8,314.9,204.8,314.9L204.8,314.9z"/>
		<path id="XMLID_98_" class="st14" d="M297.2,266c-0.5-0.4-1.3-0.8-2.4-1.1c-0.3-0.3-0.6-0.6-0.8-0.9c0.1-0.6,0.1-1.2-0.3-1.7
			c-0.6-0.7-1-1.6-1.3-2.5c-0.2-0.8-1.1-1.8-3.3-2.4l0,0c-0.6-0.2-1.1-0.7-1.2-1.4c-0.3-1.1-1.4-1.9-2.9-2.6
			c-0.2-0.1-0.5-0.2-0.7-0.3c-4.2-21.4-35.8-171.9-97-185.1c-46.7-10.1-130.9,59.9-129.9,93.2c1.7,56.9,136.1,145.5,147.7,152.9
			c0,0.5-0.1,0.7-0.1,0.8c0-0.1,0.1-0.3,0.4-0.6c0.3,0.2,0.5,0.3,0.5,0.3c0.1-0.3,1.3-0.8,1.3-0.6c0,0.6-0.7,3.1,0.8,4.9
			c1,1.3,1.8,1.2,2.3,0.5c0.3,1,0.7,2.1,1.1,3.1l1.2,2.2c0.1,0.9,0.4,1.9,0.9,3.1c0.4,0.7,1,1.2,1.6,1.4l-0.1,1.8
			c0,6.2,2.4,11.5,5.9,16.2c12.4,16.3,43,14,68.5-5.3c25.4-19.3,36-48.1,23.7-64.5c-2.7-3.6-6.3-6.3-10.5-8.1
			C300.5,268.7,298.8,267.4,297.2,266z"/>
	</g>
	<g id="XMLID_135_">
		<path id="XMLID_78_" class="st13" d="M208,224.3c0,0-6.7,25.8-6.6,32.3c0.1,6.4,3.5,13.4,4.7,13.1c1.2-0.3,8.5-10.7,11.2-13.7
			c2.7-3,1.5-10.3,3.5-11.7c2-1.3,13.5-5.5,13.5-5.5L208,224.3z"/>
		<g id="XMLID_68_">
			<path d="M252.6,204.1c0.5,3.7,0.6,7.3,0.6,10.9c0.1,0.9-0.6,1.6-0.8,2.4l-0.8,2.4l-1.7,4.8l-0.7,1.9l-1.9,0.7l-32.9,11.8l2.7-3.1
				l-2.9,13.9l-0.4,1.7c-0.1,0.3-0.1,0.6-0.1,0.9c0,0.3,0,0.6-0.2,0.9c-0.6,1.1-1.3,2.2-2,3.2c-1.4,2.1-2.8,4.3-4.4,6.4
				c-0.6-2.6-1.1-5.1-1.5-7.6c-0.2-1.3-0.4-2.5-0.5-3.7c0-0.3,0.1-0.6,0.2-0.9c0.1-0.3,0.2-0.6,0.2-0.9l0.4-1.7l2.9-13.9l0.5-2.3
				l2.2-0.8l32.9-11.8l-2.6,2.6l1.7-4.8l0.8-2.4c0.4-0.8,0.2-1.7,0.9-2.4C247.6,209.5,249.9,206.7,252.6,204.1z"/>
		</g>
	</g>
	<g id="XMLID_86_">
		<path id="XMLID_35_" d="M190.4,208.9l-19,0.2l-35.3,16c-2.5,1.2-12.1-2.9-12.1-5.7l6.8-0.7c0-1.5,9.8-5.6,11.2-6.2l10-6.7l8.5-5.4
			c3.8-1.5,9.4-0.4,13.3,0.7l8.2-12.8L190.4,208.9z"/>
		
			<ellipse id="XMLID_34_" transform="matrix(0.5562 -0.831 0.831 0.5562 -110.3794 244.0811)" class="st15" cx="173.3" cy="225.4" rx="14.8" ry="16.8"/>
		<circle id="XMLID_37_" cx="182.7" cy="225" r="8.2"/>
		<path id="XMLID_73_" d="M191.5,227.5c0,0,1.6,13.4-9.4,21.5s-11.5,5.9-11.5,5.9s8.9-5.6,13.6-16.8c2.4-4.2-0.2-2.1,1.2-3.9
			S191.5,227.5,191.5,227.5z"/>
		<path id="XMLID_74_" d="M163.2,211.2c0,0-12.8,9.2-10.9,20.7C152.3,231.9,147.3,214.1,163.2,211.2z"/>
		<path id="XMLID_76_" d="M204.6,201.8l4.6-26.1l14.7-27.2c1.3-2.5-0.3-2.8-3.1-2.9l-2.9,2.2c-1.5-0.1-8.4,3.4-9.1,4.8l-5.1,10.8
			l-5.9,8.1c-1.8,3.7-2.7,13.9-1.7,17.9l-4,5.1L204.6,201.8z"/>
		
			<ellipse id="XMLID_75_" transform="matrix(0.8619 -0.5071 0.5071 0.8619 -66.8181 136.8681)" class="st16" cx="217.8" cy="191.1" rx="14.2" ry="16.6"/>
		<circle id="XMLID_72_" cx="217.3" cy="199.9" r="8.2"/>
		<path id="XMLID_70_" d="M219.2,208.9c0,0,13.3,2.4,22-8.1c8.7-10.5,6.5-11.1,6.5-11.1s-6.1,8.5-17.6,12.6
			c-4.4,2.2-2.1-0.3-3.9,0.9C224.5,204.5,219.2,208.9,219.2,208.9z"/>
		<path id="XMLID_45_" d="M204.6,179.7c0,0,9.9-12.3,21.3-9.7C225.9,170,208.5,164,204.6,179.7z"/>
	</g>
	<path id="XMLID_36_" class="st17" d="M207,314.1c0,0,1.8-23.7,30.1-43.2c28.3-19.5,49-17.2,49-17.2"/>
	<path id="XMLID_77_" class="st17" d="M215,329.4c0,0,2.7-26.4,35.7-49.2s48.1-11.7,48.1-11.7"/>
	<path id="XMLID_82_" class="st18" d="M172.2,83c0,0,29-6.5,53.3,39.1s28,68.4,22.9,63.2C243.1,180.1,227.5,126.2,172.2,83z"/>
	<polygon id="XMLID_40_" class="st5" points="142.7,249 142,247.7 140.8,247.5 140.3,248.9 141.2,249.8 	"/>
	<polygon id="XMLID_42_" class="st5" points="179.1,261.3 178.4,260.1 177.2,259.9 176.8,261.2 177.6,262.2 	"/>
	<polygon id="XMLID_48_" class="st5" points="197.2,291.1 196.5,289.8 195.4,289.6 194.9,291 195.7,292 	"/>
	<polygon id="XMLID_109_" class="st5" points="237.4,170.1 236.7,168.8 235.5,168.6 235.1,169.9 235.9,170.9 	"/>
	<polygon id="XMLID_137_" class="st5" points="163.3,185.2 162.6,184 161.4,183.8 161,185.1 161.8,186.1 	"/>
	<polygon id="XMLID_110_" class="st5" points="186.8,162.7 186.2,161.4 185,161.2 184.5,162.5 185.3,163.5 	"/>
	<polygon id="XMLID_93_" class="st5" points="255,193.4 254.7,192.8 254.2,192.7 254,193.3 254.3,193.8 	"/>
	<polygon id="XMLID_113_" class="st5" points="202.9,209 202.2,207.8 201,207.6 200.5,208.9 201.4,209.9 	"/>
	<polygon id="XMLID_102_" class="st5" points="229.2,211.7 228.8,210.9 228.1,210.8 227.8,211.6 228.3,212.1 	"/>
	<polygon id="XMLID_49_" class="st5" points="203.5,226.2 202.8,224.9 201.6,224.7 201.2,226 202,227 	"/>
	<polygon id="XMLID_43_" class="st5" points="156.1,234.5 155.2,232.9 153.7,232.6 153.1,234.3 154.2,235.6 	"/>
	<polygon id="XMLID_63_" class="st5" points="239.5,247.9 238.7,246.4 237.2,246.1 236.6,247.8 237.7,249 	"/>
	<polygon id="XMLID_97_" class="st5" points="215.1,268 214.2,266.4 212.7,266.1 212.1,267.8 213.2,269.1 	"/>
	<path id="XMLID_138_" class="st19" d="M332.2,422.6l-0.6-1.1c-0.2-0.5-0.7-0.8-1.2-0.9l-0.8-0.2c-0.8-0.2-1.7,0.3-1.9,1.1l-0.4,1.2
		c-0.2,0.6-0.1,1.2,0.3,1.7l0.6,0.7c0.5,0.6,1.4,0.8,2.1,0.4l1.2-0.7C332.3,424.4,332.6,423.4,332.2,422.6z"/>
	<polygon id="XMLID_119_" class="st20" points="393.2,378.1 391.9,375.7 389.5,375.3 388.7,377.9 390.3,379.8 	"/>
	<polygon id="XMLID_61_" class="st21" points="360.6,373 359.3,370.6 357,370.1 356.1,372.8 357.7,374.7 	"/>
	<path id="XMLID_122_" class="st22" d="M380.4,407.5l-0.3-0.5c-0.2-0.4-0.6-0.7-1.1-0.8l-0.3-0.1c-0.8-0.2-1.5,0.3-1.7,1l-0.2,0.6
		c-0.2,0.5,0,1.1,0.4,1.6l0.3,0.3c0.5,0.6,1.3,0.8,2,0.4l0.5-0.3C380.6,409.2,380.8,408.3,380.4,407.5z"/>
	<path id="XMLID_153_" class="st23" d="M304.3,400.9l-0.4-0.7c-0.3-0.5-0.8-0.9-1.4-1l-0.4-0.1c-1-0.2-2,0.4-2.3,1.3l-0.3,0.8
		c-0.2,0.7-0.1,1.4,0.4,2l0.4,0.4c0.6,0.7,1.7,0.9,2.5,0.4l0.7-0.4C304.5,403.1,304.8,401.9,304.3,400.9z"/>
	<path id="XMLID_157_" class="st23" d="M347.4,366.1l-0.4-0.7c-0.3-0.5-0.8-0.9-1.4-1l-0.4-0.1c-1-0.2-2,0.4-2.3,1.3l-0.3,0.8
		c-0.2,0.7-0.1,1.4,0.4,2l0.4,0.4c0.6,0.7,1.7,0.9,2.5,0.4l0.7-0.4C347.6,368.3,347.9,367.1,347.4,366.1z"/>
	<path id="XMLID_144_" class="st24" d="M279.1,407.7l-0.3-0.6c-0.3-0.5-0.7-0.8-1.2-0.9l-0.4-0.1c-0.9-0.2-1.7,0.3-2,1.2L275,408
		c-0.2,0.6-0.1,1.2,0.3,1.7l0.3,0.4c0.6,0.6,1.5,0.8,2.2,0.4l0.6-0.3C279.3,409.6,279.6,408.6,279.1,407.7z"/>
	<path id="XMLID_129_" class="st23" d="M324.9,318.1l-0.4-0.7c-0.3-0.5-0.8-0.9-1.4-1l-0.4-0.1c-1-0.2-2,0.4-2.3,1.3l-0.3,0.8
		c-0.2,0.7-0.1,1.4,0.4,2l0.4,0.4c0.6,0.7,1.7,0.9,2.5,0.4l0.7-0.4C325.1,320.3,325.4,319.1,324.9,318.1z"/>
	<path id="XMLID_170_" class="st23" d="M308.9,339.3l-0.4-0.7c-0.3-0.5-0.8-0.9-1.4-1l-0.4-0.1c-1-0.2-2,0.4-2.3,1.3l-0.3,0.8
		c-0.2,0.7-0.1,1.4,0.4,2l0.4,0.4c0.6,0.7,1.7,0.9,2.5,0.4l0.7-0.4C309.1,341.5,309.5,340.2,308.9,339.3z"/>
	<polygon id="XMLID_47_" class="st5" points="159.4,264.5 158.8,263.5 157.8,263.3 157.4,264.4 158.1,265.3 	"/>
	<circle id="XMLID_39_" class="st5" cx="255.4" cy="236.4" r="1.1"/>
	<circle id="XMLID_100_" class="st5" cx="246.4" cy="189.4" r="1.2"/>
	<circle id="XMLID_107_" class="st5" cx="266" cy="226.6" r="0.8"/>
	<path id="XMLID_51_" class="st25" d="M228.3,312.6c0,0-12.3,15.5-2.6,28.5c9.8,13,20.4,10,20.4,10"/>
	<path id="XMLID_60_" class="st25" d="M296.2,272.7c0,0-24.3-2.8-44.8,16.6"/>
	<line id="XMLID_62_" class="st26" x1="316.5" y1="330.5" x2="342.2" y2="342.8"/>
	<line id="XMLID_142_" class="st19" x1="357.3" y1="350.3" x2="388.1" y2="362.6"/>
	<line id="XMLID_163_" class="st26" x1="356.6" y1="351.6" x2="387.4" y2="363.9"/>
	<line id="XMLID_121_" class="st19" x1="323.8" y1="361.4" x2="368.9" y2="400.8"/>
	<line id="XMLID_217_" class="st26" x1="322.1" y1="362.6" x2="367.3" y2="401.9"/>
	<line id="XMLID_143_" class="st19" x1="251.4" y1="370.4" x2="273.3" y2="482.2"/>
	<line id="XMLID_215_" class="st26" x1="253.8" y1="368" x2="275.6" y2="479.8"/>
	<line id="XMLID_91_" class="st19" x1="267.5" y1="366" x2="278" y2="390.7"/>
	<line id="XMLID_56_" class="st26" x1="264.9" y1="366.6" x2="275.3" y2="391.3"/>
	<line id="XMLID_145_" class="st19" x1="290.2" y1="403" x2="303.8" y2="452.1"/>
	<line id="XMLID_221_" class="st26" x1="292.7" y1="402" x2="306.3" y2="451.1"/>
	<line id="XMLID_148_" class="st19" x1="291.2" y1="355.2" x2="316.2" y2="391.4"/>
	<line id="XMLID_50_" class="st26" x1="289.3" y1="357.1" x2="314.2" y2="393.4"/>
	<path id="XMLID_149_" class="st27" d="M36.5,171.5c0,0-0.8,21,7.3,26.6c8,5.6,13.8,17,13.8,17l8.8,13.2"/>
	<path id="XMLID_150_" class="st27" d="M32.3,213.3c0,0,3.1,4.7,6.7,10.4c2.9,4.5,6.5,10.6,6.5,10.6l8.9,6.5"/>
	<path id="XMLID_164_" class="st27" d="M219.8,67.5c0,0-14.5-15.2-24.2-13.3c-9.6,1.9-21.8-2-21.8-2l-14.3,4.9"/>
	<path id="XMLID_162_" class="st27" d="M208.3,36.8c0,0-9.9-0.9-16.5-2.3c-5.2-1.1-12.1-2.7-12.1-2.7l-10.8,1.9"/>
	<path id="XMLID_127_" class="st10" d="M272.6,111.4c0,0,28.2-2.3,38.2-13.3c10.4-11.3-0.9-21.9-0.9-21.9S287.8,99.3,272.6,111.4z"
		/>
	<path id="XMLID_133_" class="st10" d="M267,129.6c0,0,28.5,15.2,36.6,4.2c2.5-3.3,1.2-7.3,1.2-7.3l-7.3,0l-24.1,0.8L267,129.6z"/>
	<path id="XMLID_172_" class="st10" d="M259.3,155.4c0,0,22.4,6,24.4,1c2-5-0.9-8.4-0.9-8.4l-26.9-2.6L259.3,155.4z"/>
	<path id="XMLID_87_" class="st28" d="M293.7,66.8c0,0-22.4-4-30.2,15.1c-5.5,13.5-6.2,30-6.2,30"/>
	<path id="XMLID_179_" class="st28" d="M283.5,118.7c0,0,18.6,0,18.5,10.6"/>
	<path id="XMLID_178_" class="st28" d="M269,137.8"/>
	<g id="XMLID_182_">
		<path id="XMLID_199_" class="st4" d="M133.3,261.4c0,0-45.4-16-61.9-11.5c-21,5.8-28.6,25.6-24.6,37.4s16.4,32.3,33.9,21
			c6.7-4.3,16-16.9,16-16.9s-5,18.4,8.1,23.4c19.7,7.6,19.7-25,19.7-25s9.9,18.8,17.6,15s9.3-28.3,9.3-28.3L133.3,261.4z"/>
		<path id="XMLID_196_" class="st10" d="M102.3,275.9c0,0-12.2,25.5-26,31c-14.3,5.7-20.2-8.6-20.2-8.6S85.6,285.8,102.3,275.9z"/>
		<path id="XMLID_194_" class="st10" d="M121.2,277.2c0,0,4.1,32-9.1,35.8c-4,1.1-7.3-1.5-7.3-1.5l2.6-6.9l9.3-22.3L121.2,277.2z"/>
		<path id="XMLID_192_" class="st10" d="M148.1,279.1c0,0-2.3,23.1-7.7,23.2c-5.4,0.1-7.5-3.9-7.5-3.9l7.2-26.1L148.1,279.1z"/>
		<path id="XMLID_190_" class="st28" d="M53.1,279.8c0,0,4.2-22.3,24.8-22.8c14.6-0.4,30.2,4.9,30.2,4.9"/>
		<path id="XMLID_188_" class="st28" d="M105.3,288.7c0,0-6.7,17.4,3.4,21.1"/>
		<path id="XMLID_186_" class="st28" d="M128.2,281.9"/>
	</g>
	<path id="XMLID_117_" class="st23" d="M325.2,410.6l-0.6-1.1c-0.2-0.5-0.7-0.8-1.2-0.9l-0.8-0.2c-0.8-0.2-1.7,0.3-1.9,1.1l-0.4,1.2
		c-0.2,0.6-0.1,1.2,0.3,1.7l0.6,0.7c0.5,0.6,1.4,0.8,2.1,0.4l1.2-0.7C325.4,412.4,325.7,411.4,325.2,410.6z"/>
	<path id="XMLID_171_" class="st18" d="M277.9,364.9l-0.6-1.1c-0.2-0.5-0.7-0.8-1.2-0.9l-0.8-0.2c-0.8-0.2-1.7,0.3-1.9,1.1l-0.4,1.2
		c-0.2,0.6-0.1,1.2,0.3,1.7l0.6,0.7c0.5,0.6,1.4,0.8,2.1,0.4l1.2-0.7C278,366.8,278.3,365.7,277.9,364.9z"/>
	<path id="XMLID_120_" class="st29" d="M315,354l-0.3-0.5c-0.2-0.4-0.6-0.7-1.1-0.8l-0.3-0.1c-0.8-0.2-1.5,0.3-1.7,1l-0.2,0.6
		c-0.2,0.5,0,1.1,0.4,1.6l0.3,0.3c0.5,0.6,1.3,0.8,2,0.4l0.5-0.3C315.2,355.7,315.4,354.7,315,354z"/>
	<path id="XMLID_64_" class="st3" d="M301.4,345.2c0,0-8.5,16.1-41.7,22c-56.5-15.8-16.4-10.2-3-16.1c13.5-5.9,30.5-14.1,30.5-14.1
		l17.7-17.4L301.4,345.2z"/>
	<path id="XMLID_71_" class="st2" d="M99.1,368.9c0,0,37.4,11.5,42.1,21.1c2.9,5.9-4.1,50.3-8.7,61.1c-4.6,10.8-18,13.4-29.8,12.8
		c-11.8-0.5-19.5-5.6-19.5-5.6s33.5-0.3,36-12.1c2.6-11.8,3.6-46.3,2.6-48.4C120.8,395.7,106.3,369.4,99.1,368.9z"/>
	<path id="XMLID_80_" class="st2" d="M173.9,361c0,0,7.8,46.4,7.8,70.5c-0.4,14.9-0.5,14.9-0.5,14.9l-14.4-1.3l-2.6-81.1L173.9,361z
		"/>
	<path id="XMLID_111_" class="st2" d="M478.8,235.1l-9.2-3.3c0,0-4.8,61.3-7.8,71.3c-3,10-10,16.2-12.9,17.4c-3,1.1-13.3,5.5-10,5.2
		s5.5,8.1,9.6,28.8c4.1,20.7,8.9,37.7,7,40.2c-1.8,2.6-3.3,3.3-1.8,2.6c1.5-0.7,11.1-14,8.9-22.9c-2.2-8.9-10.7-51.3-10.7-51.3
		s14-1.1,17.7-18.1C472.7,290.8,478.8,235.1,478.8,235.1z"/>
</g>
</svg>
