<?xml version="1.0" encoding="utf-8"?>
<!-- Generator: Adobe Illustrator 25.4.1, SVG Export Plug-In . SVG Version: 6.00 Build 0)  -->
<svg version="1.1" id="Layer_1" xmlns="http://www.w3.org/2000/svg" xmlns:xlink="http://www.w3.org/1999/xlink" x="0px" y="0px"
	 viewBox="0 0 365.5 600" style="enable-background:new 0 0 365.5 600;" xml:space="preserve">
<style type="text/css">
	.st0{fill:#894742;}
	.st1{fill:#B66058;}
	.st2{fill:#480500;}
	.st3{fill:none;stroke:#480500;stroke-width:1.3;stroke-linecap:round;stroke-miterlimit:10;}
	.st4{fill:#BC6C65;}
	.st5{fill:#4F7389;}
	.st6{fill:#6A97B6;}
	.st7{fill:#073048;}
	.st8{fill:none;stroke:#073048;stroke-width:1.3;stroke-linecap:round;stroke-miterlimit:10;}
	.st9{fill:#77A0BC;}
	.st10{fill:#E2BB95;}
	.st11{fill:#E9D3AE;}
	.st12{fill:#6A2F19;}
	.st13{fill:none;stroke:#073048;stroke-width:1.3;stroke-miterlimit:10;}
	.st14{fill:#F1E2CA;}
	.st15{fill:#592600;}
	.st16{fill:#FFFFFF;}
	.st17{fill:none;stroke:#6A2F19;stroke-width:1.6279;stroke-miterlimit:10;}
	.st18{fill:#CA3A36;}
	.st19{fill:#D9A776;}
	.st20{fill:#663122;}
	.st21{fill:#3D2212;}
	.st22{fill:#9C5347;}
	.st23{fill:#201100;}
	.st24{fill:#C0876A;}
	.st25{fill:#A47400;}
	.st26{fill:#CFA38D;}
	.st27{fill:#AA5D17;}
	.st28{fill:#724123;}
	.st29{fill:#B97A40;}
	.st30{fill:#944123;}
	.st31{fill:#664123;}
	.st32{fill:#D7A36E;}
	.st33{opacity:0.1;fill:#4F7389;}
	.st34{fill:#7D47A8;}
	.st35{fill:#9756C8;}
	.st36{fill:#9E62CD;}
	.st37{fill:#98753A;}
	.st38{fill:#1D91A1;}
	.st39{fill:#39C7C7;}
	.st40{fill:#DDCD81;}
	.st41{fill:#DDCD81;stroke:#643300;stroke-miterlimit:10;}
	.st42{fill:#BA77BD;}
	.st43{fill:#E5DBEE;}
	.st44{fill:none;stroke:#480500;stroke-width:1.3;stroke-miterlimit:10;}
	.st45{fill:#0B0B0B;}
	.st46{fill:#7B7B7B;}
	.st47{fill:#B5B5B5;}
	.st48{fill:#6E6F6E;}
	.st49{fill:#6E6F6E;stroke:#000000;stroke-miterlimit:10;}
	.st50{fill:#B4A392;}
	.st51{fill:#E1CDB8;}
	.st52{fill:#6E4241;}
	.st53{fill:none;stroke:#6E4241;stroke-width:1.3;stroke-linecap:round;stroke-miterlimit:10;}
	.st54{fill:#E7D8C9;}
	.st55{fill:#AFA1A1;}
	.st56{fill:#8E5E46;}
	.st57{fill:#C38A73;}
	.st58{fill:#D39880;}
	.st59{fill:#84546A;}
	.st60{fill:#984C3A;}
	.st61{fill:#754C28;}
	.st62{fill:#6E4329;}
	.st63{fill:#603813;stroke:#201100;stroke-width:1.2361;stroke-miterlimit:10;}
	.st64{fill:#946E4F;}
	.st65{fill:#C09186;}
	.st66{fill:#89A3C1;}
	.st67{fill:#ABC8EE;}
	.st68{fill:#436B9A;}
	.st69{fill:none;stroke:#436B9A;stroke-width:1.3;stroke-linecap:round;stroke-miterlimit:10;}
	.st70{fill:#BCD6F3;}
	.st71{fill:#669ACC;}
	.st72{fill:#462A1D;}
	.st73{fill:#5C3B2F;}
	.st74{fill:none;stroke:#000000;stroke-width:1.3;stroke-miterlimit:10;}
	.st75{fill:#6A4537;}
	.st76{fill:#161616;}
	.st77{fill:#3B2216;}
	.st78{fill:#513226;}
	.st79{fill:none;stroke:#000000;stroke-width:1.8239;stroke-linejoin:round;stroke-miterlimit:10;}
	.st80{fill:#282828;}
	.st81{fill:#644157;}
	.st82{fill:#894C6D;}
	.st83{fill:#414141;}
	.st84{fill:#2E2F2E;}
	.st85{fill:#4F2413;stroke:#201100;stroke-width:1.2361;stroke-miterlimit:10;}
</style>
<g>
	<path class="st5" d="M95,349c11.3-13,24.2-33,32.7-39c1.7-1.2-20.7,60.4-19.3,62c-23.3,10.1-43.1,32.4-53.4,57.5
		c-2.3,0.4-10.4,4-15.8,9.5c8.2-24.4,22.2-47.8,39.6-69.9C81.8,365.2,95,349,95,349z"/>
	<path class="st6" d="M272.3,338.7c-0.5,9.7-8.8,30.7,2.6,73.8c5.6-4.9,10.1-9.1,12.6-11.9C279.9,380.7,277,361.1,272.3,338.7z
		 M70.2,511.9c-1.6-0.9-4.6-3.2-6.1-4.4c2.7,0.7,5.2,1.1,7.7,1.2c9.3,0.5,7.9-8.2,4.4-9.1c-3.2-0.7-6.7-2.1-10-3.9v-0.1
		c2.6,0.2,5.1,0.1,7.5-0.2c9.2-1.2,6.3-9.5,2.7-9.8c-7.9-0.2-17.5-4.2-24.6-8.1c8.7,2.5,17,2.6,23.7,0.9c9-2.3,5.1-10.2,1.5-10
		c-9.5,0.8-22.1-3.4-29.8-7.1c0.5-4.9,1.3-9.8,2.4-14.6c1.2-0.9,2.5-1.9,3.9-3c9.1-6.7,1.5-14.1,1.5-14.1
		c10.3-25.1,29.2-48.3,52.5-58.3c6.6-24.2,25.2-86,27.8-90c4.5-7,30.8-9.7,38.1-13.9c4.2-0.2,8.3,0.2,12.2-0.8c0,0,0,3.8,0,13.6
		c0,16.2,47.5,10.4,47.5-12.3c0-5.4-0.4-8.4-0.8-15.6c13.6,7.1,51.6,11.5,62.4,18.1c15.4,9.4,37.9,102.8,42,131.9
		c0.6,4.3-12.9,38.8-48.1,67.7c-4.5,34.4-64.8,123.3-170.1,91.3c-29-8.8-47.7-25.2-58.9-43.4c1.3,0.6,2.5,1.2,3.8,1.6
		C72.1,522.5,73.2,513.8,70.2,511.9z"/>
	<g>
		<path class="st5" d="M129.3,313.1c14-14.6,26.1-32.5,26.1-32.5c3.2-5.2,19.9-10.1,30.2-11.2c0-1.8,0-2.1,0-3
			c-2.2-2-8.4-1.4-14.3,1.8c-7.3,4.2-31.6,5.9-36,12.9c-2.3,3.7-11.3,31.5-21.9,45.4C120.2,321.2,126.9,315.6,129.3,313.1z"/>
		<path class="st5" d="M336.7,402.2c-4.1-29.1-26.6-122.4-42-131.9c-10.8-6.6-48.7-10.9-62.4-18.1c0.3,5.9,0.6,10.9,0.8,15.6
			c0,6-0.5,15.1-18.2,21.1c-8.6,2.9,26.2,1.4,41.5-12.9c0,0,23.2-0.5,30.4,4.2c7,4.6,14.1,28.4,20.6,51.6s23.3,66.1,21.1,73.2
			c-2.2,7.2-32.6,60.2-92.2,75.6c2.1,10.7-0.6,16.4-4.1,17.9c-0.2-1.7-1-3.6,0.2-4.7c0,0,1.4-5.5-2.9-17.7
			c-4.1-11.5-8.3-13.9-8.3-13.9c-0.2,0.1-7.8,4-8.1,4.1c-0.7,0.2-1.5,0.4-2.3,0.6c-8.6,1.7-20-0.7-20-0.7s-21.3-12.4-25.3-16.3
			c-1.9-1.9-9.2,6.3,4.2,17c8.9,7.1,6.6,10.8,6.6,10.8l-9.3,3c0,0-26.9-6-35.5-7.7c-5.3-1.1-9.3,8.7,0.3,12
			c15.1,5.2,25.8,10.6,25.8,10.6l-1.9,0.5c0,0-15.3,2.6-31.7,6.2c-5.3,1.2-5.6,11.8,4.5,11c15.8-1.3,32-1.5,32-1.5
			s-11,6.8-25.2,16.5c-4.6,3.1-1.3,13.2,7.8,8.5c14-7.1,25.1-10.9,25.6-11.1c-0.3,0.4-5.1,6.2-15.7,19.5c-3.5,4.4,1.4,11.8,9.8,5.7
			c17.8-12.9,29.2-18.4,29.2-18.4c4.6-3.2,18.2-8.1,24.3-13.6c1-0.9,1.9-1.8,2.7-2.7c5.1,4,10.1,6.5,10.1,6.5l47.7-22.5
			c6.9-11.6,10.9-22.5,11.9-30.4C323.8,441,337.3,406.4,336.7,402.2z"/>
	</g>
	<g>
		<path class="st5" d="M332.2,380.8c0-0.1-0.1-0.3-0.1-0.4C332.2,380.5,332.2,380.6,332.2,380.8z"/>
		<path class="st5" d="M330.8,375.1c0,0,0-0.1,0-0.1C330.8,375,330.8,375,330.8,375.1z"/>
		<path class="st5" d="M333.5,385.9c-0.1-0.2-0.1-0.5-0.2-0.7C333.4,385.4,333.4,385.7,333.5,385.9z"/>
		<path class="st5" d="M332.9,383.5c-0.1-0.2-0.1-0.4-0.2-0.6C332.8,383,332.8,383.2,332.9,383.5z"/>
		<path class="st5" d="M329.3,369.6c0-0.2-0.1-0.4-0.1-0.5C329.2,369.3,329.3,369.5,329.3,369.6z"/>
		<path class="st5" d="M328.5,366.7c0-0.1-0.1-0.3-0.1-0.4C328.5,366.5,328.5,366.6,328.5,366.7z"/>
		<path class="st5" d="M227.7,368.7c0,0-28.8,15.9-25.7,17.3c13.3,6,37.6,31.5,41.4,52.2c10.7-8.2,22.5-17.8,31.6-25.7
			c-11.1-43.4-3.1-64.2-2.6-73.8c-1.2-5.9-2.5-12.1-4.1-18.5l-2.1-4l0,0C266.1,316.1,227,354.4,227.7,368.7z"/>
		<path class="st5" d="M330.1,372.4c0-0.2-0.1-0.3-0.1-0.5C330,372.1,330,372.3,330.1,372.4z"/>
		<path class="st5" d="M335,392.9c0-0.1-0.1-0.3-0.1-0.4C335,392.7,335,392.8,335,392.9z"/>
		<path class="st5" d="M336.2,398.9c0-0.2-0.1-0.4-0.1-0.7C336.1,398.5,336.1,398.7,336.2,398.9z"/>
		<path class="st5" d="M336.5,400.6c0-0.2-0.1-0.4-0.1-0.5C336.4,400.3,336.4,400.5,336.5,400.6z"/>
		<path class="st5" d="M209.3,532.6c-72.6,48.8-143.4-5.5-145.2-8c11.5,15.4,29,29,54.3,36.7c105.3,32,165.6-56.9,170.1-91.3
			c-12.6,10.3-28,19.9-46.5,27.1C236.3,509.1,226.2,521.3,209.3,532.6z"/>
		<path class="st5" d="M334.5,390.4c0-0.1,0-0.2-0.1-0.3C334.4,390.2,334.5,390.3,334.5,390.4z"/>
		<path class="st5" d="M335.9,397.1c0-0.2-0.1-0.5-0.1-0.7C335.8,396.7,335.8,396.9,335.9,397.1z"/>
		<path class="st5" d="M334,388.2c0-0.2-0.1-0.4-0.1-0.6C333.9,387.8,333.9,388,334,388.2z"/>
		<path class="st5" d="M335.5,395.2c0-0.2-0.1-0.4-0.1-0.6C335.4,394.8,335.4,395,335.5,395.2z"/>
	</g>
	<g>
		<path class="st7" d="M213.1,462.3c0.8-1.9,1.8-3.7,3.1-5.4c0.7-0.8,1.4-1.6,2.4-2.2c0.9-0.5,1.8-0.9,2.7-1.4
			c1.7-1,3.4-2.1,5.1-3.2c1.7-1.1,3.3-2.3,5-3.4c3.3-2.3,6.6-4.7,9.8-7.1c3.2-2.4,6.4-4.9,9.6-7.4c3.2-2.5,6.3-5,9.5-7.6
			c3.1-2.6,6.2-5.2,9.3-7.8c3.1-2.6,6.1-5.3,9-8.1c1.5-1.4,2.9-2.8,4.4-4.2c1.4-1.4,2.8-2.9,4.1-4.4l0,0l-0.1,0.7
			c-0.7-1.6-1.4-3.2-2-4.8c-0.6-1.6-1.2-3.2-1.8-4.9c-0.6-1.6-1.1-3.3-1.6-4.9c-0.5-1.7-1-3.3-1.5-5c-0.5-1.7-0.9-3.3-1.3-5
			c-0.4-1.7-0.8-3.4-1.2-5c-0.8-3.4-1.5-6.8-2.2-10.1c-0.7-3.4-1.3-6.8-2-10.2l-1.9-10.2l-0.2-1.3l-0.2-1.3l-0.5-2.5l-1-5.1
			c-0.3-1.7-0.6-3.4-0.9-5.1c-0.3-1.7-0.6-3.4-0.9-5.1l0.6-0.1c0.5,1.7,0.9,3.3,1.4,5c0.4,1.7,0.9,3.3,1.3,5l1.3,5l0.6,2.5l0.3,1.3
			l0.3,1.3c0.7,3.4,1.5,6.7,2.2,10.1l2.1,10.1l2.1,10.1c0.8,3.4,1.5,6.7,2.3,10c0.8,3.3,1.7,6.6,2.7,9.9c0.5,1.7,1,3.3,1.5,4.9
			c0.5,1.6,1.1,3.3,1.6,4.9l0.1,0.4l-0.3,0.3l0,0c-2.9,2.9-5.9,5.6-8.9,8.3c-3,2.7-6.1,5.3-9.2,7.9c-3.1,2.6-6.2,5.2-9.4,7.7
			l-9.5,7.6c-3.2,2.5-6.4,5-9.6,7.5l-4.8,3.7c-1.6,1.2-3.2,2.4-4.9,3.6c-1.6,1.2-3.3,2.4-5,3.5c-1.7,1.1-3.3,2.3-5.1,3.4
			c-0.9,0.6-1.7,1-2.6,1.5c-0.8,0.4-1.4,1.2-2,1.9c-1.1,1.6-2.1,3.4-2.8,5.2L213.1,462.3z"/>
	</g>
	<g>
		<path class="st7" d="M54.3,429.3c0,0,0.5-1.2,1.3-3.2c0.4-1,0.9-2.3,1.6-3.7c0.6-1.4,1.4-3,2.2-4.7c0.4-0.8,0.9-1.7,1.3-2.6
			c0.5-0.9,1-1.8,1.6-2.8c1-1.9,2.3-3.8,3.5-5.9c0.7-1,1.3-2,2-3c0.3-0.5,0.7-1,1-1.5c0.4-0.5,0.7-1,1.1-1.5c0.8-1,1.5-2,2.3-3
			c0.8-1,1.6-2,2.4-2.9c0.8-1,1.7-1.9,2.5-2.8c0.8-0.9,1.7-1.9,2.6-2.7c0.9-0.9,1.8-1.8,2.6-2.6c0.9-0.8,1.8-1.6,2.7-2.4
			c0.9-0.8,1.8-1.5,2.7-2.3c0.9-0.7,1.7-1.5,2.6-2.1c1.8-1.3,3.4-2.5,5.1-3.5c0.8-0.5,1.6-1,2.4-1.4c0.8-0.4,1.5-0.8,2.2-1.1
			c1.4-0.7,2.6-1.3,3.7-1.7c2.1-0.8,3.3-1.2,3.3-1.2l0.5,1.2c0,0-1.1,0.7-2.9,1.8c-1,0.5-2.1,1.2-3.3,2c-0.6,0.4-1.3,0.8-2,1.3
			c-0.7,0.5-1.4,1-2.2,1.5c-1.6,1-3.2,2.2-4.9,3.4c-0.9,0.6-1.7,1.3-2.6,2c-0.9,0.7-1.8,1.4-2.6,2.2c-0.9,0.8-1.8,1.6-2.6,2.3
			c-0.9,0.8-1.7,1.7-2.6,2.5c-0.9,0.8-1.7,1.7-2.6,2.7c-0.8,0.9-1.7,1.8-2.5,2.8c-0.8,0.9-1.6,1.9-2.4,2.8c-0.8,0.9-1.5,1.9-2.3,2.9
			c-0.4,0.5-0.8,1-1.1,1.4c-0.4,0.5-0.7,1-1.1,1.5c-0.7,1-1.4,1.9-2.1,2.9c-1.3,2-2.6,3.8-3.6,5.7c-0.6,0.9-1.1,1.8-1.6,2.7
			c-0.5,0.9-1,1.7-1.4,2.5c-0.9,1.6-1.7,3.1-2.4,4.5c-0.3,0.7-0.7,1.3-1,1.9c-0.3,0.6-0.5,1.2-0.8,1.6c-0.9,2-1.5,3.1-1.5,3.1
			L54.3,429.3z"/>
	</g>
	<g>
		<path class="st7" d="M38.5,438.8c0,0,0.2-0.5,0.5-1.4c0.3-0.9,0.7-2.3,1.3-3.9c0.6-1.7,1.4-3.8,2.3-6.1c0.9-2.3,2-4.9,3.3-7.8
			c1.3-2.8,2.7-5.8,4.3-9c1.6-3.1,3.4-6.4,5.3-9.8c1-1.7,1.9-3.4,3-5.1c1-1.7,2.1-3.4,3.2-5.1c2.2-3.4,4.5-6.8,6.9-10.2
			c2.4-3.3,4.8-6.7,7.3-9.9c0.6-0.8,1.2-1.6,1.9-2.4c0.6-0.8,1.3-1.5,1.9-2.3c1.3-1.5,2.5-3,3.7-4.5c2.4-3,4.8-5.8,7-8.6
			c2.3-2.7,4.4-5.3,6.3-7.6c3.9-4.7,7.2-8.6,9.6-11.4c2.3-2.7,3.7-4.3,3.7-4.3l1,0.8c0,0-1.3,1.6-3.4,4.5c-2.2,2.8-5.3,6.9-9.2,11.7
			c-1.9,2.4-4,5-6.2,7.8c-2.2,2.7-4.5,5.6-6.9,8.6c-1.2,1.5-2.4,3-3.7,4.6c-0.6,0.8-1.2,1.5-1.9,2.3c-0.6,0.8-1.2,1.6-1.8,2.4
			c-2.5,3.2-4.9,6.4-7.3,9.8c-2.4,3.3-4.7,6.7-6.9,10c-1.1,1.7-2.2,3.4-3.2,5c-1,1.7-2.1,3.3-3,5c-2,3.3-3.8,6.5-5.4,9.6
			c-1.6,3.1-3.1,6.1-4.4,8.8c-1.3,2.8-2.5,5.3-3.4,7.6c-1,2.3-1.8,4.3-2.4,6c-0.7,1.7-1.1,3-1.5,3.9c-0.3,0.9-0.5,1.4-0.5,1.4
			L38.5,438.8z"/>
	</g>
	<g>
		<path class="st7" d="M170.3,269.2c0,0-0.3,0.2-1,0.5c-0.7,0.3-1.6,0.7-2.9,1.1c-2.5,0.8-6.1,1.7-10.5,2.7c-2.2,0.5-4.5,1-7,1.7
			c-2.4,0.6-5,1.4-7.5,2.4c-2.5,1.1-5.1,2.4-6.1,4.8c-1.2,2.6-2.4,5.4-3.5,8.1c-2.3,5.5-4.6,10.9-7,16c-1.2,2.5-2.4,5-3.5,7.2
			c-1.2,2.3-2.3,4.4-3.5,6.3c-1.1,1.9-2.3,3.6-3.3,5.1c-1,1.5-2,2.7-2.9,3.7c-0.9,1-1.6,1.7-2.1,2.2c-0.5,0.5-0.8,0.7-0.8,0.7
			l-0.3-0.3c0,0,0.3-0.3,0.7-0.8c0.5-0.5,1.1-1.3,1.9-2.3c1.6-2,3.6-5.1,5.7-9c1.1-1.9,2.2-4.1,3.3-6.4c1.1-2.3,2.2-4.7,3.4-7.2
			c2.3-5.1,4.6-10.5,6.9-16c1.2-2.7,2.2-5.5,3.5-8.2c0.2-0.4,0.4-0.7,0.5-1c0.2-0.4,0.5-0.7,0.7-1c0.5-0.6,1.1-1.1,1.8-1.5
			c1.3-0.9,2.6-1.5,3.9-2.1c2.6-1.1,5.3-1.8,7.7-2.5c2.5-0.6,4.8-1.2,7-1.7c4.4-0.9,8-1.8,10.4-2.6c1.2-0.4,2.1-0.7,2.7-1
			c0.6-0.3,0.9-0.5,0.9-0.5L170.3,269.2z"/>
	</g>
	<path class="st8" d="M272.1,339.3c-6.1,26-2.1,61,2.7,72.8"/>
	<g>
		<path class="st7" d="M232.6,251.7c0,0,0.3,0.2,0.9,0.5c0.6,0.3,1.5,0.7,2.7,1.2c2.4,1,6.1,2.2,10.9,3.5c4.8,1.3,10.6,2.6,17.3,4.2
			c3.4,0.8,6.9,1.5,10.7,2.4c3.8,0.9,7.7,1.9,11.8,3.2c2,0.6,4.1,1.4,6.1,2.3c0.5,0.2,1,0.5,1.5,0.8l0.4,0.2
			c0.2,0.1,0.2,0.2,0.4,0.2c0.2,0.2,0.5,0.3,0.7,0.5c0.9,0.8,1.7,1.6,2.4,2.5c1.5,1.8,2.7,3.8,3.8,5.9c1.1,2.1,2.2,4.2,3.2,6.5
			c4,8.9,7.4,18.6,10.6,28.7c1.6,5.1,3.1,10.2,4.6,15.5c1.5,5.2,3,10.6,4.4,15.9c2.9,10.8,5.5,21.7,8,32.8
			c1.2,5.5,2.4,11.1,3.4,16.6l0.7,4.2l0.3,2.1c0,0.4,0.1,0.6,0.1,1.1c0,0.6,0,0.9-0.1,1.3c-0.5,2.9-1.6,5.5-2.6,8.2
			c-2.1,5.2-4.7,10.1-7.5,14.9c-2.8,4.7-5.8,9.3-8.9,13.6c-6.3,8.6-13.3,16.3-20.4,23c-7.1,6.7-14.4,12.4-21.5,17.2
			c-7.1,4.8-13.9,8.6-20.2,11.6c-6.2,3-11.8,5.3-16.5,6.9c-1.2,0.4-2.3,0.8-3.3,1.1c-0.6,0.2-0.9,0.3-1.4,0.6
			c-0.5,0.2-1,0.4-1.5,0.5c-2,0.6-3.9,0.4-5.2,0.1c-1.4-0.3-2.3-0.8-3-1.2c-0.6-0.4-0.9-0.5-0.9-0.5l0.7-1.1c0,0,0.3,0.2,0.9,0.5
			c0.6,0.3,1.5,0.7,2.7,0.9c1.2,0.2,2.7,0.3,4.4-0.2c0.4-0.1,0.9-0.3,1.3-0.5c0.4-0.2,1-0.5,1.5-0.6c1-0.4,2.1-0.8,3.3-1.2
			c4.6-1.8,10.1-4.1,16.2-7.2c6.1-3.1,12.8-6.9,19.8-11.6c3.5-2.4,7-4.9,10.6-7.8c3.6-2.8,7.1-5.9,10.6-9.2
			c7-6.6,13.9-14.1,20.2-22.5c3.2-4.2,6.2-8.6,9-13.3c2.8-4.6,5.4-9.5,7.5-14.5c1-2.5,2.1-5.1,2.6-7.7c0.1-0.3,0.1-0.7,0.1-0.8
			c0-0.2-0.1-0.7-0.1-1l-0.3-2.1l-0.7-4.1c-0.9-5.5-2-11.1-3.2-16.6c-2.3-11-4.9-22-7.6-32.8c-1.4-5.4-2.8-10.7-4.2-16
			c-1.5-5.2-3-10.4-4.6-15.4c-3.2-10.1-6.6-19.7-10.6-28.6c-2-4.4-4.1-8.6-6.9-12.2c-0.7-0.9-1.5-1.7-2.3-2.4
			c-0.2-0.2-0.4-0.3-0.7-0.5c-0.1-0.1-0.3-0.2-0.3-0.2l-0.4-0.2c-0.5-0.3-0.9-0.5-1.4-0.7c-2-0.9-4-1.6-6-2.3c-4-1.3-8-2.2-11.7-3.1
			c-3.8-0.9-7.3-1.7-10.7-2.4c-6.7-1.5-12.6-2.8-17.4-4c-4.8-1.2-8.5-2.4-11-3.4c-1.2-0.5-2.2-0.9-2.8-1.2c-0.6-0.3-0.9-0.5-0.9-0.5
			L232.6,251.7z"/>
	</g>
	<path class="st9" d="M185.6,407c-19.4-6-23.5-15.6-55.2-12.1c-44.7,4.9-46.2,33.8-36.2,44.1c14.5,15,44.4,9.9,72,0
		C191,430.1,197.3,410.6,185.6,407z"/>
	<path class="st9" d="M238.7,449.6c-5,4.5-6.3,13.1,6,8.4c41.3-15.9,64.5-50.6,66.9-55.2s-23-60.7-23-60.7s8.4,47.9,11,50.7
		c2.6,2.8,2.8,7.9,2.8,7.9s-1.9,1.1-21.6,16.5C261.1,432.5,238.7,449.6,238.7,449.6z"/>
	<path class="st9" d="M288.6,299.8c-6.4-5.6-17-7.5-22.5-3.3c-5.5,4.2,2.1-14.6,14.9-14.7C293.8,281.7,295.6,306,288.6,299.8z"/>
</g>
<path class="st10" d="M49.5,446.7c-1.1,4.8-2,9.7-2.4,14.6c-4.5-2.2-7.3-4.2-6.9-5C41.1,454.4,43.4,451.5,49.5,446.7z"/>
<path class="st5" d="M234.9,475.2c6.4,21.2-3.1,27.4-9,22.2h0c1.3-1.8,2.8-3.4,4.8-5c5.9-4.8-5.4-33.4-13.8-30.5
	c-0.3,0.1-0.5,0.2-0.8,0.2C219.4,451.9,229.3,456.4,234.9,475.2z"/>
<path class="st11" d="M51.6,477.5c7.2,4,16.8,7.9,24.6,8.1c3.6,0.3,6.5,8.5-2.7,9.8c-2.3,0.3-4.8,0.4-7.5,0.2v0.1
	c3.4,1.8,6.8,3.2,10,3.9c3.5,0.9,4.9,9.6-4.4,9.1c-2.4-0.1-5-0.5-7.7-1.2c1.5,1.2,4.6,3.5,6.1,4.4c3.1,1.9,1.9,10.6-6.8,7.5
	c-1.2-0.4-2.5-1-3.8-1.6c-7.6-3.7-15.4-10.6-21-20.4c0,0-6.1-6.9-8.3-16c-6.7-28.2,7.2-40.7,8.9-42.4c5.4-5.5,13.4-9.1,15.8-9.5
	c0,0,7.6,7.5-1.5,14.1c-1.5,1.1-2.8,2.1-3.9,3c-6.1,4.8-8.4,7.7-9.3,9.6c-0.4,0.8,2.4,2.8,6.9,5c7.7,3.7,20.3,7.9,29.8,7.1
	c3.6-0.1,7.5,7.7-1.5,10C68.6,480.1,60.3,480,51.6,477.5z"/>
<path class="st10" d="M39.2,440.5c0.8-1.5,2.3-2.6,3.3-4.4c-1.1,0.9-2.3,1.8-3.3,2.9c-1.7,1.7-15.6,14.2-8.9,42.4
	c2.1,9.1,8.3,16,8.3,16c1.4,2.5,2.9,4.7,4.6,6.8C32.4,489.3,26.9,463.9,39.2,440.5z"/>
<g>
	<path class="st10" d="M72.4,491c-10.1,0.6-18.8-1.2-26.6-4.5c-4.8-2-4.4,0.5-4.2,0.5c3.1,1.6,15.7,9.4,34.2,7.8
		c4.8-1.6,4.6-5.8,2.8-8C77.9,488.6,75.8,490.8,72.4,491z"/>
	<path class="st10" d="M52.5,438.8c-1.5,1.1-2.8,2.1-3.9,3c-6.1,4.8-8.4,7.7-9.3,9.6c-0.3,0.5-0.8,4.2,0.9,5.4
		c1.4-1.8,5.3-6.9,9.3-10c1.2-0.9,2.5-1.9,3.9-3c5.6-4.1,4.9-8.5,3.5-11.3C56.6,434.4,55.4,436.6,52.5,438.8z"/>
	<path class="st10" d="M79.6,469.8c-0.6,1.5-2.2,2.9-5.2,3.7c-6.7,1.7-18,2.1-26.7-0.5c-5.4-1.5-7.2,0-4.9,1.1
		c3.3,1.5,10.3,5.2,24.8,5.4c2.7-0.1,5.3-0.5,7.7-1.1C81.8,476.7,81.6,472.2,79.6,469.8z"/>
	<path class="st10" d="M62.3,502.5c-8.5-1.8-20.8-8.5-20.6-7.8c0.4,0,10.6,12,30,14c7.8,0.8,8-5.6,5.9-8.1
		C76.9,502.5,73.9,505.3,62.3,502.5z"/>
	<path class="st10" d="M70.5,512.2c-0.8,2.3-3.3,4-8,2.3c-1.2-0.4-2.5-1-3.8-1.6c-7.6-3.7-15.4-10.6-21-20.4c0,0-6.1-6.9-8.3-16
		c-0.1-0.4-0.2-0.9-0.3-1.3c0.3,2,0.7,4,1.2,6.2c2.1,9.1,8.3,16,8.3,16c5.6,9.8,13.4,16.7,21,20.4c1.3,0.6,2.5,1.2,3.8,1.6
		C71.8,522.4,73.1,514.4,70.5,512.2z"/>
</g>
<g>
	<path class="st5" d="M66.1,495.6L66.1,495.6c2,1.2,4,2,6,2.8c-0.1-1.1-0.5-2-1.1-2.7C69.4,495.7,67.8,495.7,66.1,495.6z"/>
	<path class="st5" d="M47.3,459.2c1.1-0.6,2.2-7.9,5.6-9.3c0.2-0.1,0.5-0.2,0.7-0.4c8.1-4.1,5.6-10.4,4.3-12.8
		c-0.2,2.2-1.3,4.6-4.5,6.9c-1.5,1.1-2.8,2.1-3.9,3c-0.5,1.9-0.8,3.8-1.2,5.7C47.7,456.2,46.9,459.4,47.3,459.2z"/>
	<path class="st5" d="M68.9,511.1c-0.2-1.2-0.9-2.3-1.9-2.8c-0.3-0.1-0.5-0.2-0.8-0.4c-0.7-0.1-1.5-0.3-2.2-0.5
		C65.2,508.5,67.3,510.1,68.9,511.1z"/>
	<path class="st5" d="M74.5,478.6c-6.5,1.5-14.5,1.3-22.9-1.1c6.7,3.7,15.4,7.3,23,8C76.8,483.4,76.1,480.2,74.5,478.6z"/>
</g>
<g>
	<path class="st7" d="M60.1,517.5c0,0,0.6,0.9,1.9,2.7c1.2,1.7,3.1,4.2,5.6,7.2c2.6,3,5.9,6.5,10,10.1c4.1,3.6,9.1,7.3,14.9,10.8
		c5.8,3.5,12.4,6.6,19.7,9.3c1.8,0.7,3.7,1.2,5.6,1.9c0.5,0.1,1,0.3,1.4,0.4l1.5,0.4c1,0.3,2,0.5,3,0.8c2,0.5,4,1.1,6,1.6
		c2,0.4,4.1,0.9,6.1,1.3c2,0.5,4.2,0.8,6.3,1.1c1.1,0.2,2.1,0.3,3.2,0.5c1.1,0.2,2.1,0.3,3.2,0.4c2.2,0.2,4.3,0.4,6.5,0.5
		c1.1,0.1,2.2,0.1,3.3,0.1c1.1,0,2.2,0,3.3,0.1c8.9,0,17.9-0.7,26.7-2.6c8.8-1.9,17.4-4.7,25.5-8.3c8.1-3.6,15.7-8,22.6-12.9
		c6.9-4.9,13.1-10.3,18.5-15.8c5.4-5.5,10.2-11.2,14.2-16.6c4-5.5,7.3-10.7,9.9-15.6c2.6-4.9,4.6-9.2,5.9-13
		c0.4-0.9,0.7-1.8,0.9-2.6c0.3-0.8,0.5-1.6,0.8-2.3c0.4-1.5,0.7-2.7,1-3.8c0.4-2.1,0.6-3.2,0.6-3.2l1.3,0.2c0,0-0.2,1.1-0.5,3.3
		c-0.2,1.1-0.6,2.3-0.9,3.9c-0.2,0.7-0.5,1.5-0.7,2.4c-0.3,0.9-0.5,1.8-0.9,2.7c-1.3,3.8-3.3,8.3-5.8,13.2c-2.5,5-5.8,10.4-9.8,16
		c-4,5.6-8.7,11.4-14.2,17c-5.5,5.7-11.7,11.2-18.7,16.2c-7,5-14.7,9.6-22.9,13.4c-8.2,3.8-17,6.7-26,8.6c-9,1.9-18.2,2.7-27.3,2.7
		c-1.1,0-2.3,0-3.4,0c-1.1,0-2.3,0-3.4-0.1c-2.2-0.2-4.5-0.4-6.7-0.5c-1.1-0.1-2.2-0.2-3.3-0.4c-1.1-0.2-2.2-0.3-3.3-0.5
		c-2.2-0.3-4.3-0.6-6.4-1.1c-2.1-0.4-4.2-0.9-6.3-1.3c-2.1-0.4-4-1.1-6-1.6c-1-0.3-2-0.5-3-0.8l-1.5-0.4c-0.6-0.2-1-0.3-1.5-0.5
		c-1.9-0.6-3.8-1.2-5.7-2c-7.4-2.8-14.2-6.1-20.1-9.7c-5.9-3.6-10.9-7.6-15-11.4c-4.1-3.8-7.4-7.5-9.9-10.6
		c-2.5-3.2-4.3-5.8-5.4-7.6c-1.1-1.8-1.7-2.8-1.7-2.8L60.1,517.5z"/>
</g>
<g>
	<path class="st7" d="M50.1,446.8c0,0-0.1,0.9-0.3,2.3c-0.2,1.4-0.5,3.2-0.7,5c-0.3,1.8-0.6,3.6-0.9,5c-0.3,1.4-0.5,2.2-0.5,2.2
		l-1.3-0.1c0,0-0.1-0.9,0-2.3c0-1.4,0.2-3.3,0.6-5.1c0.3-1.8,0.8-3.7,1.2-5c0.4-1.3,0.8-2.2,0.8-2.2L50.1,446.8z"/>
</g>
<path class="st11" d="M168.4,521.4C168.4,521.4,168.4,521.4,168.4,521.4c-0.3,0.4-5.5,6.2-16.8,19.5c-3.8,4.4,2.5,13,10.6,5.7
	c12.5-11.5,22.8-18.5,22.8-18.5c5-3.2,22.3-10.8,28.9-16.3c5.7-4.7,8.1-9,10.9-13c0.4-0.5,0.7-1,1.1-1.5c1.3-1.8,9.1-6.2,11-7.8
	c0,0,1.5-5.5-3.2-17.7c-4.4-11.5-8.9-13.9-8.9-13.9c-0.3,0.1-8.4,4-8.7,4.1c-0.8,0.2-1.6,0.4-2.5,0.6c-9.2,1.7-21.5-0.7-21.5-0.7
	s-22.9-12.4-27.2-16.3c-2.1-1.9-9.8,6.3,4.6,17c9.5,7.1,7.1,10.8,7.1,10.8l-10,3c0,0-28.9-6-38.1-7.7c-5.7-1.1-10,8.7,0.3,12
	c16.2,5.2,27.7,10.6,27.7,10.6l-2.1,0.5c0,0-16.4,2.6-34.1,6.2c-5.7,1.2-6,11.8,4.8,11c16.9-1.3,34.3-1.5,34.3-1.5
	s-11.8,6.8-27.1,16.5c-4.9,3.1-1.4,13.2,8.4,8.5C156,525.4,167.9,521.5,168.4,521.4"/>
<g>
	<path class="st10" d="M169.6,462.6c3.3,2.5,5.2,4.5,6.2,6.2l0.8,1.4l0.2,2.8c0,0,2.3-8.2-7.3-15.3c-4.9-3.7-7.2-7-8.1-9.8
		C160.4,450.9,161.2,456.3,169.6,462.6z"/>
	<path class="st10" d="M129,480.6c8,2.6,22.8,8.6,27.7,10.6c3.6-0.6,0-4.9,0-4.9s-11.5-5.5-27.7-10.6c-3.1-1-4.9-2.5-5.7-4.2
		C121.8,474.4,122.8,478.7,129,480.6z"/>
	<path class="st10" d="M168.4,516.5c-0.5,0.2-12.5,4-27.5,11.1c-5.3,2.5-8.7,0.7-10-1.9c-2.1,4,1.6,10.7,10,6.8
		c8.7-4.1,22.1-9.1,27.2-11C172,516.9,168.2,516.7,168.4,516.5z"/>
	<path class="st10" d="M236.9,489.5c-2,1.6-9.7,6-11,7.8c-0.4,0.5-0.7,1-1.1,1.5c-2.8,4-5.3,8.3-10.9,13c-6.6,5.5-23.9,13-28.9,16.3
		c0,0-10.3,7-22.8,18.5c-7.6,7-13.7-0.5-11-5c1.6,3,6,4.7,11,0.1c12.5-11.5,22.8-18.5,22.8-18.5c5-3.2,22.3-10.8,28.9-16.3
		c5.7-4.7,8.1-9,10.9-13c0.4-0.5,0.7-1,1.1-1.5c0.7-1,3.3-2.7,5.9-4.4c0,0-0.1-16.7-8.3-25.6c-0.7-0.8-2.4-2.1-2.4-2.1l2.4-1.9
		C223.6,458.5,235.4,461.5,236.9,489.5"/>
	<path class="st10" d="M159.6,502.6c0,0-17.4,0.2-34.3,1.5c-4.5,0.4-7.1-1.3-8.1-3.4c-1.7,3.5,0.3,8.9,8.1,8.3
		c9.5-0.7,27.7-1.3,34.3-1.5c1.3-0.8,2.1-0.7,2.4-1.3C162.8,504.3,159.6,502.6,159.6,502.6z"/>
</g>
<g>
	<path class="st12" d="M168.2,520.8l0.5-0.2l0.3-0.1l0.1,0l0.1,0l0,0l0,0l0,0c0,0,0.1,0,0.2,0c0.1,0,0.1,0,0.3,0.1
		c0.1,0.1,0.3,0.2,0.3,0.4c0,0.3-0.1,0.4-0.1,0.4c0,0-0.1,0.1-0.1,0.1l0,0c-2.2,2.1-4.2,4.1-6.2,6.3c-2,2.1-3.9,4.4-5.9,6.6
		c-1.9,2.2-3.8,4.4-5.7,6.7l-0.2,0.2l-0.1,0.1l-0.1,0.1c-0.1,0.1-0.2,0.3-0.3,0.4c-0.2,0.3-0.3,0.6-0.4,0.9c-0.2,0.6-0.2,1.3-0.2,2
		c0.2,1.3,1,2.6,2,3.4c1.1,0.8,2.5,1.1,3.8,0.9c1.3-0.2,2.6-0.8,3.7-1.7c1.1-0.8,2.2-1.9,3.2-2.9c1.1-1,2.2-2,3.3-2.9
		c4.4-3.9,9-7.6,13.7-11.1c1.2-0.9,2.4-1.7,3.6-2.6c1.3-0.8,2.6-1.5,3.9-2.2c2.6-1.4,5.2-2.7,7.8-4c2.6-1.3,5.2-2.7,7.8-4.1
		c2.6-1.4,5.1-2.9,7.5-4.5c1.2-0.8,2.3-1.7,3.4-2.7c1.1-1,2.1-2,3.1-3c1.9-2.1,3.6-4.5,5.3-6.9l1.3-1.8l0.7-0.9l0.3-0.4
		c0.1-0.1,0.1-0.1,0.2-0.3l0.2-0.2c0.6-0.6,1.2-1.1,1.8-1.5c0.6-0.4,1.2-0.9,1.8-1.3c2.4-1.6,5-3.1,7.3-4.8l0,0l-0.2,0.3
		c0.1-0.6,0.2-1.3,0.2-2c0-0.7,0-1.4-0.1-2.1c-0.1-0.7-0.1-1.4-0.2-2.1c-0.1-0.7-0.2-1.4-0.4-2.1c-0.3-1.4-0.6-2.8-1.1-4.2
		c-0.2-0.7-0.4-1.4-0.7-2.1c-0.2-0.7-0.5-1.4-0.7-2c-0.2-0.7-0.5-1.3-0.8-2c-0.3-0.7-0.6-1.3-0.9-2c-0.3-0.7-0.6-1.3-0.9-1.9
		c-0.3-0.6-0.7-1.3-1-1.9c-0.4-0.6-0.7-1.2-1.1-1.8c-0.4-0.6-0.8-1.2-1.2-1.7c-0.4-0.6-0.9-1.1-1.4-1.6c-0.5-0.5-1-1-1.5-1.3l0,0
		l0.5,0l-7.6,3.5l-1,0.4c-0.4,0.1-0.7,0.2-1.1,0.3c-0.7,0.2-1.4,0.3-2.1,0.4c-1.4,0.2-2.8,0.3-4.2,0.4c-1.4,0.1-2.8,0-4.2,0
		c-1.4-0.1-2.8-0.1-4.2-0.3c-2.8-0.3-5.6-0.6-8.4-1.2l0,0c0,0,0,0-0.1,0c-5-2.7-10-5.4-14.9-8.3c-2.5-1.4-4.9-2.9-7.3-4.4
		c-1.2-0.8-2.4-1.5-3.6-2.4c-0.3-0.2-0.6-0.4-0.9-0.7L165,446c-0.1-0.1-0.3-0.3-0.4-0.3c-0.4-0.2-1,0-1.5,0.4
		c-1,0.8-1.5,2.2-1.6,3.5c-0.1,1.3,0.2,2.7,0.7,3.9c1.1,2.5,3,4.6,5.1,6.5c1,0.9,2.2,1.7,3.3,2.6c0.6,0.4,1.1,0.9,1.7,1.4
		c0.6,0.5,1.1,1,1.6,1.5c1,1,2,2.1,2.7,3.5c0.4,0.7,0.7,1.4,0.8,2.2c0.1,0.8,0.2,1.6-0.3,2.6l0,0c-0.1,0.1-0.2,0.2-0.3,0.3l0,0
		l-10,3l0,0l-0.1,0c-0.1,0-0.2,0-0.2,0c-7-2.1-14.2-3.4-21.3-4.9c-3.6-0.7-7.2-1.4-10.7-2l-5.4-1l-0.7-0.1c-0.2,0-0.5-0.1-0.7-0.1
		c-0.4,0-0.8,0.1-1.2,0.2c-0.8,0.2-1.5,0.7-2.1,1.3c-1.2,1.2-1.7,3.1-1.3,4.7c0.4,1.6,1.6,3,3.1,3.8c1.5,0.9,3.2,1.3,5,1.9
		c1.7,0.6,3.5,1.1,5.2,1.7c3.4,1.2,6.9,2.5,10.3,3.8c3.4,1.3,6.8,2.7,10.1,4.3l0,0l0,0c0.3,0.2,0.4,0.5,0.3,0.9
		c-0.1,0.2-0.3,0.3-0.5,0.3c-0.7,0.1-1.4,0.3-2.1,0.4l0,0l0,0c-1.8,0.2-3.6,0.5-5.4,0.7c-1.8,0.2-3.6,0.6-5.4,0.9
		c-3.6,0.6-7.2,1.3-10.8,2c-3.6,0.7-7.2,1.4-10.8,2.2c-0.9,0.2-1.8,0.3-2.6,0.7c-0.8,0.4-1.4,0.9-1.8,1.7c-0.9,1.4-1,3.3-0.3,4.8
		c0.7,1.5,2.2,2.6,3.9,3c1.7,0.5,3.4,0.3,5.3,0.1c3.6-0.3,7.3-0.6,11-0.8c3.7-0.2,7.3-0.4,11-0.5c3.7-0.1,7.3-0.2,11-0.2h0l0,0
		c0.4,0,0.6,0.3,0.6,0.6c0,0.2-0.1,0.5-0.3,0.6c-2.9,1.6-5.9,3.2-8.8,4.9c-2.9,1.7-5.8,3.4-8.6,5.2c-2.9,1.7-5.7,3.5-8.5,5.3
		c-0.7,0.5-1.5,0.9-2,1.4c-0.6,0.5-0.9,1.2-1.1,1.9c-0.4,1.5-0.1,3.1,0.9,4.3c0.9,1.2,2.4,1.9,3.9,2c1.5,0.1,3.1-0.4,4.5-1l4.5-2.2
		c1.5-0.7,3-1.4,4.6-2.1c3.1-1.4,6.2-2.6,9.3-3.8c1.6-0.6,3.2-1.1,4.7-1.7C165,521.7,166.6,521.2,168.2,520.8l0.4,1.2l-4.7,1.8
		l-4.7,1.8l-4.6,1.8c-1.5,0.6-3.1,1.2-4.6,1.9l-4.6,2l-4.6,2c-1.6,0.7-3.4,1.1-5.2,1c-1.8-0.1-3.6-1-4.7-2.6
		c-1.1-1.5-1.4-3.5-0.9-5.2c0.3-0.9,0.7-1.7,1.4-2.3c0.7-0.6,1.4-1,2.1-1.4l8.5-5.3c5.7-3.5,11.4-7,17.1-10.6l0.3,1.2l0,0l-11,0.3
		l-11,0.4c-3.7,0.2-7.3,0.3-11,0.6c-1.8,0.1-3.8,0.3-5.6-0.3c-1.9-0.5-3.7-1.7-4.5-3.6c-0.8-1.8-0.6-4,0.4-5.7
		c0.5-0.8,1.3-1.5,2.2-1.9c1-0.4,1.8-0.5,2.7-0.7l10.8-2l10.8-2c1.8-0.3,3.6-0.6,5.4-1c1.8-0.4,3.6-0.7,5.4-1.1l0,0
		c0.7-0.2,1.4-0.4,2.1-0.6l-0.1,1.2l0,0c-3.3-1.5-6.6-3-10-4.3c-3.4-1.4-6.8-2.7-10.2-3.9c-1.7-0.6-3.4-1.2-5.2-1.8l-2.6-0.9
		c-0.9-0.3-1.8-0.7-2.6-1.2c-1.6-1-3.1-2.5-3.5-4.5c-0.4-1.9,0.2-4,1.6-5.4c0.7-0.7,1.5-1.2,2.5-1.5c0.5-0.1,1-0.2,1.5-0.2
		c0.3,0,0.5,0,0.7,0.1l0.7,0.1l5.4,1.1l10.7,2.3c7.1,1.4,14.2,3.1,21.5,3.9l-0.3,0l0,0l10-3l-0.4,0.3l0,0c0.1-0.1,0.2-0.4,0.2-0.7
		c0-0.3,0-0.6-0.1-0.9c-0.1-0.6-0.4-1.2-0.7-1.8c-0.6-1.2-1.5-2.2-2.5-3.2c-0.5-0.5-1-1-1.5-1.4c-0.5-0.5-1.1-0.9-1.6-1.3
		c-1.1-0.9-2.3-1.7-3.3-2.7c-2.1-1.9-4.1-4.2-5.2-6.9c-0.6-1.4-0.9-2.9-0.7-4.4c0.1-1.5,0.7-3,2-4c0.3-0.2,0.7-0.5,1.1-0.6
		c0.4-0.1,0.9-0.1,1.4,0.1c0.2,0.2,0.3,0.3,0.5,0.4l0.4,0.3c0.3,0.2,0.5,0.4,0.8,0.6c1.1,0.8,2.3,1.6,3.5,2.4c2.4,1.5,4.8,3,7.2,4.5
		c4.9,2.9,9.8,5.7,14.8,8.5l-0.1,0l0,0c2.8,0.5,5.6,0.8,8.3,0.9c1.4,0.1,2.8,0.1,4.2,0.2c1.4,0,2.8,0,4.2-0.1
		c1.4-0.1,2.7-0.2,4.1-0.5c0.7-0.1,1.3-0.3,2-0.4c0.3-0.1,0.7-0.2,1-0.3l0.9-0.4l3.8-1.9l1.9-0.9l0.9-0.5c0.3-0.2,0.6-0.3,1-0.5
		c0.2-0.1,0.3-0.1,0.5,0l0,0l0,0c0.8,0.5,1.3,1,1.8,1.5c0.5,0.5,1,1.1,1.5,1.7c0.5,0.6,0.9,1.2,1.3,1.8c0.4,0.6,0.8,1.3,1.2,1.9
		c0.4,0.6,0.7,1.3,1.1,2c0.3,0.7,0.7,1.3,1,2c0.3,0.7,0.6,1.4,0.9,2c0.3,0.7,0.6,1.4,0.8,2.1c0.2,0.7,0.5,1.4,0.7,2.1
		c0.2,0.7,0.5,1.4,0.7,2.1c0.4,1.4,0.8,2.8,1.1,4.3c0.2,0.7,0.3,1.5,0.4,2.2c0.1,0.7,0.2,1.5,0.2,2.2c0.1,0.7,0.1,1.5,0.1,2.2
		c0,0.8-0.1,1.5-0.3,2.3c0,0.1-0.1,0.2-0.2,0.3l0,0l0,0c-1.2,1-2.5,1.7-3.7,2.5c-1.2,0.8-2.5,1.6-3.7,2.4c-1.2,0.8-2.5,1.7-3.3,2.6
		l-0.2,0.2c0,0-0.1,0.1-0.1,0.2l-0.3,0.4l-0.6,0.9l-1.2,1.8c-1.6,2.4-3.4,4.9-5.4,7.1c-2,2.2-4.2,4.2-6.7,5.9
		c-2.5,1.7-5,3.1-7.6,4.6c-2.6,1.4-5.2,2.7-7.8,4.1c-2.6,1.3-5.2,2.6-7.8,4c-1.3,0.7-2.6,1.4-3.7,2.1c-1.2,0.8-2.4,1.7-3.5,2.6
		c-4.7,3.5-9.2,7.2-13.7,11c-1.1,0.9-2.2,1.9-3.3,2.9c-1.1,1-2.1,2-3.4,2.9c-1.2,0.9-2.7,1.6-4.3,1.8c-1.6,0.2-3.3-0.2-4.5-1.2
		c-1.3-1-2.1-2.4-2.3-4c-0.1-0.8,0-1.6,0.2-2.4c0.1-0.4,0.3-0.7,0.5-1.1c0.1-0.2,0.2-0.3,0.3-0.5l0.1-0.1l0.1-0.1l0.2-0.2l5.8-6.6
		l5.9-6.6c2-2.2,3.9-4.4,5.8-6.6l0,0c0,0,0,0-0.1,0.1c0,0.1-0.1,0.1-0.1,0.4c0,0.2,0.2,0.3,0.3,0.4c0.1,0.1,0.2,0.1,0.3,0.1
		c0.1,0,0.1,0,0.2,0c0.1,0,0,0,0,0l0,0l0,0l-0.1,0l-0.1,0.1l-0.3,0.1l-0.5,0.2L168.2,520.8z"/>
</g>
<path class="st13" d="M216.2,462C216.2,462,216.2,462,216.2,462c3.3-10.2,13.1-5.6,18.7,13.1c6.4,21.2-3.1,27.4-9,22.2"/>
<g>
	<path class="st12" d="M42.6,452.7c0.8-1,1.6-2,2.6-2.9c0.9-0.9,1.9-1.8,2.8-2.6c0.5-0.4,1-0.8,1.5-1.2c0.5-0.3,1.1-0.7,1.6-1.1
		c0.5-0.4,1-0.8,1.5-1.2c0.5-0.4,1-0.8,1.5-1.2c0.5-0.4,0.9-0.8,1.3-1.3c0.4-0.5,0.8-1,1.1-1.5c0.6-1.1,0.9-2.2,0.9-3.4
		c0-1.2-0.3-2.4-0.8-3.5c-0.3-0.5-0.6-1.1-0.9-1.6c-0.4-0.5-0.8-1-1.2-1.4l0,0l0.6,0.2c-0.7,0.1-1.5,0.4-2.3,0.7
		c-0.8,0.3-1.5,0.6-2.3,1c-1.5,0.7-3,1.6-4.4,2.4c-1.4,0.9-2.8,1.9-4.1,2.9c-1.3,1.1-2.5,2.2-3.7,3.5c-4.6,5-7.4,11.4-8.5,18
		c-0.3,1.7-0.5,3.3-0.6,5c-0.1,1.7-0.1,3.4-0.1,5.1c0,0.8,0.1,1.7,0.1,2.5l0.3,2.5c0.2,1.7,0.5,3.4,0.8,5l0.6,2.5
		c0.2,0.8,0.4,1.7,0.7,2.4c0.5,1.6,1.2,3.2,1.9,4.7c0.8,1.5,1.6,3,2.5,4.4c0.9,1.4,1.9,2.8,3,4l0,0l0,0.1c0.6,1,1.2,2,1.9,3
		c0.6,1,1.3,1.9,2,2.8c0.7,0.9,1.4,1.8,2.2,2.7c0.8,0.9,1.6,1.7,2.4,2.5c0.8,0.8,1.7,1.6,2.5,2.4c0.9,0.8,1.8,1.5,2.7,2.2
		c0.9,0.7,1.9,1.4,2.8,2l1.5,0.9l1.5,0.8l1.6,0.8c0.5,0.3,1,0.5,1.6,0.7c1,0.5,2.1,0.9,3.2,1.2c1.1,0.3,2.2,0.4,3.2,0.2
		c1.1-0.2,2-0.8,2.6-1.7c0.6-0.9,0.8-2.1,0.7-3.2c-0.1-1.1-0.7-2.2-1.8-2.6c-1-0.6-2-1.3-3-1.9c-1-0.6-2-1.3-3-1.9l0.8-1
		c1.7,1.6,3.5,3.2,5.4,4.4c0.2,0.1,0.5,0.3,0.8,0.5c0.2,0.2,0.4,0.5,0.6,0.7c0.3,0.5,0.5,1.1,0.6,1.7c0.2,1.2,0,2.5-0.6,3.6
		c-0.6,1.1-1.7,2-2.9,2.3c-1.2,0.4-2.5,0.3-3.8,0.1c-1.2-0.2-2.3-0.7-3.5-1.1c-0.6-0.2-1.1-0.5-1.7-0.7l-1.6-0.8l-1.6-0.9l-1.5-0.9
		c-1-0.7-2-1.3-2.9-2.1c-0.9-0.7-1.9-1.5-2.8-2.3l-1.3-1.2l-1.3-1.3c-0.8-0.9-1.6-1.7-2.4-2.7c-0.8-0.9-1.5-1.8-2.2-2.8
		c-0.7-1-1.4-1.9-2-2.9c-0.7-1-1.2-2-1.8-3.1l0.1,0.1c-1.1-1.4-2.1-2.8-3.1-4.2c-0.9-1.5-1.8-3-2.5-4.5c-0.8-1.6-1.4-3.2-2-4.8
		c-0.3-0.8-0.5-1.7-0.7-2.5l-0.6-2.5c-0.3-1.7-0.6-3.4-0.8-5.1l-0.3-2.6c0-0.9-0.1-1.7-0.2-2.6c-0.1-1.7-0.1-3.5,0.1-5.2
		c0.1-1.7,0.3-3.4,0.6-5.2c1.2-6.8,4-13.4,8.8-18.6c1.2-1.3,2.4-2.5,3.8-3.6c1.3-1.1,2.7-2.1,4.2-3.1c1.5-0.9,3-1.8,4.5-2.6
		c0.8-0.4,1.6-0.7,2.4-1.1c0.8-0.3,1.6-0.6,2.6-0.8l0.3-0.1l0.2,0.2l0,0c0.5,0.5,0.9,1.1,1.2,1.6c0.4,0.6,0.7,1.2,0.9,1.8
		c0.5,1.2,0.8,2.6,0.8,3.9c0,1.4-0.5,2.7-1.2,3.8c-0.3,0.6-0.7,1.1-1.2,1.6c-0.4,0.5-0.9,0.9-1.4,1.4c-0.5,0.4-1,0.8-1.5,1.2
		c-0.5,0.4-1,0.7-1.5,1.1c-0.5,0.4-1,0.8-1.4,1.3c-0.5,0.4-1,0.8-1.5,1.2c-1,0.8-2,1.6-3,2.4c-1,0.8-1.9,1.6-2.9,2.5L42.6,452.7z"/>
</g>
<g>
	<path class="st12" d="M42.6,473.8c0,0,1.2,0.5,3.4,1.3c1.1,0.4,2.4,0.9,4,1.4c1.5,0.5,3.3,0.9,5.2,1.5c1.9,0.6,4.1,0.9,6.3,1.1
		c2.3,0.2,4.7,0.2,7.1,0c2.5-0.2,5-0.6,7.5-1.4c0.7-0.2,1.2-0.5,1.7-0.7c0.5-0.3,1.1-0.7,1.5-1.1c0.8-0.9,1.3-2.1,1.2-3.3
		c0-1.2-0.7-2.5-1.7-3.2c-0.5-0.3-1.1-0.7-1.7-0.7c-0.6,0-1.3,0.1-1.9,0.1c-2.7,0.1-5.3,0-7.8-0.4c-2.5-0.4-4.9-1-7.1-1.6
		c-2.2-0.7-4.3-1.4-6.1-2.1c-1.9-0.7-3.6-1.3-5.1-2c-1.5-0.6-2.8-1.2-3.8-1.8c-1-0.6-1.8-1.1-2.3-1.5c-0.5-0.4-0.7-0.7-0.7-0.7
		s1.3,0.4,3.4,1.5c1,0.5,2.3,1.1,3.8,1.8c1.5,0.7,3.1,1.4,5,2.1c3.8,1.3,8.3,2.5,13.1,3.4c2.4,0.4,5,0.8,7.6,0.8c0.7,0,1.3-0.1,2,0
		c0.7,0,1.4,0.4,1.9,0.8c0.3,0.2,0.5,0.5,0.7,0.7c0.1,0.1,0.2,0.3,0.3,0.4l0.3,0.4c0.2,0.3,0.3,0.6,0.5,0.9c0.1,0.3,0.2,0.7,0.3,1
		c0.1,0.7,0.1,1.5-0.1,2.2l-0.2,0.5c-0.1,0.2-0.2,0.3-0.3,0.5l-0.3,0.5c-0.1,0.1-0.2,0.3-0.4,0.4c-0.5,0.6-1.1,0.9-1.7,1.3
		c-0.6,0.3-1.3,0.6-1.9,0.8c-2.6,0.8-5.2,1.1-7.7,1.3c-2.5,0.1-5,0.1-7.3-0.1c-2.3-0.2-4.4-0.6-6.4-0.9c-2-0.3-3.8-0.9-5.3-1.4
		c-1.5-0.5-2.9-1.1-3.9-1.6c-2.1-1-3.3-1.7-3.3-1.7L42.6,473.8z"/>
</g>
<g>
	<path class="st12" d="M41.5,487.1c0,0,0.3,0.1,0.7,0.4c0.5,0.3,1.2,0.7,2.1,1.2c1.8,1,4.5,2.3,7.8,3.5c3.3,1.2,7.3,2.2,11.6,2.7
		c2.2,0.2,4.4,0.3,6.7,0.2c1.1-0.1,2.3-0.2,3.4-0.4c0.6-0.1,1.2-0.2,1.7-0.4l0.8-0.3l0.7-0.4c0.9-0.5,1.7-1.2,2.1-2.2
		c0.4-1,0.3-2.1,0-3.1c-0.4-1-1.1-1.9-2.1-2.3c-0.3-0.1-0.5-0.1-0.8-0.2l-0.8-0.1c-0.6,0-1.1-0.1-1.7-0.2c-2.2-0.3-4.3-0.8-6.3-1.3
		c-2-0.5-3.8-1.1-5.4-1.8c-3.3-1.2-6-2.5-7.8-3.5c-0.9-0.5-1.6-0.9-2.1-1.1c-0.2-0.1-0.4-0.2-0.5-0.3c-0.1-0.1-0.1-0.3-0.1-0.3
		s0.1-0.1,0.3-0.1c0.2,0,0.3,0.2,0.6,0.3c0.5,0.3,1.2,0.6,2.1,1.1c1.8,0.9,4.5,2.2,7.8,3.5c3.3,1.2,7.2,2.6,11.6,3.1
		c0.5,0.1,1.1,0.1,1.6,0.2l0.8,0c0.3,0,0.6,0.1,0.9,0.2c1.2,0.4,2,1.4,2.5,2.5c0.5,1.1,0.7,2.4,0.4,3.7c-0.3,1.3-1.3,2.4-2.4,3
		c-0.3,0.2-0.6,0.3-0.8,0.5l-0.9,0.3c-0.6,0.3-1.2,0.3-1.8,0.4c-1.2,0.2-2.4,0.3-3.6,0.3c-2.4,0.1-4.7-0.1-6.9-0.4
		c-4.4-0.6-8.4-1.8-11.7-3.2c-3.3-1.3-5.9-2.8-7.6-3.9c-0.9-0.5-1.6-1-2-1.3C41.8,487.2,41.5,487.1,41.5,487.1z"/>
</g>
<g>
	<path class="st12" d="M41.7,494.7c0,0,0.7,0.6,2,1.6c1.3,1,3.1,2.4,5.5,3.9c1.2,0.8,2.5,1.5,3.9,2.2c1.4,0.7,2.9,1.4,4.5,2.1
		c3.2,1.3,6.7,2.4,10.3,3c0.9,0.2,1.8,0.3,2.7,0.4c0.4,0,0.9,0.1,1.3,0.1c0.5,0,0.9,0,1.4,0c0.4,0,0.8-0.1,1.2-0.1
		c0.4-0.1,0.8-0.2,1.2-0.3c0.7-0.3,1.5-0.7,2-1.4c1-1.3,1.1-3.1,0.5-4.6c-0.3-0.7-0.8-1.3-1.4-1.7c-0.6-0.4-1.4-0.4-2.1-0.6
		c-2.7-0.7-4.9-1.6-6.5-2.1c-1.5-0.6-2.4-0.9-2.4-0.9l0.6-1.1c0,0,0.8,0.5,2.2,1.4c1.4,0.8,3.5,1.9,6.2,2.6c0.7,0.2,1.4,0.3,2.1,0.7
		c0.7,0.4,1.2,1.1,1.5,1.8c0.7,1.5,0.9,3.4-0.1,5.1c-0.5,0.8-1.3,1.4-2.1,1.9c-0.4,0.2-0.9,0.4-1.4,0.5c-0.5,0.1-1,0.2-1.5,0.3
		c-0.5,0-0.9,0.1-1.4,0.1c-0.5,0-1,0-1.5,0c-0.9,0-1.9-0.2-2.8-0.3c-3.8-0.6-7.4-1.8-10.6-3.3c-1.6-0.7-3.1-1.5-4.5-2.4
		c-1.4-0.8-2.7-1.7-3.8-2.5c-1.2-0.8-2.2-1.6-3-2.4c-0.9-0.8-1.6-1.4-2.2-2c-0.6-0.6-1-1-1.3-1.3C41.8,494.9,41.7,494.7,41.7,494.7z
		"/>
</g>
<g>
	<path class="st14" d="M178.4,456.7c-8-6.7-8,2.4,5.2,9.8c13.2,7.5-7,12.9-11.7,13c-4.7,0.1-31.4-6.8-37.9-8c-6.5-1.3-2.2,2.9,5,4.6
		c7.1,1.7,15.8,4.6,22.1,7.2c6.3,2.6,3.9,8-3.9,10c-2.8,0.7-7.9,1.9-11.5,2.4c-6.5,0.9-11,0.9-10.6,2.7c0.8,3.3,20,0.7,23.1,0.7
		c8.5-0.1,40.1-1.2,60.2-27.6c-0.9-3.2-2.3-5.1-2.3-5.1C198.6,467.1,186.4,463.4,178.4,456.7z"/>
</g>
<g>
	<path class="st14" d="M35.8,486.5c0-0.1-0.2-0.3-0.4-0.6C36.1,487.6,36.4,488,35.8,486.5z"/>
	<path class="st14" d="M71,471.5c-12.5-2-28.8-5.3-33.9-15c-1-14.1,14.8-23.1,12.4-21.7c-10.3,5.7-11.9,9.2-13.7,13.4
		c-1.4,3.3-4.3,14.9-3.6,20.9c1.7,14.2,27.1,14.2,12.6,8.8c-9.8-3.6-9-14.3-5.2-11.4c1.8,1.2,4.3,2.4,7.6,3.3
		C65.4,474.9,73.1,471.9,71,471.5z"/>
</g>
<g>
	<path class="st11" d="M149.7,72.3c-23.1,6.2-38,6.4-42,26.2c-1.5,7.5-1,33.3,0.6,40.6c0.8,3.5,0.5,4.6,1,9.3
		c0.2,0.1,1.7,27.4,4.3,46.7c1.3,9.4,5.8,19.1,10,31.2c2.9,8.3,9.5,22.2,16.7,32.7c6.2,8.9,27.8,10.4,43.4,7.4
		c1-0.2,24.5-7.1,28.6-9.1c13.4-6.7,22.8-24,24.5-51.5c0.2-4-0.5-12.4-0.5-12.4c0.1,0,0.1,0,0.2,0c3.5,0.1,6.5-1.8,8.6-4.4
		c0,0,0-0.1,0.1-0.1c3-3.7,4.4-8.6,4.6-13.3c0,0.1,3.1-13.6,2.6-13.9c-1.7-0.9-0.8-22.3-2.2-23.6C250.3,138.1,240,35.7,149.7,72.3z"
		/>
</g>
<path class="st10" d="M153.5,154c0,0,2.5-21-4.9-24.3c-7.2-3.2-30.4,7.4-34.1,16.3c-3.7,8.9-4.1,9.3-4.1,23c0,6.7,0.3,3.2,3.7,21.9
	c-1.3,23,11.3,44.8,18.6,67.7c0.9,2.8,4.3,6.3,17,8.3c6.9,1.1,22.9-1.5,14.4-7.5c-1-0.7-8.4-2-9.3-7.8c-0.3-1.9,2.7-3.7,3.4-7
	c0.4-1.6-4.4-1.6-9.3-3c-5.7-1.6-11.6-5-10.4-14.6c0.8-6.5,18.2-2.4,18.2-3.8c0.1-4.3,3.6-18,0.5-16.7c-6.1,2.5-12.4,2-12.5-3.3
	c-0.1-3.7,2.7-6.2,2.8-10C147.6,182.1,153.9,166.7,153.5,154z"/>
<path class="st15" d="M143,123c0,0,5.2,13.4-8.4,14.1c-8.3,0.4-20.4,10.7-20.4,10.7C103.7,129.6,136.7,120.5,143,123z"/>
<path class="st10" d="M234.4,208.2l-0.2-13.3l5.1,0.9l0,11.7c-1.4,16.6-1.1,30.2-0.5,40.4c0.1,0.9,0.1,1.8,0.2,2.6
	c0.5,8,1.1,11.3,1.1,17.3c0,17.9-37.2,37.6-57.7,41.6c-8.1,1.6-9.2-22.6-9.2-27.9c0-13.3,0-15.2,0-15.2c16.4-3.2,37.3-16.5,48-26.2
	C227.6,228.3,233.3,222.5,234.4,208.2z"/>
<path class="st11" d="M238.1,275c-3.2-11-11.4-15.7-21.3-15.7c-12.6,0-22.7,12.7-22.7,28.5c0,1.8,0.6,14.9,0.9,16.5
	C211.4,305.3,231.7,285.9,238.1,275z"/>
<path class="st10" d="M169.4,146.4c-3.7-31.2,9.3-30.5,18.2-27.1c11.9,4.6,16.7,20,20.4,37.9c3.3,15.7-11.7,30.6-23.8,24.9
	C172.1,176.3,171.7,166,169.4,146.4z"/>
<path class="st16" d="M115.3,166.5c0.1-1.4,0.4-2.7,0.7-3.8c-0.8,2-1.1,4.2-0.7,6.4c1.6,10.4,9.2,12.5,21.7,9.2
	c5.9-1.6,10.6-10.2,9.7-16C144,162,127.4,160.2,115.3,166.5z"/>
<path class="st16" d="M203.3,157.2c0.1,0.3,0.1,0.6,0.2,0.9c0,0-14.1-4.8-30.9,2.4c0,0.3,0,0.5,0,0.8c0.8,11.8,8.1,16.7,20.1,14.8
	C200.2,175.1,205.3,164.8,203.3,157.2z"/>
<g>
	<path class="st12" d="M152.7,135.3c0.3,1.9,0.7,3.8,0.9,5.7c0.3,1.9,0.4,3.9,0.6,5.8c0.1,1.9,0.2,3.9,0.2,5.8
		c0,1.9-0.1,3.9-0.3,5.8c-0.2,1.9-0.4,3.9-0.8,5.8c-0.4,1.9-0.8,3.8-1.4,5.7c-0.5,1.9-1.1,3.7-1.7,5.6c-0.3,0.9-0.6,1.9-0.8,2.8
		c-0.2,0.9-0.3,1.8-0.4,2.7c-0.1,1.9-0.1,3.9-0.4,5.8c-0.1,1-0.4,2-0.8,2.9c-0.3,0.9-0.6,1.8-0.9,2.7c-0.5,1.8-1,3.7-1,5.5
		c0,0.9,0.1,1.7,0.5,2.3c0.4,0.6,1,0.9,1.8,1c1.7,0.1,3.5-0.4,5.3-1c1.8-0.6,3.5-1.4,5.3-2.2l1.3-0.6c0.5-0.2,1-0.4,1.4-0.5
		c1-0.3,2-0.5,3-0.7c1-0.1,2.1-0.1,3.1,0c0.5,0.1,1,0.1,1.5,0.2c0.4,0.1,1,0.1,1.1,0.1l0,0l0.1,0c0.1,0,0.3-0.1,0.5-0.2
		c0.2-0.1,0.3-0.2,0.5-0.3c0.3-0.2,0.5-0.5,0.7-0.8c0.1-0.1,0.1-0.3,0.2-0.5c0-0.2,0-0.4,0-0.5c0-0.1,0-0.5-0.1-0.6
		c0-0.2-0.1-0.4-0.1-0.6c-0.2-0.8-0.6-1.7-1.1-2.4c-0.5-0.7-1.1-1.3-1.8-1.5l0,0c-0.4-0.1-0.6-0.5-0.5-0.9c0.1-0.4,0.5-0.6,0.9-0.5
		c0.6,0.2,1.1,0.5,1.5,0.9c0.4,0.4,0.8,0.8,1.1,1.2c0.6,0.9,1.1,1.8,1.4,2.9c0.1,0.3,0.1,0.5,0.2,0.8c0,0.3,0.1,0.4,0.1,0.8
		c0,0.3,0,0.6-0.1,0.9c-0.1,0.3-0.2,0.6-0.3,0.9c-0.3,0.6-0.7,1-1.2,1.4c-0.2,0.2-0.5,0.3-0.8,0.4c-0.3,0.1-0.5,0.2-0.9,0.3l0.1,0
		c-0.8,0.2-1.3,0.1-1.8,0c-0.5-0.1-1-0.1-1.4-0.2c-0.9-0.1-1.8-0.1-2.7,0c-0.9,0.1-1.8,0.3-2.7,0.6c-0.4,0.1-0.9,0.3-1.3,0.5
		l-1.3,0.6c-1.8,0.8-3.6,1.6-5.4,2.3c-1.9,0.6-3.8,1.3-6,1.1c-0.6-0.1-1.1-0.2-1.7-0.5c-0.5-0.3-1-0.7-1.4-1.3
		c-0.7-1.1-0.8-2.2-0.8-3.2c0-2.1,0.6-4,1.1-5.9c0.3-0.9,0.6-1.9,1-2.8c0.3-0.9,0.6-1.7,0.7-2.7c0.3-1.8,0.3-3.8,0.5-5.7
		c0.1-1,0.2-2,0.5-3c0.3-1,0.6-1.9,0.9-2.8c0.6-1.8,1.2-3.7,1.8-5.5c0.6-1.8,1-3.7,1.4-5.6c0.4-1.9,0.7-3.8,0.9-5.7
		c0.2-1.9,0.4-3.8,0.4-5.8c0.1-1.9,0-3.9,0-5.8c-0.1-1.9-0.2-3.9-0.4-5.8C153.1,139.2,152.9,137.3,152.7,135.3z"/>
</g>
<path class="st17" d="M173.1,281.6c0-15.2,0-15.2,0-15.2"/>
<path class="st17" d="M238.3,217.6c0,0-0.1,20.1,0.5,30.4c0.1,0.9,0.1,1.8,0.2,2.6c0.5,8,1.1,11.3,1.1,17.3"/>
<g>
	<path class="st12" d="M248.4,156.6c0,0,0,0.4,0,1c0,0.7,0.1,1.6,0.1,2.7c0,0.6,0,1.2,0,1.9c0,0.7,0,1.4-0.1,2.1
		c-0.1,0.7-0.1,1.5-0.3,2.2c-0.2,0.8-0.3,1.5-0.5,2.3c-0.2,0.8-0.4,1.5-0.7,2.3c-0.3,0.7-0.6,1.4-1,2.1c-0.2,0.3-0.4,0.7-0.6,0.9
		c-0.2,0.3-0.4,0.6-0.7,0.8c-0.2,0.3-0.5,0.5-0.7,0.7c-0.2,0.2-0.5,0.4-0.7,0.6c-0.5,0.4-1,0.6-1.4,0.9c-0.5,0.2-0.9,0.3-1.2,0.4
		c-0.4,0.1-0.6,0.1-0.8,0.1c-0.2,0-0.3,0-0.3,0c-0.3,0-0.6-0.3-0.6-0.6c0-0.3,0.2-0.5,0.5-0.6l0.1,0c0,0,0.1,0,0.2,0
		c0.1,0,0.4-0.1,0.6-0.2c0.3-0.1,0.6-0.2,1-0.4c0.3-0.2,0.7-0.5,1.1-0.8c0.2-0.2,0.4-0.3,0.6-0.6c0.2-0.2,0.4-0.4,0.5-0.7
		c0.2-0.2,0.3-0.5,0.5-0.8c0.2-0.3,0.3-0.6,0.4-0.9c0.3-0.6,0.5-1.2,0.7-1.9c0.2-0.7,0.3-1.4,0.5-2.1c0.1-0.7,0.2-1.4,0.2-2.1
		c0-0.7,0-1.4,0-2.1c0-0.7,0-1.3-0.1-1.9c0-0.6-0.1-1.2-0.1-1.7c-0.1-1.1-0.3-2-0.3-2.7c-0.1-0.6-0.1-1-0.1-1
		c-0.1-0.9,0.5-1.8,1.4-1.9c0.9-0.1,1.8,0.5,1.9,1.4C248.4,156.5,248.4,156.6,248.4,156.6z"/>
</g>
<path class="st14" d="M201.6,202.4c-4.2-6-16.7-6.9-22.1-7.6s-5.6-2.3-1.5-6.8c5.8-6.3,27.9-6.1,30.7,12.9
	C209.2,204.4,207,210.3,201.6,202.4z"/>
<path class="st19" d="M125.4,205c1.6-4.4,10-12.2,13.2-13.5c3.2-1.3,3.1-2.3-0.2-4.4c-4.6-3-18.9,6-17.6,18.2
	C121,207.5,123.3,210.8,125.4,205z"/>
<g>
	<path class="st20" d="M137.9,169.1c-0.8-5-4.6-8.7-8.6-8.3c-3.9,0.4-6.5,4.8-5.7,9.8c0.8,5,4.6,8.7,8.6,8.3
		c1.2-0.1,2.4-0.7,3.3-1.5c2.5-2.6,2.2-5,2.6-7.6C138,169.7,137.9,169.4,137.9,169.1z"/>
	<path class="st21" d="M128,163.5c4.4-0.4,8.7,3.3,9.6,8.3c0.1-0.6,0.3-1.3,0.3-1.9c0-0.3,0-0.5-0.1-0.8c-0.8-5-4.6-8.7-8.6-8.3
		c-2.4,0.3-4.2,2-5.2,4.4C125.2,164.3,126.5,163.6,128,163.5z"/>
	<path class="st22" d="M130.2,174C130.2,174,130.2,174,130.2,174c-0.8-2.5-2.8-4.1-4.8-3.9c-0.5,0-0.9,0.2-1.3,0.4
		c-0.1,0.1-0.3,0.2-0.4,0.3c0.7,3.9,3.2,7,6.2,7.9c0.6-1,0.8-2.4,0.6-3.8C130.4,174.6,130.3,174.3,130.2,174z"/>
	<g>
		<g>
			<path class="st23" d="M137.6,169.2c-0.1-0.9-0.3-1.7-0.7-2.5c-0.3-0.8-0.7-1.6-1.2-2.3c-1-1.4-2.4-2.6-4-3.1
				c-1.6-0.5-3.5-0.3-4.9,0.7c-1.4,1-2.4,2.6-2.8,4.2c-0.9,3.4,0,7.2,2.2,9.8c1.1,1.3,2.6,2.4,4.3,2.6c1.7,0.3,3.4-0.3,4.7-1.4l0,0
				l0,0c0.3-0.2,0.5-0.3,0.8-0.6c0.2-0.2,0.4-0.5,0.6-0.7c0.3-0.5,0.6-1.2,0.7-1.8c0.3-1.3,0.3-2.7,0.3-4.1l0,0L137.6,169.2
				L137.6,169.2z M138.2,169.1l0.1,0.8l0,0l0,0c0,1.4,0,2.8-0.3,4.3c-0.2,0.7-0.4,1.4-0.8,2.1c-0.2,0.3-0.4,0.6-0.7,0.9
				c-0.3,0.3-0.6,0.5-0.9,0.7l0.1,0c-0.7,0.6-1.5,1.1-2.4,1.3c-0.9,0.2-1.9,0.2-2.8,0.1c-1.8-0.4-3.4-1.5-4.5-2.9
				c-2.3-2.8-3.2-6.7-2.3-10.2c0.5-1.7,1.4-3.4,2.9-4.5c1.5-1.1,3.5-1.4,5.3-0.8c1.8,0.6,3.2,1.8,4.3,3.2c0.5,0.7,1,1.5,1.3,2.4
				C137.8,167.3,138.1,168.2,138.2,169.1L138.2,169.1z"/>
		</g>
	</g>
	<path d="M135.5,168.5c0.5,3.1-1.1,5.9-3.6,6.2c-2.5,0.3-4.9-2.1-5.4-5.2c-0.5-3.1,1.1-5.9,3.6-6.2c0.2,0,0.4,0,0.6,0
		c-0.8,0.5-1.3,1.6-1.1,2.8c0.3,1.6,1.5,2.7,2.7,2.6c1.2-0.1,2-1.5,1.8-3.1c0-0.2-0.1-0.3-0.1-0.5
		C134.7,166.1,135.3,167.2,135.5,168.5z"/>
	<path class="st16" d="M134.1,165.7c0-0.2-0.1-0.3-0.1-0.5c0,0,0,0,0,0c-0.4-1.3-1.5-2.2-2.6-2.1c-0.3,0-0.5,0.1-0.7,0.2
		c-0.8,0.5-1.3,1.6-1.1,2.8c0.3,1.6,1.5,2.7,2.7,2.6C133.6,168.6,134.4,167.3,134.1,165.7z"/>
</g>
<g>
	<path class="st20" d="M193.2,166c-0.4-5.8-4-10.2-8-10c-4,0.2-6.8,5.1-6.4,10.9c0.5,5.8,4,10.2,8,10c1.3-0.1,2.4-0.6,3.4-1.5
		c2.6-2.9,2.5-5.5,3-8.5C193.3,166.6,193.3,166.3,193.2,166z"/>
	<path class="st21" d="M183.8,159c4.4-0.2,8.4,4.3,9.1,10c0.2-0.7,0.3-1.4,0.5-2.1c0-0.3,0-0.6,0-0.9c-0.4-5.8-4-10.2-8-10
		c-2.4,0.1-4.4,2-5.5,4.7C180.9,159.7,182.3,159.1,183.8,159z"/>
	<path class="st22" d="M185.2,171.1C185.2,171.1,185.2,171.1,185.2,171.1c-0.6-2.9-2.5-4.9-4.6-4.8c-0.5,0-0.9,0.2-1.3,0.4
		c-0.2,0.1-0.3,0.2-0.4,0.3c0.4,4.5,2.8,8.2,5.7,9.4c0.6-1.1,0.9-2.6,0.8-4.3C185.4,171.9,185.3,171.5,185.2,171.1z"/>
	<g>
		<g>
			<path class="st23" d="M192.9,166.1c-0.1-1-0.2-1.9-0.5-2.8c-0.2-0.9-0.6-1.8-1-2.6c-0.8-1.6-2.1-3.1-3.8-3.9
				c-0.8-0.4-1.7-0.6-2.7-0.5c-0.9,0.1-1.8,0.5-2.5,1c-1.5,1.1-2.4,2.8-2.9,4.6c-0.5,1.8-0.6,3.7-0.4,5.6c0.2,1.9,0.8,3.7,1.7,5.3
				c0.9,1.6,2.3,3,4.1,3.6c0.9,0.3,1.8,0.3,2.7,0c0.9-0.2,1.7-0.7,2.3-1.3l0,0l0,0c0.6-0.3,1.1-0.9,1.5-1.5c0.4-0.6,0.6-1.3,0.8-2.1
				c0.4-1.5,0.4-3,0.6-4.6l0,0L192.9,166.1L192.9,166.1z M193.6,166l0,0.9l0,0l0,0c-0.1,1.6-0.1,3.2-0.5,4.8
				c-0.2,0.8-0.5,1.6-0.9,2.3c-0.4,0.7-1,1.4-1.8,1.8l0.1-0.1c-0.7,0.7-1.7,1.2-2.7,1.4c-1,0.2-2,0.1-3-0.2
				c-1.9-0.7-3.3-2.2-4.3-3.8c-1-1.7-1.6-3.6-1.8-5.5c-0.2-1.9-0.1-3.9,0.4-5.8c0.5-1.9,1.5-3.7,3.1-4.9c0.8-0.6,1.7-1,2.7-1.1
				c1-0.1,2,0.1,2.9,0.5c1.8,0.8,3.2,2.4,4.1,4.1c0.5,0.9,0.8,1.8,1.1,2.7C193.3,164.1,193.5,165,193.6,166L193.6,166z"/>
		</g>
	</g>
	<path d="M190.9,165.2c0.3,3.6-1.5,6.7-4,6.8c-2.5,0.2-4.7-2.7-5-6.3c-0.3-3.6,1.5-6.7,4-6.8c0.2,0,0.4,0,0.6,0
		c-0.9,0.5-1.4,1.8-1.3,3.2c0.1,1.8,1.3,3.2,2.5,3.1c1.3-0.1,2.1-1.6,2-3.4c0-0.2,0-0.4-0.1-0.6
		C190.3,162.3,190.7,163.7,190.9,165.2z"/>
	<path class="st16" d="M189.7,161.9c0-0.2,0-0.4-0.1-0.6c0,0,0,0,0,0c-0.3-1.5-1.3-2.6-2.4-2.5c-0.3,0-0.5,0.1-0.7,0.2
		c-0.9,0.5-1.4,1.8-1.3,3.2c0.1,1.8,1.3,3.2,2.5,3.1C189,165.2,189.9,163.7,189.7,161.9z"/>
</g>
<path class="st15" d="M170.7,121c0,0-10.3,15,8.7,13.7c11.6-0.8,25.6,5.2,25.6,5.2c-0.6-3.4-0.6-10.3-2.9-12.8
	C195,119.3,176.9,118.4,170.7,121z"/>
<path class="st24" d="M186.8,217.6c0,0-14,13.5-21.1,15.9c-29.5,10-27-9.2-27-9.2s7.1-6.2,20-7C171.7,216.4,173.8,219.9,186.8,217.6
	z"/>
<path class="st15" d="M175.8,220.5c0,0-12.4-1.2-21.1-1.5c-6.8-0.2-14.1,4.7-19.1,5.5c-5.6,0.9-7.6-1.9-7.6-1.9l3.4-2.3
	c2.2-0.6,2.5-1.4,3.9-5.2c0.7-2.1,3-5.2,4.6-6.8c3.7-3.7,10.6-4.4,16.8-1.9c5.7,2.3,15-6.6,21.8,0.9c6.6,7.3,18.2,14,18.2,14
	S181.3,221.8,175.8,220.5z"/>
<circle class="st25" cx="211.5" cy="218.6" r="1.3"/>
<circle class="st25" cx="223.9" cy="212.1" r="1.3"/>
<circle class="st25" cx="224.4" cy="223.5" r="1.3"/>
<circle class="st25" cx="198.5" cy="212.5" r="0.6"/>
<circle class="st25" cx="130.5" cy="233.5" r="0.6"/>
<circle class="st25" cx="134.4" cy="249.9" r="0.8"/>
<circle class="st25" cx="149.2" cy="255.2" r="0.8"/>
<circle class="st25" cx="125.5" cy="223.3" r="0.8"/>
<circle class="st25" cx="168.2" cy="244.5" r="0.8"/>
<circle class="st25" cx="194.8" cy="233.7" r="1.3"/>
<circle class="st25" cx="186" cy="234.7" r="1.3"/>
<circle class="st25" cx="212.8" cy="238.9" r="1.3"/>
<circle class="st25" cx="199.4" cy="251.9" r="1.3"/>
<circle class="st25" cx="183.5" cy="245.2" r="1.3"/>
<circle class="st25" cx="173.2" cy="257.3" r="1.3"/>
<path class="st26" d="M179,222.8c0,0-11.5,9-19,10.8s-14.5,1.5-17.8-2.5s-1.5-4.5,0.8-5s4.6,1,9.1,1s4.5-0.2,10.5-1.2
	S176.8,223.3,179,222.8z"/>
<path class="st15" d="M139.8,224.8c0,0,4.5,0.3,9.9,0s6.5-1.5,10.3-1.1s6-0.3,10.9-0.7c4.9-0.4,6.7-1.1,6.7-1.1s-9.6,0.3-15.6,0.4
	c-6,0.1-5.9-0.6-9.8,0.1C148.3,223.1,139.8,224.8,139.8,224.8z"/>
<path class="st14" d="M153.5,173c0,0-3,14.5-4,18s0,8.5,2.5,7.5s3.5-2.5,3.5-10S153.5,173,153.5,173z"/>
<path class="st27" d="M155.5,207.3c0,0-7.3-2.6-11.8,1.5c-4.5,4.1-4.7,5.9-7.2,9.6c-2.5,3.6-6,4-6,4s-0.1,2.1,4.3-1.5
	c4.4-3.6,10.4-10.9,9.5-8.7c-0.9,2.2-3.8,9.6-2.6,9.2c1.1-0.3,1.6-2.9,2.4-5.7c0.8-2.8,4.4-5.1,6-4.9s-3.4,7-1.5,7.7
	s6.8-8.5,7.6-8.9c0.8-0.3-3.4,7.2-3,7.6c0.5,0.5,2.7,0.2,2.7,0.2s1.8-10.5,4.9-8.3c3.1,2.2,6.3,9.2,7.8,8.4c1.6-0.8-7.5-8.6-4.8-8.9
	c2.7-0.2,4.5,6.5,10.1,8.1c5.6,1.6,7.5,4.2,6.1,1.7c-1.4-2.5-16-9.7-11.1-9.6s13.8,9,15.8,8.9c2-0.1-6.4-8.8-10.6-10
	c-4.2-1.3-5.5-0.8-9.1-0.2c-3.6,0.6-6.1,0.7-6.1,0.7L155.5,207.3z"/>
<g>
	<path class="st28" d="M251.6,161.1c-0.2-0.1-0.3-0.5-0.4-0.7c-0.1-0.2-0.1-0.5-0.2-0.7c-0.1-0.5-0.2-1-0.2-1.5c-0.1-1-0.2-2-0.2-3
		c-0.1-2-0.2-4-0.2-6c-0.1-2-0.1-4-0.2-6c0-1-0.1-2-0.2-3c0-0.5-0.1-1-0.2-1.5c-0.1-0.5-0.2-1-0.4-1.3l0,0l0,0c-0.3-3-0.9-6-1.5-8.9
		c-0.6-2.9-1.3-5.9-2.2-8.8c-0.8-2.9-1.8-5.8-2.8-8.6l-1.6-4.2l-1.8-4.1l-2-4l-2.2-3.9l-2.4-3.8l-2.6-3.7c-0.9-1.2-1.9-2.3-2.8-3.5
		c-1-1.2-2-2.2-3.1-3.3c-2.1-2.1-4.4-4.1-6.8-5.9c-1.2-1-2.4-1.7-3.7-2.5L212,71l-2-1c-1.3-0.7-2.7-1.4-4.1-1.8l-2.1-0.8
		c-0.7-0.3-1.4-0.5-2.1-0.7l-4.3-1.1l-4.4-0.7c-1.5-0.3-3-0.3-4.5-0.4c-1.5-0.1-3-0.2-4.5-0.1l-4.5,0.2c-1.5,0.1-3,0.4-4.5,0.5
		l-2.2,0.3c-0.7,0.1-1.5,0.3-2.2,0.4l-4.4,0.9l-1.1,0.2l-1.1,0.3l-2.2,0.6l-4.3,1.3c-2.8,1-5.6,2.1-8.4,3.1l-0.1,0l0,0
		c-4.2,1.1-8.4,2.1-12.5,3.2c-2.1,0.5-4.2,1-6.2,1.6c-2.1,0.6-4.1,1.2-6.1,1.9c-1,0.4-2,0.8-2.9,1.2c-1,0.4-1.9,1-2.8,1.4
		c-0.9,0.6-1.8,1.1-2.6,1.8c-0.8,0.7-1.6,1.3-2.3,2.1l-1,1.1c-0.3,0.4-0.6,0.8-0.9,1.3c-0.3,0.4-0.6,0.8-0.9,1.3l-0.7,1.4
		c-0.5,0.9-0.8,1.9-1.2,2.9c-0.4,1-0.6,2-0.9,3l-0.4,1.5l-0.3,1.6c-0.1,1-0.2,2.1-0.3,3.1c-0.2,2.1-0.2,4.3-0.3,6.4
		c-0.1,4.3,0,8.6,0.1,12.9c0.1,2.1,0.2,4.3,0.3,6.4c0.1,2.1,0.3,4.3,0.5,6.4c0.1,1,0.3,2.1,0.5,3.1c0.2,1,0.5,2.2,0.6,3.3
		c0.2,2.2,0.3,4.3,0.6,6.4l-0.5-0.7c0.2,0.1,0.4,0.3,0.5,0.5c0,0.1,0.1,0.3,0.1,0.3l0,0l0,0.1l0,0.2l0,0.4l0.1,0.8l0.1,1.7l0.2,3.3
		l0.5,6.6l0,0l0,0.1l0,4.9c0,1.6,0,3.3,0,4.9c0,0.8,0.1,1.6,0.2,2.3c0.1,0.8,0.3,1.5,0.5,2.3l1,4.8l0,0l0,0.1l0.9,7.9l0.5,3.9l0.2,2
		c0,0.3,0.1,0.6,0.1,1l0.2,1l0,0l0,0.1c0.2,1.9,0.2,3.8,0.5,5.7c0.2,1.9,0.6,3.8,0.9,5.6c0.4,1.9,0.8,3.7,1.3,5.6
		c0.5,1.9,1,3.7,1.6,5.5c2.3,7.3,5.2,14.5,8,21.7l2.1,5.4c0.7,1.8,1.4,3.6,2,5.5c0.7,1.8,1.3,3.7,1.9,5.5c0.3,1,0.5,1.8,1,2.4
		c0.4,0.7,1.1,1.3,1.8,1.8c1.4,1,3.1,1.8,4.9,2.4c1.8,0.6,3.6,1.1,5.5,1.5c0.9,0.2,1.9,0.4,2.8,0.5c0.9,0.2,1.8,0.3,2.7,0.3
		c1.9,0.1,3.7,0,5.6-0.3l0.2,0l0.2,0c5.2,0.8,10.5,0.9,15.8,0.6c2.6-0.1,5.3-0.4,7.9-0.8c0.7-0.1,1.3-0.2,1.9-0.3l0.2,0l0.2,0
		l0.5-0.1l0.9-0.3l3.8-1.1c5.1-1.5,10.3-3,15.3-4.6c2.5-0.8,5.1-1.6,7.4-2.6c0.1,0,0.2-0.1,0.2-0.1l0.2-0.1l0.4-0.2l0.9-0.5l0.9-0.5
		l0.8-0.5c0.5-0.4,1.1-0.7,1.6-1.1l1.5-1.2c0.5-0.4,1-0.9,1.4-1.3c0.5-0.5,1-0.9,1.4-1.4c0.8-1,1.8-1.9,2.5-3l1.2-1.6
		c0.4-0.5,0.7-1.1,1.1-1.7c0.7-1.1,1.4-2.3,2-3.4c1.2-2.3,2.3-4.8,3.2-7.2c0.5-1.2,0.8-2.5,1.3-3.8c0.4-1.3,0.7-2.6,1.1-3.8
		c0.6-2.6,1.2-5.2,1.6-7.8c0.3-1.3,0.4-2.6,0.6-3.9c0.2-1.3,0.4-2.6,0.5-4c0.1-1.3,0.3-2.7,0.3-4c0.1-1.3,0.1-2.6,0-4
		c-0.1-2.7-0.2-5.3-0.4-8l0-0.3l0.3,0l0.8,0c0.2,0,0.5,0,0.7-0.1c0.5-0.1,1-0.2,1.5-0.3c1-0.3,1.9-0.7,2.7-1.3
		c0.8-0.5,1.6-1.2,2.3-1.9c0.4-0.4,0.7-0.7,1-1.2c0.3-0.4,0.6-0.8,0.9-1.2c2.2-3.4,3.3-7.5,3.5-11.5l0.4,0c0,0,0,0,0-0.1
		c0,0,0-0.1-0.1-0.1c-0.1,0-0.2,0-0.2,0.1c0,0,0,0,0,0.1c0,0,0,0,0,0l0-0.1l0-0.1l0-0.2l0.1-0.4l0.2-0.9l0.4-1.7l0.7-3.5l0.7-3.5
		l0.3-1.7l0.1-0.9c0-0.1,0-0.3,0-0.4l0-0.2C251.7,161.1,251.6,161,251.6,161.1L251.6,161.1z M251.8,160.9c0.1,0.2,0.1,0.2,0.1,0.3
		l0,0.2c0,0.2,0,0.3,0,0.4l-0.1,0.9l-0.3,1.7l-0.7,3.5l-0.7,3.5l-0.4,1.7l-0.2,0.9l-0.1,0.4l0,0.2l0,0.1l0,0.1l0,0c0,0,0,0,0,0.1
		c0,0-0.1,0.1-0.2,0.1c-0.1-0.1-0.1-0.1-0.1-0.1c0-0.1,0,0,0,0l0.4,0c-0.1,2.1-0.4,4.1-0.9,6.1c-0.6,2-1.4,3.9-2.5,5.7
		c-0.3,0.4-0.6,0.9-0.9,1.3c-0.3,0.4-0.6,0.8-1,1.2c-0.7,0.8-1.5,1.5-2.4,2c-0.9,0.6-1.8,1.1-2.8,1.4c-0.5,0.2-1,0.3-1.5,0.3
		c-0.3,0-0.5,0-0.8,0.1l-0.8,0l0.3-0.3c0.2,2.6,0.4,5.3,0.5,8c0.1,1.3,0.1,2.7,0,4c-0.1,1.4-0.2,2.7-0.3,4c-0.1,1.3-0.2,2.7-0.4,4
		c-0.1,1.3-0.3,2.7-0.5,4c-0.4,2.7-0.9,5.3-1.5,7.9c-0.3,1.3-0.6,2.6-1,3.9c-0.4,1.3-0.8,2.6-1.2,3.9c-0.9,2.5-1.9,5.1-3.2,7.5
		c-0.6,1.2-1.2,2.4-2,3.6c-0.4,0.6-0.7,1.2-1.1,1.7l-1.2,1.7c-0.8,1.1-1.7,2.1-2.6,3.2c-0.5,0.5-1,1-1.4,1.5c-0.5,0.5-1,1-1.5,1.4
		l-1.6,1.3c-0.6,0.4-1.1,0.8-1.7,1.2l-0.9,0.6l-0.9,0.5c-0.6,0.3-1.1,0.6-1.8,1c-2.6,1.2-5.1,1.9-7.7,2.8
		c-5.1,1.7-10.2,3.3-15.3,4.8l-3.9,1.1l-1,0.3l-0.5,0.1l-0.3,0.1l-0.3,0c-0.7,0.1-1.3,0.3-2,0.4c-2.7,0.4-5.4,0.7-8.1,0.9
		c-5.4,0.3-10.9,0.1-16.2-0.7l0.3,0c-2,0.2-4,0.3-6,0.3c-1,0-2-0.1-3-0.3c-1-0.2-1.9-0.3-2.9-0.5c-1.9-0.4-3.8-0.9-5.7-1.5
		c-1.9-0.7-3.8-1.5-5.5-2.7c-0.8-0.6-1.7-1.4-2.3-2.3c-0.7-1-1-2.1-1.3-2.9c-0.6-1.8-1.2-3.6-1.9-5.5c-0.6-1.8-1.3-3.6-2-5.4
		l-2.1-5.4c-2.8-7.2-5.6-14.4-7.9-21.9c-0.6-1.9-1.1-3.7-1.6-5.6c-0.5-1.9-0.9-3.8-1.3-5.7c-0.3-1.9-0.7-3.8-0.9-5.8
		c-0.3-1.9-0.3-3.9-0.5-5.9l0,0.1l-0.1-1c0-0.3-0.1-0.7-0.1-1l-0.2-2l-0.4-4l-0.9-7.9l0,0.1l-1-4.8c-0.2-0.8-0.3-1.6-0.5-2.5
		c-0.1-0.8-0.2-1.7-0.2-2.6c0-1.7,0-3.3,0-4.9l0.1-4.9l0,0.1l-0.5-6.6l-0.2-3.3l-0.1-1.6l-0.1-0.8l0-0.4l0-0.2l0-0.1l0,0
		c0,0,0,0.1,0.1,0.2c0.1,0.2,0.3,0.3,0.4,0.4l-0.5-0.7c-0.3-2.1-0.4-4.4-0.5-6.4c-0.1-1-0.3-2-0.5-3.1c-0.2-1.1-0.4-2.2-0.5-3.3
		c-0.2-2.2-0.4-4.3-0.5-6.5c-0.1-2.2-0.2-4.3-0.3-6.5c-0.1-4.3-0.2-8.6-0.1-12.9c0.1-2.2,0.1-4.3,0.3-6.5c0.1-1.1,0.2-2.2,0.3-3.3
		l0.3-1.6l0.4-1.6c0.3-1.1,0.5-2.1,0.9-3.2c0.4-1,0.7-2.1,1.3-3.1l0.8-1.5c0.3-0.5,0.6-0.9,0.9-1.4c0.3-0.5,0.6-0.9,1-1.4l1.1-1.2
		c0.7-0.9,1.6-1.5,2.5-2.2c0.9-0.7,1.8-1.2,2.7-1.9c1-0.5,1.9-1,2.9-1.5c1-0.4,2-0.9,3-1.2c2-0.7,4.1-1.4,6.2-2
		c2.1-0.6,4.2-1.1,6.3-1.6c4.2-1,8.4-2,12.5-3.1l-0.1,0c2.8-1,5.7-2.1,8.5-3.1l4.4-1.3l2.2-0.6l1.1-0.3l1.1-0.2
		c3-0.6,5.9-1.4,8.9-1.6c1.5-0.2,3-0.4,4.5-0.5l4.6-0.1c1.5-0.1,3,0,4.5,0.1c1.5,0.1,3,0.1,4.5,0.4l4.5,0.8l4.4,1.2
		c0.7,0.2,1.4,0.5,2.2,0.7l2.1,0.8c1.4,0.5,2.8,1.2,4.1,1.9l2,1l1.9,1.2c1.3,0.8,2.6,1.6,3.7,2.6c2.4,1.8,4.7,3.9,6.8,6
		c1,1.1,2.1,2.2,3,3.4c0.9,1.2,1.9,2.3,2.8,3.6l2.6,3.7l2.4,3.9l2.2,4l2,4.1l1.8,4.2l1.6,4.2c1,2.8,1.9,5.7,2.7,8.6
		c0.8,2.9,1.5,5.8,2.2,8.8c0.6,3,1.1,5.9,1.5,8.9l0-0.1c0.4,0.5,0.4,1,0.5,1.5c0.1,0.5,0.1,1,0.2,1.5c0.1,1,0.1,2,0.2,3
		c0.1,2,0.1,4,0.2,6c0.1,2,0.1,4,0.2,6c0.1,1,0.1,2,0.2,3c0.1,0.5,0.1,1,0.2,1.5C251.4,160.1,251.4,160.6,251.8,160.9L251.8,160.9z"
		/>
</g>
<path class="st27" d="M83,112.5c0,0,45,27.5,61.5-11.2c4.5-10.5,9.7-24.2,26.4-19.9c8,2.1,14.4,17.3,29.3,18.2
	c20.8,1.2,16.3-17.4,24.1,0.4c7.8,17.8-8,40.3-5.2,52c2.8,11.7,11.7,8.4,11.7,8.4s0.5-17.8,8.9-18.9c17.3-2.2,10,30.1,10,30.1
	s1,12.4-7.4,19.1c-5.1,4.1-7.7-0.3-9.3,0.6c-7.3,4,2.3,25.9,2.3,25.9s39.1-6.8,28.3-32.1c-7.4-17.4,7.2-50.9-3.9-55.3
	c0,0,6.7-28.4-7.2-45.7S241.6,39.3,203,37.9c-6.7-0.3-35.3-5.8-51.4-2.4c-16.1,3.3-39.2,11.3-45.3,20.8c-6.1,9.5-10.7,17.2-6.7,24.5
	c3.7,6.7-10.1,10.2-4.1,18.9C99.3,105.1,83,112.5,83,112.5z"/>
<path class="st29" d="M146,98c0,0-7.8,23.2-27.2,23.5c-26,0.4-36.2-9.7-36.2-9.7s31.9,10.2,42.7,0.7s24.7-24,24.7-24L146,98z"/>
<path class="st15" d="M102.7,110.3c0,0,14.7,11.2,32.6-13.3s32.7-23,49-9.7s21.8,0.1,21.8,0.1s-3.4-10.3-16-20.8
	c-8.1-6.8-20-11.2-27.3-12.7c-18.6-3.7-35.6-0.7-34.1,14.1c1.5,14.8-2.2,15.6-11.1,17.8C108.5,88.2,102.7,95.5,102.7,110.3z"/>
<path class="st15" d="M174.4,51.6c0,0,12.6-18.6,37.1-8.9s31.9,23,23,29.7c-8.9,6.7-20.8,11.1-20.8,11.1S216,44.2,174.4,51.6z"/>
<path class="st15" d="M208.7,84.4c0,0,18.6-7.4,21.5,17.1c3,24.5-9.1,25.8,0.6,31c9.7,5.2-2,9.1-5.8,10.6s-1.5,8.9,0.7,8.9
	s7.8-11.7,16.7-13.9c8.9-2.2,9.2,9.4,12.2,14.6c3,5.2,9.5,3.8,3.8-11.1C252.1,125.3,272.6,64.6,208.7,84.4z"/>
<path class="st15" d="M254.2,166.5c0,0,8.4,18.4,5.6,29c-2.8,10.6-11.1,16.1-16.1,15.6c-5-0.6-12.7-7.1-1.7-8.9
	c11.1-1.8,10.6-6.7,3.3-5s-10.6,3.3-8.4,0.6c2.2-2.8,20.6-10,17.8-20C252,167.6,254.2,166.5,254.2,166.5z"/>
<path class="st15" d="M154.5,37.3c0,0-37.3,2.8-51.8,27.8c0,11.7,0,11.7,0,11.7s3.9,6.7,0,8.9c-3.9,2.2,5,7.8,7.2-3.3
	S100,57.9,154.5,37.3z"/>
<g>
	<path class="st30" d="M220.3,137.7c-0.6,2.5-0.9,5-1,7.5c-0.1,2.5,0,5,0.7,7.4c0.3,1.2,0.8,2.3,1.5,3.3c0.6,1,1.5,1.8,2.5,2.4
		c2,1.2,4.5,1.5,6.8,1.3l1-0.1l-0.1,1l0,0.1c0,0-0.1,0.3-0.1,0.4c-1.3,0.9-1.9-1.3-1.5-0.4l0-0.2l0-0.2l0-0.4l0-0.7l0.1-1.4
		c0.1-0.9,0.2-1.9,0.4-2.8c0.3-1.9,0.7-3.7,1.3-5.6c0.6-1.8,1.4-3.6,2.5-5.3c1.2-1.6,2.9-3.2,5.2-3.6c1.9-0.4,4.3-0.1,6.1,1
		c1.9,1.1,3.2,2.7,4.2,4.5c0.9,1.8,1.6,3.7,2,5.6c0.4,1.9,0.6,3.8,0.7,5.7c0.2,3.8-0.1,7.6-0.5,11.4c-0.1,0.9-0.3,1.9-0.4,2.8
		c-0.2,0.9-0.3,1.9-0.5,2.8c-0.4,1.9-0.8,3.7-1.4,5.5c-0.6,1.8-1.2,3.6-2.2,5.3c-0.9,1.7-2,3.4-3.5,4.7c-1.5,1.4-3.3,2.4-5.3,2.7
		c-2,0.3-4,0-5.8-0.5l0.1,0c-0.1,0-0.3,0.1-0.6,0.4c-0.2,0.3-0.4,0.6-0.6,1c-0.3,0.7-0.5,1.5-0.7,2.3c-0.3,1.6-0.4,3.3-0.4,5
		c0.1,3.4,0.8,6.7,1.9,9.9c-1.4-3.1-2.3-6.5-2.6-9.9c-0.1-1.7-0.2-3.5,0.1-5.2c0.1-0.9,0.3-1.7,0.6-2.6c0.2-0.4,0.4-0.9,0.7-1.3
		c0.3-0.4,0.8-0.9,1.6-0.9l0,0l0.1,0c1.7,0.4,3.5,0.6,5.2,0.3c1.7-0.3,3.2-1.2,4.5-2.4c1.2-1.2,2.2-2.7,3-4.3
		c0.8-1.6,1.4-3.3,1.9-5.1c0.5-1.7,0.9-3.5,1.2-5.3c0.2-0.9,0.3-1.8,0.4-2.7c0.1-0.9,0.3-1.8,0.4-2.7c0.4-3.7,0.7-7.3,0.5-11
		c-0.1-1.8-0.3-3.6-0.7-5.4c-0.4-1.7-0.9-3.4-1.7-5c-0.8-1.5-1.9-2.8-3.3-3.6c-0.7-0.4-1.4-0.7-2.2-0.8c-0.4-0.1-0.8-0.1-1.2-0.1
		l-0.6,0l-0.7,0.1c-1.4,0.2-2.8,1.2-3.8,2.6c-1,1.4-1.8,3-2.3,4.7c-0.6,1.7-1,3.5-1.4,5.3c-0.2,0.9-0.3,1.8-0.5,2.7l-0.2,1.4
		l-0.1,0.7l0,0.3l0,0.2c0,0,0,0.1,0,0c0.4,0.8-0.2-1.3-1.5-0.4c-0.1,0.1-0.1,0.3-0.1,0.3l0,0l0.9,0.9c-1.3,0.1-2.6,0-4-0.3
		c-1.3-0.3-2.6-0.8-3.7-1.5c-1.1-0.8-2.1-1.8-2.7-2.9c-0.7-1.1-1.1-2.4-1.4-3.7c-0.5-2.5-0.5-5.1-0.3-7.7
		C219,142.6,219.6,140.1,220.3,137.7z"/>
</g>
<g>
	<g>
		<path class="st31" d="M115.1,166.5c0.1-1.3,0.3-2.6,0.6-3.9l0.4,0.1c-0.7,2.1-1,4.4-0.6,6.5l0.4,1.7l0.5,1.6
			c0.2,0.5,0.4,1,0.7,1.5c0.3,0.4,0.5,0.9,0.9,1.3c0.4,0.4,0.7,0.8,1.1,1.2l0.6,0.5l0.7,0.4c0.9,0.6,1.9,0.9,3,1.2
			c0.5,0.1,1.1,0.2,1.6,0.3l1.6,0.1l1.6,0c0.5,0,1.1-0.1,1.6-0.1c0.5,0,1.1-0.2,1.6-0.2c0.5-0.1,1.1-0.2,1.6-0.3
			c1.1-0.2,2.2-0.5,3.2-0.8l0.2-0.1c0,0,0.1,0,0,0l0.1,0l0.4-0.1c0.3-0.1,0.6-0.2,0.8-0.3l0.6-0.3c0.2-0.1,0.4-0.3,0.6-0.4
			c0.4-0.3,0.8-0.7,1.2-1c0.4-0.4,0.8-0.7,1.1-1.2c0.7-0.8,1.3-1.7,1.8-2.6c0.5-0.9,1-1.9,1.3-2.9c0.4-1,0.6-2,0.8-3.1
			c0.1-1,0.1-2.1,0-3l1,1c-0.6-0.1-1.3-0.1-2-0.2l-2-0.1c-1.3-0.1-2.6-0.1-3.9-0.2c-1.3,0-2.6,0-4,0c-1.3,0-2.6,0.1-3.9,0.2
			c-0.7,0-1.3,0.1-2,0.2c-0.7,0.1-1.3,0.1-2,0.2c-0.7,0.1-1.3,0.2-2,0.3l-1.9,0.4c-0.6,0.1-1.3,0.3-1.9,0.5
			c-0.6,0.1-1.3,0.3-1.9,0.5c-0.6,0.2-1.3,0.4-1.9,0.6c-0.6,0.2-1.2,0.5-1.9,0.7l-0.2,0.1L115.1,166.5z M115.4,166.3
			c0.5-0.3,1-0.6,1.6-0.9c0.6-0.3,1.2-0.6,1.8-0.9c0.6-0.3,1.2-0.6,1.9-0.8c0.6-0.2,1.3-0.5,1.9-0.7l2-0.6c0.7-0.2,1.3-0.3,2-0.5
			c0.7-0.2,1.3-0.3,2-0.4c0.7-0.1,1.3-0.2,2-0.3c0.7-0.1,1.3-0.2,2-0.3l2-0.2l2-0.1c0.7,0,1.4,0,2,0c1.4,0,2.7,0,4.1,0.1
			c1.4,0.1,2.7,0.2,4.1,0.4l0.9,0.1l0.1,0.9c0.1,1.3,0.1,2.5-0.1,3.7c-0.2,1.2-0.6,2.4-1,3.5c-0.4,1.1-1,2.2-1.6,3.2
			c-0.6,1-1.3,2-2.1,2.8c-0.4,0.5-0.9,0.8-1.3,1.3c-0.5,0.4-0.9,0.8-1.5,1.1c-0.3,0.2-0.5,0.3-0.8,0.5l-0.9,0.4
			c-0.3,0.2-0.6,0.2-0.8,0.3l-0.4,0.1l-0.1,0c-0.1,0-0.1,0-0.2,0l-0.2,0c-1.1,0.3-2.2,0.5-3.4,0.7c-0.6,0.1-1.1,0.2-1.7,0.3
			c-0.6,0.1-1.1,0.2-1.7,0.2c-0.6,0-1.2,0.1-1.7,0.1l-1.7,0l-1.7-0.2c-0.6-0.1-1.2-0.2-1.7-0.4c-1.1-0.3-2.3-0.8-3.2-1.5
			c-0.2-0.2-0.5-0.3-0.7-0.5l-0.7-0.6c-0.5-0.4-0.8-0.9-1.2-1.3c-0.4-0.5-0.6-1-0.9-1.5c-0.2-0.5-0.5-1.1-0.7-1.6l-0.5-1.7l-0.3-1.7
			c-0.4-2.3,0-4.7,0.8-6.8l0.4,0.1C115.8,163.9,115.6,165.1,115.4,166.3z"/>
	</g>
	<g>
		<path class="st31" d="M203.5,157.2l0.2,0.9l0,0.2l-0.2-0.1c-1.2-0.4-2.5-0.7-3.8-0.9c-0.6-0.1-1.3-0.2-1.9-0.3
			c-0.7-0.1-1.3-0.1-2-0.2c-0.7,0-1.3-0.1-2-0.1c-0.7,0-1.3,0-2,0l-2,0.1l-1.9,0.2c-0.6,0-1.3,0.2-1.9,0.3c-0.6,0.1-1.3,0.2-1.9,0.3
			l-1.9,0.4c-0.6,0.1-1.3,0.3-1.9,0.5c-0.6,0.2-1.3,0.3-1.9,0.5l-1.8,0.6c-0.6,0.2-1.2,0.5-1.8,0.7l-1.8,0.7l0.5-0.7l0.1,0.8
			l0.1,0.8c0.1,0.5,0.1,1.1,0.2,1.6l0.3,1.6l0.5,1.5c0.2,0.5,0.4,1,0.6,1.5c0.2,0.5,0.5,0.9,0.8,1.4c0.3,0.5,0.6,0.8,0.9,1.3
			c0.3,0.4,0.7,0.7,1.1,1.1c0.4,0.3,0.8,0.6,1.2,1c0.4,0.3,0.9,0.5,1.3,0.8c0.5,0.2,0.9,0.4,1.4,0.6c0.5,0.1,1,0.3,1.5,0.4l1.6,0.3
			l1.6,0.2c1.1,0,2.1,0,3.2,0c0.5,0,1.1-0.1,1.6-0.1l0.8-0.1l0.4,0l0.1,0l0,0c0,0,0.1,0-0.1,0l0,0l0.1,0l0.2,0
			c0.5-0.1,1.1-0.2,1.5-0.4c0.2-0.1,0.4-0.1,0.7-0.2l0.7-0.3c0.9-0.5,1.7-1.1,2.5-1.8c0.4-0.4,0.7-0.7,1.1-1.1
			c0.3-0.4,0.7-0.8,1-1.3c0.6-0.9,1.2-1.8,1.6-2.8c0.2-0.5,0.5-1,0.6-1.5l0.3-0.8l0.2-0.8c0.2-0.5,0.3-1.1,0.3-1.6
			c0.1-0.5,0.1-1.1,0.1-1.7c0.1-0.6,0-1.1-0.1-1.7c-0.1-0.6-0.2-1.1-0.3-1.6L203.5,157.2z M203.5,157.2c0.1,0.6,0.3,1.1,0.3,1.7
			c0,0.6,0.2,1.1,0.2,1.7c0.1,1.1,0,2.3-0.2,3.4l-0.1,0.9l-0.2,0.8c-0.1,0.6-0.3,1.1-0.5,1.7c-0.3,1.1-0.8,2.2-1.4,3.2
			c-0.3,0.5-0.6,1-0.9,1.5c-0.3,0.5-0.7,0.9-1.1,1.4c-0.4,0.4-0.8,0.9-1.3,1.3c-0.5,0.4-0.9,0.8-1.5,1.1l-0.8,0.5
			c-0.3,0.1-0.6,0.3-0.9,0.4c-0.6,0.3-1.2,0.4-1.7,0.5l-0.2,0l-0.1,0l-0.1,0l-0.1,0l-0.4,0.1l-0.9,0.1c-0.6,0.1-1.2,0.1-1.7,0.2
			c-1.2,0.1-2.3,0-3.5,0l-1.8-0.2c-0.6-0.1-1.2-0.3-1.7-0.4c-0.6-0.2-1.1-0.4-1.7-0.6c-0.6-0.2-1.1-0.5-1.6-0.8
			c-0.5-0.3-1-0.7-1.5-1c-0.5-0.4-0.9-0.8-1.4-1.2c-0.4-0.5-0.8-0.9-1.2-1.4c-0.3-0.5-0.7-1-1-1.5c-0.3-0.5-0.6-1-0.8-1.6
			c-0.2-0.6-0.4-1.1-0.6-1.7l-0.5-1.7l-0.3-1.7c-0.1-0.6-0.1-1.1-0.2-1.7l-0.1-0.8l0-0.9l0-0.5l0.5-0.2l1.9-0.7
			c0.6-0.2,1.2-0.5,1.9-0.7l1.9-0.6c0.6-0.2,1.3-0.3,1.9-0.5c0.7-0.1,1.3-0.3,2-0.4l2-0.3c0.7-0.1,1.3-0.2,2-0.2
			c0.7-0.1,1.3-0.1,2-0.2l2-0.1l2,0c0.7,0,1.3,0.1,2,0.1c0.7,0,1.3,0.1,2,0.2c0.7,0.1,1.3,0.2,2,0.3c0.7,0.1,1.3,0.2,2,0.3
			c1.3,0.3,2.6,0.5,3.9,0.9l-0.1,0.1l-0.2-0.9L203.5,157.2z"/>
	</g>
	<g>
		<path class="st31" d="M129.2,150.8c-1.9,0.3-3.7,1-5.3,1.9c-0.4,0.3-0.8,0.5-1.2,0.8c-0.4,0.3-0.8,0.5-1.1,0.9
			c-0.4,0.3-0.7,0.6-1,0.9c-0.3,0.3-0.6,0.7-0.9,1c-0.3,0.4-0.5,0.8-0.8,1.1l-0.7,1.2l-0.6,1.2l-0.5,1.3c-0.2,0.4-0.3,0.9-0.4,1.3
			c-0.1,0.4-0.2,0.9-0.3,1.3c-0.2,0.9-0.3,1.8-0.4,2.7L115,166c2.4-1.3,4.9-2.3,7.5-3c2.6-0.8,5.3-1.3,7.9-1.6
			c2.7-0.3,5.4-0.5,8.1-0.6c1.3,0,2.7,0,4.1,0c0.7,0,1.4,0.1,2,0.1l1,0.1l0.5,0.1l0.1,0l0.1,0c0.1,0,0.3,0.1,0.4,0.2
			c0.1,0.1,0.3,0.2,0.5,0.4c0.1,0.2,0.2,0.4,0.2,0.6c0,0.4-0.1,0.5-0.2,0.8l-1.9,3.9l-0.4-4.5c0-0.5,0-1-0.1-1.5
			c0-0.5-0.1-1-0.2-1.5c-0.1-0.5-0.2-1-0.3-1.4c-0.1-0.5-0.2-0.9-0.4-1.4c-0.3-0.9-0.7-1.8-1.2-2.5c-0.5-0.8-1.2-1.5-1.9-2
			c-0.8-0.5-1.7-1-2.6-1.2c-1-0.3-2-0.4-3-0.5C133.3,150.2,131.2,150.5,129.2,150.8z M129.1,150.6c2.1-0.4,4.1-0.8,6.3-1
			c2.1-0.1,4.4,0.1,6.5,1.1c0.5,0.3,1,0.6,1.5,0.9c0.5,0.4,0.9,0.8,1.2,1.2c0.8,0.9,1.3,1.9,1.7,3c0.2,0.5,0.4,1.1,0.5,1.6
			c0.1,0.5,0.3,1.1,0.3,1.6c0.2,1.1,0.3,2.2,0.3,3.3l-2.2-0.6c-0.1,0.2-0.1,0.2-0.1,0.5c0,0.3,0.3,0.8,0.5,0.9
			c0.1,0.1,0.3,0.1,0.3,0.1l0,0c-0.1,0,0.1,0,0.1,0l0,0l0,0l-0.1,0l-0.5-0.1l-1-0.1l-2-0.2c-1.3-0.1-2.6-0.2-3.9-0.2
			c-2.6-0.1-5.3,0-7.9,0.3c-2.6,0.2-5.2,0.7-7.7,1.3c-2.5,0.6-5,1.5-7.4,2.7l-1,0.5l0.1-1.1c0.1-1,0.3-1.9,0.5-2.9
			c0.1-0.5,0.2-0.9,0.4-1.4c0.2-0.5,0.3-0.9,0.5-1.4l0.6-1.3l0.7-1.3l0.8-1.2c0.3-0.4,0.6-0.8,0.9-1.1c0.3-0.3,0.7-0.7,1-1
			c0.4-0.3,0.7-0.6,1.1-0.9c0.4-0.3,0.8-0.6,1.2-0.8c0.4-0.3,0.8-0.5,1.2-0.7C125.4,151.6,127.2,151,129.1,150.6z"/>
	</g>
	<g>
		<path class="st31" d="M203.4,157.9c-0.4-1.8-1-3.6-1.9-5.2c-1-1.6-2.4-3-4-3.9c-1.7-0.9-3.5-1.4-5.4-1.6c-1.9-0.2-3.8-0.2-5.7,0
			c-1.9,0.2-3.9,0.3-5.7,0.7c-1.8,0.4-3.5,1.2-4.7,2.5c-1.2,1.3-1.7,3.1-1.9,4.9c-0.2,1.8-0.1,3.7,0.2,5.6l-1.5-0.8l0.5-0.5
			c0.2-0.1,0.3-0.3,0.6-0.4l0.5-0.2c0.6-0.3,1.2-0.5,1.8-0.8c1.3-0.5,2.5-0.9,3.8-1.3c1.3-0.3,2.6-0.7,3.9-0.9
			c1.3-0.2,2.7-0.4,4-0.5c2.7-0.2,5.4-0.1,8,0.3c1.3,0.2,2.6,0.5,3.9,0.8C201,157,202.2,157.4,203.4,157.9z M203.5,158.2
			c-1.3-0.3-2.5-0.6-3.8-0.7c-1.3-0.2-2.6-0.3-3.9-0.3c-2.6-0.1-5.2,0-7.7,0.4c-2.5,0.3-5.1,0.9-7.5,1.6c-0.6,0.2-1.2,0.4-1.8,0.6
			c-0.6,0.2-1.2,0.4-1.8,0.6c-0.6,0.2-1.2,0.4-1.8,0.7l-0.4,0.1c0,0-0.1,0.1-0.2,0.1c-0.3,0.2-0.5,0.4-1,0.7l-1.4,0.7l-0.1-1.5
			c-0.2-2-0.3-4,0.1-6.1c0.2-1,0.4-2,0.8-3c0.4-1,1-1.9,1.7-2.7c0.7-0.8,1.7-1.4,2.6-1.9c1-0.5,2-0.7,3-0.9c1-0.2,2-0.3,3-0.3
			c1-0.1,2-0.1,2.9-0.2c2-0.1,4,0,5.9,0.3c2,0.3,3.9,0.9,5.7,1.9c1.7,1,3.2,2.6,4.1,4.3c1,1.7,1.5,3.7,1.8,5.6l0,0.2L203.5,158.2z"
			/>
	</g>
</g>
<path class="st32" d="M129.1,150.7c-3.9,0.8-10.8,3.3-13.2,12c-0.3,1.2-0.6,2.4-0.7,3.8c12.2-6.3,28.7-4.6,31.4-4.2
	c0.2,0-0.4,0.2-0.4,0.2C144.5,148.6,136.4,149.3,129.1,150.7z"/>
<path class="st32" d="M203.5,158.1c-0.1-0.3-0.1-0.6-0.2-0.9c-2.4-11-11.5-11.1-19.9-10.4c-4.5,0.4-10.5,0-11.9,14.2
	c0.4-0.2,0.8-0.3,1.1-0.5C189.4,153.4,203.5,158.1,203.5,158.1z"/>
<polygon class="st16" points="239.5,247 260,259.5 239,276.3 227.5,291.5 213.5,299 201.5,304 227.8,276.5 "/>
<polygon class="st16" points="153,273 173.3,267.3 173,285.8 179.5,309 175.5,304.5 166.5,283.5 "/>
<g>
	<path class="st5" d="M149.5,365.6c0,0-0.7,0.2-1.5,0.2c-0.4,0-0.9,0-1.3-0.2c-0.5-0.1-0.9-0.4-1.4-0.5c-0.5-0.1-1-0.2-1.4-0.3
		c-0.2,0-0.4,0-0.6,0c-0.2,0-0.4,0.1-0.6,0.1c-0.2,0-0.3,0.1-0.4,0.2c-0.1,0.1-0.2,0.2-0.3,0.2c-0.2,0.2-0.3,0.2-0.3,0.2l-0.2-0.1
		c0,0,0.1-0.1,0.2-0.4c0-0.1,0.1-0.3,0.3-0.4c0.1-0.1,0.3-0.3,0.5-0.4c0.2-0.1,0.4-0.3,0.7-0.4c0.2-0.1,0.5-0.2,0.8-0.3
		c0.6-0.1,1.2-0.2,1.8-0.2c0.6,0,1.2,0,1.7,0.1c0.5,0.1,1,0.4,1.3,0.7c0.7,0.5,1,1.2,1,1.2L149.5,365.6z"/>
</g>
<g>
	<path class="st5" d="M142,339.6c0,0-0.5-0.1-1.3-0.3c-0.4-0.1-0.9-0.1-1.4-0.2c-0.5-0.1-1-0.1-1.5-0.1c-0.5,0-1,0.1-1.4,0.2
		c-0.1,0-0.2,0-0.3,0c-0.1,0-0.2,0-0.3,0c-0.2,0-0.3,0-0.5,0c-0.2,0-0.3,0-0.4,0c-0.2,0-0.3,0.1-0.4,0.1c-0.3,0.1-0.4,0.1-0.4,0.1
		l-0.2-0.1c0,0,0-0.2,0-0.5c0-0.2,0.1-0.4,0.2-0.5c0.1-0.2,0.2-0.4,0.5-0.6c0.2-0.2,0.5-0.4,0.7-0.5c0.3-0.1,0.6-0.2,0.9-0.2
		c0.6-0.1,1.2,0.2,1.8,0.3c0.6,0.2,1.1,0.3,1.6,0.6c0.5,0.2,0.9,0.4,1.3,0.6c0.7,0.4,1.2,0.7,1.2,0.7L142,339.6z"/>
</g>
<g>
	<path class="st5" d="M174.3,365.1c0,0-2.3-0.8-4.3-1.9c-0.5-0.3-1.1-0.5-1.6-0.8c-0.4-0.3-0.8-0.8-1-1.2c-0.5-0.8-0.6-1.6-0.6-1.6
		l0.2-0.1c0,0,0.2,0,0.5,0.1c0.3,0.1,0.6,0.2,1,0.4c0.4,0.2,0.8,0.4,1.3,0.7c0.4,0.3,0.8,0.8,1.2,1.2c1.8,1.5,3.5,3.1,3.5,3.1
		L174.3,365.1z"/>
</g>
<g>
	<path class="st5" d="M158.4,316.3c0,0-2.3-0.8-4.3-1.9c-0.5-0.3-1.1-0.5-1.6-0.8c-0.4-0.3-0.8-0.8-1-1.2c-0.5-0.8-0.6-1.6-0.6-1.6
		l0.2-0.1c0,0,0.2,0,0.5,0.1c0.3,0.1,0.6,0.2,1,0.4c0.4,0.2,0.8,0.4,1.3,0.7c0.4,0.3,0.8,0.8,1.2,1.2c1.8,1.5,3.5,3.1,3.5,3.1
		L158.4,316.3z"/>
</g>
<g>
	<path class="st5" d="M209.5,421.5c0,0-1.2-2.1-2-4.3c-0.2-0.6-0.5-1.1-0.6-1.7c-0.1-0.6-0.1-1.1,0-1.6c0.1-1,0.6-1.6,0.6-1.6l0.2,0
		c0,0,0.1,0.1,0.3,0.4c0.1,0.2,0.3,0.6,0.5,1c0.2,0.4,0.4,0.9,0.5,1.4c0.1,0.5,0,1.1,0.1,1.7c0.3,2.3,0.6,4.6,0.6,4.6L209.5,421.5z"
		/>
</g>
<g>
	<path class="st5" d="M85.8,423.6c0,0-0.7,0.1-1.6-0.2c-0.4-0.1-0.9-0.3-1.4-0.6c-0.5-0.3-0.9-0.8-1.3-1.2c-0.4-0.4-0.9-0.8-1.3-1.2
		c-0.4-0.4-0.7-0.8-1-1.1c-0.6-0.7-0.9-1.2-0.9-1.2l0.2-0.1c0,0,0.5,0.4,1.2,0.8c0.7,0.5,1.7,1,2.8,1.6c0.5,0.3,1.1,0.5,1.5,0.7
		c0.4,0.3,0.8,0.6,1.1,1c0.6,0.7,0.9,1.3,0.9,1.3L85.8,423.6z"/>
</g>
<g>
	<path class="st5" d="M106,522c0,0-0.4,0.6-1.2,1.1c-0.4,0.2-0.9,0.5-1.4,0.6c-0.5,0.1-1.2,0.1-1.8,0.1c-0.6,0.1-1.2,0.1-1.8,0.1
		c-0.6,0-1.1,0-1.5,0c-0.9-0.1-1.5-0.2-1.5-0.2l0-0.2c0,0,0.6-0.1,1.4-0.3c0.8-0.2,1.9-0.6,3-0.9c0.5-0.2,1.1-0.5,1.6-0.6
		c0.5-0.1,1-0.2,1.5-0.1c0.9,0,1.6,0.3,1.6,0.3L106,522z"/>
</g>
<g>
	<path class="st5" d="M119.9,388.5c0,0-0.1-0.4-0.5-0.8c-0.1-0.1-0.2-0.2-0.3-0.3c-0.1-0.1-0.2-0.1-0.4-0.2c-0.1,0-0.3-0.1-0.4-0.1
		c-0.1,0-0.3,0-0.4,0c-0.3,0-0.6,0.2-0.9,0.2c-0.3,0-0.6,0-0.9-0.1c-0.6-0.1-1.1-0.5-1.1-0.5l-0.1-0.2c0,0,0.2-0.5,0.8-0.9
		c0.3-0.2,0.6-0.4,1.1-0.4c0.2,0,0.4,0,0.7,0.1c0.2,0.1,0.5,0.1,0.7,0.2c0.2,0.1,0.5,0.2,0.7,0.3c0.2,0.1,0.4,0.3,0.6,0.4
		c0.2,0.2,0.3,0.3,0.4,0.5c0.1,0.2,0.2,0.4,0.2,0.5c0.2,0.7,0,1.1,0,1.1L119.9,388.5z"/>
</g>
<g>
	<path class="st5" d="M99.3,460.1c0,0-0.7,0.4-1.6,0.4c-0.5,0-1-0.1-1.6-0.3c-0.5-0.3-1-0.7-1.5-1.1c-0.2-0.2-0.5-0.4-0.7-0.6
		c-0.2-0.2-0.4-0.4-0.6-0.7c-0.2-0.2-0.3-0.5-0.5-0.7c-0.2-0.2-0.3-0.4-0.4-0.6c-0.2-0.4-0.4-0.7-0.5-1c-0.1-0.2-0.1-0.4-0.1-0.4
		l0.2-0.1c0,0,0.1,0.1,0.3,0.3c0.2,0.2,0.4,0.5,0.7,0.7c0.2,0.1,0.3,0.3,0.5,0.4c0.2,0.1,0.4,0.3,0.6,0.4c0.4,0.3,0.9,0.6,1.4,0.8
		c0.5,0.3,1,0.3,1.5,0.5c0.4,0.2,0.8,0.5,1.2,0.7c0.7,0.5,1.2,1,1.2,1L99.3,460.1z"/>
</g>
<g>
	<path class="st5" d="M68.4,457c0,0-0.1,0-0.3,0c-0.2,0-0.4,0-0.6,0.1c-0.2,0-0.3,0.1-0.5,0.1c-0.2,0-0.4-0.2-0.6-0.2
		c-0.2,0-0.5,0-0.8,0c-0.3,0-0.5,0-0.8,0.1c-0.5,0.1-0.8,0.1-0.8,0.1l-0.1-0.2c0,0,0.2-0.3,0.6-0.6c0.2-0.2,0.4-0.4,0.7-0.5
		c0.3-0.2,0.6-0.3,1-0.4c0.4-0.1,0.8-0.3,1.2-0.2c0.2,0,0.4,0.1,0.6,0.2c0.2,0.1,0.3,0.3,0.4,0.4c0.4,0.6,0.2,1.2,0.2,1.2L68.4,457z
		"/>
</g>
<g>
	<path class="st5" d="M224,346.1c0,0-0.7,0.4-1.6,0.4c-0.5,0-1-0.1-1.6-0.3c-0.5-0.3-1-0.7-1.5-1.1c-0.2-0.2-0.5-0.4-0.7-0.6
		c-0.2-0.2-0.4-0.4-0.6-0.7c-0.2-0.2-0.3-0.5-0.5-0.7c-0.2-0.2-0.3-0.4-0.4-0.6c-0.2-0.4-0.4-0.7-0.5-1c-0.1-0.2-0.1-0.4-0.1-0.4
		l0.2-0.1c0,0,0.1,0.1,0.3,0.3c0.2,0.2,0.4,0.5,0.7,0.7c0.2,0.1,0.3,0.3,0.5,0.4c0.2,0.1,0.4,0.3,0.6,0.4c0.4,0.3,0.9,0.6,1.4,0.8
		c0.5,0.3,1,0.3,1.5,0.5c0.4,0.2,0.8,0.5,1.2,0.7c0.7,0.5,1.2,1,1.2,1L224,346.1z"/>
</g>
<g>
	<path class="st7" d="M242.8,242.7l19.2,16.8l0.4,0.3l-0.4,0.3l-17.4,13.4l0.1-0.1l-7.4,8.1l0.1-0.2c-0.1,0.3-0.2,0.5-0.3,0.7
		l-0.4,0.6c-0.2,0.4-0.5,0.8-0.8,1.2c-0.5,0.8-1.1,1.6-1.6,2.3c-1.1,1.5-2.3,3-3.5,4.4l-0.1,0.1l-0.1,0.1c-5.8,4.1-12,7.4-18.4,10.5
		c-6.4,3-12.8,5.8-19.5,8.1c-1.7,0.6-3.3,1.1-5.2,1.5c-0.2,0-0.5,0.1-0.7,0.1c-0.3,0-0.5,0.1-1,0c-0.1,0-0.5-0.1-0.6-0.1l-0.2,0
		l-0.3,0c-0.8,0-1.7,0.1-2.6,0.1c-1,0-2-0.1-3-0.5c-1-0.4-1.9-0.9-2.7-1.6l-0.3-0.3l0,0l-0.1-0.1l-0.1-0.1l-0.1-0.1
		c-0.1-0.1-0.3-0.4-0.5-0.6c-0.3-0.4-0.5-0.8-0.8-1.2c-0.5-0.8-0.9-1.6-1.3-2.4c-1.6-3.2-2.9-6.5-4.2-9.8c-1.3-3.3-2.5-6.6-3.6-9.9
		l0.4,0.6l-8.1-5.8c-2.7-1.9-5.4-3.9-8-5.8l-1.5-1.1l1.8-0.4l5.8-1.2l5.8-1.2c3.9-0.8,7.8-1.5,11.7-2.3l0.1,0.2
		c-3.8,1.1-7.7,2.1-11.5,3.1l-5.8,1.5l-5.8,1.5l0.3-1.5c2.8,1.8,5.5,3.6,8.3,5.5l8.3,5.5l0.3,0.2l0.1,0.4c1.2,3.3,2.5,6.5,3.7,9.8
		c1.3,3.2,2.6,6.5,4.1,9.5c0.8,1.5,1.5,3.1,2.5,4c1.1,1,2.4,1.5,3.9,1.5c0.8,0,1.6-0.1,2.6-0.1l0.4,0l0.4,0c0.3,0,0.4,0.1,0.7,0.1
		c-0.1,0,0.1,0,0.3,0c0.2,0,0.4-0.1,0.6-0.1c1.6-0.3,3.3-0.8,4.9-1.4c6.6-2.2,13.1-4.8,19.4-7.7c6.3-2.9,12.5-6.1,18.3-10l-0.2,0.1
		c1.2-1.4,2.4-2.8,3.5-4.3c0.6-0.7,1.1-1.5,1.6-2.2c0.3-0.4,0.5-0.8,0.7-1.1l0.3-0.6c0.1-0.2,0.2-0.4,0.3-0.5l0.1-0.1l0.1-0.1
		l7.6-7.9l0,0l0,0l17.6-13.1l0,0.6l-18.8-17.2L242.8,242.7z"/>
</g>
<path class="st27" d="M206,87.5c0,0-27-23.5-46-21S141,69,141,69s14-8,33-7s30,14.5,30,14.5L206,87.5z"/>
<g>
	<path class="st7" d="M240.2,245.3c-0.9,2.6-1.9,5.3-2.9,7.9l-3,7.9c-1,2.6-2,5.2-3.1,7.8l-3.1,7.8l0,0.1l-0.1,0.1l-6.5,6.6
		l-6.5,6.6c-2.2,2.2-4.3,4.4-6.4,6.7c-1.1,1.1-2.1,2.3-3.1,3.4c-0.5,0.6-1,1.2-1.5,1.8l-0.7,0.9c-0.2,0.3-0.4,0.6-0.6,1
		c0.2-0.3,0.4-0.7,0.6-1l0.7-1c0.4-0.6,0.9-1.2,1.4-1.8c1-1.2,2-2.4,3-3.6c2-2.3,4.1-4.6,6.2-6.9c1-1.1,2.1-2.3,3.2-3.4l3.2-3.3
		c2.2-2.2,4.3-4.4,6.5-6.6l-0.1,0.2l3.2-7.8c1.1-2.6,2.1-5.2,3.2-7.8l3.3-7.8C238,250.4,239.1,247.8,240.2,245.3z"/>
</g>
<g>
	<path class="st7" d="M173.7,269.5c0,1.4,0,2.8,0,4.3c0,1.4-0.1,2.8-0.1,4.3c-0.1,2.8-0.2,5.7-0.4,8.5l0-0.2
		c1.1,3.6,2.2,7.2,3.2,10.9l1.5,5.5c0.2,0.9,0.5,1.8,0.7,2.7c0.2,0.9,0.5,1.8,0.7,2.8c-0.3-0.9-0.6-1.8-1-2.7
		c-0.3-0.9-0.6-1.8-0.9-2.7l-1.8-5.4c-1.1-3.6-2.3-7.2-3.3-10.8l0-0.1l0-0.1c0.2-2.8,0.4-5.7,0.6-8.5c0.1-1.4,0.2-2.8,0.4-4.2
		C173.4,272.3,173.5,270.9,173.7,269.5z"/>
</g>
<polygon class="st33" points="243.2,245.5 230,280 217.5,294 229.5,285.8 242.2,268 258.2,259 "/>
</svg>
