<svg id="artwotk" xmlns="http://www.w3.org/2000/svg" viewBox="0 0 512 512"><defs><style>.cls-1{fill:#fc5d00;}.cls-2{fill:#ffb185;}.cls-13,.cls-14,.cls-3{fill:#fff6e9;}.cls-4{fill:#ffb30d;}.cls-14,.cls-5,.cls-6{opacity:0.5;}.cls-6{fill:#ac7406;}.cls-7{fill:#d39a06;}.cls-8{fill:#ffd781;opacity:0.2;}.cls-9{fill:#a47900;}.cls-10{fill:#ffc340;}.cls-11{opacity:0.6;}.cls-12{fill:none;stroke:#000;stroke-miterlimit:10;stroke-width:2.51px;}.cls-13{opacity:0.4;}.cls-15{fill:#fff;}.cls-16{fill:#ffb410;}</style></defs><path class="cls-1" d="M47.15,330.66h0a11.47,11.47,0,0,0,16.2.94l34.17-30.41,0,0a13.41,13.41,0,0,1,17.68,20l.15.17-12,10.69a13.08,13.08,0,0,0,17.39,19.55l12-10.64.18.19a11.46,11.46,0,0,1,15.58,1.44l2.14,2.4a11.48,11.48,0,0,1-.44,15.71l.09.1-33,29.36a13.5,13.5,0,0,0,17.93,20.2l42.5-37.82a12.74,12.74,0,0,1,18,1h0a12.74,12.74,0,0,1-1,18l-60.2,53.57a12.46,12.46,0,0,1-1.51,1.14l-10.76,9.57a13.23,13.23,0,1,0,17.59,19.76L202.26,420a12.27,12.27,0,0,0,1-1l228-212.47c84.05-67.32,15.58-141.92,15.58-141.92-35.24-35.41-98.2-30.9-134.95,2.93L83.37,283.15a11.56,11.56,0,0,0-1,.77L48.09,314.46A11.47,11.47,0,0,0,47.15,330.66Z"/><path class="cls-1" d="M85.74,419.63,72.58,431.34a13.5,13.5,0,1,0,18,20.18l13.16-11.71a13.5,13.5,0,0,0-18-20.18Z"/><path class="cls-1" d="M82.93,378.69l5.67-5.05A9.78,9.78,0,0,0,75.6,359l-5.67,5.05a9.77,9.77,0,0,0-.81,13.8h0A9.78,9.78,0,0,0,82.93,378.69Z"/><rect class="cls-2" x="208.06" y="357.28" width="35.75" height="19.56" rx="8.78" transform="translate(-186.86 243.05) rotate(-41.67)"/><path class="cls-2" d="M141.84,310.81h0a9.77,9.77,0,0,0,13.8.81l5.67-5.05a9.78,9.78,0,0,0,.81-13.81h0a9.79,9.79,0,0,0-13.81-.8L142.64,297A9.78,9.78,0,0,0,141.84,310.81Z"/><path class="cls-2" d="M161,247.86l18-16a10.58,10.58,0,0,1,14.93.87l2,2.21a10.57,10.57,0,0,1-.87,14.94l-20.47,18.22a12.23,12.23,0,0,0,17.14,17.33l25.93-23.08a10.56,10.56,0,0,1,14.93.87l2,2.21a10.57,10.57,0,0,1-.87,14.94l-46.21,41.12a10.57,10.57,0,0,0,.26,13.74l2,2.21A10.58,10.58,0,0,0,204,338.84l44.64-39.73a12.06,12.06,0,0,1,16,18l-16.12,14.34a12.05,12.05,0,0,0,17.86,16l9.11-8.11.14.16L442.54,189.84a85.45,85.45,0,0,0,3.57-123.93h0a85.44,85.44,0,0,0-118.44-2.58L184.34,197.06l-37.17,33.08A11.26,11.26,0,0,0,161,247.86Z"/><path class="cls-3" d="M230.67,235.77a8.54,8.54,0,0,0,12.08.72l42.82-38a10.08,10.08,0,0,1,13.27-.3,9.81,9.81,0,0,1,.06,14.72l-25.16,23.6a8.54,8.54,0,0,0-.72,12l2.4,2.72a8.55,8.55,0,0,0,12.08.72L306,234.38a10.07,10.07,0,0,1,13.26-.31,9.82,9.82,0,0,1,.07,14.73l-4,3.38a8.55,8.55,0,0,0-.72,12.05l1.95,2.21a8.54,8.54,0,0,0,12.1.7l115.7-100.83c30.47-27.28,28.8-69.91-3.72-94.72h0a69.38,69.38,0,0,0-96.18-2.1L234.05,170.36A8.55,8.55,0,0,0,245.51,183l7.88-7a8.5,8.5,0,0,1,12.67,1.54,8.73,8.73,0,0,1-1.6,11.39l-35.78,31.71a8.55,8.55,0,0,0-.72,12Z"/><rect class="cls-3" x="191.71" y="197.58" width="31.48" height="17.22" rx="7.73" transform="translate(-84.59 190.04) rotate(-41.66)"/><path class="cls-3" d="M267.08,257.22a8.61,8.61,0,0,0-12.15-.71l-5.16,4.59A8.61,8.61,0,0,0,261.22,274l5.15-4.59a8.61,8.61,0,0,0,.71-12.16Z"/><path class="cls-4" d="M339.83,179.12c27.57,25.92,67.46,25,103.7-.88,30.43-21.71,23.66-68.7-6.62-98.13s-62.4-39.8-91.73-16.63C297.37,101.25,309.07,150.2,339.83,179.12Z"/><g class="cls-5"><rect class="cls-6" x="336.52" y="170.7" width="17.2" height="2.5" rx="1.25" transform="translate(-34.36 240.32) rotate(-36.7)"/><rect class="cls-6" x="357.68" y="185.55" width="17.2" height="2.5" rx="1.25" transform="translate(-39.04 255.91) rotate(-36.7)"/><rect class="cls-6" x="381.19" y="191.24" width="17.2" height="2.5" rx="1.25" transform="translate(-37.77 271.09) rotate(-36.7)"/><rect class="cls-6" x="408.59" y="188.19" width="17.2" height="2.5" rx="1.25" transform="translate(-30.52 286.86) rotate(-36.7)"/><rect class="cls-6" x="323.32" y="152.46" width="17.19" height="2.5" rx="1.25" transform="translate(-26.07 228.82) rotate(-36.7)"/><rect class="cls-6" x="314.73" y="130.87" width="17.19" height="2.5" rx="1.25" transform="translate(-14.87 219.41) rotate(-36.7)"/><rect class="cls-6" x="313.8" y="108.24" width="17.19" height="2.5" rx="1.25" transform="translate(-1.53 214.37) rotate(-36.7)"/><path class="cls-3" d="M359.49,190.34l12.17-9.06a5,5,0,0,0-2.48.08c-.68.41-10.08,7.51-10.08,7.51S358.29,190,359.49,190.34Z"/><path class="cls-3" d="M338.27,175.49l13-9.67s-2-.35-2.77.1-11.36,8-11.36,8A1.35,1.35,0,0,0,338.27,175.49Z"/><path class="cls-3" d="M324.49,157.6l13-9.68s-2-.35-2.77.1-11.36,8-11.36,8A1.36,1.36,0,0,0,324.49,157.6Z"/><path class="cls-3" d="M317.64,134.82l13-9.68a6,6,0,0,0-2.77.1c-.77.45-11.36,8-11.36,8A1.34,1.34,0,0,0,317.64,134.82Z"/></g><ellipse class="cls-7" cx="398.49" cy="117.19" rx="67.68" ry="76.44" transform="translate(36.73 321.3) rotate(-45.82)"/><path class="cls-8" d="M443.23,158.34c19.4-16.29,21.1-56-4.2-80.63s-61.61-27.43-87.16-1.24c0,0,22.93,32.72,52.4,32.55S443.23,158.34,443.23,158.34Z"/><path class="cls-9" d="M343.76,67.06c25.68-26.55,70.73-24.42,100.61,4.75s36.2,67.25,10.52,93.8S382,192.93,352.13,163.75,318.08,93.61,343.76,67.06Zm18.91,89.22c25,24.38,62.19,26.59,83.14,4.93s17.68-59-7.28-83.35-62.19-26.59-83.14-4.93S337.71,131.9,362.67,156.28Z"/><path class="cls-10" d="M388.88,107a8.44,8.44,0,0,0,5.21,3q2.73.31,7.32-1.4t8.69-2.91a28.91,28.91,0,0,1,7.84-1.25,17.28,17.28,0,0,1,7.05,1.37,19.28,19.28,0,0,1,6.47,4.85,17.1,17.1,0,0,1,4.85,13q-.45,7.29-6.35,13.86l6.61,7.17-5.41,5-6.74-7.31q-7.07,4.81-14.49,3.88t-13.37-7.39l11.5-10.59q3.26,3.54,6.37,4.2a6.12,6.12,0,0,0,5.63-1.67,6,6,0,0,0,2.19-4.62,7.73,7.73,0,0,0-2.35-5,7.46,7.46,0,0,0-5.11-2.68,19.24,19.24,0,0,0-7.19,1.4q-4.39,1.57-8.54,2.71a31,31,0,0,1-7.87,1.18,17.42,17.42,0,0,1-13.71-6.17,17.38,17.38,0,0,1-5.05-12.89q.31-7.06,6.11-13.54l-6.3-6.83,5.41-5L384,86.29q8.13-6,16.06-5.39t14.41,7.7L403,99.15c-2.38-2.58-4.76-4-7.15-4.32a8.22,8.22,0,0,0-6.75,2.47,6.56,6.56,0,0,0-2.37,4.73A7.13,7.13,0,0,0,388.88,107Z"/><path class="cls-10" d="M343.67,63.92c26.05-26.8,71.71-24.68,102,4.74s33.7,75,7.65,101.8-71.71,24.69-102-4.73S317.62,90.73,343.67,63.92Zm19.11,90c25.3,24.58,63,26.78,84.28,4.91s18-59.51-7.33-84.09-63-26.79-84.27-4.92S337.49,129.36,362.78,153.94Z"/><g class="cls-11"><path class="cls-12" d="M388.92,107.35a8.46,8.46,0,0,0,5.21,3q2.75.32,7.33-1.4t8.69-2.91a29.24,29.24,0,0,1,7.84-1.25,17.21,17.21,0,0,1,7,1.37,19.41,19.41,0,0,1,6.48,4.85,17.09,17.09,0,0,1,4.84,13q-.45,7.29-6.35,13.86l6.61,7.17-5.41,5-6.73-7.31q-7.08,4.81-14.5,3.88t-13.37-7.39l11.5-10.58c2.17,2.35,4.3,3.75,6.37,4.19a6.08,6.08,0,0,0,5.63-1.67,6,6,0,0,0,2.19-4.62,7.78,7.78,0,0,0-2.34-5,7.5,7.5,0,0,0-5.11-2.68,19.2,19.2,0,0,0-7.19,1.4c-2.94,1-5.78,2-8.54,2.71a31,31,0,0,1-7.87,1.18,18.15,18.15,0,0,1-7.15-1.35,18.49,18.49,0,0,1-6.57-4.82,17.42,17.42,0,0,1-5-12.89q.31-7.06,6.11-13.54l-6.29-6.83,5.41-5L384,86.6q8.14-6,16.06-5.39t14.41,7.7L403,99.46c-2.38-2.58-4.77-4-7.15-4.32a8.22,8.22,0,0,0-6.75,2.47,6.56,6.56,0,0,0-2.37,4.73A7.12,7.12,0,0,0,388.92,107.35Z"/><path class="cls-12" d="M339.87,179.43c26.37,24.79,64,25,98.91,2.36-26.34,14.3-62.21,8.75-87.41-15.75C322.25,137.75,318,94.53,340.86,67.41,298.17,104.64,310.09,151.42,339.87,179.43Z"/><path class="cls-12" d="M351.37,166c25.2,24.5,61.07,30.05,87.41,15.75a60.59,60.59,0,0,0,14.57-11C479.4,144,476,98.39,445.7,69s-75.93-31.54-102-4.74c-1,1-2,2.1-2.86,3.18C318,94.53,322.25,137.75,351.37,166Zm88.4-91c13.52,13.14,20.75,30,21.31,46.21.48,14.11-4.09,27.71-14,37.89-21.24,21.86-59,19.66-84.27-4.92S334.25,92,355.5,70.15C367.34,58,384.31,53.26,401.39,55.74A69.77,69.77,0,0,1,439.77,75.07Z"/></g><path class="cls-13" d="M350.38,165c25.86,25.13,62.94,30.32,89.44,14.6-26.05,12.52-60.36,6.54-84.72-17.13-30.28-29.42-33.7-75-7.65-101.81A60.18,60.18,0,0,1,360,50.81a60.49,60.49,0,0,0-17.27,12.4C316.68,90,320.11,135.6,350.38,165Z"/><path class="cls-14" d="M395.58,184.65s-31.38-7.78-51.17-35.14c1.29,4.88,11.83,26.85,51.65,36.34"/><path class="cls-15" d="M387.11,179.82s-4.58-2.33-5.53-1.41c-1.74,1.71,2.5,4.31,3.46,5.74s-3.85,4.74-3.15,6.28,3.19-.84,6.51-2.16,6.9,3.46,8.08,2c.81-1-.83-2.07-3-4.55s1.15-3.88,2.16-8.33-5.94,3.57-5.94,3.57A5.8,5.8,0,0,1,387.11,179.82Z"/><path class="cls-15" d="M397.26,139.88s9,8.69,18.72,6.12c5.74-1.19,8.44-3.55,8.44-3.55s-8.8,4-16.45,1.89S397.26,139.88,397.26,139.88Z"/><path class="cls-15" d="M398.13,122.91s-13,4.24-20.65-5.25-4.3-15.83-4.3-15.83a19.66,19.66,0,0,0,8.8,18.41C388.7,124.81,398.13,122.91,398.13,122.91Z"/><path class="cls-16" d="M431.06,147.64l-6.27-6.78s-8.89,4.52-15.23,2.84a31.12,31.12,0,0,1-10.08-4.54l9-8.37s8.19,8.12,15-.71a2.59,2.59,0,0,1,4.2.14c1.13,1.7.29,6.78,1.65,8.37a76.27,76.27,0,0,0,5.35,5.88Z"/><path class="cls-16" d="M412,113.63a2.16,2.16,0,0,1-.3,3.94c-8.1,2.91-25,7.93-30.93,1.56-6.1-6.13-10.49-16.91-5.3-23.72l3-4-6.28-7,3.24-3.1L386.24,94s-3.39,6.15-.13,11.61,7.45,6.79,14.29,4.4c4.47-1.24,2.58-1.19,2.58-1.19Z"/><path class="cls-15" d="M459,106.3A99,99,0,0,0,448.17,87a89,89,0,0,0-7-8.51,73.37,73.37,0,0,0-8-7.51,74.88,74.88,0,0,0-9-6.26,75.82,75.82,0,0,0-9.84-4.8A85.19,85.19,0,0,0,393,54.83a64.29,64.29,0,0,1,22.13,3.27,68.16,68.16,0,0,1,10.35,4.58,68.75,68.75,0,0,1,24.31,23.24,78.72,78.72,0,0,1,5.41,9.86A61.22,61.22,0,0,1,459,106.3Z"/></svg>