<svg id="artwotk" xmlns="http://www.w3.org/2000/svg" viewBox="0 0 512 512"><defs><style>.cls-1{fill:#ffd0a8;}.cls-2,.cls-34{fill:none;}.cls-3{fill:#ffe5ce;}.cls-4{fill:#efc090;}.cls-5{fill:#8b372c;}.cls-6{fill:#a86860;}.cls-7{fill:#6a0d00;}.cls-8{fill:#e5b131;}.cls-9{fill:#be8200;}.cls-10{fill:#a47c31;}.cls-11{fill:#b47e3c;}.cls-12{fill:#c4828e;}.cls-13{fill:#d6960b;}.cls-14{fill:#d6ac00;}.cls-15{fill:#a64001;}.cls-16{fill:#f2c644;}.cls-17{fill:#e7ba33;}.cls-18{fill:#fec82e;}.cls-19{fill:#fde56c;}.cls-20{fill:#a65801;}.cls-21{fill:#ffeba2;}.cls-22{fill:#ac7e4c;}.cls-23{fill:#b86734;}.cls-24{fill:#ccc;}.cls-25{fill:#ab7809;}.cls-26{fill:#ab8a00;}.cls-27{fill:#853301;}.cls-28{fill:#c29e36;}.cls-29{fill:#b99529;}.cls-30{fill:#cba025;}.cls-31{fill:#cab756;}.cls-32{fill:#ccbc82;}.cls-33{fill:#e1d8d8;}.cls-34{stroke:#150c0c;stroke-linecap:round;stroke-linejoin:round;stroke-width:0;}.cls-35{fill:#f3e6e8;}.cls-36{fill:#eecd7b;}.cls-37{fill:#ffd6ae;}.cls-38{fill:#eab484;}.cls-39{fill:#fff;}</style></defs><path class="cls-1" d="M415,218.13C401,206,383.91,185.83,373.63,162.8c-5.24-11.71-12.19-27.77-19.15-43.16-.77-1.69-1.53-3.37-2.3-5a51.16,51.16,0,0,0-8-60.2,48.28,48.28,0,0,0-46.68-13.25,95.86,95.86,0,0,0-16.27-8,99.85,99.85,0,0,0-35.65-6.34c-13.83,0-29.37,2.56-46.73,8.69-13.06,4.6-23.5,10.42-31.79,17A76.09,76.09,0,0,0,142.59,86c-4.4,11.89-5.67,24-5.67,34.74,0,2.85.09,5.61.23,8.26l-.27.24-.59.59v.84c0,1.61.1,7.49.62,14.38.26,3.44.63,7.13,1.14,10.66.18,1.24.38,2.44.6,3.62,0,.09,0,.17,0,.25-.25,1.73-.38,3.72-.49,5.89-.16,3.24-.29,6.85-.64,10.3a35.18,35.18,0,0,1-1.92,9.13,32.77,32.77,0,0,1-3.81,6.71c-2.41,3.43-5.6,7.22-9.28,12.52a138.78,138.78,0,0,0-12.18,21.62,175.4,175.4,0,0,0-9.65,25.38,75.09,75.09,0,0,0-3.23,20.2A34.79,34.79,0,0,0,99.22,283a22.29,22.29,0,0,0,13.44,13.7,39.07,39.07,0,0,0,13.45,2.4h.5a23.14,23.14,0,0,0,11.06-2.85c5.81-3.16,10.41-8.48,14.16-14.55a88.94,88.94,0,0,0,6.46-13.05,125.06,125.06,0,0,0,0,26.38,279,279,0,0,0,4.84,31l3.13,15.26,1.57,7.65c.52,2.58,1.12,5.13,1.72,7.68,2.4,10.19,5.21,20.24,8.14,30.23s6,19.92,9,29.84,6,19.84,8.58,29.8c1.24,5,2.37,10,3.39,15s1.91,10.1,2.64,15.17l.52,3.82c.17,1.29.32,2.57.56,4A14.21,14.21,0,0,0,203,487a5.84,5.84,0,0,0,1,1.75l.2.22a3.88,3.88,0,0,0,.54.45,3.23,3.23,0,0,0,.42.25l.33.16.44.17.35.11a22.59,22.59,0,0,0,2.25.5c.7.12,1.37.22,2,.31,5.34.7,10.55,1,15.82,1.25s10.53.26,15.85,0a73.61,73.61,0,0,0,8.1-.82,27.57,27.57,0,0,0,4.28-1,12,12,0,0,0,2.4-1.12,5.15,5.15,0,0,0,.67-.47l.35-.29.36-.36a6.49,6.49,0,0,0,.68-.89l.31-.55a22.15,22.15,0,0,0,2.21-8.72c.21-2.76.24-5.38.31-8,.11-5.17.33-10.24.85-15.3,1.35-10.27,1.77-20.78,4.57-30.16a26.48,26.48,0,0,1,2.73-6.37,10.33,10.33,0,0,1,1.89-2.26,8.39,8.39,0,0,1,2.44-1.37,8.21,8.21,0,0,1,2.73-.56,4.21,4.21,0,0,1,2.17.53,5,5,0,0,1,1.71,1.68,12.27,12.27,0,0,1,1.28,2.75,29.35,29.35,0,0,1,1.16,6.89c.15,2.4.12,5,.1,7.56,0,5.15-.16,10.33-.29,15.51l-.89,31.25a8.53,8.53,0,0,0,2.36,5.49,14.79,14.79,0,0,0,3.84,3,28.55,28.55,0,0,0,8.23,2.9,66,66,0,0,0,16.29.87,48.39,48.39,0,0,0,16.18-3.43,31.3,31.3,0,0,0,7.42-4.35,25.62,25.62,0,0,0,3.21-3.05,22.73,22.73,0,0,0,1.4-1.8c.22-.32.43-.65.64-1l.31-.55c.11-.21.18-.33.34-.69h0l.22-.51,0-.62c.11-4.29.25-8.6.42-12.89s.33-8.63.68-12.75c.37-4.46.56-8.72.81-13l.74-12.92c.53-8.59,1-17.2,1.74-25.72q.27-3.21.62-6.36c.24-2.1.5-4.19.86-6.14l1.83-9.16,1.63.31c1.76.31,3.53.54,5.33.69a39,39,0,0,0,5.53.09,23.34,23.34,0,0,0,5.83-1,12.81,12.81,0,0,0,5.8-3.64,10.7,10.7,0,0,0,1.92-3.2,11.49,11.49,0,0,0,.52-1.74c.05-.27.11-.59.14-.84l.1-.7c.41-3.57.55-6.91.72-10.33.56-13.57.62-27.08.38-40.61s-.85-27.05-2.09-40.57c-.31-3.38-.74-6.75-1.19-10.12s-1.07-6.74-1.78-10.08c-.37-1.67-.75-3.34-1.17-5s-.93-3.31-1.45-5c-.67-2-1.41-4-2.27-5.93a82.56,82.56,0,0,0,12.26,10.73,61.18,61.18,0,0,0,11.82,6.68,30.77,30.77,0,0,0,11.6,2.61,18.42,18.42,0,0,0,2.69-.19,20,20,0,0,0,13.17-7.39,22,22,0,0,0,4.53-13.67A27.14,27.14,0,0,0,415,218.13Z"/><path class="cls-2" d="M337.09,459c.08-2.91.2-5.82.41-8.83.26-3.59.41-7.35.57-11.08-.68,5.77-1.17,10.16-1.33,11.92A45.18,45.18,0,0,0,337.09,459Z"/><path class="cls-3" d="M198.83,398.29c-6.8-22.85-18.94-58.05-21.82-91.4-.92-10.61-10.78-40.32-.42-77.81,5-17.92,11.84-41.15,30.78-61.05-4.67,2.94-8.66,5.55-11.48,7.42a156.18,156.18,0,0,0-21.21,36.15c-4.51,10.76-7,20.19-7.73,26v.07a151.54,151.54,0,0,1-3.39,15.24c-1.09,4-2.48,8.48-4.2,13,.64,4.42,1.17,8.79,1.8,13.15.73,5.11,1.45,10.2,2.28,15.28,1.65,10.16,3.65,20.27,5.64,30.43l3.09,15.26q.75,3.86,1.55,7.61c.51,2.51,1.1,5,1.69,7.52,2.37,10,5.16,20,8.08,29.91s6,19.84,9,29.78c2.5,8.23,5,16.47,7.26,24.82C201.32,424.76,202.28,409.91,198.83,398.29Z"/><path class="cls-3" d="M365.38,244.31a42.48,42.48,0,0,1-.91,8.79c6.26,27.64,3.15,117.2,3.15,117.2a41.47,41.47,0,0,1-9.47-.42,3.47,3.47,0,0,0-2.38.41c-.06.53-.09.83-.09.83l-.17,0c.86.11,1.71.21,2.57.28a23.51,23.51,0,0,0,8.65-.62,6,6,0,0,0,2.7-1.6,3.42,3.42,0,0,0,.65-1.11,3.58,3.58,0,0,0,.2-.68l.07-.41.08-.55c.36-3.11.57-6.5.75-9.81.7-13.34.89-26.78.79-40.18s-.56-26.81-1.65-40.13c-.29-3.32-.54-6.65-.89-10s-.67-6.63-1.06-9.93A131.82,131.82,0,0,0,364.84,237l.84-.37c-.4-.47-.8-1-1.18-1.43A51.27,51.27,0,0,1,365.38,244.31Z"/><path class="cls-4" d="M260.18,142.16c26.69-2.95,47.19,1.9,60.78,8.93a4.15,4.15,0,0,1,3.12,1l2.52,2.26c6,4,10.14,8.28,12.2,12.15,4.45,8.34,8.33,24.36,11.65,34.78.13.15.27.29.39.44a24.78,24.78,0,0,1,2.58,3.69v0c-.53-4.08-1.24-8.8-2.32-13.83-2.16-10.07-5.82-21.39-12.36-31.36a59.13,59.13,0,0,0-17.35-17.47,56.32,56.32,0,0,0-5.24-3,49,49,0,0,1-6.78.49,48.12,48.12,0,0,1-16.24-2.82,31.59,31.59,0,0,1-7.69-1,28.86,28.86,0,0,1-6.56-2.66c-.8-.44-1.57-.9-2.33-1.38l-.82,0a101.69,101.69,0,0,0-37.51,9c-.58.26-1.15.55-1.73.83a34,34,0,0,1-12.71,10.71c-1.6.75-3,1.41-4.37,2a44.4,44.4,0,0,1-10.64,6.47,130.73,130.73,0,0,0-12.88,14.1c2.82-1.87,6.81-4.48,11.48-7.42C223.66,157.79,248.19,143.48,260.18,142.16Z"/><path class="cls-5" d="M148.91,162.42c1.47,11.58,2.79,16.69.51,23.85-2.88,9.06-10.29,14.82-16,27.17s2.88-2.06-9.47,20.17-16.06,38.29-13.59,44.47,7.41,11.52,12.76,15.23a4.89,4.89,0,0,1,.76.65c.78.05,1.56.11,2.39.12h.39a18,18,0,0,0,8.53-2.18,27.22,27.22,0,0,0,7.37-6c4.55-5.07,8.28-12.08,11.16-19.21.72-1.79,1.39-3.59,2-5.37.31-7.1.72-14.68,1.14-19.49,1.5-17.21,5.26-34.73,14.36-49.63a240,240,0,0,1,19.07-27.34,44.25,44.25,0,0,1-28.17-11.12Q155.51,157.84,148.91,162.42Z"/><path class="cls-5" d="M414.55,247.2c-5.76-12.35.42-9.88-.82-16.47S389,208.5,380.8,197.8,366,173.92,356.51,145.1a154.64,154.64,0,0,1-5.33-20.51L350,121.86c-.22,6.92-2,15.41-13.21,16.65-1.18.13-2.35.22-3.52.28a58.28,58.28,0,0,1,5.55,5.34c9.64,10.64,15,24.86,19,38.43,4.87,16.81,4.74,29.69,3.58,38,.49,1.15,1.07,2.34,1.73,3.54a59.62,59.62,0,0,0,7.28,10.17,74.22,74.22,0,0,0,20.61,16.53c4.81,2.5,9.47,3.91,13.25,3.9a14,14,0,0,0,2-.14,14.92,14.92,0,0,0,9.55-5.09C415.29,248.71,414.9,247.94,414.55,247.2Z"/><path class="cls-5" d="M149.48,102.48c-2,4.13-3.91,7.43-2.94,14.59A46.42,46.42,0,0,1,149.48,102.48Z"/><path class="cls-5" d="M258.17,116.08l-13.56,3.78a41.34,41.34,0,0,1-.76,5.7c.41-.16.81-.33,1.22-.47,5.7-2,11.5-2.49,17.35-2.79-.4-.45-.79-.91-1.17-1.4A33.16,33.16,0,0,1,258.17,116.08Z"/><path class="cls-5" d="M277.85,37.29c-11.79-3.29-25.27-5.43-35.8-2.53-23.87,6.59-22.23,10.3-30.05,16.06S190.59,53.29,186.06,64s-12.24,11.22-25,19.87c-12.14,8.22-8,8.91-9.68,14.27a46.26,46.26,0,0,1,8.26-11.65,44.54,44.54,0,0,1,23.51-12.69c.73-.19,1.68-.43,2.84-.67l.08-.07s17.71-11.11,32.53-2.47S233,74.7,238.35,74.7,250.7,71,250.7,71s1.23-19.76,20.17-22.64c4.93-.75,8.68-1.42,11.54-2A77.78,77.78,0,0,1,291,43.19a88.64,88.64,0,0,0-11.54-5.34C278.9,37.65,278.37,37.48,277.85,37.29Z"/><path class="cls-6" d="M110.31,278.08c-2.47-6.18,1.24-22.24,13.59-44.47s3.7-7.82,9.47-20.17,13.17-18.11,16-27.17c2.28-7.16,1-12.27-.51-23.85-1.9,1.32-3.81,2.68-5.71,4.07l-.08.06v.11c-.18,3.75-.34,8.1-.93,12.26a34.57,34.57,0,0,1-2,7.88,38,38,0,0,1-4.36,7.74c-1.73,2.46-3.7,4.92-5.86,7.8a130.89,130.89,0,0,0-15.14,25.53,172,172,0,0,0-9.38,24.65,70.4,70.4,0,0,0-3,18.83c0,5.83,1.19,10.36,3.35,13.76a17.74,17.74,0,0,0,9.78,7.31,33.38,33.38,0,0,0,8.25,1.54,4.89,4.89,0,0,0-.76-.65C117.72,289.6,112.78,284.25,110.31,278.08Z"/><path class="cls-6" d="M146.54,117.07c-1-7.16.89-10.46,2.94-14.59a46.81,46.81,0,0,1,1.89-4.35c1.7-5.36-2.46-6,9.68-14.27,12.77-8.65,20.49-9.16,25-19.87S204.18,56.58,212,50.82s6.18-9.47,30.05-16.06c10.53-2.9,24-.76,35.8,2.53a95.08,95.08,0,0,0-32.31-5.46c-13.21,0-28.16,2.44-45,8.4-12.6,4.45-22.52,10-30.33,16.22a72,72,0,0,0-17.68,20.32c-8.33,14.4-10.52,30.12-10.52,44,0,1.53,0,3,.07,4.51,1.29-.92,2.81-2,4.58-3.16-.07-1-.12-2.09-.12-3.15C146.49,118.32,146.51,117.7,146.54,117.07Z"/><path class="cls-6" d="M380.8,197.8c8.23,10.7,31.7,26.34,32.93,32.93s-4.94,4.12.82,16.47c.35.74.74,1.51,1.17,2.29.12-.14.25-.27.37-.42a17,17,0,0,0,3.45-10.56,22.09,22.09,0,0,0-7.87-16.58c-14.46-12.59-31.94-33.16-42.64-57.07-4.93-11-11.35-25.83-17.85-40.27a154.64,154.64,0,0,0,5.33,20.51C366,173.92,372.56,187.09,380.8,197.8Z"/><path class="cls-7" d="M245.07,125.09c-.41.14-.81.31-1.22.47a42.27,42.27,0,0,1-3,9.19,106.11,106.11,0,0,1,28.76-7c-.8-.51-1.61-1-2.48-1.52a19.79,19.79,0,0,1-4.71-4C256.57,122.6,250.77,123.06,245.07,125.09Z"/><path class="cls-7" d="M357.74,182.56c-3.93-13.57-9.33-27.79-19-38.43a58.28,58.28,0,0,0-5.55-5.34,67.62,67.62,0,0,1-8.9-.16A64.36,64.36,0,0,1,343,157.43c10.91,16.66,14.08,36.21,15.63,48.67.44,3.55.74,6.54,1,8.64a23.45,23.45,0,0,0,1.7,5.84C362.48,212.25,362.61,199.37,357.74,182.56Z"/><path class="cls-7" d="M191.42,164.91c-.39,0-.77,0-1.16,0a240,240,0,0,0-19.07,27.34c-9.1,14.9-12.86,32.42-14.36,49.63-.42,4.81-.83,12.39-1.14,19.49A156,156,0,0,0,162,237v0h0a97.61,97.61,0,0,1,5-19.22,161.11,161.11,0,0,1,11.67-25.51,151.76,151.76,0,0,1,20.21-27.92A43.84,43.84,0,0,1,191.42,164.91Z"/><path class="cls-7" d="M244.61,119.86l13.56-3.78c-.05-.08-.09-.16-.13-.24q-6.56,1.34-13.39,3C244.63,119.21,244.63,119.54,244.61,119.86Z"/><path class="cls-7" d="M214.59,75.1a46.29,46.29,0,0,1,16,10.28c7.19-1.95,14.78-3.76,22.76-5.36a57.29,57.29,0,0,1,1.92-7.35,37.1,37.1,0,0,1,9.61-14.9A56.45,56.45,0,0,1,278,48.49c1.5-.79,3-1.49,4.37-2.11-2.86.55-6.61,1.22-11.54,2C251.93,51.23,250.7,71,250.7,71s-7,3.71-12.35,3.71-4.94,4.53-19.76-4.12-32.53,2.47-32.53,2.47l-.08.07A55.66,55.66,0,0,1,197.07,72,49.62,49.62,0,0,1,214.59,75.1Z"/><path class="cls-7" d="M324.32,138.63a67.62,67.62,0,0,0,8.9.16c1.17-.06,2.34-.15,3.52-.28,11.17-1.24,13-9.73,13.21-16.65,0-1.27,0-2.48,0-3.58a50.26,50.26,0,0,1-5.81,7.18,48.79,48.79,0,0,1-21.83,13C323,138.51,323.65,138.57,324.32,138.63Z"/><path class="cls-8" d="M154,154l-8.18-26.38-.51.35c-1,.71-1.87,1.34-2.6,1.89L148.18,158q5.46-3.75,10.93-7.15l-.1-.1Z"/><path class="cls-8" d="M140.37,131.58l0,0c0,3.28.31,12.33,1.35,20.85C140.61,143.19,140.39,133,140.37,131.58Z"/><path class="cls-8" d="M248,85.27q-7.34,1.62-14.22,3.44l4.59-.85s8.41,8.77,9.3,26.14q4.36-1,8.63-1.92c0-.09-.07-.18-.11-.26-.25.22-1.27.82-4.84,1C247.09,101.66,247.87,87.18,248,85.27Z"/><path class="cls-8" d="M244.53,113.29c0,.48.07,1,.1,1.44l.21,0C244.81,114.55,244.71,114.06,244.53,113.29Z"/><path class="cls-8" d="M252.57,84.35c-.69,1.91-.62,5.16-.2,8.76,0-.64-.05-1.28-.05-1.93a58.22,58.22,0,0,1,.41-6.92l-1.2.25Z"/><path class="cls-9" d="M154,154l5.06-3.18a46.19,46.19,0,0,1-11.92-24.37l-1.4.92.08.25Z"/><path class="cls-10" d="M260.09,74.26a53.65,53.65,0,0,0-2.73,16.92,52.13,52.13,0,0,0,2.28,15.36,35.71,35.71,0,0,0,5.59,11.27,16.22,16.22,0,0,0,4.44,4.12c1.4.81,2.68,1.62,3.88,2.41a51.12,51.12,0,0,1-3.82-64.12c-.44.38-.88.76-1.3,1.17A32.15,32.15,0,0,0,260.09,74.26Z"/><path class="cls-10" d="M234.42,136.23a37.44,37.44,0,0,0,5.25-19.08c0-8.61-3-17.69-10.41-25.94A43.44,43.44,0,0,0,219.4,83a43,43,0,0,1,3.8,3.46,46.75,46.75,0,0,1,7.35,55A34,34,0,0,0,234.42,136.23Z"/><path class="cls-8" d="M213,153.36c-1,.59-2,1.15-3.09,1.64a30.66,30.66,0,0,1-14.66,2.83A34.49,34.49,0,0,0,209,153.25a36.72,36.72,0,0,0,10.57-9.47A40.75,40.75,0,0,0,226,131.22a43.32,43.32,0,0,0-.75-27.76,40.47,40.47,0,0,0-7.06-12.19,36.64,36.64,0,0,0-11.06-8.89,34.58,34.58,0,0,0-14-3.85,29.51,29.51,0,0,1,3.12-.18,40.36,40.36,0,0,0-4.82-.31,39.28,39.28,0,0,0-28.19,12,41.68,41.68,0,0,0,0,57.91A39.11,39.11,0,0,0,213,153.36Zm-52.3-8.75a36.91,36.91,0,0,1-6.3-11.34c-.36-1-.6-2.09-.9-3.13-.13-.53-.27-1-.39-1.58l-.25-1.61c-.15-1.07-.35-2.14-.43-3.21s-.07-2.16-.09-3.23c0-.54,0-1.08,0-1.61s.09-1.07.16-1.6l.35-3.19a53.6,53.6,0,0,1,1.57-6.17c.26,2.14.24,4.21.41,6.26l.31,3.07c.06.5.09,1,.13,1.52l.25,1.5c.16,1,.31,2,.45,3s.44,2,.65,2.93l.31,1.47c.13.48.29.95.43,1.43.3.95.52,1.92.86,2.85a55.72,55.72,0,0,0,5.07,10.81,54.76,54.76,0,0,0,7.43,9.76A27.66,27.66,0,0,1,160.69,144.61Zm3.38-26.27c0-15.12,12-27.38,26.73-27.38s26.73,12.26,26.73,27.38-12,27.38-26.73,27.38S164.07,133.46,164.07,118.34Z"/><path class="cls-8" d="M300.13,45.7a32.77,32.77,0,0,1,7.2-.23A39.14,39.14,0,0,0,291.7,50a41.13,41.13,0,0,0-12.31,10.19,46.71,46.71,0,0,0-10.34,29.51,47.18,47.18,0,0,0,2.63,15.62,44.84,44.84,0,0,0,7.72,13.87,41,41,0,0,0,12.3,10.19A39,39,0,0,0,307.33,134a34.24,34.24,0,0,1-13.14-1.56,43.3,43.3,0,0,0,46.34-10.48,45.68,45.68,0,0,0,12.94-32v-.05c0,.59-.08,1.17-.13,1.76s-.09,1.07-.15,1.6-.2,1.05-.32,1.58L352.2,98a54,54,0,0,1-2.18,6c0-2.15.18-4.21.22-6.27V94.58c0-.51,0-1,0-1.52l-.1-1.52c-.06-1-.11-2-.15-3s-.24-2-.35-3L349.51,84c-.08-.49-.19-1-.29-1.47-.19-1-.32-2-.57-2.92a56.82,56.82,0,0,0-10.36-21.73,26.26,26.26,0,0,1,8,7.27,45.52,45.52,0,0,0-5.75-7.27,43.3,43.3,0,0,0-40.4-12.22Zm39.08,43.61c0,16.54-13.08,29.94-29.23,29.94s-29.23-13.4-29.23-29.94S293.84,59.37,310,59.37,339.21,72.78,339.21,89.31Z"/><path class="cls-11" d="M307.33,134a39,39,0,0,1-15.63-4.57,41,41,0,0,1-12.3-10.19,44.84,44.84,0,0,1-7.72-13.87,47.18,47.18,0,0,1-2.63-15.62,46.71,46.71,0,0,1,10.34-29.51A41.13,41.13,0,0,1,291.7,50a39.14,39.14,0,0,1,15.63-4.56,32.77,32.77,0,0,0-7.2.23,36.07,36.07,0,0,0-9.28,2.56A40.1,40.1,0,0,0,277,58.17,45.09,45.09,0,0,0,268.1,72.8a48.12,48.12,0,0,0,0,33.85A45.3,45.3,0,0,0,277,121.29a40.36,40.36,0,0,0,13.83,9.91c1.09.46,2.21.86,3.34,1.22A34.24,34.24,0,0,0,307.33,134Z"/><path class="cls-11" d="M207.09,82.38a36.64,36.64,0,0,1,11.06,8.89,40.47,40.47,0,0,1,7.06,12.19,43.32,43.32,0,0,1,.75,27.76,40.75,40.75,0,0,1-6.39,12.56A36.72,36.72,0,0,1,209,153.25a34.49,34.49,0,0,1-13.76,4.58A30.66,30.66,0,0,0,209.9,155c1.06-.49,2.09-1.05,3.09-1.64a36.28,36.28,0,0,0,9-7.61,40.58,40.58,0,0,0,7.58-13.35,43.52,43.52,0,0,0-.81-30.31,40.67,40.67,0,0,0-8.28-12.93,35.92,35.92,0,0,0-12.58-8.58,31.59,31.59,0,0,0-11.67-2.23,29.51,29.51,0,0,0-3.12.18A34.58,34.58,0,0,1,207.09,82.38Z"/><path class="cls-12" d="M254,301.13l2.68-3.54c-2.84.16-5.6.25-8.25.25-12.33,0-22.56-1.71-30.63-4.81s-14-7.63-17.46-13.31a23.81,23.81,0,0,1-3.49-12.55,28.68,28.68,0,0,1,.56-5.54c1.27-6.37,5.06-12.25,10.53-17.65s12.64-10.38,20.92-14.91c16.55-9.07,37.52-16.4,58-21.5a114.89,114.89,0,0,1,27.43-3.77c10.75,0,18.6,2.2,24.18,5.24a25.3,25.3,0,0,1,10.56,10,41.92,41.92,0,0,1,3.17,8.06,45.08,45.08,0,0,1,1.75,12.29,39.41,39.41,0,0,1-3.26,15.83c-.21.5-.45,1-.7,1.49.89,2.87.82,6.56.82,9.61,0,.72,0,2.38.05,4.21a41.84,41.84,0,0,0,7-10.42,36.87,36.87,0,0,0,3.46-15.84c0-10.14-3.78-19.48-6.74-25.92-1-2.15-1.88-4-2.51-5.45a15.08,15.08,0,0,1-.84-2.32,16.48,16.48,0,0,0-3.5-6.31,33.5,33.5,0,0,0-8.09-6.84c-6.92-4.29-16.88-7.62-29.89-7.62a96,96,0,0,0-27.41,4.32,234,234,0,0,0-45.93,18.94c-13.81,7.65-25.49,16.51-33.18,26-5.14,6.32-8.48,12.89-9.64,19.56a40.23,40.23,0,0,0-.61,7,36,36,0,0,0,3.1,14.83,35.55,35.55,0,0,0,9.64,12.69c8.76,7.41,22.45,12.41,42,12.41.9,0,1.82,0,2.75,0Q252.24,303.36,254,301.13ZM301.5,194.07a49.55,49.55,0,0,1,10.09-.79c6.48,0,14.42.7,19.71,2.8,7,2.77,9.58,7.08,6.1,7.08a12.83,12.83,0,0,1-4.54-1.2s-4.55-2.73-16.08-2.73c-2.44,0-5.2.13-8.29.42-1.06.1-2,.15-2.81.15-5.08,0-5.79-1.74-6.1-2.45C299.05,196.16,299.3,194.64,301.5,194.07Zm-9.28,1.55h.17a3.68,3.68,0,0,1-.17,7.36h-.17a3.69,3.69,0,0,1,.17-7.37Z"/><path class="cls-13" d="M260.26,262.53c0-.27,0-.54,0-.81v.1c0-.23,0-.47,0-.7a18.84,18.84,0,0,1,2.7-9.59h0a42,42,0,0,1,4.12-5.74l-.63-.28a28.29,28.29,0,0,0-7,10.84c-1,2.92-.93,6.83-.93,10,0,.69,0,2.27-.05,4,0,.66,0,1.35,0,2a34.61,34.61,0,0,0,.21,4.83,25,25,0,0,0,4.93,10.26,16.29,16.29,0,0,0,1.17-4.06c.08-.54.14-1.08.19-1.66s.07-1.15.2-2l.07-.36.12-.47a4.32,4.32,0,0,1,.28-.66,3.11,3.11,0,0,1,.72-.93,3.08,3.08,0,0,1,.39-.3C262.64,272.82,260.26,267.85,260.26,262.53Zm3.28,24.28c-3.33-3.33-4.65-9.3-4.65-9.3v-17c1,9.6,4.65,13.23,4.65,13.23Z"/><path class="cls-13" d="M350.85,270.57c0-1.83-.05-3.49-.05-4.21,0-3.05.07-6.74-.82-9.61,0-.13-.07-.28-.12-.41a26,26,0,0,0-2.12-4.58,29.18,29.18,0,0,0-4.21-5.61,21.82,21.82,0,0,1,.93,2.59h0a19.82,19.82,0,0,1,4.64,12.38c0,.23,0,.47,0,.7,0,0,0-.06,0-.1,0,.27,0,.54,0,.81a19,19,0,0,1-3,10.12l4,5.49-5.55-3.25c-5.47,6.89-15.36,12.15-27.35,14.34a18.19,18.19,0,0,1-1.59,4.26,19.66,19.66,0,0,1-2.79,3.87,2.53,2.53,0,0,0,.13.22q.64,1.25,1.17,2.55c.29.79.55,1.59.77,2.4,18.58-2.44,32.87-11.64,35.83-25.28a6.44,6.44,0,0,0,.11-.84C350.86,275,350.87,272.69,350.85,270.57Z"/><polygon class="cls-13" points="267.45 245.94 267.25 245.85 267.45 245.94 267.45 245.94"/><path class="cls-13" d="M337.26,242.23h0l.28-.1-.29.1Z"/><path class="cls-13" d="M338.27,241.86l.17-.06h0Z"/><path class="cls-14" d="M284.84,248.41h0l-.18,0,.13,0Z"/><path class="cls-14" d="M291.15,247.06l.31-.09-.32.09Z"/><path class="cls-14" d="M302.13,242.18l.69-.36-.71.37-.13.07Z"/><path class="cls-14" d="M319.69,274.32a8.72,8.72,0,0,0,1.22-3.59A2,2,0,0,0,321,270V263.9a2.08,2.08,0,0,0-.19-.86,7.55,7.55,0,0,0-1.75-3.6,1.42,1.42,0,0,1-.22-1.51,1.93,1.93,0,0,0,.19-.89L319,252.5c0-.06,0-.23,0-.5-.62,0-1.26,0-1.9-.07h0c0,.4,0,.59,0,.59l.08,4.58-.89-.7a18.6,18.6,0,0,0-8.22-2.26l0,2.51c1,.24,2,.49,3.24.75.43.1.82.2,1.21.32.1,0,.19.06.29.09.34.1.67.21,1,.33l.11,0c.34.14.65.28.95.43l.23.12c.25.13.48.27.7.41l.15.09a7.4,7.4,0,0,1,.7.51l.18.15a5.11,5.11,0,0,1,.48.45l.13.13a6.05,6.05,0,0,1,.48.57c.05.06.08.12.12.17s.21.31.3.47l.1.18a4,4,0,0,1,.27.6c0,.07.05.13.07.19s.1.31.14.47a2.25,2.25,0,0,0,.05.22,5.59,5.59,0,0,1,.08.59h.1v6.14l-.08.06a6.69,6.69,0,0,1-1,3.2,7.45,7.45,0,0,1-3.68,2.82,12.51,12.51,0,0,1,1.13,1.6A9,9,0,0,0,319.69,274.32Z"/><path class="cls-14" d="M310.67,241l.06.06-.06-.06Z"/><path class="cls-14" d="M308.47,237.48v0Z"/><path class="cls-14" d="M308.79,238.23l0,0h0Z"/><path class="cls-14" d="M302,254.76l.41.19.19.08v-.53c-.26.07-.5.13-.71.21Z"/><path class="cls-14" d="M318.86,244.91l.19,0-.27,0-.14,0Z"/><path class="cls-14" d="M323.09,245.09c-.41,0-.82,0-1.21,0H322Z"/><path class="cls-14" d="M326.54,244.75l-.26,0,.27,0Z"/><path class="cls-14" d="M272.55,263c0-4,2.22-7.77,6-10.8h0c-.67,0-1.34,0-2,0h0c-1,0-5.3,5.63-6.33,5.7h-.14a1.86,1.86,0,0,1-1.58-.94,12.22,12.22,0,0,0-.49,8.39,13.93,13.93,0,0,1-1-2.47c1,6.47,6.36,12.16,14.24,16h.21c.93-.08,1.93-.21,2.82-.36l1.1-.65C277.57,274.43,272.55,269.06,272.55,263Z"/><path class="cls-14" d="M339.46,269.8l-3.11-4.36,4.15,2.74a16,16,0,0,0,1.89-5.34,13.23,13.23,0,0,1-1,2.47,12.23,12.23,0,0,0,.52-3.51c0-5-3-9.51-8.09-13.12a27.75,27.75,0,0,0-7.54,1.09h0a23.42,23.42,0,0,1,6.2,4.9,12.67,12.67,0,0,1,3.38,8.31c0,7.62-7.91,14.15-19.21,17a14.36,14.36,0,0,1,.72,2.54C327.26,280.33,335.3,275.7,339.46,269.8Z"/><path class="cls-14" d="M275.81,248.58h0Z"/><path class="cls-14" d="M331,243.92h0Z"/><path class="cls-14" d="M279.55,248.8h0Z"/><path class="cls-14" d="M292.09,269.78h0c0-.28,0-.55,0-.8h0c.2-4.73.2-4.75.2-4.75s0,0,.05.09l.06,0,.15.08.11,0,.24.1.15.05.39.13.11,0,.63.18.16.05.57.15.26.06.57.14.28.07.67.15.25.06,2,.4.28.05.78.14.35.06.75.12.34.05.9.13.18,0h.08V266c-5.34-1.5-11.07-3.41-10.77-8.32l-.07-4.13h0l-2-.26c0,.1,0,.19,0,.28l.07,4.06a7,7,0,0,0,.9,3.93,1.41,1.41,0,0,1-.1,1.54l-.12.22a1.91,1.91,0,0,0-.22.84L290,269.5v.08c0,.35,0,.74,0,1.19,0,.89.06,2,0,3.65a3.07,3.07,0,0,0,.11.91c.64-.29,1.29-.58,1.94-.85C292.18,272.19,292.1,270.81,292.09,269.78Z"/><path class="cls-15" d="M331,243.92l-.1,0,.1,0Z"/><path class="cls-15" d="M342.57,260.59c0-4.39-2-8.49-5.43-12-1.09,0-2.23,0-3.35.08h0c5.06,3.61,8.09,8.16,8.09,13.12a12.23,12.23,0,0,1-.52,3.51,13.23,13.23,0,0,0,1-2.47A14,14,0,0,0,342.57,260.59Z"/><path class="cls-15" d="M267.91,255.79c-.06-.14-.11-.28-.17-.41a14.94,14.94,0,0,0-1,5.21,15.29,15.29,0,0,0,.18,2.25,13.93,13.93,0,0,0,1,2.47,12.22,12.22,0,0,1,.49-8.39h0A6.54,6.54,0,0,1,267.91,255.79Z"/><path class="cls-15" d="M306.51,239.92l.07,0Z"/><path class="cls-15" d="M275.71,248.58h0Z"/><path class="cls-15" d="M328.89,244.35l-.55.1-.66.12.64-.11Z"/><path class="cls-15" d="M272.85,248.07l-.07,0h0Z"/><path class="cls-15" d="M308.81,238.27l0,.06,0-.05Z"/><path class="cls-15" d="M310.59,240.9l.07.09h0Z"/><path class="cls-15" d="M326.56,244.75l1.12-.18-1.14.18h0Z"/><path class="cls-15" d="M311.39,264.7a1,1,0,0,0-.08-.23c-.38-.84-1.54-1.47-3.11-2v-.16h0l0,4.62C310.39,266.75,311.76,266.11,311.39,264.7Z"/><path class="cls-15" d="M302.63,266.61Z"/><path class="cls-15" d="M300,253.16a4.11,4.11,0,0,0,1.95,1.55c.21-.08.45-.14.71-.21v-2.85c-1,.23-1.94.48-2.87.74A1.81,1.81,0,0,0,300,253.16Z"/><path class="cls-15" d="M291.84,253.54h0l.07,4.13c-.3,4.91,5.43,6.82,10.77,8.32V260.9C297.43,259.55,291.87,257.82,291.84,253.54Z"/><path class="cls-15" d="M316.94,252.34a7.15,7.15,0,0,0-.83-.48c-3.4-.26-6.76-.8-8.06-1h0l0,3.23a18.6,18.6,0,0,1,8.22,2.26l.89.7-.08-4.58s0-.19,0-.59h-.16C316.93,252.18,316.94,252.34,316.94,252.34Z"/><path class="cls-16" d="M291.14,247.06l-.37.1.38-.1Z"/><path class="cls-16" d="M285.26,248.34l-.41.06h0Z"/><path class="cls-16" d="M290.05,270.77c0-.45,0-.84,0-1.19v-.08l.23-5.36a1.91,1.91,0,0,1,.22-.84l.12-.22a1.41,1.41,0,0,0,.1-1.54,7,7,0,0,1-.9-3.93l-.07-4.06c0-.09,0-.18,0-.28h0c-3.09-.4-7.12-.93-11.21-1.08-3.77,3-6,6.76-6,10.8,0,6.07,5,11.44,12.77,14.8,1.4-.79,2.77-1.49,4.22-2.18l.64-.28a3.07,3.07,0,0,1-.11-.91C290.11,272.81,290.08,271.66,290.05,270.77Z"/><path class="cls-16" d="M335.81,263a12.67,12.67,0,0,0-3.38-8.31,23.42,23.42,0,0,0-6.2-4.9,2.5,2.5,0,0,0-1.22.82c-.71,1.06-2.95,1.4-5.6,1.4H319c0,.27,0,.44,0,.5l.08,4.54a1.93,1.93,0,0,1-.19.89,1.42,1.42,0,0,0,.22,1.51,7.55,7.55,0,0,1,1.75,3.6,2.08,2.08,0,0,1,.19.86V270a2,2,0,0,1-.12.69,8.72,8.72,0,0,1-1.22,3.59,9,9,0,0,1-4.15,3.42c.17.28.33.56.47.85a12.42,12.42,0,0,1,.59,1.36C327.9,277.14,335.81,270.61,335.81,263Z"/><path class="cls-17" d="M308.3,271.41v-.65c4.53-.34,8.35-1.54,9.86-3.85a5.93,5.93,0,0,0,.9-2.31,5.35,5.35,0,0,0-.09-1.26,2.25,2.25,0,0,1-.05-.22c0-.16-.09-.31-.14-.47s0-.12-.07-.19a4,4,0,0,0-.27-.6l-.1-.18c-.09-.16-.19-.31-.3-.47s-.07-.11-.12-.17a6.05,6.05,0,0,0-.48-.57l-.13-.13a5.11,5.11,0,0,0-.48-.45l-.18-.15a7.4,7.4,0,0,0-.7-.51l-.15-.09c-.22-.14-.45-.28-.7-.41l-.23-.12c-.3-.15-.61-.29-.95-.43l-.11,0c-.3-.12-.63-.23-1-.33-.1,0-.19-.07-.29-.09-.39-.12-.78-.22-1.21-.32-1.2-.26-2.27-.51-3.24-.75l0-2.51,0-3.23a4.39,4.39,0,0,0-.54,0,24.76,24.76,0,0,0-4.86.77V255l-.19-.08-.41-.19-.11,0a4.11,4.11,0,0,1-1.95-1.55,1.81,1.81,0,0,1-.21-.77h0c-2,.53-3.73,1.05-4.69,1.29a3.08,3.08,0,0,1-.69.06,23.09,23.09,0,0,1-2.45-.19c.69,3.69,5.86,5.27,10.72,6.54v.81h0v5.71h-.08l-.18,0-.9-.13-.34-.05-.75-.12-.35-.06-.78-.14L299,266l-2-.4-.25-.06-.67-.15-.28-.07-.57-.14-.26-.06-.57-.15-.16-.05-.63-.18-.11,0-.39-.13-.15-.05-.24-.1-.11,0-.15-.08-.06,0s-.06-.06-.05-.09,0,0-.2,4.75a45.61,45.61,0,0,0,10.52,1.82v.82h0v.05c.58,0,1.18-.05,1.76-.07s1.28.07,1.91.12a12.7,12.7,0,0,1,2,.39v-.69Zm-.14-9.13h0v-.66c1.58.55,2.74,1.18,3.12,2a1.69,1.69,0,0,1,.15,1.23l-.07-.18c.37,1.41-1,2.05-3.18,2.2Z"/><path class="cls-15" d="M292.09,269.78c0,1,.09,2.41,0,4.7,1.19-.49,2.39-1,3.62-1.35a32.15,32.15,0,0,1,6.81-1.47h.08v-.05A45.88,45.88,0,0,1,292.09,269.78Z"/><path class="cls-15" d="M318.09,273.32a6.69,6.69,0,0,0,1-3.2l.08-.06v-6.14h-.1a5.59,5.59,0,0,0-.08-.59,5.35,5.35,0,0,1,.09,1.26,3.54,3.54,0,0,0,.07-.47,5.73,5.73,0,0,1-1,3.6c-1.51,2.31-5.33,3.5-9.85,3.85v-.17h0v.69a10.48,10.48,0,0,1,1.23.42v-.81l1.76-.26.08,2a12.42,12.42,0,0,1,3.07,2.7A7.45,7.45,0,0,0,318.09,273.32Z"/><path class="cls-18" d="M260.31,260.91c0-.27,0-.53,0-.8A19.15,19.15,0,0,0,266,272.55a18.42,18.42,0,0,1-4.26-11.43,16.94,16.94,0,0,1,1.33-6.5h0c-1.33-.05-1-1.41-.09-3.09a18.84,18.84,0,0,0-2.7,9.59c0,.23,0,.47,0,.7.28,5.47,3.09,10.53,7.71,14.76h0C263.14,272.12,260.31,266.73,260.31,260.91Z"/><path class="cls-18" d="M335.48,242.79h0l.15,0-.17,0Z"/><path class="cls-18" d="M268.63,246.56h0l0,0,0,0Z"/><path class="cls-18" d="M337.19,242.25l.07,0h0Z"/><path class="cls-18" d="M342.5,248.66a18.86,18.86,0,0,1,5.11,12.46,16.65,16.65,0,0,1-1.28,6.37l.66-.37a17.69,17.69,0,0,0,1.83-7c0,.27,0,.53,0,.8a18,18,0,0,1-.94,5.7l.16-.09-.42.8a21.12,21.12,0,0,1-2.27,4.4l.11.16a19.42,19.42,0,0,0,3.58-10.06c0-.23,0-.47,0-.7a19.82,19.82,0,0,0-4.64-12.38c-.06,0-.79,0-1.95-.07Z"/><path class="cls-18" d="M343.56,274.35l-.15-.08c-5.51,6.31-14.81,11.14-26,13.26v0C328.65,285.46,338,280.65,343.56,274.35Z"/><path class="cls-18" d="M333.07,243.44l-.25.06.26-.06Z"/><polygon class="cls-18" points="307.74 237.26 307.66 237.44 307.67 237.43 307.74 237.26"/><path class="cls-18" d="M308.46,237.44v0h0Z"/><path class="cls-18" d="M331.05,243.91l.24-.06-.25.06h0Z"/><path class="cls-18" d="M308.23,236.75v0Z"/><path class="cls-18" d="M267,262.84a15.29,15.29,0,0,1-.18-2.25,14.94,14.94,0,0,1,1-5.21v0a3.11,3.11,0,0,0-1-1.53,16.63,16.63,0,0,0-1.47,6.76c0,6.74,4.19,13,11.8,17.69.36.22.73.43,1.1.64,1,0,2,0,3-.11C273.31,275,268,269.31,267,262.84Z"/><path class="cls-18" d="M332.24,278.28a28.59,28.59,0,0,0,8.14-7.2l-.92-1.28c-4.16,5.9-12.2,10.53-22.14,12.69.09.49.15,1,.2,1.47A47.14,47.14,0,0,0,332.24,278.28Z"/><path class="cls-18" d="M344.05,260.59a18,18,0,0,0-4.89-12h-2c3.44,3.5,5.43,7.6,5.43,12a14,14,0,0,1-.18,2.25,16,16,0,0,1-1.89,5.34l1.24.82A16.78,16.78,0,0,0,344.05,260.59Z"/><path class="cls-18" d="M272.78,248.05h0l-.13,0,.12,0Z"/><path class="cls-19" d="M335.47,242.79l-.35.11.36-.11Z"/><path class="cls-19" d="M333.09,243.44l.23-.06-.25.06h0Z"/><path class="cls-19" d="M265.3,260.59a16.63,16.63,0,0,1,1.47-6.76h0a.81.81,0,0,0-.39-.1,1.21,1.21,0,0,0-.49.12,7.64,7.64,0,0,1-2.75.78h-.07a16.94,16.94,0,0,0-1.33,6.5A18.42,18.42,0,0,0,266,272.55a32.79,32.79,0,0,0,7.83,5.87,19.29,19.29,0,0,0,4.18.5h.2c-.37-.21-.74-.42-1.1-.64C269.49,273.61,265.3,267.33,265.3,260.59Z"/><path class="cls-19" d="M339.16,248.6a18,18,0,0,1,4.89,12,16.78,16.78,0,0,1-2.31,8.41l.86.57,3.73-2.08a16.65,16.65,0,0,0,1.28-6.37,18.86,18.86,0,0,0-5.11-12.46c-.9,0-2.05,0-3.33-.06Z"/><path class="cls-19" d="M338.5,276.44,341,272l-.62-.88a28.59,28.59,0,0,1-8.14,7.2A47.14,47.14,0,0,1,317.52,284l0,.37C325.84,282.94,333.07,280.2,338.5,276.44Z"/><path class="cls-20" d="M260.28,261.82v-.1c0,.27,0,.54,0,.81,0,5.32,2.38,10.29,6.51,14.51a3.6,3.6,0,0,1,1-.43,2,2,0,0,1,.24,0C263.37,272.35,260.56,267.29,260.28,261.82Z"/><path class="cls-20" d="M317.43,287.56c-.08.57-.18,1.12-.31,1.67,12-2.19,21.88-7.45,27.35-14.34l-.91-.54C338,280.65,328.65,285.46,317.43,287.56Z"/><path class="cls-20" d="M345.48,271.88l.56.77a19,19,0,0,0,3-10.12c0-.27,0-.54,0-.81,0,0,0,.07,0,.1A19.42,19.42,0,0,1,345.48,271.88Z"/><path class="cls-21" d="M311.31,264.47a1,1,0,0,1,.08.23l.07.18a1.69,1.69,0,0,0-.15-1.23c-.38-.84-1.54-1.47-3.12-2v.82C309.77,263,310.93,263.63,311.31,264.47Z"/><path class="cls-21" d="M316.11,251.86a7.15,7.15,0,0,1,.83.48s0-.16,0-.42l-.78-.06Z"/><path class="cls-21" d="M291.84,253.54c0,4.28,5.59,6,10.79,7.36h0v-.81c-4.86-1.27-10-2.85-10.72-6.54h-.08Z"/><path class="cls-21" d="M308.3,270.76v.82c4.52-.35,8.34-1.54,9.85-3.85a5.73,5.73,0,0,0,1-3.6,3.54,3.54,0,0,1-.07.47,5.93,5.93,0,0,1-.9,2.31C316.65,269.22,312.83,270.42,308.3,270.76Z"/><path class="cls-21" d="M292.07,269.77h0a45.88,45.88,0,0,0,10.54,1.83h0v-.82A45.61,45.61,0,0,1,292.12,269h0C292.09,269.22,292.08,269.49,292.07,269.77Z"/><path class="cls-22" d="M258.89,260.54v17s1.32,6,4.65,9.3v-13S259.9,270.14,258.89,260.54Z"/><path class="cls-23" d="M309.5,271.71v.81q.4.15.78.33c.37.18.71.38,1.06.59l-.08-2Z"/><path class="cls-24" d="M341.59,243.45l-.93,0a33,33,0,0,1,2.86,2.65,21.69,21.69,0,0,0-1.36-2.65v0Z"/><path class="cls-25" d="M340.66,243.48q-1.07-.87-2.22-1.68h0l-.17.06-.72.26-.28.1a31.82,31.82,0,0,1,7.19,6.52,21.82,21.82,0,0,0-.93-2.59v0A33,33,0,0,0,340.66,243.48Z"/><path class="cls-26" d="M331,243.91h0l.56.3-.51-.31Z"/><path class="cls-26" d="M326.56,244.75h0l-.27,0-.48.06-1,.11-.45,0c-.35,0-.69.06-1,.07l-.27,0-1.14,0h-.07c-.5,0-1,0-1.46,0l-.34,0-1-.11-.19,0-.22,0c-.35-.05-.69-.11-1-.18l-.28-.06c-.41-.09-.8-.2-1.18-.31l-.24-.08c-.29-.1-.58-.2-.85-.31l-.3-.12-.82-.38-.13-.06c-.3-.16-.58-.33-.85-.49l-.21-.14-.59-.41-.19-.15c-.23-.18-.46-.36-.66-.55l0,0c-.2-.18-.38-.36-.55-.54l-.06-.06h0c-1.86-.17-3.77-.26-5.71-.27h0l-.94.5-.57.29-.34.17-.27.14-.69.36-.15.08-4.28,2.21-2.46,1.27c-.65.24-1.28.45-1.91.66l-.6.18-1.27.39-.31.09a1.39,1.39,0,0,1,.05,1.66,8.09,8.09,0,0,0-1.39,4.14V253a2.5,2.5,0,0,0-.05.29h0l2,.26,0-.11a2.18,2.18,0,0,1,0-.25v0a1.09,1.09,0,0,0,0-.18v0h0v0h0v0h0v0h0v0h0v0h0v0h0v0h0v0h0c.48-4.42,5-6.55,10.74-7.08V242.4h5.3l0,3.16a44.89,44.89,0,0,1,8.38,1.31c.18,1.67.37,2.34.47,3.34.13.77.21,1.34.24,1.72.64,0,1.28.06,1.9.07h0a20,20,0,0,0-.27-2.05v-.08c-.05-.48-.12-.9-.19-1.34s-.18-1.07-.27-1.91l0-.17a37.34,37.34,0,0,1,8.06,3.32,27.75,27.75,0,0,1,7.54-1.09h0A36.65,36.65,0,0,0,326.56,244.75Z"/><path class="cls-26" d="M308.79,238.23c-.12-.26-.22-.5-.31-.72v0h0l-.8,0h0l0,.07-.31.69,1.49.07Z"/><path class="cls-26" d="M284.67,248.43l-.84.1-.53.07-.93.08-.38,0-1.25.07h-.24l-.95,0h-.15q-1,0-1.86-.06h-.05c-.59,0-1.15-.09-1.68-.16h-.11a20.05,20.05,0,0,0-7.22,8.33h0a1.86,1.86,0,0,0,1.58.94h.14c1-.07,5.28-5.7,6.33-5.7h0c.67,0,1.34,0,2,0a29.07,29.07,0,0,1,6.26-3.78Z"/><path class="cls-27" d="M310.66,241l-.07-.09c-.18-.19-.35-.39-.5-.58l0,0c-.16-.22-.31-.42-.45-.63l-.09-.14c-.13-.2-.26-.4-.36-.59h0c-.11-.2-.2-.38-.29-.57l0-.06h0l-1.49-.07-.74,1.68-.07,0h0l-.09,0-.15.08-.27.14-.33.17-.17.09-.16.08-.37.19C306.89,240.73,308.8,240.82,310.66,241Z"/><path class="cls-27" d="M333.79,248.68c1.12-.05,2.26-.07,3.35-.08h0a29.31,29.31,0,0,0-5.58-4.38l-.56-.3h0l-.1,0-.48.1-.94.2-.58.11-.57.11-.64.11-1.12.18A36.65,36.65,0,0,1,333.79,248.68Z"/><path class="cls-27" d="M268.48,256.91a20.05,20.05,0,0,1,7.22-8.33h-.05q-.72-.09-1.38-.21l-.21,0c-.43-.08-.83-.16-1.21-.25l-.07,0h0a19.82,19.82,0,0,0-5,7.31v0c.06.13.11.27.17.41A6.54,6.54,0,0,0,268.48,256.91Z"/><path class="cls-27" d="M302.63,245.63h0c-5.72.53-10.26,2.66-10.74,7.08C292.37,248.29,296.91,246.17,302.63,245.63Z"/><path class="cls-27" d="M316.11,251.86h0a20,20,0,0,0-8.06-2v-.17h0v1.2h0C309.35,251.06,312.71,251.6,316.11,251.86Z"/><path class="cls-27" d="M299.81,252.1l0-.1a1.71,1.71,0,0,0,0,.39h0c.93-.26,1.91-.51,2.87-.74v-1.43C300.85,250.64,300,251.36,299.81,252.1Z"/><path class="cls-27" d="M291.83,253.42l0,.11h0Z"/><path class="cls-27" d="M316.35,246.87a44.89,44.89,0,0,0-8.38-1.31h0a44.89,44.89,0,0,1,8.38,1.31c.2,1.84.37,3.61.46,4.57l.05,0c0,.17,0,.32,0,.45h.16c0-.38-.11-1-.24-1.72C316.72,249.21,316.53,248.54,316.35,246.87Z"/><path class="cls-28" d="M289.81,252.86a8.09,8.09,0,0,1,1.39-4.14,1.39,1.39,0,0,0-.05-1.66h0l-.38.1-.91.24-.71.18-.88.2-.67.14-.86.17-.64.12-.84.13-.42.07h0a29.07,29.07,0,0,0-6.26,3.78h0c4.09.15,8.12.68,11.21,1.08a2.5,2.5,0,0,1,.05-.29Z"/><path class="cls-28" d="M318.18,246.45l0,.17c.09.84.18,1.41.27,1.91s.14.86.19,1.34V250A20,20,0,0,1,319,252h.45c2.65,0,4.89-.34,5.6-1.4a2.5,2.5,0,0,1,1.22-.82h0A37.34,37.34,0,0,0,318.18,246.45Z"/><path class="cls-29" d="M308.06,249.71v-.65a18.5,18.5,0,0,1,8.76,2.38c-.09-1-.26-2.73-.46-4.57a44.89,44.89,0,0,0-8.38-1.31h0l0-3.16h-5.3v3.23h0c-5.72.54-10.26,2.66-10.74,7.08h0v0h0v0h0v0h0v0h0v0h0v0h0v0h0v0h0v0a1.09,1.09,0,0,1,0,.18c0,.12,0,.24.06.35h0a23.09,23.09,0,0,0,2.45.19,3.08,3.08,0,0,0,.69-.06c1-.24,2.73-.76,4.69-1.29a1.71,1.71,0,0,1,0-.39c-.2-1,.51-2,2.86-2.6v.82h0v1.43a24.76,24.76,0,0,1,4.86-.77,4.39,4.39,0,0,1,.54,0v-1.2Z"/><path class="cls-25" d="M267.25,245.85l-.16-.07a42,42,0,0,0-4.12,5.74,26.33,26.33,0,0,1,4.48-5.58Z"/><path class="cls-30" d="M268.57,246.87a1.7,1.7,0,0,1,.06-.31l0,0c-.23-.11-.39-.21-.51-.28l0,0-.09-.06h0l0,0-.43-.19h0a26.33,26.33,0,0,0-4.48,5.58h0c-.91,1.68-1.24,3,.09,3.09A23.1,23.1,0,0,1,268.57,246.87Z"/><path class="cls-30" d="M337.27,242.22h0l-.07,0c-.49.17-1,.33-1.55.49l-.15,0a32,32,0,0,1,7,5.88c1.16,0,1.89.07,1.95.07h0A31.82,31.82,0,0,0,337.27,242.22Z"/><path class="cls-30" d="M308.47,237.48v0l-.13-.36v0c0-.1-.06-.18-.08-.26v-.06a.94.94,0,0,0,0-.09c0-.06,0-.12,0-.16v0l0-.08,0,0-.38.85-.07.17Z"/><path class="cls-30" d="M331.56,244.22a29.31,29.31,0,0,1,5.58,4.38h2a29.26,29.26,0,0,0-6.08-5.16h0l-.26.06c-.49.12-1,.24-1.53.35l-.24.06Z"/><path class="cls-30" d="M272.77,248.05l-.12,0-1-.27h0l-.29.33a1.6,1.6,0,0,1-1.2.54h0a21,21,0,0,0-3.39,5.2h0a3.11,3.11,0,0,1,1,1.53A19.82,19.82,0,0,1,272.77,248.05Z"/><path class="cls-31" d="M269.56,248.5a1.6,1.6,0,0,1-1-1.63,23.1,23.1,0,0,0-5.52,7.75h.08a7.64,7.64,0,0,0,2.75-.78,1.21,1.21,0,0,1,.49-.12.81.81,0,0,1,.39.1,21,21,0,0,1,3.39-5.2A1.52,1.52,0,0,1,269.56,248.5Z"/><path class="cls-31" d="M335.12,242.9l-.56.15-.65.18-.59.15-.23.06a29.26,29.26,0,0,1,6.08,5.16c1.28,0,2.43,0,3.33.06h0a32,32,0,0,0-7-5.88h0Z"/><path class="cls-24" d="M268.63,246.56a1.7,1.7,0,0,0-.06.31,1.6,1.6,0,0,0,1,1.63,1.52,1.52,0,0,0,.59.12h0a1.6,1.6,0,0,0,1.2-.54l.29-.33,0,0-.85-.27-.13,0-.73-.28-.12,0-.61-.26h0l-.49-.24,0,0Z"/><path class="cls-32" d="M302.63,250.22h0v-.82c-2.35.56-3.06,1.62-2.86,2.6l0,.1C300,251.36,300.85,250.64,302.63,250.22Z"/><path class="cls-32" d="M308.06,249.71v.17a20,20,0,0,1,8.06,2l.78.06c0-.13,0-.28,0-.45l-.05,0a18.5,18.5,0,0,0-8.76-2.38Z"/><path class="cls-32" d="M291.84,253.54h.07c0-.11,0-.23-.06-.35v0a2.18,2.18,0,0,0,0,.25v.11Z"/><path class="cls-33" d="M243.61,226.29a154.61,154.61,0,0,0-18.83,9.79,62.93,62.93,0,0,0,2.88,7.95l0,0c1.52,3,3.19,5.8,4.07,7.27l0,0c.3.39.58.71.81,1h0c1.12-.21,3.31-.64.41-4.7-3.09-4.32-5.15-9.88-2.47-13,2.06-2.38,12.22-7.22,18.17-7.22,1.76,0,3.15.43,3.85,1.46,3.09,4.53,4.33,18.32,3.71,18.52-.16.06-.12.12.06.12a2.51,2.51,0,0,0,1.28-.5h0l.07-.06.36-.27,0,0a6.79,6.79,0,0,0,1.6-2.25h0c.88-4.21-2.58-14.54-5.31-21.52h0a4.19,4.19,0,0,0-.68-.74h0C250.23,223.46,246.86,224.85,243.61,226.29Z"/><path class="cls-34" d="M257.69,247l-.07.06"/><path class="cls-34" d="M257.69,247l.36-.27"/><path class="cls-34" d="M257.61,247h0"/><path class="cls-33" d="M296.44,209.61c-2.73.51-5.6,1.13-8.61,1.88-8.29,2-16.65,4.48-24.74,7.24-.16,2.07-.25,4.36-.22,6.7v0c.05,1.54.13,3.08.22,4.39V230a34,34,0,0,0,1.45,7.54,13.67,13.67,0,0,0,2.39,4.49.08.08,0,0,0,0,0c1.47,1.65,3,2.51,4,2.51s1.18-.67.53-2.08c-2.22-4.82-2.44-17.29-.51-20.89,1.59-3,10.55-6.06,16.7-6.06,2.79,0,5,.63,5.68,2.2,2.18,5,5.33,22.58,4.69,22.67-.39.05.07,1,1,1,.62,0,1.45-.41,2.38-1.74,1.21-1.75-.05-9.91-1.67-17.41v0C298.62,217.3,297.34,212.69,296.44,209.61Z"/><path class="cls-33" d="M346.61,223.41c-.41-1-.81-1.79-1.15-2.44a21.32,21.32,0,0,0-8.92-8.39c-4.91-2.66-12.05-4.74-22.26-4.75a88.39,88.39,0,0,0-9.61.56,17.63,17.63,0,0,0,0,2.91v.09c.28,2.27.85,5.66,2,10.64,0,.21.09.4.13.6v0c.24,1,.49,2,.73,3,.67,2.7,1.35,5.48,2,8.38a12,12,0,0,0,.81,2.43l.12.2c.13.26.27.5.41.74s.13.27.21.39a10.83,10.83,0,0,0,1.22,1.52c.18.17.36.34.55.5a12.88,12.88,0,0,0,4.95,2.47,6.47,6.47,0,0,0,1.69.3c4.89,0-5.48-12.06-6.47-21-.94-8.46.1-12.13,6-12.13a20.83,20.83,0,0,1,3,.24c8.49,1.24,18.68,4,20.54,11.74s-2.47,14.66-2.17,16.67a.54.54,0,0,0,.56.51,1.63,1.63,0,0,0,.68-.21l0,0C345.74,235,346.72,228.87,346.61,223.41Z"/><path class="cls-33" d="M219.87,250.75c2,6.33-5.09,8.8-5.09,8.8H215c.79,0,3.39-.31,7.46-3.87a4.55,4.55,0,0,0,1.41-2.51.24.24,0,0,0,0-.08c.38-3.08-1.06-7.53-2.7-11.34l0-.06c-.47-1-.91-1.8-1.26-2.42h0c-1.16.81-2.27,1.63-3.33,2.45h0C217.24,243.24,218.48,246.36,219.87,250.75Z"/><path class="cls-33" d="M203,257.42a3.38,3.38,0,0,0,1.44,2.31h0a6.49,6.49,0,0,0,2.78.58l5.08.13h0l.76-.09h0c-.81-.64-4.51-3.77-4.78-7.76-.1-1.33-.16-2.26-.21-2.92v0A33.42,33.42,0,0,0,203,257.42Z"/><path class="cls-35" d="M305.68,199.8c.82,0,1.75-.05,2.81-.15,3.09-.29,5.85-.42,8.29-.42,11.53,0,16.08,2.73,16.08,2.73a12.83,12.83,0,0,0,4.54,1.2c3.48,0,.9-4.31-6.1-7.08-5.29-2.1-13.23-2.8-19.71-2.8a49.55,49.55,0,0,0-10.09.79c-2.2.57-2.45,2.09-1.92,3.28C299.89,198.06,300.6,199.8,305.68,199.8Z"/><path class="cls-35" d="M292.05,203h.17a3.68,3.68,0,0,0,.17-7.36h-.17a3.69,3.69,0,0,0-.17,7.37Z"/><path class="cls-36" d="M142.63,129.66l-2.26,1.75v.17c0,1.38.24,11.61,1.31,20.88a77.32,77.32,0,0,0,1.54,9.21,57,57,0,0,1,5-3.6v0l-5.52-28.21Z"/><path class="cls-9" d="M252.57,84.35l-1,.16-3.52.55s0,.07,0,.21c-.12,1.91-.9,16.39,3.35,27.52,3.57-.15,4.59-.75,4.84-1l.08-.09a143.79,143.79,0,0,1-3.89-18.62C252,89.51,251.88,86.26,252.57,84.35Z"/><path class="cls-9" d="M244.85,114.72l2.81-.7v0c-.89-17.37-9.3-26.14-9.3-26.14l-4.59.85h0l-.14,0c6.26,6.7,9.86,20.17,10.91,24.55.18.77.28,1.26.31,1.39Z"/><path class="cls-37" d="M338.29,57.92a56.82,56.82,0,0,1,10.36,21.73c.25,1,.38,1.95.57,2.92.1.49.21,1,.29,1.47l.16,1.49c.11,1,.26,2,.35,3s.09,2,.15,3l.1,1.52c0,.5,0,1,0,1.52v3.08c0,2.06-.26,4.12-.22,6.27a54,54,0,0,0,2.18-6l.67-3.13c.12-.53.22-1,.32-1.58s.11-1.07.15-1.6.09-1.17.13-1.76.08-1,.11-1.47c0-1.07-.07-2.15-.1-3.24l-.09-1.62c-.06-.54-.16-1.07-.23-1.61-.2-1.07-.33-2.15-.58-3.21a36.81,36.81,0,0,0-5.13-11.91c-.37-.56-.77-1.1-1.17-1.63A26.26,26.26,0,0,0,338.29,57.92Z"/><path class="cls-37" d="M170.7,152.53a54.76,54.76,0,0,1-7.43-9.76A55.72,55.72,0,0,1,158.2,132c-.34-.93-.56-1.9-.86-2.85-.14-.48-.3-1-.43-1.43l-.31-1.47c-.21-1-.45-1.95-.65-2.93s-.29-2-.45-3l-.25-1.5c0-.51-.07-1-.13-1.52l-.31-3.07c-.17-2-.15-4.12-.41-6.26a53.6,53.6,0,0,0-1.57,6.17l-.35,3.19c-.07.53-.11,1.06-.16,1.6s0,1.07,0,1.61c0,1.07,0,2.15.09,3.23s.28,2.14.43,3.21l.25,1.61c.12.53.26,1.05.39,1.58.3,1,.54,2.1.9,3.13a36.91,36.91,0,0,0,6.3,11.34A27.66,27.66,0,0,0,170.7,152.53Z"/><path d="M415,218.13C401,206,383.91,185.83,373.63,162.8c-5.24-11.71-12.19-27.77-19.15-43.16-.77-1.69-1.53-3.37-2.3-5a51.16,51.16,0,0,0-8-60.2,48.28,48.28,0,0,0-46.68-13.25,95.86,95.86,0,0,0-16.27-8,99.85,99.85,0,0,0-35.65-6.34c-13.83,0-29.37,2.56-46.73,8.69-13.06,4.6-23.5,10.42-31.79,17A76.09,76.09,0,0,0,142.59,86c-4.4,11.89-5.67,24-5.67,34.74,0,2.85.09,5.61.23,8.26l-.27.24-.59.59v.84c0,1.61.1,7.49.62,14.38.26,3.44.63,7.13,1.14,10.66.18,1.24.38,2.44.6,3.62,0,.09,0,.17,0,.25-.25,1.73-.38,3.72-.49,5.89-.16,3.24-.29,6.85-.64,10.3a35.18,35.18,0,0,1-1.92,9.13,32.77,32.77,0,0,1-3.81,6.71c-2.41,3.43-5.6,7.22-9.28,12.52a138.78,138.78,0,0,0-12.18,21.62,175.4,175.4,0,0,0-9.65,25.38,75.09,75.09,0,0,0-3.23,20.2A34.79,34.79,0,0,0,99.22,283a22.29,22.29,0,0,0,13.44,13.7,39.07,39.07,0,0,0,13.45,2.4h.5a23.14,23.14,0,0,0,11.06-2.85c5.81-3.16,10.41-8.48,14.16-14.55a88.94,88.94,0,0,0,6.46-13.05,125.06,125.06,0,0,0,0,26.38,279,279,0,0,0,4.84,31l3.13,15.26,1.57,7.65c.52,2.58,1.12,5.13,1.72,7.68,2.4,10.19,5.21,20.24,8.14,30.23s6,19.92,9,29.84,6,19.84,8.58,29.8c1.24,5,2.37,10,3.39,15s1.91,10.1,2.64,15.17l.52,3.82c.17,1.29.32,2.57.56,4A14.21,14.21,0,0,0,203,487a5.84,5.84,0,0,0,1,1.75l.2.22a3.88,3.88,0,0,0,.54.45,3.23,3.23,0,0,0,.42.25l.33.16.44.17.35.11a22.59,22.59,0,0,0,2.25.5c.7.12,1.37.22,2,.31,5.34.7,10.55,1,15.82,1.25s10.53.26,15.85,0a73.61,73.61,0,0,0,8.1-.82,27.57,27.57,0,0,0,4.28-1,12,12,0,0,0,2.4-1.12,5.15,5.15,0,0,0,.67-.47l.35-.29.36-.36a6.49,6.49,0,0,0,.68-.89l.31-.55a22.15,22.15,0,0,0,2.21-8.72c.21-2.76.24-5.38.31-8,.11-5.17.33-10.24.85-15.3,1.35-10.27,1.77-20.78,4.57-30.16a26.48,26.48,0,0,1,2.73-6.37,10.33,10.33,0,0,1,1.89-2.26,8.39,8.39,0,0,1,2.44-1.37,8.21,8.21,0,0,1,2.73-.56,4.21,4.21,0,0,1,2.17.53,5,5,0,0,1,1.71,1.68,12.27,12.27,0,0,1,1.28,2.75,29.35,29.35,0,0,1,1.16,6.89c.15,2.4.12,5,.1,7.56,0,5.15-.16,10.33-.29,15.51l-.89,31.25a8.53,8.53,0,0,0,2.36,5.49,14.79,14.79,0,0,0,3.84,3,28.55,28.55,0,0,0,8.23,2.9,66,66,0,0,0,16.29.87,48.39,48.39,0,0,0,16.18-3.43,31.3,31.3,0,0,0,7.42-4.35,25.62,25.62,0,0,0,3.21-3.05,22.73,22.73,0,0,0,1.4-1.8c.22-.32.43-.65.64-1l.31-.55c.11-.21.18-.33.34-.69h0l.22-.51,0-.62c.11-4.29.25-8.6.42-12.89s.33-8.63.68-12.75c.37-4.46.56-8.72.81-13l.74-12.92c.53-8.59,1-17.2,1.74-25.72q.27-3.21.62-6.36c.24-2.1.5-4.19.86-6.14l1.83-9.16,1.63.31c1.76.31,3.53.54,5.33.69a39,39,0,0,0,5.53.09,23.34,23.34,0,0,0,5.83-1,12.81,12.81,0,0,0,5.8-3.64,10.7,10.7,0,0,0,1.92-3.2,11.49,11.49,0,0,0,.52-1.74c.05-.27.11-.59.14-.84l.1-.7c.41-3.57.55-6.91.72-10.33.56-13.57.62-27.08.38-40.61s-.85-27.05-2.09-40.57c-.31-3.38-.74-6.75-1.19-10.12s-1.07-6.74-1.78-10.08c-.37-1.67-.75-3.34-1.17-5s-.93-3.31-1.45-5c-.67-2-1.41-4-2.27-5.93a82.56,82.56,0,0,0,12.26,10.73,61.18,61.18,0,0,0,11.82,6.68,30.77,30.77,0,0,0,11.6,2.61,18.42,18.42,0,0,0,2.69-.19,20,20,0,0,0,13.17-7.39,22,22,0,0,0,4.53-13.67A27.14,27.14,0,0,0,415,218.13ZM300.13,45.7a43.3,43.3,0,0,1,40.4,12.22,45.52,45.52,0,0,1,5.75,7.27c.4.53.8,1.07,1.17,1.63a36.81,36.81,0,0,1,5.13,11.91c.25,1.06.38,2.14.58,3.21.07.54.17,1.07.23,1.61l.09,1.62c0,1.09.12,2.17.1,3.24,0,.49-.07,1-.11,1.47v.05a45.68,45.68,0,0,1-12.94,32,43.3,43.3,0,0,1-46.34,10.48c-1.13-.36-2.25-.76-3.34-1.22A40.36,40.36,0,0,1,277,121.29a45.3,45.3,0,0,1-8.93-14.64,48.12,48.12,0,0,1,0-33.85A45.09,45.09,0,0,1,277,58.17a40.1,40.1,0,0,1,13.82-9.91A36.07,36.07,0,0,1,300.13,45.7ZM148.19,158.07a57,57,0,0,0-5,3.6,77.32,77.32,0,0,1-1.54-9.21c-1-8.52-1.31-17.57-1.35-20.85l0,0v-.17l2.26-1.75,0,.15c.73-.55,1.6-1.18,2.6-1.89l.51-.35-.08-.25,1.4-.92A46.19,46.19,0,0,0,159,150.77l.1.1q-5.48,3.4-10.93,7.15ZM151.53,119a41.35,41.35,0,0,1,11.7-29,39.28,39.28,0,0,1,28.19-12,40.36,40.36,0,0,1,4.82.31,31.59,31.59,0,0,1,11.67,2.23,35.92,35.92,0,0,1,12.58,8.58,40.67,40.67,0,0,1,8.28,12.93,43.52,43.52,0,0,1,.81,30.31A40.58,40.58,0,0,1,222,145.75a36.28,36.28,0,0,1-9,7.61,39.11,39.11,0,0,1-49.76-5.45A41.34,41.34,0,0,1,151.53,119Zm84.81,0A46.38,46.38,0,0,0,223.2,86.48,43,43,0,0,0,219.4,83a43.44,43.44,0,0,1,9.86,8.19c7.42,8.25,10.4,17.33,10.41,25.94a37.44,37.44,0,0,1-5.25,19.08,34,34,0,0,1-3.87,5.28A46.55,46.55,0,0,0,236.34,119Zm16-25.85a143.79,143.79,0,0,0,3.89,18.62l-.08.09c0,.08.07.17.11.26Q252,113,247.66,114v0l-2.81.7v0l-.21,0c0-.48-.06-1-.1-1.44-1.05-4.38-4.65-17.85-10.91-24.55l.14,0h0q6.89-1.81,14.22-3.44c0-.14,0-.21,0-.21l3.52-.55,1.2-.25a58.22,58.22,0,0,0-.41,6.92C252.32,91.83,252.35,92.47,252.37,93.11Zm-8.52,32.45a41.34,41.34,0,0,0,.76-5.7c0-.32,0-.65,0-1q6.82-1.73,13.39-3c0,.08.08.16.13.24a33.16,33.16,0,0,0,3.08,4.82c.38.49.77.95,1.17,1.4a19.79,19.79,0,0,0,4.71,4c.87.5,1.68,1,2.48,1.52a106.11,106.11,0,0,0-28.76,7A42.27,42.27,0,0,0,243.85,125.56Zm13.51-34.38a53.65,53.65,0,0,1,2.73-16.92,32.15,32.15,0,0,1,8.34-12.87c.42-.41.86-.79,1.3-1.17a51.12,51.12,0,0,0,3.82,64.12c-1.2-.79-2.48-1.6-3.88-2.41a16.22,16.22,0,0,1-4.44-4.12,35.71,35.71,0,0,1-5.59-11.27A52.13,52.13,0,0,1,257.36,91.18ZM152.48,76.77a72,72,0,0,1,17.68-20.32c7.81-6.22,17.73-11.77,30.33-16.22,16.89-6,31.84-8.4,45-8.4a95.08,95.08,0,0,1,32.31,5.46c.52.19,1,.36,1.56.56A88.64,88.64,0,0,1,291,43.19a77.78,77.78,0,0,0-8.54,3.19c-1.4.62-2.87,1.32-4.37,2.11a56.45,56.45,0,0,0-13.12,9.28,37.1,37.1,0,0,0-9.61,14.9A57.29,57.29,0,0,0,253.39,80c-8,1.6-15.57,3.41-22.76,5.36a46.29,46.29,0,0,0-16-10.28A49.62,49.62,0,0,0,197.07,72,55.66,55.66,0,0,0,186,73.12c-1.16.24-2.11.48-2.84.67a44.54,44.54,0,0,0-23.51,12.69,46.26,46.26,0,0,0-8.26,11.65,46.66,46.66,0,0,0-4.83,18.94c0,.63,0,1.25,0,1.89,0,1.06,0,2.11.12,3.15-1.77,1.18-3.29,2.24-4.58,3.16,0-1.48-.07-3-.07-4.51C142,106.89,144.15,91.17,152.48,76.77Zm3.21,184.57c-.63,1.78-1.3,3.58-2,5.37-2.88,7.13-6.61,14.14-11.16,19.21a27.22,27.22,0,0,1-7.37,6,18,18,0,0,1-8.53,2.18h-.39c-.83,0-1.61-.07-2.39-.12a33.38,33.38,0,0,1-8.25-1.54,17.74,17.74,0,0,1-9.78-7.31c-2.16-3.4-3.35-7.93-3.35-13.76a70.4,70.4,0,0,1,3-18.83,172,172,0,0,1,9.38-24.65A130.89,130.89,0,0,1,130,202.34c2.16-2.88,4.13-5.34,5.86-7.8a38,38,0,0,0,4.36-7.74,34.57,34.57,0,0,0,2-7.88c.59-4.16.75-8.51.93-12.26v-.11l.08-.06c1.9-1.39,3.81-2.75,5.71-4.07q6.59-4.59,13.18-8.66a44.25,44.25,0,0,0,28.17,11.12c.39,0,.77,0,1.16,0a43.84,43.84,0,0,0,7.38-.63,151.76,151.76,0,0,0-20.21,27.92,161.11,161.11,0,0,0-11.67,25.51,97.61,97.61,0,0,0-5,19.22h0v0A156,156,0,0,1,155.69,261.34Zm213.74,5.05c.35,3.31.6,6.64.89,10,1.09,13.32,1.53,26.73,1.65,40.13s-.09,26.84-.79,40.18c-.18,3.31-.39,6.7-.75,9.81l-.08.55-.07.41a3.58,3.58,0,0,1-.2.68,3.42,3.42,0,0,1-.65,1.11,6,6,0,0,1-2.7,1.6,23.51,23.51,0,0,1-8.65.62c-.86-.07-1.71-.17-2.57-.28l-4.54,1q1-12.79,1.86-25.57.42-6.75.74-13.52c.18-4.51.36-9,.24-13.59h-2c-.21,4.43-.72,8.9-1.24,13.35s-1.12,8.91-1.73,13.36Q347,359.07,345,372l-.22,0-4.38,26.29a1.49,1.49,0,0,1,0,.21c-.73,8.67-1.23,17.31-1.63,25.95l-.59,12.95c0,.57,0,1.15-.08,1.73-.16,3.73-.31,7.49-.57,11.08-.21,3-.33,5.92-.41,8.83,0,1.43-.08,2.86-.11,4.29q-.12,6.14-.16,12.27l0,.08c-.13.21-.27.42-.42.64a14.52,14.52,0,0,1-1,1.26,17.63,17.63,0,0,1-1.8,1.76c-.21.18-.41.37-.63.54a24.85,24.85,0,0,1-6,3.48,42.17,42.17,0,0,1-14.15,2.94,59.89,59.89,0,0,1-14.73-.79,22.44,22.44,0,0,1-6.42-2.24,8.73,8.73,0,0,1-2.27-1.75,2.68,2.68,0,0,1-.79-1.44l.95-31c.14-5.2.27-10.4.31-15.63s.2-10.74-1.58-16.44a18.2,18.2,0,0,0-2-4.28A11.49,11.49,0,0,0,282.4,409a10.56,10.56,0,0,0-5.3-1.32,14.3,14.3,0,0,0-4.87.95,15.06,15.06,0,0,0-2.19,1,11.38,11.38,0,0,0-1.07.65c-.36.25-.71.52-1,.79a15.93,15.93,0,0,0-3.1,3.67,32.47,32.47,0,0,0-3.43,7.89,95.79,95.79,0,0,0-3.05,15.81L256.63,454c-.55,5.27-.78,10.58-.88,15.79-.06,2.6-.1,5.17-.29,7.6a16,16,0,0,1-1.48,6.29l-.1.19-.12.08a5.7,5.7,0,0,1-1.13.5,21.33,21.33,0,0,1-3.28.79A70,70,0,0,1,242,486c-5.05.26-10.18.21-15.29,0-3.41-.14-6.84-.34-10.22-.65-1.69-.15-3.36-.32-5-.54-.61-.08-1.22-.17-1.81-.27l-1-.2c-.06-.25-.12-.56-.18-.88-.38-2.34-.68-5.05-1.06-7.62-.75-5.21-1.67-10.38-2.71-15.51s-2.19-10.23-3.47-15.34c-.46-1.76-.93-3.5-1.41-5.25-2.27-8.35-4.76-16.59-7.26-24.82-3-9.94-6.12-19.84-9-29.78s-5.71-19.89-8.08-29.91c-.59-2.5-1.18-5-1.69-7.52s-1.05-5-1.55-7.61l-3.09-15.26c-2-10.16-4-20.27-5.64-30.43-.83-5.08-1.55-10.17-2.28-15.28-.63-4.36-1.16-8.73-1.8-13.15,1.72-4.55,3.11-9,4.2-13a151.54,151.54,0,0,0,3.39-15.24v-.07c.72-5.84,3.22-15.27,7.73-26a156.18,156.18,0,0,1,21.21-36.15,130.73,130.73,0,0,1,12.88-14.1,44.4,44.4,0,0,0,10.64-6.47c1.33-.59,2.77-1.25,4.37-2a34,34,0,0,0,12.71-10.71c.58-.28,1.15-.57,1.73-.83a101.69,101.69,0,0,1,37.51-9l.82,0c.76.48,1.53.94,2.33,1.38a28.86,28.86,0,0,0,6.56,2.66,31.59,31.59,0,0,0,7.69,1,48.12,48.12,0,0,0,16.24,2.82,49,49,0,0,0,6.78-.49,56.32,56.32,0,0,1,5.24,3,59.13,59.13,0,0,1,17.35,17.47c6.54,10,10.2,21.29,12.36,31.36,1.08,5,1.79,9.75,2.32,13.83v0a24.78,24.78,0,0,0-2.58-3.69c-.12-.15-.26-.29-.39-.44a36,36,0,0,0-5.81-5.32,47.2,47.2,0,0,0-9.13-5.2,64.38,64.38,0,0,0-25.74-5,100,100,0,0,0-28.56,4.49c-21.9,6.52-43.37,16-60.1,27.51a100,100,0,0,0-21,18.74c-5.45,6.7-9.17,13.88-10.48,21.41a44.18,44.18,0,0,0-.68,7.67,41.7,41.7,0,0,0,.53,6.61,39.55,39.55,0,0,0,2.92,9.87c3.5,7.83,9.77,14.76,18.94,19.66s20.89,7.73,35.77,7.81c-.81.94-1.65,1.85-2.5,2.74q-1.53,1.57-3.16,3a35.64,35.64,0,0,1-8.08,5.53l-1.59.76c-.53.25-1.09.41-1.64.62s-1.09.43-1.66.59l-1.71.43a26.87,26.87,0,0,1-3.47.65c-1.16.22-2.39.23-3.59.35a60.94,60.94,0,0,1-13.08-.58c-.46-.07-.92-.12-1.37-.2a56.74,56.74,0,0,1-7.07-1.67,42.13,42.13,0,0,1-6.69-2.64l-1,1.75c.19.11.37.19.56.29a45.77,45.77,0,0,0,6.43,2.76,59.67,59.67,0,0,0,7.3,2,63.48,63.48,0,0,0,15.07,1.32c1.27-.08,2.52-.05,3.81-.24a31.06,31.06,0,0,0,3.83-.58l1.9-.42c.63-.16,1.24-.39,1.86-.58s1.25-.38,1.84-.63l1.79-.78a38.14,38.14,0,0,0,7.75-4.7c.5-.44,1-.88,1.47-1.36a237.2,237.2,0,0,0,23.34-26.76,22.06,22.06,0,0,0,2.57-6.89c.07-.42.12-.83.18-1.24a22.38,22.38,0,0,0,7.58,1.59,38.5,38.5,0,0,0,4,0,39.23,39.23,0,0,0,4-.41h0l.52-.09.54-.32a52.27,52.27,0,0,1,10.69-5,25.27,25.27,0,0,1,5.47-1.2l1.3-.05c.43,0,.82.06,1.23.07a7,7,0,0,1,2,.58,6.61,6.61,0,0,1,3,3,8.91,8.91,0,0,1,.91,3.61c.52,3.08,0,7.12-4.75,9.91l-1.86,1.91,1.64,2.06c.11.15.35.48.52.75s.36.6.55.9a20.7,20.7,0,0,1,.93,1.89,18.85,18.85,0,0,1,.91,2.88,1.75,1.75,0,0,1,.16.93,1.13,1.13,0,0,1,0,.18,12.14,12.14,0,0,1-1.46,7.75l-.49.91-.64.84a10.62,10.62,0,0,1-1.38,1.64c-.53.52-1,1-1.58,1.57l-1.83,1.65L295,327.29l-14.64,13.18-3.65,3.3c-.59.53-1.27,1.14-1.86,1.7L273,347.14c-2.37,2.2-4.82,4.27-7.38,6.21a74.3,74.3,0,0,1-16.57,9.6,60.92,60.92,0,0,1-9.11,3,57,57,0,0,1-9.46,1.48,60.34,60.34,0,0,1-9.6-.07c-1.6-.2-3.2-.31-4.78-.63l-2.38-.42-2.35-.56a78,78,0,0,1-18-7l-.48.88-.49.89a80.25,80.25,0,0,0,18.39,7.67l2.43.64,2.46.5c1.63.37,3.3.54,5,.79.92.09,1.84.17,2.77.23a52.28,52.28,0,0,0,7.3.09,58.25,58.25,0,0,0,10-1.3,62.89,62.89,0,0,0,9.68-2.87A78.45,78.45,0,0,0,268,356.6c2.72-2,5.34-4.07,7.84-6.28l1.86-1.64c.62-.56,1.17-1,1.81-1.58l3.75-3.2,15-12.81,7.49-6.4,1.87-1.6c.62-.53,1.31-1.23,2-1.85a15.9,15.9,0,0,0,1.84-2.07c.29-.37.58-.73.86-1.11l.73-1.23a18.23,18.23,0,0,0,2.51-8.91,15.49,15.49,0,0,0-.11-2.27,17.92,17.92,0,0,0-.6-3.12c-.22-.81-.48-1.61-.77-2.4s-.74-1.72-1.17-2.55a2.53,2.53,0,0,1-.13-.22,19.66,19.66,0,0,0,2.79-3.87,18.19,18.19,0,0,0,1.59-4.26c.13-.55.23-1.1.31-1.67v0c.05-.44.1-.88.12-1.33a14.6,14.6,0,0,0,0-1.87l0-.37c0-.49-.11-1-.2-1.47a14.36,14.36,0,0,0-.72-2.54,12.42,12.42,0,0,0-.59-1.36c-.14-.29-.3-.57-.47-.85a12.93,12.93,0,0,0-4.2-4.3c-.35-.21-.69-.41-1.06-.59s-.51-.23-.78-.33a10.48,10.48,0,0,0-1.23-.42,12.7,12.7,0,0,0-2-.39c-.63,0-1.29-.13-1.91-.12s-1.18,0-1.76.07h-.08a32.15,32.15,0,0,0-6.81,1.47c-1.23.4-2.43.86-3.62,1.35-.65.27-1.3.56-1.94.85l-.64.28c-1.45.69-2.82,1.39-4.22,2.18l-1.1.65c-.89.15-1.89.28-2.82.36h-.21c-1,.09-2,.12-3,.11H278a19.29,19.29,0,0,1-4.18-.5,12.11,12.11,0,0,1-1.93-.62l-1.69-.89a4,4,0,0,0-1.25-.36,2.23,2.23,0,0,0-.55,0,2.87,2.87,0,0,0-.41.05h0a2,2,0,0,0-.24,0,3.6,3.6,0,0,0-1,.43,3.08,3.08,0,0,0-.39.3,3.11,3.11,0,0,0-.72.93,4.32,4.32,0,0,0-.28.66l-.12.47-.07.36c-.13.88-.14,1.43-.2,2s-.11,1.12-.19,1.66a16.29,16.29,0,0,1-1.17,4.06,18.19,18.19,0,0,1-1,2c-.28.46-.57.92-.89,1.38s-.64.87-1.05,1.38l-.83,1.08c-4,.32-7.86.47-11.5.47-2,0-3.91,0-5.77-.13-1.4-3.83-3.59-12-1.28-16.29a5.34,5.34,0,0,1,3.95-2.73c5.09-1,9.49-1.78,13.21-2.23,0-.68,0-1.37,0-2,0-1.76.05-3.34.05-4,0-3.19-.09-7.1.93-10a28.29,28.29,0,0,1,7-10.84l.63.28.16.07.21.09.43.19,0,0h0l.09.06,0,0c.12.07.28.17.51.28l0,0,0,0,.49.24h0l.61.26.12,0,.73.28.13,0,.85.27.06,0,1,.27.13,0,.07,0c.38.09.78.17,1.21.25l.21,0q.66.12,1.38.21h.16c.53.07,1.09.12,1.68.16h.05q.88.06,1.86.06h.15l.95,0h.24l1.25-.07.38,0,.93-.08.53-.07.84-.1.18,0,.41-.06.84-.13.64-.12.86-.17.67-.14.88-.2.71-.18.91-.24.37-.1.32-.09,1.27-.39.6-.18c.63-.21,1.26-.42,1.91-.66l2.46-1.27,4.28-2.21.13-.07.71-.37.27-.14.34-.17.57-.29.94-.5h0l.37-.19.16-.08.17-.09.33-.17.27-.14.15-.08.09,0h0l.07,0,.74-1.68.31-.69,0-.07.08-.18.38-.85,0,0,0,.08v0s0,.1,0,.16a.94.94,0,0,1,0,.09v.06c0,.08.05.16.08.26v0l.13.36v.07c.09.22.19.46.31.72l0,.05,0,.05c.09.19.18.37.29.57h0c.1.19.23.39.36.59l.09.14c.14.21.29.41.45.63l0,0c.15.19.32.39.5.58l.08.1.06.06c.17.18.35.36.55.54l0,0c.2.19.43.37.66.55l.19.15.59.41.21.14c.27.16.55.33.85.49l.13.06.82.38.3.12c.27.11.56.21.85.31l.24.08c.38.11.77.22,1.18.31l.28.06c.34.07.68.13,1,.18l.14,0,.27,0,1,.11.34,0c.47,0,1,0,1.46,0s.8,0,1.21,0l.27,0c.34,0,.68,0,1-.07l.45,0,1-.11.48-.06.26,0,1.14-.18.66-.12.55-.1.58-.11.94-.2.48-.1.1,0H331l.25-.06c.53-.11,1-.23,1.53-.35l.25-.06.25-.06.59-.15.65-.18.56-.15.35-.11.17,0c.54-.16,1.06-.32,1.55-.49l.07,0,.29-.1.72-.26.16-.06h0q1.15.81,2.22,1.68l.93,0h.56v0c3.54.16,5.62,1.71,6.62,5-.29,1.1-.63,2.21-1,3.33a26,26,0,0,1,2.12,4.58c.05.13.08.28.12.41.25-.5.49-1,.7-1.49a39.41,39.41,0,0,0,3.26-15.83,45.08,45.08,0,0,0-1.75-12.29,41.92,41.92,0,0,0-3.17-8.06,25.3,25.3,0,0,0-10.56-10c-5.58-3-13.43-5.24-24.18-5.24a114.89,114.89,0,0,0-27.43,3.77c-20.52,5.1-41.49,12.43-58,21.5-8.28,4.53-15.45,9.5-20.92,14.91s-9.26,11.28-10.53,17.65a28.68,28.68,0,0,0-.56,5.54,23.81,23.81,0,0,0,3.49,12.55c3.47,5.68,9.4,10.21,17.46,13.31s18.3,4.81,30.63,4.81c2.65,0,5.41-.09,8.25-.25L254,301.13q-1.71,2.22-3.45,4.4c-.93,0-1.85,0-2.75,0-19.56,0-33.25-5-42-12.41a35.55,35.55,0,0,1-9.64-12.69,36,36,0,0,1-3.1-14.83,40.23,40.23,0,0,1,.61-7c1.16-6.67,4.5-13.24,9.64-19.56,7.69-9.48,19.37-18.34,33.18-26a234,234,0,0,1,45.93-18.94,96,96,0,0,1,27.41-4.32c13,0,23,3.33,29.89,7.62a33.5,33.5,0,0,1,8.09,6.84,16.48,16.48,0,0,1,3.5,6.31,15.08,15.08,0,0,0,.84,2.32c.63,1.48,1.52,3.3,2.51,5.45,3,6.44,6.75,15.78,6.74,25.92a36.87,36.87,0,0,1-3.46,15.84,41.84,41.84,0,0,1-7,10.42c0,2.12,0,4.47-.1,5.84a48.5,48.5,0,0,0,10.79-14.55,40.64,40.64,0,0,0,2.93-8.76,42.48,42.48,0,0,0,.91-8.79,51.27,51.27,0,0,0-.88-9.16c.38.48.78,1,1.18,1.43l-.84.37a131.82,131.82,0,0,1,3.53,19.51C368.76,259.76,369.12,263.07,369.43,266.39Zm-98.89,14.24v0h0Zm-53.93-38.91c1.06-.82,2.17-1.64,3.33-2.45h0l.11-.08c.38.78.77,1.62,1.15,2.5l0,.06c1.64,3.81,3.08,8.26,2.7,11.34a.24.24,0,0,1,0,.08,5.36,5.36,0,0,1-.24,1.1c-1.17,3.47-5.71,5.41-10.59,6.08h0l-.76.09h0a29.19,29.19,0,0,1-3.08.17,22,22,0,0,1-2.67-.15,4.67,4.67,0,0,1-2.11-.73h0a3.38,3.38,0,0,1-1.44-2.31,33.42,33.42,0,0,1,5.13-7.77v0c.82-1,1.68-1.9,2.63-2.83a64.42,64.42,0,0,1,5.89-5.12Zm95.64-2.43L312,239c-.21-.23-.4-.47-.59-.72s-.23-.3-.34-.46-.14-.27-.21-.39-.28-.48-.41-.74l-.12-.2a12,12,0,0,1-.81-2.43c-.63-2.9-1.31-5.68-2-8.38-.24-1-.49-2-.73-3v0a76.17,76.17,0,0,1-2.09-11.24v-.09a17.63,17.63,0,0,1,0-2.91,88.39,88.39,0,0,1,9.61-.56c10.21,0,17.35,2.09,22.26,4.75a21.32,21.32,0,0,1,8.92,8.39c.34.65.74,1.47,1.15,2.44.11,5.46-.87,11.57-5,15l0,0a10.77,10.77,0,0,1-1.28.89,31.78,31.78,0,0,1-15.65,4.23c-2.76,0-8.17-.47-11.8-3.72C312.61,239.63,312.43,239.46,312.25,239.29Zm-24.93,5.53a46.39,46.39,0,0,1-9.71,1.23c-4.89,0-8.33-1.27-10.63-4a.08.08,0,0,1,0,0,13.67,13.67,0,0,1-2.39-4.49A34,34,0,0,1,263.1,230v-.09c-.13-1.46-.2-2.93-.22-4.39v0c0-2.34.06-4.63.22-6.7,8.09-2.76,16.45-5.19,24.74-7.24,3-.75,5.88-1.37,8.61-1.88.9,3.08,2.18,7.69,3.32,12.55v0c.82,3.53,1.57,7.18,2,10.47,1.26,8.8-.71,9.22-11.66,11.55Zm-33-21.94h0c2.73,7,6.19,17.31,5.31,21.52h0a.06.06,0,0,0,0,0,4.24,4.24,0,0,1-1.59,2.21l0,0-.36.27-.07.06h0c-4.82,3.52-16.69,6.19-22.83,6.19a7,7,0,0,1-1.09-.06,2.93,2.93,0,0,1-1.09-.84h0c-.23-.25-.51-.57-.81-1l0,0c-.4-.53-.85-1.17-1.36-2a46.48,46.48,0,0,1-2.71-5.27l0,0a62.93,62.93,0,0,1-2.88-7.95,154.61,154.61,0,0,1,18.83-9.79c3.25-1.44,6.62-2.83,10.06-4.15h0L254,222Zm-41.24,62.85c1.58-.6,3.37-1.32,5.25-2.08,4.94-2,11.08-4.47,13.43-4.47h.08c.7.73,2.3,3.82,4.07,9.7.48,1.6.86,3.06,1.18,4.38-10.46-1.06-18.69-3.63-24.59-7.23A2.63,2.63,0,0,1,213.12,285.73Zm203-36.66c-.12.15-.25.28-.37.42a14.92,14.92,0,0,1-9.55,5.09,14,14,0,0,1-2,.14c-3.78,0-8.44-1.4-13.25-3.9a74.22,74.22,0,0,1-20.61-16.53,59.62,59.62,0,0,1-7.28-10.17c-.66-1.2-1.24-2.39-1.73-3.54a23.45,23.45,0,0,1-1.7-5.84c-.29-2.1-.59-5.09-1-8.64-1.55-12.46-4.72-32-15.63-48.67a64.36,64.36,0,0,0-18.64-18.8c-.67-.06-1.34-.12-2-.2a48.79,48.79,0,0,0,21.83-13,50.26,50.26,0,0,0,5.81-7.18c0,1.1,0,2.31,0,3.58l1.23,2.73c6.5,14.44,12.92,29.25,17.85,40.27,10.7,23.91,28.18,44.48,42.64,57.07a22.09,22.09,0,0,1,7.87,16.58A17,17,0,0,1,416.09,249.07Z"/><path d="M190.8,145.72c14.76,0,26.73-12.26,26.73-27.38S205.56,91,190.8,91s-26.73,12.26-26.73,27.38S176,145.72,190.8,145.72Zm-17.63-40a4.94,4.94,0,1,1,4.17,5.61A4.94,4.94,0,0,1,173.17,105.73ZM168,122.16c0-.62,0-1.25.08-1.9a3.53,3.53,0,1,1,7,.56c0,.46-.05.91-.05,1.34a12.29,12.29,0,0,0,.76,4.46,9.87,9.87,0,0,0,1.8,3,12.5,12.5,0,0,0,4.6,3.25,10,10,0,0,0,1.5.52h0a3.53,3.53,0,0,1-1.53,6.89,17.26,17.26,0,0,1-2.84-1,20.12,20.12,0,0,1-5.55-3.53,17.42,17.42,0,0,1-3.58-4.51A18.87,18.87,0,0,1,168,122.16Z"/><path d="M280.75,89.31c0,16.54,13.09,29.94,29.23,29.94s29.23-13.4,29.23-29.94S326.13,59.37,310,59.37,280.75,72.78,280.75,89.31Zm41.17,16.47a4.94,4.94,0,1,1,4.94-4.94A4.94,4.94,0,0,1,321.92,105.78Zm-7.57-38.14a16.69,16.69,0,0,1,3.16.6,19.71,19.71,0,0,1,6.35,3,17.19,17.19,0,0,1,4.27,4.45,19.82,19.82,0,0,1,3.08,9.71,3.53,3.53,0,0,1-7,.46,13.78,13.78,0,0,0-1.19-5,10,10,0,0,0-2.2-3.06A12.31,12.31,0,0,0,315.53,75a10.13,10.13,0,0,0-1.7-.33h0a3.52,3.52,0,0,1,.52-7Z"/><path d="M228.16,195.18c4.05-.6,6.45-7,5.37-14.22s-5.23-12.65-9.28-12-6.46,7-5.38,14.22S224.11,195.78,228.16,195.18Zm.21-9.12a2.47,2.47,0,1,1-2.47,2.47A2.48,2.48,0,0,1,228.37,186.06Z"/><path d="M325.45,167.61c-1.37-13-6.17-8.91-13-5.49S287,182.7,290.47,185.44C296.64,177.21,325.45,167.61,325.45,167.61Z"/><path d="M178.65,264.49s2.48-7.44,5.24-15.41c1.6-4.6,3.29-9.38,4.64-13l-.12.11C187.06,237.36,174.56,248.71,178.65,264.49Z"/><path class="cls-3" d="M230.53,337.77c36.23-1.23,39.52-50.22,39.52-50.22s-.86,1.32-2.6,3.7A237.2,237.2,0,0,1,244.11,318c-.47.48-1,.92-1.47,1.36-17.28,15-48.54,6.53-51.4,5.71L191,325a5.2,5.2,0,0,0,.27.72C192.52,328.56,199.25,338.84,230.53,337.77Z"/><path class="cls-3" d="M310,280.55c-.82,9.88-20.59,19.87-20.59,19.87s1.66.3,14.42-4.23a17.8,17.8,0,0,0,3-1.35c4.77-2.79,5.27-6.83,4.75-9.91A14.17,14.17,0,0,0,310,280.55Z"/><path class="cls-3" d="M308.75,304.42c-.41,2.47.57-8-10.13,11.37,8.9-5,10.9-8,11-9.63a1.75,1.75,0,0,0-.16-.93A1.83,1.83,0,0,0,308.75,304.42Z"/><path class="cls-38" d="M299.69,480c-.13-4.8,1.85-14.31,1.85-19.76,0-21.61-6.17-64.84-20.37-69.16s-26.56,17.29-33.35,84.6c-.71,7-7.26,1.65-15.44,3.09a41.56,41.56,0,0,0-15.93,6.56c3.38.31,6.81.51,10.22.65,5.11.19,10.24.24,15.29,0a70,70,0,0,0,7.39-.74,21.33,21.33,0,0,0,3.28-.79,5.7,5.7,0,0,0,1.13-.5l.12-.08.1-.19a16,16,0,0,0,1.48-6.29c.19-2.43.23-5,.29-7.6.1-5.21.33-10.52.88-15.79l1.73-15.54a95.79,95.79,0,0,1,3.05-15.81,32.47,32.47,0,0,1,3.43-7.89,15.93,15.93,0,0,1,3.1-3.67c.32-.27.67-.54,1-.79a11.38,11.38,0,0,1,1.07-.65,15.06,15.06,0,0,1,2.19-1,14.3,14.3,0,0,1,4.87-.95,10.56,10.56,0,0,1,5.3,1.32,11.49,11.49,0,0,1,3.85,3.66,18.2,18.2,0,0,1,2,4.28c1.78,5.7,1.6,11.3,1.58,16.44s-.17,10.43-.31,15.63l-.95,31a2.68,2.68,0,0,0,.79,1.44,8.73,8.73,0,0,0,2.27,1.75,22.44,22.44,0,0,0,6.42,2.24,59.89,59.89,0,0,0,14.73.79,42.17,42.17,0,0,0,14.15-2.94,24.85,24.85,0,0,0,6-3.48c.22-.17.42-.36.63-.54-4.87,1.48-12.36,3.83-18.43,4.44C305.55,484.68,299.72,481.07,299.69,480Z"/><path class="cls-38" d="M281.21,190.31a100,100,0,0,1,28.56-4.49,64.38,64.38,0,0,1,25.74,5,47.2,47.2,0,0,1,9.13,5.2l-5.12-8.36c-6.79-11.12-25.32-3.4-25.32-3.4s4.94-6.48,17.29-10.5c11.21-3.64,3.35-11.86-4.89-19.35l-2.52-2.26a4.15,4.15,0,0,0-3.12-1c-11.82.53-39.87,35.23-52.45,37.75a41.93,41.93,0,0,1-9.72.58c-8.68-.2-17.41-.41-39.38,17.64-15.6,12.81-21.4,17.84-31,29.13l.12-.11c-1.35,3.62-3,8.4-4.64,13a24.38,24.38,0,0,0,5.57-1.57s-1.67,34.93,0,24.74a41.7,41.7,0,0,1-.53-6.61,44.18,44.18,0,0,1,.68-7.67c1.31-7.53,5-14.71,10.48-21.41a100,100,0,0,1,21-18.74C237.84,206.31,259.31,196.83,281.21,190.31Zm31.21-28.19c6.86-3.42,11.66-7.54,13,5.49,0,0-28.81,9.6-35,17.83C287,182.7,305.56,165.55,312.42,162.12Z"/><path class="cls-38" d="M297.26,370.29a66.29,66.29,0,0,0,9.39-5.21A74.1,74.1,0,0,0,324,348.85c17.12-21.93,21-49.42,22-53.79-7.88,3.33-18.33,8.35-30.49,12.86a18.23,18.23,0,0,1-2.51,8.91l-.73,1.23c-.28.38-.57.74-.86,1.11a15.9,15.9,0,0,1-1.84,2.07c-.65.62-1.34,1.32-2,1.85l-1.87,1.6-7.49,6.4-15,12.81-3.75,3.2c-.64.55-1.19,1-1.81,1.58l-1.86,1.64c-2.5,2.21-5.12,4.32-7.84,6.28a78.45,78.45,0,0,1-17.67,9.63,62.89,62.89,0,0,1-9.68,2.87,58.25,58.25,0,0,1-10,1.3,52.28,52.28,0,0,1-7.3-.09c12.7,3.61,27.89,6.7,42.35,6.57,1,0,2-.06,3-.1a8,8,0,1,1,15.47-3c0,.3,0,.61-.05.91A70.54,70.54,0,0,0,297.26,370.29Z"/><path class="cls-38" d="M219.72,324.28c1.2-.12,2.43-.13,3.59-.35a26.87,26.87,0,0,0,3.47-.65l1.71-.43c.57-.16,1.11-.4,1.66-.59s1.11-.37,1.64-.62l1.59-.76a35.64,35.64,0,0,0,8.08-5.53,91.49,91.49,0,0,1-15.05-5.16c-7.63-3.38-14.39,3.72-19.77,13.51A60.94,60.94,0,0,0,219.72,324.28Z"/><path class="cls-38" d="M356.09,313.89c-5.35-4.94-8.64-10.29-9.47,5.77s-8.64,93-8.64,93l2.41-14.47,4.38-26.29.22,0q2-12.87,3.83-25.8c.61-4.45,1.2-8.91,1.73-13.36s1-8.92,1.24-13.35h2c.12,4.57-.06,9.08-.24,13.59s-.46,9-.74,13.52Q352,359.35,351,372.13l4.54-1,.17,0s0-.3.09-.83C356.48,363.59,361.05,318.47,356.09,313.89Z"/><path class="cls-38" d="M272.63,376.64a5.47,5.47,0,0,1-.86-.72,4.94,4.94,0,1,0,8.12-5.31,4.94,4.94,0,0,1-7.26,6Z"/><path class="cls-39" d="M319.44,242.56a6.47,6.47,0,0,1-1.69-.3,12.88,12.88,0,0,1-4.95-2.47c3.63,3.25,9,3.72,11.8,3.72a31.78,31.78,0,0,0,15.65-4.23,10.77,10.77,0,0,0,1.28-.89,1.63,1.63,0,0,1-.68.21.54.54,0,0,1-.56-.51c-.3-2,4-9,2.17-16.67s-12-10.5-20.54-11.74a20.83,20.83,0,0,0-3-.24c-5.88,0-6.92,3.67-6,12.13C314,230.5,324.33,242.56,319.44,242.56Z"/><path class="cls-39" d="M304.68,211.39a76.17,76.17,0,0,0,2.09,11.24c0-.2-.09-.39-.13-.6C305.53,217.05,305,213.66,304.68,211.39Z"/><path class="cls-39" d="M262.87,225.48c0,1.46.09,2.93.22,4.39C263,228.56,262.92,227,262.87,225.48Z"/><path class="cls-39" d="M299.77,222.19c1.62,7.5,2.88,15.66,1.67,17.41-.93,1.33-1.76,1.74-2.38,1.74-.94,0-1.4-.91-1-1,.64-.09-2.51-17.64-4.69-22.67-.68-1.57-2.89-2.2-5.68-2.2-6.15,0-15.11,3.09-16.7,6.06-1.93,3.6-1.71,16.07.51,20.89.65,1.41.31,2.08-.53,2.08s-2.51-.86-4-2.51c2.3,2.75,5.74,4,10.63,4a46.39,46.39,0,0,0,9.71-1.23l2.83-.61c11-2.33,12.92-2.75,11.66-11.55C301.34,229.37,300.59,225.72,299.77,222.19Z"/><path class="cls-39" d="M259.66,244.45a.06.06,0,0,1,0,0,6.79,6.79,0,0,1-1.6,2.25A4.24,4.24,0,0,0,259.66,244.45Z"/><path class="cls-39" d="M230.39,249.32c.51.83,1,1.47,1.36,2-.88-1.47-2.55-4.31-4.07-7.27A46.48,46.48,0,0,0,230.39,249.32Z"/><path class="cls-39" d="M233,247.61c2.9,4.06.71,4.49-.41,4.7a2.93,2.93,0,0,0,1.09.84,7,7,0,0,0,1.09.06c6.14,0,18-2.67,22.83-6.19a2.51,2.51,0,0,1-1.28.5c-.18,0-.22-.06-.06-.12.62-.2-.62-14-3.71-18.52-.7-1-2.09-1.46-3.85-1.46-5.95,0-16.11,4.84-18.17,7.22C227.85,237.73,229.91,243.29,233,247.61Z"/><path class="cls-39" d="M254.36,222.88,254,222l-.34.13A4.19,4.19,0,0,1,254.36,222.88Z"/><path class="cls-39" d="M213.08,260.36c4.88-.67,9.42-2.61,10.59-6.08a5.36,5.36,0,0,0,.24-1.1,4.55,4.55,0,0,1-1.41,2.51c-4.07,3.56-6.67,3.87-7.46,3.87h-.26s7.1-2.47,5.09-8.8c-1.39-4.39-2.63-7.51-3.26-9a64.42,64.42,0,0,0-5.89,5.12c-.95.93-1.81,1.88-2.63,2.83,0,.66.11,1.59.21,2.92C208.57,256.59,212.27,259.72,213.08,260.36Z"/><path class="cls-39" d="M220.05,239.2l-.11.08c.35.62.79,1.45,1.26,2.42C220.82,240.82,220.43,240,220.05,239.2Z"/><path class="cls-39" d="M204.43,259.74a4.67,4.67,0,0,0,2.11.73,22,22,0,0,0,2.67.15,29.19,29.19,0,0,0,3.08-.17l-5.08-.13A6.49,6.49,0,0,1,204.43,259.74Z"/><path class="cls-39" d="M231.88,279.18h-.08c-2.35,0-8.49,2.48-13.43,4.47-1.88.76-3.67,1.48-5.25,2.08a2.63,2.63,0,0,0-.58.3c5.9,3.6,14.13,6.17,24.59,7.23-.32-1.32-.7-2.78-1.18-4.38C234.18,283,232.58,279.91,231.88,279.18Z"/><path class="cls-39" d="M258.49,272.42c-3.72.45-8.12,1.24-13.21,2.23a5.34,5.34,0,0,0-3.95,2.73c-2.31,4.3-.12,12.46,1.28,16.29,1.86.09,3.79.14,5.77.13,3.64,0,7.47-.15,11.5-.47l.83-1.08c.41-.51.73-.94,1.05-1.38s.61-.92.89-1.38a18.19,18.19,0,0,0,1-2,25,25,0,0,1-4.93-10.26A34.61,34.61,0,0,1,258.49,272.42Z"/><path class="cls-39" d="M343.52,246.13v0a29.18,29.18,0,0,1,4.21,5.61c.41-1.12.75-2.23,1-3.33-1-3.24-3.08-4.79-6.62-5A21.69,21.69,0,0,1,343.52,246.13Z"/><path class="cls-39" d="M260.33,260.11c0,.27,0,.53,0,.8,0,5.82,2.83,11.21,7.68,15.67a2.87,2.87,0,0,1,.41-.05,2.23,2.23,0,0,1,.55,0,4,4,0,0,1,1.25.36l1.69.89a12.11,12.11,0,0,0,1.93.62,32.79,32.79,0,0,1-7.83-5.87A19.15,19.15,0,0,1,260.33,260.11Z"/><path class="cls-39" d="M268.63,246.56l0,0,0,0Z"/><path class="cls-39" d="M271.61,247.73l0,0h0Z"/><path class="cls-39" d="M313.83,74.68a10.13,10.13,0,0,1,1.7.33,12.31,12.31,0,0,1,5.25,2.85,10,10,0,0,1,2.2,3.06,13.78,13.78,0,0,1,1.19,5,3.53,3.53,0,0,0,7-.46,19.82,19.82,0,0,0-3.08-9.71,17.19,17.19,0,0,0-4.27-4.45,19.71,19.71,0,0,0-6.35-3,16.69,16.69,0,0,0-3.16-.6,3.52,3.52,0,0,0-.52,7Z"/><circle class="cls-39" cx="321.92" cy="100.84" r="4.94" transform="translate(-14.56 76.66) rotate(-13.28)"/><path class="cls-39" d="M183.76,133.4h0a10,10,0,0,1-1.5-.52,12.5,12.5,0,0,1-4.6-3.25,9.87,9.87,0,0,1-1.8-3,12.29,12.29,0,0,1-.76-4.46c0-.43,0-.88.05-1.34a3.53,3.53,0,1,0-7-.56c-.05.65-.08,1.28-.08,1.9a18.87,18.87,0,0,0,2.22,9.13,17.42,17.42,0,0,0,3.58,4.51,20.12,20.12,0,0,0,5.55,3.53,17.26,17.26,0,0,0,2.84,1,3.53,3.53,0,0,0,1.53-6.89Z"/><path class="cls-39" d="M177.34,111.34a4.94,4.94,0,1,0-4.17-5.61A4.94,4.94,0,0,0,177.34,111.34Z"/><path class="cls-39" d="M228.37,191a2.47,2.47,0,1,0-2.47-2.47A2.47,2.47,0,0,0,228.37,191Z"/><path class="cls-39" d="M346,272.65l-.56-.77-.11-.16a21.12,21.12,0,0,0,2.27-4.4l.42-.8-.16.09a18,18,0,0,0,.94-5.7c0-.27,0-.53,0-.8a17.69,17.69,0,0,1-1.83,7l-.66.37-3.73,2.08-.86-.57-1.24-.82-4.15-2.74,3.11,4.36.92,1.28.62.88-2.5,4.48c-5.43,3.76-12.66,6.5-20.95,7.89a14.6,14.6,0,0,1,0,1.87c0,.45-.07.89-.12,1.33,11.16-2.12,20.46-6.95,26-13.26l.15.08.91.54,5.55,3.25Z"/></svg>