<svg id="artwotk" xmlns="http://www.w3.org/2000/svg" xmlns:xlink="http://www.w3.org/1999/xlink" viewBox="0 0 512 512"><defs><style>.cls-1,.cls-36{fill:none;}.cls-2{fill:#fff;}.cls-3{clip-path:url(#clip-path);}.cls-4{fill:#ffd0a8;}.cls-5{fill:#ffe5ce;}.cls-6{fill:#efc090;}.cls-7{fill:#8b372c;}.cls-8{fill:#a86860;}.cls-9{fill:#6a0d00;}.cls-10{fill:#e5b131;}.cls-11{fill:#be8200;}.cls-12{fill:#a47c31;}.cls-13{fill:#b47e3c;}.cls-14{fill:#c4828e;}.cls-15{fill:#d6960b;}.cls-16{fill:#d6ac00;}.cls-17{fill:#a64001;}.cls-18{fill:#f2c644;}.cls-19{fill:#e7ba33;}.cls-20{fill:#fec82e;}.cls-21{fill:#fde56c;}.cls-22{fill:#a65801;}.cls-23{fill:#ffeba2;}.cls-24{fill:#ac7e4c;}.cls-25{fill:#b86734;}.cls-26{fill:#ccc;}.cls-27{fill:#ab7809;}.cls-28{fill:#ab8a00;}.cls-29{fill:#853301;}.cls-30{fill:#c29e36;}.cls-31{fill:#b99529;}.cls-32{fill:#cba025;}.cls-33{fill:#cab756;}.cls-34{fill:#ccbc82;}.cls-35{fill:#e1d8d8;}.cls-36{stroke:#150c0c;stroke-linecap:round;stroke-linejoin:round;stroke-width:0;}.cls-37{fill:#f3e6e8;}.cls-38{fill:#eecd7b;}.cls-39{fill:#ffd6ae;}.cls-40{fill:#eab484;}</style><clipPath id="clip-path"><path class="cls-1" d="M352.5,464.2c3.17-.89,89.41-3.16,92.58-28.06s-31-37.86-8.85-61,39.79-6.29,54.57-46.31,15.54-14,14.36-70.88C503.53,179.52,444.67,208.59,454,170c14.36-59.21-90.34-126.18-117.8-132.4S189-7.57,120.89,76.58c-5.45,6.72-14.68,8.68-22.27,12.73-10,5.35-20.94,8.62-31.53,12.58-10.83,4-21.81,9.08-30.16,17.3-8.18,8-16.49,18.2-16,30.38.66,15.09,14.34,26.25,24.87,35.29,5.85,5,21.82,15.37,18,25-8.44,21.35-38.66,23.61-49.19,45-15.85,32.28-1.71,53.85,17.3,65.41s19.56,38.34-3.67,57.9,9.79,36.34,24.86,63.46c11.64,20.95,28.28,35,76.69,31.31,58.2-4.48,52.87-16.47,72.73-11.2s39.43,9.19,74.28,8.3S352.5,464.2,352.5,464.2Z"/></clipPath></defs><path d="M348.24,479.23c3-.92,85.42-3.28,88.45-29.09s-29.64-39.24-8.45-63.2,38-6.53,52.14-48,14.85-14.54,13.72-73.47c-1.56-81.3-57.8-51.17-48.87-91.14C459,113,413.67,95.86,370,93.59c-61.26-3.18-4.12,28.45-30.36,22s-.81-20.51-60.38-55.29c-13.52-7.9-30.58-8.58-45.58-8.37a257.19,257.19,0,0,0-60.34,8.57c-15.87,4.08-31.6,9.43-46.38,17-7.49,3.82-14,9-21.28,13.21-9.56,5.54-20,8.93-30.12,13-10.35,4.19-20.84,9.42-28.82,17.93C38.89,130,31,140.51,31.46,153.14c.63,15.63,13.7,27.2,23.76,36.57,5.59,5.21,20.85,15.93,17.19,26-8.08,22.12-36.95,24.47-47,46.68-15.15,33.45-1.64,55.82,16.53,67.8S61.22,347.79,39,368.07s8.76,59.75,23.16,87.86c11.12,21.72,27,36.31,73.28,32.45,55.6-4.64,50.51-17.07,69.49-11.61s37.67,9.53,71,8.61S348.24,479.23,348.24,479.23Z"/><path class="cls-2" d="M429.25,156.83s9.3.94,4.25,3-6.72-.53-7.66,3.31-1.42,5.39-3.6,4.9.29-5.74-3.31-8.08-7.63-3.13-6.62-4.88,7.59.67,8.32-1.26.5-8.4,3.24-7.36,3,7.13,3,7.13Z"/><path class="cls-2" d="M70,137.84s9.3.95,4.25,3-6.72-.54-7.66,3.31-1.42,5.38-3.59,4.89.28-5.74-3.32-8.08S52,137.87,53,136.12s7.59.67,8.33-1.26.49-8.39,3.23-7.35,3,7.12,3,7.12Z"/><path class="cls-2" d="M44.13,273.21s1.45-3,1.53-1-1,2.16.16,2.94,1.61,1.13,1.18,1.79-1.87-.79-3.08.12-2,2.15-2.43,1.6,1.15-2.44.6-2.92-2.73-1.19-2.05-2,2.73-.11,2.73-.11Z"/><path class="cls-2" d="M107.53,427.05s-1.3-5.92,1-3.23,1,4.24,3.59,4,3.61-.22,3.75,1.23-3.59,1-4.31,3.67-.38,5.34-1.66,5.07-1.13-4.81-2.47-4.87-5.27,1.39-5.18-.5,3.78-3.28,3.78-3.28Z"/><ellipse class="cls-2" cx="433.97" cy="199.66" rx="1.65" ry="0.75"/><circle class="cls-2" cx="433.41" cy="354.88" r="0.9"/><circle class="cls-2" cx="83.96" cy="234.85" r="1.85"/><circle class="cls-2" cx="444.14" cy="242.21" r="0.49"/><circle class="cls-2" cx="61.23" cy="289.94" r="0.9"/><circle class="cls-2" cx="77.73" cy="412.98" r="0.35"/><g class="cls-3"><path class="cls-4" d="M463.46,281.78c-18.09-15.71-40.28-41.88-53.62-71.74-6.79-15.19-15.81-36-24.83-56l-3-6.54A66.34,66.34,0,0,0,371.6,69.45a62.67,62.67,0,0,0-60.54-17.18A124.69,124.69,0,0,0,290,41.87a129.59,129.59,0,0,0-46.25-8.23c-17.93,0-38.08,3.32-60.6,11.27-16.93,6-30.47,13.51-41.22,22.08a98.51,98.51,0,0,0-31.68,43.46c-5.72,15.43-7.36,31.07-7.37,45.06,0,3.69.12,7.28.31,10.71l-.35.32-.77.77v1.08c0,2.08.14,9.72.81,18.65.34,4.47.81,9.25,1.47,13.82.23,1.61.5,3.17.78,4.7l-.06.33c-.32,2.24-.48,4.82-.62,7.63-.22,4.2-.38,8.89-.83,13.36a45.8,45.8,0,0,1-2.5,11.84,42.15,42.15,0,0,1-4.94,8.71c-3.12,4.44-7.26,9.36-12,16.23a179.44,179.44,0,0,0-15.8,28,228.71,228.71,0,0,0-12.51,32.91c-2.78,9.84-4.19,18.55-4.2,26.2A45,45,0,0,0,54,366a28.92,28.92,0,0,0,17.42,17.76,50.71,50.71,0,0,0,17.45,3.12h.64a29.79,29.79,0,0,0,14.35-3.69c7.53-4.1,13.5-11,18.36-18.87a113.39,113.39,0,0,0,8.38-16.93,162.42,162.42,0,0,0,0,34.22,362.78,362.78,0,0,0,6.27,40.17l4.07,19.78,2,9.93c.67,3.34,1.45,6.64,2.23,9.95,3.12,13.22,6.76,26.25,10.56,39.21s7.79,25.83,11.71,38.7,7.8,25.73,11.12,38.64c1.62,6.43,3.09,13,4.4,19.51s2.49,13.1,3.43,19.68l.67,5c.23,1.68.42,3.33.73,5.17a18.16,18.16,0,0,0,.82,3.2,7.51,7.51,0,0,0,1.34,2.27l.27.3a6,6,0,0,0,.7.58,4.89,4.89,0,0,0,.54.32l.42.21.57.22.46.14a28,28,0,0,0,2.92.65c.91.16,1.78.29,2.65.41,6.92.9,13.68,1.33,20.51,1.62s13.65.33,20.56,0a96,96,0,0,0,10.5-1.06,34.62,34.62,0,0,0,5.55-1.35,14.9,14.9,0,0,0,3.12-1.44,8.38,8.38,0,0,0,.87-.62l.45-.36.46-.47a7.33,7.33,0,0,0,.89-1.17l.39-.7a28.55,28.55,0,0,0,2.87-11.32c.28-3.57.32-7,.41-10.32.13-6.71.42-13.28,1.11-19.85,1.73-13.32,2.28-26.94,5.91-39.11a34.82,34.82,0,0,1,3.55-8.26,13.05,13.05,0,0,1,2.45-2.94,11.24,11.24,0,0,1,3.16-1.78,10.74,10.74,0,0,1,3.54-.72,5.53,5.53,0,0,1,2.82.69,6.55,6.55,0,0,1,2.22,2.18,15.7,15.7,0,0,1,1.65,3.57,38,38,0,0,1,1.51,8.93c.19,3.11.15,6.45.13,9.8-.06,6.69-.2,13.4-.37,20.12l-1.16,40.52a11,11,0,0,0,3.06,7.13,19.48,19.48,0,0,0,5,3.9,36.94,36.94,0,0,0,10.67,3.76,85.28,85.28,0,0,0,21.13,1.13,62.93,62.93,0,0,0,21-4.45,40.5,40.5,0,0,0,9.62-5.64,32.34,32.34,0,0,0,4.16-4A27.93,27.93,0,0,0,368,621q.44-.62.84-1.29l.4-.7c.14-.28.23-.44.43-.9h0l.28-.67,0-.79c.15-5.57.34-11.16.56-16.73s.42-11.19.87-16.54c.48-5.77.73-11.29,1.06-16.91l.95-16.75c.7-11.14,1.31-22.3,2.26-33.36.24-2.77.5-5.51.8-8.24s.66-5.43,1.12-8l2.38-11.89,2.11.41c2.27.39,4.57.7,6.91.89a53.3,53.3,0,0,0,7.17.13,30.74,30.74,0,0,0,7.57-1.32,16.65,16.65,0,0,0,7.51-4.72,13.61,13.61,0,0,0,2.5-4.16,14.6,14.6,0,0,0,.66-2.24c.07-.36.15-.78.2-1.09l.12-.91c.54-4.64.71-9,.93-13.4.74-17.6.81-35.12.5-52.66s-1.1-35.09-2.72-52.62c-.39-4.39-.95-8.76-1.54-13.13s-1.38-8.73-2.3-13.07c-.48-2.17-1-4.33-1.53-6.48s-1.2-4.29-1.87-6.42c-.87-2.59-1.83-5.17-2.95-7.69a108.64,108.64,0,0,0,15.9,13.92,79.67,79.67,0,0,0,15.33,8.65,40.24,40.24,0,0,0,15,3.39,25.4,25.4,0,0,0,3.5-.24A25.93,25.93,0,0,0,470.05,326a28.6,28.6,0,0,0,5.87-17.73A35.23,35.23,0,0,0,463.46,281.78Z"/><path class="cls-5" d="M183.14,515.44c-8.81-29.63-24.56-75.28-28.29-118.53-1.19-13.77-14-52.3-.54-100.91,6.43-23.25,15.35-53.38,39.92-79.18-6.06,3.81-11.24,7.19-14.9,9.61a203.33,203.33,0,0,0-27.51,46.89c-5.85,13.95-9.08,26.19-10,33.76v.09a196.71,196.71,0,0,1-4.39,19.77c-1.42,5.19-3.23,11-5.45,16.9.83,5.73,1.51,11.4,2.33,17.05.95,6.63,1.88,13.23,3,19.82,2.13,13.17,4.73,26.28,7.31,39.45l4,19.8c.64,3.33,1.31,6.63,2,9.86s1.43,6.51,2.19,9.76c3.08,13,6.7,25.91,10.48,38.79S171,524.1,175,537c3.25,10.67,6.47,21.36,9.42,32.19C186.37,549.77,187.62,530.5,183.14,515.44Z"/><path class="cls-5" d="M399.14,315.75A54.83,54.83,0,0,1,398,327.14c8.13,35.85,4.09,152,4.09,152a53.76,53.76,0,0,1-12.28-.53,4.49,4.49,0,0,0-3.09.52c-.07.7-.11,1.08-.11,1.08l-.23.05q1.68.22,3.33.36c4,.32,8.07.22,11.23-.8a7.63,7.63,0,0,0,3.49-2.08,4.28,4.28,0,0,0,.85-1.43,6.67,6.67,0,0,0,.27-.89l.09-.52.09-.72c.46-4,.74-8.43,1-12.72.9-17.3,1.15-34.73,1-52.11s-.74-34.77-2.15-52c-.38-4.31-.7-8.63-1.16-12.93s-.86-8.59-1.37-12.87c-1.09-8.54-2.23-17.07-4.57-25.3l1.09-.48c-.53-.62-1-1.24-1.54-1.86A65.42,65.42,0,0,1,399.14,315.75Z"/><path class="cls-6" d="M262.72,183.26c34.6-3.83,61.19,2.48,78.82,11.58a5.45,5.45,0,0,1,4,1.31l3.26,2.94c7.83,5.13,13.15,10.73,15.83,15.75,5.76,10.82,10.8,31.6,15.11,45.11.16.19.35.38.5.57a32.88,32.88,0,0,1,3.35,4.79v-.05c-.68-5.29-1.6-11.41-3-17.94-2.81-13.06-7.55-27.75-16-40.67A76.68,76.68,0,0,0,342.09,184a74.19,74.19,0,0,0-6.79-3.9,61.8,61.8,0,0,1-29.85-3,41.33,41.33,0,0,1-10-1.28,37.88,37.88,0,0,1-8.51-3.46c-1-.57-2-1.17-3-1.78l-1.06,0a131.84,131.84,0,0,0-48.65,11.61c-.76.34-1.49.72-2.24,1.08a44.08,44.08,0,0,1-16.48,13.89c-2.08,1-3.95,1.83-5.67,2.6a57.91,57.91,0,0,1-13.8,8.38,171.19,171.19,0,0,0-16.71,18.28c3.66-2.42,8.84-5.8,14.9-9.61C215.35,203.53,247.17,185,262.72,183.26Z"/><path class="cls-7" d="M118.41,209.54c1.9,15,3.62,21.64.66,30.93-3.73,11.75-13.34,19.22-20.82,35.24S102,273,86,301.87s-20.82,49.65-17.62,57.66,9.61,15,16.55,19.76a6.35,6.35,0,0,1,1,.84c1,.07,2,.14,3.09.16h.5a23.23,23.23,0,0,0,11.07-2.83,35.2,35.2,0,0,0,9.56-7.76c5.9-6.58,10.74-15.67,14.47-24.91.94-2.33,1.81-4.67,2.62-7,.4-9.21.94-19,1.48-25.28,1.94-22.32,6.82-45,18.63-64.36A309.46,309.46,0,0,1,172,212.73,57.32,57.32,0,0,1,135.5,198.3Q127,203.6,118.41,209.54Z"/><path class="cls-7" d="M462.92,319.49c-7.48-16,.53-12.81-1.07-21.36s-32-28.83-42.71-42.71-19.23-31-31.51-68.34a202.86,202.86,0,0,1-6.9-26.6c-.53-1.19-1.07-2.37-1.6-3.55-.28,9-2.64,20-17.12,21.6-1.54.18-3.06.28-4.57.36a78.51,78.51,0,0,1,7.2,6.93c12.5,13.79,19.5,32.24,24.6,49.84,6.31,21.8,6.14,38.51,4.64,49.31a46.94,46.94,0,0,0,2.24,4.58,77.2,77.2,0,0,0,9.45,13.2c7.58,8.66,17.36,16.6,26.73,21.44,6.23,3.24,12.28,5.07,17.17,5.05a19.12,19.12,0,0,0,2.57-.17,19.4,19.4,0,0,0,12.39-6.6C463.87,321.45,463.37,320.45,462.92,319.49Z"/><path class="cls-7" d="M119.14,131.81c-2.65,5.36-5.07,9.64-3.81,18.92A60.49,60.49,0,0,1,119.14,131.81Z"/><path class="cls-7" d="M260.1,149.45l-17.58,4.9a54.36,54.36,0,0,1-1,7.38c.53-.19,1.05-.42,1.58-.61,7.4-2.62,14.92-3.22,22.51-3.61-.52-.58-1-1.18-1.52-1.81A43.74,43.74,0,0,1,260.1,149.45Z"/><path class="cls-7" d="M285.62,47.26c-15.29-4.27-32.77-7-46.41-3.27-31,8.54-28.84,13.34-39,20.82S172.47,68,166.59,81.9s-15.88,14.54-32.43,25.76c-15.75,10.66-10.36,11.55-12.56,18.5a59.68,59.68,0,0,1,10.71-15.1A57.71,57.71,0,0,1,162.8,94.6c.94-.25,2.17-.56,3.68-.87l.11-.09s23-14.41,42.18-3.2,18.69,5.34,25.63,5.34,16-4.81,16-4.81,1.6-25.63,26.16-29.36c6.39-1,11.26-1.84,15-2.56a100.66,100.66,0,0,1,11.07-4.14,117.68,117.68,0,0,0-15-6.93C287,47.73,286.3,47.51,285.62,47.26Z"/><path class="cls-8" d="M68.35,359.53c-3.2-8,1.6-28.83,17.62-57.66s4.81-10.14,12.28-26.16,17.09-23.49,20.82-35.24c3-9.29,1.24-15.91-.66-30.93-2.47,1.72-4.94,3.47-7.4,5.28l-.12.08V215c-.24,4.86-.45,10.51-1.21,15.89a45.11,45.11,0,0,1-2.52,10.22,49,49,0,0,1-5.66,10c-2.25,3.19-4.8,6.38-7.61,10.12a170.33,170.33,0,0,0-19.63,33.11,223,223,0,0,0-12.16,32c-2.67,9.42-4,17.58-4,24.42,0,7.56,1.55,13.44,4.35,17.85s6.9,7.51,12.68,9.48a43.46,43.46,0,0,0,10.71,2,6.35,6.35,0,0,0-1-.84C78,374.48,71.55,367.54,68.35,359.53Z"/><path class="cls-8" d="M115.33,150.73c-1.26-9.28,1.16-13.56,3.81-18.92.73-1.93,1.55-3.82,2.46-5.65,2.2-7-3.19-7.84,12.56-18.5,16.55-11.22,26.56-11.88,32.43-25.76s23.49-9.62,33.64-17.09,8-12.28,39-20.82c13.64-3.77,31.12-1,46.41,3.27a123.38,123.38,0,0,0-41.9-7.08c-17.12,0-36.52,3.16-58.42,10.89C169,56.84,156.09,64,146,72.11A93.34,93.34,0,0,0,123,98.46c-10.81,18.68-13.65,39.07-13.65,57.05,0,2,0,3.93.1,5.85,1.67-1.19,3.64-2.57,5.93-4.09-.09-1.36-.15-2.72-.15-4.1C115.27,152.35,115.3,151.54,115.33,150.73Z"/><path class="cls-8" d="M419.14,255.42c10.67,13.88,41.11,34.17,42.71,42.71s-6.41,5.34,1.07,21.36c.45,1,.95,2,1.51,3,.16-.19.32-.36.48-.56a22.06,22.06,0,0,0,4.47-13.69,28.64,28.64,0,0,0-10.21-21.5c-18.75-16.33-41.41-43-55.3-74-6.39-14.3-14.71-33.5-23.14-52.23a202.86,202.86,0,0,0,6.9,26.6C399.91,224.45,408.46,241.54,419.14,255.42Z"/><path class="cls-9" d="M243.11,161.12c-.53.19-1.05.42-1.58.61a54.8,54.8,0,0,1-3.88,11.93,137.74,137.74,0,0,1,37.29-9c-1-.66-2.09-1.32-3.21-2a25.73,25.73,0,0,1-6.11-5.16C258,157.9,250.51,158.5,243.11,161.12Z"/><path class="cls-9" d="M389.24,235.66c-5.1-17.6-12.1-36-24.6-49.84a78.51,78.51,0,0,0-7.2-6.93,86.94,86.94,0,0,1-11.54-.2,83.35,83.35,0,0,1,24.16,24.37c14.16,21.62,18.27,47,20.27,63.13.57,4.61,1,8.48,1.34,11.21a30.8,30.8,0,0,0,2.21,7.57C395.38,274.17,395.55,257.46,389.24,235.66Z"/><path class="cls-9" d="M173.53,212.77c-.5,0-1,0-1.49,0a309.46,309.46,0,0,0-24.73,35.46c-11.81,19.32-16.69,42-18.63,64.36-.54,6.24-1.08,16.07-1.48,25.28a200.81,200.81,0,0,0,8.12-31.61v0h0a126.76,126.76,0,0,1,6.43-24.94,210.3,210.3,0,0,1,15.14-33.08A196.83,196.83,0,0,1,183.11,212,57.07,57.07,0,0,1,173.53,212.77Z"/><path class="cls-9" d="M242.52,154.35l17.58-4.9c-.05-.11-.11-.21-.16-.31q-8.52,1.73-17.37,3.94C242.55,153.5,242.55,153.93,242.52,154.35Z"/><path class="cls-9" d="M203.58,96.3a60.07,60.07,0,0,1,20.81,13.33c9.33-2.53,19.17-4.87,29.52-6.95a74.87,74.87,0,0,1,2.48-9.54,48.16,48.16,0,0,1,12.47-19.31,73.79,73.79,0,0,1,17-12c1.95-1,3.85-1.92,5.68-2.73-3.71.72-8.58,1.58-15,2.56C252,65.34,250.42,91,250.42,91s-9.08,4.81-16,4.81-6.41,5.87-25.63-5.34-42.18,3.2-42.18,3.2l-.11.09a72,72,0,0,1,14.38-1.45A64.28,64.28,0,0,1,203.58,96.3Z"/><path class="cls-9" d="M345.9,178.69a86.94,86.94,0,0,0,11.54.2c1.51-.08,3-.18,4.57-.36,14.48-1.6,16.84-12.61,17.12-21.6.05-1.63,0-3.2,0-4.64a65.94,65.94,0,0,1-7.54,9.32,63.39,63.39,0,0,1-28.32,16.82C344.15,178.53,345,178.61,345.9,178.69Z"/><path class="cls-10" d="M125,198.56l-10.62-34.22-.66.46c-1.29.91-2.41,1.73-3.37,2.45l7.16,36.59q7.08-4.86,14.17-9.28l-.12-.13Z"/><path class="cls-10" d="M107.33,169.54l0,0c.06,4.26.41,16,1.75,27C107.64,184.6,107.36,171.34,107.33,169.54Z"/><path class="cls-10" d="M246.91,109.49q-9.53,2.1-18.44,4.46l5.94-1.1s10.91,11.37,12.06,33.89q5.67-1.35,11.19-2.48c0-.11-.09-.23-.13-.35-.33.29-1.65,1.08-6.28,1.26C245.73,130.74,246.75,112,246.91,109.49Z"/><path class="cls-10" d="M242.41,145.83c.06.62.1,1.24.13,1.86l.28-.07C242.78,147.46,242.65,146.82,242.41,145.83Z"/><path class="cls-10" d="M252.85,108.3c-.9,2.47-.81,6.68-.27,11.36,0-.84-.06-1.67-.06-2.52a76,76,0,0,1,.53-9l-1.56.33Z"/><path class="cls-11" d="M125,198.56l6.56-4.13A59.93,59.93,0,0,1,116,162.83L114.23,164l.1.32Z"/><path class="cls-12" d="M262.59,95.21a69.66,69.66,0,0,0-3.53,21.93A67.8,67.8,0,0,0,262,137.08a46.45,46.45,0,0,0,7.25,14.61A20.89,20.89,0,0,0,275,157c1.82,1.06,3.48,2.12,5,3.14A66.33,66.33,0,0,1,275.1,77c-.57.51-1.14,1-1.68,1.53A41.56,41.56,0,0,0,262.59,95.21Z"/><path class="cls-12" d="M229.31,175.58a48.68,48.68,0,0,0,6.8-24.75c0-11.16-3.87-22.94-13.5-33.64a56.26,56.26,0,0,0-12.78-10.62,59.52,59.52,0,0,1,22,46.6,60.44,60.44,0,0,1-7.51,29.26A45.4,45.4,0,0,0,229.31,175.58Z"/><path class="cls-10" d="M201.52,197.79a45.2,45.2,0,0,1-4,2.12,39.82,39.82,0,0,1-19,3.68,44.71,44.71,0,0,0,17.83-5.94A47.61,47.61,0,0,0,210,185.36a52.67,52.67,0,0,0,8.29-16.28,56.14,56.14,0,0,0-1-36,52.69,52.69,0,0,0-9.15-15.81,47.59,47.59,0,0,0-14.35-11.53,44.74,44.74,0,0,0-18.12-5,36.53,36.53,0,0,1,4-.24,51.69,51.69,0,0,0-6.26-.4A50.91,50.91,0,0,0,137,115.63a54,54,0,0,0,0,75.09,50.73,50.73,0,0,0,64.53,7.07Zm-67.83-11.35a47.47,47.47,0,0,1-8.17-14.7c-.47-1.33-.78-2.71-1.17-4.07-.17-.68-.36-1.36-.51-2l-.33-2.09c-.18-1.39-.44-2.77-.55-4.17s-.09-2.79-.11-4.19c0-.69,0-1.39,0-2.08s.11-1.39.19-2.08l.47-4.13a69.88,69.88,0,0,1,2-8c.34,2.77.33,5.45.54,8.12l.4,4c.07.66.12,1.32.17,2l.32,2c.21,1.3.41,2.59.58,3.88s.58,2.54.85,3.81l.4,1.9c.17.62.38,1.23.56,1.85.39,1.23.68,2.49,1.12,3.7a72.14,72.14,0,0,0,6.57,14,71,71,0,0,0,9.64,12.66A35.77,35.77,0,0,1,133.69,186.44Zm4.38-34.07c0-19.61,15.52-35.5,34.66-35.5s34.67,15.89,34.67,35.5-15.52,35.51-34.67,35.51S138.07,172,138.07,152.37Z"/><path class="cls-10" d="M314.52,58.16a43,43,0,0,1,9.34-.29,50.49,50.49,0,0,0-20.27,5.92,53.25,53.25,0,0,0-16,13.21,60.54,60.54,0,0,0-13.41,38.26,61.23,61.23,0,0,0,3.41,20.27,58.47,58.47,0,0,0,10,18,53.55,53.55,0,0,0,16,13.22,50.7,50.7,0,0,0,20.27,5.92,44.59,44.59,0,0,1-17-2,55.68,55.68,0,0,0,19.68,3.57A56.28,56.28,0,0,0,366.92,157a59.23,59.23,0,0,0,16.78-41.51v-.06c-.06.76-.11,1.52-.17,2.27s-.12,1.39-.2,2.08-.25,1.37-.41,2.05l-.87,4.06a71.75,71.75,0,0,1-2.82,7.76c-.06-2.79.23-5.46.28-8.14v-4c0-.66,0-1.32,0-2l-.12-2c-.08-1.31-.15-2.61-.19-3.92s-.31-2.58-.46-3.87l-.21-1.93c-.1-.64-.25-1.27-.37-1.9-.26-1.27-.42-2.55-.74-3.8a72.56,72.56,0,0,0-5.12-14.6A71.21,71.21,0,0,0,364,74a33.87,33.87,0,0,1,10.36,9.42A58.7,58.7,0,0,0,366.92,74a56.22,56.22,0,0,0-52.4-15.86Zm50.69,56.57c0,21.45-17,38.83-37.91,38.83s-37.91-17.38-37.91-38.83,17-38.83,37.91-38.83S365.21,93.29,365.21,114.73Z"/><path class="cls-13" d="M323.86,172.66a50.7,50.7,0,0,1-20.27-5.92,53.55,53.55,0,0,1-16-13.22,58.47,58.47,0,0,1-10-18,61.23,61.23,0,0,1-3.41-20.27A60.54,60.54,0,0,1,287.63,77a53.25,53.25,0,0,1,16-13.21,50.49,50.49,0,0,1,20.27-5.92,43,43,0,0,0-9.34.29,47.91,47.91,0,0,0-12,3.32,52.2,52.2,0,0,0-17.93,12.86,58.48,58.48,0,0,0-11.58,19,62.42,62.42,0,0,0,0,43.89,58.87,58.87,0,0,0,11.58,19,52.34,52.34,0,0,0,17.94,12.85c1.41.6,2.86,1.12,4.33,1.58A44.59,44.59,0,0,0,323.86,172.66Z"/><path class="cls-13" d="M193.86,105.74a47.59,47.59,0,0,1,14.35,11.53,52.69,52.69,0,0,1,9.15,15.81,56.14,56.14,0,0,1,1,36A52.67,52.67,0,0,1,210,185.36a47.61,47.61,0,0,1-13.71,12.29,44.71,44.71,0,0,1-17.83,5.94,39.82,39.82,0,0,0,19-3.68,45.2,45.2,0,0,0,4-2.12,47,47,0,0,0,11.68-9.87A52.78,52.78,0,0,0,223,170.6,56.55,56.55,0,0,0,222,131.3a53,53,0,0,0-10.74-16.77,46.43,46.43,0,0,0-16.32-11.13,40.76,40.76,0,0,0-15.13-2.89,36.53,36.53,0,0,0-4,.24A44.74,44.74,0,0,1,193.86,105.74Z"/><path class="cls-14" d="M254.63,389.43l3.48-4.59q-5.54.32-10.7.32c-16,0-29.26-2.21-39.73-6.24S189.54,369,185,361.66a30.81,30.81,0,0,1-4.52-16.27,36.47,36.47,0,0,1,.73-7.19c1.64-8.25,6.56-15.88,13.64-22.88S211.29,301.86,222,296c21.46-11.76,48.66-21.27,75.28-27.88,14-3.47,25.71-4.89,35.56-4.89,13.95,0,24.12,2.85,31.37,6.79s11.51,8.9,13.69,13A54.9,54.9,0,0,1,382,293.47a58.75,58.75,0,0,1,2.27,15.95,51.23,51.23,0,0,1-4.22,20.52c-.28.65-.6,1.29-.91,1.94,1.14,3.72,1.05,8.51,1.05,12.46,0,.93,0,3.09.07,5.46a54.59,54.59,0,0,0,9.12-13.51,47.89,47.89,0,0,0,4.49-20.54c0-13.16-4.9-25.27-8.75-33.62-1.27-2.78-2.43-5.15-3.26-7.07a21,21,0,0,1-1.08-3,21.24,21.24,0,0,0-4.54-8.18A43.33,43.33,0,0,0,365.79,255c-9-5.57-21.89-9.88-38.77-9.88a124.57,124.57,0,0,0-35.55,5.6,302.9,302.9,0,0,0-59.55,24.56c-17.92,9.92-33.07,21.41-43,33.7-6.66,8.2-11,16.72-12.5,25.37a52.41,52.41,0,0,0-.8,9.06,46.87,46.87,0,0,0,4,19.23,46.11,46.11,0,0,0,12.51,16.46c11.36,9.6,29.11,16.09,54.48,16.09,1.17,0,2.37,0,3.57-.05Q252.43,392.32,254.63,389.43ZM316.3,250.58a64.57,64.57,0,0,1,13.08-1c8.41,0,18.71.9,25.57,3.62,9.07,3.6,12.42,9.19,7.91,9.19a16.53,16.53,0,0,1-5.89-1.57s-5.9-3.53-20.85-3.53c-3.17,0-6.74.16-10.76.55-1.37.13-2.58.19-3.64.19-6.58,0-7.51-2.26-7.91-3.18C313.12,253.3,313.44,251.32,316.3,250.58Zm-12,2h.22a4.78,4.78,0,0,1-.21,9.55h-.22a4.78,4.78,0,0,1,.21-9.55Z"/><path class="cls-15" d="M262.81,339.37c0-.35,0-.7,0-1,0,0,0,.08,0,.12,0-.3,0-.6,0-.91a24.43,24.43,0,0,1,3.51-12.43h0a54.17,54.17,0,0,1,5.34-7.45l-.82-.37a36.74,36.74,0,0,0-9,14.07c-1.33,3.79-1.21,8.85-1.21,13,0,.9-.05,2.94-.07,5.22,0,.86,0,1.75,0,2.64a42.68,42.68,0,0,0,.28,6.26,32.39,32.39,0,0,0,6.39,13.31,21.28,21.28,0,0,0,1.51-5.26c.11-.7.19-1.41.25-2.16s.09-1.49.26-2.63l.09-.48.15-.6a7,7,0,0,1,.36-.86,4.45,4.45,0,0,1,.94-1.2,4,4,0,0,1,.51-.39C265.9,352.71,262.81,346.27,262.81,339.37Zm4.26,31.49c-4.32-4.32-6-12.06-6-12.06v-22c1.31,12.45,6,17.17,6,17.17Z"/><path class="cls-15" d="M380.3,349.8c0-2.37-.07-4.53-.07-5.46,0-3.95.09-8.74-1.05-12.46-.06-.18-.1-.36-.16-.53a34.48,34.48,0,0,0-2.75-6,37.78,37.78,0,0,0-5.46-7.27,31.1,31.1,0,0,1,1.21,3.36h0a25.64,25.64,0,0,1,6,16.05c0,.31,0,.61,0,.91,0,0,0-.08,0-.12,0,.34,0,.69,0,1a24.62,24.62,0,0,1-3.95,13.13l5.15,7.11L372,355.4c-7.08,8.93-19.91,15.76-35.46,18.6a23.66,23.66,0,0,1-2.07,5.52,25.52,25.52,0,0,1-3.61,5l.16.29a34.26,34.26,0,0,1,1.52,3.31c.37,1,.71,2.05,1,3.11,24.1-3.17,42.63-15.09,46.47-32.79a9.29,9.29,0,0,0,.14-1.09C380.32,355.59,380.32,352.55,380.3,349.8Z"/><polygon class="cls-15" points="272.15 317.86 271.88 317.74 272.13 317.85 272.15 317.86"/><path class="cls-15" d="M362.68,313h0l.36-.13-.37.13Z"/><path class="cls-15" d="M364,312.57l.22-.08h0Z"/><path class="cls-16" d="M294.69,321.06h0l-.24,0,.17,0Z"/><path class="cls-16" d="M302.88,319.31l.4-.12-.41.12h0Z"/><path class="cls-16" d="M317.11,313l.9-.46-.92.47-.17.09Z"/><path class="cls-16" d="M339.88,354.66a11.2,11.2,0,0,0,1.59-4.66,2.65,2.65,0,0,0,.16-.89v-8a2.65,2.65,0,0,0-.25-1.11,9.92,9.92,0,0,0-2.27-4.67,1.85,1.85,0,0,1-.29-2,2.48,2.48,0,0,0,.25-1.15l-.1-5.89c0-.08,0-.29,0-.65q-1.2,0-2.46-.09h0c0,.52,0,.77,0,.77l.1,5.94-1.15-.91a24,24,0,0,0-10.66-2.92l0,3.25c1.27.31,2.66.63,4.21,1,.55.12,1.07.26,1.57.41l.38.12c.44.13.86.28,1.26.43l.14.06c.43.17.84.36,1.23.55l.3.16c.32.17.62.34.91.52l.19.12c.32.21.63.44.91.66l.23.2c.22.19.43.38.62.58l.18.17c.22.24.43.49.62.74l.15.23c.14.19.27.4.39.6l.13.24a6.91,6.91,0,0,1,.36.78c0,.08.05.16.08.24a6.13,6.13,0,0,1,.18.61l.06.28a6.63,6.63,0,0,1,.11.76h.13v8l-.11.08a8.54,8.54,0,0,1-1.27,4.15,9.52,9.52,0,0,1-4.76,3.65,17.21,17.21,0,0,1,1.46,2.07A11.58,11.58,0,0,0,339.88,354.66Z"/><path class="cls-16" d="M328.19,311.45l.08.07-.07-.07Z"/><path class="cls-16" d="M325.34,306.88l0,0,0,0Z"/><path class="cls-16" d="M325.75,307.85l0,.06h0Z"/><path class="cls-16" d="M317,329.3l.54.24.24.1V329a9.21,9.21,0,0,0-.92.27Z"/><path class="cls-16" d="M338.81,316.52l.25,0-.35-.05-.18,0Z"/><path class="cls-16" d="M344.3,316.75q-.81,0-1.56,0h.08C343.3,316.79,343.79,316.78,344.3,316.75Z"/><path class="cls-16" d="M348.77,316.31l-.34.06.35-.05Z"/><path class="cls-16" d="M278.75,340c0-5.24,2.89-10.07,7.78-14h0c-.86,0-1.73,0-2.6,0h0c-1.36,0-6.88,7.31-8.21,7.39h-.18a2.39,2.39,0,0,1-2-1.21,15.88,15.88,0,0,0-.64,10.88,18.19,18.19,0,0,1-1.34-3.21c1.31,8.39,8.25,15.77,18.45,20.72l.28,0c1.21-.1,2.51-.27,3.66-.46l1.43-.84C285.27,354.81,278.75,347.83,278.75,340Z"/><path class="cls-16" d="M365.53,348.8l-4-5.65,5.37,3.55a20.57,20.57,0,0,0,2.46-6.93A17.51,17.51,0,0,1,368,343a15.92,15.92,0,0,0,.68-4.55c0-6.43-3.93-12.34-10.49-17-3.9.17-7.66.57-9.79,1.41h0a30.34,30.34,0,0,1,8,6.37A16.36,16.36,0,0,1,360.8,340c0,9.87-10.27,18.35-24.91,22a19.84,19.84,0,0,1,.92,3.29C349.71,362.46,360.13,356.45,365.53,348.8Z"/><path class="cls-16" d="M283,321.29l-.12,0H283Z"/><path class="cls-16" d="M354.56,315.24h0Z"/><path class="cls-16" d="M287.83,321.56h0Z"/><path class="cls-16" d="M304.1,348.78h0c0-.37,0-.72.05-1h0c.26-6.14.26-6.16.26-6.16s0,.06.07.11l.07,0,.2.1.14.06.32.12.18.07.51.16.15,0,.81.23.21.06.74.2.34.08.74.18.36.09.87.19.32.08c.83.18,1.7.35,2.6.52l.36.07,1,.18.45.07,1,.16.43.07,1.17.16.23,0,.1,0v-.82c-6.92-1.94-14.35-4.41-14-10.77l-.1-5.37h0c-.8-.09-1.68-.21-2.63-.33a2.27,2.27,0,0,0-.05.35l.1,5.27a9,9,0,0,0,1.17,5.09,1.9,1.9,0,0,1-.13,2l-.17.28a2.7,2.7,0,0,0-.28,1.08l-.29,7v.11c0,.45,0,1,0,1.54,0,1.15.07,2.65,0,4.74a4.57,4.57,0,0,0,.14,1.17c.84-.38,1.68-.75,2.53-1.1C304.21,351.9,304.11,350.12,304.1,348.78Z"/><path class="cls-17" d="M354.54,315.24l-.13,0,.13,0Z"/><path class="cls-17" d="M369.56,336.86c0-5.69-2.57-11-7.05-15.56-1.41,0-2.88.05-4.33.11h0c6.56,4.67,10.49,10.58,10.49,17A15.92,15.92,0,0,1,368,343a17.51,17.51,0,0,0,1.35-3.21A18.82,18.82,0,0,0,369.56,336.86Z"/><path class="cls-17" d="M272.74,330.63c-.07-.18-.15-.36-.22-.53a19.25,19.25,0,0,0-1.26,6.76,18.83,18.83,0,0,0,.24,2.91,18.19,18.19,0,0,0,1.34,3.21,15.88,15.88,0,0,1,.64-10.88h0A8.65,8.65,0,0,1,272.74,330.63Z"/><path class="cls-17" d="M322.79,310.05l.09-.05Z"/><path class="cls-17" d="M282.86,321.28h0Z"/><path class="cls-17" d="M351.82,315.79l-.71.13-.85.16.82-.15Z"/><path class="cls-17" d="M279.15,320.61l-.1,0h0Z"/><path class="cls-17" d="M325.78,307.92l0,.07,0-.07Z"/><path class="cls-17" d="M328.08,311.33a.52.52,0,0,1,.1.11h0Z"/><path class="cls-17" d="M348.8,316.32l1.46-.24c-.51.09-1,.16-1.49.23h0Z"/><path class="cls-17" d="M329.13,342.19a2.33,2.33,0,0,0-.11-.31c-.49-1.08-2-1.9-4-2.61v-.2l-.05,0,.06,6C327.83,344.84,329.61,344,329.13,342.19Z"/><path class="cls-17" d="M317.76,344.67h0l-.1,0Z"/><path class="cls-17" d="M314.32,327.22a5.27,5.27,0,0,0,2.52,2,9.21,9.21,0,0,1,.92-.27v-3.69c-1.24.29-2.51.62-3.72,1A2.16,2.16,0,0,0,314.32,327.22Z"/><path class="cls-17" d="M303.78,327.71h-.08l.1,5.37c-.39,6.36,7,8.83,14,10.77v-6.59C311,335.5,303.81,333.27,303.78,327.71Z"/><path class="cls-17" d="M336.32,326.16a8.81,8.81,0,0,0-1.07-.62c-4.42-.34-8.77-1-10.46-1.23h0l.05,4.2a24,24,0,0,1,10.66,2.92l1.15.91-.1-5.94s0-.25,0-.77h-.21C336.31,326,336.32,326.16,336.32,326.16Z"/><path class="cls-18" d="M302.87,319.31l-.49.13.49-.13Z"/><path class="cls-18" d="M295.23,321l-.52.08h0Z"/><path class="cls-18" d="M301.45,350.06c0-.58,0-1.09,0-1.54v-.11l.29-7a2.7,2.7,0,0,1,.28-1.08l.17-.28a1.9,1.9,0,0,0,.13-2,9,9,0,0,1-1.17-5.09l-.1-5.27a2.27,2.27,0,0,1,.05-.35h0c-4-.52-9.22-1.22-14.52-1.41-4.89,3.94-7.78,8.77-7.78,14,0,7.86,6.52,14.84,16.57,19.2,1.81-1,3.59-1.95,5.47-2.84.27-.12.55-.23.82-.36a4.57,4.57,0,0,1-.14-1.17C301.52,352.71,301.48,351.21,301.45,350.06Z"/><path class="cls-18" d="M360.8,340a16.36,16.36,0,0,0-4.39-10.77,30.34,30.34,0,0,0-8-6.37,3.43,3.43,0,0,0-1.58,1.06c-.92,1.38-3.82,1.83-7.26,1.83h-.59c0,.36,0,.57,0,.65l.1,5.89a2.48,2.48,0,0,1-.25,1.15,1.85,1.85,0,0,0,.29,2,9.92,9.92,0,0,1,2.27,4.67,2.65,2.65,0,0,1,.25,1.11v8a2.65,2.65,0,0,1-.16.89,11.2,11.2,0,0,1-1.59,4.66,11.58,11.58,0,0,1-5.37,4.43c.22.37.42.74.61,1.11.29.58.54,1.17.77,1.77C350.53,358.32,360.8,349.84,360.8,340Z"/><path class="cls-19" d="M325.12,350.88v-.83c5.88-.45,10.83-2,12.79-5a7.66,7.66,0,0,0,1.17-3,6.48,6.48,0,0,0-.12-1.64l-.06-.28a6.13,6.13,0,0,0-.18-.61c0-.08,0-.16-.08-.24a6.91,6.91,0,0,0-.36-.78l-.13-.24c-.12-.2-.25-.41-.39-.6l-.15-.23c-.19-.25-.4-.5-.62-.74l-.18-.17c-.19-.2-.4-.39-.62-.58l-.23-.2c-.28-.22-.59-.45-.91-.66l-.19-.12c-.29-.18-.59-.35-.91-.52l-.3-.16c-.39-.19-.8-.38-1.23-.55l-.14-.06c-.4-.15-.82-.3-1.26-.43l-.38-.12c-.5-.15-1-.29-1.57-.41-1.55-.34-2.94-.66-4.21-1l0-3.25-.05-4.2c-.21,0-.45,0-.7,0a31.35,31.35,0,0,0-6.31,1v4.37l-.24-.1-.54-.24-.14-.07a5.27,5.27,0,0,1-2.52-2,2.16,2.16,0,0,1-.28-1h0c-2.54.69-4.83,1.37-6.08,1.68a4.09,4.09,0,0,1-.89.08,29.29,29.29,0,0,1-3.18-.26c.89,4.79,7.6,6.85,13.9,8.48v1.06h0v7.41h0l-.1,0-.23,0-1.17-.16-.43-.07-1-.16-.45-.07-1-.18-.36-.07c-.9-.17-1.77-.34-2.6-.52l-.32-.08-.87-.19-.36-.09-.74-.18-.34-.08-.74-.2-.21-.06-.81-.23-.15,0-.51-.16-.18-.07-.32-.12-.14-.06-.2-.1-.07,0c0-.05-.08-.08-.07-.11s0,0-.26,6.16a59.33,59.33,0,0,0,13.65,2.36v1.05h0v.07c.76,0,1.53-.06,2.29-.09s1.66.1,2.48.15a16.93,16.93,0,0,1,2.55.51v-.89Zm-.18-11.83.05,0v-.86c2,.71,3.55,1.53,4,2.62a2.16,2.16,0,0,1,.19,1.59c0-.08-.06-.16-.08-.23.48,1.83-1.3,2.65-4.13,2.85Z"/><path class="cls-17" d="M304.1,348.78c0,1.34.11,3.12,0,6.09,1.53-.64,3.09-1.23,4.69-1.75a41,41,0,0,1,8.83-1.91h.1v-.07A59.33,59.33,0,0,1,304.1,348.78Z"/><path class="cls-17" d="M337.81,353.37a8.54,8.54,0,0,0,1.27-4.15l.11-.08v-8h-.13a6.63,6.63,0,0,0-.11-.76,6.48,6.48,0,0,1,.12,1.64,4.28,4.28,0,0,0,.09-.61,7.39,7.39,0,0,1-1.26,4.66c-2,3-6.9,4.54-12.77,5v-.23h-.05v.89a15.92,15.92,0,0,1,1.6.55v-1.05l2.27-.34.11,2.58a16.13,16.13,0,0,1,4,3.5A9.52,9.52,0,0,0,337.81,353.37Z"/><path class="cls-20" d="M262.88,337.28c0-.35,0-.7,0-1,.28,6,2.91,11.49,7.35,16.13a23.78,23.78,0,0,1-5.52-14.82,22,22,0,0,1,1.71-8.42h0c-1.73-.07-1.31-1.84-.12-4a24.43,24.43,0,0,0-3.51,12.43c0,.31,0,.61,0,.91.36,7.09,4,13.66,10,19.14h0C266.56,351.81,262.88,344.81,262.88,337.28Z"/><path class="cls-20" d="M360.36,313.78h0l.19-.06-.21.06Z"/><path class="cls-20" d="M273.68,318.67h0l-.05,0,0,0Z"/><path class="cls-20" d="M362.58,313.07l.1,0h0Z"/><path class="cls-20" d="M369.47,321.39c4.23,4.81,6.63,10.31,6.63,16.15a21.75,21.75,0,0,1-1.66,8.26l.85-.47a22.75,22.75,0,0,0,2.37-9.1q0,.52,0,1a23.34,23.34,0,0,1-1.21,7.38l.21-.11-.55,1a27.65,27.65,0,0,1-2.95,5.71l.15.2A25.28,25.28,0,0,0,378,338.45c0-.3,0-.6,0-.91a25.64,25.64,0,0,0-6-16.05l-2.52-.1Z"/><path class="cls-20" d="M370.84,354.7l-.19-.11C363.5,362.78,351.45,369,337,371.8v0C351.51,369.11,363.63,362.88,370.84,354.7Z"/><path class="cls-20" d="M357.25,314.61l-.33.08.33-.07Z"/><polygon class="cls-20" points="324.39 306.6 324.29 306.83 324.3 306.82 324.39 306.6"/><path class="cls-20" d="M325.32,306.83l0,.05h0Z"/><path class="cls-20" d="M354.62,315.22l.32-.07-.33.08h0Z"/><path class="cls-20" d="M325,305.94v0l0-.08S325,305.92,325,305.94Z"/><path class="cls-20" d="M271.5,339.77a18.83,18.83,0,0,1-.24-2.91,19.25,19.25,0,0,1,1.26-6.76v0a4,4,0,0,0-1.25-2,21.45,21.45,0,0,0-1.91,8.77c0,8.73,5.43,16.88,15.31,22.93.46.29.95.56,1.43.84,1.27,0,2.57,0,3.86-.14C279.75,355.54,272.81,348.16,271.5,339.77Z"/><path class="cls-20" d="M356.17,359.79a37.15,37.15,0,0,0,10.55-9.33l-1.19-1.66c-5.4,7.65-15.82,13.66-28.72,16.46a17.53,17.53,0,0,1,.26,1.91A61,61,0,0,0,356.17,359.79Z"/><path class="cls-20" d="M371.48,336.86c0-5.56-2.2-10.87-6.33-15.56h-2.64c4.48,4.54,7.05,9.87,7.05,15.56a18.82,18.82,0,0,1-.23,2.91,20.57,20.57,0,0,1-2.46,6.93l1.62,1.06A21.87,21.87,0,0,0,371.48,336.86Z"/><path class="cls-20" d="M279.05,320.59h0l-.16,0,.15,0Z"/><path class="cls-21" d="M360.36,313.77l-.46.14.46-.13Z"/><path class="cls-21" d="M357.27,314.61l.3-.07-.32.07h0Z"/><path class="cls-21" d="M269.35,336.86a21.45,21.45,0,0,1,1.91-8.77h0a1.07,1.07,0,0,0-.51-.13,1.6,1.6,0,0,0-.63.15,10.05,10.05,0,0,1-3.57,1h-.1a22,22,0,0,0-1.71,8.42,23.78,23.78,0,0,0,5.52,14.82A42.33,42.33,0,0,0,280.4,360a25.47,25.47,0,0,0,5.43.65h.26c-.48-.28-1-.55-1.43-.84C274.78,353.74,269.35,345.59,269.35,336.86Z"/><path class="cls-21" d="M365.15,321.3c4.13,4.69,6.33,10,6.33,15.56a21.87,21.87,0,0,1-3,10.9l1.12.74,4.83-2.7a21.75,21.75,0,0,0,1.66-8.26c0-5.84-2.4-11.34-6.63-16.15-1.16,0-2.65-.07-4.31-.09Z"/><path class="cls-21" d="M364.29,357.42l3.24-5.82-.81-1.14a37.15,37.15,0,0,1-10.55,9.33,61,61,0,0,1-19.1,7.38c0,.16,0,.32,0,.48C347.86,365.84,357.25,362.29,364.29,357.42Z"/><path class="cls-22" d="M262.85,338.45s0-.08,0-.12c0,.34,0,.69,0,1,0,6.9,3.09,13.34,8.45,18.82a4.37,4.37,0,0,1,1.27-.55c.11,0,.2,0,.31-.05C266.85,352.11,263.21,345.54,262.85,338.45Z"/><path class="cls-22" d="M337,371.84c-.1.73-.23,1.45-.4,2.16,15.55-2.84,28.38-9.67,35.46-18.6l-1.18-.7C363.63,362.88,351.51,369.11,337,371.84Z"/><path class="cls-22" d="M373.34,351.5l.73,1A24.62,24.62,0,0,0,378,339.37c0-.35,0-.7,0-1,0,0,0,.08,0,.12A25.28,25.28,0,0,1,373.34,351.5Z"/><path class="cls-23" d="M329,341.88a2.33,2.33,0,0,1,.11.31c0,.07.06.15.08.23a2.16,2.16,0,0,0-.19-1.59c-.49-1.09-2-1.91-4-2.62v1.06C327,340,328.53,340.8,329,341.88Z"/><path class="cls-23" d="M335.25,325.54a8.81,8.81,0,0,1,1.07.62s0-.21-.05-.55l-1-.07Z"/><path class="cls-23" d="M303.78,327.71c0,5.56,7.24,7.79,14,9.55h0V336.2c-6.3-1.63-13-3.69-13.9-8.48h-.1Z"/><path class="cls-23" d="M325.11,350.05v1.06c5.87-.46,10.81-2,12.77-5a7.39,7.39,0,0,0,1.26-4.66,4.28,4.28,0,0,1-.09.61,7.66,7.66,0,0,1-1.17,3C335.94,348.05,331,349.6,325.11,350.05Z"/><path class="cls-23" d="M304.06,348.77h0a59.33,59.33,0,0,0,13.66,2.36h0v-1.05a59.33,59.33,0,0,1-13.65-2.36h0C304.09,348.05,304.08,348.4,304.06,348.77Z"/><path class="cls-24" d="M261,336.79v22s1.71,7.74,6,12.06V354S262.35,349.24,261,336.79Z"/><path class="cls-25" d="M326.68,351.28v1.05c.34.13.68.27,1,.43s.92.49,1.37.76l-.11-2.58Z"/><path class="cls-26" d="M368.29,314.63c-.39,0-.8,0-1.21,0a42.2,42.2,0,0,1,3.72,3.44,30.54,30.54,0,0,0-1.76-3.44l0,0Z"/><path class="cls-27" d="M367.08,314.67c-.92-.76-1.88-1.48-2.88-2.18h0l-.22.08-.93.34-.36.13a41.36,41.36,0,0,1,9.33,8.45,31.1,31.1,0,0,0-1.21-3.36v0A42.2,42.2,0,0,0,367.08,314.67Z"/><path class="cls-28" d="M354.61,315.23h-.05l.72.38-.66-.4Z"/><path class="cls-28" d="M348.8,316.32h0l-.35.05-.62.08-1.24.14-.58.05-1.34.09-.35,0c-.51,0-1,0-1.48,0h-.08c-.66,0-1.29,0-1.9-.06l-.45,0c-.45,0-.9-.08-1.33-.13l-.25,0-.28,0c-.46-.07-.9-.15-1.33-.24l-.37-.07c-.53-.12-1-.26-1.53-.41l-.31-.1c-.38-.13-.75-.26-1.11-.4l-.38-.16c-.37-.15-.73-.32-1.07-.49l-.17-.08c-.39-.21-.75-.42-1.1-.64l-.28-.18c-.26-.17-.51-.35-.75-.52l-.26-.2c-.3-.23-.58-.47-.85-.71l0,0c-.25-.23-.49-.47-.71-.71l-.08-.07h0c-2.41-.22-4.89-.34-7.41-.35h0l-1.23.64-.74.38-.43.22-.36.19-.9.46-.19.1L311.37,316l-3.18,1.65c-.85.31-1.68.59-2.49.85l-.77.24c-.56.18-1.11.34-1.65.5l-.4.12a1.81,1.81,0,0,1,.06,2.15,10.56,10.56,0,0,0-1.8,5.37V327a3.82,3.82,0,0,0-.08.39h0c.95.12,1.83.24,2.63.33a.59.59,0,0,1,.05-.14c0-.11,0-.22,0-.32v-.09s0,.07,0,.11,0-.16,0-.24v0h0v-.16h0v-.05h0v0h0v0h0v0h0c.63-5.73,6.52-8.5,13.93-9.19v-4.19h6.88l.05,4.11a57.56,57.56,0,0,1,10.86,1.69c.24,2.17.49,3,.61,4.33.18,1,.27,1.74.32,2.23q1.26.08,2.46.09h0a26.35,26.35,0,0,0-.35-2.65V323c-.07-.62-.16-1.17-.25-1.73s-.23-1.39-.35-2.48l-.05-.22a47.9,47.9,0,0,1,10.45,4.31c2.13-.84,5.89-1.24,9.79-1.41h0A47.58,47.58,0,0,0,348.8,316.32Z"/><path class="cls-28" d="M325.75,307.85q-.24-.51-.39-.93l0,0h0l-1-.06h0l0,.09-.4.9c.65,0,1.29.05,1.93.09Z"/><path class="cls-28" d="M294.47,321.09l-1.09.13-.68.08c-.42.05-.82.08-1.22.11l-.48,0-1.62.09h-.32l-1.23,0h-.19c-.84,0-1.65,0-2.42-.07h-.05c-.77-.05-1.5-.12-2.19-.2h-.13c-4.44,3.12-7.69,6.8-9.38,10.82h0a2.39,2.39,0,0,0,2,1.21h.18c1.33-.08,6.85-7.39,8.21-7.39h0c.87,0,1.74,0,2.6,0a37.47,37.47,0,0,1,8.12-4.89Z"/><path class="cls-29" d="M328.18,311.44a.52.52,0,0,0-.1-.11c-.23-.26-.45-.51-.65-.76a.18.18,0,0,0-.05-.07c-.21-.28-.41-.55-.59-.81l-.12-.19c-.17-.26-.33-.52-.47-.77h0c-.14-.26-.27-.5-.38-.74l0-.07h0c-.64,0-1.28-.07-1.93-.09l-1,2.18-.09.05h0l-.12.06-.19.1-.36.18-.42.22-.22.12-.2.1-.49.25C323.29,311.1,325.77,311.22,328.18,311.44Z"/><path class="cls-29" d="M358.18,321.41c1.45-.06,2.92-.09,4.33-.11h0a39,39,0,0,0-7.24-5.68l-.72-.38h0l-.13,0-.62.13-1.22.25-.75.14-.74.14-.82.15-1.46.24A47.58,47.58,0,0,1,358.18,321.41Z"/><path class="cls-29" d="M273.47,332.09c1.69-4,4.94-7.7,9.38-10.82h-.07c-.63-.07-1.23-.17-1.8-.27l-.27-.05q-.82-.15-1.56-.33l-.1,0h0a25.88,25.88,0,0,0-6.53,9.49v0c.07.17.15.35.22.53A8.65,8.65,0,0,0,273.47,332.09Z"/><path class="cls-29" d="M317.76,317.46h0c-7.41.69-13.3,3.46-13.93,9.19C304.46,320.91,310.35,318.15,317.76,317.46Z"/><path class="cls-29" d="M335.25,325.54h0A25.82,25.82,0,0,0,324.8,323v-.21h-.05l0,1.56h0C326.48,324.5,330.83,325.2,335.25,325.54Z"/><path class="cls-29" d="M314.11,325.85a.35.35,0,0,1,0-.13,1.7,1.7,0,0,0-.05.5h0c1.21-.33,2.48-.66,3.72-1v-1.86C315.46,324,314.38,324.88,314.11,325.85Z"/><path class="cls-29" d="M303.76,327.56a.59.59,0,0,0-.05.14h0A.76.76,0,0,1,303.76,327.56Z"/><path class="cls-29" d="M335.55,319.06a57.56,57.56,0,0,0-10.86-1.69h0a57.69,57.69,0,0,1,10.86,1.69c.27,2.39.49,4.69.6,5.93l.07,0c0,.22,0,.42,0,.58h.21c-.05-.49-.14-1.23-.32-2.23C336,322.09,335.79,321.23,335.55,319.06Z"/><path class="cls-30" d="M301.14,326.83a10.56,10.56,0,0,1,1.8-5.37,1.81,1.81,0,0,0-.06-2.15h0l-.49.13-1.18.31-.92.23-1.14.26-.87.19-1.12.22-.82.15-1.1.17-.54.09h-.05a37.47,37.47,0,0,0-8.12,4.89h0c5.3.19,10.52.89,14.52,1.41a3.82,3.82,0,0,1,.08-.39Z"/><path class="cls-30" d="M337.93,318.52l.05.22c.12,1.09.24,1.82.35,2.48s.18,1.11.25,1.73v.11a26.35,26.35,0,0,1,.35,2.65h.59c3.44,0,6.34-.45,7.26-1.83a3.43,3.43,0,0,1,1.58-1.06h0A47.9,47.9,0,0,0,337.93,318.52Z"/><path class="cls-31" d="M324.8,322.75v-.85c6.7.36,10.56,2.58,11.36,3.09-.11-1.24-.33-3.54-.6-5.93a57.69,57.69,0,0,0-10.86-1.69h0l-.05-4.11h-6.88v4.19h0c-7.41.69-13.3,3.45-13.93,9.18h0v0h0v0h0v0h0v.05h0V327h0v0c0,.08,0,.16,0,.24s0,.31.07.46h0a29.29,29.29,0,0,0,3.18.26,4.09,4.09,0,0,0,.89-.08c1.25-.31,3.54-1,6.08-1.68a1.7,1.7,0,0,1,.05-.5c-.27-1.27.65-2.65,3.7-3.37v1h0v1.86a31.35,31.35,0,0,1,6.31-1c.25,0,.49,0,.7,0l0-1.56Z"/><path class="cls-27" d="M271.88,317.74l-.21-.09a54.17,54.17,0,0,0-5.34,7.45,33.71,33.71,0,0,1,5.81-7.25Z"/><path class="cls-32" d="M273.59,319.06a3.14,3.14,0,0,1,.08-.4l0,0c-.29-.15-.51-.28-.66-.37l-.06,0-.13-.08,0,0,0,0-.56-.25h0a33.71,33.71,0,0,0-5.81,7.25h0c-1.19,2.17-1.61,3.94.12,4A29.84,29.84,0,0,1,273.59,319.06Z"/><path class="cls-32" d="M362.69,313h0l-.1,0c-.64.22-1.31.43-2,.64l-.19.06a42.13,42.13,0,0,1,9.1,7.62l2.52.1h0A41.36,41.36,0,0,0,362.69,313Z"/><path class="cls-32" d="M325.34,306.88l0-.05-.16-.46,0-.06c0-.12-.07-.23-.1-.33v0s0,0,0,0l0-.12-.05-.2v0l0-.1,0,.06-.49,1.1-.09.22Z"/><path class="cls-32" d="M355.28,315.62a39,39,0,0,1,7.24,5.68h2.64a38.47,38.47,0,0,0-7.89-6.69h0l-.33.07c-.63.16-1.3.31-2,.46l-.32.07Z"/><path class="cls-32" d="M279,320.59l-.15,0-1.28-.34h0l-.38.43a2,2,0,0,1-1.55.7h0a26.85,26.85,0,0,0-4.4,6.75h0a4,4,0,0,1,1.25,2A25.88,25.88,0,0,1,279,320.59Z"/><path class="cls-33" d="M274.87,321.18a2.09,2.09,0,0,1-1.28-2.12,29.84,29.84,0,0,0-7.15,10.06h.1a10.05,10.05,0,0,0,3.57-1,1.6,1.6,0,0,1,.63-.15,1.07,1.07,0,0,1,.51.13,26.85,26.85,0,0,1,4.4-6.75A2.12,2.12,0,0,1,274.87,321.18Z"/><path class="cls-33" d="M359.9,313.91l-.72.2-.85.23-.76.2-.3.07a38.47,38.47,0,0,1,7.89,6.69c1.66,0,3.15.05,4.31.09h0a42.13,42.13,0,0,0-9.1-7.62h0Z"/><path class="cls-26" d="M273.67,318.66a3.14,3.14,0,0,0-.08.4,2.09,2.09,0,0,0,1.28,2.12,2.12,2.12,0,0,0,.78.15h0a2,2,0,0,0,1.55-.7l.38-.43-.06,0c-.39-.12-.76-.23-1.1-.35l-.16-.06c-.34-.12-.66-.24-.95-.36l-.16-.06-.79-.35h0c-.24-.11-.45-.21-.63-.31l-.05,0Z"/><path class="cls-34" d="M317.76,323.41h0v-1c-3,.72-4,2.1-3.7,3.37a.35.35,0,0,0,0,.13C314.38,324.88,315.46,324,317.76,323.41Z"/><path class="cls-34" d="M324.8,322.75V323a25.82,25.82,0,0,1,10.45,2.58l1,.07c0-.16,0-.36,0-.58l-.07,0c-.8-.51-4.66-2.73-11.36-3.09Z"/><path class="cls-34" d="M303.78,327.71h.08c0-.15-.05-.31-.07-.46s0-.07,0-.11v.09c0,.1,0,.21,0,.32a.76.76,0,0,0,0,.15Z"/><path class="cls-35" d="M241.22,292.37a200.2,200.2,0,0,0-24.42,12.7,79.94,79.94,0,0,0,3.74,10.3l0,0c2,3.84,4.14,7.52,5.28,9.42l0,0a14.15,14.15,0,0,0,1,1.24h0c1.47-.27,4.3-.82.54-6.09-4-5.6-6.68-12.81-3.2-16.82,2.67-3.09,15.85-9.36,23.56-9.36,2.28,0,4.09.55,5,1.89,4,5.87,5.61,23.76,4.81,24-.21.06-.15.14.07.14a3.27,3.27,0,0,0,1.67-.64h0l.1-.08.46-.35,0,0a8.88,8.88,0,0,0,2.07-2.9v0c1.14-5.46-3.35-18.86-6.89-27.91h0a4.87,4.87,0,0,0-.88-.95h0C249.81,288.71,245.44,290.5,241.22,292.37Z"/><path class="cls-36" d="M259.49,319.17l-.1.08"/><path class="cls-36" d="M259.49,319.17l.46-.35"/><path class="cls-36" d="M259.38,319.26h0"/><path class="cls-35" d="M309.74,270.75q-5.31,1-11.17,2.42c-10.75,2.67-21.59,5.82-32.08,9.4-.21,2.68-.33,5.65-.29,8.69v.06c.07,2,.18,4,.29,5.69v.12a44.38,44.38,0,0,0,1.89,9.79,18,18,0,0,0,3.1,5.82l0,.05c1.91,2.13,4,3.26,5.17,3.26s1.52-.88.68-2.7c-2.88-6.26-3.17-22.43-.67-27.1,2.07-3.85,13.7-7.86,21.67-7.86,3.62,0,6.48.82,7.36,2.86,2.83,6.52,6.92,29.28,6.08,29.39-.5.07.1,1.25,1.31,1.25.81,0,1.89-.53,3.09-2.26,1.57-2.26-.06-12.84-2.17-22.57V287C312.56,280.72,310.9,274.74,309.74,270.75Z"/><path class="cls-35" d="M374.81,288.64c-.54-1.26-1.05-2.32-1.5-3.17-1.69-3.18-5.2-7.42-11.57-10.88s-15.63-6.15-28.87-6.15a112.77,112.77,0,0,0-12.46.72,23.67,23.67,0,0,0,0,3.77s0,.08,0,.12c.36,2.95,1.1,7.34,2.53,13.8.06.26.12.52.17.78v0c.31,1.28.62,2.57.94,3.87.86,3.49,1.75,7.11,2.57,10.86a15.23,15.23,0,0,0,1.06,3.16c0,.09.1.17.14.26.17.33.35.64.53.95s.18.35.28.51a13.43,13.43,0,0,0,1.59,2c.22.22.45.44.7.65a16.89,16.89,0,0,0,6.43,3.2,8.23,8.23,0,0,0,2.19.39c6.33,0-7.11-15.63-8.4-27.22-1.22-11,.14-15.73,7.76-15.73a27,27,0,0,1,3.86.32c11,1.6,24.22,5.2,26.62,15.21s-3.2,19-2.8,21.63a.69.69,0,0,0,.72.65,2,2,0,0,0,.89-.27l0,0C373.67,303.65,374.94,295.71,374.81,288.64Z"/><path class="cls-35" d="M210.44,324.09c2.6,8.21-6.61,11.42-6.61,11.42a2.3,2.3,0,0,0,.34,0c1,0,4.4-.41,9.67-5a5.88,5.88,0,0,0,1.84-3.25s0-.07,0-.1c.5-4-1.37-9.78-3.51-14.72l0-.07c-.61-1.26-1.19-2.34-1.63-3.15h0c-1.49,1.05-2.94,2.11-4.32,3.18h0C207,314.35,208.64,318.4,210.44,324.09Z"/><path class="cls-35" d="M188.5,332.75a4.44,4.44,0,0,0,1.88,3l0,0a8.62,8.62,0,0,0,3.61.75l6.58.17h.06l1-.12h0c-1-.83-5.85-4.88-6.21-10.05-.12-1.73-.2-2.94-.26-3.79v0A43,43,0,0,0,188.5,332.75Z"/><path class="cls-37" d="M321.72,258c1.06,0,2.27-.06,3.64-.19,4-.39,7.59-.55,10.76-.55,14.95,0,20.85,3.53,20.85,3.53a16.53,16.53,0,0,0,5.89,1.57c4.51,0,1.16-5.59-7.91-9.19-6.86-2.72-17.16-3.62-25.57-3.62a64.57,64.57,0,0,0-13.08,1c-2.86.74-3.18,2.72-2.49,4.26C314.21,255.76,315.14,258,321.72,258Z"/><path class="cls-37" d="M304.05,262.15h.22a4.78,4.78,0,0,0,.21-9.55h-.22a4.78,4.78,0,0,0-.21,9.55Z"/><path class="cls-38" d="M110.26,167.06l-2.93,2.26v.22c0,1.8.31,15.06,1.7,27.08a102,102,0,0,0,2,11.95,75.62,75.62,0,0,1,6.44-4.67v-.06l-7.16-36.59Z"/><path class="cls-11" d="M252.85,108.3l-1.36.21-4.56.7s0,.1,0,.28c-.16,2.47-1.18,21.25,4.34,35.68,4.63-.18,5.95-1,6.28-1.26a.72.72,0,0,0,.1-.1,185.92,185.92,0,0,1-5-24.15C252,115,252,110.77,252.85,108.3Z"/><path class="cls-11" d="M242.83,147.68l3.64-.91v0c-1.15-22.52-12.06-33.89-12.06-33.89l-5.94,1.1h0l-.19,0c8.13,8.69,12.8,26.15,14.15,31.84.24,1,.37,1.63.41,1.79Z"/><path class="cls-39" d="M364,74a71.21,71.21,0,0,1,8.32,13.57,72.56,72.56,0,0,1,5.12,14.6c.32,1.25.48,2.53.74,3.8.12.63.27,1.26.37,1.9l.21,1.93c.15,1.29.33,2.58.46,3.87s.11,2.61.19,3.92l.12,2c0,.66,0,1.32,0,2v4c-.05,2.68-.34,5.35-.28,8.14a71.75,71.75,0,0,0,2.82-7.76l.87-4.06c.16-.68.28-1.37.41-2.05s.14-1.38.2-2.08.11-1.51.17-2.27.1-1.27.14-1.91c0-1.39-.09-2.8-.13-4.2l-.11-2.1c-.09-.7-.21-1.4-.31-2.09-.25-1.39-.42-2.79-.75-4.16a47.53,47.53,0,0,0-6.65-15.45c-.48-.72-1-1.43-1.52-2.12A33.87,33.87,0,0,0,364,74Z"/><path class="cls-39" d="M146.67,196.72A71,71,0,0,1,137,184.06a72.14,72.14,0,0,1-6.57-14c-.44-1.21-.73-2.47-1.12-3.7-.18-.62-.39-1.23-.56-1.85l-.4-1.9c-.27-1.27-.59-2.53-.85-3.81s-.37-2.58-.58-3.88l-.32-2c0-.65-.1-1.31-.17-2l-.4-4c-.21-2.67-.2-5.35-.54-8.12a69.88,69.88,0,0,0-2,8L123,151c-.08.69-.13,1.38-.19,2.08s0,1.39,0,2.08c0,1.4.05,2.79.11,4.19s.37,2.78.55,4.17l.33,2.09c.15.68.34,1.36.51,2,.39,1.36.7,2.74,1.17,4.07a47.47,47.47,0,0,0,8.17,14.7A35.77,35.77,0,0,0,146.67,196.72Z"/><path d="M463.46,281.78c-18.09-15.71-40.28-41.88-53.62-71.74-6.79-15.19-15.81-36-24.83-56l-3-6.54A66.34,66.34,0,0,0,371.6,69.45a62.67,62.67,0,0,0-60.54-17.18A124.69,124.69,0,0,0,290,41.87a129.59,129.59,0,0,0-46.25-8.23c-17.93,0-38.08,3.32-60.6,11.27-16.93,6-30.47,13.51-41.22,22.08a98.51,98.51,0,0,0-31.68,43.46c-5.72,15.43-7.36,31.07-7.37,45.06,0,3.69.12,7.28.31,10.71l-.35.32-.77.77v1.08c0,2.08.14,9.72.81,18.65.34,4.47.81,9.25,1.47,13.82.23,1.61.5,3.17.78,4.7l-.06.33c-.32,2.24-.48,4.82-.62,7.63-.22,4.2-.38,8.89-.83,13.36a45.8,45.8,0,0,1-2.5,11.84,42.15,42.15,0,0,1-4.94,8.71c-3.12,4.44-7.26,9.36-12,16.23a179.44,179.44,0,0,0-15.8,28,228.71,228.71,0,0,0-12.51,32.91c-2.78,9.84-4.19,18.55-4.2,26.2A45,45,0,0,0,54,366a28.92,28.92,0,0,0,17.42,17.76,50.71,50.71,0,0,0,17.45,3.12h.64a29.79,29.79,0,0,0,14.35-3.69c7.53-4.1,13.5-11,18.36-18.87a113.39,113.39,0,0,0,8.38-16.93,162.42,162.42,0,0,0,0,34.22,362.78,362.78,0,0,0,6.27,40.17l4.07,19.78,2,9.93c.67,3.34,1.45,6.64,2.23,9.95,3.12,13.22,6.76,26.25,10.56,39.21s7.79,25.83,11.71,38.7,7.8,25.73,11.12,38.64c1.62,6.43,3.09,13,4.4,19.51s2.49,13.1,3.43,19.68l.67,5c.23,1.68.42,3.33.73,5.17a18.16,18.16,0,0,0,.82,3.2,7.51,7.51,0,0,0,1.34,2.27l.27.3a6,6,0,0,0,.7.58,4.89,4.89,0,0,0,.54.32l.42.21.57.22.46.14a28,28,0,0,0,2.92.65c.91.16,1.78.29,2.65.41,6.92.9,13.68,1.33,20.51,1.62s13.65.33,20.56,0a96,96,0,0,0,10.5-1.06,34.62,34.62,0,0,0,5.55-1.35,14.9,14.9,0,0,0,3.12-1.44,8.38,8.38,0,0,0,.87-.62l.45-.36.46-.47a7.33,7.33,0,0,0,.89-1.17l.39-.7a28.55,28.55,0,0,0,2.87-11.32c.28-3.57.32-7,.41-10.32.13-6.71.42-13.28,1.11-19.85,1.73-13.32,2.28-26.94,5.91-39.11a34.82,34.82,0,0,1,3.55-8.26,13.05,13.05,0,0,1,2.45-2.94,11.24,11.24,0,0,1,3.16-1.78,10.74,10.74,0,0,1,3.54-.72,5.53,5.53,0,0,1,2.82.69,6.55,6.55,0,0,1,2.22,2.18,15.7,15.7,0,0,1,1.65,3.57,38,38,0,0,1,1.51,8.93c.19,3.11.15,6.45.13,9.8-.06,6.69-.2,13.4-.37,20.12l-1.16,40.52a11,11,0,0,0,3.06,7.13,19.48,19.48,0,0,0,5,3.9,36.94,36.94,0,0,0,10.67,3.76,85.28,85.28,0,0,0,21.13,1.13,62.93,62.93,0,0,0,21-4.45,40.5,40.5,0,0,0,9.62-5.64,32.34,32.34,0,0,0,4.16-4A27.93,27.93,0,0,0,368,621q.44-.62.84-1.29l.4-.7c.14-.28.23-.44.43-.9h0l.28-.67,0-.79c.15-5.57.34-11.16.56-16.73s.42-11.19.87-16.54c.48-5.77.73-11.29,1.06-16.91l.95-16.75c.7-11.14,1.31-22.3,2.26-33.36.24-2.77.5-5.51.8-8.24s.66-5.43,1.12-8l2.38-11.89,2.11.41c2.27.39,4.57.7,6.91.89a53.3,53.3,0,0,0,7.17.13,30.74,30.74,0,0,0,7.57-1.32,16.65,16.65,0,0,0,7.51-4.72,13.61,13.61,0,0,0,2.5-4.16,14.6,14.6,0,0,0,.66-2.24c.07-.36.15-.78.2-1.09l.12-.91c.54-4.64.71-9,.93-13.4.74-17.6.81-35.12.5-52.66s-1.1-35.09-2.72-52.62c-.39-4.39-.95-8.76-1.54-13.13s-1.38-8.73-2.3-13.07c-.48-2.17-1-4.33-1.53-6.48s-1.2-4.29-1.87-6.42c-.87-2.59-1.83-5.17-2.95-7.69a108.64,108.64,0,0,0,15.9,13.92,79.67,79.67,0,0,0,15.33,8.65,40.24,40.24,0,0,0,15,3.39,25.4,25.4,0,0,0,3.5-.24A25.93,25.93,0,0,0,470.05,326a28.6,28.6,0,0,0,5.87-17.73A35.23,35.23,0,0,0,463.46,281.78ZM314.52,58.16A56.22,56.22,0,0,1,366.92,74a58.7,58.7,0,0,1,7.45,9.42c.53.69,1,1.4,1.52,2.12A47.53,47.53,0,0,1,382.54,101c.33,1.37.5,2.77.75,4.16.1.69.22,1.39.31,2.09l.11,2.1c0,1.4.16,2.81.13,4.2,0,.64-.1,1.27-.14,1.91v.06A59.23,59.23,0,0,1,366.92,157,56.28,56.28,0,0,1,326.5,174.2a55.68,55.68,0,0,1-19.68-3.57c-1.47-.46-2.92-1-4.33-1.58a52.34,52.34,0,0,1-17.94-12.85,58.87,58.87,0,0,1-11.58-19,62.42,62.42,0,0,1,0-43.89,58.48,58.48,0,0,1,11.58-19,52.2,52.2,0,0,1,17.93-12.86A47.91,47.91,0,0,1,314.52,58.16Zm-197,145.74a75.62,75.62,0,0,0-6.44,4.67,102,102,0,0,1-2-11.95c-1.34-11-1.69-22.78-1.75-27l0,0v-.22l2.93-2.26,0,.19c1-.72,2.08-1.54,3.37-2.45l.66-.46-.1-.32,1.81-1.19a59.93,59.93,0,0,0,15.47,31.6l.12.13q-7.08,4.42-14.17,9.28Zm4.34-50.73A53.52,53.52,0,0,1,137,115.63a50.91,50.91,0,0,1,36.54-15.52,51.69,51.69,0,0,1,6.26.4,40.76,40.76,0,0,1,15.13,2.89,46.43,46.43,0,0,1,16.32,11.13A53,53,0,0,1,222,131.3,56.55,56.55,0,0,1,223,170.6a52.78,52.78,0,0,1-9.83,17.32,47,47,0,0,1-11.68,9.87A50.73,50.73,0,0,1,137,190.72,53.53,53.53,0,0,1,121.81,153.17Zm110,0a59.52,59.52,0,0,0-22-46.6,56.26,56.26,0,0,1,12.78,10.62c9.63,10.7,13.49,22.48,13.5,33.64a48.68,48.68,0,0,1-6.8,24.75,45.4,45.4,0,0,1-5,6.85A60.44,60.44,0,0,0,231.8,153.17Zm20.78-33.51a185.92,185.92,0,0,0,5,24.15.72.72,0,0,1-.1.1c0,.12.09.24.13.35q-5.52,1.14-11.19,2.48v0l-3.64.91v-.06l-.28.07c0-.62-.07-1.24-.13-1.86-1.35-5.69-6-23.15-14.15-31.84l.19,0h0q8.91-2.36,18.44-4.46c0-.18,0-.28,0-.28l4.56-.7,1.56-.33a76,76,0,0,0-.53,9C252.52,118,252.56,118.82,252.58,119.66Zm-11.05,42.07a54.36,54.36,0,0,0,1-7.38c0-.42,0-.85,0-1.27q8.85-2.22,17.37-3.94c.05.1.11.2.16.31a43.74,43.74,0,0,0,4,6.25c.49.63,1,1.23,1.52,1.81a25.73,25.73,0,0,0,6.11,5.16c1.12.65,2.18,1.31,3.21,2a137.74,137.74,0,0,0-37.29,9A54.8,54.8,0,0,0,241.53,161.73Zm17.53-44.59a69.66,69.66,0,0,1,3.53-21.93,41.56,41.56,0,0,1,10.83-16.69c.54-.53,1.11-1,1.68-1.53a66.33,66.33,0,0,0,4.95,83.17c-1.55-1-3.21-2.08-5-3.14a20.89,20.89,0,0,1-5.76-5.33A46.45,46.45,0,0,1,262,137.08,67.8,67.8,0,0,1,259.06,117.14ZM123,98.46A93.34,93.34,0,0,1,146,72.11c10.12-8.07,23-15.27,39.33-21,21.9-7.73,41.3-10.89,58.42-10.89a123.38,123.38,0,0,1,41.9,7.08c.68.25,1.37.47,2,.72a117.68,117.68,0,0,1,15,6.93,100.66,100.66,0,0,0-11.07,4.14c-1.83.81-3.73,1.71-5.68,2.73a73.79,73.79,0,0,0-17,12,48.16,48.16,0,0,0-12.47,19.31,74.87,74.87,0,0,0-2.48,9.54c-10.35,2.08-20.19,4.42-29.52,6.95A60.07,60.07,0,0,0,203.58,96.3a64.28,64.28,0,0,0-22.72-4,72,72,0,0,0-14.38,1.45c-1.51.31-2.74.62-3.68.87a57.71,57.71,0,0,0-30.49,16.46,59.68,59.68,0,0,0-10.71,15.1c-.91,1.83-1.73,3.72-2.46,5.65a60.49,60.49,0,0,0-3.81,18.92c0,.81-.06,1.62-.06,2.44,0,1.38.06,2.74.15,4.1-2.29,1.52-4.26,2.9-5.93,4.09-.06-1.92-.1-3.87-.1-5.85C109.39,137.53,112.23,117.14,123,98.46Zm4.16,239.37c-.81,2.3-1.68,4.64-2.62,7-3.73,9.24-8.57,18.33-14.47,24.91a35.2,35.2,0,0,1-9.56,7.76,23.23,23.23,0,0,1-11.07,2.83H89c-1.07,0-2.09-.09-3.09-.16a43.46,43.46,0,0,1-10.71-2c-5.78-2-9.86-5.08-12.68-9.48s-4.35-10.29-4.35-17.85c0-6.84,1.28-15,4-24.42a223,223,0,0,1,12.16-32,170.33,170.33,0,0,1,19.63-33.11c2.81-3.74,5.36-6.93,7.61-10.12a49,49,0,0,0,5.66-10,45.11,45.11,0,0,0,2.52-10.22c.76-5.38,1-11,1.21-15.89v-.14l.12-.08c2.46-1.81,4.93-3.56,7.4-5.28q8.53-6,17.09-11.24A57.32,57.32,0,0,0,172,212.73c.5,0,1,0,1.49,0a57.07,57.07,0,0,0,9.58-.82,196.83,196.83,0,0,0-26.21,36.21,210.3,210.3,0,0,0-15.14,33.08,126.76,126.76,0,0,0-6.43,24.94h0v0A200.81,200.81,0,0,1,127.2,337.83Zm277.19,6.54c.46,4.3.78,8.62,1.16,12.93,1.41,17.27,2,34.66,2.15,52s-.13,34.81-1,52.11c-.24,4.29-.52,8.68-1,12.72l-.09.72-.09.52a6.67,6.67,0,0,1-.27.89,4.28,4.28,0,0,1-.85,1.43,7.63,7.63,0,0,1-3.49,2.08c-3.16,1-7.24,1.12-11.23.8q-1.65-.14-3.33-.36l-5.88,1.26q1.34-16.59,2.41-33.16c.36-5.84.69-11.68.95-17.53s.47-11.7.32-17.63h-2.62c-.28,5.74-.93,11.54-1.61,17.31s-1.45,11.55-2.25,17.32q-2.32,16.76-5,33.47l-.28,0-5.68,34.09,0,.27c-.94,11.25-1.59,22.45-2.12,33.66l-.76,16.79c0,.74-.07,1.5-.1,2.25-.21,4.83-.41,9.7-.74,14.37-.28,3.9-.43,7.68-.54,11.45-.05,1.85-.1,3.7-.14,5.56-.1,5.31-.17,10.6-.21,15.92l-.05.09c-.17.27-.35.55-.54.83a19.74,19.74,0,0,1-1.29,1.64,23.07,23.07,0,0,1-2.35,2.28c-.27.24-.52.48-.81.71a33,33,0,0,1-7.76,4.51,55.26,55.26,0,0,1-18.36,3.81,78.05,78.05,0,0,1-19.11-1,29.11,29.11,0,0,1-8.32-2.9,11.38,11.38,0,0,1-2.95-2.27,3.55,3.55,0,0,1-1-1.87l1.24-40.25c.18-6.74.34-13.48.4-20.26s.26-13.93-2.05-21.32a24,24,0,0,0-2.61-5.55,14.63,14.63,0,0,0-5-4.74,13.59,13.59,0,0,0-6.86-1.73,18.51,18.51,0,0,0-6.32,1.25,18.76,18.76,0,0,0-2.84,1.32,15.4,15.4,0,0,0-1.39.85c-.47.32-.91.67-1.34,1a20.86,20.86,0,0,0-4,4.76A42.25,42.25,0,0,0,264.3,547a124.9,124.9,0,0,0-3.95,20.5l-2.25,20.15c-.7,6.83-1,13.73-1.13,20.48-.08,3.37-.13,6.71-.38,9.86a21,21,0,0,1-1.92,8.15l-.13.25-.15.1a6.77,6.77,0,0,1-1.47.65,26.37,26.37,0,0,1-4.26,1,89,89,0,0,1-9.58,1c-6.54.33-13.19.28-19.83,0-4.42-.18-8.87-.45-13.26-.85-2.18-.19-4.35-.41-6.48-.69-.8-.11-1.59-.23-2.35-.36-.45-.08-.92-.17-1.32-.26a11.23,11.23,0,0,1-.24-1.14c-.49-3-.88-6.55-1.38-9.88-1-6.76-2.16-13.47-3.51-20.12s-2.83-13.27-4.5-19.9c-.59-2.27-1.21-4.54-1.83-6.8-2.95-10.83-6.17-21.52-9.42-32.19C171,524.1,167,511.26,163.24,498.37s-7.4-25.79-10.48-38.79c-.76-3.25-1.53-6.49-2.19-9.76s-1.36-6.53-2-9.86l-4-19.8c-2.58-13.17-5.18-26.28-7.31-39.45-1.08-6.59-2-13.19-3-19.82-.82-5.65-1.5-11.32-2.33-17.05,2.22-5.91,4-11.71,5.45-16.9a196.71,196.71,0,0,0,4.39-19.77v-.09c.94-7.57,4.17-19.81,10-33.76a203.33,203.33,0,0,1,27.51-46.89A171.19,171.19,0,0,1,196,208.15a57.91,57.91,0,0,0,13.8-8.38c1.72-.77,3.59-1.63,5.67-2.6A44.08,44.08,0,0,0,232,183.28c.75-.36,1.48-.74,2.24-1.08a131.84,131.84,0,0,1,48.65-11.61l1.06,0c1,.61,2,1.21,3,1.78a37.88,37.88,0,0,0,8.51,3.46,41.33,41.33,0,0,0,10,1.28,61.8,61.8,0,0,0,29.85,3,74.19,74.19,0,0,1,6.79,3.9,76.68,76.68,0,0,1,22.51,22.65c8.48,12.92,13.22,27.61,16,40.67,1.4,6.53,2.32,12.65,3,17.94v.05a32.88,32.88,0,0,0-3.35-4.79c-.15-.19-.34-.38-.5-.57a46.38,46.38,0,0,0-7.55-6.89,60.34,60.34,0,0,0-11.84-6.75c-8.89-3.86-20-6.42-33.38-6.42a129.75,129.75,0,0,0-37,5.82c-28.4,8.46-56.24,20.75-77.93,35.68-10.85,7.46-20.17,15.59-27.23,24.3s-11.9,18-13.6,27.77a58.49,58.49,0,0,0-.87,10A53.45,53.45,0,0,0,171,352a50.88,50.88,0,0,0,3.79,12.8c4.54,10.15,12.66,19.14,24.55,25.5,11.73,6.27,27.1,10,46.4,10.13q-1.59,1.81-3.25,3.54-2,2.06-4.1,3.93A46.33,46.33,0,0,1,228,415.05l-2.06,1c-.69.33-1.42.54-2.13.81s-1.42.55-2.15.75l-2.22.57a35.84,35.84,0,0,1-4.51.84c-1.49.29-3.1.3-4.65.45a77.79,77.79,0,0,1-17-.75c-.59-.09-1.18-.15-1.77-.25a75.43,75.43,0,0,1-9.17-2.17,55.36,55.36,0,0,1-8.68-3.42l-1.3,2.27.72.37a58.56,58.56,0,0,0,8.35,3.57,77.37,77.37,0,0,0,9.46,2.59,82.65,82.65,0,0,0,19.54,1.71c1.65-.1,3.27-.06,4.94-.31a38.26,38.26,0,0,0,5-.76l2.46-.54c.82-.2,1.61-.5,2.42-.75s1.61-.49,2.39-.82l2.32-1A49.32,49.32,0,0,0,240,413.09c.65-.57,1.29-1.15,1.9-1.77a307.59,307.59,0,0,0,30.27-34.7,28.32,28.32,0,0,0,3.33-8.94c.1-.55.16-1.08.24-1.61a29,29,0,0,0,9.83,2.07,50.3,50.3,0,0,0,5.21,0,52.36,52.36,0,0,0,5.24-.54h0l.68-.13.69-.41a67.57,67.57,0,0,1,13.87-6.47,32.78,32.78,0,0,1,7.09-1.56L320,359c.56,0,1.06.07,1.59.09a8.16,8.16,0,0,1,6.51,4.68,11.55,11.55,0,0,1,1.17,4.68c.68,4,0,9.24-6.16,12.85l-2.4,2.48,2.12,2.68c.15.19.45.62.68,1s.46.78.7,1.16c.44.8.85,1.62,1.21,2.46a25.51,25.51,0,0,1,1.19,3.72,2.58,2.58,0,0,1,.2,1.21c0,.08,0,.16,0,.24A15.84,15.84,0,0,1,325,406.24l-.64,1.18-.83,1.09a14.19,14.19,0,0,1-1.78,2.12c-.7.68-1.26,1.33-2.06,2l-2.37,2.14-9.49,8.55-19,17.09-4.75,4.28c-.76.69-1.65,1.48-2.41,2.2l-2.32,2.17q-4.61,4.27-9.56,8.06a96.74,96.74,0,0,1-21.5,12.45,77.86,77.86,0,0,1-11.81,3.83,72.69,72.69,0,0,1-12.27,1.92,77.25,77.25,0,0,1-12.45-.09c-2.07-.25-4.15-.4-6.2-.82l-3.08-.54-3.05-.73A100.68,100.68,0,0,1,176,464.1l-.63,1.15-.63,1.15a104.05,104.05,0,0,0,23.85,10l3.15.83,3.19.65c2.12.48,4.29.7,6.44,1,1.19.12,2.38.22,3.58.3a69.6,69.6,0,0,0,9.47.12,75.62,75.62,0,0,0,13-1.69A81.93,81.93,0,0,0,250,473.86a101,101,0,0,0,22.91-12.49c3.54-2.55,6.94-5.28,10.18-8.14l2.4-2.13c.81-.72,1.52-1.33,2.36-2.05l4.85-4.15,19.41-16.61,9.71-8.3,2.42-2.08c.81-.68,1.7-1.6,2.55-2.39a20,20,0,0,0,2.38-2.7c.38-.48.76-.94,1.12-1.43l1-1.6a23.64,23.64,0,0,0,3.25-11.56,20.54,20.54,0,0,0-.14-2.94,22.55,22.55,0,0,0-.78-4c-.29-1.06-.63-2.1-1-3.11a34.26,34.26,0,0,0-1.52-3.31l-.16-.29a25.52,25.52,0,0,0,3.61-5,23.66,23.66,0,0,0,2.07-5.52c.17-.71.3-1.43.4-2.16v0c.07-.57.13-1.15.16-1.73a19.56,19.56,0,0,0,0-2.42c0-.16,0-.32,0-.48a17.53,17.53,0,0,0-.26-1.91,19.84,19.84,0,0,0-.92-3.29c-.23-.6-.48-1.19-.77-1.77-.19-.37-.39-.74-.61-1.11a17.21,17.21,0,0,0-1.46-2.07,16.13,16.13,0,0,0-4-3.5c-.45-.27-.9-.53-1.37-.76s-.67-.3-1-.43a15.92,15.92,0,0,0-1.6-.55,16.93,16.93,0,0,0-2.55-.51c-.82,0-1.67-.17-2.48-.15s-1.53,0-2.29.09h-.1a41,41,0,0,0-8.83,1.91c-1.6.52-3.16,1.11-4.69,1.75-.85.35-1.69.72-2.53,1.1-.27.13-.55.24-.82.36-1.88.89-3.66,1.81-5.47,2.84l-1.43.84c-1.15.19-2.45.36-3.66.46l-.28,0c-1.29.11-2.59.15-3.86.14h-.26a25.47,25.47,0,0,1-5.43-.65,14.45,14.45,0,0,1-2.51-.8L275.71,358a5.3,5.3,0,0,0-1.62-.47,3.67,3.67,0,0,0-.72,0c-.18,0-.35.05-.52.07h0c-.11,0-.2,0-.31.05a4.37,4.37,0,0,0-1.27.55,4,4,0,0,0-.51.39,4.45,4.45,0,0,0-.94,1.2,7,7,0,0,0-.36.86l-.15.6-.09.48c-.17,1.14-.18,1.85-.26,2.63s-.14,1.46-.25,2.16a21.28,21.28,0,0,1-1.51,5.26,21.75,21.75,0,0,1-1.27,2.56c-.36.61-.75,1.2-1.16,1.79s-.84,1.13-1.35,1.8l-1.08,1.4q-7.84.62-14.92.61c-2.57,0-5.07-.06-7.48-.17-1.83-5-4.66-15.56-1.67-21.12a6.93,6.93,0,0,1,5.12-3.55c6.61-1.28,12.32-2.3,17.14-2.89,0-.89,0-1.78,0-2.64,0-2.28.07-4.32.07-5.22,0-4.14-.12-9.2,1.21-13a36.74,36.74,0,0,1,9-14.07l.82.37.21.09.27.12.56.25,0,0,0,0,.13.08.06,0c.15.09.37.22.66.37l.05,0,.05,0c.18.1.39.2.63.31h0l.79.35.16.06c.29.12.61.24.95.36l.16.06c.34.12.71.23,1.1.35l.08,0,1.28.34.16,0,.1,0q.74.18,1.56.33l.27.05c.57.1,1.17.2,1.8.27h.08l.12,0c.69.08,1.42.15,2.19.2h.05c.77.05,1.58.07,2.42.07h.19l1.23,0h.32l1.62-.09.48,0c.4,0,.8-.06,1.22-.11l.68-.08,1.09-.13.24,0,.52-.08,1.1-.17.82-.15,1.12-.22.87-.19,1.14-.26.92-.23,1.18-.31.49-.13.41-.12c.54-.16,1.09-.32,1.65-.5l.77-.24c.81-.26,1.64-.54,2.49-.85l3.18-1.65,5.55-2.87.17-.09.92-.47.36-.19.43-.22.74-.38,1.23-.64h0l.49-.25.2-.1.22-.12.42-.22.36-.18.19-.1.12-.06h0l.09-.05,1-2.18.4-.9,0-.09.1-.23.49-1.1,0-.06,0,.1v0l.05.2,0,.12,0,.08c0,.1.06.21.1.33l0,.06.16.46,0,.05,0,0q.15.42.39.93l0,.07,0,.07c.11.24.24.48.38.74h0c.14.25.3.51.47.77l.12.19c.18.26.38.53.59.81a.18.18,0,0,1,.05.07c.2.25.42.5.65.76l.12.12.07.07c.22.24.46.48.71.71l0,0c.27.24.55.48.85.71l.26.2c.24.17.49.35.75.52l.28.18c.35.22.71.43,1.1.64l.17.08c.34.17.7.34,1.07.49l.38.16c.36.14.73.27,1.11.4l.31.1c.49.15,1,.29,1.53.41l.37.07c.43.09.87.17,1.33.24l.18,0,.35.05c.43.05.88.1,1.33.13l.45,0c.61,0,1.24.06,1.9.06q.75,0,1.56,0l.35,0,1.34-.09.58-.05,1.24-.14.62-.08.34-.06c.49-.07,1-.14,1.49-.23l.85-.16.71-.13.75-.14,1.22-.25.62-.13.13,0h.07l.33-.08c.68-.15,1.35-.3,2-.46l.33-.08.32-.07.76-.2.85-.23.72-.2.46-.14.21-.06c.7-.21,1.37-.42,2-.64l.1,0,.37-.13.93-.34.22-.09h0c1,.7,2,1.42,2.88,2.18.41,0,.82,0,1.21,0H369l0,0c4.58.2,7.28,2.22,8.57,6.42a43.44,43.44,0,0,1-1.34,4.31,34.48,34.48,0,0,1,2.75,6c.06.17.1.35.16.53.31-.65.63-1.29.91-1.94a51.23,51.23,0,0,0,4.22-20.52A58.75,58.75,0,0,0,382,293.47,54.9,54.9,0,0,0,377.93,283c-2.18-4.13-6.45-9.1-13.69-13s-17.42-6.79-31.37-6.79c-9.85,0-21.59,1.42-35.56,4.89C270.69,274.71,243.49,284.22,222,296c-10.74,5.88-20,12.32-27.14,19.34s-12,14.63-13.64,22.88a36.47,36.47,0,0,0-.73,7.19A30.81,30.81,0,0,0,185,361.66c4.5,7.37,12.19,13.24,22.64,17.26s23.74,6.24,39.73,6.24q5.16,0,10.7-.32l-3.48,4.59q-2.2,2.9-4.47,5.71c-1.2,0-2.4.05-3.57.05-25.37,0-43.12-6.49-54.48-16.09a46.11,46.11,0,0,1-12.51-16.46,46.87,46.87,0,0,1-4-19.23,52.41,52.41,0,0,1,.8-9.06c1.5-8.65,5.84-17.17,12.5-25.37,10-12.29,25.12-23.78,43-33.7a302.9,302.9,0,0,1,59.55-24.56,124.57,124.57,0,0,1,35.55-5.6c16.88,0,29.8,4.31,38.77,9.88a43.33,43.33,0,0,1,10.49,8.87,21.24,21.24,0,0,1,4.54,8.18,21,21,0,0,0,1.08,3c.83,1.92,2,4.29,3.26,7.07,3.85,8.35,8.76,20.46,8.75,33.62a47.89,47.89,0,0,1-4.49,20.54,54.59,54.59,0,0,1-9.12,13.51c0,2.75,0,5.79-.13,7.57a62.65,62.65,0,0,0,14-18.87,51.79,51.79,0,0,0,3.8-11.36,54.83,54.83,0,0,0,1.18-11.39A65.42,65.42,0,0,0,398,303.86c.5.62,1,1.24,1.54,1.86l-1.09.48c2.34,8.23,3.48,16.76,4.57,25.3C403.53,335.78,404,340.07,404.39,344.37ZM276.15,362.84v0ZM206.2,312.39c1.38-1.07,2.83-2.13,4.32-3.18h0l.14-.09c.49,1,1,2.1,1.49,3.24l0,.07c2.14,4.94,4,10.72,3.51,14.72,0,0,0,.06,0,.1a8.68,8.68,0,0,1-.31,1.42c-1.53,4.5-7.41,7-13.74,7.88h0l-1,.12h-.06a38.25,38.25,0,0,1-4,.22,28.31,28.31,0,0,1-3.46-.2,6.33,6.33,0,0,1-2.74-.94l0,0a4.44,4.44,0,0,1-1.88-3,43,43,0,0,1,6.66-10.08v0c1.06-1.24,2.18-2.46,3.41-3.68a83.66,83.66,0,0,1,7.64-6.63Zm124.05-3.16c-.14-.14-.26-.29-.39-.43-.27-.3-.52-.62-.76-.94s-.3-.39-.44-.6-.18-.34-.28-.51-.36-.62-.53-.95c0-.09-.1-.17-.14-.26a15.23,15.23,0,0,1-1.06-3.16c-.82-3.75-1.71-7.37-2.57-10.86-.32-1.3-.63-2.59-.94-3.87v0a97.91,97.91,0,0,1-2.7-14.58s0-.08,0-.12a23.67,23.67,0,0,1,0-3.77,112.77,112.77,0,0,1,12.46-.72c13.24,0,22.5,2.7,28.87,6.15s9.88,7.7,11.57,10.88c.45.85,1,1.91,1.5,3.17.13,7.07-1.14,15-6.54,19.4l0,0a13,13,0,0,1-1.66,1.16,41.23,41.23,0,0,1-20.3,5.49c-3.58,0-10.6-.61-15.31-4.83C330.7,309.67,330.47,309.45,330.25,309.23Zm-32.34,7.17A59.71,59.71,0,0,1,285.32,318c-6.35,0-10.8-1.64-13.79-5.2l0-.05a18,18,0,0,1-3.1-5.82,44.38,44.38,0,0,1-1.89-9.79V297c-.17-1.88-.26-3.8-.29-5.69v-.06c0-3,.08-6,.29-8.69,10.49-3.58,21.33-6.73,32.08-9.4q5.87-1.46,11.17-2.42c1.16,4,2.82,10,4.3,16.26v.05c1.07,4.57,2,9.31,2.65,13.58,1.63,11.41-.92,11.95-15.12,15ZM255.16,288h0c3.54,9.05,8,22.45,6.89,27.91v0a.06.06,0,0,0,0,0,5.5,5.5,0,0,1-2.06,2.86l0,0-.46.35-.1.08h0c-6.25,4.57-21.65,8-29.61,8a10.55,10.55,0,0,1-1.42-.08,3.84,3.84,0,0,1-1.42-1.1h0a14.15,14.15,0,0,1-1-1.24l0,0c-.52-.68-1.1-1.52-1.76-2.59a60.76,60.76,0,0,1-3.52-6.83l0,0a79.94,79.94,0,0,1-3.74-10.3,200.2,200.2,0,0,1,24.42-12.7c4.22-1.87,8.59-3.66,13.05-5.38h0l.44-.18Zm-53.48,81.51c2-.77,4.37-1.71,6.82-2.7,6.39-2.58,14.36-5.8,17.41-5.8h.1c.91,1,3,5,5.28,12.59.62,2.07,1.12,4,1.52,5.68-13.55-1.38-24.23-4.71-31.88-9.38A3.52,3.52,0,0,1,201.68,369.46Zm263.23-47.55c-.16.2-.32.37-.48.56a19.4,19.4,0,0,1-12.39,6.6,19.12,19.12,0,0,1-2.57.17c-4.89,0-10.94-1.81-17.17-5.05-9.37-4.84-19.15-12.78-26.73-21.44a77.2,77.2,0,0,1-9.45-13.2,46.94,46.94,0,0,1-2.24-4.58,30.8,30.8,0,0,1-2.21-7.57c-.37-2.73-.77-6.6-1.34-11.21-2-16.16-6.11-41.51-20.27-63.13a83.35,83.35,0,0,0-24.16-24.37c-.88-.08-1.75-.16-2.62-.26a63.39,63.39,0,0,0,28.32-16.82,65.94,65.94,0,0,0,7.54-9.32c0,1.44,0,3,0,4.64.53,1.18,1.07,2.36,1.6,3.55,8.43,18.73,16.75,37.93,23.14,52.23,13.89,31,36.55,57.68,55.3,74a28.64,28.64,0,0,1,10.21,21.5A22.06,22.06,0,0,1,464.91,321.91Z"/><path d="M172.73,187.88c19.15,0,34.67-15.9,34.67-35.51s-15.52-35.5-34.67-35.5-34.66,15.89-34.66,35.5S153.59,187.88,172.73,187.88ZM149.87,136a6.4,6.4,0,1,1,5.41,7.26A6.4,6.4,0,0,1,149.87,136Zm-6.65,21.3c0-.8,0-1.62.1-2.47a4.57,4.57,0,1,1,9.12.72c-.05.61-.07,1.19-.07,1.75a15.93,15.93,0,0,0,1,5.79,13.28,13.28,0,0,0,2.33,3.9,16.41,16.41,0,0,0,6,4.21,14.71,14.71,0,0,0,2,.68h0a4.58,4.58,0,0,1-2,8.93,22.59,22.59,0,0,1-3.67-1.25,25.75,25.75,0,0,1-7.2-4.57,22.66,22.66,0,0,1-4.64-5.85A24.24,24.24,0,0,1,143.22,157.33Z"/><path d="M289.39,114.73c0,21.45,17,38.83,37.91,38.83s37.91-17.38,37.91-38.83-17-38.83-37.91-38.83S289.39,93.29,289.39,114.73Zm53.4,21.36a6.41,6.41,0,1,1,6.4-6.41A6.41,6.41,0,0,1,342.79,136.09ZM333,86.62a22.58,22.58,0,0,1,4.09.77,26,26,0,0,1,8.24,3.93,22.18,22.18,0,0,1,5.53,5.77,25.66,25.66,0,0,1,4,12.58,4.58,4.58,0,0,1-9.14.61,17.74,17.74,0,0,0-1.54-6.43,13.11,13.11,0,0,0-2.85-4,16,16,0,0,0-6.81-3.69,13,13,0,0,0-2.21-.43h0a4.57,4.57,0,0,1,.69-9.12Z"/><path d="M221.18,252c5.25-.78,8.37-9,7-18.45s-6.79-16.4-12-15.61-8.37,9-7,18.44S215.93,252.81,221.18,252Zm.27-11.83a3.21,3.21,0,1,1-3.2,3.21A3.21,3.21,0,0,1,221.45,240.2Z"/><path d="M347.36,216.27c-1.78-16.9-8-11.56-16.9-7.11S297.55,235.84,302,239.4C310,228.73,347.36,216.27,347.36,216.27Z"/><path d="M157,341.91s3.22-9.65,6.8-20c2.07-6,4.26-12.16,6-16.86l-.17.14C167.88,306.73,151.68,321.45,157,341.91Z"/><path class="cls-5" d="M224.26,437c47-1.6,51.25-65.14,51.25-65.14s-1.11,1.72-3.37,4.81a307.59,307.59,0,0,1-30.27,34.7c-.61.62-1.25,1.2-1.9,1.77-22.41,19.5-62.95,8.46-66.67,7.4l-.3-.09a7.09,7.09,0,0,0,.34.93C175,425,183.69,438.33,224.26,437Z"/><path class="cls-5" d="M327.3,362.74c-1.07,12.81-26.7,25.76-26.7,25.76s2.14.4,18.69-5.47a23,23,0,0,0,3.84-1.76c6.19-3.61,6.84-8.86,6.16-12.85A18.19,18.19,0,0,0,327.3,362.74Z"/><path class="cls-5" d="M325.7,393.7c-.53,3.21.74-10.35-13.14,14.74C324.1,402,326.7,398.12,326.83,396a2.58,2.58,0,0,0-.2-1.21A2.44,2.44,0,0,0,325.7,393.7Z"/><path class="cls-40" d="M314,621.42c-.17-6.22,2.41-18.56,2.41-25.63,0-28-8-84.09-26.43-89.7s-34.44,22.43-43.25,109.72c-.91,9-9.41,2.15-20,4A54.13,54.13,0,0,0,206,628.33c4.39.4,8.84.67,13.26.85,6.64.25,13.29.3,19.83,0a89,89,0,0,0,9.58-1,26.37,26.37,0,0,0,4.26-1,6.77,6.77,0,0,0,1.47-.65l.15-.1.13-.25a21,21,0,0,0,1.92-8.15c.25-3.15.3-6.49.38-9.86.13-6.75.43-13.65,1.13-20.48l2.25-20.15A124.9,124.9,0,0,1,264.3,547a42.25,42.25,0,0,1,4.45-10.23,20.86,20.86,0,0,1,4-4.76c.43-.36.87-.71,1.34-1a15.4,15.4,0,0,1,1.39-.85,18.76,18.76,0,0,1,2.84-1.32,18.51,18.51,0,0,1,6.32-1.25,13.59,13.59,0,0,1,6.86,1.73,14.63,14.63,0,0,1,5,4.74,24,24,0,0,1,2.61,5.55c2.31,7.39,2.07,14.65,2.05,21.32s-.22,13.52-.4,20.26l-1.24,40.25a3.55,3.55,0,0,0,1,1.87,11.38,11.38,0,0,0,2.95,2.27,29.11,29.11,0,0,0,8.32,2.9,78.05,78.05,0,0,0,19.11,1,55.26,55.26,0,0,0,18.36-3.81,33,33,0,0,0,7.76-4.51c.29-.23.54-.47.81-.71-6.3,1.92-16,5-23.89,5.76C321.55,627.47,314,622.79,314,621.42Z"/><path class="cls-40" d="M290,245.71a129.75,129.75,0,0,1,37-5.82c13.33,0,24.49,2.56,33.38,6.42a60.34,60.34,0,0,1,11.84,6.75l-6.63-10.86c-8.81-14.41-32.84-4.4-32.84-4.4s6.41-8.41,22.43-13.62c14.53-4.72,4.34-15.38-6.35-25.09l-3.26-2.94a5.45,5.45,0,0,0-4-1.31c-15.33.7-51.71,45.7-68,49a54.54,54.54,0,0,1-12.6.75c-11.26-.27-22.58-.53-51.07,22.87-20.23,16.62-27.75,23.14-40.21,37.78l.17-.14c-1.76,4.7-4,10.89-6,16.86a31.58,31.58,0,0,0,7.22-2s-2.18,45.31,0,32.09a53.45,53.45,0,0,1-.69-8.57,58.49,58.49,0,0,1,.87-10c1.7-9.77,6.53-19.07,13.6-27.77s16.38-16.84,27.23-24.3C233.74,266.46,261.58,254.17,290,245.71Zm40.48-36.55c8.89-4.45,15.12-9.79,16.9,7.11,0,0-37.36,12.46-45.37,23.13C297.55,235.84,321.56,213.61,330.46,209.16Z"/><path class="cls-40" d="M310.8,479.13A87.53,87.53,0,0,0,323,472.37a95.67,95.67,0,0,0,22.49-21.05c22.22-28.44,27.29-64.09,28.55-69.76-10.21,4.32-23.77,10.82-39.54,16.67a23.64,23.64,0,0,1-3.25,11.56l-1,1.6c-.36.49-.74.95-1.12,1.43a20,20,0,0,1-2.38,2.7c-.85.79-1.74,1.71-2.55,2.39L321.81,420l-9.71,8.3L292.69,444.9l-4.85,4.15c-.84.72-1.55,1.33-2.36,2.05l-2.4,2.13c-3.24,2.86-6.64,5.59-10.18,8.14A101,101,0,0,1,250,473.86a81.93,81.93,0,0,1-12.56,3.72,75.62,75.62,0,0,1-13,1.69,69.6,69.6,0,0,1-9.47-.12c16.48,4.68,36.18,8.69,54.93,8.52,1.34,0,2.64-.07,3.95-.13a10.41,10.41,0,1,1,20.07-3.87,11.7,11.7,0,0,1-.07,1.19A92.33,92.33,0,0,0,310.8,479.13Z"/><path class="cls-40" d="M210.24,419.45c1.55-.15,3.16-.16,4.65-.45a35.84,35.84,0,0,0,4.51-.84l2.22-.57c.73-.2,1.43-.5,2.15-.75s1.44-.48,2.13-.81l2.06-1a46.33,46.33,0,0,0,10.47-7.17,119.55,119.55,0,0,1-19.51-6.7c-9.89-4.39-18.66,4.83-25.65,17.52A77.79,77.79,0,0,0,210.24,419.45Z"/><path class="cls-40" d="M387.1,406c-6.94-6.4-11.21-13.34-12.28,7.48s-11.21,120.67-11.21,120.67l3.13-18.77,5.68-34.09.28,0q2.63-16.69,5-33.47,1.2-8.65,2.25-17.32c.68-5.77,1.33-11.57,1.61-17.31h2.62c.15,5.93-.07,11.77-.32,17.63s-.59,11.69-.95,17.53q-1,16.59-2.41,33.16l5.88-1.26.23-.05s0-.38.11-1.08C387.6,470.44,393.53,411.91,387.1,406Z"/><path class="cls-40" d="M278.86,487.35a6.24,6.24,0,0,1-1.11-.92,6.33,6.33,0,0,0,2.41,2.91,6.4,6.4,0,0,0,8.12-9.8,6.4,6.4,0,0,1-9.42,7.81Z"/><path class="cls-2" d="M339.57,313.47a8.23,8.23,0,0,1-2.19-.39,16.89,16.89,0,0,1-6.43-3.2c4.71,4.22,11.73,4.83,15.31,4.83a41.23,41.23,0,0,0,20.3-5.49,13,13,0,0,0,1.66-1.16,2,2,0,0,1-.89.27.69.69,0,0,1-.72-.65c-.4-2.61,5.21-11.62,2.8-21.63s-15.61-13.61-26.62-15.21a27,27,0,0,0-3.86-.32c-7.62,0-9,4.76-7.76,15.73C332.46,297.84,345.9,313.47,339.57,313.47Z"/><path class="cls-2" d="M320.43,273.05a97.91,97.91,0,0,0,2.7,14.58c-.05-.26-.11-.52-.17-.78C321.53,280.39,320.79,276,320.43,273.05Z"/><path class="cls-2" d="M266.2,291.32c0,1.89.12,3.81.29,5.69C266.38,295.32,266.27,293.33,266.2,291.32Z"/><path class="cls-2" d="M314.05,287.06c2.11,9.73,3.74,20.31,2.17,22.57-1.2,1.73-2.28,2.26-3.09,2.26-1.21,0-1.81-1.18-1.31-1.25.84-.11-3.25-22.87-6.08-29.39-.88-2-3.74-2.86-7.36-2.86-8,0-19.6,4-21.67,7.86-2.5,4.67-2.21,20.84.67,27.1.84,1.82.4,2.7-.68,2.7s-3.26-1.13-5.17-3.26c3,3.56,7.44,5.2,13.79,5.2a59.71,59.71,0,0,0,12.59-1.59l3.67-.79c14.2-3,16.75-3.56,15.12-15C316.09,296.37,315.12,291.63,314.05,287.06Z"/><path class="cls-2" d="M262,315.92a.06.06,0,0,1,0,0,8.88,8.88,0,0,1-2.07,2.9A5.5,5.5,0,0,0,262,315.92Z"/><path class="cls-2" d="M224.08,322.24c.66,1.07,1.24,1.91,1.76,2.59-1.14-1.9-3.31-5.58-5.28-9.42A60.76,60.76,0,0,0,224.08,322.24Z"/><path class="cls-2" d="M227.46,320c3.76,5.27.93,5.82-.54,6.09a3.84,3.84,0,0,0,1.42,1.1,10.55,10.55,0,0,0,1.42.08c8,0,23.36-3.46,29.61-8a3.27,3.27,0,0,1-1.67.64c-.22,0-.28-.08-.07-.14.8-.27-.81-18.16-4.81-24-.91-1.34-2.72-1.89-5-1.89-7.71,0-20.89,6.27-23.56,9.36C220.78,307.21,223.45,314.42,227.46,320Z"/><path class="cls-2" d="M255.16,288l-.44-1.13-.44.18A4.87,4.87,0,0,1,255.16,288Z"/><path class="cls-2" d="M201.63,336.55c6.33-.86,12.21-3.38,13.74-7.88a8.68,8.68,0,0,0,.31-1.42,5.88,5.88,0,0,1-1.84,3.25c-5.27,4.62-8.65,5-9.67,5a2.3,2.3,0,0,1-.34,0s9.21-3.21,6.61-11.42c-1.8-5.69-3.42-9.74-4.23-11.69a83.66,83.66,0,0,0-7.64,6.63c-1.23,1.22-2.35,2.44-3.41,3.68.06.85.14,2.06.26,3.79C195.78,331.67,200.58,335.72,201.63,336.55Z"/><path class="cls-2" d="M210.67,309.12l-.14.09c.44.81,1,1.89,1.63,3.15C211.66,311.22,211.16,310.13,210.67,309.12Z"/><path class="cls-2" d="M190.41,335.76a6.33,6.33,0,0,0,2.74.94,28.31,28.31,0,0,0,3.46.2,38.25,38.25,0,0,0,4-.22l-6.58-.17A8.62,8.62,0,0,1,190.41,335.76Z"/><path class="cls-2" d="M226,361h-.1c-3,0-11,3.22-17.41,5.8-2.45,1-4.77,1.93-6.82,2.7a3.52,3.52,0,0,0-.75.39c7.65,4.67,18.33,8,31.88,9.38-.4-1.71-.9-3.61-1.52-5.68C229,365.92,226.92,361.92,226,361Z"/><path class="cls-2" d="M260.52,352.2c-4.82.59-10.53,1.61-17.14,2.89a6.93,6.93,0,0,0-5.12,3.55c-3,5.56-.16,16.14,1.67,21.12,2.41.11,4.91.17,7.48.17q7.08,0,14.92-.61l1.08-1.4c.51-.67.93-1.22,1.35-1.8s.8-1.18,1.16-1.79a21.75,21.75,0,0,0,1.27-2.56,32.39,32.39,0,0,1-6.39-13.31A42.68,42.68,0,0,1,260.52,352.2Z"/><path class="cls-2" d="M370.8,318.11v0a37.78,37.78,0,0,1,5.46,7.27,43.44,43.44,0,0,0,1.34-4.31c-1.29-4.2-4-6.22-8.57-6.42A30.54,30.54,0,0,1,370.8,318.11Z"/><path class="cls-2" d="M262.9,336.23c0,.35,0,.7,0,1,0,7.53,3.68,14.53,10,20.31.17,0,.34-.06.52-.07a3.67,3.67,0,0,1,.72,0,5.3,5.3,0,0,1,1.62.47l2.18,1.16a14.45,14.45,0,0,0,2.51.8,42.33,42.33,0,0,1-10.15-7.62C265.81,347.72,263.18,342.27,262.9,336.23Z"/><path class="cls-2" d="M273.68,318.67l.05,0-.05,0Z"/><path class="cls-2" d="M277.53,320.18l.06,0h0Z"/><path class="cls-2" d="M332.28,95.75a13,13,0,0,1,2.21.43,16,16,0,0,1,6.81,3.69,13.11,13.11,0,0,1,2.85,4,17.74,17.74,0,0,1,1.54,6.43,4.58,4.58,0,0,0,9.14-.61,25.66,25.66,0,0,0-4-12.58,22.18,22.18,0,0,0-5.53-5.77,26,26,0,0,0-8.24-3.93,22.58,22.58,0,0,0-4.09-.77,4.57,4.57,0,0,0-.69,9.12Z"/><circle class="cls-2" cx="342.79" cy="129.68" r="6.41" transform="translate(-20.62 82.23) rotate(-13.28)"/><path class="cls-2" d="M163.61,171.91h0a14.71,14.71,0,0,1-2-.68,16.41,16.41,0,0,1-6-4.21,13.28,13.28,0,0,1-2.33-3.9,15.93,15.93,0,0,1-1-5.79c0-.56,0-1.14.07-1.75a4.57,4.57,0,1,0-9.12-.72c-.07.85-.1,1.67-.1,2.47a24.24,24.24,0,0,0,2.88,11.84,22.66,22.66,0,0,0,4.64,5.85,25.75,25.75,0,0,0,7.2,4.57,22.59,22.59,0,0,0,3.67,1.25,4.58,4.58,0,0,0,2-8.93Z"/><path class="cls-2" d="M155.28,143.29a6.41,6.41,0,1,0-5.41-7.26A6.4,6.4,0,0,0,155.28,143.29Z"/><path class="cls-2" d="M221.45,246.61a3.21,3.21,0,1,0-3.2-3.2A3.21,3.21,0,0,0,221.45,246.61Z"/><path class="cls-2" d="M374.07,352.5l-.73-1-.15-.2a27.65,27.65,0,0,0,2.95-5.71l.55-1-.21.11a23.34,23.34,0,0,0,1.21-7.38q0-.52,0-1a22.75,22.75,0,0,1-2.37,9.1l-.85.47-4.83,2.7-1.12-.74-1.62-1.06-5.37-3.55,4,5.65,1.19,1.66.81,1.14-3.24,5.82c-7,4.87-16.43,8.42-27.18,10.23a19.56,19.56,0,0,1,0,2.42c0,.58-.09,1.16-.16,1.73,14.48-2.76,26.53-9,33.68-17.21l.19.11,1.18.7,7.2,4.21Z"/></g></svg>