<svg id="artwotk" xmlns="http://www.w3.org/2000/svg" xmlns:xlink="http://www.w3.org/1999/xlink" viewBox="0 0 512 512"><defs><style>.cls-1,.cls-14,.cls-3{fill:#fff;}.cls-1{stroke:#d2d2d2;stroke-miterlimit:10;}.cls-2{fill:#5e18ac;}.cls-4{fill:url(#linear-gradient);}.cls-5{fill:#92f6e5;}.cls-6{fill:url(#linear-gradient-2);}.cls-7{fill:url(#New_Gradient_Swatch_4);}.cls-8{fill:url(#linear-gradient-3);}.cls-9{fill:url(#New_Gradient_Swatch_4-2);}.cls-10{fill:url(#New_Gradient_Swatch_3);}.cls-11{fill:url(#New_Gradient_Swatch_3-2);}.cls-12{fill:url(#New_Gradient_Swatch_3-3);}.cls-13{fill:url(#linear-gradient-4);}.cls-14{opacity:0.3;}</style><linearGradient id="linear-gradient" x1="-1964.42" y1="1043.64" x2="-1663.82" y2="1043.64" gradientTransform="matrix(-0.23, 0.97, 0.97, 0.23, -1126.04, 1746.5)" gradientUnits="userSpaceOnUse"><stop offset="0.25" stop-color="#e700ff"/><stop offset="0.32" stop-color="#e804f9"/><stop offset="0.41" stop-color="#e90ee8"/><stop offset="0.52" stop-color="#ec1fcc"/><stop offset="0.64" stop-color="#f037a5"/><stop offset="0.76" stop-color="#f45672"/><stop offset="0.89" stop-color="#fa7a36"/><stop offset="1" stop-color="#ff9b00"/></linearGradient><linearGradient id="linear-gradient-2" x1="-1820.25" y1="1136.93" x2="-1955.36" y2="1068.77" gradientTransform="matrix(-0.23, 0.97, 0.97, 0.23, -1126.04, 1746.5)" gradientUnits="userSpaceOnUse"><stop offset="0" stop-color="#42dde0"/><stop offset="0.63" stop-color="#008ebb"/></linearGradient><linearGradient id="New_Gradient_Swatch_4" x1="4938.75" y1="-949.68" x2="5081.95" y2="-1021.78" gradientTransform="matrix(-0.7, -0.75, -0.97, 0.9, 2897.58, 4729.31)" gradientUnits="userSpaceOnUse"><stop offset="0" stop-color="#baff8e"/><stop offset="0.63" stop-color="#008ebb"/></linearGradient><linearGradient id="linear-gradient-3" x1="-1604.45" y1="4504.18" x2="-1513.72" y2="4504.18" gradientTransform="matrix(0.7, 0.75, 0.97, -0.9, -2889.03, 5386.92)" xlink:href="#linear-gradient"/><linearGradient id="New_Gradient_Swatch_4-2" x1="5074.23" y1="-1011.01" x2="4924.13" y2="-858.3" xlink:href="#New_Gradient_Swatch_4"/><linearGradient id="New_Gradient_Swatch_3" x1="4919.51" y1="-993.39" x2="5002.19" y2="-993.39" gradientTransform="matrix(-0.7, -0.75, -0.97, 0.9, 2897.58, 4729.31)" gradientUnits="userSpaceOnUse"><stop offset="0.42" stop-color="#fabd09"/><stop offset="0.83" stop-color="#fa6b00"/></linearGradient><linearGradient id="New_Gradient_Swatch_3-2" x1="-1834.65" y1="1177.46" x2="-1996.68" y2="1156.39" gradientTransform="matrix(-0.23, 0.97, 0.97, 0.23, -1126.04, 1746.5)" xlink:href="#New_Gradient_Swatch_3"/><linearGradient id="New_Gradient_Swatch_3-3" x1="-1867.2" y1="1149.77" x2="-1845.75" y2="1232.53" gradientTransform="matrix(-0.23, 0.97, 0.97, 0.23, -1126.04, 1746.5)" xlink:href="#New_Gradient_Swatch_3"/><linearGradient id="linear-gradient-4" x1="-1881.71" y1="1043.1" x2="-1819.06" y2="1143.68" xlink:href="#linear-gradient"/></defs><path class="cls-1" d="M458.56,53.73a12,12,0,0,0-8.64-4.47,9.83,9.83,0,0,0-2.39.29l-.56.16L342.18,48.25a10,10,0,0,0-6.81,2.68l-26.88,25a131.59,131.59,0,0,0-11.23,10.28l-216,199c-.46.37-.9.74-1.32,1.13l-53.28,49.4A21.48,21.48,0,0,0,41.18,373a21.36,21.36,0,0,0,14.57-5.72l9.17-8.5a11.32,11.32,0,0,0,1-1.08l.11-.14L117.34,310a1,1,0,0,1,.68-.28.92.92,0,0,1,.7.32,1.14,1.14,0,0,1-.08,1.57L82.4,345.18a21.85,21.85,0,0,0-4.19,26.51,21.89,21.89,0,0,0-24.3,3.65L42.47,385.88a21.92,21.92,0,0,0-1.27,31,22,22,0,0,0,16.12,7.07h0a21.84,21.84,0,0,0,14.85-5.8l11.44-10.54a21.88,21.88,0,0,0,4.27-26.81,21.56,21.56,0,0,0,23.94-3.71L138.91,352c.19-.13.38-.27.56-.42l1.79,2a10.93,10.93,0,0,0-.93,1.13l-8.63,8a21.48,21.48,0,0,0-3.29,27.53,18.39,18.39,0,0,0-5.07-.74,18.61,18.61,0,0,0-12.62,4.93l-4.94,4.55A18.63,18.63,0,0,0,131,426.32l4.93-4.54a18.66,18.66,0,0,0,3.42-23.17,21,21,0,0,0,6.74,1.11A21.24,21.24,0,0,0,160.6,394l8.8-8.16a7.64,7.64,0,0,0,.83-.57,1.6,1.6,0,0,1,1-.32,1.49,1.49,0,0,1,1.12.5,1.7,1.7,0,0,1,.12,2.12L144,414a20.45,20.45,0,0,0-6.95,16.8,22,22,0,0,0,9.09,15.93,19.88,19.88,0,0,0,27.22.34l82.54-72.87c.64.06,1.28.09,1.91.09a19.86,19.86,0,0,0,13.5-5.27l32.21-29.68L417,239.61a10,10,0,0,0,4.09-2.32l43.27-40.54a9.92,9.92,0,0,0,3.14-7.14l8.7-108.34a10,10,0,0,0-2-6.82Z"/><path class="cls-2" d="M152.62,439.07h0c-6.18-4.16-8-12.15-1.9-17.71l29.13-27h0a11.72,11.72,0,0,0-.15-15.61,11.53,11.53,0,0,0-15.5-1.39l-.14-.14-10.24,9.5a11.26,11.26,0,0,1-16-.64A11.43,11.43,0,0,1,138.5,370l10.19-9.45-.15-.17a10,10,0,0,0,.11-13.61l-1.88-2.06a9.86,9.86,0,0,0-13.54-.95l-.08-.09L105,369.73a11.63,11.63,0,0,1-16.5-.65,11.8,11.8,0,0,1,.68-16.58l36.23-33.59a11.15,11.15,0,0,0,.66-15.66h0a11,11,0,0,0-15.56-.61L59.23,350.21a10.63,10.63,0,0,0-1.11,1.22L49,359.93a11.39,11.39,0,0,1-16.16-.64A11.56,11.56,0,0,1,33.48,343l53.28-49.41a12,12,0,0,1,1-.8L304.23,93.36C369.45,26.3,413.71,112,413.71,112c27.4,33.5,29.39,83.11-2.91,112.05L166.64,439.62A9.87,9.87,0,0,1,152.62,439.07Z"/><path class="cls-2" d="M76.84,400.23,65.4,410.76a11.92,11.92,0,1,1-16.16-17.53l11.44-10.54a11.92,11.92,0,0,1,16.16,17.54Z"/><path class="cls-2" d="M112.56,406.27l4.93-4.54a8.63,8.63,0,1,1,11.7,12.69L124.26,419a8.64,8.64,0,0,1-12.2-.5h0A8.63,8.63,0,0,1,112.56,406.27Z"/><rect class="cls-3" x="129.68" y="276.67" width="31.56" height="17.26" rx="7.75" transform="translate(-154.84 174.05) rotate(-42.66)"/><path class="cls-3" d="M189,363.21h0a8.64,8.64,0,0,1,.5-12.2l4.93-4.54a8.63,8.63,0,0,1,12.2.5h0a8.62,8.62,0,0,1-.5,12.19l-4.93,4.55A8.64,8.64,0,0,1,189,363.21Z"/><path class="cls-4" d="M250.14,348l15.64-14.41a9.32,9.32,0,0,0,.54-13.19l-1.77-1.93a9.34,9.34,0,0,0-13.19-.54l-17.8,16.4a10.8,10.8,0,0,1-13.73-16.57l22.54-20.77a9.32,9.32,0,0,0,.54-13.19l-1.77-1.93a9.34,9.34,0,0,0-13.19-.54l-40.17,37a9.33,9.33,0,0,1-12-1.43L174,314.93a9.32,9.32,0,0,1,0-12.65l38.79-35.75a10.64,10.64,0,1,0-14.42-15.66l-14,12.9a10.64,10.64,0,0,1-12.46-17.08l7.92-7.29-.13-.14,146-133.56a75.42,75.42,0,0,1,109.17,7.69h0a75.42,75.42,0,0,1-8.07,104.27l-130,114.23-32.3,29.76A9.95,9.95,0,0,1,250.14,348Z"/><path class="cls-5" d="M254.1,281.1a7.54,7.54,0,0,1,.43-10.67l37.11-34.31a8.89,8.89,0,0,0,1.43-11.62,8.67,8.67,0,0,0-12.93-1.35l-22.93,20a7.53,7.53,0,0,1-10.64-.42l-2.18-2.35a7.54,7.54,0,0,1,.42-10.67l17.09-14.67a8.87,8.87,0,0,0,1.43-11.62c-1.54-2.14-7.56-8.16-14.21-1.7-10.12,9.85-19.61,18.41-21.52,20.17l-3.32,3.26a7.56,7.56,0,0,1-10.65-.42l-1.77-1.91a7.54,7.54,0,0,1,.44-10.69L333.78,99.54c26.63-24.39,63.93-19.2,82.88,11.53h0a61.26,61.26,0,0,1-6.55,84.68l-98.25,88.09a7.54,7.54,0,0,1-10.13-11.17l6.84-6.31a7.52,7.52,0,0,0-.24-11.27,7.71,7.71,0,0,0-10.15.41l-31,28.66a7.53,7.53,0,0,1-10.64-.42Z"/><rect class="cls-2" x="255.74" y="295.71" width="27.79" height="15.2" rx="6.83" transform="translate(-134.19 262.99) rotate(-42.66)"/><path class="cls-2" d="M235.35,255.11a7.6,7.6,0,0,1-.44,10.74L230.43,270a7.6,7.6,0,1,1-10.3-11.18l4.48-4.13a7.59,7.59,0,0,1,10.74.44Z"/><polygon class="cls-6" points="449.92 59.26 461.92 79.46 452.87 186.59 421.43 214.57 413.94 228.75 314.89 222.99 292.75 205.6 399.93 208.1 444.15 167.89 449.92 59.26"/><polygon class="cls-2" points="342.18 58.25 450.57 59.76 444.16 167.98 400.71 208.36 292.31 206.86 298.73 98.63 342.18 58.25"/><polygon class="cls-7" points="346.26 71.93 392.41 72.57 389.14 127.76 342.99 127.12 346.26 71.93"/><polygon class="cls-8" points="396.62 194.68 350.47 194.04 353.74 138.85 399.89 139.49 396.62 194.68"/><polygon class="cls-9" points="346.23 71.93 346.26 71.93 342.99 127.12 339.03 193.88 306.75 193.44 312.07 103.67 346.23 71.93"/><polygon class="cls-10" points="436.13 73.18 430.81 162.94 396.65 194.68 396.62 194.68 399.89 139.49 403.85 72.73 436.13 73.18"/><polyline class="cls-11" points="456.45 187.85 442.92 168.02 450.57 59.76 466.21 80.47 457.46 189.49"/><polyline class="cls-12" points="442.93 167.89 457.51 189.46 414.23 230 398.63 208.58 443.69 165.51"/><polyline class="cls-13" points="399.93 208.1 397.91 208.05 348.85 206.82 365.8 225.01 413.94 228.75"/><polygon class="cls-14" points="454.84 188.56 455.11 182.84 443.07 165.55 439.1 169.99 452.91 189.75 454.84 188.56"/><polygon class="cls-14" points="394.93 208 398.77 208.02 401.6 206.03 415.97 223.91 414.88 226.02 409.99 225.45 394.93 208"/></svg>