<?xml version="1.0" encoding="utf-8"?>
<!-- Generator: Adobe Illustrator 25.4.1, SVG Export Plug-In . SVG Version: 6.00 Build 0)  -->
<svg version="1.1" xmlns="http://www.w3.org/2000/svg" xmlns:xlink="http://www.w3.org/1999/xlink" x="0px" y="0px"
	 viewBox="0 0 512 512" style="enable-background:new 0 0 512 512;" xml:space="preserve">
<style type="text/css">
	.st0{fill:#FFFFFF;stroke:#CCCCCC;stroke-miterlimit:10;}
	.st1{fill:#F0E8DE;}
	.st2{fill:#D6960B;}
	.st3{fill:#D6AC00;}
	.st4{fill:#A64001;}
	.st5{fill:#F2C644;}
	.st6{fill:#E7BA33;}
	.st7{fill:#FEC82E;}
	.st8{fill:#FDE56C;}
	.st9{fill:#A65801;}
	.st10{fill:#FFFFFF;}
	.st11{fill:#FFEBA2;}
	.st12{fill:#EBC656;}
	.st13{fill:#E5B420;}
	.st14{fill:#B86734;}
	.st15{fill:url(#SVGID_1_);}
	.st16{fill:#F4CABC;}
	.st17{fill:#657F8E;}
	.st18{fill:#5B7787;}
	.st19{fill:#F0B7A4;}
	.st20{fill:#F6D5CA;}
	.st21{fill:#526F80;}
	.st22{fill:#D6960B;stroke:#000000;stroke-width:2;stroke-miterlimit:10;}
	.st23{fill:#FEC82E;stroke:#000000;stroke-miterlimit:10;}
	.st24{fill:url(#SVGID_00000051365332054688334650000013084766705122693265_);}
	.st25{fill:#F4CABC;stroke:#000000;stroke-width:4;stroke-miterlimit:10;}
	.st26{fill:#657F8E;stroke:#000000;stroke-width:4;stroke-miterlimit:10;}
	.st27{fill:#5B7787;stroke:#000000;stroke-width:4;stroke-miterlimit:10;}
	.st28{fill:#7653A0;stroke:#000000;stroke-width:4;stroke-miterlimit:10;}
	.st29{fill:#582D8B;}
	.st30{fill:#F4EECE;}
	.st31{fill:#D45300;stroke:#000000;stroke-width:4;stroke-miterlimit:10;}
	.st32{fill:#AE4100;}
	.st33{fill:#CDBC98;stroke:#000000;stroke-width:2;stroke-miterlimit:10;}
	.st34{fill:none;stroke:#000000;stroke-width:0.9584;stroke-miterlimit:10;}
	.st35{fill:#CDC296;}
	.st36{fill:#9D8373;}
	.st37{fill:#E9DEBC;}
	.st38{fill:#F5E7BF;stroke:#000000;stroke-miterlimit:10;}
	.st39{fill:#9D8973;}
	.st40{fill:#B5A498;}
	.st41{fill:#A3978A;}
	.st42{fill:#E2D8BB;}
	.st43{fill:#DCCFA9;}
	.st44{fill:url(#SVGID_00000106112706246277404350000002513273357969692840_);}
	.st45{fill:#DED2AF;}
	.st46{fill:#F6F1DE;}
	.st47{fill:#B59E89;}
	.st48{fill:#7D675B;}
	.st49{fill:url(#SVGID_00000178920956718331268980000002918675265437184691_);}
	.st50{fill:#07374A;}
	.st51{opacity:0.3;fill:#1BB8FF;}
	.st52{fill:url(#SVGID_00000099636835120726276760000016087568906396496798_);}
	.st53{fill:url(#SVGID_00000119829411138025197520000008257581551825195436_);}
	.st54{fill:url(#SVGID_00000116956013287886807410000006344152396139626632_);}
	.st55{fill:url(#SVGID_00000086677831213591614770000003619460667659508363_);}
	.st56{fill:url(#SVGID_00000005235230536380997760000016814406171328589444_);}
	.st57{fill:url(#SVGID_00000176040810697786821200000005860759633430293932_);}
	.st58{fill:url(#SVGID_00000080165969016860697170000008489894899150152620_);}
	.st59{fill:url(#SVGID_00000166669602763208217250000013772318717926119866_);}
	.st60{fill:url(#SVGID_00000170984852428741578100000000790660363306979232_);}
	.st61{opacity:0.6;fill:#B5FFFF;}
	.st62{fill:url(#SVGID_00000008857995118721116760000008305615010556124310_);}
	.st63{fill:url(#SVGID_00000102539187838884321840000009493391300248080805_);}
	.st64{fill:none;stroke:#000000;stroke-width:2;stroke-miterlimit:10;}
	.st65{fill:url(#SVGID_00000029036336305160020180000004032392871574287289_);}
	.st66{fill:url(#SVGID_00000013901714232983955230000000665432213371363775_);}
	.st67{fill:url(#SVGID_00000133487943841008872460000018440226867759356582_);}
	.st68{fill:url(#SVGID_00000174565462995952203440000011565731380486795954_);}
	.st69{fill:url(#SVGID_00000077308673817960921380000008574809745751745722_);}
	.st70{fill:url(#SVGID_00000090996387612264999490000005225263731478182021_);}
	.st71{fill:url(#SVGID_00000091707459861110894630000017047282555460964535_);}
	.st72{fill:url(#SVGID_00000025425352209425626070000011906452631490187392_);}
	.st73{fill:url(#SVGID_00000052792861560401460290000013733882431981795733_);}
	.st74{fill:url(#SVGID_00000116942499268798047010000010036452351130427568_);}
	.st75{fill:url(#SVGID_00000006686019800615226980000016760756694282793357_);}
</style>
<g id="safe">
</g>
<g id="Layer_1">
	<g>
		<path class="st0" d="M463.7,358.7c-20-14.4-29.1-22.3-18.1-44.2c16.6-33.2,22.6-64.4,18.2-95.4c-4.7-33.8-21.6-66.8-51.5-100.9
			C384,85.9,347.6,66.8,306.5,62.6c-2.3-17-10.4-30.5-22.9-37.6c-2.2-1.3-5.8-2.4-13.1-4.6l-0.2-0.1c-0.7-0.2-1.3-0.4-1.7-0.5
			l-0.9-0.3c-4-1.3-9-2.8-14.1-2.8c-0.3,0-0.6,0-0.9,0C228.4,17.6,208,37.3,198,69.5c-2,6.6-3.4,13-4.2,19.3
			c-19.1,18.3-12.1,53.5-5.8,84.8c3.9,19.7,8.8,44.2,2.9,51.3c-0.5,0.6-2,2.5-7.8,2.5c0,0,0,0,0,0c-1.4,0-3-0.1-4.7-0.3
			c-8-1.1-15.7-1.6-23.1-1.6c-32.7,0-59.1,10.4-78.3,31c-35.3,37.7-34.3,96.6-33.8,106.2c-0.6,4.3-1.1,15.5,6.5,29.4l-10,2
			c-0.5,0.1-1,0.2-1.5,0.4L22.5,400c-2.5,0.9-4.5,2.8-5.6,5.2c-1.1,2.4-1.2,5.2-0.3,7.7l0.1,0.2l0.2,79.9v2c0,5.5,4.5,10,10,10h87.8
			c3,2.5,6.9,4,11,4c0.7,0,1.4,0,2-0.1c8.6-1,26.2-4.6,48.1-16.6l2.1-1.2c2.7-1.5,4.5-4.1,5-7.1s-0.4-6.1-2.4-8.3l-1.3-1.5
			c-0.2-0.3-0.6-1.1-1.3-2.8c3.2-1.3,6.6-2.7,10.1-4.3c37.6,9.9,73.5,15.2,106.9,15.8c2.3,0,4.5,0.1,6.8,0.1c0,0,0,0,0,0
			c40.4,0,84.4-6.6,120.6-18.1c21.9-7,59.9-21.9,68.5-43.8C503.9,387.6,480.6,370.9,463.7,358.7z"/>
	</g>
	<path class="st1" d="M53.1,363.1c0,0-9.4-144,123.9-126.3c65.9,8.7-17.7-120.4,29.5-145.1s135.2-38.8,198.2,33
		c59,67.3,61.4,126.3,31.9,185.3c-29.5,59,66.1,53.1,44.8,107.4c-10.8,27.7-99.9,57-186.4,55.5c-83.2-1.5-163.8-33.2-187.6-44.8
		C44.9,397.3,53.1,363.1,53.1,363.1z"/>
	<g>
		<path class="st2" d="M292,98.7c-8.6,27.7-27.5,46.8-47.8,45c-2.1-0.2-10.9-3.2-13-3.8c-3.8-1.2-8.5-2.5-11.6-4.8
			c-14.9-11-20.1-33.9-11.2-62.4c8.9-28.5,26.1-44.3,44.6-45c3.9-0.1,8.5,1.4,12.2,2.6c2.1,0.7,11,3.1,12.9,4.2
			C296,44.6,300.6,71,292,98.7z"/>
		<path d="M246.8,144.8c-0.9,0-1.8,0-2.7-0.1c-1.7-0.1-6.4-1.7-11.2-3.2c-0.9-0.3-1.6-0.5-2-0.7l-0.9-0.3c-3.7-1.2-8-2.5-11-4.7
			c-15.9-11.8-20.2-35.5-11.6-63.4c8.7-27.9,25.7-45,45.5-45.7c3.7-0.1,8,1.2,11.7,2.4l0.9,0.3c0.4,0.1,1.1,0.3,2,0.6
			c4.8,1.4,9.6,2.9,11,3.7c17.6,10,23.3,36.2,14.3,65.3C284.3,126.8,266,144.8,246.8,144.8z M253.5,28.7c-0.2,0-0.3,0-0.4,0
			c-19,0.7-35.3,17.2-43.7,44.3c-8.4,27.1-4.4,50,10.9,61.3c2.7,2,6.8,3.3,10.4,4.4l0.9,0.3c0.4,0.1,1.1,0.4,2,0.7
			c3.2,1,9.2,3,10.8,3.1c0.8,0.1,1.7,0.1,2.5,0.1c18.3,0,35.9-17.5,44.3-44.5c8.8-28.2,3.4-53.6-13.4-63.1
			c-1.4-0.8-7.4-2.6-10.6-3.5c-0.9-0.3-1.6-0.5-2-0.6l-0.9-0.3C260.7,29.9,256.8,28.7,253.5,28.7z"/>
	</g>
	<path d="M270.3,92c-3.9,12.6-10.6,23.5-18.8,30.6c-8.2,7.2-17,9.8-24.7,7.4s-13.5-9.6-16.1-20.2c-2.7-10.6-2-23.3,1.9-35.9
		c3.9-12.6,10.6-23.5,18.8-30.6c8.2-7.2,17-9.8,24.7-7.4c7.7,2.4,13.5,9.6,16.1,20.2C274.9,66.6,274.2,79.4,270.3,92z M212.7,74
		c-8.1,25.9-1.7,50.9,14.1,55.9c15.8,4.9,35.3-12.1,43.3-38C278.2,66,271.8,41,256,36.1C240.2,31.1,220.7,48.2,212.7,74z"/>
	<ellipse transform="matrix(0.2971 -0.9548 0.9548 0.2971 90.4389 288.8151)" class="st3" cx="241.4" cy="83" rx="49.2" ry="30.2"/>
	<path class="st4" d="M217.8,75.6c7.6-24.4,25-40.7,38.8-36.4c1.4,0.4,2.7,1.1,4,1.9c-1.9-2-4.1-3.4-6.6-4.2
		c-13.8-4.3-31.4,12.6-39.2,37.7s-2.9,49,10.9,53.3c2.5,0.8,5.1,0.9,7.8,0.3c-1.5,0-2.9-0.2-4.4-0.7
		C215.3,123.3,210.2,100,217.8,75.6z"/>
	<path class="st4" d="M250.7,67l0,0.1c-3.3-0.7-7.3,1-10.6,6.7c-3,5.3-5.1,8.5-6.7,10.2c-0.1-1.5,0.2-3.5,1.1-6.2
		c1.9-5.9,4.9-9,6.2-10.2l1.2-0.8l-5.5-1.6c0,0-0.9-0.3-2.9-0.5c-1.2-0.3-2.1-0.3-4.1-0.7c-7,11.4-11.1,27.8-1.8,31.4
		c0.1,0,0.2,0.1,0.4,0.1c0.1,0.1,0.2,0.2,0.2,0.2l4.9,1.4c6.9,2.6,11.9-6.9,16.2-13.3c-2.4,6.7-7.8,15.5-8.2,15.2c0,0,0,0,6.3,2.3
		c1.4,0.4,3.4,0.9,7,2.2c6.7-9.3,12.2-25.8,7-31.7c-1-1.1-2.1-1.9-3.4-2.3l0-0.1L250.7,67z"/>
	<path class="st5" d="M229.6,61.7c0.1,0,0.1,0,0.2,0c1,0.2,1.7,0.3,2.4,0.4c0.5,0.1,1.1,0.1,1.7,0.3c0,0,0.1,0,0.1,0
		c2,0.3,3,0.5,3.1,0.6l5.4,1.6c0.4,0.1,0.7,0.3,1,0.6c0.5,0.5,1.2,0.6,1.9,0.3c1.6-0.7,3.3-0.9,4.9-0.7c0.4-0.1,0.7,0,1.1,0.1
		l7.3,2.3c0.3,0.1,0.5,0.2,0.8,0.4c1.4,0.6,2.7,1.6,3.8,2.8c4.4,4.9,2.4,14.1,0.8,19.1c0,0,0,0,0,0c-1.6,5.1-4.1,10.4-6.9,14.5
		c-1,1.5-3,2.2-4.8,1.6c-1.9-0.6-3.3-1-4.3-1.3c-0.5-0.2-1-0.3-1.4-0.4c0,0-0.1,0-0.1,0c0,0-6.3-2.3-6.3-2.3
		c-0.3-0.1-0.7-0.3-0.9-0.6c-0.1-0.1-0.1-0.2-0.2-0.2c-0.4-0.6-1.1-0.8-1.8-0.7c-1.6,0.4-3.2,0.3-5-0.4l-4.9-1.4
		c-0.2-0.1-0.5-0.2-0.7-0.3c0,0-0.1,0-0.1,0c-1.8-0.7-3.3-1.8-4.4-3.2c-1-1.3-3.1-0.6-3.1,1c-0.1,13.2,4.7,23.8,13.1,26.4
		c12.1,3.8,27.1-10,33.6-30.8c6.5-20.8,1.9-40.6-10.2-44.4C247.1,44.2,237,50.4,229.6,61.7z"/>
	<path class="st6" d="M240.1,73.9c-0.8,1.3-1.4,2.5-2.1,3.6l-8.3-2.5c2.5-6.8,6.2-9.6,6.2-9.6s-3.1-0.7-6.5-1.3
		c-1.8,2.9-3.4,6.2-4.6,9.5l-3.8-1.1l-2,6.3l3.8,1.2c-1.5,7.1-0.6,13.4,4.8,15.5c5.3,2,9.5-4.1,13.2-9.9l7,2.2
		c-2.7,5.8-6.3,11.7-6.6,11.4c0,0,0,0,6.3,2.3c2.3-3.3,4.4-7.5,6.1-11.8l4.8,1.5l2.1-6.8l-4.9-1.5c1.3-5.5,1.2-10.5-0.9-13.1
		C251.3,65.6,244.9,65.5,240.1,73.9z M230.8,85.8c-1.5,0.3-3-0.8-2.7-4.3l5.9,1.8C232.8,84.9,231.8,85.6,230.8,85.8z M250.2,81.1
		l-5.5-1.6c1.2-1.7,2.4-2.8,3.5-2.9C250.6,76.2,250.9,78.2,250.2,81.1z"/>
	<path class="st4" d="M267.9,87.4l-1.5,4.9c-0.2,0.5-0.7,0.8-1.2,0.6l-6.7-2.1l2.1-6.8l6.7,2.1C267.7,86.4,268,86.9,267.9,87.4z"/>
	<g>
		<path class="st7" d="M258.4,30.4c18.3,5.7,25.7,33.9,16.6,63s-31.2,48.2-49.5,42.5c-18.3-5.7-25.7-33.9-16.6-63
			C218,43.7,240.2,24.7,258.4,30.4z M213.8,74.4c-7.7,24.9-1.7,48.9,13.6,53.6c15.2,4.7,33.9-11.6,41.6-36.4s1.7-48.9-13.6-53.6
			C240.2,33.2,221.5,49.5,213.8,74.4z"/>
		<path d="M232.3,137.4c-2.3,0-4.6-0.3-6.8-1c-9-2.8-15.7-11-18.9-23.1c-3.2-12-2.5-26.4,1.9-40.6c4.4-14.2,12-26.4,21.4-34.5
			c9.5-8.1,19.6-11.1,28.6-8.3c9,2.8,15.7,11,18.9,23.1c3.2,12,2.5,26.4-1.9,40.6c-4.4,14.2-12,26.4-21.4,34.5
			C247,134.2,239.4,137.4,232.3,137.4z M251.7,29.9c-6.9,0-14.2,3.1-21.2,9.1c-9.3,8-16.8,20.1-21.1,34.1c-4.4,14-5,28.2-1.9,40.1
			c3.1,11.7,9.6,19.7,18.2,22.4c8.7,2.7,18.5-0.2,27.7-8.1c9.3-8,16.8-20.1,21.1-34.1c4.4-14,5-28.2,1.9-40.1
			c-3.1-11.7-9.6-19.7-18.2-22.4C256.2,30.2,254,29.9,251.7,29.9z M232.9,129.3c-1.9,0-3.8-0.3-5.6-0.8
			c-15.5-4.8-21.7-29.1-13.9-54.2l0,0c3.8-12.1,10.2-22.6,18.1-29.5c8-7,16.5-9.6,24.1-7.2c15.5,4.8,21.7,29.1,13.9,54.2
			c-3.8,12.1-10.2,22.6-18.1,29.5C245.3,126.5,238.9,129.3,232.9,129.3z M249.9,37.6c-5.8,0-11.9,2.7-17.8,7.8
			c-7.8,6.8-14.1,17.2-17.8,29.1l0,0c-7.6,24.6-1.7,48.4,13.3,53c7.2,2.2,15.4-0.2,23.2-7c7.8-6.8,14.1-17.2,17.8-29.1
			c7.6-24.6,1.7-48.4-13.3-53C253.5,37.9,251.8,37.6,249.9,37.6z"/>
	</g>
	<path class="st8" d="M273.3,92.9c-8.8,28.1-29.9,46.6-47.2,41.3c-17.3-5.4-24.2-32.6-15.4-60.7c8.8-28.1,29.9-46.6,47.2-41.3
		C275.2,37.5,282.1,64.8,273.3,92.9z M212,73.8c-3.8,12.3-4.5,24.9-1.9,35.3c2.7,10.8,8.6,18.1,16.6,20.6s17-0.2,25.4-7.5
		c8.1-7.1,14.7-17.8,18.5-30.2c3.8-12.3,4.5-24.9,1.9-35.3C269.9,46,264,38.7,256,36.2s-17,0.2-25.4,7.5
		C222.5,50.8,215.9,61.5,212,73.8z"/>
	<path class="st9" d="M274.8,93.4c-8.9,28.6-30.4,47.5-48.5,42.8c0.3,0.1,0.6,0.2,1,0.3c18.3,5.7,40.4-13.3,49.5-42.5
		c9.1-29.1,1.6-57.4-16.6-63c-0.3-0.1-0.6-0.2-1-0.3C276.7,37,283.7,64.8,274.8,93.4z"/>
	<path class="st10" d="M270.8,92.3c-8.9,28.5-28.3,47.9-46.4,43.2c0.3,0.1,0.6,0.2,1,0.3c18.3,5.7,40.4-13.3,49.4-42.3
		s1.6-57.2-16.7-62.9c-0.3-0.1-0.6-0.2-1-0.3C274.7,36.7,279.7,63.7,270.8,92.3z"/>
	<path class="st10" d="M211.3,82.1c-1.6,6.6-4.5,23.7,2.9,35.8c0.4,0.7,0.4,1.6-0.2,2.3l0,0c-0.9,1.1-2.6,0.9-3.3-0.3
		c-2.6-4.9-7.1-17.3-2.3-38.4c0.1-0.4,0.4-0.7,0.7-0.9c0,0,0.1,0,0.1,0C210.3,80,211.5,80.9,211.3,82.1z"/>
	<g>
		<path class="st11" d="M229.5,85.6c-0.8-0.5-1.4-1.8-1.2-4.1l-1-0.3C227.1,84.4,228.2,85.6,229.5,85.6z"/>
		<path class="st11" d="M247.5,76.2c-1.1,0.1-2.3,1.3-3.6,3l1,0.3c1.2-1.7,2.4-2.8,3.5-2.9c0.2,0,0.4,0,0.5,0
			C248.6,76.2,248.1,76.1,247.5,76.2z"/>
		<path class="st11" d="M229.9,75c2.5-6.8,6.2-9.6,6.2-9.6s-0.4-0.1-1.1-0.2c-0.6,0.5-3.8,3.4-6.1,9.6L229.9,75z"/>
		<path class="st11" d="M241,85.5l-1-0.3c-3.4,5.5-7.4,11.3-12.3,10.2c0,0,0,0,0.1,0C233.1,97.5,237.4,91.4,241,85.5z"/>
		<path class="st11" d="M253.9,69.3c2.2,2.6,2.2,7.6,0.9,13.1l1,0.3c1.3-5.5,1.3-10.5-0.9-13.1c-1-1.3-2.4-2.1-3.9-2.5
			C252.1,67.6,253.1,68.3,253.9,69.3z"/>
		<path class="st11" d="M252.8,89.2c-1.6,4.3-3.8,8.5-6.1,11.8c0.3,0.1,0.6,0.2,0.9,0.3c2.3-3.3,4.5-7.6,6.1-11.9L252.8,89.2z"/>
		<polygon class="st11" points="257.6,90.7 258.6,91 260.7,84.2 259.7,83.9 		"/>
	</g>
	<g>
		<path class="st12" d="M292.8,91.3l-13.3-4.1c-0.5,2.3-1.1,4.7-1.9,7.1c-0.8,2.6-1.7,5.1-2.7,7.5l13.3,4.1c1-2.4,1.9-4.9,2.7-7.6
			C291.6,96,292.2,93.6,292.8,91.3z"/>
		<path class="st13" d="M294.8,76.5l-13.4-4.7c-0.1,5-0.8,10.1-1.9,15.4l13.3,4.1C293.9,86.2,294.6,81.2,294.8,76.5z"/>
		<path class="st13" d="M273.4,105.1c-0.6,1.5-1.9,3.8-1.9,3.8l13.4,4.2c0.6-1.2,1.2-2.3,1.7-3.6l0.1-0.2L273.4,105.1z"/>
		<path class="st13" d="M269.6,112c-0.2,0.5-0.5,1-0.7,1.4c-0.4,0.7,0,1.6,0.8,1.8l10.9,3.4c0.6,0.2,1.2-0.1,1.5-0.6
			c0.3-0.5,0.7-1.5,1.1-2.2c0.2-0.3,0-0.8-0.4-0.9l-11.6-3.6C270.5,111.2,269.8,111.5,269.6,112z"/>
		<path class="st13" d="M278.5,120.6l-10.7-3.3c-0.6-0.2-1.2,0-1.5,0.5c-0.4,0.6-1,1.4-1.5,2.1c-0.5,0.7-0.2,1.8,0.7,2.1l10.5,3.5
			c0.6,0.2,1.2,0,1.5-0.5c0.6-0.8,1.1-1.5,1.7-2.3C279.7,121.9,279.3,120.9,278.5,120.6z"/>
	</g>
	<polygon class="st14" points="262.8,83.4 263.2,80.9 256.7,79.2 256.4,81.4 	"/>
	<polygon class="st10" points="291,88.7 275.1,85.7 267.3,95.1 269.3,83 255.8,73.7 270.7,77.3 279.1,67.6 277.5,79.5 	"/>
	<path d="M334.4,197.1c3-4,5.5-8.4,7.6-12.9c2.1-4.5,3.8-9.2,5-14.1c2.4-9.6,2.6-19.8,0-29.3c-0.2-0.6-0.3-1.2-0.5-1.8l-0.6-1.7
		l-0.3-0.9c0-0.1-0.2-0.4-0.3-0.7c-0.3-0.5-0.6-1-0.9-1.6c-1.3-2.1-2.7-4.1-4.3-5.9c-1.6-1.8-3.4-3.4-5.3-4.7
		c-2-1.3-4.1-2.1-6.3-2.3c-2.2-0.1-4.3,0.4-6.3,1.6c-1,0.6-1.9,1.2-2.8,2c-0.4,0.4-0.9,0.8-1.3,1.2l-0.6,0.6l-0.5,0.6
		c-1.3,1.7-2.1,3.7-2.1,5.8c0,2.1,0.6,4.2,1.8,6.1c1.1,1.8,2.8,3.4,4.6,4.4c1.9,1,4,1.4,6.1,1.3c1-0.1,2.1-0.3,3.1-0.6
		c0.9-0.3,1.8-0.8,2.7-1.4c1.8-1.2,3.3-2.9,4.7-4.8c2.7-3.8,4.7-8.2,6.1-12.7c1.4-4.6,2.1-9.4,2-14.1c0-2.4-0.3-4.8-0.7-7.1
		c-0.4-2.3-1.1-4.6-2.1-6.8c-1.9-4.4-4.7-8.3-8.3-11.5c-3.6-3.2-7.9-5.7-12.4-7.5c-2.3-0.9-4.6-1.7-7.1-2.4
		c-2.4-0.6-4.9-1.2-7.3-1.6l0.1-0.5c5,0.3,10.1,1.1,15,2.6c4.9,1.5,9.6,3.8,13.8,7c2.1,1.6,4,3.5,5.6,5.5c1.7,2.1,3.1,4.3,4.2,6.7
		c2.3,4.8,3.5,10.1,3.7,15.4c0.1,2.6,0,5.3-0.3,7.9c-0.3,2.6-0.9,5.2-1.6,7.7c-0.7,2.5-1.6,5-2.8,7.4c-1.1,2.4-2.5,4.7-4.1,6.9
		c-1.6,2.1-3.5,4.2-5.9,5.8c-1.2,0.8-2.5,1.5-4,2c-1.4,0.4-2.8,0.6-4.3,0.7c-2.9,0.1-5.9-0.6-8.4-2.1c-2.5-1.5-4.6-3.6-6-6.1
		c-1.4-2.5-2.2-5.4-2.1-8.3c0.1-2.9,1.3-5.8,3.1-8l0.7-0.8l0.7-0.7c0.5-0.5,1-0.9,1.5-1.3c1-0.9,2.2-1.6,3.4-2.3
		c2.4-1.3,5.3-2.1,8.2-1.8c2.9,0.3,5.5,1.4,7.7,3c2.2,1.5,4.1,3.4,5.8,5.4c1.7,2,3.2,4.1,4.5,6.4c0.3,0.6,0.6,1.1,0.9,1.7
		c0.1,0.3,0.3,0.6,0.5,1l0.3,0.9l0.6,1.8c0.2,0.6,0.3,1.2,0.5,1.9c2.5,10,1.8,20.6-0.9,30.3c-1.4,4.9-3.3,9.6-5.6,14.1
		c-2.3,4.5-5,8.8-8.1,12.8L334.4,197.1z"/>
	<path d="M316.3,189.7c2.4,2,4.3,4.6,5.9,7.3c0.2,0.3,0.4,0.7,0.6,1l0.5,1.1l0.5,1.1l0.4,1.1c0.6,1.5,1,3,1.4,4.6
		c0.7,3.1,1.5,6.3,1,9.5c-0.1,0.4-0.1,0.8-0.2,1.2l-0.3,1.2c-0.2,0.8-0.4,1.5-0.7,2.3c-0.6,1.5-1.3,3-2.3,4.3l-0.5-0.1
		c-0.4-1.6-0.5-3.2-0.6-4.7c-0.1-0.8-0.1-1.5-0.2-2.2c0-0.7,0-1.5-0.1-2.2c0-0.7-0.1-1.4,0-2.2c0-0.4,0-0.7,0-1.1l0-1.1
		c0.1-1.4,0.1-2.9,0-4.3c-0.2-1.4-0.3-2.9-0.7-4.3l-0.2-1.1l-0.3-1.1l-0.3-1.1c-0.1-0.4-0.2-0.7-0.4-1c-0.9-2.8-2.2-5.5-4-7.9
		L316.3,189.7z"/>
	<path d="M337.6,205.3c1.4,1.5,2.4,3.3,3.2,5.2c0.2,0.5,0.4,1,0.6,1.5c0.2,0.5,0.3,1,0.5,1.5c0.3,1,0.5,2,0.6,3.1
		c0.3,2.1,0.8,4.2,0.1,6.3c-0.6,2-1.6,3.9-3.5,5.4l-0.5-0.1c-0.4-1.1-0.5-2.2-0.6-3.1c-0.2-1-0.1-1.9-0.2-2.8c0-0.5,0-0.9,0.1-1.4
		c0-0.4,0.1-0.9,0.2-1.3c0.2-0.9,0.4-1.8,0.5-2.7c0-0.9,0.1-1.8,0-2.8c0-0.5,0-0.9-0.1-1.4c0-0.5-0.1-0.9-0.1-1.4
		c-0.2-1.9-0.6-3.8-1.3-5.6L337.6,205.3z"/>
	<g>
		<path class="st16" d="M394.6,242.4c-8.1-3.4-43.1,1.9-50.6,4.6c-7.4,2.6-5.1,21.2,3.6,32.1c-19.2,6.7-35.1,10.9-35.1,10.9
			s-8.7-12.9-3.2-46.8c5.5-33.9-29.3-40-35.6-32.2c-6.3,7.8,3.1,29-0.3,35.1s5.6,23.8,0.4,38.8c-5.2,15-13.8,45.9-15.9,57.7
			c-2.1,11.9-8.6,12.6-9.6,13.2c-8.5,4.3-56.1,17.2-107.2,31.1c5,19.3,13.9,55.7,21.4,77.8c43.7-16.7,108.3-50.1,108.3-50.1
			s15.6,9.8,40.7,10c45-2.6,66.3-28,69.8-39.7c3.5-11.7,1.2-18.5,1.2-18.5s7.9-9.1,5.7-21.5c-2.3-12.4-5-12.2-1.8-18.9
			c3.2-6.7-4.1-21.8-4.1-21.8s9.3-14.8,22.4-29.1C417.8,260.7,402.8,245.8,394.6,242.4z"/>
		<path d="M161.4,467.1l-0.6-1.9c-6.2-18.4-13.3-46.3-18.5-66.7c-1.1-4.2-2-8-2.9-11.3l-0.5-1.8l11.4-3.1
			c46-12.5,89.5-24.4,97.3-28.3c0.2-0.1,0.4-0.2,0.8-0.3c1.7-0.6,6.1-2.1,7.8-11.5c2.2-12.2,10.8-43,16-58
			c2.8-8.1,1.2-17.3-0.1-24.6c-1.1-6.3-2-11.3-0.2-14.5c1.2-2,0.2-7.5-0.7-12.9c-1.4-8.2-3-17.4,1.2-22.5c3.6-4.5,13.7-5,22.4-1.1
			c6.2,2.8,20.2,11.7,16.5,34.8c-4.4,27,0.5,40.5,2.3,44.3c4.1-1.1,16.5-4.6,31.1-9.7c-5.5-8.2-8.3-19.7-6.2-26.9
			c1.1-3.9,3.4-5.4,5-6c7.4-2.6,42.9-8.3,51.9-4.5l0,0c5,2.1,13.8,9,15.9,18.5c1.3,6.1-0.5,12-5.2,17.2c-11,12.1-19.4,24.6-21.6,28
			c1.7,3.8,6.8,16,3.6,22.5c-1.8,3.7-1.5,4.5-0.4,8.3c0.6,2.1,1.5,5,2.3,9.4c2,11.1-3.5,19.6-5.5,22.2c0.6,2.5,1.5,9-1.4,18.6
			c-3,9.8-22.5,38.3-71.5,41.1l-0.1,0l-0.1,0c-22.2-0.2-36.9-7.6-40.8-9.8c-8.1,4.2-67.1,34.3-107.5,49.7L161.4,467.1z M143.6,388.1
			c0.7,2.9,1.5,6.1,2.4,9.5c5,19.6,11.8,46.3,17.8,64.5c43.1-16.7,105.6-49,106.2-49.3l1-0.5l0.9,0.6c0.2,0.1,15.5,9.5,39.6,9.7
			c43.4-2.5,64.6-26.9,68-38.4c3.3-10.8,1.2-17.2,1.2-17.3l-0.4-1l0.7-0.8c0.1-0.1,7.3-8.5,5.2-19.9c-0.8-4.2-1.6-6.9-2.2-8.9
			c-1.3-4.3-1.7-6.2,0.6-11.1c2.3-4.8-2.2-16.2-4.1-20.2l-0.5-1l0.6-0.9c0.1-0.1,9.5-15.1,22.6-29.4c3.9-4.3,5.4-9,4.3-13.8
			c-1.7-7.6-9.2-13.9-13.7-15.8l0,0c-7.3-3.1-41.6,1.9-49.2,4.6c-1.2,0.4-2.1,1.6-2.6,3.5c-1.7,6,0.7,17.7,7.1,25.6l1.7,2.1
			l-2.5,0.9c-19,6.7-35.1,10.9-35.2,11l-1.3,0.3l-0.8-1.1c-0.4-0.6-9.1-14-3.5-48.2c3.3-20.5-8.9-28.3-14.3-30.7
			c-7.5-3.4-15.7-2.8-17.9,0c-3,3.7-1.6,12.1-0.4,19.5c1.1,6.5,2.1,12.2,0.2,15.4c-1.1,2-0.3,6.8,0.6,11.9c1.4,7.8,3.1,17.5,0,26.5
			c-5,14.5-13.7,45.6-15.8,57.4c-2.1,11.7-8.3,13.8-10.4,14.5c-0.1,0-0.2,0.1-0.3,0.1c-8.1,4.1-49.8,15.5-98,28.6L143.6,388.1z"/>
	</g>
	<g>
		<path class="st17" d="M139.1,376.9c0,0-8.3-4.2-25.3,0.9c-5.4,1.6-10.4,6.2-18.6,8.6c0,1.1,0.4,3.4,1,6.6l0.5-0.1l24.9,100h-1.1
			c0,0,0,0.1,0,0.1c0.7,2.5,3.1,4.1,5.6,3.8c7.5-0.9,23.5-4.1,43.8-15.2c-1.8-2-4.4-8.4-7.4-17.1c-7.5-22.1-17.3-59.1-22.3-78.5
			C138.3,378.4,139.1,376.9,139.1,376.9z"/>
		<path d="M125.6,498.8c-3.2,0-6.1-2.2-6.9-5.3l-0.6-2.4l1-0.1l-23.9-95.9l-0.6,0.1l-0.4-2c-0.7-3.5-1-5.7-1-6.9l0-1.5l1.4-0.4
			c4.4-1.2,7.9-3.2,11-5c2.6-1.5,5-2.8,7.6-3.6c17.5-5.3,26.4-1,26.7-0.8l1.8,0.9l-0.9,1.6c-0.1,0.4-0.2,2.4,1.2,7.9
			c5.1,19.9,14.9,56.5,22.3,78.3c4.1,12.1,6.1,15.5,7,16.5l1.6,1.8l-2.1,1.2c-20.4,11.2-36.6,14.5-44.5,15.4
			C126.1,498.8,125.8,498.8,125.6,498.8z M124,494.6c0.6,0.3,1.3,0.5,2,0.4c7.4-0.9,22.3-3.9,41.2-13.9c-1.3-2.3-3.3-6.6-6.4-15.8
			c-7.5-22-17.2-58.7-22.4-78.6c-0.7-2.7-1.4-6.1-1.4-8.4c-2.8-0.8-10.3-2.2-22.7,1.5c-2.2,0.7-4.3,1.9-6.8,3.3
			c-2.9,1.6-6.2,3.5-10.3,4.8c0.1,0.7,0.2,1.6,0.4,2.9l0.4-0.1L124,494.6z"/>
	</g>
	<g>
		<polyline class="st18" points="26.8,492.9 120.5,492.9 121.6,492.9 103.9,415.6 96.2,393 64.3,401.2 41.9,405.6 26.6,411.2 		"/>
		<polygon points="124,494.8 26.8,494.8 26.8,491 119.2,491 102,416.2 94.9,395.3 64.7,403.1 42.4,407.5 27.2,413 25.9,409.4 
			41.6,403.7 63.9,399.3 97.4,390.7 105.7,415.2 		"/>
	</g>
	<path d="M304.1,301.4c0.8-3.7,3.1-6.9,5.7-9.6c1.4-1.3,2.9-2.6,4.5-3.6c1.6-1,3.4-1.9,5.1-2.6c7-2.7,14.1-4.8,21.2-6.7
		c7.2-1.8,14.4-3.5,21.9-4.4c1.9-0.2,3.7-0.4,5.5-0.5l5.5-0.4c3.7-0.2,7.4-0.5,11.1-0.6c-7.2,1.8-14.4,3.3-21.7,4.6
		c-3.6,0.7-7.1,1.5-10.7,2.4c-3.6,0.9-7.1,1.8-10.7,2.7c-3.5,0.9-7.1,1.9-10.6,2.9c-3.5,1-7.1,2-10.5,3.1c-3.4,1-6.6,2.6-9.4,4.7
		c-1.4,1.1-2.8,2.3-4,3.6C306,298.2,304.9,299.7,304.1,301.4z"/>
	<path d="M359.9,276.4c-0.2-1.7,0.2-3.4,0.8-5c0.7-1.5,1.6-3,2.9-4.1c0.6-0.6,1.3-1.1,2-1.6c0.7-0.4,1.5-0.9,2.3-1.1
		c1.6-0.6,3.3-0.8,5-0.5c-1.3,1.2-2.4,2.1-3.5,3.1c-0.6,0.5-1.1,1-1.6,1.4c-0.5,0.5-1,1-1.5,1.5c-1,1-2,2-3,3
		C362.3,274.1,361.2,275.2,359.9,276.4z"/>
	<path class="st19" d="M144.2,388.5c0,0,1.9-0.8,5.1-2c0.9-0.3,7,20.5,8.1,20.1c16.6-6.4,53.8-20.6,61.6-21
		c10-0.6,43.1-15.3,51.9-19.5c8.8-4.1,26.5-42.5,44.2-44.8c17.7-2.4,34.2-13,47.8-20.1s40.1-36,40.7-41.3c0.6-5.3,0.6-5.3,0.6-5.3
		s13,8.8-2.9,23.6c-15.9,14.7-23.6,27.1-23.6,27.1s4.7,7.1,1.2,17.7c-3.5,10.6-3.5,15.3-3.5,15.3s10,5.6,5.9,16.2
		c-4.1,10.6-8.6,10.6-8.6,10.6s3.8,25.4-6.2,35.4c-10,10-64.3,36.9-95.6,10.3c-38.9,20.1-90.3,50.1-106.8,49.6
		C154,425.2,148.7,411.1,144.2,388.5z"/>
	<path class="st20" d="M273.8,210.9c0,0,8.7-3.1,9.4,7.9c0.8,11-2,14.6-4.7,15.3s-2.8,0.8-2.8,0.8S268.7,222.3,273.8,210.9z"/>
	<path class="st21" d="M142,411.9c0,0-13.4,7.9-18.5,7.9c-5.1,0-9,0.4-9,0.4l-6.3,4.3c0,0,5.5,11,8.7,31.9
		c3.1,20.8,8.7,37.4,8.7,37.4s24.4-3.1,39.7-12.2C158.2,460.7,142,411.9,142,411.9z"/>
	<path class="st21" d="M93,425.3c0,0-18.2,1.5-18.2,7.4c0,5.9-9.8,12.6-9.8,12.6s-6.7-4.3-11.4-0.4s-14.2,6.7-16.1,7.1s-9,1.6-9,1.6
		l0.8,37.4l86.2-0.8L103,462.5l5.9-4.1l-8.2-32l-1.6-4.5L93,425.3z"/>
	<path d="M279.7,210.1c1.9,3.8,3.5,7.8,4.5,11.9c0.5,2.1,0.9,4.2,0.6,6.4c-0.2,1.1-0.5,2.2-1,3.1c-0.6,1-1.5,1.7-2.5,2.1l0-0.1
		c1.8-1.3,2.5-3.3,2.6-5.3c0.2-2,0-4.1-0.4-6.2c-0.4-2.1-0.9-4.1-1.6-6.1C281.2,214.1,280.5,212.1,279.7,210.1L279.7,210.1z"/>
	<path class="st19" d="M362.3,274.4c0,0,12.3-20.3,24.9-7.3c0.8,4.8-2.9,5.5-2.9,5.5L362.3,274.4z"/>
	<path class="st19" d="M285.6,210.9c0,0,8.7,4.3,3.9,19.7c-4.7,15.3-9.4,11.4-0.8,30.3s10.6,23.6,11.4,33.4c0.8,9.8,0.8,9.8,0.8,9.8
		s5.5-13.4,9.4-16.1c-3.9-10.2-6.7-24.8-3.1-43.7C310.8,225.5,300.9,210.1,285.6,210.9z"/>
</g>
</svg>
