<?xml version="1.0" encoding="utf-8"?>
<!-- Generator: Adobe Illustrator 25.4.1, SVG Export Plug-In . SVG Version: 6.00 Build 0)  -->
<svg version="1.1" xmlns="http://www.w3.org/2000/svg" xmlns:xlink="http://www.w3.org/1999/xlink" x="0px" y="0px"
	 viewBox="0 0 512 512" style="enable-background:new 0 0 512 512;" xml:space="preserve">
<style type="text/css">
	.st0{fill:#FFFFFF;stroke:#CCCCCC;stroke-miterlimit:10;}
	.st1{fill:#F0E8DE;}
	.st2{fill:#D6960B;}
	.st3{fill:#D6AC00;}
	.st4{fill:#A64001;}
	.st5{fill:#F2C644;}
	.st6{fill:#E7BA33;}
	.st7{fill:#FEC82E;}
	.st8{fill:#FDE56C;}
	.st9{fill:#A65801;}
	.st10{fill:#FFFFFF;}
	.st11{fill:#FFEBA2;}
	.st12{fill:#EBC656;}
	.st13{fill:#E5B420;}
	.st14{fill:#B86734;}
	.st15{fill:url(#SVGID_1_);}
	.st16{fill:#F4CABC;}
	.st17{fill:#657F8E;}
	.st18{fill:#5B7787;}
	.st19{fill:#F0B7A4;}
	.st20{fill:#F6D5CA;}
	.st21{fill:#526F80;}
	.st22{fill:#D6960B;stroke:#000000;stroke-width:2;stroke-miterlimit:10;}
	.st23{fill:#FEC82E;stroke:#000000;stroke-miterlimit:10;}
	.st24{fill:url(#SVGID_00000136370256770558635240000001322063389260414865_);}
	.st25{fill:#F4CABC;stroke:#000000;stroke-width:4;stroke-miterlimit:10;}
	.st26{fill:#657F8E;stroke:#000000;stroke-width:4;stroke-miterlimit:10;}
	.st27{fill:#5B7787;stroke:#000000;stroke-width:4;stroke-miterlimit:10;}
	.st28{fill:#7653A0;stroke:#000000;stroke-width:4;stroke-miterlimit:10;}
	.st29{fill:#582D8B;}
	.st30{fill:#F4EECE;}
	.st31{fill:#D45300;stroke:#000000;stroke-width:4;stroke-miterlimit:10;}
	.st32{fill:#AE4100;}
	.st33{fill:#CDBC98;stroke:#000000;stroke-width:2;stroke-miterlimit:10;}
	.st34{fill:none;stroke:#000000;stroke-width:0.9584;stroke-miterlimit:10;}
	.st35{fill:#CDC296;}
	.st36{fill:#9D8373;}
	.st37{fill:#E9DEBC;}
	.st38{fill:#F5E7BF;stroke:#000000;stroke-miterlimit:10;}
	.st39{fill:#9D8973;}
	.st40{fill:#B5A498;}
	.st41{fill:#A3978A;}
	.st42{fill:#E2D8BB;}
	.st43{fill:#DCCFA9;}
	.st44{fill:url(#SVGID_00000039839418557223606150000017523812168860534947_);}
	.st45{fill:#DED2AF;}
	.st46{fill:#F6F1DE;}
	.st47{fill:#B59E89;}
	.st48{fill:#7D675B;}
	.st49{fill:url(#SVGID_00000166659808983938602060000003645287050416126862_);}
	.st50{fill:#07374A;}
	.st51{opacity:0.3;fill:#1BB8FF;}
	.st52{fill:url(#SVGID_00000162347955608276084990000004781534297471255699_);}
	.st53{fill:url(#SVGID_00000110436514152990940730000013819971329745600920_);}
	.st54{fill:url(#SVGID_00000096741812746834105430000008991038862192850319_);}
	.st55{fill:url(#SVGID_00000060717826133674470860000002699218208274468993_);}
	.st56{fill:url(#SVGID_00000146494028210157214110000017704155202573461425_);}
	.st57{fill:url(#SVGID_00000034768874687768575590000004879384892901838976_);}
	.st58{fill:url(#SVGID_00000137107279120688248490000001104682197754863505_);}
	.st59{fill:url(#SVGID_00000103949515237732906630000013729748328391381396_);}
	.st60{fill:url(#SVGID_00000177477906532274283170000008969899064546769564_);}
	.st61{opacity:0.6;fill:#B5FFFF;}
	.st62{fill:url(#SVGID_00000065780288672785050800000015550588905880307894_);}
	.st63{fill:url(#SVGID_00000119111339836827108060000001997016670756877955_);}
	.st64{fill:none;stroke:#000000;stroke-width:2;stroke-miterlimit:10;}
	.st65{fill:url(#SVGID_00000181080898982364082470000017593648611493353858_);}
	.st66{fill:url(#SVGID_00000078010749005741067440000015539059311027869336_);}
	.st67{fill:url(#SVGID_00000119825659028463064050000004662982651021234838_);}
	.st68{fill:url(#SVGID_00000088853721346241871690000011006570808809940374_);}
	.st69{fill:url(#SVGID_00000008131581323164443550000004347942830229150390_);}
	.st70{fill:url(#SVGID_00000163762195976541543370000001119278108096636338_);}
	.st71{fill:url(#SVGID_00000134946704043830146370000014618124990228595850_);}
	.st72{fill:url(#SVGID_00000079477513053159363220000004087534131815276941_);}
	.st73{fill:url(#SVGID_00000179643395145550833030000009453543400378242495_);}
	.st74{fill:url(#SVGID_00000019639962406230016960000013116457653977125802_);}
	.st75{fill:url(#SVGID_00000042720406989441774300000010150118098313360292_);}
</style>
<g id="safe">
</g>
<g id="Layer_1">
	<g>
		<path class="st0" d="M457.6,358.9c-20-14.4-29.1-22.3-18.1-44.2c16.6-33.2,22.6-64.4,18.2-95.4c-4.7-33.8-21.6-66.8-51.5-100.9
			c-40-45.6-87.5-56-121.1-56.5l-3.5-21.4c-0.6-3.7-3.2-6.8-6.8-7.9L235,20c-1-0.3-2-0.5-3-0.5c-2.7,0-5.3,1.1-7.2,3.1l-43.5,45.1
			c-2.2,2.3-3.2,5.5-2.7,8.6l3.3,19.8c-11.7,19.3-5.8,48.9-0.1,77.6c3.9,19.7,8.8,44.2,2.9,51.3c-0.5,0.6-2,2.5-7.8,2.5c0,0,0,0,0,0
			c-1.4,0-3-0.1-4.7-0.3c-8-1.1-15.7-1.6-23.1-1.6c-32.7,0-59.1,10.4-78.3,31C35.5,294.3,36.6,353.1,37,362.7
			c-0.6,4.3-1.1,15.4,6.5,29.3l-9.9,2c-0.5,0.1-1,0.2-1.5,0.4l-15.6,5.7c-2.5,0.9-4.5,2.8-5.6,5.2c-1.1,2.4-1.2,5.2-0.3,7.7l0.1,0.2
			l0.2,79.9v2c0,5.5,4.5,10,10,10h87.8c3,2.5,6.9,4,11,4c0.7,0,1.4,0,2.1-0.1c8.6-1,26.3-4.6,48.1-16.6l2.2-1.2
			c2.7-1.5,4.5-4.1,5-7.1c0.5-3-0.4-6.1-2.4-8.3l-1.4-1.5c-0.2-0.3-0.6-1.1-1.3-2.7c3.2-1.3,6.6-2.8,10.2-4.3
			c37.6,9.8,73.5,15.1,106.7,15.7c2.3,0,4.5,0.1,6.8,0.1c0,0,0,0,0,0c40.4,0,84.4-6.6,120.6-18.1c21.9-7,59.9-21.9,68.5-43.8
			C497.7,387.8,474.5,371.1,457.6,358.9z"/>
	</g>
	<path class="st1" d="M47,363.3c0,0-9.4-144,123.9-126.3c65.9,8.7-17.7-120.4,29.5-145.1s135.2-38.8,198.2,33
		c59,67.3,61.4,126.3,31.9,185.3c-29.5,59,66.1,53.1,44.8,107.4c-10.8,27.7-99.9,57-186.4,55.5c-83.2-1.5-163.8-33.2-187.6-44.8
		C38.8,397.5,47,363.3,47,363.3z"/>
	<g>
		<path d="M328.3,197.3c3-4,5.5-8.4,7.6-12.9c2.1-4.5,3.8-9.2,5-14c2.4-9.6,2.6-19.8,0-29.3c-0.2-0.6-0.3-1.2-0.5-1.8l-0.6-1.7
			l-0.3-0.9c0-0.1-0.2-0.4-0.3-0.7c-0.3-0.5-0.6-1-0.9-1.6c-1.3-2.1-2.7-4-4.3-5.8c-1.6-1.8-3.4-3.4-5.3-4.7
			c-1.9-1.3-4.1-2.1-6.2-2.2c-2.2-0.1-4.3,0.4-6.2,1.6c-1,0.6-1.9,1.2-2.8,2c-0.4,0.4-0.9,0.8-1.3,1.2l-0.6,0.6l-0.5,0.6
			c-1.3,1.7-2.1,3.7-2.1,5.8c0,2.1,0.6,4.2,1.8,6c1.1,1.8,2.7,3.3,4.6,4.3c1.9,1,3.9,1.4,6,1.3c1-0.1,2.1-0.3,3.1-0.6
			c0.9-0.3,1.8-0.8,2.7-1.4c1.7-1.2,3.3-2.9,4.7-4.8c2.7-3.7,4.7-8.1,6.1-12.7c1.4-4.6,2.1-9.3,2.1-14.1c0-2.4-0.3-4.7-0.7-7.1
			c-0.4-2.3-1.1-4.6-2-6.8c-1.8-4.3-4.7-8.3-8.3-11.5c-3.6-3.2-7.9-5.7-12.4-7.5c-2.3-0.9-4.6-1.7-7-2.4c-2.4-0.7-4.8-1.2-7.3-1.6
			l0.1-0.5c5,0.3,10.1,1,15,2.5c4.9,1.5,9.7,3.8,13.8,7c2.1,1.6,4,3.5,5.7,5.5c1.7,2.1,3.1,4.3,4.3,6.7c2.4,4.8,3.5,10.1,3.8,15.4
			c0.1,2.6,0,5.3-0.3,7.9c-0.3,2.6-0.9,5.2-1.6,7.8c-0.7,2.5-1.6,5-2.8,7.4c-1.1,2.4-2.5,4.7-4.1,6.9c-1.6,2.2-3.5,4.2-5.9,5.9
			c-1.2,0.8-2.5,1.5-4,2c-1.4,0.4-2.9,0.6-4.3,0.7c-2.9,0.1-6-0.6-8.5-2.2c-2.5-1.5-4.6-3.6-6-6.1c-1.4-2.5-2.2-5.4-2.1-8.3
			c0.1-2.9,1.3-5.9,3.2-8.1l0.7-0.8l0.7-0.7c0.5-0.5,1-0.9,1.5-1.3c1-0.9,2.2-1.7,3.4-2.3c2.4-1.3,5.4-2.1,8.2-1.8
			c2.9,0.3,5.5,1.5,7.7,3c2.2,1.5,4.1,3.4,5.8,5.4c1.7,2,3.2,4.1,4.5,6.4c0.3,0.6,0.6,1.1,0.9,1.7c0.1,0.3,0.3,0.6,0.5,1l0.3,0.9
			l0.6,1.8c0.2,0.6,0.3,1.2,0.5,1.9c2.5,10,1.8,20.6-1,30.3c-2.8,9.8-7.5,18.9-13.8,26.9L328.3,197.3z"/>
	</g>
	<g>
		<path d="M310.2,189.9c2.5,2,4.3,4.5,5.9,7.3c0.4,0.7,0.8,1.4,1.1,2.1l0.5,1.1l0.4,1.1c0.6,1.5,1,3,1.4,4.6c0.7,3.1,1.6,6.3,1,9.6
			c-0.1,0.8-0.3,1.6-0.5,2.4c-0.2,0.8-0.4,1.5-0.7,2.3c-0.6,1.5-1.4,2.9-2.3,4.3l-0.5-0.1c-0.4-1.6-0.5-3.2-0.7-4.7
			c-0.1-0.8-0.2-1.5-0.2-2.2c0-0.7,0-1.5-0.1-2.2c-0.1-1.4,0-2.9,0-4.3c0.2-1.4,0.1-2.9,0-4.3c-0.2-1.4-0.3-2.9-0.7-4.3l-0.2-1.1
			l-0.3-1.1c-0.2-0.7-0.4-1.4-0.6-2.1c-0.9-2.8-2.2-5.5-4-7.9L310.2,189.9z"/>
	</g>
	<g>
		<path d="M331.5,205.4c1.4,1.5,2.4,3.3,3.3,5.2c0.2,0.5,0.4,1,0.6,1.5c0.2,0.5,0.4,1,0.5,1.5c0.3,1,0.5,2,0.7,3.1
			c0.3,2.1,0.9,4.3,0.2,6.3c-0.6,2-1.7,4-3.6,5.4l-0.5-0.2c-0.4-1.2-0.6-2.2-0.7-3.2c-0.2-1-0.1-1.9-0.2-2.8c0-0.5,0-0.9,0.1-1.4
			c0-0.4,0.1-0.9,0.2-1.3c0.3-0.9,0.4-1.8,0.5-2.7c0-0.9,0.1-1.8,0.1-2.8c0-0.5,0-0.9,0-1.4c0-0.5-0.1-0.9-0.1-1.4
			c-0.2-1.9-0.6-3.8-1.3-5.6L331.5,205.4z"/>
	</g>
	<path class="st25" d="M388.5,242.6c-8.1-3.4-43.1,1.9-50.6,4.6c-7.4,2.6-5.1,21.2,3.6,32.1c-19.2,6.7-35.1,10.9-35.1,10.9
		s-8.7-12.9-3.2-46.8c5.5-33.9-29.3-40-35.6-32.2c-6.3,7.8,3.1,29-0.3,35.1c-3.4,6.1,5.6,23.8,0.4,38.8c-5.2,15-13.8,45.9-15.9,57.7
		s-8.6,12.6-9.6,13.2c-8.5,4.3-56.1,17.2-107.2,31.1c5,19.3,13.9,55.7,21.4,77.8c43.7-16.7,108.3-50.1,108.3-50.1s15.6,9.8,40.7,10
		c45-2.6,66.3-28,69.8-39.7c3.5-11.7,1.2-18.5,1.2-18.5s7.9-9.1,5.7-21.5c-2.3-12.4-5-12.2-1.8-18.9c3.2-6.7-4.1-21.8-4.1-21.8
		s9.3-14.8,22.4-29.1C411.7,260.9,396.7,246,388.5,242.6z"/>
	<path class="st28" d="M133,377.1c0,0-8.3-4.2-25.3,0.9c-5.4,1.6-10.4,6.2-18.6,8.6c0,1.1,0.4,3.4,1,6.6l0.5-0.1l24.9,100h-1.1
		c0,0,0,0.1,0,0.1c0.7,2.5,3.1,4.1,5.6,3.8c7.5-0.9,23.5-4.1,43.8-15.2c-1.8-2-4.4-8.4-7.4-17.1c-7.5-22.1-17.3-59.1-22.3-78.5
		C132.1,378.6,133,377.1,133,377.1z"/>
	<polyline class="st28" points="20.7,493.1 114.4,493.1 115.5,493.1 97.8,415.8 90,393.2 58.2,401.4 35.8,405.8 20.5,411.4 	"/>
	<g>
		<path d="M298,301.5c0.8-3.7,3-7,5.7-9.7c2.7-2.7,6.1-4.8,9.7-6.3c7-2.7,14.1-4.8,21.3-6.7c7.2-1.8,14.4-3.5,21.9-4.4
			c1.9-0.2,3.7-0.4,5.5-0.5l5.5-0.4c3.7-0.2,7.4-0.5,11.1-0.5c-7.2,1.9-14.4,3.3-21.7,4.6c-3.5,0.7-7.1,1.5-10.7,2.4
			c-3.6,0.9-7.1,1.8-10.6,2.7c-3.5,0.9-7.1,1.9-10.6,2.9c-3.5,1-7.1,2-10.5,3.1c-3.4,1-6.5,2.6-9.4,4.7c-1.4,1.1-2.8,2.2-4,3.6
			C299.9,298.4,298.8,299.9,298,301.5z"/>
	</g>
	<g>
		<path d="M353.8,276.6c-0.2-1.8,0.1-3.4,0.8-5c0.7-1.6,1.6-3,2.9-4.2c0.6-0.6,1.3-1.1,2-1.6c0.7-0.4,1.5-0.9,2.3-1.1
			c1.6-0.6,3.4-0.8,5.1-0.5c-1.2,1.3-2.4,2.2-3.5,3.2c-0.6,0.5-1,1-1.6,1.4c-0.5,0.5-1,1-1.5,1.5l-3,3
			C356.2,274.3,355.1,275.4,353.8,276.6z"/>
	</g>
	<path class="st19" d="M138.1,388.7c0,0,1.9-0.8,5.1-2c0.9-0.3,7,20.5,8.1,20.1c16.6-6.4,53.8-20.6,61.6-21
		c10-0.6,43.1-15.3,51.9-19.5c8.9-4.1,26.5-42.5,44.2-44.8c17.7-2.4,34.2-13,47.8-20.1c13.6-7.1,40.1-36,40.7-41.3s0.6-5.3,0.6-5.3
		s13,8.8-3,23.6c-15.9,14.7-23.6,27.1-23.6,27.1s4.7,7.1,1.2,17.7c-3.5,10.6-3.5,15.3-3.5,15.3s10,5.6,5.9,16.2
		c-4.1,10.6-8.6,10.6-8.6,10.6s3.8,25.4-6.2,35.4c-10,10-64.3,36.9-95.6,10.3c-38.9,20.1-90.3,50.1-106.8,49.6
		C147.8,425.4,142.6,411.3,138.1,388.7z"/>
	<path class="st20" d="M267.7,211.1c0,0,8.7-3.1,9.4,7.9c0.8,11-2,14.6-4.7,15.3c-2.8,0.8-2.8,0.8-2.8,0.8S262.6,222.5,267.7,211.1z
		"/>
	<path class="st29" d="M135.9,412.1c0,0-13.4,7.9-18.5,7.9s-9,0.4-9,0.4l-6.3,4.3c0,0,5.5,11,8.7,31.9c3.1,20.8,8.7,37.4,8.7,37.4
		s24.4-3.1,39.7-12.2C152,460.8,135.9,412.1,135.9,412.1z"/>
	<path class="st29" d="M86.9,425.5c0,0-18.2,1.5-18.2,7.4s-9.8,12.6-9.8,12.6s-6.7-4.3-11.4-0.4s-14.2,6.7-16.1,7.1s-9,1.6-9,1.6
		l0.8,37.4l86.2-0.8l-12.4-27.6l5.9-4.1l-8.2-32l-1.6-4.5L86.9,425.5z"/>
	<g>
		<path d="M273.6,210.3c1.9,3.8,3.5,7.8,4.5,11.9c0.5,2.1,0.9,4.3,0.6,6.5c-0.2,1.1-0.5,2.2-1,3.2c-0.6,1-1.5,1.7-2.5,2.1l0-0.1
			c1.7-1.3,2.5-3.3,2.6-5.3c0.1-2,0-4.1-0.4-6.2c-0.4-2.1-0.9-4.1-1.6-6.1C275.1,214.2,274.4,212.3,273.6,210.3L273.6,210.3z"/>
	</g>
	<path class="st19" d="M356.2,274.6c0,0,12.3-20.3,24.9-7.3c0.8,4.8-2.9,5.5-2.9,5.5L356.2,274.6z"/>
	<path class="st19" d="M279.5,211.1c0,0,8.7,4.3,3.9,19.7s-9.4,11.4-0.8,30.3s10.6,23.6,11.4,33.4c0.8,9.8,0.8,9.8,0.8,9.8
		s5.5-13.4,9.4-16.1c-3.9-10.2-6.7-24.8-3.1-43.7C304.7,225.6,294.8,210.3,279.5,211.1z"/>
	<g>
		<polygon class="st50" points="252.6,37.1 262.4,98.3 219,142.9 199.8,136.5 189.6,74.9 232.3,30.6 		"/>
		<polygon class="st51" points="218.2,138.8 219,139.1 259.8,97.2 250.6,40.1 248.7,39.5 208.5,80.8 		"/>
		
			<linearGradient id="SVGID_1_" gradientUnits="userSpaceOnUse" x1="1176.5096" y1="696.8582" x2="1172.6129" y2="661.7869" gradientTransform="matrix(0.3037 -0.9528 0.9528 0.3037 -693.4583 991.8134)">
			<stop  offset="5.376344e-02" style="stop-color:#9FC762"/>
			<stop  offset="0.5857" style="stop-color:#008EBB"/>
		</linearGradient>
		<path class="st15" d="M262.4,98.3l-9.9-61.2l18.2,5.8l10,60.5C280.7,103.4,262.3,98.3,262.4,98.3z"/>
		
			<linearGradient id="SVGID_00000106868354296698046340000015483681225594921650_" gradientUnits="userSpaceOnUse" x1="1117.11" y1="687.3613" x2="1112.5046" y2="614.0304" gradientTransform="matrix(0.3037 -0.9528 0.9528 0.3037 -693.4583 991.8134)">
			<stop  offset="0" style="stop-color:#92ACB3"/>
			<stop  offset="0.6287" style="stop-color:#003145"/>
		</linearGradient>
		<polygon style="fill:url(#SVGID_00000106868354296698046340000015483681225594921650_);" points="280.7,103.4 262.4,98.3 
			219,142.9 236.6,148.5 		"/>
		
			<linearGradient id="SVGID_00000123410703908962379340000013000645405820229297_" gradientUnits="userSpaceOnUse" x1="1095.0007" y1="609.2686" x2="1146.0135" y2="605.0175" gradientTransform="matrix(0.3037 -0.9528 0.9528 0.3037 -693.4583 991.8134)">
			<stop  offset="0.2464" style="stop-color:#E700FF"/>
			<stop  offset="0.7927" style="stop-color:#FA7A36"/>
			<stop  offset="1" style="stop-color:#FFD100"/>
		</linearGradient>
		<polygon style="fill:url(#SVGID_00000123410703908962379340000013000645405820229297_);" points="237.3,114.3 218.8,133.3 
			213.7,101.6 232.1,82.4 		"/>
		
			<linearGradient id="SVGID_00000085961696993254859640000003404755821364719290_" gradientUnits="userSpaceOnUse" x1="1164.9751" y1="610.4347" x2="1098.8179" y2="578.5517" gradientTransform="matrix(0.3037 -0.9528 0.9528 0.3037 -693.4583 991.8134)">
			<stop  offset="0.5308" style="stop-color:#FABD09"/>
			<stop  offset="0.8292" style="stop-color:#FA6B00"/>
		</linearGradient>
		<path style="fill:url(#SVGID_00000085961696993254859640000003404755821364719290_);" d="M218.8,133.3c0-0.5-11.4-70.1-11.4-70.1
			l-13.6,13.5l8.4,51.5L218.8,133.3z"/>
		
			<linearGradient id="SVGID_00000101797447026097474870000003703298497030582204_" gradientUnits="userSpaceOnUse" x1="1109.1521" y1="588.5017" x2="1194.1735" y2="594.6126" gradientTransform="matrix(0.3037 -0.9528 0.9528 0.3037 -693.4583 991.8134)">
			<stop  offset="0.2043" style="stop-color:#BAFF8E"/>
			<stop  offset="0.7524" style="stop-color:#008EBB"/>
			<stop  offset="0.8664" style="stop-color:#008EBB"/>
		</linearGradient>
		<polygon style="fill:url(#SVGID_00000101797447026097474870000003703298497030582204_);" points="217.2,90.2 212,58.8 230.1,40 
			235.2,71.2 		"/>
		
			<linearGradient id="SVGID_00000145759992730687782300000006723309891756431794_" gradientUnits="userSpaceOnUse" x1="1178.7542" y1="563.7995" x2="1139.1661" y2="654.4003" gradientTransform="matrix(0.3037 -0.9528 0.9528 0.3037 -693.4583 991.8134)">
			<stop  offset="0" style="stop-color:#FFFFFF"/>
			<stop  offset="0.2097" style="stop-color:#BAFF8E"/>
			<stop  offset="0.6287" style="stop-color:#008EBB"/>
		</linearGradient>
		<polygon style="fill:url(#SVGID_00000145759992730687782300000006723309891756431794_);" points="230.2,40.1 241.5,109.6 
			254.8,96.1 246.4,44.5 		"/>
		
			<linearGradient id="SVGID_00000147917476883830640740000007871599155404144051_" gradientUnits="userSpaceOnUse" x1="1148.2128" y1="592.982" x2="1140.0649" y2="584.1256" gradientTransform="matrix(0.3037 -0.9528 0.9528 0.3037 -693.4583 991.8134)">
			<stop  offset="0.4233" style="stop-color:#FABD09"/>
			<stop  offset="0.8292" style="stop-color:#FA6B00"/>
		</linearGradient>
		<path style="fill:url(#SVGID_00000147917476883830640740000007871599155404144051_);" d="M213.7,101.6l1.6-1.7
			c-2.9-17.9-5.9-36.1-5.9-36.1l-2.1-0.6C208.4,69.5,213.7,101.6,213.7,101.6z"/>
		
			<linearGradient id="SVGID_00000167386266253458186690000016072487976491491458_" gradientUnits="userSpaceOnUse" x1="1135.6592" y1="600.0685" x2="1159.177" y2="600.0685" gradientTransform="matrix(0.3037 -0.9528 0.9528 0.3037 -693.4583 991.8134)">
			<stop  offset="0" style="stop-color:#BAFF8E"/>
			<stop  offset="0.6287" style="stop-color:#008EBB"/>
			<stop  offset="0.6998" style="stop-color:#008EBB"/>
		</linearGradient>
		<polygon style="fill:url(#SVGID_00000167386266253458186690000016072487976491491458_);" points="235.2,71.2 217.2,90.2 
			219.3,90.8 235.7,73.6 		"/>
		
			<linearGradient id="SVGID_00000147182051218627323320000012798382156837499565_" gradientUnits="userSpaceOnUse" x1="1167.1909" y1="620.1373" x2="1109.9788" y2="629.8793" gradientTransform="matrix(0.3037 -0.9528 0.9528 0.3037 -693.4583 991.8134)">
			<stop  offset="0" style="stop-color:#BAFF8E"/>
			<stop  offset="0.6287" style="stop-color:#008EBB"/>
		</linearGradient>
		<polygon style="fill:url(#SVGID_00000147182051218627323320000012798382156837499565_);" points="254.7,95.9 241.5,109.5 
			243.5,110 256.7,96.5 248.4,45.1 246.4,44.5 		"/>
		<polygon class="st61" points="252.6,37.1 262.4,98.3 261,99.6 251.3,38.8 231.6,31.7 232.3,30.6 		"/>
		
			<linearGradient id="SVGID_00000107553837599649868600000012108749614311611320_" gradientUnits="userSpaceOnUse" x1="1095.8744" y1="604.6545" x2="1121.3809" y2="629.718" gradientTransform="matrix(0.3037 -0.9528 0.9528 0.3037 -693.4583 991.8134)">
			<stop  offset="0.2464" style="stop-color:#A900FF"/>
			<stop  offset="0.637" style="stop-color:#F037A5"/>
			<stop  offset="0.7635" style="stop-color:#F45672"/>
			<stop  offset="0.8949" style="stop-color:#FA7A36"/>
			<stop  offset="1" style="stop-color:#FF9B00"/>
		</linearGradient>
		<polygon style="fill:url(#SVGID_00000107553837599649868600000012108749614311611320_);" points="218.8,133.3 221,134 239.5,115 
			237.2,114.3 		"/>
		
			<linearGradient id="SVGID_00000173127585697625890630000005064527631941258134_" gradientUnits="userSpaceOnUse" x1="1117.1588" y1="604.53" x2="1127.7865" y2="610.9066" gradientTransform="matrix(0.3037 -0.9528 0.9528 0.3037 -693.4583 991.8134)">
			<stop  offset="0.2464" style="stop-color:#E700FF"/>
			<stop  offset="0.3166" style="stop-color:#E804F9"/>
			<stop  offset="0.4108" style="stop-color:#E90EE8"/>
			<stop  offset="0.5188" style="stop-color:#EC1FCC"/>
			<stop  offset="0.637" style="stop-color:#F037A5"/>
			<stop  offset="0.7635" style="stop-color:#F45672"/>
			<stop  offset="0.8949" style="stop-color:#FA7A36"/>
			<stop  offset="1" style="stop-color:#FF9B00"/>
		</linearGradient>
		<polygon style="fill:url(#SVGID_00000173127585697625890630000005064527631941258134_);" points="232.1,82.5 237.2,114.3 
			239.5,115 234.3,83.1 		"/>
		<polygon class="st10" points="246.4,44.5 254.7,95.9 241.5,109.5 253.8,95.4 245.7,44.5 		"/>
		<polygon class="st10" points="276.9,107.3 257.7,100.3 250.4,111 253.8,97.1 240,87 255.7,92.9 265.6,82.6 260.8,95.2 		"/>
		<polygon class="st10" points="207.4,63.3 193.7,76.6 198.5,105.2 195,76.9 		"/>
		<polygon class="st10" points="216.3,99.3 232.1,82.5 237.2,114.3 231.2,85.1 		"/>
	</g>
	<polygon class="st64" points="280.7,103.4 270.8,42.9 252.6,37.1 232.3,30.6 189.6,74.9 199.8,136.5 219,142.9 236.6,148.5 
		280.7,103.4 	"/>
</g>
</svg>
