<?xml version="1.0" encoding="utf-8"?>
<!-- Generator: Adobe Illustrator 25.4.1, SVG Export Plug-In . SVG Version: 6.00 Build 0)  -->
<svg version="1.1" xmlns="http://www.w3.org/2000/svg" xmlns:xlink="http://www.w3.org/1999/xlink" x="0px" y="0px"
	 viewBox="0 0 512 512" style="enable-background:new 0 0 512 512;" xml:space="preserve">
<style type="text/css">
	.st0{fill:#FFFFFF;stroke:#CCCCCC;stroke-miterlimit:10;}
	.st1{fill:#F0E8DE;}
	.st2{fill:#D6960B;}
	.st3{fill:#D6AC00;}
	.st4{fill:#A64001;}
	.st5{fill:#F2C644;}
	.st6{fill:#E7BA33;}
	.st7{fill:#FEC82E;}
	.st8{fill:#FDE56C;}
	.st9{fill:#A65801;}
	.st10{fill:#FFFFFF;}
	.st11{fill:#FFEBA2;}
	.st12{fill:#EBC656;}
	.st13{fill:#E5B420;}
	.st14{fill:#B86734;}
	.st15{fill:url(#SVGID_1_);}
	.st16{fill:#F4CABC;}
	.st17{fill:#657F8E;}
	.st18{fill:#5B7787;}
	.st19{fill:#F0B7A4;}
	.st20{fill:#F6D5CA;}
	.st21{fill:#526F80;}
	.st22{fill:#D6960B;stroke:#000000;stroke-width:2;stroke-miterlimit:10;}
	.st23{fill:#FEC82E;stroke:#000000;stroke-miterlimit:10;}
	.st24{fill:url(#SVGID_00000093867756455333302990000006450935590748762513_);}
	.st25{fill:#F4CABC;stroke:#000000;stroke-width:4;stroke-miterlimit:10;}
	.st26{fill:#657F8E;stroke:#000000;stroke-width:4;stroke-miterlimit:10;}
	.st27{fill:#5B7787;stroke:#000000;stroke-width:4;stroke-miterlimit:10;}
	.st28{fill:#7653A0;stroke:#000000;stroke-width:4;stroke-miterlimit:10;}
	.st29{fill:#582D8B;}
	.st30{fill:#F4EECE;}
	.st31{fill:#D45300;stroke:#000000;stroke-width:4;stroke-miterlimit:10;}
	.st32{fill:#AE4100;}
	.st33{fill:#CDBC98;stroke:#000000;stroke-width:2;stroke-miterlimit:10;}
	.st34{fill:none;stroke:#000000;stroke-width:0.9584;stroke-miterlimit:10;}
	.st35{fill:#CDC296;}
	.st36{fill:#9D8373;}
	.st37{fill:#E9DEBC;}
	.st38{fill:#F5E7BF;stroke:#000000;stroke-miterlimit:10;}
	.st39{fill:#9D8973;}
	.st40{fill:#B5A498;}
	.st41{fill:#A3978A;}
	.st42{fill:#E2D8BB;}
	.st43{fill:#DCCFA9;}
	.st44{fill:url(#SVGID_00000176754139443349590170000010527374193687791027_);}
	.st45{fill:#DED2AF;}
	.st46{fill:#F6F1DE;}
	.st47{fill:#B59E89;}
	.st48{fill:#7D675B;}
	.st49{fill:url(#SVGID_00000147900944013383789130000004193337420975413397_);}
	.st50{fill:#07374A;}
	.st51{opacity:0.3;fill:#1BB8FF;}
	.st52{fill:url(#SVGID_00000120537990125539324610000005326180154281382808_);}
	.st53{fill:url(#SVGID_00000131350773663539676930000011426825883321568642_);}
	.st54{fill:url(#SVGID_00000084496074986247553190000011638369440123409575_);}
	.st55{fill:url(#SVGID_00000168804008119183151780000017219413703615037318_);}
	.st56{fill:url(#SVGID_00000034056372772181311130000001723438448580205981_);}
	.st57{fill:url(#SVGID_00000137108414586818060020000004516393762052791466_);}
	.st58{fill:url(#SVGID_00000175285682881552000630000012937609348394109573_);}
	.st59{fill:url(#SVGID_00000138562530582154907340000017571520891762396092_);}
	.st60{fill:url(#SVGID_00000158720155244650099750000006050040150794739617_);}
	.st61{opacity:0.6;fill:#B5FFFF;}
	.st62{fill:url(#SVGID_00000038394015613384356440000002559039498238104464_);}
	.st63{fill:url(#SVGID_00000043441452305303548670000002629975435085296807_);}
	.st64{fill:none;stroke:#000000;stroke-width:2;stroke-miterlimit:10;}
	.st65{fill:url(#SVGID_00000109713263705717240990000004573485639368183991_);}
	.st66{fill:url(#SVGID_00000108295806717223897010000013019869695880304005_);}
	.st67{fill:url(#SVGID_00000162349781288394566370000016200608742605207738_);}
	.st68{fill:url(#SVGID_00000146481070708245220580000007441172162369833604_);}
	.st69{fill:url(#SVGID_00000155112889990949778830000008975027449745695164_);}
	.st70{fill:url(#SVGID_00000132778867270136873100000009790327673958027435_);}
	.st71{fill:url(#SVGID_00000073711264129734596530000006243771589341707151_);}
	.st72{fill:url(#SVGID_00000071559437015705334160000014904058329028749754_);}
	.st73{fill:url(#SVGID_00000144340040292084818530000000316160097834663563_);}
	.st74{fill:url(#SVGID_00000175323623901163464810000006739745231185393086_);}
	.st75{fill:url(#SVGID_00000093890223570150606600000003090457047809258892_);}
</style>
<g id="safe">
</g>
<g id="Layer_1">
	<g>
		<path class="st0" d="M463.4,358.8c-20-14.4-29.1-22.3-18.1-44.2c16.6-33.2,22.6-64.4,18.2-95.4c-4.7-33.8-21.6-66.8-51.5-100.9
			c-37-42.1-80.4-54.2-112.9-56.2c-2.8-13.5-9.6-24.4-19.6-31.2c-2.2-1.5-5.9-3-13.5-6l-0.1,0c-0.8-0.3-1.5-0.6-1.9-0.7l-0.9-0.4
			c-4.4-1.8-9.9-4-15.6-4.3c-0.8,0-1.5-0.1-2.3-0.1c-24.8,0-47.3,19.2-60.2,51.2c-9.1,22.5-10.4,44-3.9,60.8
			c0.7,13.4,3.6,28,6.5,42.1c3.9,19.7,8.8,44.2,2.9,51.3c-0.5,0.6-2,2.5-7.8,2.5c0,0,0,0,0,0c-1.4,0-3-0.1-4.7-0.3
			c-8-1.1-15.7-1.6-23.1-1.6c-32.7,0-59.1,10.4-78.3,31C41.3,294.2,42.4,353,42.8,362.6c-0.6,4.3-1.1,15.4,6.5,29.3l-9.9,2
			c-0.5,0.1-1,0.2-1.5,0.4L22.2,400c-2.5,0.9-4.5,2.8-5.6,5.2s-1.2,5.2-0.3,7.7l0.1,0.2l0.2,79.9v2c0,5.5,4.5,10,10,10h87.8
			c3,2.5,6.9,4,11,4c0.7,0,1.4,0,2.1-0.1c8.6-1,26.3-4.6,48.1-16.6l2.2-1.2c2.7-1.5,4.5-4.1,5-7.1c0.5-3-0.4-6.1-2.4-8.3l-1.4-1.5
			c-0.2-0.3-0.6-1.1-1.3-2.7c3.2-1.3,6.6-2.8,10.2-4.3c37.6,9.8,73.5,15.1,106.7,15.7c2.3,0,4.5,0.1,6.8,0.1c0,0,0,0,0,0
			c40.4,0,84.4-6.6,120.6-18.1c21.9-7,59.9-21.9,68.5-43.8C503.6,387.7,480.3,371,463.4,358.8z"/>
	</g>
	<path class="st30" d="M263,102.1c-11.8,29.4-36.1,47.3-54.1,40.1c-18-7.3-23-37.1-11.2-66.4s36.1-47.3,54.1-40.1
		C269.8,42.9,274.9,72.7,263,102.1z M199.1,76.3c-5.2,12.9-7,26.3-5.1,37.7c2,11.8,7.7,20.1,16,23.5c8.4,3.4,18.2,1.3,27.8-5.8
		c9.3-6.9,17.3-17.8,22.5-30.7c5.2-12.9,7-26.3,5.1-37.7c-2-11.8-7.7-20.1-16-23.5c-8.4-3.4-18.2-1.3-27.8,5.8
		C212.2,52.5,204.3,63.4,199.1,76.3z"/>
	<path class="st1" d="M52.8,363.2c0,0-9.4-144,123.9-126.3c65.9,8.7-17.7-120.4,29.5-145.1s135.2-38.8,198.2,33
		c59,67.3,61.4,126.3,31.9,185.3c-29.5,59,66.1,53.1,44.8,107.4c-10.8,27.7-99.9,57-186.4,55.5c-83.2-1.5-163.8-33.2-187.6-44.8
		C44.6,397.4,52.8,363.2,52.8,363.2z"/>
	<g>
		<path d="M334.1,197.2c3-4,5.5-8.4,7.6-12.9c2.1-4.5,3.8-9.2,5-14c2.4-9.6,2.6-19.8,0-29.3c-0.2-0.6-0.3-1.2-0.5-1.8l-0.6-1.7
			l-0.3-0.9c0-0.1-0.2-0.4-0.3-0.7c-0.3-0.5-0.6-1-0.9-1.6c-1.3-2.1-2.7-4-4.3-5.8c-1.6-1.8-3.4-3.4-5.3-4.7
			c-1.9-1.3-4.1-2.1-6.2-2.2c-2.2-0.1-4.3,0.4-6.2,1.6c-1,0.6-1.9,1.2-2.8,2c-0.4,0.4-0.9,0.8-1.3,1.2l-0.6,0.6l-0.5,0.6
			c-1.3,1.7-2.1,3.7-2.1,5.8c0,2.1,0.6,4.2,1.8,6c1.1,1.8,2.7,3.3,4.6,4.3c1.9,1,3.9,1.4,6,1.3c1-0.1,2.1-0.3,3.1-0.6
			c0.9-0.3,1.8-0.8,2.7-1.4c1.7-1.2,3.3-2.9,4.7-4.8c2.7-3.7,4.7-8.1,6.1-12.7c1.4-4.6,2.1-9.3,2.1-14.1c0-2.4-0.3-4.7-0.7-7.1
			c-0.4-2.3-1.1-4.6-2-6.8c-1.8-4.3-4.7-8.3-8.3-11.5c-3.6-3.2-7.9-5.7-12.4-7.5c-2.3-0.9-4.6-1.7-7-2.4c-2.4-0.7-4.8-1.2-7.3-1.6
			l0.1-0.5c5,0.3,10.1,1,15,2.5c4.9,1.5,9.7,3.8,13.8,7c2.1,1.6,4,3.5,5.7,5.5c1.7,2.1,3.1,4.3,4.3,6.7c2.4,4.8,3.5,10.1,3.8,15.4
			c0.1,2.6,0,5.3-0.3,7.9c-0.3,2.6-0.9,5.2-1.6,7.8c-0.7,2.5-1.6,5-2.8,7.4c-1.1,2.4-2.5,4.7-4.1,6.9c-1.6,2.2-3.5,4.2-5.9,5.9
			c-1.2,0.8-2.5,1.5-4,2c-1.4,0.4-2.9,0.6-4.3,0.7c-2.9,0.1-6-0.6-8.5-2.2c-2.5-1.5-4.6-3.6-6-6.1c-1.4-2.5-2.2-5.4-2.1-8.3
			c0.1-2.9,1.3-5.9,3.2-8.1l0.7-0.8l0.7-0.7c0.5-0.5,1-0.9,1.5-1.3c1-0.9,2.2-1.7,3.4-2.3c2.4-1.3,5.4-2.1,8.2-1.8
			c2.9,0.3,5.5,1.5,7.7,3c2.2,1.5,4.1,3.4,5.8,5.4c1.7,2,3.2,4.1,4.5,6.4c0.3,0.6,0.6,1.1,0.9,1.7c0.1,0.3,0.3,0.6,0.5,1l0.3,0.9
			l0.6,1.8c0.2,0.6,0.3,1.2,0.5,1.9c2.5,10,1.8,20.6-1,30.3c-2.8,9.8-7.5,18.9-13.8,26.9L334.1,197.2z"/>
	</g>
	<g>
		<path d="M316,189.8c2.5,2,4.3,4.5,5.9,7.3c0.4,0.7,0.8,1.4,1.1,2.1l0.5,1.1l0.4,1.1c0.6,1.5,1,3,1.4,4.6c0.7,3.1,1.6,6.3,1,9.6
			c-0.1,0.8-0.3,1.6-0.5,2.4c-0.2,0.8-0.4,1.5-0.7,2.3c-0.6,1.5-1.4,2.9-2.3,4.3l-0.5-0.1c-0.4-1.6-0.5-3.2-0.7-4.7
			c-0.1-0.8-0.2-1.5-0.2-2.2c0-0.7,0-1.5-0.1-2.2c-0.1-1.4,0-2.9,0-4.3c0.2-1.4,0.1-2.9,0-4.3c-0.2-1.4-0.3-2.9-0.7-4.3l-0.2-1.1
			l-0.3-1.1c-0.2-0.7-0.4-1.4-0.6-2.1c-0.9-2.8-2.2-5.5-4-7.9L316,189.8z"/>
	</g>
	<g>
		<path d="M337.3,205.3c1.4,1.5,2.4,3.3,3.3,5.2c0.2,0.5,0.4,1,0.6,1.5c0.2,0.5,0.4,1,0.5,1.5c0.3,1,0.5,2,0.7,3.1
			c0.3,2.1,0.9,4.3,0.2,6.3c-0.6,2-1.7,4-3.6,5.4l-0.5-0.2c-0.4-1.2-0.6-2.2-0.7-3.2c-0.2-1-0.1-1.9-0.2-2.8c0-0.5,0-0.9,0.1-1.4
			c0-0.4,0.1-0.9,0.2-1.3c0.3-0.9,0.4-1.8,0.5-2.7c0-0.9,0.1-1.8,0.1-2.8c0-0.5,0-0.9,0-1.4c0-0.5-0.1-0.9-0.1-1.4
			c-0.2-1.9-0.6-3.8-1.3-5.6L337.3,205.3z"/>
	</g>
	<path class="st25" d="M394.4,242.5c-8.1-3.4-43.1,1.9-50.6,4.6c-7.4,2.6-5.1,21.2,3.6,32.1c-19.2,6.7-35.1,10.9-35.1,10.9
		s-8.7-12.9-3.2-46.8c5.5-33.9-29.3-40-35.6-32.2c-6.3,7.8,3.1,29-0.3,35.1s5.6,23.8,0.4,38.8c-5.2,15-13.8,45.9-15.9,57.7
		c-2.1,11.9-8.6,12.6-9.6,13.2c-8.5,4.3-56.1,17.2-107.2,31.1c5,19.3,13.9,55.7,21.4,77.8c43.7-16.7,108.3-50.1,108.3-50.1
		s15.6,9.8,40.7,10c45-2.6,66.3-28,69.8-39.7c3.5-11.7,1.2-18.5,1.2-18.5s7.9-9.1,5.7-21.5s-5-12.2-1.8-18.9
		c3.2-6.7-4.1-21.8-4.1-21.8s9.3-14.8,22.4-29.1C417.5,260.8,402.5,245.9,394.4,242.5z"/>
	<path class="st31" d="M138.8,377c0,0-8.3-4.2-25.3,0.9c-5.4,1.6-10.4,6.2-18.6,8.6c0,1.1,0.4,3.4,1,6.6l0.5-0.1l24.9,100h-1.1
		c0,0,0,0.1,0,0.1c0.7,2.5,3.1,4.1,5.6,3.8c7.5-0.9,23.5-4.1,43.8-15.2c-1.8-2-4.4-8.4-7.4-17.1c-7.5-22.1-17.3-59.1-22.3-78.5
		C138,378.5,138.8,377,138.8,377z"/>
	<polyline class="st31" points="26.5,493 120.2,493 121.3,493 103.6,415.7 95.9,393.1 64.1,401.3 41.6,405.7 26.3,411.3 	"/>
	<g>
		<path d="M303.8,301.4c0.8-3.7,3-7,5.7-9.7c2.7-2.7,6.1-4.8,9.7-6.3c7-2.7,14.1-4.8,21.3-6.7c7.2-1.8,14.4-3.5,21.9-4.4
			c1.9-0.2,3.7-0.4,5.5-0.5l5.5-0.4c3.7-0.2,7.4-0.5,11.1-0.5c-7.2,1.9-14.4,3.3-21.7,4.6c-3.5,0.7-7.1,1.5-10.7,2.4
			c-3.6,0.9-7.1,1.8-10.6,2.7c-3.5,0.9-7.1,1.9-10.6,2.9c-3.5,1-7.1,2-10.5,3.1c-3.4,1-6.5,2.6-9.4,4.7c-1.4,1.1-2.8,2.2-4,3.6
			C305.8,298.3,304.6,299.8,303.8,301.4z"/>
	</g>
	<g>
		<path d="M359.6,276.5c-0.2-1.8,0.1-3.4,0.8-5c0.7-1.6,1.6-3,2.9-4.2c0.6-0.6,1.3-1.1,2-1.6c0.7-0.4,1.5-0.9,2.3-1.1
			c1.6-0.6,3.4-0.8,5.1-0.5c-1.2,1.3-2.4,2.2-3.5,3.2c-0.6,0.5-1,1-1.6,1.4c-0.5,0.5-1,1-1.5,1.5l-3,3
			C362,274.2,361,275.3,359.6,276.5z"/>
	</g>
	<path class="st19" d="M143.9,388.6c0,0,1.9-0.8,5.1-2c0.9-0.3,7,20.5,8.1,20.1c16.6-6.4,53.8-20.6,61.6-21
		c10-0.6,43.1-15.3,51.9-19.5c8.8-4.1,26.5-42.5,44.2-44.8c17.7-2.4,34.2-13,47.8-20.1s40.1-36,40.7-41.3c0.6-5.3,0.6-5.3,0.6-5.3
		s13,8.8-2.9,23.6c-15.9,14.8-23.6,27.1-23.6,27.1s4.7,7.1,1.2,17.7c-3.5,10.6-3.5,15.3-3.5,15.3s10,5.6,5.9,16.2
		c-4.1,10.6-8.6,10.6-8.6,10.6s3.8,25.4-6.2,35.4c-10,10-64.3,36.9-95.6,10.3c-38.9,20.1-90.3,50.1-106.8,49.6
		C153.7,425.3,148.4,411.2,143.9,388.6z"/>
	<path class="st20" d="M273.5,211c0,0,8.7-3.1,9.4,7.9c0.8,11-2,14.6-4.7,15.3s-2.8,0.8-2.8,0.8S268.4,222.4,273.5,211z"/>
	<path class="st32" d="M141.7,412c0,0-13.4,7.9-18.5,7.9c-5.1,0-9,0.4-9,0.4l-6.3,4.3c0,0,5.5,11,8.7,31.9
		c3.1,20.8,8.7,37.4,8.7,37.4s24.4-3.1,39.7-12.2C157.9,460.7,141.7,412,141.7,412z"/>
	<path class="st32" d="M92.7,425.4c0,0-18.2,1.5-18.2,7.4s-9.8,12.6-9.8,12.6s-6.7-4.3-11.4-0.4c-4.7,3.9-14.2,6.7-16.1,7.1
		c-2,0.4-9,1.6-9,1.6l0.8,37.4l86.2-0.8l-12.4-27.6l5.9-4.1l-8.2-32l-1.6-4.5L92.7,425.4z"/>
	<g>
		<path d="M279.4,210.2c1.9,3.8,3.5,7.8,4.5,11.9c0.5,2.1,0.9,4.3,0.6,6.5c-0.2,1.1-0.5,2.2-1,3.2c-0.6,1-1.5,1.7-2.5,2.1l0-0.1
			c1.7-1.3,2.5-3.3,2.6-5.3c0.1-2,0-4.1-0.4-6.2c-0.4-2.1-0.9-4.1-1.6-6.1C280.9,214.1,280.2,212.2,279.4,210.2L279.4,210.2z"/>
	</g>
	<path class="st19" d="M362,274.5c0,0,12.3-20.3,24.9-7.3c0.8,4.8-2.9,5.5-2.9,5.5L362,274.5z"/>
	<path class="st19" d="M285.3,211c0,0,8.7,4.3,3.9,19.7c-4.7,15.3-9.4,11.4-0.8,30.3s10.6,23.6,11.4,33.4s0.8,9.8,0.8,9.8
		s5.5-13.4,9.4-16.1c-3.9-10.2-6.7-24.8-3.1-43.7C310.5,225.5,300.6,210.2,285.3,211z"/>
	<path class="st33" d="M282.5,109.9c-11.7,29-33.5,47.8-55.1,44.1c-2.3-0.4-11.4-4.4-13.6-5.2c-4-1.6-8.8-3.4-12-6.2
		c-15-13.1-18.5-38.1-6.6-67.8s31.9-45.2,51.7-44.3c4.1,0.2,8.9,2.3,12.9,3.8c2.2,0.9,11.5,4.3,13.4,5.6
		C291.5,52.3,294.2,81,282.5,109.9z"/>
	
		<ellipse transform="matrix(0.3737 -0.9275 0.9275 0.3737 61.6341 268.5836)" class="st34" cx="229.7" cy="88.6" rx="52.9" ry="32.4"/>
	
		<ellipse transform="matrix(0.3737 -0.9275 0.9275 0.3737 61.6341 268.5836)" class="st35" cx="229.7" cy="88.6" rx="52.9" ry="32.4"/>
	<path class="st36" d="M205.1,78.7c10.3-25.5,30.3-41.4,44.7-35.6c1.5,0.6,2.8,1.4,4.1,2.4c-1.9-2.3-4.1-4-6.7-5
		c-14.4-5.8-34.7,10.7-45.3,37c-10.6,26.2-7.4,52.2,7,58c2.6,1.1,5.4,1.4,8.3,1c-1.6-0.2-3.1-0.5-4.6-1.1
		C198.2,129.6,194.8,104.2,205.1,78.7z"/>
	<path class="st37" d="M218.9,64.8c0.1,0,0.2,0,0.2,0c1.1,0.3,1.8,0.5,2.5,0.6c0.6,0.1,1.1,0.3,1.8,0.4c0,0,0.1,0,0.1,0
		c2.1,0.4,3.1,0.8,3.3,0.9l5.7,2.2c0.4,0.1,0.7,0.4,1,0.7c0.5,0.5,1.3,0.7,2,0.5c1.8-0.6,3.6-0.7,5.3-0.4c0.4,0,0.8,0,1.2,0.2
		l7.6,3.1c0.3,0.1,0.6,0.3,0.8,0.5c1.5,0.8,2.8,1.9,3.8,3.3c4.3,5.7,1.3,15.3-0.8,20.5c0,0,0,0,0,0c-2.2,5.4-5.3,10.7-8.7,15
		c-1.2,1.6-3.4,2.1-5.2,1.3c-2-0.9-3.4-1.4-4.5-1.8c-0.6-0.2-1.1-0.4-1.5-0.6c0,0-0.1,0-0.1,0c0,0-6.5-3-6.5-3
		c-0.4-0.2-0.7-0.4-0.9-0.7c-0.1-0.1-0.1-0.2-0.2-0.3c-0.4-0.6-1.1-1-1.9-0.9c-1.7,0.2-3.5,0-5.3-0.8l-5.1-1.9
		c-0.2-0.1-0.5-0.2-0.7-0.4c0,0-0.1,0-0.1-0.1c-1.9-0.9-3.4-2.2-4.4-3.8c-1-1.5-3.2-0.9-3.4,0.8c-1.3,14.2,2.9,25.9,11.8,29.4
		c12.6,5.1,30-8.3,38.7-30c8.7-21.7,5.6-43.4-7.1-48.5C239.3,47.6,227.9,53.4,218.9,64.8z"/>
	<path class="st38" d="M252.6,33.8c19.1,7.7,24.6,38.6,12.3,69c-12.3,30.4-37.6,48.9-56.7,41.2c-19.1-7.7-24.6-38.6-12.3-69
		S233.5,26.1,252.6,33.8z M200.9,77c-10.5,26-6,52.2,9.9,58.6c15.9,6.4,37.3-9.4,47.7-35.4c10.5-26,6-52.2-9.9-58.6
		S211.4,51.1,200.9,77z"/>
	<path class="st39" d="M264.6,102.7c-12,29.9-36.8,48.2-55.7,41.6c0.3,0.1,0.7,0.3,1,0.4c19.1,7.7,44.4-10.8,56.7-41.2
		c12.3-30.4,6.8-61.3-12.3-69c-0.3-0.1-0.7-0.3-1-0.4C271.6,42.5,276.7,72.8,264.6,102.7z"/>
	<path class="st10" d="M260.4,101.2c-12,29.8-34.5,48.9-53.5,42.2c0.3,0.1,0.7,0.3,1,0.4c19.1,7.7,44.4-10.7,56.6-41
		c12.2-30.3,6.7-61.1-12.4-68.8c-0.3-0.1-0.7-0.3-1-0.4C269.4,42,272.4,71.4,260.4,101.2z"/>
	<path class="st10" d="M197.5,85.1c-2.3,6.9-6.9,25,0,38.7c0.4,0.8,0.3,1.8-0.4,2.5l0,0c-1.1,1.1-2.9,0.8-3.5-0.6
		c-2.3-5.5-6.1-19.1,0.9-41.3c0.1-0.4,0.4-0.8,0.9-0.9c0,0,0.1,0,0.1,0C196.7,82.7,197.9,83.9,197.5,85.1z"/>
	<path class="st40" d="M253.4,32.9l21.1,8.5c0,0,6.7,4.6,9.2,10.4c-16.2-6.5-16.2-6.5-16.2-6.5S264.8,39,253.4,32.9z"/>
	<path class="st41" d="M206.8,145.4l21.1,8.5c0,0,8.1,1.4,13.9-1.1c-16.2-6.5-16.2-6.5-16.2-6.5S219.2,148.9,206.8,145.4z"/>
	<g>
		<path class="st42" d="M284,102l-13.9-5.6c-0.8,2.5-1.6,4.9-2.6,7.4c-1.1,2.7-2.3,5.3-3.6,7.8l13.9,5.6c1.3-2.5,2.5-5.1,3.6-7.9
			C282.4,107,283.2,104.5,284,102z"/>
		<path class="st43" d="M287.4,86.3l-13.9-6.2c-0.6,5.3-1.7,10.8-3.4,16.3L284,102C285.7,96.7,286.8,91.4,287.4,86.3z"/>
		<path class="st43" d="M262,115.1c-0.8,1.5-2.4,3.9-2.4,3.9l14,5.6c0.7-1.2,1.5-2.4,2.2-3.7l0.1-0.3L262,115.1z"/>
		<path class="st43" d="M257.4,122.3c-0.3,0.5-0.6,1-0.9,1.5c-0.5,0.7-0.2,1.7,0.7,2l11.4,4.6c0.6,0.3,1.3,0,1.7-0.6
			c0.3-0.6,0.9-1.6,1.3-2.2c0.2-0.4,0-0.8-0.3-1l-12.1-4.9C258.4,121.4,257.7,121.7,257.4,122.3z"/>
		<path class="st40" d="M266.1,132.2l-11.2-4.5c-0.6-0.2-1.3-0.1-1.7,0.4c-0.5,0.6-1.2,1.4-1.7,2.1c-0.6,0.8-5.4,4.8-4.5,5.2
			l7.2,10.8c0.6,0.2,10.1-8.9,10.6-9.4c0.7-0.8,1.3-1.6,2-2.4C267.3,133.7,267,132.6,266.1,132.2z"/>
	</g>
	<path class="st35" d="M253.4,110.1c-2.7,6.7-7.1,7.4-9.5,7.2c-3.2-0.2-4.8-1.8-5.6-3c-1.4-2.3-1.4-5.5,0.2-9.4
		c0.1-0.4,0.3-0.6,0.4-0.8c0.1-0.5,0-1.2-0.1-1.6c-0.1,0-0.3,0-0.6,0c-3,0.5-5.7,1.2-7.5,1.7c-0.1,1.5-0.2,3.6,0,5.6
		c0.9,5.4,0.9,8.8-0.1,11.3c-0.3,0.8-0.8,1.6-1.4,2.2l-0.1,0.1l-0.1,0.1c-1.5,1.5-3.5,2.4-5.2,2.3c-2.9-0.2-6.6-1.6-7.8-7.6
		c-0.4-2-0.4-3.7-0.4-5.6c0-0.6,0-1.2,0-1.8c-0.1-2.2,0.2-4.4,0.3-6.1c0-0.1,0-0.3,0-0.4c-2.5-0.1-5.2-0.4-7.7-1.4
		c-4.4-1.7-2.6,4.6-5.2,0.5c-4.3-6.7,0.4-20.5,1.8-24.2c2-4.8,3.4-4.5,8.4-4.6c3-0.1,5,0.1,6.4,0.2c-0.1-0.5-0.5-1.1-1.1-1.7
		c-0.5-0.6-1.1-1.2-1.7-1.7c-1.9-1.8-3.1-0.2-3.6-2.9c-0.1-0.7,1.8-7.4,2.5-8.1c1.5-1.8,3.7-6.8,8.6-4.2c3,1.4,5.2,4.6,6.5,6.5
		l0.1,0.2l0,0c1.4,2.3,3.2,7.3,4.2,10.7c2.4-1.6,6.9-4.2,10.6-4.5c4.7-0.3,7.8-0.4,11.2,0c1.5,0.2,2.8,0.9,3.8,2
		c1.7,2,2.2,5.2,1.5,8.8c-0.2,1-0.4,2-0.8,2.9l0,0.1c-1.2,2.8-3,4.5-5.4,4.9c-1.9,0.4-3.7-0.2-5-0.7c-0.4-0.1-0.9-0.3-1.2-0.3
		c-1.8-0.3-2.9-0.1-3.7,0.2c3.5,1.6,8.2,4.7,8.8,10C255.6,101.1,254.9,106.3,253.4,110.1z M210.8,86.8c-0.1,0.5-0.3,2.9,1.5,3.4
		c2.2,0.7,2.7-0.1,3.1-1.1c0.3-0.7,0.4-1.5,0.5-2.5c0.2-2.5,0.1-3.5,0-3.9c-0.2,0-0.5-0.1-1-0.1c-2.9,0-3.2,0.4-3.6,1.5
		c-0.3,0.6-0.5,1.5-0.6,2.6L210.8,86.8L210.8,86.8z"/>
	<path class="st36" d="M247.5,71.2c-2.9,0.2-8.7,4.8-11.2,6.8c-0.9,0.7-2,0.4-2.3-0.7c-0.8-3.2-2.7-9.2-4-11.4
		c-1-1.5-2.7-4.4-4.9-5.3c-1.6-0.8-6.8-3.7-8.8-1.2c-1.8,2.2,2,6.7,2,6.7c0.2,2.1,2.6,3.7,4.7,6c2.4,2.6,1.8,5,1.4,6.2
		c-0.5,1.1-1.1,0-8.4,0.3c-7.3,0.3-13,6.6-12.6,13.1c0.4,8.3,12.5,9.4,17.6,9.4c0.4,1.3-0.6,5.2-0.5,9.1c0,2.4-3.7,4.8-3.3,7
		c0.5,3,5.4,4.3,8,4.4c0.6,0,1.7-0.3,2.7-1.4c1.5-1.7,1.6-5,0.8-10.5c-0.4-3.9,0.3-8.1,0.3-8.1s4.3-1.4,9.1-2.4s4,4.7,3.7,5.2
		c-0.2,0.4-4.9,3.3-4.5,5.7c0.1,0.7,1.3,1.3,1.9,1.8c0.5,0.4,3.5,1.2,4.6,1.3c6,0.4,8.2-10.4,7.6-16.5c-0.6-6.1-9.5-8.3-9.5-8.3
		c1.4-5.2,6.1-5.1,8.4-4.7c2.3,0.4,5.5,2.9,7.6-2.1c0.3-0.7,0.5-1.5,0.6-2.2c0.6-2.9,0.2-4.9-0.7-6c-0.4-0.5-1-0.6-1.6-0.9
		C253.1,71.2,251.7,70.9,247.5,71.2z M220.9,87.7c-0.6,5.7-3.5,7.3-7.2,6.2c-4.2-1.3-3.2-6.5-3.2-6.5c0.8-5.9,3.3-6.5,6.8-6.6
		C220.7,80.7,221.4,82.1,220.9,87.7z"/>
	<path class="st45" d="M242.1,71.4c-2.9,0.2-7.4,3-9.9,5c-0.9,0.7-2,0.4-2.3-0.7c-0.8-3.2-2.7-9.2-4-11.4c-1-1.5-2.7-4.4-4.9-5.3
		c-1.6-0.8-3.6-1.3-5.6,1.1c-1.8,2.2-1.3,4.4-1.3,4.4c0.2,2.1,2.6,3.7,4.7,6c2.4,2.6,1.8,5,1.4,6.2c-0.5,1.1-1.1,0-8.4,0.3
		c-7.3,0.3-9.1,8-8.7,14.5c0.4,8.3,8.6,8,13.7,8c0.4,1.3-0.6,5.2-0.5,9.1c0,2.4-0.1,4.4,0.3,6.6c0.5,3,1.8,4.7,4.5,4.8
		c0.6,0,1.7-0.3,2.7-1.4c1.5-1.7,1.6-5,0.8-10.5c-0.4-3.9,0.3-8.1,0.3-8.1s4.3-1.4,9.1-2.4c4.8-1,4,4.7,3.7,5.2
		c-0.2,0.6-4.1,8.5,2,8.8c6,0.4,8.2-10.4,7.6-16.5c-0.6-6.1-9.5-8.3-9.5-8.3c1.4-5.2,6.1-5.1,8.4-4.7c2.3,0.4,5.5,2.9,7.6-2.1
		c0.3-0.7,0.5-1.5,0.6-2.2c0.6-2.9,0.2-4.9-0.7-6c-0.4-0.5-1-0.8-1.6-0.9C249,70.9,246.3,71.1,242.1,71.4z"/>
	<g>
		<path class="st46" d="M219.8,58.5c0.3,0.1,0.7,0.3,1,0.4c2.2,1,4,3.8,4.9,5.3c1.3,2.2,3.1,8.1,4,11.4c0.3,1,1.3,1.4,2.2,0.8
			c-0.1-0.2-0.2-0.4-0.3-0.6c-0.8-3.2-2.7-9.2-4-11.4c-1-1.5-2.7-4.4-4.9-5.3C221.8,58.6,220.8,58.3,219.8,58.5z"/>
		<path class="st46" d="M253.6,71.4c-0.5,0-0.9-0.1-1.4-0.1c0.4,0.1,0.8,0.4,1.1,0.8c0.9,1.1,1.3,3.1,0.7,6
			c-0.1,0.7-0.3,1.5-0.6,2.2c-0.9,2.1-2,2.9-3.1,3c1.8,0.5,3.6,0.5,5-2.8c0.3-0.7,0.5-1.5,0.6-2.2c0.6-2.9,0.2-4.9-0.7-6
			C254.8,71.7,254.2,71.4,253.6,71.4z"/>
		<path class="st46" d="M235.5,97.9c0.1,0,0.3,0,0.4-0.1c-0.6-0.2-1.3-0.3-2.3-0.1c-4.8,1-9.1,2.4-9.1,2.4s-0.7,4.1-0.3,8.1
			c0.8,5.5,0.6,8.8-0.8,10.5c-0.8,0.8-1.6,1.2-2.2,1.3c0.4,0.1,0.9,0.2,1.4,0.2c0.6,0,1.7-0.3,2.7-1.4c1.5-1.7,1.6-5,0.8-10.5
			c-0.4-3.9,0.3-8.1,0.3-8.1S230.7,98.8,235.5,97.9z"/>
		<path class="st46" d="M245.8,82.2c-2.3-0.4-7-0.5-8.4,4.7c0,0,9,2.2,9.5,8.3c0.5,5.9-1.4,16.1-7,16.5c0.4,0.1,0.8,0.2,1.2,0.2
			c6,0.4,8.2-10.4,7.6-16.5c-0.6-6.1-9.5-8.3-9.5-8.3c1.1-4.2,4.4-4.9,6.8-4.9C246,82.3,245.9,82.3,245.8,82.2z"/>
	</g>
	<path class="st47" d="M216.8,86.4c-0.6,5.8-3.6,7.6-7.4,6.4c-4.3-1.3-3.3-6.7-3.3-6.7c0.8-6.1,3.4-6.8,7-6.8
		C216.7,79.2,217.4,80.6,216.8,86.4z"/>
	<path class="st48" d="M207.9,87.2c0.8-6.1,3.4-6.8,7-6.8c0.6,0,1.1,0,1.6,0.1c-0.5-1.1-1.6-1.4-3.4-1.4c-3.6,0.1-6.2,0.7-7,6.8
		c0,0-0.9,5.1,3,6.6C207.3,90.4,207.9,87.2,207.9,87.2z"/>
	<path class="st46" d="M213,79.1c-1.7,0-3.2,0.2-4.4,1.1c1-0.3,2-0.4,3.2-0.5c3.6-0.1,4.3,1.4,3.7,7.3c-0.3,3.1-1.3,5-2.7,6
		c2-0.7,3.5-2.8,3.9-6.7C217.3,80.4,216.6,79,213,79.1z"/>
	<polygon class="st10" points="280.1,105.1 265.6,97.9 255.6,104.8 260.7,93.8 250.3,81.1 263.7,88.6 274.4,81.6 269.6,92.6 	"/>
</g>
</svg>
