<?xml version="1.0" encoding="utf-8"?>
<!-- Generator: Adobe Illustrator 25.4.1, SVG Export Plug-In . SVG Version: 6.00 Build 0)  -->
<svg version="1.1" xmlns="http://www.w3.org/2000/svg" xmlns:xlink="http://www.w3.org/1999/xlink" x="0px" y="0px"
	 viewBox="0 0 512 512" style="enable-background:new 0 0 512 512;" xml:space="preserve">
<style type="text/css">
	.st0{fill:#FFFFFF;stroke:#CCCCCC;stroke-miterlimit:10;}
	.st1{fill:#F0E8DE;}
	.st2{fill:#D6960B;}
	.st3{fill:#D6AC00;}
	.st4{fill:#A64001;}
	.st5{fill:#F2C644;}
	.st6{fill:#E7BA33;}
	.st7{fill:#FEC82E;}
	.st8{fill:#FDE56C;}
	.st9{fill:#A65801;}
	.st10{fill:#FFFFFF;}
	.st11{fill:#FFEBA2;}
	.st12{fill:#EBC656;}
	.st13{fill:#E5B420;}
	.st14{fill:#B86734;}
	.st15{fill:url(#SVGID_1_);}
	.st16{fill:#F4CABC;}
	.st17{fill:#657F8E;}
	.st18{fill:#5B7787;}
	.st19{fill:#F0B7A4;}
	.st20{fill:#F6D5CA;}
	.st21{fill:#526F80;}
	.st22{fill:#D6960B;stroke:#000000;stroke-width:2;stroke-miterlimit:10;}
	.st23{fill:#FEC82E;stroke:#000000;stroke-miterlimit:10;}
	.st24{fill:url(#SVGID_00000057129790456012038650000017193685357714428830_);}
	.st25{fill:#F4CABC;stroke:#000000;stroke-width:4;stroke-miterlimit:10;}
	.st26{fill:#657F8E;stroke:#000000;stroke-width:4;stroke-miterlimit:10;}
	.st27{fill:#5B7787;stroke:#000000;stroke-width:4;stroke-miterlimit:10;}
	.st28{fill:#7653A0;stroke:#000000;stroke-width:4;stroke-miterlimit:10;}
	.st29{fill:#582D8B;}
	.st30{fill:#F4EECE;}
	.st31{fill:#D45300;stroke:#000000;stroke-width:4;stroke-miterlimit:10;}
	.st32{fill:#AE4100;}
	.st33{fill:#CDBC98;stroke:#000000;stroke-width:2;stroke-miterlimit:10;}
	.st34{fill:none;stroke:#000000;stroke-width:0.9584;stroke-miterlimit:10;}
	.st35{fill:#CDC296;}
	.st36{fill:#9D8373;}
	.st37{fill:#E9DEBC;}
	.st38{fill:#F5E7BF;stroke:#000000;stroke-miterlimit:10;}
	.st39{fill:#9D8973;}
	.st40{fill:#B5A498;}
	.st41{fill:#A3978A;}
	.st42{fill:#E2D8BB;}
	.st43{fill:#DCCFA9;}
	.st44{fill:url(#SVGID_00000035515853766539601640000008334218419811645845_);}
	.st45{fill:#DED2AF;}
	.st46{fill:#F6F1DE;}
	.st47{fill:#B59E89;}
	.st48{fill:#7D675B;}
	.st49{fill:url(#SVGID_00000090253360886306627290000013030321847594733493_);}
	.st50{fill:#07374A;}
	.st51{opacity:0.3;fill:#1BB8FF;}
	.st52{fill:url(#SVGID_00000075877659800343963350000013378990048802701223_);}
	.st53{fill:url(#SVGID_00000137847987939340235070000009987611398784994968_);}
	.st54{fill:url(#SVGID_00000139992663000407178920000000431855963425202872_);}
	.st55{fill:url(#SVGID_00000073685163522690834340000016228423689937537465_);}
	.st56{fill:url(#SVGID_00000007417580848612186710000010169869957363239337_);}
	.st57{fill:url(#SVGID_00000144326820366336676130000017612983025291706000_);}
	.st58{fill:url(#SVGID_00000089558835488603543760000000993690112817705876_);}
	.st59{fill:url(#SVGID_00000088103099356855104140000010833884544908734395_);}
	.st60{fill:url(#SVGID_00000137846841789355446240000003488982667495389601_);}
	.st61{opacity:0.6;fill:#B5FFFF;}
	.st62{fill:url(#SVGID_00000114073518753564494050000012554526230136916117_);}
	.st63{fill:url(#SVGID_00000088830374555882141310000003294724524515810956_);}
	.st64{fill:none;stroke:#000000;stroke-width:2;stroke-miterlimit:10;}
	.st65{fill:url(#SVGID_00000093147838928116771010000013242393081398320272_);}
	.st66{fill:url(#SVGID_00000032643800460349606530000013668774264954130816_);}
	.st67{fill:url(#SVGID_00000181047373821929566400000011957452900254621368_);}
	.st68{fill:url(#SVGID_00000080208460115481541020000011040815264839492282_);}
	.st69{fill:url(#SVGID_00000143601065159387771460000004589519168134318233_);}
	.st70{fill:url(#SVGID_00000103967146472487854050000016862413220023551924_);}
	.st71{fill:url(#SVGID_00000011026499938057612050000001833324364348743342_);}
	.st72{fill:url(#SVGID_00000056407052669338109420000004180293516409594265_);}
	.st73{fill:url(#SVGID_00000111170550566948662050000015834006465345787011_);}
	.st74{fill:url(#SVGID_00000127003300564715563320000014267908015437595799_);}
	.st75{fill:url(#SVGID_00000075131285865925054540000000461898354378457014_);}
</style>
<g id="safe">
</g>
<g id="Layer_1">
	<path class="st1" d="M28.5,377.6c0,0-9.8-150.2,129.2-131.7c68.7,9.1-18.5-125.5,30.8-151.4S329.5,54.1,395.2,129
		c61.5,70.2,64,131.7,33.2,193.2s68.9,55.4,46.8,112c-11.3,28.9-104.2,59.5-194.5,57.8c-86.8-1.6-170.8-34.6-195.7-46.8
		C19.8,413.3,28.5,377.6,28.5,377.6z"/>
	<g>
		<path d="M321.8,204.4c3.1-4.2,5.7-8.7,8-13.4c2.2-4.7,4-9.6,5.2-14.7c2.5-10.1,2.7-20.7,0-30.6c-0.2-0.6-0.3-1.2-0.5-1.9l-0.6-1.8
			l-0.3-0.9c0-0.2-0.2-0.4-0.3-0.7c-0.3-0.5-0.6-1.1-0.9-1.6c-1.3-2.2-2.8-4.2-4.5-6.1c-1.7-1.9-3.5-3.6-5.6-4.9
			c-2-1.3-4.3-2.2-6.5-2.4c-2.3-0.2-4.5,0.5-6.5,1.6c-1,0.6-2,1.3-2.9,2.1c-0.5,0.4-0.9,0.8-1.3,1.2l-0.6,0.7l-0.5,0.6
			c-1.4,1.7-2.2,3.9-2.2,6.1c0,2.2,0.7,4.4,1.8,6.3c1.2,1.9,2.9,3.5,4.8,4.6c1.9,1.1,4.2,1.5,6.3,1.4c1.1-0.1,2.2-0.3,3.2-0.7
			c0.9-0.3,1.9-0.8,2.8-1.5c1.8-1.3,3.5-3.1,4.9-5c2.8-3.9,5-8.5,6.4-13.3c1.4-4.8,2.2-9.8,2.1-14.7c0-2.5-0.3-5-0.8-7.4
			c-0.5-2.4-1.2-4.8-2.1-7.1c-1.9-4.5-4.9-8.7-8.6-12c-3.7-3.3-8.2-5.9-13-7.9c-2.4-1-4.8-1.8-7.4-2.5c-2.5-0.7-5.1-1.2-7.6-1.7
			l0.1-0.5c5.3,0.3,10.5,1.1,15.6,2.7c5.1,1.6,10.1,3.9,14.4,7.3c2.2,1.7,4.1,3.6,5.9,5.8c1.7,2.2,3.2,4.5,4.4,7
			c2.4,5,3.7,10.5,3.9,16c0.1,2.8,0,5.5-0.3,8.2c-0.3,2.7-0.9,5.4-1.6,8.1c-0.8,2.6-1.7,5.2-2.9,7.7c-1.2,2.5-2.6,4.9-4.3,7.2
			c-1.7,2.2-3.7,4.4-6.2,6.1c-1.2,0.8-2.6,1.6-4.2,2.1c-1.5,0.4-3,0.7-4.5,0.7c-3.1,0.1-6.2-0.7-8.8-2.2c-2.6-1.5-4.8-3.7-6.3-6.3
			c-1.5-2.6-2.3-5.6-2.2-8.6c0.1-3.1,1.3-6.1,3.3-8.4l0.7-0.8l0.7-0.7c0.5-0.5,1-1,1.6-1.4c1.1-0.9,2.3-1.7,3.5-2.4
			c2.5-1.4,5.6-2.2,8.6-1.9c3,0.3,5.7,1.5,8,3.1c2.3,1.6,4.3,3.5,6.1,5.6c1.8,2.1,3.3,4.3,4.6,6.6c0.3,0.6,0.7,1.2,1,1.8
			c0.1,0.3,0.3,0.6,0.5,1.1l0.3,1l0.6,1.9c0.2,0.6,0.3,1.3,0.5,2c2.6,10.4,1.9,21.4-1,31.6c-1.4,5.1-3.4,10-5.8,14.7
			c-2.4,4.7-5.2,9.2-8.5,13.3L321.8,204.4z"/>
	</g>
	<g>
		<path d="M303,196.7c2.5,2.1,4.5,4.8,6.1,7.6c0.2,0.4,0.4,0.7,0.6,1.1l0.5,1.1l0.5,1.1l0.5,1.2c0.6,1.5,1,3.2,1.5,4.8
			c0.7,3.2,1.6,6.6,1,9.9c-0.1,0.4-0.1,0.8-0.2,1.2l-0.3,1.2c-0.2,0.8-0.4,1.6-0.7,2.4c-0.6,1.6-1.4,3.1-2.4,4.5l-0.5-0.1
			c-0.4-1.7-0.5-3.3-0.6-4.9c-0.1-0.8-0.1-1.6-0.2-2.3c0-0.8,0-1.5-0.1-2.3c0-0.8-0.1-1.5,0-2.3c0-0.4,0-0.7,0-1.1l0-1.1
			c0.2-1.5,0.1-3,0-4.5c-0.2-1.5-0.4-3-0.7-4.5l-0.2-1.1l-0.3-1.1l-0.3-1.1c-0.1-0.4-0.2-0.7-0.4-1.1c-1-2.9-2.3-5.8-4.2-8.3
			L303,196.7z"/>
	</g>
	<g>
		<path d="M325.1,213c1.5,1.6,2.5,3.5,3.4,5.4c0.2,0.5,0.4,1,0.6,1.5c0.2,0.5,0.4,1,0.5,1.6c0.3,1,0.5,2.1,0.7,3.2
			c0.3,2.1,0.9,4.4,0.1,6.6c-0.6,2.1-1.7,4.1-3.6,5.7l-0.5-0.2c-0.4-1.2-0.5-2.2-0.7-3.3c-0.2-1-0.1-2-0.2-3c0-0.5,0-0.9,0.1-1.4
			c0-0.5,0.1-0.9,0.2-1.4c0.3-0.9,0.4-1.9,0.5-2.8c0-1,0.1-1.9,0-2.9c0-0.5,0-1-0.1-1.5c0-0.5-0.1-1-0.1-1.5
			c-0.2-1.9-0.6-3.9-1.4-5.8L325.1,213z"/>
	</g>
	<path class="st25" d="M384.7,251.7c-8.5-3.5-45,2-52.7,4.7s-5.3,22.2,3.8,33.5c-20,7-36.6,11.4-36.6,11.4s-9.1-13.5-3.4-48.9
		s-30.5-41.7-37.1-33.6c-6.6,8.1,3.3,30.3-0.3,36.6c-3.6,6.3,5.8,24.8,0.4,40.5c-5.4,15.7-14.4,47.8-16.6,60.2s-9,13.2-10,13.7
		c-8.9,4.5-58.6,17.9-111.8,32.4c5.2,20.2,14.5,58.1,22.3,81.2c45.6-17.4,112.9-52.3,112.9-52.3s16.3,10.2,42.5,10.5
		c46.9-2.7,69.1-29.3,72.8-41.4c3.7-12.2,1.2-19.3,1.2-19.3s8.3-9.4,5.9-22.4s-5.2-12.7-1.8-19.7c3.4-7-4.3-22.8-4.3-22.8
		s9.7-15.4,23.3-30.4C408.8,270.8,393.2,255.2,384.7,251.7z"/>
	<path class="st28" d="M118.1,392c0,0-8.7-4.4-26.4,1c-5.6,1.7-10.8,6.5-19.4,8.9c0,1.2,0.4,3.6,1,6.9l0.5-0.1l26,104.3h-1.1
		c0,0,0,0.1,0,0.1c0.7,2.6,3.2,4.3,5.9,4c7.8-0.9,24.6-4.2,45.7-15.8c-1.9-2.1-4.6-8.8-7.7-17.9c-7.8-23-18.1-61.7-23.3-81.9
		C117.2,393.5,118.1,392,118.1,392z"/>
	<polyline class="st28" points="1,513 98.7,513 99.8,513 81.4,432.4 73.3,408.8 40.2,417.3 16.8,421.9 0.8,427.8 	"/>
	<g>
		<path d="M290.2,313.2c0.9-3.8,3.2-7.2,6-10.1c1.4-1.4,3-2.7,4.7-3.7c1.7-1.1,3.5-2,5.4-2.8c7.3-2.8,14.7-5,22.2-7
			c7.5-1.9,15-3.7,22.8-4.6c1.9-0.2,3.8-0.4,5.8-0.6l5.8-0.5c3.8-0.3,7.7-0.5,11.6-0.6c-7.5,1.9-15.1,3.4-22.6,4.8
			c-3.7,0.7-7.4,1.5-11.1,2.5c-3.7,0.9-7.4,1.8-11.1,2.8c-3.7,1-7.4,2-11.1,3c-3.7,1.1-7.4,2.1-11,3.3c-3.5,1.1-6.8,2.7-9.8,4.9
			c-1.5,1.1-2.9,2.4-4.1,3.8C292.2,309.9,291.1,311.5,290.2,313.2z"/>
	</g>
	<g>
		<path d="M348.5,287.2c-0.2-1.8,0.2-3.6,0.9-5.2c0.7-1.6,1.7-3.1,3-4.3c0.6-0.6,1.3-1.2,2.1-1.7c0.8-0.4,1.5-0.9,2.4-1.2
			c1.6-0.7,3.5-0.9,5.2-0.6c-1.3,1.3-2.5,2.2-3.7,3.3c-0.6,0.5-1.1,1-1.7,1.5c-0.5,0.5-1.1,1-1.6,1.5c-1,1-2.1,2.1-3.2,3.2
			C350.9,284.8,349.8,285.9,348.5,287.2z"/>
	</g>
	<path class="st19" d="M123.4,404.1c0,0,2-0.8,5.3-2.1c0.9-0.4,7.3,21.4,8.4,21c17.3-6.7,56.2-21.5,64.2-22
		c10.5-0.6,44.9-16,54.2-20.3c9.2-4.3,27.7-44.3,46.2-46.8c18.5-2.5,35.7-13.5,49.8-20.9c14.2-7.4,41.8-37.5,42.5-43.1
		c0.6-5.5,0.6-5.5,0.6-5.5s13.5,9.2-3.1,24.6s-24.6,28.3-24.6,28.3s4.9,7.4,1.2,18.5c-3.7,11.1-3.7,16-3.7,16s10.5,5.8,6.2,16.9
		c-4.3,11.1-8.9,11.1-8.9,11.1s4,26.5-6.5,36.9c-10.5,10.5-67.1,38.5-99.7,10.8c-40.6,20.9-94.2,52.3-111.4,51.7
		C133.6,442.4,128.2,427.7,123.4,404.1z"/>
	<path class="st20" d="M258.6,218.8c0,0,9-3.3,9.8,8.2c0.8,11.5-2.1,15.2-4.9,16s-2.9,0.8-2.9,0.8S253.3,230.7,258.6,218.8z"/>
	<path class="st29" d="M121.2,428.5c0,0-13.9,8.2-19.3,8.2c-5.3,0-9.4,0.4-9.4,0.4l-6.6,4.5c0,0,5.7,11.5,9,33.2s9,39,9,39
		s25.4-3.3,41.4-12.7C138,479.4,121.2,428.5,121.2,428.5z"/>
	<path class="st29" d="M70,442.5c0,0-19,1.6-19,7.8s-10.3,13.1-10.3,13.1s-7-4.5-11.9-0.4c-4.9,4.1-14.8,7-16.8,7.4
		c-2.1,0.4-9.4,1.6-9.4,1.6l0.8,39l89.9-0.8l-12.9-28.8l6.2-4.3l-8.5-33.3l-1.6-4.7L70,442.5z"/>
	<g>
		<path d="M264.8,218c2,4,3.7,8.1,4.7,12.4c0.5,2.2,0.9,4.4,0.6,6.7c-0.2,1.1-0.5,2.3-1.1,3.3c-0.6,1-1.5,1.8-2.6,2.2l0-0.1
			c1.8-1.3,2.6-3.4,2.7-5.5c0.2-2.1,0-4.3-0.4-6.5c-0.4-2.2-1-4.3-1.7-6.4C266.4,222.1,265.6,220.1,264.8,218L264.8,218z"/>
	</g>
	<path class="st19" d="M350.9,285.1c0,0,12.9-21.1,26-7.6c0.8,5-3,5.7-3,5.7L350.9,285.1z"/>
	<path class="st19" d="M270.9,218.8c0,0,9,4.5,4.1,20.5c-4.9,16-9.8,11.9-0.8,31.6c9,19.7,11.1,24.6,11.9,34.9
		c0.8,10.3,0.8,10.3,0.8,10.3s5.7-13.9,9.8-16.8c-4.1-10.7-7-25.8-3.3-45.5C297.2,234,286.9,218,270.9,218.8z"/>
	<g>
		<polygon class="st50" points="242.8,37.4 253.2,101.2 207.8,147.7 187.8,141 177.2,76.8 221.7,30.6 		"/>
		<polygon class="st51" points="207,143.5 207.9,143.8 250.4,100.1 240.8,40.5 238.8,39.9 196.9,82.9 		"/>
		
			<linearGradient id="SVGID_1_" gradientUnits="userSpaceOnUse" x1="505.1886" y1="203.7565" x2="501.1241" y2="167.1762" gradientTransform="matrix(0.3037 -0.9528 0.9528 0.3037 -26.2341 504.2091)">
			<stop  offset="5.376344e-02" style="stop-color:#9FC762"/>
			<stop  offset="0.5857" style="stop-color:#008EBB"/>
		</linearGradient>
		<path class="st15" d="M253.2,101.2l-10.3-63.8l19,6.1l10.4,63.1C272.2,106.6,253,101.2,253.2,101.2z"/>
		
			<linearGradient id="SVGID_00000179609790940547355960000006597088490901418165_" gradientUnits="userSpaceOnUse" x1="443.2331" y1="193.8509" x2="438.4297" y2="117.3648" gradientTransform="matrix(0.3037 -0.9528 0.9528 0.3037 -26.2341 504.2091)">
			<stop  offset="0" style="stop-color:#92ACB3"/>
			<stop  offset="0.6287" style="stop-color:#003145"/>
		</linearGradient>
		<polygon style="fill:url(#SVGID_00000179609790940547355960000006597088490901418165_);" points="272.2,106.6 253.2,101.2 
			207.8,147.7 226.1,153.5 		"/>
		
			<linearGradient id="SVGID_00000039848087140509985770000005120618726554617769_" gradientUnits="userSpaceOnUse" x1="420.1726" y1="112.3981" x2="473.3803" y2="107.9641" gradientTransform="matrix(0.3037 -0.9528 0.9528 0.3037 -26.2341 504.2091)">
			<stop  offset="0.2464" style="stop-color:#E700FF"/>
			<stop  offset="0.7927" style="stop-color:#FA7A36"/>
			<stop  offset="1" style="stop-color:#FFD100"/>
		</linearGradient>
		<polygon style="fill:url(#SVGID_00000039848087140509985770000005120618726554617769_);" points="226.9,117.9 207.6,137.8 
			202.3,104.7 221.5,84.6 		"/>
		
			<linearGradient id="SVGID_00000165945267479728751010000002865091326698447490_" gradientUnits="userSpaceOnUse" x1="493.1577" y1="113.6144" x2="424.154" y2="80.3596" gradientTransform="matrix(0.3037 -0.9528 0.9528 0.3037 -26.2341 504.2091)">
			<stop  offset="0.5308" style="stop-color:#FABD09"/>
			<stop  offset="0.8292" style="stop-color:#FA6B00"/>
		</linearGradient>
		<path style="fill:url(#SVGID_00000165945267479728751010000002865091326698447490_);" d="M207.6,137.8c0-0.6-11.9-73.2-11.9-73.2
			l-14.2,14.1l8.8,53.7L207.6,137.8z"/>
		
			<linearGradient id="SVGID_00000151514627380302354970000014964064841175470496_" gradientUnits="userSpaceOnUse" x1="434.933" y1="90.7377" x2="523.6124" y2="97.1116" gradientTransform="matrix(0.3037 -0.9528 0.9528 0.3037 -26.2341 504.2091)">
			<stop  offset="0.2043" style="stop-color:#BAFF8E"/>
			<stop  offset="0.7524" style="stop-color:#008EBB"/>
			<stop  offset="0.8664" style="stop-color:#008EBB"/>
		</linearGradient>
		<polygon style="fill:url(#SVGID_00000151514627380302354970000014964064841175470496_);" points="206,92.7 200.5,60 219.4,40.4 
			224.8,73 		"/>
		
			<linearGradient id="SVGID_00000008113074197990374890000002752619878727945120_" gradientUnits="userSpaceOnUse" x1="507.5297" y1="64.9727" x2="466.2383" y2="159.4717" gradientTransform="matrix(0.3037 -0.9528 0.9528 0.3037 -26.2341 504.2091)">
			<stop  offset="0" style="stop-color:#FFFFFF"/>
			<stop  offset="0.2097" style="stop-color:#BAFF8E"/>
			<stop  offset="0.6287" style="stop-color:#008EBB"/>
		</linearGradient>
		<polygon style="fill:url(#SVGID_00000008113074197990374890000002752619878727945120_);" points="219.5,40.5 231.4,113 245.1,99 
			236.4,45.1 		"/>
		
			<linearGradient id="SVGID_00000122708251820129335080000016769500235154589335_" gradientUnits="userSpaceOnUse" x1="475.6742" y1="95.4108" x2="467.1758" y2="86.1734" gradientTransform="matrix(0.3037 -0.9528 0.9528 0.3037 -26.2341 504.2091)">
			<stop  offset="0.4233" style="stop-color:#FABD09"/>
			<stop  offset="0.8292" style="stop-color:#FA6B00"/>
		</linearGradient>
		<path style="fill:url(#SVGID_00000122708251820129335080000016769500235154589335_);" d="M202.3,104.7l1.7-1.8
			c-3-18.6-6.2-37.6-6.2-37.6l-2.1-0.6C196.8,71.1,202.3,104.7,202.3,104.7z"/>
		
			<linearGradient id="SVGID_00000027601098075108907300000016766389455831717823_" gradientUnits="userSpaceOnUse" x1="462.5805" y1="102.8022" x2="487.1101" y2="102.8022" gradientTransform="matrix(0.3037 -0.9528 0.9528 0.3037 -26.2341 504.2091)">
			<stop  offset="0" style="stop-color:#BAFF8E"/>
			<stop  offset="0.6287" style="stop-color:#008EBB"/>
			<stop  offset="0.6998" style="stop-color:#008EBB"/>
		</linearGradient>
		<polygon style="fill:url(#SVGID_00000027601098075108907300000016766389455831717823_);" points="224.8,73 206,92.7 208.1,93.4 
			225.2,75.4 		"/>
		
			<linearGradient id="SVGID_00000081622601471009195220000009411720446181653125_" gradientUnits="userSpaceOnUse" x1="495.469" y1="123.7345" x2="435.7951" y2="133.8957" gradientTransform="matrix(0.3037 -0.9528 0.9528 0.3037 -26.2341 504.2091)">
			<stop  offset="0" style="stop-color:#BAFF8E"/>
			<stop  offset="0.6287" style="stop-color:#008EBB"/>
		</linearGradient>
		<polygon style="fill:url(#SVGID_00000081622601471009195220000009411720446181653125_);" points="245.1,98.7 231.3,112.9 
			233.4,113.5 247.2,99.4 238.5,45.7 236.4,45.1 		"/>
		<polygon class="st61" points="242.8,37.4 253.2,101.2 251.7,102.6 241.5,39.2 220.9,31.7 221.7,30.6 		"/>
		
			<linearGradient id="SVGID_00000169539873838890515070000003333482168286803094_" gradientUnits="userSpaceOnUse" x1="421.0839" y1="107.5855" x2="447.6878" y2="133.7274" gradientTransform="matrix(0.3037 -0.9528 0.9528 0.3037 -26.2341 504.2091)">
			<stop  offset="0.2464" style="stop-color:#A900FF"/>
			<stop  offset="0.637" style="stop-color:#F037A5"/>
			<stop  offset="0.7635" style="stop-color:#F45672"/>
			<stop  offset="0.8949" style="stop-color:#FA7A36"/>
			<stop  offset="1" style="stop-color:#FF9B00"/>
		</linearGradient>
		<polygon style="fill:url(#SVGID_00000169539873838890515070000003333482168286803094_);" points="207.6,137.8 209.9,138.5 
			229.2,118.6 226.8,117.9 		"/>
		
			<linearGradient id="SVGID_00000130623897057836137370000005703451272622878370_" gradientUnits="userSpaceOnUse" x1="443.2841" y1="107.4557" x2="454.369" y2="114.1066" gradientTransform="matrix(0.3037 -0.9528 0.9528 0.3037 -26.2341 504.2091)">
			<stop  offset="0.2464" style="stop-color:#E700FF"/>
			<stop  offset="0.3166" style="stop-color:#E804F9"/>
			<stop  offset="0.4108" style="stop-color:#E90EE8"/>
			<stop  offset="0.5188" style="stop-color:#EC1FCC"/>
			<stop  offset="0.637" style="stop-color:#F037A5"/>
			<stop  offset="0.7635" style="stop-color:#F45672"/>
			<stop  offset="0.8949" style="stop-color:#FA7A36"/>
			<stop  offset="1" style="stop-color:#FF9B00"/>
		</linearGradient>
		<polygon style="fill:url(#SVGID_00000130623897057836137370000005703451272622878370_);" points="221.5,84.7 226.8,117.9 
			229.2,118.6 223.8,85.3 		"/>
		<polygon class="st10" points="236.4,45.1 245.1,98.7 231.3,112.9 244.1,98.2 235.7,45 		"/>
		<polygon class="st10" points="265.3,108.4 245.3,101 237.6,112.2 241.2,97.7 226.8,87.2 243.2,93.3 253.5,82.6 248.5,95.8 		"/>
		<polygon class="st10" points="195.7,64.7 181.5,78.6 186.4,108.4 182.8,78.9 		"/>
		<polygon class="st10" points="205,102.3 221.5,84.7 226.8,117.9 220.6,87.4 		"/>
	</g>
	<polygon class="st64" points="272.2,106.6 261.8,43.4 242.8,37.4 221.7,30.6 177.2,76.8 187.8,141 207.8,147.7 226.1,153.5 
		272.2,106.6 	"/>
</g>
</svg>
