<?xml version="1.0" encoding="utf-8"?>
<!-- Generator: Adobe Illustrator 25.4.1, SVG Export Plug-In . SVG Version: 6.00 Build 0)  -->
<svg version="1.1" xmlns="http://www.w3.org/2000/svg" xmlns:xlink="http://www.w3.org/1999/xlink" x="0px" y="0px"
	 viewBox="0 0 512 512" style="enable-background:new 0 0 512 512;" xml:space="preserve">
<style type="text/css">
	.st0{fill:#FFFFFF;stroke:#CCCCCC;stroke-miterlimit:10;}
	.st1{fill:#F0E8DE;}
	.st2{fill:#D6960B;}
	.st3{fill:#D6AC00;}
	.st4{fill:#A64001;}
	.st5{fill:#F2C644;}
	.st6{fill:#E7BA33;}
	.st7{fill:#FEC82E;}
	.st8{fill:#FDE56C;}
	.st9{fill:#A65801;}
	.st10{fill:#FFFFFF;}
	.st11{fill:#FFEBA2;}
	.st12{fill:#EBC656;}
	.st13{fill:#E5B420;}
	.st14{fill:#B86734;}
	.st15{fill:url(#SVGID_1_);}
	.st16{fill:#F4CABC;}
	.st17{fill:#657F8E;}
	.st18{fill:#5B7787;}
	.st19{fill:#F0B7A4;}
	.st20{fill:#F6D5CA;}
	.st21{fill:#526F80;}
	.st22{fill:#D6960B;stroke:#000000;stroke-width:2;stroke-miterlimit:10;}
	.st23{fill:#FEC82E;stroke:#000000;stroke-miterlimit:10;}
	.st24{fill:url(#SVGID_00000061443041692248028160000010777258380496725125_);}
	.st25{fill:#F4CABC;stroke:#000000;stroke-width:4;stroke-miterlimit:10;}
	.st26{fill:#657F8E;stroke:#000000;stroke-width:4;stroke-miterlimit:10;}
	.st27{fill:#5B7787;stroke:#000000;stroke-width:4;stroke-miterlimit:10;}
	.st28{fill:#7653A0;stroke:#000000;stroke-width:4;stroke-miterlimit:10;}
	.st29{fill:#582D8B;}
	.st30{fill:#F4EECE;}
	.st31{fill:#D45300;stroke:#000000;stroke-width:4;stroke-miterlimit:10;}
	.st32{fill:#AE4100;}
	.st33{fill:#CDBC98;stroke:#000000;stroke-width:2;stroke-miterlimit:10;}
	.st34{fill:none;stroke:#000000;stroke-width:0.9584;stroke-miterlimit:10;}
	.st35{fill:#CDC296;}
	.st36{fill:#9D8373;}
	.st37{fill:#E9DEBC;}
	.st38{fill:#F5E7BF;stroke:#000000;stroke-miterlimit:10;}
	.st39{fill:#9D8973;}
	.st40{fill:#B5A498;}
	.st41{fill:#A3978A;}
	.st42{fill:#E2D8BB;}
	.st43{fill:#DCCFA9;}
	.st44{fill:url(#SVGID_00000086667848666052912590000007503625135833020607_);}
	.st45{fill:#DED2AF;}
	.st46{fill:#F6F1DE;}
	.st47{fill:#B59E89;}
	.st48{fill:#7D675B;}
	.st49{fill:url(#SVGID_00000061432911371098501590000014886709904632548522_);}
	.st50{fill:#07374A;}
	.st51{opacity:0.3;fill:#1BB8FF;}
	.st52{fill:url(#SVGID_00000143616213269887952310000001789086266751189933_);}
	.st53{fill:url(#SVGID_00000062161549808654964780000017672784397780771471_);}
	.st54{fill:url(#SVGID_00000054265518908920445090000006286531649554408329_);}
	.st55{fill:url(#SVGID_00000045585628535585400570000003730064628130995078_);}
	.st56{fill:url(#SVGID_00000150797191899759665160000011712513942887250354_);}
	.st57{fill:url(#SVGID_00000173134841862957424290000010833917147034045338_);}
	.st58{fill:url(#SVGID_00000008151348835560971380000007177319412813848963_);}
	.st59{fill:url(#SVGID_00000119102691342568077230000018074006326559649435_);}
	.st60{fill:url(#SVGID_00000048474510233138030540000000136514204281565110_);}
	.st61{opacity:0.6;fill:#B5FFFF;}
	.st62{fill:url(#SVGID_00000124120431702546012400000003865083686715976328_);}
	.st63{fill:url(#SVGID_00000034089467357848901360000003992572916805559218_);}
	.st64{fill:none;stroke:#000000;stroke-width:2;stroke-miterlimit:10;}
	.st65{fill:url(#SVGID_00000049903928287075628380000016172072797635027379_);}
	.st66{fill:url(#SVGID_00000026131513324324877860000002813270763609816464_);}
	.st67{fill:url(#SVGID_00000098214074973450671960000005968960964755830928_);}
	.st68{fill:url(#SVGID_00000050660753186856353790000015448731432712112770_);}
	.st69{fill:url(#SVGID_00000137090058595648842520000018069333450008945800_);}
	.st70{fill:url(#SVGID_00000102531742046229895300000009782105410921980839_);}
	.st71{fill:url(#SVGID_00000130635555782788397520000007126625775623897515_);}
	.st72{fill:url(#SVGID_00000168803750699471177330000000102147908544394411_);}
	.st73{fill:url(#SVGID_00000072994011570365673200000013378211077939463090_);}
	.st74{fill:url(#SVGID_00000080191808034000000340000014904441307151725474_);}
	.st75{fill:url(#SVGID_00000072281120401960152970000018175670242012305337_);}
</style>
<g id="safe">
</g>
<g id="Layer_1">
	<path class="st1" d="M28,377.6c0,0-9.8-150.2,129.2-131.7c68.7,9.1-18.5-125.5,30.8-151.4S329.1,54.1,394.8,129
		c61.5,70.2,64,131.7,33.2,193.2s68.9,55.4,46.8,112c-11.3,28.9-104.2,59.5-194.5,57.8c-86.8-1.6-170.8-34.6-195.7-46.8
		C19.4,413.3,28,377.6,28,377.6z"/>
	<path class="st22" d="M277.1,101.8c-9,28.9-28.6,48.8-49.9,47c-2.2-0.2-11.4-3.3-13.6-4c-4-1.2-8.8-2.6-12.1-5
		c-15.5-11.5-20.9-35.4-11.7-65.1c9.2-29.7,27.3-46.3,46.5-46.9c4-0.1,8.8,1.5,12.8,2.7c2.2,0.7,11.5,3.3,13.4,4.4
		C281.3,45.4,286.1,72.9,277.1,101.8z"/>
	<path d="M254.5,94.8c-4.1,13.1-11,24.5-19.6,32c-8.6,7.5-17.7,10.3-25.8,7.8c-8.1-2.5-14-10-16.8-21c-2.8-11-2.1-24.3,2-37.5
		s11-24.5,19.6-32c8.6-7.5,17.7-10.3,25.8-7.8c8.1,2.5,14,10,16.8,21C259.3,68.4,258.6,81.7,254.5,94.8z M194.4,76.1
		c-8.4,27-1.8,53.1,14.7,58.3c16.5,5.1,36.8-12.6,45.2-39.6c8.4-27,1.8-53.1-14.7-58.3C223.1,31.3,202.8,49.1,194.4,76.1z"/>
	
		<ellipse transform="matrix(0.2971 -0.9548 0.9548 0.2971 76.1347 274.2584)" class="st3" cx="224.4" cy="85.4" rx="51.3" ry="31.5"/>
	<path class="st4" d="M199.7,77.8c7.9-25.5,26-42.5,40.5-38c1.5,0.5,2.9,1.1,4.1,2c-2-2-4.3-3.5-6.9-4.4
		c-14.4-4.5-32.7,13.1-40.9,39.3c-8.2,26.2-3.1,51.1,11.4,55.6c2.6,0.8,5.4,0.9,8.2,0.3c-1.5,0-3.1-0.2-4.5-0.7
		C197.1,127.5,191.8,103.2,199.7,77.8z"/>
	<path class="st4" d="M234.1,68.8l0,0.1c-3.4-0.8-7.7,1.1-11.1,7c-3.1,5.5-5.3,8.8-7,10.7c-0.1-1.6,0.3-3.7,1.2-6.5
		c2-6.1,5.1-9.4,6.5-10.7l1.2-0.8l-5.7-1.7c0,0-0.9-0.3-3-0.5c-1.3-0.3-2.2-0.3-4.3-0.7c-7.3,11.8-11.6,28.9-1.8,32.7
		c0.1,0.1,0.3,0.1,0.4,0.1c0.2,0.1,0.2,0.2,0.2,0.2l5.2,1.5c7.2,2.7,12.4-7.2,16.9-13.9c-2.5,7-8.2,16.2-8.6,15.8c0,0,0,0,6.6,2.4
		c1.5,0.5,3.6,0.9,7.3,2.3c7-9.7,12.7-26.9,7.3-33.1c-1-1.1-2.2-2-3.6-2.4l0-0.1L234.1,68.8z"/>
	<path class="st5" d="M212,63.2c0.1,0,0.2,0,0.2,0c1.1,0.2,1.8,0.3,2.5,0.4c0.6,0.1,1.1,0.2,1.7,0.3c0,0,0.1,0,0.1,0
		c2.1,0.3,3.1,0.6,3.3,0.6l5.7,1.7c0.4,0.1,0.7,0.3,1,0.6c0.5,0.5,1.3,0.6,2,0.3c1.7-0.7,3.4-1,5.1-0.8c0.4-0.1,0.8,0,1.1,0.1
		l7.6,2.4c0.3,0.1,0.6,0.2,0.8,0.4c1.5,0.6,2.9,1.6,4,2.9c4.6,5.2,2.5,14.7,0.9,19.9c0,0,0,0,0,0c-1.7,5.4-4.3,10.8-7.2,15.2
		c-1.1,1.6-3.1,2.3-5,1.6c-2-0.7-3.4-1.1-4.5-1.4c-0.6-0.2-1-0.3-1.5-0.4c0,0-0.1,0-0.1,0c0,0-6.6-2.3-6.6-2.3
		c-0.4-0.1-0.7-0.3-1-0.6c-0.1-0.1-0.2-0.2-0.2-0.2c-0.5-0.6-1.2-0.9-1.9-0.7c-1.6,0.4-3.3,0.3-5.2-0.4l-5.1-1.5
		c-0.2-0.1-0.5-0.2-0.7-0.3c0,0-0.1,0-0.1-0.1c-1.9-0.7-3.4-1.8-4.6-3.3c-1.1-1.3-3.2-0.6-3.2,1.1c-0.1,13.8,4.9,24.8,13.7,27.6
		c12.6,3.9,28.3-10.4,35.1-32.1c6.7-21.6,2-42.4-10.7-46.3C230.3,45,219.8,51.4,212,63.2z"/>
	<path class="st6" d="M223,75.9c-0.8,1.4-1.5,2.6-2.2,3.7l-8.6-2.6c2.6-7.1,6.5-10,6.5-10s-3.3-0.7-6.8-1.4c-1.9,3-3.6,6.4-4.8,9.9
		l-3.9-1.2l-2,6.6l4,1.2c-1.6,7.4-0.6,14,5,16.2c5.5,2.1,9.9-4.3,13.7-10.4l7.3,2.3c-2.8,6.1-6.6,12.2-6.9,11.9c0,0,0,0,6.6,2.4
		c2.4-3.4,4.6-7.8,6.3-12.3l5.1,1.6l2.2-7l-5.1-1.5c1.3-5.7,1.3-10.9-1-13.7C234.7,67.3,228,67.2,223,75.9z M213.3,88.4
		c-1.6,0.3-3.1-0.8-2.8-4.5l6.2,1.9C215.4,87.4,214.3,88.2,213.3,88.4z M233.5,83.5l-5.7-1.7c1.3-1.7,2.5-2.9,3.7-3.1
		C233.9,78.4,234.3,80.4,233.5,83.5z"/>
	<path class="st4" d="M252,90l-1.6,5.2c-0.2,0.5-0.7,0.8-1.2,0.6l-7-2.2l2.2-7l7,2.2C251.8,89,252.1,89.5,252,90z"/>
	<path class="st23" d="M242.1,30.6c19,5.9,26.8,35.4,17.3,65.8c-9.5,30.4-32.6,50.2-51.6,44.3s-26.8-35.4-17.3-65.8
		S223.1,24.7,242.1,30.6z M195.6,76.5c-8.1,25.9-1.7,51,14.2,55.9c15.9,4.9,35.3-12.1,43.4-38c8.1-25.9,1.7-51-14.2-55.9
		S203.6,50.5,195.6,76.5z"/>
	<path class="st8" d="M257.6,95.8c-9.1,29.3-31.2,48.6-49.2,43c-18-5.6-25.2-34-16.1-63.4c9.1-29.3,31.2-48.6,49.2-43
		C259.6,38,266.8,66.4,257.6,95.8z M193.7,75.9c-4,12.9-4.7,26-1.9,36.9c2.8,11.2,9,18.8,17.4,21.4c8.3,2.6,17.7-0.2,26.5-7.8
		c8.5-7.4,15.3-18.6,19.3-31.5c4-12.9,4.7-26,1.9-36.9c-2.8-11.2-9-18.8-17.4-21.4c-8.3-2.6-17.7,0.2-26.5,7.8
		C204.6,51.8,197.7,63,193.7,75.9z"/>
	<path class="st9" d="M259.2,96.3c-9.3,29.9-31.7,49.5-50.6,44.6c0.3,0.1,0.7,0.2,1,0.3c19,5.9,42.1-13.9,51.6-44.3
		c9.5-30.4,1.7-59.8-17.3-65.8c-0.3-0.1-0.7-0.2-1-0.3C261.2,37.5,268.5,66.4,259.2,96.3z"/>
	<path class="st10" d="M255.1,95.1c-9.3,29.8-29.6,50-48.4,45.1c0.3,0.1,0.7,0.2,1,0.3c19,5.9,42.1-13.8,51.5-44.1
		c9.4-30.3,1.6-59.6-17.4-65.6c-0.3-0.1-0.7-0.2-1-0.3C259.1,37.2,264.3,65.3,255.1,95.1z"/>
	<path class="st10" d="M192.9,84.5c-1.6,6.9-4.7,24.7,3.1,37.4c0.5,0.8,0.4,1.7-0.2,2.4l0,0c-0.9,1.1-2.7,1-3.4-0.3
		c-2.7-5.1-7.4-18-2.4-40c0.1-0.4,0.4-0.8,0.8-1c0,0,0.1,0,0.1,0C192,82.3,193.2,83.3,192.9,84.5z"/>
	<g>
		<path class="st11" d="M212,88.2c-0.8-0.6-1.4-1.9-1.2-4.2l-1-0.3C209.5,86.8,210.6,88.1,212,88.2z"/>
		<path class="st11" d="M230.7,78.4c-1.2,0.1-2.4,1.3-3.7,3.1l1,0.3c1.3-1.7,2.5-2.9,3.7-3.1c0.2,0,0.4,0,0.6,0
			C231.9,78.4,231.4,78.3,230.7,78.4z"/>
		<path class="st11" d="M212.4,77.1C215,70,218.9,67,218.9,67s-0.4-0.1-1.1-0.2c-0.6,0.5-4,3.5-6.4,10L212.4,77.1z"/>
		<path class="st11" d="M224,88.1l-1-0.3c-3.6,5.7-7.7,11.8-12.8,10.7c0,0,0.1,0,0.1,0C215.8,100.6,220.2,94.1,224,88.1z"/>
		<path class="st11" d="M237.4,71.1c2.3,2.8,2.3,8,1,13.7l1,0.3c1.3-5.7,1.3-10.9-1-13.7c-1.1-1.3-2.5-2.2-4.1-2.6
			C235.5,69.3,236.5,70.1,237.4,71.1z"/>
		<path class="st11" d="M236.2,91.9c-1.7,4.5-3.9,8.9-6.3,12.4c0.3,0.1,0.6,0.2,1,0.4c2.4-3.5,4.6-7.9,6.3-12.4L236.2,91.9z"/>
		<polygon class="st11" points="241.3,93.4 242.3,93.8 244.5,86.7 243.5,86.4 		"/>
	</g>
	<g>
		<path class="st12" d="M277.9,94.1L264,89.8c-0.5,2.4-1.2,4.9-2,7.4c-0.8,2.7-1.8,5.3-2.9,7.9l13.9,4.3c1-2.5,2-5.2,2.8-7.9
			C276.7,99,277.4,96.5,277.9,94.1z"/>
		<path class="st13" d="M280,78.6l-14-4.9c-0.1,5.2-0.8,10.6-2,16.1l13.9,4.3C279.1,88.8,279.8,83.6,280,78.6z"/>
		<path class="st13" d="M257.7,108.5c-0.7,1.6-2,3.9-2,3.9l14,4.4c0.6-1.2,1.2-2.4,1.8-3.7l0.1-0.3L257.7,108.5z"/>
		<path class="st13" d="M253.7,115.7c-0.2,0.5-0.5,1-0.8,1.5c-0.4,0.7,0,1.7,0.8,1.9l11.3,3.5c0.6,0.2,1.3-0.1,1.6-0.7
			c0.3-0.6,0.8-1.6,1.1-2.3c0.2-0.4,0-0.8-0.4-0.9l-12.1-3.8C254.7,114.8,254,115.1,253.7,115.7z"/>
		<path class="st13" d="M263,124.7l-11.2-3.5c-0.6-0.2-1.2,0-1.6,0.5c-0.4,0.6-1,1.5-1.5,2.2c-0.5,0.8-0.2,1.9,0.7,2.2l11,3.7
			c0.6,0.2,1.2,0,1.6-0.5c0.6-0.8,1.2-1.6,1.7-2.4C264.3,126,263.9,125,263,124.7z"/>
	</g>
	<polygon class="st14" points="246.7,85.8 247.1,83.2 240.4,81.4 240,83.7 	"/>
	<polygon class="st10" points="276.1,91.4 259.5,88.3 251.4,98.1 253.5,85.5 239.4,75.7 254.9,79.5 263.7,69.4 262,81.8 	"/>
	<g>
		<path d="M321.3,204.4c3.1-4.2,5.7-8.7,8-13.4c2.2-4.7,4-9.6,5.2-14.7c2.5-10.1,2.7-20.7,0-30.6c-0.2-0.6-0.3-1.2-0.5-1.9l-0.6-1.8
			l-0.3-0.9c0-0.2-0.2-0.4-0.3-0.7c-0.3-0.5-0.6-1.1-0.9-1.6c-1.3-2.2-2.8-4.2-4.5-6.1c-1.7-1.9-3.5-3.6-5.6-4.9
			c-2-1.3-4.3-2.2-6.5-2.4c-2.3-0.2-4.5,0.5-6.5,1.6c-1,0.6-2,1.3-2.9,2.1c-0.5,0.4-0.9,0.8-1.3,1.2l-0.6,0.7l-0.5,0.6
			c-1.4,1.7-2.2,3.9-2.2,6.1c0,2.2,0.7,4.4,1.8,6.3c1.2,1.9,2.9,3.5,4.8,4.6c1.9,1.1,4.2,1.5,6.3,1.4c1.1-0.1,2.2-0.3,3.2-0.7
			c0.9-0.3,1.9-0.8,2.8-1.5c1.8-1.3,3.5-3.1,4.9-5c2.8-3.9,5-8.5,6.4-13.3c1.4-4.8,2.2-9.8,2.1-14.7c0-2.5-0.3-5-0.8-7.4
			c-0.5-2.4-1.2-4.8-2.1-7.1c-1.9-4.5-4.9-8.7-8.6-12c-3.7-3.3-8.2-5.9-13-7.9c-2.4-1-4.8-1.8-7.4-2.5c-2.5-0.7-5.1-1.2-7.6-1.7
			l0.1-0.5c5.3,0.3,10.5,1.1,15.6,2.7c5.1,1.6,10.1,3.9,14.4,7.3c2.2,1.7,4.1,3.6,5.9,5.8c1.7,2.2,3.2,4.5,4.4,7
			c2.4,5,3.7,10.5,3.9,16c0.1,2.8,0,5.5-0.3,8.2c-0.3,2.7-0.9,5.4-1.6,8.1c-0.8,2.6-1.7,5.2-2.9,7.7c-1.2,2.5-2.6,4.9-4.3,7.2
			c-1.7,2.2-3.7,4.4-6.2,6.1c-1.2,0.8-2.6,1.6-4.2,2.1c-1.5,0.4-3,0.7-4.5,0.7c-3.1,0.1-6.2-0.7-8.8-2.2c-2.6-1.5-4.8-3.7-6.3-6.3
			c-1.5-2.6-2.3-5.6-2.2-8.6c0.1-3.1,1.3-6.1,3.3-8.4l0.7-0.8l0.7-0.7c0.5-0.5,1-1,1.6-1.4c1.1-0.9,2.3-1.7,3.5-2.4
			c2.5-1.4,5.6-2.2,8.6-1.9c3,0.3,5.7,1.5,8,3.1c2.3,1.6,4.3,3.5,6.1,5.6c1.8,2.1,3.3,4.3,4.6,6.6c0.3,0.6,0.7,1.2,1,1.8
			c0.1,0.3,0.3,0.6,0.5,1.1l0.3,1l0.6,1.9c0.2,0.6,0.3,1.3,0.5,2c2.6,10.4,1.9,21.4-1,31.6c-1.4,5.1-3.4,10-5.8,14.7
			c-2.4,4.7-5.2,9.2-8.5,13.3L321.3,204.4z"/>
	</g>
	<g>
		<path d="M302.5,196.7c2.5,2.1,4.5,4.8,6.1,7.6c0.2,0.4,0.4,0.7,0.6,1.1l0.5,1.1l0.5,1.1l0.5,1.2c0.6,1.5,1,3.2,1.5,4.8
			c0.7,3.2,1.6,6.6,1,9.9c-0.1,0.4-0.1,0.8-0.2,1.2l-0.3,1.2c-0.2,0.8-0.4,1.6-0.7,2.4c-0.6,1.6-1.4,3.1-2.4,4.5l-0.5-0.1
			c-0.4-1.7-0.5-3.3-0.6-4.9c-0.1-0.8-0.1-1.6-0.2-2.3c0-0.8,0-1.5-0.1-2.3c0-0.8-0.1-1.5,0-2.3c0-0.4,0-0.7,0-1.1l0-1.1
			c0.2-1.5,0.1-3,0-4.5c-0.2-1.5-0.4-3-0.7-4.5l-0.2-1.1l-0.3-1.1l-0.3-1.1c-0.1-0.4-0.2-0.7-0.4-1.1c-1-2.9-2.3-5.8-4.2-8.3
			L302.5,196.7z"/>
	</g>
	<g>
		<path d="M324.7,213c1.5,1.6,2.5,3.5,3.4,5.4c0.2,0.5,0.4,1,0.6,1.5c0.2,0.5,0.4,1,0.5,1.6c0.3,1,0.5,2.1,0.7,3.2
			c0.3,2.1,0.9,4.4,0.1,6.6c-0.6,2.1-1.7,4.1-3.6,5.7l-0.5-0.2c-0.4-1.2-0.5-2.2-0.7-3.3c-0.2-1-0.1-2-0.2-3c0-0.5,0-0.9,0.1-1.4
			c0-0.5,0.1-0.9,0.2-1.4c0.3-0.9,0.4-1.9,0.5-2.8c0-1,0.1-1.9,0-2.9c0-0.5,0-1-0.1-1.5c0-0.5-0.1-1-0.1-1.5
			c-0.2-1.9-0.6-3.9-1.4-5.8L324.7,213z"/>
	</g>
	<path class="st25" d="M384.2,251.7c-8.5-3.5-45,2-52.7,4.7s-5.3,22.2,3.8,33.5c-20,7-36.6,11.4-36.6,11.4s-9.1-13.5-3.4-48.9
		s-30.5-41.7-37.1-33.6c-6.6,8.1,3.3,30.3-0.3,36.6s5.8,24.8,0.4,40.5s-14.4,47.8-16.6,60.2s-9,13.2-10,13.7
		c-8.9,4.5-58.6,17.9-111.8,32.4c5.2,20.2,14.5,58.1,22.3,81.2c45.6-17.4,112.9-52.3,112.9-52.3s16.3,10.2,42.5,10.5
		c46.9-2.7,69.1-29.3,72.8-41.4c3.7-12.2,1.2-19.3,1.2-19.3s8.3-9.4,5.9-22.4s-5.2-12.7-1.8-19.7c3.4-7-4.3-22.8-4.3-22.8
		s9.7-15.4,23.3-30.4C408.3,270.8,392.7,255.2,384.2,251.7z"/>
	<path class="st26" d="M117.6,392c0,0-8.7-4.4-26.4,1c-5.6,1.7-10.8,6.5-19.4,8.9c0,1.2,0.4,3.6,1,6.9l0.5-0.1l26,104.3h-1.1
		c0,0,0,0.1,0,0.1c0.7,2.6,3.2,4.3,5.9,4c7.8-0.9,24.6-4.2,45.7-15.8c-1.9-2.1-4.6-8.8-7.7-17.9c-7.8-23-18.1-61.7-23.3-81.9
		C116.8,393.5,117.6,392,117.6,392z"/>
	<polyline class="st27" points="0.5,513 98.3,513 99.4,513 80.9,432.4 72.9,408.8 39.7,417.3 16.3,421.9 0.3,427.8 	"/>
	<g>
		<path d="M289.7,313.2c0.9-3.8,3.2-7.2,6-10.1c1.4-1.4,3-2.7,4.7-3.7c1.7-1.1,3.5-2,5.4-2.8c7.3-2.8,14.7-5,22.2-7
			c7.5-1.9,15-3.7,22.8-4.6c1.9-0.2,3.8-0.4,5.8-0.6l5.8-0.5c3.8-0.3,7.7-0.5,11.6-0.6c-7.5,1.9-15.1,3.4-22.6,4.8
			c-3.7,0.7-7.4,1.5-11.1,2.5c-3.7,0.9-7.4,1.8-11.1,2.8c-3.7,1-7.4,2-11.1,3c-3.7,1.1-7.4,2.1-11,3.3c-3.5,1.1-6.8,2.7-9.8,4.9
			c-1.5,1.1-2.9,2.4-4.1,3.8C291.8,309.9,290.6,311.5,289.7,313.2z"/>
	</g>
	<g>
		<path d="M348,287.2c-0.2-1.8,0.2-3.6,0.9-5.2c0.7-1.6,1.7-3.1,3-4.3c0.6-0.6,1.3-1.2,2.1-1.7c0.8-0.4,1.5-0.9,2.4-1.2
			c1.6-0.7,3.5-0.9,5.2-0.6c-1.3,1.3-2.5,2.2-3.7,3.3c-0.6,0.5-1.1,1-1.7,1.5c-0.5,0.5-1.1,1-1.6,1.5c-1,1-2.1,2.1-3.2,3.2
			C350.4,284.8,349.3,285.9,348,287.2z"/>
	</g>
	<path class="st19" d="M123,404.1c0,0,2-0.8,5.3-2.1c0.9-0.4,7.3,21.4,8.4,21c17.3-6.7,56.2-21.5,64.2-22
		c10.5-0.6,44.9-16,54.2-20.3c9.2-4.3,27.7-44.3,46.2-46.8c18.5-2.5,35.7-13.5,49.8-20.9c14.2-7.4,41.8-37.5,42.5-43.1
		c0.6-5.5,0.6-5.5,0.6-5.5s13.5,9.2-3.1,24.6s-24.6,28.3-24.6,28.3s4.9,7.4,1.2,18.5c-3.7,11.1-3.7,16-3.7,16s10.5,5.8,6.2,16.9
		c-4.3,11.1-8.9,11.1-8.9,11.1s4,26.5-6.5,36.9c-10.5,10.5-67.1,38.5-99.7,10.8c-40.6,20.9-94.2,52.3-111.4,51.7
		C133.2,442.4,127.7,427.7,123,404.1z"/>
	<path class="st20" d="M258.2,218.8c0,0,9-3.3,9.8,8.2s-2.1,15.2-4.9,16s-2.9,0.8-2.9,0.8S252.8,230.7,258.2,218.8z"/>
	<path class="st21" d="M120.7,428.5c0,0-13.9,8.2-19.3,8.2s-9.4,0.4-9.4,0.4l-6.6,4.5c0,0,5.7,11.5,9,33.2s9,39,9,39
		s25.4-3.3,41.4-12.7C137.5,479.4,120.7,428.5,120.7,428.5z"/>
	<path class="st21" d="M69.5,442.5c0,0-19,1.6-19,7.8s-10.3,13.1-10.3,13.1s-7-4.5-11.9-0.4c-4.9,4.1-14.8,7-16.8,7.4
		c-2.1,0.4-9.4,1.6-9.4,1.6l0.8,39l89.9-0.8L80,481.3l6.2-4.3l-8.5-33.3l-1.6-4.7L69.5,442.5z"/>
	<g>
		<path d="M264.4,218c2,4,3.7,8.1,4.7,12.4c0.5,2.2,0.9,4.4,0.6,6.7c-0.2,1.1-0.5,2.3-1.1,3.3c-0.6,1-1.5,1.8-2.6,2.2l0-0.1
			c1.8-1.3,2.6-3.4,2.7-5.5c0.2-2.1,0-4.3-0.4-6.5c-0.4-2.2-1-4.3-1.7-6.4C265.9,222.1,265.1,220.1,264.4,218L264.4,218z"/>
	</g>
	<path class="st19" d="M350.4,285.1c0,0,12.9-21.1,26-7.6c0.8,5-3,5.7-3,5.7L350.4,285.1z"/>
	<path class="st19" d="M270.5,218.8c0,0,9,4.5,4.1,20.5c-4.9,16-9.8,11.9-0.8,31.6c9,19.7,11.1,24.6,11.9,34.9
		c0.8,10.3,0.8,10.3,0.8,10.3s5.7-13.9,9.8-16.8c-4.1-10.7-7-25.8-3.3-45.5C296.7,234,286.5,218,270.5,218.8z"/>
</g>
</svg>
