<?xml version="1.0" encoding="utf-8"?>
<!-- Generator: Adobe Illustrator 25.4.1, SVG Export Plug-In . SVG Version: 6.00 Build 0)  -->
<svg version="1.1" xmlns="http://www.w3.org/2000/svg" xmlns:xlink="http://www.w3.org/1999/xlink" x="0px" y="0px"
	 viewBox="0 0 512 512" style="enable-background:new 0 0 512 512;" xml:space="preserve">
<style type="text/css">
	.st0{fill:#FFFFFF;stroke:#CCCCCC;stroke-miterlimit:10;}
	.st1{fill:#F0E8DE;}
	.st2{fill:#D6960B;}
	.st3{fill:#D6AC00;}
	.st4{fill:#A64001;}
	.st5{fill:#F2C644;}
	.st6{fill:#E7BA33;}
	.st7{fill:#FEC82E;}
	.st8{fill:#FDE56C;}
	.st9{fill:#A65801;}
	.st10{fill:#FFFFFF;}
	.st11{fill:#FFEBA2;}
	.st12{fill:#EBC656;}
	.st13{fill:#E5B420;}
	.st14{fill:#B86734;}
	.st15{fill:url(#SVGID_1_);}
	.st16{fill:#F4CABC;}
	.st17{fill:#657F8E;}
	.st18{fill:#5B7787;}
	.st19{fill:#F0B7A4;}
	.st20{fill:#F6D5CA;}
	.st21{fill:#526F80;}
	.st22{fill:#D6960B;stroke:#000000;stroke-width:2;stroke-miterlimit:10;}
	.st23{fill:#FEC82E;stroke:#000000;stroke-miterlimit:10;}
	.st24{fill:url(#SVGID_00000060709823936859269040000005114412985727460497_);}
	.st25{fill:#F4CABC;stroke:#000000;stroke-width:4;stroke-miterlimit:10;}
	.st26{fill:#657F8E;stroke:#000000;stroke-width:4;stroke-miterlimit:10;}
	.st27{fill:#5B7787;stroke:#000000;stroke-width:4;stroke-miterlimit:10;}
	.st28{fill:#7653A0;stroke:#000000;stroke-width:4;stroke-miterlimit:10;}
	.st29{fill:#582D8B;}
	.st30{fill:#F4EECE;}
	.st31{fill:#D45300;stroke:#000000;stroke-width:4;stroke-miterlimit:10;}
	.st32{fill:#AE4100;}
	.st33{fill:#CDBC98;stroke:#000000;stroke-width:2;stroke-miterlimit:10;}
	.st34{fill:none;stroke:#000000;stroke-width:0.9584;stroke-miterlimit:10;}
	.st35{fill:#CDC296;}
	.st36{fill:#9D8373;}
	.st37{fill:#E9DEBC;}
	.st38{fill:#F5E7BF;stroke:#000000;stroke-miterlimit:10;}
	.st39{fill:#9D8973;}
	.st40{fill:#B5A498;}
	.st41{fill:#A3978A;}
	.st42{fill:#E2D8BB;}
	.st43{fill:#DCCFA9;}
	.st44{fill:url(#SVGID_00000080184777658516748690000013596309128906890144_);}
	.st45{fill:#DED2AF;}
	.st46{fill:#F6F1DE;}
	.st47{fill:#B59E89;}
	.st48{fill:#7D675B;}
	.st49{fill:url(#SVGID_00000003818484302470786230000014379937794927211149_);}
	.st50{fill:#07374A;}
	.st51{opacity:0.3;fill:#1BB8FF;}
	.st52{fill:url(#SVGID_00000176757530169188666350000016231182948540677265_);}
	.st53{fill:url(#SVGID_00000092434900414408995280000008560006435964741015_);}
	.st54{fill:url(#SVGID_00000127740884094694806050000000021609781996482454_);}
	.st55{fill:url(#SVGID_00000092425322835426573820000008881130087595741834_);}
	.st56{fill:url(#SVGID_00000093894613609957743530000003601203828672904375_);}
	.st57{fill:url(#SVGID_00000130631364007835030520000005647581619285815168_);}
	.st58{fill:url(#SVGID_00000050653503720587641650000014359974985823149207_);}
	.st59{fill:url(#SVGID_00000073001337848171743640000016136102239157875900_);}
	.st60{fill:url(#SVGID_00000000935940470777602450000004049832594981376178_);}
	.st61{opacity:0.6;fill:#B5FFFF;}
	.st62{fill:url(#SVGID_00000145030921380076129180000017591312319532585905_);}
	.st63{fill:url(#SVGID_00000153664945317998313420000015037324897756255143_);}
	.st64{fill:none;stroke:#000000;stroke-width:2;stroke-miterlimit:10;}
	.st65{fill:url(#SVGID_00000031166694513538551150000003926713477123746182_);}
	.st66{fill:url(#SVGID_00000090288224250190193270000007441579346798721933_);}
	.st67{fill:url(#SVGID_00000068652810380790757360000007880636608973998774_);}
	.st68{fill:url(#SVGID_00000005255779121482860320000010387664805340499898_);}
	.st69{fill:url(#SVGID_00000060749625995279911690000014245513457440152465_);}
	.st70{fill:url(#SVGID_00000078737414901428311770000001483356284113077127_);}
	.st71{fill:url(#SVGID_00000111893186804219359740000005146632151479239822_);}
	.st72{fill:url(#SVGID_00000103243625895835860410000008037349259664927653_);}
	.st73{fill:url(#SVGID_00000031204349457565245980000014919751996921930909_);}
	.st74{fill:url(#SVGID_00000180349671078860401260000008247759346913821095_);}
	.st75{fill:url(#SVGID_00000168834539218753615120000017995684645664742579_);}
</style>
<g id="safe">
</g>
<g id="Layer_1">
	<path class="st30" d="M247.7,105.3c-12.3,30.6-37.7,49.4-56.5,41.8c-18.8-7.6-24-38.6-11.7-69.3S217.2,28.4,236,36
		C254.8,43.6,260,74.6,247.7,105.3z M181,78.4c-5.4,13.4-7.3,27.4-5.3,39.3c2.1,12.3,8,21,16.7,24.5s19,1.4,29-6.1
		c9.7-7.2,18-18.6,23.5-32c5.4-13.4,7.3-27.4,5.3-39.3c-2.1-12.3-8-21-16.7-24.5s-19-1.4-29,6.1C194.7,53.6,186.4,64.9,181,78.4z"/>
	<path class="st1" d="M28.5,377.6c0,0-9.8-150.2,129.2-131.7c68.7,9.1-18.5-125.5,30.8-151.4S329.5,54.1,395.2,129
		c61.5,70.2,64,131.7,33.2,193.2s68.9,55.4,46.8,112c-11.3,28.9-104.2,59.5-194.5,57.8c-86.8-1.6-170.8-34.6-195.7-46.8
		C19.8,413.3,28.5,377.6,28.5,377.6z"/>
	<g>
		<path d="M321.8,204.4c3.1-4.2,5.7-8.7,8-13.4c2.2-4.7,4-9.6,5.2-14.7c2.5-10.1,2.7-20.7,0-30.6c-0.2-0.6-0.3-1.2-0.5-1.9l-0.6-1.8
			l-0.3-0.9c0-0.2-0.2-0.4-0.3-0.7c-0.3-0.5-0.6-1.1-0.9-1.6c-1.3-2.2-2.8-4.2-4.5-6.1c-1.7-1.9-3.5-3.6-5.6-4.9
			c-2-1.3-4.3-2.2-6.5-2.4c-2.3-0.2-4.5,0.5-6.5,1.6c-1,0.6-2,1.3-2.9,2.1c-0.5,0.4-0.9,0.8-1.3,1.2l-0.6,0.7l-0.5,0.6
			c-1.4,1.7-2.2,3.9-2.2,6.1c0,2.2,0.7,4.4,1.8,6.3c1.2,1.9,2.9,3.5,4.8,4.6c1.9,1.1,4.2,1.5,6.3,1.4c1.1-0.1,2.2-0.3,3.2-0.7
			c0.9-0.3,1.9-0.8,2.8-1.5c1.8-1.3,3.5-3.1,4.9-5c2.8-3.9,5-8.5,6.4-13.3c1.4-4.8,2.2-9.8,2.1-14.7c0-2.5-0.3-5-0.8-7.4
			c-0.5-2.4-1.2-4.8-2.1-7.1c-1.9-4.5-4.9-8.7-8.6-12c-3.7-3.3-8.2-5.9-13-7.9c-2.4-1-4.8-1.8-7.4-2.5c-2.5-0.7-5.1-1.2-7.6-1.7
			l0.1-0.5c5.3,0.3,10.5,1.1,15.6,2.7c5.1,1.6,10.1,3.9,14.4,7.3c2.2,1.7,4.1,3.6,5.9,5.8c1.7,2.2,3.2,4.5,4.4,7
			c2.4,5,3.7,10.5,3.9,16c0.1,2.8,0,5.5-0.3,8.2c-0.3,2.7-0.9,5.4-1.6,8.1c-0.8,2.6-1.7,5.2-2.9,7.7c-1.2,2.5-2.6,4.9-4.3,7.2
			c-1.7,2.2-3.7,4.4-6.2,6.1c-1.2,0.8-2.6,1.6-4.2,2.1c-1.5,0.4-3,0.7-4.5,0.7c-3.1,0.1-6.2-0.7-8.8-2.2c-2.6-1.5-4.8-3.7-6.3-6.3
			c-1.5-2.6-2.3-5.6-2.2-8.6c0.1-3.1,1.3-6.1,3.3-8.4l0.7-0.8l0.7-0.7c0.5-0.5,1-1,1.6-1.4c1.1-0.9,2.3-1.7,3.5-2.4
			c2.5-1.4,5.6-2.2,8.6-1.9c3,0.3,5.7,1.5,8,3.1c2.3,1.6,4.3,3.5,6.1,5.6c1.8,2.1,3.3,4.3,4.6,6.6c0.3,0.6,0.7,1.2,1,1.8
			c0.1,0.3,0.3,0.6,0.5,1.1l0.3,1l0.6,1.9c0.2,0.6,0.3,1.3,0.5,2c2.6,10.4,1.9,21.4-1,31.6c-1.4,5.1-3.4,10-5.8,14.7
			c-2.4,4.7-5.2,9.2-8.5,13.3L321.8,204.4z"/>
	</g>
	<g>
		<path d="M303,196.7c2.5,2.1,4.5,4.8,6.1,7.6c0.2,0.4,0.4,0.7,0.6,1.1l0.5,1.1l0.5,1.1l0.5,1.2c0.6,1.5,1,3.2,1.5,4.8
			c0.7,3.2,1.6,6.6,1,9.9c-0.1,0.4-0.1,0.8-0.2,1.2l-0.3,1.2c-0.2,0.8-0.4,1.6-0.7,2.4c-0.6,1.6-1.4,3.1-2.4,4.5l-0.5-0.1
			c-0.4-1.7-0.5-3.3-0.6-4.9c-0.1-0.8-0.1-1.6-0.2-2.3c0-0.8,0-1.5-0.1-2.3c0-0.8-0.1-1.5,0-2.3c0-0.4,0-0.7,0-1.1l0-1.1
			c0.2-1.5,0.1-3,0-4.5c-0.2-1.5-0.4-3-0.7-4.5l-0.2-1.1l-0.3-1.1l-0.3-1.1c-0.1-0.4-0.2-0.7-0.4-1.1c-1-2.9-2.3-5.8-4.2-8.3
			L303,196.7z"/>
	</g>
	<g>
		<path d="M325.1,213c1.5,1.6,2.5,3.5,3.4,5.4c0.2,0.5,0.4,1,0.6,1.5c0.2,0.5,0.4,1,0.5,1.6c0.3,1,0.5,2.1,0.7,3.2
			c0.3,2.1,0.9,4.4,0.1,6.6c-0.6,2.1-1.7,4.1-3.6,5.7l-0.5-0.2c-0.4-1.2-0.5-2.2-0.7-3.3c-0.2-1-0.1-2-0.2-3c0-0.5,0-0.9,0.1-1.4
			c0-0.5,0.1-0.9,0.2-1.4c0.3-0.9,0.4-1.9,0.5-2.8c0-1,0.1-1.9,0-2.9c0-0.5,0-1-0.1-1.5c0-0.5-0.1-1-0.1-1.5
			c-0.2-1.9-0.6-3.9-1.4-5.8L325.1,213z"/>
	</g>
	<path class="st25" d="M384.7,251.7c-8.5-3.5-45,2-52.7,4.7s-5.3,22.2,3.8,33.5c-20,7-36.6,11.4-36.6,11.4s-9.1-13.5-3.4-48.9
		s-30.5-41.7-37.1-33.6c-6.6,8.1,3.3,30.3-0.3,36.6c-3.6,6.3,5.8,24.8,0.4,40.5c-5.4,15.7-14.4,47.8-16.6,60.2s-9,13.2-10,13.7
		c-8.9,4.5-58.6,17.9-111.8,32.4c5.2,20.2,14.5,58.1,22.3,81.2c45.6-17.4,112.9-52.3,112.9-52.3s16.3,10.2,42.5,10.5
		c46.9-2.7,69.1-29.3,72.8-41.4c3.7-12.2,1.2-19.3,1.2-19.3s8.3-9.4,5.9-22.4s-5.2-12.7-1.8-19.7c3.4-7-4.3-22.8-4.3-22.8
		s9.7-15.4,23.3-30.4C408.8,270.8,393.2,255.2,384.7,251.7z"/>
	<path class="st31" d="M118.1,392c0,0-8.7-4.4-26.4,1c-5.6,1.7-10.8,6.5-19.4,8.9c0,1.2,0.4,3.6,1,6.9l0.5-0.1l26,104.3h-1.1
		c0,0,0,0.1,0,0.1c0.7,2.6,3.2,4.3,5.9,4c7.8-0.9,24.6-4.2,45.7-15.8c-1.9-2.1-4.6-8.8-7.7-17.9c-7.8-23-18.1-61.7-23.3-81.9
		C117.2,393.5,118.1,392,118.1,392z"/>
	<polyline class="st31" points="1,513 98.7,513 99.8,513 81.4,432.4 73.3,408.8 40.2,417.3 16.8,421.9 0.8,427.8 	"/>
	<g>
		<path d="M290.2,313.2c0.9-3.8,3.2-7.2,6-10.1c1.4-1.4,3-2.7,4.7-3.7c1.7-1.1,3.5-2,5.4-2.8c7.3-2.8,14.7-5,22.2-7
			c7.5-1.9,15-3.7,22.8-4.6c1.9-0.2,3.8-0.4,5.8-0.6l5.8-0.5c3.8-0.3,7.7-0.5,11.6-0.6c-7.5,1.9-15.1,3.4-22.6,4.8
			c-3.7,0.7-7.4,1.5-11.1,2.5c-3.7,0.9-7.4,1.8-11.1,2.8c-3.7,1-7.4,2-11.1,3c-3.7,1.1-7.4,2.1-11,3.3c-3.5,1.1-6.8,2.7-9.8,4.9
			c-1.5,1.1-2.9,2.4-4.1,3.8C292.2,309.9,291.1,311.5,290.2,313.2z"/>
	</g>
	<g>
		<path d="M348.5,287.2c-0.2-1.8,0.2-3.6,0.9-5.2c0.7-1.6,1.7-3.1,3-4.3c0.6-0.6,1.3-1.2,2.1-1.7c0.8-0.4,1.5-0.9,2.4-1.2
			c1.6-0.7,3.5-0.9,5.2-0.6c-1.3,1.3-2.5,2.2-3.7,3.3c-0.6,0.5-1.1,1-1.7,1.5c-0.5,0.5-1.1,1-1.6,1.5c-1,1-2.1,2.1-3.2,3.2
			C350.9,284.8,349.8,285.9,348.5,287.2z"/>
	</g>
	<path class="st19" d="M123.4,404.1c0,0,2-0.8,5.3-2.1c0.9-0.4,7.3,21.4,8.4,21c17.3-6.7,56.2-21.5,64.2-22
		c10.5-0.6,44.9-16,54.2-20.3c9.2-4.3,27.7-44.3,46.2-46.8c18.5-2.5,35.7-13.5,49.8-20.9c14.2-7.4,41.8-37.5,42.5-43.1
		c0.6-5.5,0.6-5.5,0.6-5.5s13.5,9.2-3.1,24.6s-24.6,28.3-24.6,28.3s4.9,7.4,1.2,18.5c-3.7,11.1-3.7,16-3.7,16s10.5,5.8,6.2,16.9
		c-4.3,11.1-8.9,11.1-8.9,11.1s4,26.5-6.5,36.9c-10.5,10.5-67.1,38.5-99.7,10.8c-40.6,20.9-94.2,52.3-111.4,51.7
		C133.6,442.4,128.2,427.7,123.4,404.1z"/>
	<path class="st20" d="M258.6,218.8c0,0,9-3.3,9.8,8.2c0.8,11.5-2.1,15.2-4.9,16s-2.9,0.8-2.9,0.8S253.3,230.7,258.6,218.8z"/>
	<path class="st32" d="M121.2,428.5c0,0-13.9,8.2-19.3,8.2c-5.3,0-9.4,0.4-9.4,0.4l-6.6,4.5c0,0,5.7,11.5,9,33.2s9,39,9,39
		s25.4-3.3,41.4-12.7C138,479.4,121.2,428.5,121.2,428.5z"/>
	<path class="st32" d="M70,442.5c0,0-19,1.6-19,7.8s-10.3,13.1-10.3,13.1s-7-4.5-11.9-0.4c-4.9,4.1-14.8,7-16.8,7.4
		c-2.1,0.4-9.4,1.6-9.4,1.6l0.8,39l89.9-0.8l-12.9-28.8l6.2-4.3l-8.5-33.3l-1.6-4.7L70,442.5z"/>
	<g>
		<path d="M264.8,218c2,4,3.7,8.1,4.7,12.4c0.5,2.2,0.9,4.4,0.6,6.7c-0.2,1.1-0.5,2.3-1.1,3.3c-0.6,1-1.5,1.8-2.6,2.2l0-0.1
			c1.8-1.3,2.6-3.4,2.7-5.5c0.2-2.1,0-4.3-0.4-6.5c-0.4-2.2-1-4.3-1.7-6.4C266.4,222.1,265.6,220.1,264.8,218L264.8,218z"/>
	</g>
	<path class="st19" d="M350.9,285.1c0,0,12.9-21.1,26-7.6c0.8,5-3,5.7-3,5.7L350.9,285.1z"/>
	<path class="st19" d="M270.9,218.8c0,0,9,4.5,4.1,20.5c-4.9,16-9.8,11.9-0.8,31.6c9,19.7,11.1,24.6,11.9,34.9
		c0.8,10.3,0.8,10.3,0.8,10.3s5.7-13.9,9.8-16.8c-4.1-10.7-7-25.8-3.3-45.5C297.2,234,286.9,218,270.9,218.8z"/>
	<path class="st33" d="M268,113.5c-12.2,30.2-34.9,49.8-57.5,45.9c-2.4-0.4-11.9-4.6-14.2-5.5c-4.1-1.7-9.2-3.6-12.5-6.4
		c-15.6-13.7-19.3-39.7-6.8-70.7s33.2-47.2,54-46.2c4.3,0.2,9.3,2.4,13.4,4c2.3,0.9,12,4.5,14,5.9C277.4,53.3,280.2,83.2,268,113.5z
		"/>
	
		<ellipse transform="matrix(0.3737 -0.9275 0.9275 0.3737 48.7155 254.6551)" class="st34" cx="212.9" cy="91.3" rx="55.2" ry="33.8"/>
	
		<ellipse transform="matrix(0.3737 -0.9275 0.9275 0.3737 48.7155 254.6551)" class="st35" cx="212.9" cy="91.3" rx="55.2" ry="33.8"/>
	<path class="st36" d="M187.2,80.9c10.7-26.6,31.6-43.2,46.7-37.1c1.5,0.6,3,1.5,4.3,2.5c-1.9-2.4-4.3-4.2-7-5.3
		c-15.1-6.1-36.2,11.2-47.2,38.6c-11,27.4-7.8,54.5,7.3,60.5c2.7,1.1,5.7,1.4,8.7,1.1c-1.7-0.2-3.3-0.5-4.8-1.2
		C180.1,133.9,176.5,107.5,187.2,80.9z"/>
	<path class="st37" d="M201.7,66.4c0.1,0,0.2,0,0.2,0c1.1,0.3,1.9,0.5,2.6,0.6c0.6,0.1,1.2,0.3,1.8,0.5c0,0,0.1,0,0.1,0
		c2.2,0.5,3.3,0.9,3.4,0.9l5.9,2.3c0.4,0.2,0.8,0.4,1,0.7c0.5,0.6,1.3,0.7,2.1,0.5c1.8-0.6,3.7-0.8,5.6-0.4c0.4,0,0.8,0,1.2,0.2
		l7.9,3.2c0.3,0.1,0.6,0.3,0.8,0.5c1.6,0.8,2.9,2,4,3.5c4.4,5.9,1.4,16-0.8,21.4c0,0,0,0,0,0c-2.3,5.6-5.5,11.2-9,15.6
		c-1.3,1.6-3.5,2.2-5.5,1.3c-2.1-0.9-3.6-1.5-4.7-1.9c-0.6-0.2-1.1-0.4-1.6-0.6c0,0-0.1,0-0.1,0c0,0-6.8-3.1-6.8-3.1
		c-0.4-0.2-0.7-0.4-1-0.7c-0.1-0.1-0.1-0.2-0.2-0.3c-0.4-0.7-1.2-1-2-0.9c-1.8,0.3-3.6,0-5.5-0.9l-5.3-2c-0.2-0.1-0.5-0.2-0.7-0.4
		c0,0-0.1,0-0.1-0.1c-2-0.9-3.5-2.3-4.6-4c-1-1.5-3.4-1-3.5,0.8c-1.3,14.8,3,27,12.3,30.7c13.2,5.3,31.2-8.7,40.4-31.3
		c9.1-22.6,5.8-45.2-7.4-50.5C222.9,48.4,211,54.5,201.7,66.4z"/>
	<path class="st38" d="M236.8,34.1c19.9,8,25.6,40.2,12.8,72c-12.8,31.7-39.3,51-59.1,43c-19.9-8-25.6-40.2-12.8-72
		C190.4,45.3,216.9,26.1,236.8,34.1z M182.9,79.1c-10.9,27.1-6.3,54.4,10.3,61.1s38.9-9.8,49.8-36.9s6.3-54.4-10.3-61.1
		S193.8,52.1,182.9,79.1z"/>
	<path class="st39" d="M249.3,105.9c-12.6,31.2-38.3,50.3-58.1,43.4c0.3,0.2,0.7,0.3,1,0.4c19.9,8,46.3-11.2,59.1-43
		c12.8-31.7,7-63.9-12.8-72c-0.3-0.1-0.7-0.3-1.1-0.4C256.6,43.1,261.9,74.7,249.3,105.9z"/>
	<path class="st10" d="M245,104.3c-12.5,31.1-36,51-55.8,44.1c0.3,0.2,0.7,0.3,1,0.4c19.9,8,46.3-11.1,59.1-42.8
		c12.7-31.6,7-63.8-12.9-71.8c-0.3-0.1-0.7-0.3-1.1-0.4C254.4,42.6,257.5,73.2,245,104.3z"/>
	<path class="st10" d="M179.4,87.5c-2.3,7.2-7.2,26.1,0,40.3c0.4,0.8,0.3,1.9-0.4,2.6l0,0c-1.1,1.1-3,0.8-3.6-0.7
		c-2.4-5.7-6.4-20,0.9-43.1c0.1-0.4,0.5-0.8,0.9-1c0,0,0.1,0,0.1,0C178.5,85.1,179.8,86.2,179.4,87.5z"/>
	<path class="st40" d="M237.6,33.1l22,8.8c0,0,7,4.8,9.6,10.9C252.3,46,252.3,46,252.3,46S249.5,39.4,237.6,33.1z"/>
	<path class="st41" d="M189,150.4l22,8.8c0,0,8.4,1.4,14.5-1.2c-16.9-6.8-16.9-6.8-16.9-6.8S202,154.1,189,150.4z"/>
	<g>
		<path class="st42" d="M269.6,105.2l-14.5-5.8c-0.8,2.6-1.7,5.1-2.7,7.7c-1.1,2.8-2.4,5.6-3.7,8.2l14.5,5.8
			c1.3-2.6,2.6-5.4,3.7-8.2C267.9,110.4,268.8,107.8,269.6,105.2z"/>
		<path class="st43" d="M273.2,88.8l-14.5-6.5c-0.6,5.5-1.8,11.3-3.6,17l14.5,5.8C271.3,99.7,272.5,94.1,273.2,88.8z"/>
		<path class="st43" d="M246.6,118.9c-0.9,1.6-2.5,4-2.5,4l14.6,5.9c0.8-1.2,1.5-2.5,2.3-3.8l0.1-0.3L246.6,118.9z"/>
		<path class="st43" d="M241.8,126.3c-0.3,0.5-0.6,1.1-0.9,1.5c-0.5,0.8-0.2,1.8,0.7,2.1l11.8,4.8c0.7,0.3,1.4,0,1.8-0.6
			c0.4-0.6,1-1.6,1.4-2.3c0.2-0.4,0-0.8-0.3-1l-12.6-5.1C242.9,125.4,242.1,125.7,241.8,126.3z"/>
		<path class="st40" d="M250.9,136.7l-11.7-4.7c-0.6-0.2-1.3-0.1-1.7,0.4c-0.5,0.6-1.2,1.5-1.8,2.2c-0.7,0.8-5.7,5-4.7,5.4l7.5,11.2
			c0.6,0.3,10.6-9.3,11-9.8c0.7-0.8,1.4-1.6,2.1-2.5C252.2,138.3,251.9,137.1,250.9,136.7z"/>
	</g>
	<path class="st35" d="M237.7,113.6c-2.8,7-7.4,7.7-9.9,7.5c-3.3-0.2-5-1.8-5.8-3.1c-1.5-2.4-1.4-5.7,0.2-9.8
		c0.1-0.4,0.3-0.7,0.4-0.9c0.1-0.5,0-1.3-0.1-1.7c-0.1,0-0.3,0-0.6,0.1c-3.1,0.6-6,1.3-7.8,1.8c-0.1,1.5-0.2,3.7,0,5.8
		c0.9,5.6,0.9,9.2-0.1,11.7c-0.4,0.9-0.8,1.7-1.4,2.3l-0.1,0.1l-0.1,0.1c-1.6,1.6-3.6,2.5-5.5,2.4c-3-0.2-6.9-1.7-8.1-8
		c-0.4-2.1-0.4-3.9-0.4-5.8c0-0.6,0-1.2,0-1.9c-0.1-2.3,0.2-4.6,0.3-6.4c0-0.1,0-0.3,0-0.5c-2.6-0.1-5.5-0.4-8.1-1.5
		c-4.5-1.8-2.7,4.7-5.5,0.5c-4.5-7,0.4-21.3,1.9-25.2c2-5,3.5-4.7,8.8-4.8c3.1-0.1,5.2,0.1,6.7,0.2c-0.1-0.5-0.5-1.1-1.1-1.8
		c-0.6-0.6-1.2-1.2-1.8-1.8c-1.9-1.9-3.3-0.2-3.7-3c-0.1-0.7,1.9-7.7,2.6-8.5c1.6-1.9,3.8-7.1,9-4.4c3.1,1.5,5.4,4.8,6.7,6.8
		l0.2,0.2l0,0c1.5,2.4,3.3,7.6,4.4,11.2c2.5-1.7,7.2-4.4,11-4.7c4.9-0.3,8.1-0.4,11.7,0c1.5,0.2,2.9,0.9,3.9,2.1
		c1.8,2.1,2.3,5.4,1.6,9.2c-0.2,1.1-0.5,2.1-0.8,3l0,0.1c-1.2,2.9-3.1,4.6-5.6,5.1c-2,0.4-3.8-0.2-5.2-0.7c-0.5-0.2-0.9-0.3-1.2-0.4
		c-1.9-0.3-3.1-0.1-3.9,0.2c3.7,1.7,8.5,4.9,9.1,10.5C240,104.2,239.3,109.6,237.7,113.6z M193.2,89.4c-0.1,0.5-0.3,3,1.5,3.6
		c2.3,0.7,2.8-0.1,3.3-1.2c0.3-0.7,0.5-1.6,0.6-2.7c0.2-2.6,0.1-3.6,0-4.1c-0.2,0-0.5-0.1-1-0.1c-3,0-3.3,0.5-3.8,1.6
		c-0.3,0.7-0.5,1.6-0.6,2.7L193.2,89.4L193.2,89.4z"/>
	<path class="st36" d="M231.5,73.1c-3,0.2-9.1,5-11.7,7.1c-1,0.8-2.1,0.4-2.4-0.7c-0.9-3.4-2.8-9.6-4.1-11.8c-1-1.5-2.9-4.5-5.1-5.6
		c-1.6-0.9-7.1-3.8-9.2-1.3c-1.9,2.3,2.1,7,2.1,7c0.3,2.2,2.7,3.9,4.9,6.3c2.5,2.7,1.9,5.3,1.4,6.5c-0.5,1.2-1.2,0-8.8,0.3
		c-7.6,0.3-13.5,6.8-13.2,13.6c0.4,8.6,13,9.8,18.4,9.8c0.4,1.3-0.6,5.4-0.6,9.5c0,2.5-3.9,5-3.5,7.3c0.6,3.1,5.6,4.5,8.4,4.6
		c0.6,0,1.7-0.3,2.8-1.4c1.5-1.8,1.7-5.2,0.9-10.9c-0.4-4.1,0.3-8.4,0.3-8.4s4.5-1.5,9.5-2.5s4.1,4.9,3.9,5.5
		c-0.2,0.4-5.1,3.5-4.7,6c0.1,0.8,1.4,1.3,2,1.8c0.6,0.4,3.7,1.3,4.8,1.3c6.3,0.4,8.5-10.8,7.9-17.2c-0.6-6.4-9.9-8.6-9.9-8.6
		c1.4-5.4,6.3-5.3,8.7-4.9c2.4,0.4,5.7,3,7.9-2.2c0.3-0.7,0.5-1.5,0.6-2.3c0.6-3,0.2-5.1-0.7-6.2c-0.4-0.5-1.1-0.6-1.6-0.9
		C237.3,73.1,235.8,72.8,231.5,73.1z M203.7,90.2c-0.6,5.9-3.6,7.6-7.5,6.4c-4.3-1.3-3.4-6.8-3.4-6.8c0.8-6.2,3.5-6.8,7.1-6.9
		C203.6,82.9,204.3,84.4,203.7,90.2z"/>
	<path class="st45" d="M225.8,73.2c-3,0.2-7.7,3.2-10.3,5.2c-1,0.8-2.1,0.4-2.4-0.7c-0.9-3.4-2.8-9.6-4.1-11.8
		c-1-1.5-2.9-4.5-5.1-5.6c-1.6-0.9-3.7-1.4-5.8,1.2c-1.9,2.3-1.3,4.6-1.3,4.6c0.3,2.2,2.7,3.9,4.9,6.3c2.5,2.7,1.9,5.3,1.4,6.5
		c-0.5,1.2-1.2,0-8.8,0.3c-7.6,0.3-9.5,8.3-9.1,15.1c0.4,8.6,8.9,8.3,14.3,8.4c0.4,1.3-0.6,5.4-0.6,9.5c0,2.5-0.1,4.6,0.3,6.9
		c0.6,3.1,1.9,4.9,4.7,5.1c0.6,0,1.7-0.3,2.8-1.4c1.5-1.8,1.7-5.2,0.9-10.9c-0.4-4.1,0.3-8.4,0.3-8.4s4.5-1.5,9.5-2.5
		c5-1,4.1,4.9,3.9,5.5c-0.3,0.6-4.3,8.8,2.1,9.1c6.3,0.4,8.5-10.8,7.9-17.2c-0.6-6.4-9.9-8.6-9.9-8.6c1.4-5.4,6.3-5.3,8.7-4.9
		c2.4,0.4,5.7,3,7.9-2.2c0.3-0.7,0.5-1.5,0.6-2.3c0.6-3,0.2-5.1-0.7-6.2c-0.4-0.5-1-0.8-1.6-0.9C233,72.8,230.2,72.9,225.8,73.2z"/>
	<g>
		<path class="st46" d="M202.6,59.8c0.4,0.1,0.7,0.3,1,0.5c2.3,1,4.1,4,5.1,5.6c1.4,2.3,3.3,8.5,4.1,11.8c0.3,1.1,1.3,1.5,2.3,0.8
			c-0.1-0.2-0.2-0.4-0.3-0.6c-0.9-3.4-2.8-9.6-4.1-11.8c-1-1.5-2.9-4.5-5.1-5.6C204.7,59.9,203.7,59.6,202.6,59.8z"/>
		<path class="st46" d="M237.9,73.2c-0.5,0-1-0.1-1.5-0.1c0.5,0.1,0.9,0.4,1.2,0.8c0.9,1.1,1.3,3.2,0.7,6.2
			c-0.1,0.7-0.3,1.5-0.6,2.3c-0.9,2.2-2.1,3-3.3,3.1c1.8,0.5,3.8,0.5,5.2-2.9c0.3-0.7,0.5-1.5,0.6-2.3c0.6-3,0.2-5.1-0.7-6.2
			C239.1,73.6,238.5,73.3,237.9,73.2z"/>
		<path class="st46" d="M219,100.9c0.1,0,0.3-0.1,0.4-0.1c-0.6-0.3-1.4-0.3-2.4-0.1c-5,1-9.5,2.5-9.5,2.5s-0.7,4.3-0.3,8.4
			c0.8,5.7,0.7,9.2-0.9,10.9c-0.8,0.9-1.7,1.2-2.3,1.4c0.4,0.1,0.9,0.2,1.4,0.2c0.6,0,1.7-0.3,2.8-1.4c1.5-1.8,1.7-5.2,0.9-10.9
			c-0.4-4.1,0.3-8.4,0.3-8.4S214,101.9,219,100.9z"/>
		<path class="st46" d="M229.8,84.6c-2.4-0.4-7.3-0.5-8.7,4.9c0,0,9.4,2.3,9.9,8.6c0.6,6.1-1.5,16.8-7.3,17.2
			c0.4,0.1,0.8,0.2,1.3,0.2c6.3,0.4,8.5-10.8,7.9-17.2c-0.6-6.4-9.9-8.6-9.9-8.6c1.2-4.3,4.5-5.1,7.1-5.1
			C230,84.6,229.9,84.6,229.8,84.6z"/>
	</g>
	<path class="st47" d="M199.5,88.9c-0.6,6.1-3.8,7.9-7.7,6.7c-4.5-1.4-3.5-7-3.5-7c0.8-6.4,3.6-7,7.3-7.1
		C199.4,81.4,200.1,82.9,199.5,88.9z"/>
	<path class="st48" d="M190.2,89.7c0.8-6.4,3.6-7,7.3-7.1c0.6,0,1.2,0,1.6,0.1c-0.6-1.1-1.7-1.5-3.6-1.5c-3.7,0.1-6.5,0.7-7.3,7.1
		c0,0-0.9,5.3,3.2,6.9C189.6,93.1,190.2,89.7,190.2,89.7z"/>
	<path class="st46" d="M195.5,81.3c-1.8,0-3.4,0.2-4.6,1.2c1-0.4,2.1-0.5,3.4-0.5c3.7-0.1,4.5,1.4,3.8,7.6c-0.3,3.2-1.3,5.2-2.8,6.3
		c2.1-0.7,3.6-2.9,4.1-7C200,82.7,199.3,81.2,195.5,81.3z"/>
	<polygon class="st10" points="265.5,108.4 250.4,100.9 239.9,108.1 245.3,96.6 234.4,83.4 248.4,91.2 259.5,83.9 254.5,95.4 	"/>
</g>
</svg>
