<svg id="Layer_1" data-name="Layer 1" xmlns="http://www.w3.org/2000/svg" viewBox="0 0 800 800"><defs><style>.cls-1{fill:#1c1c1c;opacity:0.2;}.cls-2{fill:#d6960b;}.cls-3{fill:none;stroke:#000;stroke-miterlimit:10;}.cls-4{fill:#d6ac00;}.cls-5{fill:#a64001;}.cls-6{fill:#f2c644;}.cls-7{fill:#e7ba33;}.cls-8{fill:#fec82e;}.cls-9{fill:#fde56c;}.cls-10{fill:#a65801;}.cls-11{fill:#fff;}.cls-12{fill:#ffeba2;}.cls-13{fill:#be7e4c;}.cls-14{fill:#ac7e4c;}.cls-15{fill:#ebc656;}.cls-16{fill:#e5b420;}.cls-17{fill:#b86734;}</style></defs><path class="cls-1" d="M764.78,476.38c0,93.55-52.33,176.12-208,205.47-35.87,6.76-158.8,15-195,15-193.41,0-297.35-105.37-297.35-220.47S221.16,268,414.57,268,764.78,361.28,764.78,476.38Z"/><path class="cls-2" d="M409.5,670.83c-178.06,0-324-75.44-350.49-197.77-2.8-12.89-1.18-69.55-1.18-83,0-24.32-.69-54.08,7.11-76.36,37.47-107,161.91-179.15,344.56-179.15s307.08,72.13,344.55,179.15c7.81,22.28,7.12,52,7.12,76.36,0,13.46,1.61,70.12-1.18,83C733.46,595.39,587.55,670.83,409.5,670.83Z"/><ellipse class="cls-3" cx="409.5" cy="346.07" rx="301.66" ry="184.9"/><ellipse class="cls-4" cx="409.5" cy="346.07" rx="301.66" ry="184.9"/><path class="cls-5" d="M409.5,194.59c156.65,0,283.64,72,283.64,160.75a94.1,94.1,0,0,1-4,26.74c8-14.68,12.37-30.22,12.37-46.34C701.53,247,570.78,175,409.5,175s-292,72-292,160.75c0,16.12,4.36,31.66,12.37,46.34a94.1,94.1,0,0,1-4-26.74C125.86,266.56,252.85,194.59,409.5,194.59Z"/><path class="cls-5" d="M519.88,371.48l-.75,0c-1.72-20.6-19.36-41.08-58.78-49.75-36.33-8-58.71-14.16-71.91-20.51,8.63-3.08,21.09-5,38.4-4.76,37.78.47,61.83,12.06,71.21,17.6l6.8,5.36-.58-34.9s0-5.56-2.19-17.67c-.72-7.63-2.17-12.69-3.58-25.45C419.32,221.22,315.88,227,311.83,288.26c-.05.82,0,1.59,0,2.39-.42,1.05-.59,1.65-.59,1.65l.57,31.55C309.05,369.22,374,381,419,394.27c-43.64-1.95-105.15-17.65-103.7-20.48l-1.73,41c0,9.11.92,21.7,0,45.13,66.46,22.37,173.37,24.24,198.22-16.78a50.78,50.78,0,0,0,7.45-24.4l.64-.48Z"/><path class="cls-6" d="M512.5,238.25c.09.45.2.89.25,1.34.71,6.37,1.43,10.7,2.06,14.53.55,3.35,1.08,6.53,1.46,10.23,0,.19.05.41.08.6,2.15,12.19,2.27,18.3,2.27,19.43L519.2,319a14.91,14.91,0,0,1-1.48,6.75,10.76,10.76,0,0,0,1.71,11.5,57.81,57.81,0,0,1,13.3,27.48,15,15,0,0,1,1.5,6.53v46.81a15.09,15.09,0,0,1-1,5.27,66.55,66.55,0,0,1-9.31,27.4c-21,34.57-78.1,39.74-110.31,39.74h0c-32.95,0-68-5.06-97.65-14a25.37,25.37,0,0,1-17.88-25c.31-12.26.08-21.09-.09-27.83-.09-3.43-.16-6.4-.16-9.08,0-.21,0-.43,0-.64,0,0,1.73-40.86,1.73-40.88a15.32,15.32,0,0,1,1.65-6.37,13.41,13.41,0,0,1,1-1.64,11,11,0,0,0,.74-11.8,52.92,52.92,0,0,1-6.85-29.93l-.57-31a16.88,16.88,0,0,1,.56-4.36c0-.3,0-.6,0-.9a62.54,62.54,0,0,1,10.59-31.57c5.64-8.27-1.93-19.07-11.51-16.19-77.61,23.37-130.67,70.56-130.67,125,0,77.68,108,140.65,241.17,140.65s241.18-63,241.18-140.65C646.92,309.06,592.13,261.22,512.5,238.25Z"/><path class="cls-7" d="M460.35,321.78c-9.14-2-17.3-3.9-24.76-5.71l-.6-53c44.37,2.34,67.55,18.79,67.55,18.79s-1.73-19.65-4.05-40.45a342.5,342.5,0,0,0-63.87-9.93l-.27-24.17H393.9V232c-44.54,4.15-79.74,21-82.07,56.22-2.29,34.78,41.41,48.32,82.07,58.92V392c-38.84-5-79.78-15.9-78.6-18.21l-1.73,41c23.52,7.36,52.1,12.32,80.33,14v31.1h43.34l-.36-31.32c34.42-2.65,63.43-11.74,74.91-29.36C529.14,372.58,518.14,334.49,460.35,321.78Zm-86.68-32.36c-4.57-8.32-.77-18.73,20.23-23.7v37.94C382.72,299.12,376.53,294.62,373.67,289.42Zm62.82,104.75L436.08,359c12,4.21,20.81,9,23.7,15.41C465.64,387.37,454.64,392.91,436.49,394.17Z"/><path class="cls-5" d="M394.18,460.18h43.34a0,0,0,0,1,0,0v47.87a1,1,0,0,1-1,1H395.15a1,1,0,0,1-1-1V460.18A0,0,0,0,1,394.18,460.18Z"/><path class="cls-8" d="M748.15,350.09c0,117.14-151.62,212.09-338.65,212.09S70.85,467.23,70.85,350.09,222.47,138,409.5,138,748.15,233,748.15,350.09ZM409.5,169c-159.58,0-288.95,79.3-288.95,177.11s129.37,177.11,289,177.11,289-79.29,289-177.11S569.08,169,409.5,169Z"/><path class="cls-9" d="M409.5,550.91C229,550.91,82.12,460.83,82.12,350.1S229,149.27,409.5,149.27,736.88,239.36,736.88,350.1,590,550.91,409.5,550.91Zm0-393.22c-79.23,0-153.89,19-210.21,53.54-58,35.58-90,83.47-90,134.84s32,99.27,90,134.85c56.32,34.52,131,53.53,210.21,53.53s153.88-19,210.21-53.53c58-35.58,90-83.47,90-134.85s-32-99.26-90-134.84C563.38,176.71,488.73,157.69,409.5,157.69Z"/><path class="cls-10" d="M409.5,560.64C225.76,560.64,76.21,469,71,354.72c-.09,2-.15,4.1-.15,6.16C70.85,478,222.47,573,409.5,573s338.65-95,338.65-212.09c0-2.06-.06-4.11-.16-6.16C742.78,469,593.24,560.64,409.5,560.64Z"/><path class="cls-11" d="M408.73,535.21c-183.11,0-332.15-78.54-337.34-192.82q-.15,3.08-.15,6.16c0,117.14,151.1,212.09,337.49,212.09s337.49-94.95,337.49-212.09c0-2.06-.06-4.11-.15-6.16C740.88,456.67,591.84,535.21,408.73,535.21Z"/><path class="cls-11" d="M359.88,168.17C318.39,171,213,184.78,155.51,250.66a12.13,12.13,0,0,1-13.76,3.25h0a12.14,12.14,0,0,1-4.06-19.76c24-24.05,88.24-73.13,220.48-83.3a8.6,8.6,0,0,1,6.74,2.53l.4.41A8.46,8.46,0,0,1,359.88,168.17Z"/><path class="cls-12" d="M372.42,281.36c1.62-5.7,8-11.16,21.58-14.37v-6.21C375.49,265.15,370.3,273.71,372.42,281.36Z"/><path class="cls-12" d="M460.11,369.42c-2.89-6.4-11.75-11.19-23.77-15.41l.07,6.25c12,4.2,20.81,9,23.7,15.38a19,19,0,0,1,1.1,3.13C462.05,376.21,461.79,373.13,460.11,369.42Z"/><path class="cls-12" d="M435.31,264.39c44.48,2.35,67.72,18.79,67.72,18.79s-.22-2.51-.61-6.62c-3.72-2.43-26.58-16.26-67.18-18.39Z"/><path class="cls-12" d="M394,348.45v-6.21c-38.48-10-79.67-22.63-82.29-53.21,0,.17-.06.33-.07.5C309.34,324.31,353.2,337.85,394,348.45Z"/><path class="cls-12" d="M512.31,394.27c-11.52,17.62-40.63,26.72-75.17,29.37l.07,6.21c34.51-2.66,63.59-11.75,75.1-29.36a43.88,43.88,0,0,0,7.41-27.42A45.07,45.07,0,0,1,512.31,394.27Z"/><path class="cls-12" d="M394,423.86c-28.22-1.66-56.8-6.59-80.36-13.91-.08,1.95-.17,4-.26,6.14,23.61,7.36,52.29,12.32,80.62,14Z"/><polygon class="cls-12" points="394 454.95 394 461.17 437.5 461.17 437.42 454.95 394 454.95"/><path class="cls-13" d="M754.7,352.6V482.05s-10,45.46-35.45,70.89v-99.4S747,425.8,754.7,352.6Z"/><path class="cls-14" d="M60.45,345.66V475.11s10,45.46,35.44,70.89V446.6S68.15,418.86,60.45,345.66Z"/><path class="cls-15" d="M454.38,661.81V576.3q-22,1.82-44.78,1.84c-16.69,0-33.08-.8-49.12-2.26v85.56c16,1.39,32.41,2.13,49.12,2.13Q432.4,663.57,454.38,661.81Z"/><path class="cls-16" d="M544.79,646.45l3.26-86.86a498.54,498.54,0,0,1-93.67,16.71v85.51A494.64,494.64,0,0,0,544.79,646.45Z"/><path class="cls-16" d="M338.39,573.41c-9.89-1-25.61-4.42-25.61-4.42v86.08q11.81,2.14,24,3.77l1.64.15Z"/><path class="cls-16" d="M290.69,563.85c-3.26-.51-6.64-1.11-9.62-1.67a7.88,7.88,0,0,0-9.32,7.76v69.83a7.88,7.88,0,0,0,6.53,7.78c3.63.61,10.29,1.56,14.7,2.17a3.85,3.85,0,0,0,4.38-3.83V571.64A7.87,7.87,0,0,0,290.69,563.85Z"/><path class="cls-16" d="M256.77,631.48v-68.7a8.33,8.33,0,0,0-5.81-7.95c-4.27-1.34-9.94-3.18-14.85-4.77a8.33,8.33,0,0,0-10.9,7.74L223.69,626a8.32,8.32,0,0,0,5.52,8.06q8.23,2.88,16.76,5.44A8.36,8.36,0,0,0,256.77,631.48Z"/><polygon class="cls-17" points="446.32 472.21 461.29 469.6 459.71 428.87 446.32 430.89 446.32 472.21"/><polygon class="cls-11" points="498.35 585.04 475.74 488.52 404.14 467.97 476.61 449.39 495.71 350.61 512.26 443.3 587.28 466.68 516.61 486.78 498.35 585.04"/></svg>