<svg id="Layer_1" data-name="Layer 1" xmlns="http://www.w3.org/2000/svg" viewBox="0 0 800 800"><defs><style>.cls-1{fill:#1c1c1c;opacity:0.2;}.cls-2{fill:#cdbc98;}.cls-3{fill:none;stroke:#000;stroke-miterlimit:10;stroke-width:0.96px;}.cls-4{fill:#cdc296;}.cls-5{fill:#9d8373;}.cls-6{fill:#e9debc;}.cls-7{fill:#f5e7bf;}.cls-8{fill:#f4eece;}.cls-9{fill:#9d8973;}.cls-10{fill:#fff;}.cls-11{fill:#b5a498;}.cls-12{fill:#a3978a;}.cls-13{fill:#e2d8bb;}.cls-14{fill:#dccfa9;}.cls-15{fill:#ded2af;}.cls-16{fill:#f6f1de;}.cls-17{fill:#b59e89;}.cls-18{fill:#7d675b;}</style></defs><path class="cls-1" d="M725.33,486.63c-3.67,110.25-142.19,197.74-327.46,191.59S65.38,577.7,69,467.45,225.86,272.82,411.13,279,729,376.38,725.33,486.63Z"/><path class="cls-2" d="M394,662.37C223.44,656.7,86.07,579.8,64.56,461.78c-2.27-12.44,1.08-66.66,1.51-79.55.77-23.3,1.06-51.83,9.24-72.92C114.61,208,236.1,142.85,411.06,148.66S702.92,227.53,735.4,331.23c6.77,21.6,5.16,50.08,4.39,73.37-.43,12.9-.68,67.22-3.77,79.48C706.72,600.41,564.55,668,394,662.37Z"/><ellipse class="cls-3" cx="404.33" cy="351.29" rx="177.22" ry="289.12" transform="translate(39.81 743.73) rotate(-88.1)"/><ellipse class="cls-4" cx="404.33" cy="351.29" rx="177.22" ry="289.12" transform="translate(39.81 743.73) rotate(-88.1)"/><path class="cls-5" d="M409.15,206.18c150.05,5,269.4,78,266.58,163a89.85,89.85,0,0,1-4.67,25.49c8.15-13.81,12.82-28.56,13.33-44,2.82-85.05-120.13-158.15-274.62-163.28s-282,59.65-284.85,144.69c-.51,15.44,3.17,30.47,10.38,44.78a90,90,0,0,1-3-25.74C135.16,266.1,259.09,201.2,409.15,206.18Z"/><path class="cls-6" d="M506.42,251.28c.07.43.17.86.2,1.3.48,6.11,1,10.29,1.51,14,.42,3.23.82,6.29,1.07,9.84,0,.19,0,.4.06.58,1.68,11.74,1.59,17.6,1.55,18.68l-.54,33.2a14.31,14.31,0,0,1-1.63,6.42,10.31,10.31,0,0,0,1.27,11.08,55.54,55.54,0,0,1,11.87,26.74,14.43,14.43,0,0,1,1.22,6.31l-1.49,44.83a14.68,14.68,0,0,1-1.07,5,64,64,0,0,1-9.79,25.95c-21.17,32.45-76.08,35.58-106.93,34.55h0c-31.56-1.05-65-7-93.1-16.5a24.31,24.31,0,0,1-16.32-24.48c.68-11.74.74-20.21.79-26.67,0-3.29.05-6.14.14-8.71q0-.3,0-.6s3-39.09,3-39.11a14.58,14.58,0,0,1,1.78-6.05,13.49,13.49,0,0,1,1-1.54,10.53,10.53,0,0,0,1.09-11.28,50.71,50.71,0,0,1-5.62-28.88l.44-29.7a16.37,16.37,0,0,1,.68-4.16c0-.28,0-.57.07-.86a59.78,59.78,0,0,1,11.15-29.9c5.66-7.74-1.25-18.33-10.52-15.88C223.19,265.36,170.86,308.87,169.13,361c-2.48,74.4,98.95,138.15,226.54,142.39s233-52.64,235.5-127C632.93,323.38,582,275.82,506.42,251.28Z"/><path class="cls-7" d="M728.59,365.91c-3.73,112.21-152,198.34-331.14,192.39S76.08,456.57,79.81,344.37,231.79,146,411,152,732.31,253.71,728.59,365.91ZM410,181.63C257.1,176.56,130.66,248.4,127.54,342.1S245.83,515.86,398.69,520.94,678,454.18,681.11,360.48,562.82,186.71,410,181.63Z"/><path class="cls-8" d="M397.81,547.5c-172.92-5.74-310.73-96.71-307.2-202.77s147.06-187.7,320-182,310.73,96.71,307.2,202.78S570.73,553.25,397.81,547.5Zm12.51-376.66c-75.9-2.52-148,13.32-203.06,44.59-56.73,32.24-88.88,77.09-90.51,126.31s27.46,96.1,81.93,132c52.85,34.86,123.76,55.45,199.65,58s148-13.32,203.06-44.6c56.73-32.23,88.88-77.09,90.51-126.3s-27.46-96.1-81.93-132C557.12,194,486.21,173.36,410.32,170.84Z"/><path class="cls-9" d="M397.5,556.82c-176-5.84-316.34-98.38-317.69-208-.16,2-.28,3.92-.34,5.9C75.74,466.9,218,562.68,397.11,568.63s327.41-80.18,331.14-192.38q.09-3,0-5.91C719.67,479.64,573.5,562.67,397.5,556.82Z"/><path class="cls-10" d="M397.57,532.44c-175.4-5.82-315.66-85.8-317-195.44-.15,2-.28,3.93-.34,5.9-3.73,112.2,138,208,316.53,213.9s326.31-80.22,330-192.42c.07-2,.08-3.95.05-5.91C718.23,467.77,573,538.27,397.57,532.44Z"/><path class="cls-10" d="M362.46,179.29c-39.83,1.43-141.27,11.24-198.39,72.52a11.61,11.61,0,0,1-13.28,2.67h0a11.63,11.63,0,0,1-3.26-19c23.72-22.27,86.85-67.24,213.84-72.78a8.29,8.29,0,0,1,6.38,2.64c.12.14.24.27.37.4A8.1,8.1,0,0,1,362.46,179.29Z"/><path class="cls-11" d="M734.78,368.52l-4.12,124s-11,43.23-36.2,66.78l3.16-95.22S725.07,438.39,734.78,368.52Z"/><path class="cls-12" d="M70,339.79l-4.12,124s8.15,43.87,31.69,69l3.17-95.21S75,410.15,70,339.79Z"/><path class="cls-13" d="M437.27,655.16,440,573.25q-21.11,1-42.95.34c-16-.53-31.66-1.82-47-3.73l-2.72,81.95c15.3,1.84,31,3.08,47,3.61Q416.16,656.14,437.27,655.16Z"/><path class="cls-14" d="M524.37,643.32l5.88-83.09a477.41,477.41,0,0,1-90.26,13l-2.72,81.91A474.71,474.71,0,0,0,524.37,643.32Z"/><path class="cls-14" d="M329,566.79c-9.44-1.31-24.39-5-24.39-5l-2.74,82.46q11.25,2.43,22.84,4.37l1.57.2Z"/><path class="cls-14" d="M283.59,556.11c-3.11-.58-6.32-1.27-9.16-1.9a7.56,7.56,0,0,0-9.17,7.14L263,628.23a7.54,7.54,0,0,0,6,7.66c3.45.71,9.8,1.82,14,2.55a3.69,3.69,0,0,0,4.31-3.52l2.37-71.13A7.57,7.57,0,0,0,283.59,556.11Z"/><path class="cls-11" d="M249,619.82,251.13,554a8,8,0,0,0-5.31-7.8c-4-1.42-9.41-3.36-14.07-5-5-1.83-34.94-18.88-35.24-13.54l-41.9,57.08c-.2,3.45,64.65,35.42,67.86,36.66q7.8,3,15.88,5.75A8,8,0,0,0,249,619.82Z"/><path class="cls-4" d="M338.88,513.13c-39.35-1.31-51.25-22.69-54.85-35.32-4.91-16.79,0-28,5-34.42,9.09-11.73,25.51-17.28,48.77-16.51,2.09.07,3.81.18,5,.25a22.1,22.1,0,0,0,8-3.47,13.71,13.71,0,0,0-1.3-2.79c-8.29-14.17-17-27.12-22.77-35.3a155.68,155.68,0,0,0-28.54,10.67c-26.1,14.76-43.46,20.86-58,20.38a40.47,40.47,0,0,1-13.93-2.88l-.43-.17-.42-.2c-10.59-5-18.6-13.5-21.42-22.7-4.64-15.11-4.13-36.77,24.58-54.19,9.4-5.7,18.42-9.07,28-12.64,3-1.12,6.1-2.28,9.24-3.53,11.3-4.48,22.85-7.42,32.12-9.78l2.35-.6c-4.09-13-7.76-27.69-7.37-42.36.68-25.57-28.25-4.84-12.29-25.92,26.44-34.94,105.72-36.52,127.58-35.79,28.51.94,29.65,8.9,39.59,34.58a310.32,310.32,0,0,1,11,33.14c2.25-1.65,4.58-4.34,6.77-8.69,2-3.92,3.77-8,5.5-12,5.62-12.91-4.72-16.57,8-23.61,3.3-2,41.33-4.52,46.44-2.67C537.51,231,567,232.7,563,262.8c-1.51,18.12-13.89,35.18-21.32,45.42l-.86,1.19-.16.2c-9,11.73-31.3,29.87-47.14,41.88,12.83,9.46,34.71,27.54,42.72,45.94,10.36,23.79,16.45,39.25,21,57.69a30.86,30.86,0,0,1-3.38,23.11c-7.31,12.44-22.32,21-42.26,24.14a75.92,75.92,0,0,1-16.21,1.29l-.33,0c-16.68-.87-28.5-7-35.14-18.32-5.38-9.15-5.67-19.28-5.88-26.68a54.19,54.19,0,0,0-.43-6.74c-1.78-9.67-4.88-15.33-8.15-18.64-1.71,21.15-9,50.94-35,63.8C389.12,507.56,361.05,513.87,338.88,513.13Zm39.27-262.59c-2.81.59-15.27,3.82-14.75,14,.59,12.61,5.64,13.8,11.67,14a48.84,48.84,0,0,0,14.06-2c13.09-3.58,18.13-6,20-7.26a32.77,32.77,0,0,0-1.48-5c-5.41-14.81-8.19-15.48-14.49-15.69a56.64,56.64,0,0,0-14.32,1.83l-.55.13Z"/><path class="cls-5" d="M526.92,409.81c-6.53-14.29-41-35.61-55.77-44.83-5.5-3.46-5.65-9.47-.62-13.12,15.09-10.41,42.1-30.79,50.89-41.68,5.81-7.69,17.21-22.25,18.13-35.17,1.41-9.57,6.06-42-10.17-47.63-14.73-5.12-30.85,22.87-30.85,22.87-10.49,5.23-14.37,20.31-22.22,35.21-9.05,17.18-22.46,18.93-29.47,18.7-6.66-.22-2.24-5.84-17.17-42.62s-58-54.32-90.73-40.41c-41.66,17.71-24.75,81.63-15.45,108.12-5.76,4.17-27.61,6.72-47.52,14.24-12.38,4.68-31.7-9.93-42.09-3.92-14.48,8.39-12.16,35.77-7.72,49.56,1,3,4.6,8.05,12.06,11.43,11.43,4.47,28.71-.91,55.32-15.3,19.27-9.45,41.88-13.61,41.88-13.61a504.08,504.08,0,0,1,29.14,42.16c14,22.83-16.77,29.17-19.92,29.07-2.22-.08-26.13-18.87-37.94-12.29-3.62,2-4,9.28-5.35,13.24-1.21,3.53.33,20.24,2,25.77,9.48,31.68,68.41,22.46,98.73,8.19s24.6-64.37,24.6-64.37c29.22-2.58,37.55,21.7,39.94,34.06s-4.62,33.39,24.82,34.91a59.82,59.82,0,0,0,12.32-.95c16-2.33,25.37-8.22,29.37-14.72,1.84-3,.91-6.37,1.46-9.71C537.67,438.54,536.48,430.72,526.92,409.81ZM392.78,304c-30.1,7.73-44.09-4.19-45.15-25.23C346.31,255,374.92,250,374.92,250c31.83-7.13,39.86,4.87,46.64,22.55S422.53,296.26,392.78,304Z"/><path class="cls-15" d="M516.09,382.35c-6.53-14.29-29.35-32.29-44.14-41.51-5.5-3.45-5.65-9.46-.62-13.11,15.09-10.41,42.1-30.79,50.89-41.68,5.82-7.69,17.21-22.25,18.13-35.17,1.41-9.58.08-20.77-16.15-26.42-14.73-5.13-24.87,1.65-24.87,1.65-10.49,5.23-14.37,20.32-22.22,35.22-9.05,17.17-22.46,18.93-29.47,18.7-6.66-.23-2.24-5.85-17.17-42.62s-58-31.62-90.71-17.7c-41.66,17.71-24.77,58.91-15.47,85.41-5.76,4.17-27.61,6.72-47.52,14.24C264.39,324,253.85,327,243.46,333,229,341.4,222.52,351.2,227,365c1,3,4.6,8.05,12.06,11.43,11.44,4.47,28.71-.9,55.32-15.29,19.27-9.45,41.88-13.61,41.88-13.61a500.13,500.13,0,0,1,29.14,42.15c14,22.83-16.77,29.18-19.92,29.07-3.51-.11-51.08-5.24-41.26,26.73,9.48,31.68,68.41,22.45,98.73,8.19s24.6-64.38,24.6-64.38c29.23-2.57,37.55,21.71,39.95,34.06s-4.63,33.4,24.81,34.92a60.52,60.52,0,0,0,12.32-.95c16-2.34,25.38-8.22,29.37-14.72a12.41,12.41,0,0,0,1.46-9.72C531.35,417,525.64,403.26,516.09,382.35Z"/><path class="cls-16" d="M540.76,243.72a35.36,35.36,0,0,1-.42,5.94c-.91,12.92-12.31,27.48-18.13,35.17-8.79,10.9-35.79,31.27-50.88,41.68-4.81,3.49-4.88,9.12-.08,12.63a9.31,9.31,0,0,1,2.56-2.71c15.09-10.41,42.09-30.79,50.88-41.68,5.82-7.69,17.22-22.25,18.13-35.17C543.59,254.39,543.54,248.72,540.76,243.72Z"/><path class="cls-16" d="M537.89,441.57c-.65-2.54-1.35-5-2.09-7.49a12.37,12.37,0,0,1-1.85,7.29c-4,6.5-13.4,12.39-29.36,14.72a59.86,59.86,0,0,1-12.32,1c-12.6-.66-18.52-4.89-21.36-10.48.86,9.89,4.42,19.38,23.84,20.39a59.92,59.92,0,0,0,12.32-1c16-2.33,25.37-8.21,29.36-14.71A12.37,12.37,0,0,0,537.89,441.57Z"/><path class="cls-16" d="M367.83,398.37c.41.66.77,1.31,1.1,1.94.22-3.34-.76-7.26-3.57-11.85a502.75,502.75,0,0,0-29.15-42.16s-22.6,4.16-41.87,13.61c-26.62,14.4-43.89,19.77-55.33,15.3-5.74-2.61-9.2-6.18-10.94-9.07a27,27,0,0,0,1.36,7.55c1,3,4.61,8.05,12.06,11.43,11.44,4.47,28.71-.9,55.33-15.29,19.27-9.45,41.87-13.61,41.87-13.61A500.13,500.13,0,0,1,367.83,398.37Z"/><path class="cls-16" d="M467.45,422.13c-2.4-12.36-10.72-36.64-39.94-34.06,0,0,5.7,50.1-24.61,64.37-29.25,13.77-85.15,22.83-97.54-5a29.26,29.26,0,0,0,1.29,6.75c9.48,31.68,68.42,22.45,98.73,8.18S430,398,430,398c23.43-2.06,33.41,13.13,37.69,25.61C467.61,423.09,467.54,422.6,467.45,422.13Z"/><path class="cls-17" d="M391.87,280.94c-31.07,8-45.52-4.33-46.61-26-1.36-24.54,28.17-29.76,28.17-29.76,32.85-7.35,41.14,5,48.14,23.28S422.57,273,391.87,280.94Z"/><path class="cls-18" d="M371.05,236.53c32.86-7.35,41.14,5,48.15,23.28a42,42,0,0,1,2.35,8.19c4.61-4.88,4.39-11,.86-20.25-7-18.25-15.29-30.64-48.15-23.28,0,0-28,4.95-28.2,27.89C353.46,239.65,371.05,236.53,371.05,236.53Z"/><path class="cls-16" d="M422.22,247.74c-3.47-8.8-7.26-16.24-14-20.76,3.52,4.25,6.05,9.63,8.43,15.66,7.2,18.26,1,24.53-30.45,32.49-16.35,4.08-28.2,2.81-36-2.31,7.19,9.13,20.75,12.62,41.63,7.41C423.26,272.27,429.42,266,422.22,247.74Z"/></svg>