<svg id="Layer_1" data-name="Layer 1" xmlns="http://www.w3.org/2000/svg" xmlns:xlink="http://www.w3.org/1999/xlink" viewBox="0 0 800 800"><defs><style>.cls-1{fill:#07374a;}.cls-2{fill:#1bb8ff;opacity:0.3;}.cls-3{fill:url(#linear-gradient);}.cls-4{fill:url(#linear-gradient-2);}.cls-5{fill:url(#linear-gradient-3);}.cls-6{fill:url(#linear-gradient-4);}.cls-7{fill:url(#linear-gradient-5);}.cls-8{fill:url(#linear-gradient-6);}.cls-9{fill:url(#linear-gradient-7);}.cls-10{fill:url(#linear-gradient-8);}.cls-11{fill:url(#linear-gradient-9);}.cls-12{fill:#b5ffff;opacity:0.6;}.cls-13{fill:url(#linear-gradient-10);}.cls-14{fill:url(#linear-gradient-11);}.cls-15{fill:#fff;}</style><linearGradient id="linear-gradient" x1="608.54" y1="909.73" x2="586.27" y2="709.33" gradientUnits="userSpaceOnUse"><stop offset="0.05" stop-color="#9fc762"/><stop offset="0.59" stop-color="#008ebb"/></linearGradient><linearGradient id="linear-gradient-2" x1="269.12" y1="855.46" x2="242.81" y2="436.44" gradientUnits="userSpaceOnUse"><stop offset="0" stop-color="#92acb3"/><stop offset="0.63" stop-color="#003145"/></linearGradient><linearGradient id="linear-gradient-3" x1="142.79" y1="409.23" x2="434.28" y2="384.94" gradientUnits="userSpaceOnUse"><stop offset="0.25" stop-color="#e700ff"/><stop offset="0.79" stop-color="#fa7a36"/><stop offset="1" stop-color="#ffd100"/></linearGradient><linearGradient id="linear-gradient-4" x1="542.63" y1="415.9" x2="164.6" y2="233.71" gradientUnits="userSpaceOnUse"><stop offset="0.53" stop-color="#fabd09"/><stop offset="0.83" stop-color="#fa6b00"/></linearGradient><linearGradient id="linear-gradient-5" x1="223.65" y1="290.57" x2="709.47" y2="325.49" gradientUnits="userSpaceOnUse"><stop offset="0.2" stop-color="#baff8e"/><stop offset="0.75" stop-color="#008ebb"/><stop offset="0.87" stop-color="#008ebb"/></linearGradient><linearGradient id="linear-gradient-6" x1="621.36" y1="149.42" x2="395.15" y2="667.12" gradientUnits="userSpaceOnUse"><stop offset="0" stop-color="#fff"/><stop offset="0.21" stop-color="#baff8e"/><stop offset="0.63" stop-color="#008ebb"/></linearGradient><linearGradient id="linear-gradient-7" x1="446.85" y1="316.17" x2="400.29" y2="265.56" gradientUnits="userSpaceOnUse"><stop offset="0.42" stop-color="#fabd09"/><stop offset="0.83" stop-color="#fa6b00"/></linearGradient><linearGradient id="linear-gradient-8" x1="375.12" y1="356.66" x2="509.5" y2="356.66" gradientUnits="userSpaceOnUse"><stop offset="0" stop-color="#baff8e"/><stop offset="0.63" stop-color="#008ebb"/><stop offset="0.7" stop-color="#008ebb"/></linearGradient><linearGradient id="linear-gradient-9" x1="555.29" y1="471.34" x2="228.38" y2="527" gradientUnits="userSpaceOnUse"><stop offset="0" stop-color="#baff8e"/><stop offset="0.63" stop-color="#008ebb"/></linearGradient><linearGradient id="linear-gradient-10" x1="147.78" y1="382.87" x2="293.53" y2="526.08" gradientUnits="userSpaceOnUse"><stop offset="0.25" stop-color="#a900ff"/><stop offset="0.64" stop-color="#f037a5"/><stop offset="0.76" stop-color="#f45672"/><stop offset="0.89" stop-color="#fa7a36"/><stop offset="1" stop-color="#ff9b00"/></linearGradient><linearGradient id="linear-gradient-11" x1="269.4" y1="382.16" x2="330.13" y2="418.59" gradientUnits="userSpaceOnUse"><stop offset="0.25" stop-color="#e700ff"/><stop offset="0.32" stop-color="#e804f9"/><stop offset="0.41" stop-color="#e90ee8"/><stop offset="0.52" stop-color="#ec1fcc"/><stop offset="0.64" stop-color="#f037a5"/><stop offset="0.76" stop-color="#f45672"/><stop offset="0.89" stop-color="#fa7a36"/><stop offset="1" stop-color="#ff9b00"/></linearGradient></defs><polygon class="cls-1" points="725.31 421.11 409.24 581.19 91.18 421.78 92.7 306.4 410 143.95 725.31 299.4 725.31 421.11"/><polygon class="cls-2" points="111.92 410.54 111.86 415.52 410.5 565.2 705.68 415.73 705.68 404.3 411.22 257.31 111.92 410.54"/><path class="cls-3" d="M409.24,581.19,725.31,421.11V530.33L413,689.74S409.24,580.43,409.24,581.19Z"/><polygon class="cls-4" points="413.03 689.74 409.24 581.19 91.18 421.78 91.18 527.29 413.03 689.74"/><polygon class="cls-5" points="278.67 471.88 142.8 404.32 306.54 321.62 443.4 388.38 278.67 471.88"/><path class="cls-6" d="M142.8,404.32c3-.76,362.08-183.7,362.08-183.7l-97.16-50.86L142,304.88Z"/><polygon class="cls-7" points="375.08 320.82 536.76 238.08 670.36 304.12 509.44 386.1 375.08 320.82"/><polygon class="cls-8" points="669.89 304.41 311.31 487.06 407.72 535.64 674.16 400.53 669.89 304.41"/><path class="cls-9" d="M306.54,321.7l12.13,5.92c92.22-46.88,186.21-94.77,186.21-94.77l-.49-12.17C472.53,236.9,306.54,321.7,306.54,321.7Z"/><polygon class="cls-10" points="509.5 386.06 375.12 320.86 375.2 333.09 497.4 392.46 509.5 386.06"/><polygon class="cls-11" points="408.86 534.76 311.73 486.72 312.45 498.32 408.86 546.9 674.76 412.33 674.23 400.45 408.86 534.76"/><polygon class="cls-12" points="725.2 421.15 409.24 581.19 399.65 575.66 713.66 417.26 718.47 297.32 725.31 299.4 725.2 421.15"/><polygon class="cls-13" points="142.8 404.37 142.8 417.48 278.67 485.04 278.31 471.61 142.8 404.37"/><polygon class="cls-14" points="442.67 388.79 278.31 471.61 278.67 485.04 443.4 401.54 442.67 388.79"/><polygon class="cls-15" points="674.23 400.45 408.86 534.76 311.73 486.72 410.03 528.85 673.43 396.76 674.23 400.45"/><polygon class="cls-15" points="631.91 525.52 637.14 409.21 566.15 387.65 647.6 382.22 678.64 289.32 674.03 385.32 746.9 421.09 669.95 416.83 631.91 525.52"/><polygon class="cls-15" points="504.39 220.68 408.26 169.29 260.49 244.95 408.49 176.85 504.39 220.68"/><polygon class="cls-15" points="323.74 331.74 442.67 388.79 278.31 471.61 426.98 388.42 323.74 331.74"/></svg>