<svg xmlns="http://www.w3.org/2000/svg" xmlns:xlink="http://www.w3.org/1999/xlink" viewBox="0 0 800 800"><defs><style>.cls-1{isolation:isolate;}.cls-2{fill:#1c1c1c;}.cls-2,.cls-25,.cls-41{opacity:0.2;}.cls-3{fill:#4c2a0f;}.cls-4{fill:#663810;}.cls-5{fill:#6e3812;}.cls-6{fill:#895b16;}.cls-26,.cls-7{fill:#891811;}.cls-8{fill:#a26e14;}.cls-9{fill:#502c0e;}.cls-10{fill:#07374a;}.cls-11{fill:#1bb8ff;}.cls-11,.cls-26,.cls-28{opacity:0.3;}.cls-12{fill:url(#linear-gradient);}.cls-13{fill:url(#linear-gradient-2);}.cls-14{fill:url(#linear-gradient-3);}.cls-15{fill:url(#linear-gradient-4);}.cls-16{fill:url(#linear-gradient-5);}.cls-17{fill:url(#linear-gradient-6);}.cls-18{fill:url(#linear-gradient-7);}.cls-19{fill:url(#linear-gradient-8);}.cls-20{fill:url(#linear-gradient-9);}.cls-21{fill:#b5ffff;}.cls-21,.cls-38{opacity:0.6;}.cls-22{fill:url(#linear-gradient-10);}.cls-23{fill:url(#linear-gradient-11);}.cls-24{fill:#fff;}.cls-25,.cls-27{fill:#00354a;}.cls-26,.cls-41{mix-blend-mode:multiply;}.cls-28{fill:#00b0ff;}.cls-29{fill:url(#linear-gradient-12);}.cls-30{fill:url(#linear-gradient-13);}.cls-31{fill:url(#linear-gradient-14);}.cls-32{fill:url(#linear-gradient-15);}.cls-33{fill:url(#linear-gradient-16);}.cls-34{fill:url(#linear-gradient-17);}.cls-35{fill:url(#linear-gradient-18);}.cls-36{fill:url(#linear-gradient-19);}.cls-37{fill:url(#linear-gradient-20);}.cls-38{fill:#98ffff;}.cls-39{fill:url(#linear-gradient-21);}.cls-40{fill:url(#linear-gradient-22);}.cls-42{fill:url(#linear-gradient-23);}.cls-43{fill:url(#linear-gradient-24);}.cls-44{fill:url(#linear-gradient-25);}.cls-45{fill:url(#linear-gradient-26);}.cls-46{fill:url(#linear-gradient-27);}.cls-47{fill:url(#linear-gradient-28);}.cls-48{fill:url(#linear-gradient-29);}.cls-49{fill:url(#linear-gradient-30);}.cls-50{fill:url(#linear-gradient-31);}.cls-51{fill:url(#linear-gradient-32);}.cls-52{fill:url(#linear-gradient-33);}.cls-53{fill:url(#linear-gradient-34);}.cls-54{fill:url(#linear-gradient-35);}.cls-55{fill:url(#linear-gradient-36);}.cls-56{fill:url(#linear-gradient-37);}.cls-57{fill:url(#linear-gradient-38);}.cls-58{fill:url(#linear-gradient-39);}.cls-59{fill:url(#linear-gradient-40);}.cls-60{fill:url(#linear-gradient-41);}.cls-61{fill:url(#linear-gradient-42);}.cls-62{fill:url(#linear-gradient-43);}.cls-63{fill:url(#linear-gradient-44);}.cls-64{fill:url(#linear-gradient-45);}.cls-65{fill:url(#linear-gradient-46);}.cls-66{fill:url(#linear-gradient-47);}.cls-67{fill:url(#linear-gradient-48);}.cls-68{fill:url(#linear-gradient-49);}.cls-69{fill:url(#linear-gradient-50);}.cls-70{fill:url(#linear-gradient-51);}.cls-71{fill:url(#linear-gradient-52);}.cls-72{fill:url(#linear-gradient-53);}.cls-73{fill:url(#linear-gradient-54);}.cls-74{fill:url(#linear-gradient-55);}.cls-75{fill:#713f0b;}.cls-76{fill:#7d4d2b;}.cls-77{mix-blend-mode:overlay;}.cls-78{fill:none;stroke:#59242c;stroke-linecap:round;stroke-linejoin:round;stroke-width:3.08px;stroke-dasharray:12.22 12.22;}</style><linearGradient id="linear-gradient" x1="1160.02" y1="348.85" x2="1151.52" y2="272.3" gradientTransform="matrix(0.78, 0.63, -0.63, 0.78, -274.15, -583.21)" gradientUnits="userSpaceOnUse"><stop offset="0.05" stop-color="#9fc762"/><stop offset="0.59" stop-color="#008ebb"/></linearGradient><linearGradient id="linear-gradient-2" x1="1030.37" y1="328.12" x2="1020.32" y2="168.06" gradientTransform="matrix(0.78, 0.63, -0.63, 0.78, -274.15, -583.21)" gradientUnits="userSpaceOnUse"><stop offset="0" stop-color="#92acb3"/><stop offset="0.63" stop-color="#003145"/></linearGradient><linearGradient id="linear-gradient-3" x1="982.11" y1="157.67" x2="1093.46" y2="148.39" gradientTransform="matrix(0.78, 0.63, -0.63, 0.78, -274.15, -583.21)" gradientUnits="userSpaceOnUse"><stop offset="0.25" stop-color="#e700ff"/><stop offset="0.79" stop-color="#fa7a36"/><stop offset="1" stop-color="#ffd100"/></linearGradient><linearGradient id="linear-gradient-4" x1="1134.85" y1="160.21" x2="990.45" y2="90.62" gradientTransform="matrix(0.78, 0.63, -0.63, 0.78, -274.15, -583.21)" gradientUnits="userSpaceOnUse"><stop offset="0.53" stop-color="#fabd09"/><stop offset="0.83" stop-color="#fa6b00"/></linearGradient><linearGradient id="linear-gradient-5" x1="1013" y1="112.34" x2="1198.58" y2="125.68" gradientTransform="matrix(0.78, 0.63, -0.63, 0.78, -274.15, -583.21)" gradientUnits="userSpaceOnUse"><stop offset="0.2" stop-color="#baff8e"/><stop offset="0.75" stop-color="#008ebb"/><stop offset="0.87" stop-color="#008ebb"/></linearGradient><linearGradient id="linear-gradient-6" x1="1164.92" y1="58.42" x2="1078.51" y2="256.18" gradientTransform="matrix(0.78, 0.63, -0.63, 0.78, -274.15, -583.21)" gradientUnits="userSpaceOnUse"><stop offset="0" stop-color="#fff"/><stop offset="0.21" stop-color="#baff8e"/><stop offset="0.63" stop-color="#008ebb"/></linearGradient><linearGradient id="linear-gradient-7" x1="1098.26" y1="122.12" x2="1080.47" y2="102.79" gradientTransform="matrix(0.78, 0.63, -0.63, 0.78, -274.15, -583.21)" gradientUnits="userSpaceOnUse"><stop offset="0.42" stop-color="#fabd09"/><stop offset="0.83" stop-color="#fa6b00"/></linearGradient><linearGradient id="linear-gradient-8" x1="1070.86" y1="137.59" x2="1122.19" y2="137.59" gradientTransform="matrix(0.78, 0.63, -0.63, 0.78, -274.15, -583.21)" gradientUnits="userSpaceOnUse"><stop offset="0" stop-color="#baff8e"/><stop offset="0.63" stop-color="#008ebb"/><stop offset="0.7" stop-color="#008ebb"/></linearGradient><linearGradient id="linear-gradient-9" x1="1139.68" y1="181.39" x2="1014.81" y2="202.66" gradientTransform="matrix(0.78, 0.63, -0.63, 0.78, -274.15, -583.21)" gradientUnits="userSpaceOnUse"><stop offset="0" stop-color="#baff8e"/><stop offset="0.63" stop-color="#008ebb"/></linearGradient><linearGradient id="linear-gradient-10" x1="984.02" y1="147.6" x2="1039.69" y2="202.3" gradientTransform="matrix(0.78, 0.63, -0.63, 0.78, -274.15, -583.21)" gradientUnits="userSpaceOnUse"><stop offset="0.25" stop-color="#a900ff"/><stop offset="0.64" stop-color="#f037a5"/><stop offset="0.76" stop-color="#f45672"/><stop offset="0.89" stop-color="#fa7a36"/><stop offset="1" stop-color="#ff9b00"/></linearGradient><linearGradient id="linear-gradient-11" x1="1030.48" y1="147.33" x2="1053.67" y2="161.24" gradientTransform="matrix(0.78, 0.63, -0.63, 0.78, -274.15, -583.21)" gradientUnits="userSpaceOnUse"><stop offset="0.25" stop-color="#e700ff"/><stop offset="0.32" stop-color="#e804f9"/><stop offset="0.41" stop-color="#e90ee8"/><stop offset="0.52" stop-color="#ec1fcc"/><stop offset="0.64" stop-color="#f037a5"/><stop offset="0.76" stop-color="#f45672"/><stop offset="0.89" stop-color="#fa7a36"/><stop offset="1" stop-color="#ff9b00"/></linearGradient><linearGradient id="linear-gradient-12" x1="62.97" y1="1256.88" x2="55.38" y2="1188.56" gradientTransform="matrix(1, 0.04, -0.04, 0.8, 220.66, -190.23)" gradientUnits="userSpaceOnUse"><stop offset="0.05" stop-color="#8fc73b"/><stop offset="0.59" stop-color="#008ebb"/></linearGradient><linearGradient id="linear-gradient-13" x1="-52.73" y1="1238.38" x2="-61.71" y2="1095.53" gradientTransform="matrix(1, 0.04, -0.04, 0.8, 220.66, -190.23)" gradientUnits="userSpaceOnUse"><stop offset="0" stop-color="#85a9b3"/><stop offset="0.63" stop-color="#003145"/></linearGradient><linearGradient id="linear-gradient-14" x1="-95.8" y1="1086.26" x2="3.57" y2="1077.98" gradientTransform="matrix(1, 0.04, -0.04, 0.8, 220.66, -190.23)" gradientUnits="userSpaceOnUse"><stop offset="0.25" stop-color="#e700ff"/><stop offset="0.79" stop-color="#fa5700"/><stop offset="1" stop-color="#ffd100"/></linearGradient><linearGradient id="linear-gradient-15" x1="40.51" y1="1088.53" x2="-88.37" y2="1026.42" gradientTransform="matrix(1, 0.04, -0.04, 0.8, 220.66, -190.23)" gradientUnits="userSpaceOnUse"><stop offset="0.53" stop-color="#fabb00"/><stop offset="0.83" stop-color="#fa6b00"/></linearGradient><linearGradient id="linear-gradient-16" x1="-68.24" y1="1045.8" x2="97.38" y2="1057.71" gradientTransform="matrix(1, 0.04, -0.04, 0.8, 220.66, -190.23)" gradientUnits="userSpaceOnUse"><stop offset="0.2" stop-color="#9fff62"/><stop offset="0.75" stop-color="#008ebb"/><stop offset="0.87" stop-color="#008ebb"/></linearGradient><linearGradient id="linear-gradient-17" x1="67.35" y1="997.68" x2="-9.77" y2="1174.17" gradientTransform="matrix(1, 0.04, -0.04, 0.8, 220.66, -190.23)" gradientUnits="userSpaceOnUse"><stop offset="0" stop-color="#fff"/><stop offset="0.21" stop-color="#9fff62"/><stop offset="0.63" stop-color="#008ebb"/></linearGradient><linearGradient id="linear-gradient-18" x1="7.85" y1="1054.53" x2="-8.02" y2="1037.28" gradientTransform="matrix(1, 0.04, -0.04, 0.8, 220.66, -190.23)" gradientUnits="userSpaceOnUse"><stop offset="0.42" stop-color="#fabb00"/><stop offset="0.83" stop-color="#fa6b00"/></linearGradient><linearGradient id="linear-gradient-19" x1="-16.6" y1="1068.33" x2="29.21" y2="1068.33" gradientTransform="matrix(1, 0.04, -0.04, 0.8, 220.66, -190.23)" gradientUnits="userSpaceOnUse"><stop offset="0" stop-color="#9fff62"/><stop offset="0.63" stop-color="#008ebb"/><stop offset="0.7" stop-color="#008ebb"/></linearGradient><linearGradient id="linear-gradient-20" x1="44.82" y1="1107.43" x2="-66.63" y2="1126.41" gradientTransform="matrix(1, 0.04, -0.04, 0.8, 220.66, -190.23)" gradientUnits="userSpaceOnUse"><stop offset="0" stop-color="#9fff62"/><stop offset="0.63" stop-color="#008ebb"/></linearGradient><linearGradient id="linear-gradient-21" x1="-94.1" y1="1077.27" x2="-44.42" y2="1126.09" gradientTransform="matrix(1, 0.04, -0.04, 0.8, 220.66, -190.23)" gradientUnits="userSpaceOnUse"><stop offset="0.25" stop-color="#a900ff"/><stop offset="0.64" stop-color="#f0008f"/><stop offset="0.76" stop-color="#f4183f"/><stop offset="0.89" stop-color="#fa5700"/><stop offset="1" stop-color="#ff9b00"/></linearGradient><linearGradient id="linear-gradient-22" x1="-52.64" y1="1077.03" x2="-31.94" y2="1089.45" gradientTransform="matrix(1, 0.04, -0.04, 0.8, 220.66, -190.23)" gradientUnits="userSpaceOnUse"><stop offset="0.25" stop-color="#e700ff"/><stop offset="0.32" stop-color="#e800f9"/><stop offset="0.41" stop-color="#e900e8"/><stop offset="0.52" stop-color="#ec00c7"/><stop offset="0.64" stop-color="#f0008f"/><stop offset="0.76" stop-color="#f4183f"/><stop offset="0.89" stop-color="#fa5700"/><stop offset="1" stop-color="#ff9b00"/></linearGradient><linearGradient id="linear-gradient-23" x1="629.31" y1="1128.12" x2="622.2" y2="1064.05" gradientTransform="matrix(0.9, 0.45, -0.36, 0.72, 137.22, -251.15)" xlink:href="#linear-gradient-12"/><linearGradient id="linear-gradient-24" x1="520.8" y1="1110.77" x2="512.39" y2="976.8" gradientTransform="matrix(0.9, 0.45, -0.36, 0.72, 137.22, -251.15)" xlink:href="#linear-gradient-13"/><linearGradient id="linear-gradient-25" x1="480.41" y1="968.1" x2="573.6" y2="960.34" gradientTransform="matrix(0.9, 0.45, -0.36, 0.72, 137.22, -251.15)" xlink:href="#linear-gradient-14"/><linearGradient id="linear-gradient-26" x1="608.24" y1="970.23" x2="487.38" y2="911.99" gradientTransform="matrix(0.9, 0.45, -0.36, 0.72, 137.22, -251.15)" xlink:href="#linear-gradient-15"/><linearGradient id="linear-gradient-27" x1="506.26" y1="930.16" x2="661.58" y2="941.33" gradientTransform="matrix(0.9, 0.45, -0.36, 0.72, 137.22, -251.15)" xlink:href="#linear-gradient-16"/><linearGradient id="linear-gradient-28" x1="633.41" y1="885.04" x2="561.09" y2="1050.55" gradientTransform="matrix(0.9, 0.45, -0.36, 0.72, 137.22, -251.15)" xlink:href="#linear-gradient-17"/><linearGradient id="linear-gradient-29" x1="577.62" y1="938.35" x2="562.73" y2="922.17" gradientTransform="matrix(0.9, 0.45, -0.36, 0.72, 137.22, -251.15)" xlink:href="#linear-gradient-18"/><linearGradient id="linear-gradient-30" x1="554.69" y1="951.3" x2="597.65" y2="951.3" gradientTransform="matrix(0.9, 0.45, -0.36, 0.72, 137.22, -251.15)" xlink:href="#linear-gradient-19"/><linearGradient id="linear-gradient-31" x1="612.29" y1="987.96" x2="507.77" y2="1005.76" gradientTransform="matrix(0.9, 0.45, -0.36, 0.72, 137.22, -251.15)" xlink:href="#linear-gradient-20"/><linearGradient id="linear-gradient-32" x1="482" y1="959.67" x2="528.6" y2="1005.46" gradientTransform="matrix(0.9, 0.45, -0.36, 0.72, 137.22, -251.15)" xlink:href="#linear-gradient-21"/><linearGradient id="linear-gradient-33" x1="520.89" y1="959.45" x2="540.3" y2="971.09" gradientTransform="matrix(0.9, 0.45, -0.36, 0.72, 137.22, -251.15)" xlink:href="#linear-gradient-22"/><linearGradient id="linear-gradient-34" x1="1179.29" y1="82.14" x2="1173.83" y2="33.03" gradientTransform="matrix(0.62, 0.78, -0.78, 0.62, -365.61, -729.71)" xlink:href="#linear-gradient"/><linearGradient id="linear-gradient-35" x1="1096.1" y1="68.84" x2="1089.65" y2="-33.85" gradientTransform="matrix(0.62, 0.78, -0.78, 0.62, -365.61, -729.71)" xlink:href="#linear-gradient-2"/><linearGradient id="linear-gradient-36" x1="1065.14" y1="-40.52" x2="1136.58" y2="-46.47" gradientTransform="matrix(0.62, 0.78, -0.78, 0.62, -365.61, -729.71)" xlink:href="#linear-gradient-3"/><linearGradient id="linear-gradient-37" x1="1163.13" y1="-38.89" x2="1070.49" y2="-83.54" gradientTransform="matrix(0.62, 0.78, -0.78, 0.62, -365.61, -729.71)" xlink:href="#linear-gradient-4"/><linearGradient id="linear-gradient-38" x1="1084.96" y1="-69.6" x2="1204.02" y2="-61.05" gradientTransform="matrix(0.62, 0.78, -0.78, 0.62, -365.61, -729.71)" xlink:href="#linear-gradient-5"/><linearGradient id="linear-gradient-39" x1="1182.43" y1="-104.2" x2="1126.99" y2="22.68" gradientTransform="matrix(0.62, 0.78, -0.78, 0.62, -365.61, -729.71)" xlink:href="#linear-gradient-6"/><linearGradient id="linear-gradient-40" x1="1139.66" y1="-63.33" x2="1128.25" y2="-75.73" gradientTransform="matrix(0.62, 0.78, -0.78, 0.62, -365.61, -729.71)" xlink:href="#linear-gradient-7"/><linearGradient id="linear-gradient-41" x1="1122.08" y1="-53.41" x2="1155.01" y2="-53.41" gradientTransform="matrix(0.62, 0.78, -0.78, 0.62, -365.61, -729.71)" xlink:href="#linear-gradient-8"/><linearGradient id="linear-gradient-42" x1="1166.24" y1="-25.3" x2="1086.12" y2="-11.66" gradientTransform="matrix(0.62, 0.78, -0.78, 0.62, -365.61, -729.71)" xlink:href="#linear-gradient-9"/><linearGradient id="linear-gradient-43" x1="1066.36" y1="-46.98" x2="1102.08" y2="-11.88" gradientTransform="matrix(0.62, 0.78, -0.78, 0.62, -365.61, -729.71)" xlink:href="#linear-gradient-10"/><linearGradient id="linear-gradient-44" x1="1096.17" y1="-47.16" x2="1111.05" y2="-38.23" gradientTransform="matrix(0.62, 0.78, -0.78, 0.62, -365.61, -729.71)" xlink:href="#linear-gradient-11"/><linearGradient id="linear-gradient-45" x1="-342.45" y1="161.21" x2="-351.43" y2="80.33" gradientTransform="translate(672.5 -55.09) rotate(-40.92)" xlink:href="#linear-gradient-12"/><linearGradient id="linear-gradient-46" x1="-474.5" y1="140.32" x2="-485.34" y2="-32.34" gradientTransform="translate(672.5 -55.09) rotate(-40.92)" xlink:href="#linear-gradient-13"/><linearGradient id="linear-gradient-47" x1="-530.42" y1="-40.79" x2="-412.78" y2="-50.59" gradientTransform="translate(672.5 -55.09) rotate(-40.92)" xlink:href="#linear-gradient-14"/><linearGradient id="linear-gradient-48" x1="-369.05" y1="-38.1" x2="-521.62" y2="-111.63" gradientTransform="translate(672.5 -55.09) rotate(-40.92)" xlink:href="#linear-gradient-15"/><linearGradient id="linear-gradient-49" x1="-497.78" y1="-88.68" x2="-301.71" y2="-74.59" gradientTransform="translate(672.5 -55.09) rotate(-40.92)" xlink:href="#linear-gradient-16"/><linearGradient id="linear-gradient-50" x1="-337.27" y1="-145.65" x2="-428.57" y2="63.29" gradientTransform="translate(672.5 -55.09) rotate(-40.92)" xlink:href="#linear-gradient-17"/><linearGradient id="linear-gradient-51" x1="-407.7" y1="-78.35" x2="-426.49" y2="-98.78" gradientTransform="translate(672.5 -55.09) rotate(-40.92)" xlink:href="#linear-gradient-18"/><linearGradient id="linear-gradient-52" x1="-436.65" y1="-62.01" x2="-382.42" y2="-62.01" gradientTransform="translate(672.5 -55.09) rotate(-40.92)" xlink:href="#linear-gradient-19"/><linearGradient id="linear-gradient-53" x1="-363.94" y1="-15.73" x2="-495.88" y2="6.74" gradientTransform="translate(672.5 -55.09) rotate(-40.92)" xlink:href="#linear-gradient-20"/><linearGradient id="linear-gradient-54" x1="-528.41" y1="-51.43" x2="-469.58" y2="6.37" gradientTransform="translate(672.5 -55.09) rotate(-40.92)" xlink:href="#linear-gradient-21"/><linearGradient id="linear-gradient-55" x1="-479.32" y1="-51.72" x2="-454.81" y2="-37.01" gradientTransform="translate(672.5 -55.09) rotate(-40.92)" xlink:href="#linear-gradient-22"/></defs><g class="cls-1"><g id="Layer_1" data-name="Layer 1"><path class="cls-2" d="M685.56,591.21s124.63,72,39.65,99-184.11,48-240.77,48c-21.87,0-25.53,2-47.95,1.14-10.2-.4-74.93,33.34-85.21,33-25.69-.83-104.92-12.66-131-11.34-59.48,3-53.56,5.64-101.79.34-91-10-92-92.44-42-95,21-1.07,59.55-66.16,147.36-57.16s192.61,57,257.76,57S685.56,591.21,685.56,591.21Z"/><path class="cls-3" d="M189,309.82s-92.37,114.45-77.6,211.1c16.39,107.36-22.87,122.74-16.84,136,15.86,34.67,69.91,11.94,92.57,23.75,5.85,3.05,10.37,8.14,15.85,11.83,9.48,6.38,21.23,8.2,32.59,9.44,42.77,4.65,85,13.91,127.38,18.17,80.56,8.08,161.76,4.12,241.68-8.15,22.09-3.39,149.91-33.11,139.8-69.5-6-21.66-25.39-38.5-21.78-68.58s6-38.51,1.2-66.18-6-71-55.35-119.12l-49.33-48.13s40.91-21.66,37.3-60.17-51.74-71-51.74-71S637.24,190,631.22,160s-54.15-59-71-59H543.38s-33.69-16.85-54.14-14.44c0,0-81.82-84.23-185.3-34.89,0,0-111.41,32.06-122.74,80.61-8.42,36.1-25.94,31.75-42.11,46.93-18.83,17.69-27.67,72.2,2.41,79.42S189,309.82,189,309.82Z"/><path class="cls-4" d="M720.46,618.22s-48,48-78,45-66,24-129,30-132,0-102-12,102-15,150-45,57-66,87-66,90,42,87,57"/><path class="cls-5" d="M303,359.87s-39.5-4-48.5-12.5c-1-.91-19-2.65-17.34,6.67,3.07,17-5.47,41.87-7.53,43.83C191.88,433.64,131.46,502,178.34,536.05,296.57,622,298,636.37,326.67,600.54s10.13-69.63,48.82-108.32,44.44-36.69,54.59-56.67c9.29-18.3,2.74,28-8.73,62.4s0,108.92,28.67,124.69,54.46,25.8,65.92-80.26-2.86-143.32-41.56-144.75-51.59,4.3-76-8.6-27.8,23.15-12.9,47.29c9.2,14.91-70.56,99.79-129.79,67.48-36.75-20-9-94,2.76-128.43C261.87,365.51,306.82,358.91,303,359.87Z"/><path class="cls-6" d="M531.71,386.16s5.73,71.66,5.73,133.29,0,67.36-5.73,86,1.43,40.13,1.43,40.13l27.23-1.43s12.9-17.2,1.44-37.27l-11.47-20.06s0-166.25-4.3-199.21C543.18,384.73,531.71,386.16,531.71,386.16Z"/><path class="cls-6" d="M200.64,290.85a188.33,188.33,0,0,0,51.6,24.37c29.62,8.6,63.54,19.82,67.36,29.38s-1.91,12.42-19.11,6.69S242,334.09,220,324.53,191.09,313.79,200.64,290.85Z"/><path class="cls-6" d="M379.79,371.35s41.09,12.42,68.8,11.47,37.79-4.24,36.78-10.27c-1-5.74.48-6.93-22.45-5s-71.17-7.54-79.79-8.26C374.73,358.57,375.7,370.56,379.79,371.35Z"/><path class="cls-6" d="M573.27,355.11s-32.48,9.08-41.08,10-5.74,11.47-1.91,11.95,48.73-6.22,66.4-15.29,25.8-9.56,22.93-16.25-5.73-4.29-5.73-4.29S584.74,352.24,573.27,355.11Z"/><path class="cls-6" d="M550.34,387.6s4.3,14.33,12.9,57.32,21.5,61.63,24.36,87.43,7.17,41.56,4.3,57.32-2.86,41.57,4.3,54.47,22.93,12.89,34.4,8.6,0-34.4-11.47-48.73-12.89-44.43-14.33-58.76S590.47,457.82,576.14,422s-15.77-43-15.77-43Z"/><path class="cls-6" d="M580.44,366.1s0,21.5-24.37,28.66S526,393.33,526,387.6s4.3-17.2,4.3-17.2Z"/><path class="cls-7" d="M562.3,179s-17.77-29.14-57.81-54.65c-11.09-7.06-29.8,81.11-38.5,78-10.61-3.79,37.87-41.58-32-62.4-19.87-5.92-72.42-44.36-88.5-43.49-10,.53-13.15,11.59-18,12-7.26.6-38.95.27-58.49,7.5-26.73,9.88-43.76,11-79.36,51.57-61.62,70.23-55.89,58.76-44.43,70.23s137.59,76,176.29,86S431.88,352.44,462,349.57s55.43-3,79.79-20.2,19.1-45.73,17.67-71.53S579.5,212,573.77,200.52,562.3,179,562.3,179Z"/><path class="cls-8" d="M593.34,214.18S639.2,240,630.6,283s-32.43,50.85-69.69,53.72-39.23.74-39.23.74l-4.3-7.16s74.31-5.75,75.11-56.9c.49-31.78-24.83-43-24.83-43S579,202.71,593.34,214.18Z"/><path class="cls-9" d="M501.2,178.19a69.53,69.53,0,0,0-47.85-25c-10-.89-21.59-3.64-30.56-10.69-20.07-15.77-67.36-37.26-80.26-33S298.1,121,290.93,146.82s-21.49,37.26-50.16,47.29S199.21,187,192,205.58s2.87,22.93,21.5,34.4,84.56,41.56,120.39,54.46,90.29,34.39,127.55,33,60.2,8.6,83.13,0,30.1-14.33,28.66-51.59-10-47.3-10-47.3-27.23,7.17-44.43-24.36A169.5,169.5,0,0,0,501.2,178.19Z"/><polygon class="cls-10" points="560.64 300.28 428.31 271.93 372.11 148.19 400.27 114.28 533.54 142.23 589.87 264.13 560.64 300.28"/><polygon class="cls-11" points="380.97 149.84 379.76 151.3 432.52 267.48 556.1 293.97 558.85 290.57 506.68 176.2 380.97 149.84"/><path class="cls-12" d="M428.31,271.93l132.33,28.35-26.23,32.44-131-27.64Z"/><polygon class="cls-13" points="403.37 305.08 428.31 271.93 372.11 148.19 346.77 179.53 403.37 305.08"/><polygon class="cls-14" points="415.78 208.1 391.64 155.4 460.14 170.16 484.76 222.86 415.78 208.1"/><path class="cls-15" d="M391.64,155.4c1.08.51,151.67,32.39,151.67,32.39l-16.65-38.44L415.29,125.68Z"/><polygon class="cls-16" points="480.69 186.38 548.59 200.63 572.41 252.33 504.92 238.04 480.69 186.38"/><polygon class="cls-17" points="572.21 252.31 421.83 220.45 438.8 258.03 550.39 281.88 572.21 252.31"/><path class="cls-18" d="M460.12,170.18l2.18,4.68c38.65,8.22,78.07,16.56,78.07,16.56l2.78-3.73C529.79,184.86,460.12,170.18,460.12,170.18Z"/><polygon class="cls-19" points="504.95 238.04 480.69 186.4 477.78 190.06 499.82 237.04 504.95 238.04"/><polygon class="cls-20" points="439.35 258.04 422.03 220.45 419.46 224.07 436.43 261.65 547.73 285.53 550.43 281.88 439.35 258.04"/><polygon class="cls-21" points="560.6 300.27 428.31 271.93 426.79 267.98 558.11 296.34 588.34 261.87 589.87 264.13 560.6 300.27"/><polygon class="cls-22" points="391.63 155.41 388.48 159.31 412.62 212.01 415.73 207.93 391.63 155.41"/><polygon class="cls-23" points="484.44 222.8 415.73 207.93 412.62 212.01 481.6 226.76 484.44 222.8"/><polygon class="cls-24" points="550.43 281.88 439.35 258.04 422.03 220.45 441.11 256.57 551.08 280.59 550.43 281.88"/><polygon class="cls-24" points="543.15 187.69 526.94 149.34 464.87 136.32 525.19 151.64 543.15 187.69"/><polygon class="cls-24" points="462.82 177.29 484.44 222.8 415.73 207.93 479.88 218.92 462.82 177.29"/><path class="cls-25" d="M396.49,297.37l-12-34s28.66-39.33,28.66-42,13.34-90,18-90.66c2.68-.39,28.36-4.05,44.67,12.66,12.17,12.47,16.38,43.75,16.67,56,.37,15.91-52.64,14-63.34,30.67-8.57,13.32-2.62,28.44-2.62,28.44"/><path class="cls-4" d="M253.58,385.57s-65,121.21-8.09,144.8c94,39,93-.61,124.64-53.32,33.05-55.05,18.14-67.32,8.92-85.15,0,0-14.56,97.47-74.56,99.47C261,492.82,245,424.27,253.58,385.57Z"/><path class="cls-4" d="M389,536.05s3.48,75.32,3.48,119.32c0,31.66-40.61,42-50.77,46.2-25.8,10.75-62.34,25.8-92.44,0s-48.47-71.73-65.66-67.43-33.22,50.24-59,43.79-38.9-15.39-15-43c22.82-26.42-10.75-137.58,10.75-195.62S146.1,420,144,450.06,115.71,567.3,171.6,584.49s34.08,19,59.89,48.88c37,42.75,84.06,55,108,25,10.8-13.52,8.3-56.84,13-72.88C367.51,533.9,376.11,533.9,389,536.05Z"/><path class="cls-26" d="M304.49,269.37s20,6,34,10,20.05,8,25,10.52,17.16,2.32,17.56,7.4-15.61,11.94-34.1,8.51S304.49,269.37,304.49,269.37Z"/><path class="cls-4" d="M636.45,396.19s36,36,33,69-18,54-18,33,9-60-15-78-24-33-24-33Z"/><path class="cls-8" d="M547,336.78S438.55,363.23,389.82,346s-73.9-23.33-118.33-37.66-41.37-25.7-60-30-59.58-29.79-68.17-45.56-12.9-27.23,8.59-45.86,25.8-14.33,44.43-41.56,37.27-54.47,64.5-65.93,37.67-8.25,37.67-8.25S332.8,60.26,341.1,56.05c1.62-.83,55.89-13.85,94.59,10.51s67.36,25.8,67.36,25.8,14.33,22.93,38.69,20.06,57.33,15.77,65.93,35.83-1.43,44.43-1.43,44.43,1.43-20.06-8.6-20.06,19.38,30.42-2.41,29c-18.36-1.19-18,15.86-20.82,10.13s26.09-26.24-1.14-52S562.73,145,562.73,145L518.81,121s-35.34-33-58.27-38.73-65.48-20.81-87-20.81S309.57,72.29,268,98.09s-45.86,53-68.79,74.53S156.21,207,172,218.48s47.29,24.36,74.53,34.4,86,44.42,124.68,55.89,51.6,20.06,77.4,20.06S545.53,329.61,547,336.78Z"/><polygon class="cls-27" points="284.35 686.49 174.76 725.33 68.38 677.01 70.3 645.58 180.34 606.11 285.84 653.3 284.35 686.49"/><polygon class="cls-28" points="75.58 674.27 75.5 675.62 175.38 720.99 277.73 684.72 277.87 681.61 179.38 637.04 75.58 674.27"/><path class="cls-29" d="M174.76,725.33l109.59-38.84L283,716.27,174.72,755S174.76,725.12,174.76,725.33Z"/><polygon class="cls-30" points="174.72 754.99 174.76 725.33 68.38 677.01 67.09 705.79 174.72 754.99"/><polygon class="cls-31" points="131.62 693.53 86.17 673.04 142.94 652.98 188.74 673.27 131.62 693.53"/><path class="cls-32" d="M86.17,673c1-.16,125.56-44.58,125.56-44.58l-32.48-15.35-92.13,32.8Z"/><polygon class="cls-33" points="166.3 653.81 222.37 633.71 267.06 653.75 211.26 673.65 166.3 653.81"/><polygon class="cls-34" points="266.9 653.82 142.55 698.17 174.79 712.88 267.18 680.1 266.9 653.82"/><path class="cls-35" d="M142.94,653l4.06,1.8c32-11.38,64.58-23,64.58-23l0-3.32C200.51,632.41,142.94,653,142.94,653Z"/><polygon class="cls-36" points="211.28 673.64 166.31 653.82 166.19 657.16 207.08 675.21 211.28 673.64"/><polygon class="cls-37" points="175.19 712.66 142.7 698.08 142.8 701.26 175.04 715.97 267.24 683.32 267.21 680.08 175.19 712.66"/><polygon class="cls-38" points="284.31 686.5 174.76 725.33 171.56 723.67 280.43 685.26 283.53 652.63 285.84 653.3 284.31 686.5"/><polygon class="cls-39" points="86.17 673.05 86.01 676.63 131.46 697.12 131.5 693.45 86.17 673.05"/><polygon class="cls-40" points="188.49 673.37 131.5 693.45 131.46 697.12 188.58 676.86 188.49 673.37"/><polygon class="cls-24" points="267.21 680.08 175.19 712.66 142.7 698.08 175.66 711.07 266.98 679.06 267.21 680.08"/><polygon class="cls-24" points="211.56 628.47 179.44 612.99 128.19 631.37 179.43 615.06 211.56 628.47"/><polygon class="cls-24" points="148.68 656 188.49 673.37 131.5 693.45 183.15 673.03 148.68 656"/><path class="cls-41" d="M192.49,721.37l-20.93,2.3s-51.07-21.3-35.07-34.3,11-26,24-30,23.64-12.92,28.82-10S255,656,255,656l15.54,8.15-34,67.26-39,13Z"/><polygon class="cls-27" points="387.02 742.63 278.3 734.26 205.47 652.4 219.07 626.18 328.42 634.18 400.91 714.74 387.02 742.63"/><polygon class="cls-28" points="212.69 652.78 212.1 653.91 280.49 730.78 382.02 738.6 383.32 735.98 315.83 660.33 212.69 652.78"/><path class="cls-42" d="M278.3,734.26,387,742.63l-12.46,25-107.56-8S278.39,734.09,278.3,734.26Z"/><polygon class="cls-43" points="267 759.67 278.3 734.26 205.47 652.4 193.43 676.58 267 759.67"/><polygon class="cls-44" points="253.41 690.6 222.23 655.76 278.53 660.14 310.08 694.95 253.41 690.6"/><path class="cls-45" d="M222.23,655.76c1,.25,124.59,9.51,124.59,9.51l-22-25.5-91.46-6.91Z"/><polygon class="cls-46" points="298.24 669.73 353.95 673.82 384.65 707.99 329.24 703.84 298.24 669.73"/><polygon class="cls-47" points="384.48 707.99 261.02 698.74 283.06 723.61 374.73 730.62 384.48 707.99"/><path class="cls-48" d="M278.52,660.16l2.8,3.09c31.74,2.4,64.11,4.82,64.11,4.82l1.24-2.86Z"/><polygon class="cls-49" points="329.26 703.84 298.24 669.75 296.87 672.56 325.07 703.58 329.26 703.84"/><polygon class="cls-50" points="283.49 723.57 261.17 698.71 260.06 701.48 282.1 726.35 373.56 733.41 374.76 730.62 283.49 723.57"/><polygon class="cls-38" points="386.99 742.63 278.3 734.26 276.19 731.63 384.13 740.09 399.19 713.29 400.91 714.74 386.99 742.63"/><polygon class="cls-51" points="222.23 655.77 220.73 658.77 251.91 693.62 253.33 690.49 222.23 655.77"/><polygon class="cls-52" points="309.82 694.94 253.33 690.49 251.91 693.62 308.58 697.96 309.82 694.94"/><polygon class="cls-24" points="374.76 730.62 283.49 723.57 261.17 698.71 284.5 722.38 374.95 729.66 374.76 730.62"/><polygon class="cls-24" points="346.67 665.21 325.03 639.74 274.1 636.01 324.23 641.5 346.67 665.21"/><polygon class="cls-24" points="282.3 664.91 309.82 694.94 253.33 690.49 305.38 692.62 282.3 664.91"/><polygon class="cls-10" points="418.63 189.75 339.59 153.79 321.38 68.53 343.69 51.14 423.37 86.97 441.92 171.11 418.63 189.75"/><polygon class="cls-11" points="326.7 70.77 325.74 71.52 342.85 151.59 416.66 185.17 418.84 183.42 401.87 104.57 326.7 70.77"/><path class="cls-53" d="M339.59,153.79l79,36-20.89,16.73-78.33-35.33S339.74,153.68,339.59,153.79Z"/><polygon class="cls-54" points="319.41 171.15 339.59 153.79 321.38 68.53 301.19 84.69 319.41 171.15"/><polygon class="cls-55" points="340.51 112.07 332.62 75.73 373.53 94.39 381.72 130.8 340.51 112.07"/><path class="cls-56" d="M332.62,75.73c.61.46,90.61,41.14,90.61,41.14l-5.15-26.38L351.53,60.35Z"/><polygon class="cls-57" points="384.18 107.38 424.77 125.64 432.6 161.32 392.27 143.09 384.18 107.38"/><polygon class="cls-58" points="432.47 161.27 342.61 120.64 348.08 146.53 414.74 176.81 432.47 161.27"/><path class="cls-59" d="M373.51,94.4l.73,3.23c23.09,10.46,46.65,21.11,46.65,21.11l2.25-2C415.16,113.17,373.51,94.4,373.51,94.4Z"/><polygon class="cls-60" points="392.29 143.09 384.18 107.39 381.85 109.28 389.21 141.76 392.29 143.09"/><polygon class="cls-61" points="348.42 146.61 342.73 120.67 340.63 122.58 346.1 148.47 412.57 178.73 414.76 176.81 348.42 146.61"/><polygon class="cls-21" points="418.61 189.74 339.59 153.79 339.19 151.11 417.59 186.93 441.27 169.48 441.92 171.11 418.61 189.74"/><polygon class="cls-62" points="332.62 75.73 330.11 77.74 337.99 114.09 340.5 111.96 332.62 75.73"/><polygon class="cls-63" points="381.52 130.72 340.5 111.96 337.99 114.09 379.2 132.81 381.52 130.72"/><polygon class="cls-24" points="414.76 176.81 348.42 146.61 342.73 120.67 349.73 145.93 415.35 176.09 414.76 176.81"/><polygon class="cls-24" points="423.14 116.78 418.25 90.52 381.14 73.83 416.84 91.72 423.14 116.78"/><polygon class="cls-24" points="374.23 99.23 381.52 130.72 340.5 111.96 379.19 127.66 374.23 99.23"/><polygon class="cls-27" points="425.76 111.13 371.68 243.5 234.63 277.19 202.5 243.36 256.33 109.95 393.59 74.01 425.76 111.13"/><polygon class="cls-28" points="235.89 270.04 237.19 271.58 367.84 238.29 418.36 114.68 415.33 111.19 286.67 144.19 235.89 270.04"/><path class="cls-64" d="M371.68,243.5l54.08-132.37,28.87,33.31L401.53,275.6S371.48,243.27,371.68,243.5Z"/><polygon class="cls-65" points="401.53 275.6 371.68 243.5 235.85 272.28 277.6 288.24 401.53 275.6"/><polygon class="cls-66" points="302.96 244.67 243.66 259.99 271.74 191.48 331.13 175.66 302.96 244.67"/><path class="cls-67" d="M243.66,260c.73-1,61.88-151.74,61.88-151.74l-43.08,10.17L217.15,229.86Z"/><polygon class="cls-68" points="292.44 173.12 319.88 105.14 378.08 89.97 350.67 157.51 292.44 173.12"/><polygon class="cls-69" points="378.01 90.18 316.93 240.68 359.18 230.01 404.72 118.37 378.01 90.18"/><path class="cls-70" d="M271.76,191.5l5.27-1.4C292.76,151.43,308.77,112,308.77,112l-3.37-3.59C300,121.76,271.76,191.5,271.76,191.5Z"/><polygon class="cls-71" points="350.68 157.48 292.46 173.12 295.72 176.83 348.68 162.64 350.68 157.48"/><polygon class="cls-72" points="359.29 229.44 316.97 240.46 320.25 243.81 362.5 233.14 408.02 121.81 404.72 118.33 359.29 229.44"/><polygon class="cls-38" points="425.74 111.17 371.68 243.5 367.29 244.34 421.19 113.03 390.96 75.18 393.59 74.01 425.74 111.17"/><polygon class="cls-73" points="243.68 260 247.14 264 306.44 248.69 302.78 244.69 243.68 260"/><polygon class="cls-74" points="331.02 175.98 302.78 244.69 306.44 248.69 334.61 179.68 331.02 175.98"/><polygon class="cls-24" points="404.72 118.33 359.29 229.44 316.97 240.46 358.08 227.33 403.5 117.42 404.72 118.33"/><polygon class="cls-24" points="292.6 177.08 255.9 130.69 221.48 146.03 250.94 116.85 231.95 70.86 262.12 109.25 301.99 98.73 271.04 122.7 292.6 177.08"/><polygon class="cls-24" points="305.4 108.39 262.5 118.13 237.43 180.27 264.57 120.38 305.4 108.39"/><polygon class="cls-24" points="279.66 190.02 331.02 175.98 302.78 244.69 326.13 180.01 279.66 190.02"/><polygon class="cls-24" points="529.7 307.05 539.02 264.04 513.94 251.51 544.63 254.65 562.08 222.01 554.28 257.48 579.16 275.43 550.76 268.96 529.7 307.05"/><polygon class="cls-24" points="348.47 64.98 359.97 57.39 355.22 38.59 367.42 56.09 392.4 50.51 370.29 62.42 372.11 83.56 362.69 65.76 348.47 64.98"/><polygon class="cls-24" points="502.29 143.19 511.05 137.41 507.43 123.1 516.72 136.42 535.73 132.18 518.9 141.24 520.29 157.33 513.11 143.78 502.29 143.19"/><path class="cls-6" d="M167.59,211.45s0,10.75,25.8,12.9,58,15,94.58,34.39,36.55,34.39,77.39,38.69,67.75,37.09,96.12,30c71.53-17.93,71-.13,83.13,0,9.84.11-35.83,19.47-97,12.19-13.86-1.65-36.71,3.14-50.61-2.81-75.24-32.25-118.51-38.06-165.81-59.56S161.14,237.24,167.59,211.45Z"/><path class="cls-75" d="M286.49,292.37s39-2,47-2,16,5,16,5-30.62,4.19-24.31,10.6S286.49,292.37,286.49,292.37Z"/><path class="cls-25" d="M243.22,188.57s-27.17,48-20.83,52.54,25.7,22.36,41.1,23.26,113-18,113-18-40-23.38-49-24.29S288.51,213,288.51,213l-21.74-25.36Z"/><path class="cls-76" d="M312.49,352.71s-26.67-7.34-68.67-22-44-18.67-44-23.34,7.33,1.34,58,19.34,61.33,15.33,61.33,22.66C319.15,356,312.49,352.71,312.49,352.71Z"/><path class="cls-76" d="M483.15,377.37s-20,7.34-54.66,3.34c-31.85-3.68-49.36-8-49.34-12s10,1.33,40.67,2.66,45.33,4.67,54.67,2S483.15,377.37,483.15,377.37Z"/><path class="cls-76" d="M617.15,350.71s-31.43,14.78-36.71,15.39-22,1.94-18,7.27,5.33,13.34-.67,15.34-5.75,6.05-5.75,6.05S572.49,452,579.82,480s23.33,72,20.67,97.33,5.33,65.34,6.66,71.34-16,6-16-14.67,9.34-36.67,3.34-66-2.67-22-18-80-24.67-94.67-24.67-94.67-2-10.66-8-10.66-12.67,5.33-6,9.33,10,6.67,10,12,2.67,186,2.67,186,22.66,18.67,12,51.33c-4.67,1.34-4.67,4-4.67,1.34s2.67-27.34-2.67-36-12-18-12-18,4.67-175.34-1.33-182.67-10-10.67-10-16.67-6.67-14,2-13.33,29.33,2.67,22-1.33-26-4.67-17.33-4.67S599.82,355.37,617.15,350.71Z"/><g class="cls-77"><path class="cls-24" d="M284.07,444.75s-9.39,3.67-7,14.7c2.16,9.75,7.91,13.8,17.76,9.39s10-6.71,6.52-14.67S294.46,440.37,284.07,444.75Zm12.15,6.59a1,1,0,0,1-.53.11,1.62,1.62,0,0,1-1.24-.77,6.56,6.56,0,0,0-.95-1.23,1.43,1.43,0,0,1-.32-1.87,1.19,1.19,0,0,1,1.74,0,9.26,9.26,0,0,1,1.42,1.89A1.39,1.39,0,0,1,296.22,451.34Zm4.42,9.48a.9.9,0,0,1-.88,1.09h-.22a1.74,1.74,0,0,1-1.21-1.63,6.75,6.75,0,0,0-.92-3.73c-.33-.74-.24-1.48.37-1.71a1.25,1.25,0,0,1,1.62.77A9.26,9.26,0,0,1,300.64,460.82Z"/><path class="cls-24" d="M288.26,405.46c-28-.23-54,14-66.62,39.12-10.54,21-13.39,46.18-13.7,69.24-.24,17.75,5.94,25.91,17.93,38.15,15.28,15.59,33,37.38,56.68,37.63,25.05.26,50.05,4,69.92-15.1,17.53-16.86,40.06-61.88,22.18-84-13.79-17.07-12.3-41.44-25.89-59C334.87,413.55,310.08,405.65,288.26,405.46Zm21.45,43c.36-.37,1-.12,1.38.37a1.18,1.18,0,0,1-.11,1.62c-.36.37-1,.12-1.37-.38A1.3,1.3,0,0,1,309.71,448.41Zm-56.32,12.68c0-.41.3-.62.68-.69a.58.58,0,0,1,.61.73.59.59,0,0,1-.67.69C253.63,461.9,253.32,461.53,253.39,461.09Zm-5.8,27.66a1.15,1.15,0,0,1,1.67-.05,1.3,1.3,0,0,1-.26,1.82,1.13,1.13,0,0,1-1.66.06C246.92,490.16,247.11,489.29,247.59,488.75Zm11.84,35.89a.57.57,0,0,1-.87-.49c0-.42.4-.83.91-1a.57.57,0,0,1,.87.49A1.24,1.24,0,0,1,259.43,524.64Zm48.15,18.18a1.35,1.35,0,0,1-1.47.81c-.48-.15-.73-.71-.44-1.41s1-1.09,1.46-.81S307.86,542.13,307.58,542.82Zm33.71,1.38c-1.86,3.83-5.7,7.14-11.67,8.12a14.46,14.46,0,0,1-4.54.27c-10.37-1.32-5.84-12.6-5.64-19s-1-18.21-11.51-16c-.73,11.57-5.14,25.93-15.26,32.24-8.66,5.4-32.12,11.85-33.66-2.68-1.26-11.84,15.81-12.5,17-12.58s12.82-4.41,9.6-14.38a73.89,73.89,0,0,0-8.39-17.41,93.91,93.91,0,0,0-15.33,10.15c-10,8.89-16.57,12.08-20.45,11.49-2.5-.55-3.61-2-3.86-3-1.14-4.61,1.19-9.23,6.31-14.7,3.67-3.92,7.4-6.63,11.7-10.24,6.93-5.81,14.59-9.22,16.44-11.67-5.25-12.17-13.57-31-1.05-41.34,9.88-8.16,26.53-8.62,31.93,5.65,6.05,16,6.25,19.06,8.12,19s5.38-1.05,6.79-8.94c1.22-6.84,1.65-13.75,4.48-16.32a6,6,0,0,1,7.09-1.22c4.74,2.23,5.11,7.23,4.92,11.53,0,5.77-2.23,12.48-3.25,15.93-1.48,4.93-6.75,14.56-9.94,19.48a4.25,4.25,0,0,0,1.33,5.57c4.92,3.25,12.74,10.12,15,17a99.09,99.09,0,0,1,5,27.27A12.06,12.06,0,0,1,341.29,544.2Zm-4.13-66-1.8,1.4c0,1.22.05,1.82.1,3-.63-1-.94-1.54-1.55-2.58l-2.47-.54,1.82-1.41c0-1.22,0-1.83,0-3.06.57,1.05.86,1.57,1.44,2.62Zm-6,15.34a.92.92,0,0,1-1.08,1,1.41,1.41,0,0,1-1.11-1.38c0-.7.43-1.08,1-1A1.51,1.51,0,0,1,331.17,493.57Z"/></g><path class="cls-78" d="M289.38,388.25c-33.76-.17-65.74,16.61-81,47-12.52,25-16.53,55.37-16.66,83.25-.1,21.68,7,30.94,21.69,45.76,18.06,18.24,41,45.64,69,45.35,30.52-.31,60.69,5,84.95-18.29,21.19-20.34,49.16-74.78,27-100.86-16.93-19.92-15.15-49.89-31.58-70.87C345.83,397.92,316.15,388.39,289.38,388.25Z"/></g></g></svg>