<svg id="Layer_1" data-name="Layer 1" xmlns="http://www.w3.org/2000/svg" xmlns:xlink="http://www.w3.org/1999/xlink" viewBox="0 0 800 800"><defs><style>.cls-1,.cls-144,.cls-160,.cls-178,.cls-50{fill:none;}.cls-2{fill:#1c1c1c;opacity:0.2;}.cls-3{fill:#c482ff;}.cls-4{fill:#9c91f2;}.cls-5{fill:#ab84ff;}.cls-6{fill:#fff;}.cls-7{fill:#f780ff;}.cls-8{fill:#b0aeef;}.cls-9{fill:#492a6f;}.cls-10{fill:#472604;}.cls-11{fill:#361d00;}.cls-12{fill:#7b64e6;}.cls-13{fill:#5c5c7e;}.cls-14{fill:#5c5b8f;}.cls-15{fill:#8d89cb;}.cls-16{fill:#07374a;}.cls-17{fill:#1bb8ff;}.cls-17,.cls-53{opacity:0.3;}.cls-18{fill:url(#linear-gradient);}.cls-19{fill:url(#linear-gradient-2);}.cls-20{fill:url(#linear-gradient-3);}.cls-21{fill:url(#linear-gradient-4);}.cls-22{fill:url(#linear-gradient-5);}.cls-23{fill:url(#linear-gradient-6);}.cls-24{fill:url(#linear-gradient-7);}.cls-25{fill:url(#linear-gradient-8);}.cls-26{fill:url(#linear-gradient-9);}.cls-27{fill:#b5ffff;}.cls-27,.cls-63{opacity:0.6;}.cls-28{fill:url(#linear-gradient-10);}.cls-29{fill:url(#linear-gradient-11);}.cls-30{fill:url(#linear-gradient-12);}.cls-31{fill:url(#linear-gradient-13);}.cls-32{fill:url(#linear-gradient-14);}.cls-33{fill:url(#linear-gradient-15);}.cls-34{fill:url(#linear-gradient-16);}.cls-35{fill:url(#linear-gradient-17);}.cls-36{fill:url(#linear-gradient-18);}.cls-37{fill:url(#linear-gradient-19);}.cls-38{fill:url(#linear-gradient-20);}.cls-39{fill:url(#linear-gradient-21);}.cls-40{fill:url(#linear-gradient-22);}.cls-41{fill:#aeaefb;}.cls-42{fill:#903900;}.cls-43{fill:#9b8fe5;}.cls-44{fill:#dc7aeb;}.cls-45{fill:#421e02;}.cls-46{fill:#341b01;}.cls-47{fill:#ffeabf;}.cls-48{fill:#413812;}.cls-49{fill:#541d00;}.cls-50{stroke:#421e02;stroke-width:7.19px;}.cls-144,.cls-160,.cls-178,.cls-50{stroke-miterlimit:10;}.cls-51{clip-path:url(#clip-path);}.cls-52{fill:#003e57;}.cls-53{fill:#00b0ff;}.cls-54{fill:url(#linear-gradient-23);}.cls-55{fill:url(#linear-gradient-24);}.cls-56{fill:url(#linear-gradient-25);}.cls-57{fill:url(#linear-gradient-26);}.cls-58{fill:url(#linear-gradient-27);}.cls-59{fill:url(#linear-gradient-28);}.cls-60{fill:url(#linear-gradient-29);}.cls-61{fill:url(#linear-gradient-30);}.cls-62{fill:url(#linear-gradient-31);}.cls-63{fill:#98ffff;}.cls-64{fill:url(#linear-gradient-32);}.cls-65{fill:url(#linear-gradient-33);}.cls-66{fill:url(#linear-gradient-34);}.cls-67{fill:url(#linear-gradient-35);}.cls-68{fill:url(#linear-gradient-36);}.cls-69{fill:url(#linear-gradient-37);}.cls-70{fill:url(#linear-gradient-38);}.cls-71{fill:url(#linear-gradient-39);}.cls-72{fill:url(#linear-gradient-40);}.cls-73{fill:url(#linear-gradient-41);}.cls-74{fill:url(#linear-gradient-42);}.cls-75{fill:url(#linear-gradient-43);}.cls-76{fill:url(#linear-gradient-44);}.cls-77{fill:url(#linear-gradient-45);}.cls-78{fill:url(#linear-gradient-46);}.cls-79{fill:url(#linear-gradient-47);}.cls-80{fill:url(#linear-gradient-48);}.cls-81{fill:url(#linear-gradient-49);}.cls-82{fill:url(#linear-gradient-50);}.cls-83{fill:url(#linear-gradient-51);}.cls-84{fill:url(#linear-gradient-52);}.cls-85{fill:url(#linear-gradient-53);}.cls-86{fill:url(#linear-gradient-54);}.cls-87{fill:url(#linear-gradient-55);}.cls-88{fill:url(#linear-gradient-56);}.cls-89{fill:url(#linear-gradient-57);}.cls-90{fill:url(#linear-gradient-58);}.cls-91{fill:url(#linear-gradient-59);}.cls-92{fill:url(#linear-gradient-60);}.cls-93{fill:url(#linear-gradient-61);}.cls-94{fill:url(#linear-gradient-62);}.cls-95{fill:url(#linear-gradient-63);}.cls-96{fill:url(#linear-gradient-64);}.cls-97{fill:url(#linear-gradient-65);}.cls-98{fill:url(#linear-gradient-66);}.cls-99{fill:url(#linear-gradient-67);}.cls-100{fill:url(#linear-gradient-68);}.cls-101{fill:url(#linear-gradient-69);}.cls-102{fill:url(#linear-gradient-70);}.cls-103{fill:url(#linear-gradient-71);}.cls-104{fill:url(#linear-gradient-72);}.cls-105{fill:url(#linear-gradient-73);}.cls-106{fill:url(#linear-gradient-74);}.cls-107{fill:url(#linear-gradient-75);}.cls-108{fill:url(#linear-gradient-76);}.cls-109{fill:url(#linear-gradient-77);}.cls-110{fill:url(#linear-gradient-78);}.cls-111{fill:url(#linear-gradient-79);}.cls-112{fill:url(#linear-gradient-80);}.cls-113{fill:url(#linear-gradient-81);}.cls-114{fill:url(#linear-gradient-82);}.cls-115{fill:url(#linear-gradient-83);}.cls-116{fill:url(#linear-gradient-84);}.cls-117{fill:url(#linear-gradient-85);}.cls-118{fill:url(#linear-gradient-86);}.cls-119{fill:url(#linear-gradient-87);}.cls-120{fill:url(#linear-gradient-88);}.cls-121{fill:url(#linear-gradient-89);}.cls-122{fill:url(#linear-gradient-90);}.cls-123{fill:url(#linear-gradient-91);}.cls-124{fill:url(#linear-gradient-92);}.cls-125{fill:url(#linear-gradient-93);}.cls-126{fill:url(#linear-gradient-94);}.cls-127{fill:url(#linear-gradient-95);}.cls-128{fill:url(#linear-gradient-96);}.cls-129{fill:url(#linear-gradient-97);}.cls-130{fill:url(#linear-gradient-98);}.cls-131{fill:url(#linear-gradient-99);}.cls-132{fill:url(#linear-gradient-100);}.cls-133{fill:url(#linear-gradient-101);}.cls-134{fill:url(#linear-gradient-102);}.cls-135{fill:url(#linear-gradient-103);}.cls-136{fill:url(#linear-gradient-104);}.cls-137{fill:url(#linear-gradient-105);}.cls-138{fill:url(#linear-gradient-106);}.cls-139{fill:url(#linear-gradient-107);}.cls-140{fill:url(#linear-gradient-108);}.cls-141{fill:url(#linear-gradient-109);}.cls-142{fill:url(#linear-gradient-110);}.cls-143{fill:#d6960b;}.cls-144,.cls-160,.cls-178{stroke:#000;}.cls-144{stroke-width:0.17px;}.cls-145{fill:#d6ac00;}.cls-146{fill:#a64001;}.cls-147{fill:#f2c644;}.cls-148{fill:#fec82e;}.cls-149{fill:#fde56c;}.cls-150{fill:#a65801;}.cls-151{fill:#be7e4c;}.cls-152{fill:#ac7e4c;}.cls-153{fill:#ebc656;}.cls-154{fill:#e5b420;}.cls-155{fill:#e7ba33;}.cls-156{fill:#ffeba2;}.cls-157{fill:#be6312;}.cls-158{fill:#862e00;}.cls-159{fill:#d4a2b0;}.cls-160{stroke-width:0.15px;}.cls-161{fill:#d4a2a0;}.cls-162{fill:#a681aa;}.cls-163{fill:#ecc2c3;}.cls-164{fill:#f6c4c8;}.cls-165{fill:#f6d6d2;}.cls-166{fill:#aa81a0;}.cls-167{fill:#bfa3bf;}.cls-168{fill:#b097aa;}.cls-169{fill:#e6c1c4;}.cls-170{fill:#e1b1b4;}.cls-171{fill:#e3b6b9;}.cls-172{fill:#f7e2e1;}.cls-173{fill:#bf94b9;}.cls-174{fill:#896b8f;}.cls-175{fill:url(#linear-gradient-111);}.cls-176{fill:url(#linear-gradient-112);}.cls-177{fill:#cdbc98;}.cls-178{stroke-width:0.18px;}.cls-179{fill:#cdc296;}.cls-180{fill:#9d8373;}.cls-181{fill:#e9debc;}.cls-182{fill:#f5e7bf;}.cls-183{fill:#f4eece;}.cls-184{fill:#9d8973;}.cls-185{fill:#b5a498;}.cls-186{fill:#a3978a;}.cls-187{fill:#e2d8bb;}.cls-188{fill:#dccfa9;}.cls-189{fill:#ded2af;}.cls-190{fill:#f6f1de;}.cls-191{fill:#b59e89;}.cls-192{fill:#7d675b;}</style><linearGradient id="linear-gradient" x1="459.16" y1="829.27" x2="454.76" y2="789.62" gradientUnits="userSpaceOnUse"><stop offset="0.05" stop-color="#9fc762"/><stop offset="0.59" stop-color="#008ebb"/></linearGradient><linearGradient id="linear-gradient-2" x1="392" y1="818.53" x2="386.79" y2="735.62" gradientUnits="userSpaceOnUse"><stop offset="0" stop-color="#92acb3"/><stop offset="0.63" stop-color="#003145"/></linearGradient><linearGradient id="linear-gradient-3" x1="367" y1="730.24" x2="424.68" y2="725.43" gradientUnits="userSpaceOnUse"><stop offset="0.25" stop-color="#e700ff"/><stop offset="0.79" stop-color="#fa7a36"/><stop offset="1" stop-color="#ffd100"/></linearGradient><linearGradient id="linear-gradient-4" x1="446.12" y1="731.56" x2="371.32" y2="695.51" gradientUnits="userSpaceOnUse"><stop offset="0.53" stop-color="#fabd09"/><stop offset="0.83" stop-color="#fa6b00"/></linearGradient><linearGradient id="linear-gradient-5" x1="383" y1="706.76" x2="479.13" y2="713.67" gradientUnits="userSpaceOnUse"><stop offset="0.2" stop-color="#baff8e"/><stop offset="0.75" stop-color="#008ebb"/><stop offset="0.87" stop-color="#008ebb"/></linearGradient><linearGradient id="linear-gradient-6" x1="461.7" y1="678.83" x2="416.94" y2="781.27" gradientUnits="userSpaceOnUse"><stop offset="0" stop-color="#fff"/><stop offset="0.21" stop-color="#baff8e"/><stop offset="0.63" stop-color="#008ebb"/></linearGradient><linearGradient id="linear-gradient-7" x1="427.17" y1="711.82" x2="417.96" y2="701.81" gradientUnits="userSpaceOnUse"><stop offset="0.42" stop-color="#fabd09"/><stop offset="0.83" stop-color="#fa6b00"/></linearGradient><linearGradient id="linear-gradient-8" x1="412.97" y1="719.84" x2="439.57" y2="719.84" gradientUnits="userSpaceOnUse"><stop offset="0" stop-color="#baff8e"/><stop offset="0.63" stop-color="#008ebb"/><stop offset="0.7" stop-color="#008ebb"/></linearGradient><linearGradient id="linear-gradient-9" x1="448.63" y1="742.53" x2="383.94" y2="753.54" gradientUnits="userSpaceOnUse"><stop offset="0" stop-color="#baff8e"/><stop offset="0.63" stop-color="#008ebb"/></linearGradient><linearGradient id="linear-gradient-10" x1="367.99" y1="725.02" x2="396.83" y2="753.36" gradientUnits="userSpaceOnUse"><stop offset="0.25" stop-color="#a900ff"/><stop offset="0.64" stop-color="#f037a5"/><stop offset="0.76" stop-color="#f45672"/><stop offset="0.89" stop-color="#fa7a36"/><stop offset="1" stop-color="#ff9b00"/></linearGradient><linearGradient id="linear-gradient-11" x1="392.06" y1="724.88" x2="404.07" y2="732.09" gradientUnits="userSpaceOnUse"><stop offset="0.25" stop-color="#e700ff"/><stop offset="0.32" stop-color="#e804f9"/><stop offset="0.41" stop-color="#e90ee8"/><stop offset="0.52" stop-color="#ec1fcc"/><stop offset="0.64" stop-color="#f037a5"/><stop offset="0.76" stop-color="#f45672"/><stop offset="0.89" stop-color="#fa7a36"/><stop offset="1" stop-color="#ff9b00"/></linearGradient><linearGradient id="linear-gradient-12" x1="294.68" y1="799" x2="290.88" y2="764.85" xlink:href="#linear-gradient"/><linearGradient id="linear-gradient-13" x1="236.83" y1="789.76" x2="232.35" y2="718.34" xlink:href="#linear-gradient-2"/><linearGradient id="linear-gradient-14" x1="215.3" y1="713.71" x2="264.98" y2="709.57" xlink:href="#linear-gradient-3"/><linearGradient id="linear-gradient-15" x1="283.44" y1="714.84" x2="219.02" y2="683.79" xlink:href="#linear-gradient-4"/><linearGradient id="linear-gradient-16" x1="229.08" y1="693.48" x2="311.88" y2="699.44" xlink:href="#linear-gradient-5"/><linearGradient id="linear-gradient-17" x1="296.86" y1="669.43" x2="258.31" y2="757.66" xlink:href="#linear-gradient-6"/><linearGradient id="linear-gradient-18" x1="267.12" y1="697.85" x2="259.18" y2="689.22" xlink:href="#linear-gradient-7"/><linearGradient id="linear-gradient-19" x1="254.89" y1="704.75" x2="277.8" y2="704.75" xlink:href="#linear-gradient-8"/><linearGradient id="linear-gradient-20" x1="285.6" y1="724.29" x2="229.89" y2="733.78" xlink:href="#linear-gradient-9"/><linearGradient id="linear-gradient-21" x1="216.15" y1="709.21" x2="240.99" y2="733.62" xlink:href="#linear-gradient-10"/><linearGradient id="linear-gradient-22" x1="236.88" y1="709.09" x2="247.23" y2="715.3" xlink:href="#linear-gradient-11"/><clipPath id="clip-path"><polygon class="cls-1" points="555.14 413.21 406.2 492.83 55.88 410.4 126.33 313.09 226.97 267.91 569.95 286.39 555.14 413.21"/></clipPath><linearGradient id="linear-gradient-23" x1="52.61" y1="699.05" x2="46.69" y2="645.85" gradientTransform="matrix(0.79, -0.23, 0.2, 0.68, 121.92, -9.71)" gradientUnits="userSpaceOnUse"><stop offset="0.05" stop-color="#98d43f"/><stop offset="0.59" stop-color="#0098c8"/></linearGradient><linearGradient id="linear-gradient-24" x1="-37.5" y1="684.64" x2="-44.49" y2="573.4" gradientTransform="matrix(0.79, -0.23, 0.2, 0.68, 121.92, -9.71)" gradientUnits="userSpaceOnUse"><stop offset="0" stop-color="#8eb5c0"/><stop offset="0.63" stop-color="#003a52"/></linearGradient><linearGradient id="linear-gradient-25" x1="-71.04" y1="566.18" x2="6.34" y2="559.73" gradientTransform="matrix(0.79, -0.23, 0.2, 0.68, 121.92, -9.71)" gradientUnits="userSpaceOnUse"><stop offset="0.25" stop-color="#e700ff"/><stop offset="0.79" stop-color="#fe5800"/><stop offset="1" stop-color="#ffd100"/></linearGradient><linearGradient id="linear-gradient-26" x1="35.11" y1="567.95" x2="-65.25" y2="519.58" gradientTransform="matrix(0.79, -0.23, 0.2, 0.68, 121.92, -9.71)" gradientUnits="userSpaceOnUse"><stop offset="0.53" stop-color="#ffbf00"/><stop offset="0.83" stop-color="#ff6d00"/></linearGradient><linearGradient id="linear-gradient-27" x1="-49.57" y1="534.67" x2="79.4" y2="543.94" gradientTransform="matrix(0.79, -0.23, 0.2, 0.68, 121.92, -9.71)" gradientUnits="userSpaceOnUse"><stop offset="0.2" stop-color="#9fff62"/><stop offset="0.75" stop-color="#0098c8"/><stop offset="0.87" stop-color="#0098c8"/></linearGradient><linearGradient id="linear-gradient-28" x1="56.01" y1="497.2" x2="-4.04" y2="634.64" gradientTransform="matrix(0.79, -0.23, 0.2, 0.68, 121.92, -9.71)" gradientUnits="userSpaceOnUse"><stop offset="0" stop-color="#fff"/><stop offset="0.21" stop-color="#9fff62"/><stop offset="0.63" stop-color="#0098c8"/></linearGradient><linearGradient id="linear-gradient-29" x1="9.68" y1="541.47" x2="-2.68" y2="528.04" gradientTransform="matrix(0.79, -0.23, 0.2, 0.68, 121.92, -9.71)" gradientUnits="userSpaceOnUse"><stop offset="0.42" stop-color="#ffbf00"/><stop offset="0.83" stop-color="#ff6d00"/></linearGradient><linearGradient id="linear-gradient-30" x1="-9.36" y1="552.22" x2="26.31" y2="552.22" gradientTransform="matrix(0.79, -0.23, 0.2, 0.68, 121.92, -9.71)" gradientUnits="userSpaceOnUse"><stop offset="0" stop-color="#9fff62"/><stop offset="0.63" stop-color="#0098c8"/><stop offset="0.7" stop-color="#0098c8"/></linearGradient><linearGradient id="linear-gradient-31" x1="38.47" y1="582.66" x2="-48.32" y2="597.44" gradientTransform="matrix(0.79, -0.23, 0.2, 0.68, 121.92, -9.71)" gradientUnits="userSpaceOnUse"><stop offset="0" stop-color="#9fff62"/><stop offset="0.63" stop-color="#0098c8"/></linearGradient><linearGradient id="linear-gradient-32" x1="-69.72" y1="559.18" x2="-31.02" y2="597.2" gradientTransform="matrix(0.79, -0.23, 0.2, 0.68, 121.92, -9.71)" gradientUnits="userSpaceOnUse"><stop offset="0.25" stop-color="#a900ff"/><stop offset="0.64" stop-color="#fd0096"/><stop offset="0.76" stop-color="#fe1942"/><stop offset="0.89" stop-color="#fe5800"/><stop offset="1" stop-color="#ff9b00"/></linearGradient><linearGradient id="linear-gradient-33" x1="-37.43" y1="558.99" x2="-21.31" y2="568.66" gradientTransform="matrix(0.79, -0.23, 0.2, 0.68, 121.92, -9.71)" gradientUnits="userSpaceOnUse"><stop offset="0.25" stop-color="#e700ff"/><stop offset="0.32" stop-color="#ed00ff"/><stop offset="0.41" stop-color="#f600f4"/><stop offset="0.52" stop-color="#f900d2"/><stop offset="0.64" stop-color="#fd0096"/><stop offset="0.76" stop-color="#fe1942"/><stop offset="0.89" stop-color="#fe5800"/><stop offset="1" stop-color="#ff9b00"/></linearGradient><linearGradient id="linear-gradient-34" x1="209.78" y1="870.3" x2="203.87" y2="817.1" gradientTransform="matrix(0.95, -0.32, 0.25, 0.76, 62.15, -45.15)" xlink:href="#linear-gradient-23"/><linearGradient id="linear-gradient-35" x1="119.68" y1="855.9" x2="112.69" y2="744.65" gradientTransform="matrix(0.95, -0.32, 0.25, 0.76, 62.15, -45.15)" xlink:href="#linear-gradient-24"/><linearGradient id="linear-gradient-36" x1="86.14" y1="737.43" x2="163.52" y2="730.98" gradientTransform="matrix(0.95, -0.32, 0.25, 0.76, 62.15, -45.15)" xlink:href="#linear-gradient-25"/><linearGradient id="linear-gradient-37" x1="192.29" y1="739.2" x2="91.93" y2="690.83" gradientTransform="matrix(0.95, -0.32, 0.25, 0.76, 62.15, -45.15)" xlink:href="#linear-gradient-26"/><linearGradient id="linear-gradient-38" x1="107.6" y1="705.93" x2="236.58" y2="715.2" gradientTransform="matrix(0.95, -0.32, 0.25, 0.76, 62.15, -45.15)" xlink:href="#linear-gradient-27"/><linearGradient id="linear-gradient-39" x1="213.19" y1="668.45" x2="153.13" y2="805.89" gradientTransform="matrix(0.95, -0.32, 0.25, 0.76, 62.15, -45.15)" xlink:href="#linear-gradient-28"/><linearGradient id="linear-gradient-40" x1="166.86" y1="712.72" x2="154.5" y2="699.29" gradientTransform="matrix(0.95, -0.32, 0.25, 0.76, 62.15, -45.15)" xlink:href="#linear-gradient-29"/><linearGradient id="linear-gradient-41" x1="147.81" y1="723.47" x2="183.49" y2="723.47" gradientTransform="matrix(0.95, -0.32, 0.25, 0.76, 62.15, -45.15)" xlink:href="#linear-gradient-30"/><linearGradient id="linear-gradient-42" x1="195.65" y1="753.92" x2="108.86" y2="768.7" gradientTransform="matrix(0.95, -0.32, 0.25, 0.76, 62.15, -45.15)" xlink:href="#linear-gradient-31"/><linearGradient id="linear-gradient-43" x1="87.46" y1="730.43" x2="126.15" y2="768.45" gradientTransform="matrix(0.95, -0.32, 0.25, 0.76, 62.15, -45.15)" xlink:href="#linear-gradient-32"/><linearGradient id="linear-gradient-44" x1="119.75" y1="730.24" x2="135.87" y2="739.91" gradientTransform="matrix(0.95, -0.32, 0.25, 0.76, 62.15, -45.15)" xlink:href="#linear-gradient-33"/><linearGradient id="linear-gradient-45" x1="111.45" y1="793.83" x2="106.36" y2="748.06" gradientTransform="matrix(0.44, 0.9, -0.72, 0.35, 750.25, 136.14)" xlink:href="#linear-gradient-23"/><linearGradient id="linear-gradient-46" x1="33.92" y1="781.44" x2="27.91" y2="685.73" gradientTransform="matrix(0.44, 0.9, -0.72, 0.35, 750.25, 136.14)" xlink:href="#linear-gradient-24"/><linearGradient id="linear-gradient-47" x1="5.06" y1="679.51" x2="71.65" y2="673.97" gradientTransform="matrix(0.44, 0.9, -0.72, 0.35, 750.25, 136.14)" xlink:href="#linear-gradient-25"/><linearGradient id="linear-gradient-48" x1="96.39" y1="681.04" x2="10.05" y2="639.42" gradientTransform="matrix(0.44, 0.9, -0.72, 0.35, 750.25, 136.14)" xlink:href="#linear-gradient-26"/><linearGradient id="linear-gradient-49" x1="23.53" y1="652.41" x2="134.5" y2="660.39" gradientTransform="matrix(0.44, 0.9, -0.72, 0.35, 750.25, 136.14)" xlink:href="#linear-gradient-27"/><linearGradient id="linear-gradient-50" x1="114.38" y1="620.17" x2="62.71" y2="738.42" gradientTransform="matrix(0.44, 0.9, -0.72, 0.35, 750.25, 136.14)" xlink:href="#linear-gradient-28"/><linearGradient id="linear-gradient-51" x1="74.52" y1="658.26" x2="63.88" y2="646.7" gradientTransform="matrix(0.44, 0.9, -0.72, 0.35, 750.25, 136.14)" xlink:href="#linear-gradient-29"/><linearGradient id="linear-gradient-52" x1="58.13" y1="667.51" x2="88.83" y2="667.51" gradientTransform="matrix(0.44, 0.9, -0.72, 0.35, 750.25, 136.14)" xlink:href="#linear-gradient-30"/><linearGradient id="linear-gradient-53" x1="99.29" y1="693.7" x2="24.61" y2="706.41" gradientTransform="matrix(0.44, 0.9, -0.72, 0.35, 750.25, 136.14)" xlink:href="#linear-gradient-31"/><linearGradient id="linear-gradient-54" x1="6.2" y1="673.49" x2="39.5" y2="706.2" gradientTransform="matrix(0.44, 0.9, -0.72, 0.35, 750.25, 136.14)" xlink:href="#linear-gradient-32"/><linearGradient id="linear-gradient-55" x1="33.98" y1="673.33" x2="47.86" y2="681.65" gradientTransform="matrix(0.44, 0.9, -0.72, 0.35, 750.25, 136.14)" xlink:href="#linear-gradient-33"/><linearGradient id="linear-gradient-56" x1="195.96" y1="650.23" x2="190.5" y2="601.04" gradientTransform="matrix(0.85, 0.53, -0.43, 0.68, 493, -29.82)" xlink:href="#linear-gradient-23"/><linearGradient id="linear-gradient-57" x1="112.66" y1="636.91" x2="106.2" y2="534.07" gradientTransform="matrix(0.85, 0.53, -0.43, 0.68, 493, -29.82)" xlink:href="#linear-gradient-24"/><linearGradient id="linear-gradient-58" x1="81.65" y1="527.39" x2="153.19" y2="521.43" gradientTransform="matrix(0.85, 0.53, -0.43, 0.68, 493, -29.82)" xlink:href="#linear-gradient-25"/><linearGradient id="linear-gradient-59" x1="179.79" y1="529.02" x2="87" y2="484.31" gradientTransform="matrix(0.85, 0.53, -0.43, 0.68, 493, -29.82)" xlink:href="#linear-gradient-26"/><linearGradient id="linear-gradient-60" x1="101.5" y1="498.26" x2="220.74" y2="506.83" gradientTransform="matrix(0.85, 0.53, -0.43, 0.68, 493, -29.82)" xlink:href="#linear-gradient-27"/><linearGradient id="linear-gradient-61" x1="199.11" y1="463.62" x2="143.59" y2="590.68" gradientTransform="matrix(0.85, 0.53, -0.43, 0.68, 493, -29.82)" xlink:href="#linear-gradient-28"/><linearGradient id="linear-gradient-62" x1="156.28" y1="504.55" x2="144.85" y2="492.13" gradientTransform="matrix(0.85, 0.53, -0.43, 0.68, 493, -29.82)" xlink:href="#linear-gradient-29"/><linearGradient id="linear-gradient-63" x1="138.67" y1="514.48" x2="171.65" y2="514.48" gradientTransform="matrix(0.85, 0.53, -0.43, 0.68, 493, -29.82)" xlink:href="#linear-gradient-30"/><linearGradient id="linear-gradient-64" x1="182.89" y1="542.63" x2="102.65" y2="556.29" gradientTransform="matrix(0.85, 0.53, -0.43, 0.68, 493, -29.82)" xlink:href="#linear-gradient-31"/><linearGradient id="linear-gradient-65" x1="82.87" y1="520.92" x2="118.65" y2="556.07" gradientTransform="matrix(0.85, 0.53, -0.43, 0.68, 493, -29.82)" xlink:href="#linear-gradient-32"/><linearGradient id="linear-gradient-66" x1="112.72" y1="520.74" x2="127.63" y2="529.68" gradientTransform="matrix(0.85, 0.53, -0.43, 0.68, 493, -29.82)" xlink:href="#linear-gradient-33"/><linearGradient id="linear-gradient-67" x1="70.88" y1="645.09" x2="65.23" y2="594.2" gradientTransform="matrix(0.98, -0.18, 0.15, 0.79, 186.58, -40.13)" xlink:href="#linear-gradient-23"/><linearGradient id="linear-gradient-68" x1="-15.31" y1="631.31" x2="-22" y2="524.9" gradientTransform="matrix(0.98, -0.18, 0.15, 0.79, 186.58, -40.13)" xlink:href="#linear-gradient-24"/><linearGradient id="linear-gradient-69" x1="-47.4" y1="517.99" x2="26.63" y2="511.82" gradientTransform="matrix(0.98, -0.18, 0.15, 0.79, 186.58, -40.13)" xlink:href="#linear-gradient-25"/><linearGradient id="linear-gradient-70" x1="54.15" y1="519.68" x2="-41.86" y2="473.41" gradientTransform="matrix(0.98, -0.18, 0.15, 0.79, 186.58, -40.13)" xlink:href="#linear-gradient-26"/><linearGradient id="linear-gradient-71" x1="-26.86" y1="487.85" x2="96.52" y2="496.72" gradientTransform="matrix(0.98, -0.18, 0.15, 0.79, 186.58, -40.13)" xlink:href="#linear-gradient-27"/><linearGradient id="linear-gradient-72" x1="74.14" y1="452" x2="16.69" y2="583.48" gradientTransform="matrix(0.98, -0.18, 0.15, 0.79, 186.58, -40.13)" xlink:href="#linear-gradient-28"/><linearGradient id="linear-gradient-73" x1="29.82" y1="494.35" x2="18" y2="481.5" gradientTransform="matrix(0.98, -0.18, 0.15, 0.79, 186.58, -40.13)" xlink:href="#linear-gradient-29"/><linearGradient id="linear-gradient-74" x1="11.6" y1="504.64" x2="45.73" y2="504.64" gradientTransform="matrix(0.98, -0.18, 0.15, 0.79, 186.58, -40.13)" xlink:href="#linear-gradient-30"/><linearGradient id="linear-gradient-75" x1="57.36" y1="533.76" x2="-25.66" y2="547.9" gradientTransform="matrix(0.98, -0.18, 0.15, 0.79, 186.58, -40.13)" xlink:href="#linear-gradient-31"/><linearGradient id="linear-gradient-76" x1="-46.13" y1="511.29" x2="-9.12" y2="547.66" gradientTransform="matrix(0.98, -0.18, 0.15, 0.79, 186.58, -40.13)" xlink:href="#linear-gradient-32"/><linearGradient id="linear-gradient-77" x1="-15.24" y1="511.11" x2="0.18" y2="520.36" gradientTransform="matrix(0.98, -0.18, 0.15, 0.79, 186.58, -40.13)" xlink:href="#linear-gradient-33"/><linearGradient id="linear-gradient-78" x1="165.74" y1="733.78" x2="161.14" y2="692.39" gradientTransform="matrix(0.85, 0.52, -0.42, 0.68, 551.45, -60.72)" xlink:href="#linear-gradient-23"/><linearGradient id="linear-gradient-79" x1="95.63" y1="722.57" x2="90.19" y2="636.02" gradientTransform="matrix(0.85, 0.52, -0.42, 0.68, 551.45, -60.72)" xlink:href="#linear-gradient-24"/><linearGradient id="linear-gradient-80" x1="69.53" y1="630.4" x2="129.74" y2="625.38" gradientTransform="matrix(0.85, 0.52, -0.42, 0.68, 551.45, -60.72)" xlink:href="#linear-gradient-25"/><linearGradient id="linear-gradient-81" x1="152.12" y1="631.78" x2="74.04" y2="594.15" gradientTransform="matrix(0.85, 0.52, -0.42, 0.68, 551.45, -60.72)" xlink:href="#linear-gradient-26"/><linearGradient id="linear-gradient-82" x1="86.24" y1="605.89" x2="186.59" y2="613.1" gradientTransform="matrix(0.85, 0.52, -0.42, 0.68, 551.45, -60.72)" xlink:href="#linear-gradient-27"/><linearGradient id="linear-gradient-83" x1="168.39" y1="576.73" x2="121.66" y2="683.67" gradientTransform="matrix(0.85, 0.52, -0.42, 0.68, 551.45, -60.72)" xlink:href="#linear-gradient-28"/><linearGradient id="linear-gradient-84" x1="132.34" y1="611.18" x2="122.72" y2="600.72" gradientTransform="matrix(0.85, 0.52, -0.42, 0.68, 551.45, -60.72)" xlink:href="#linear-gradient-29"/><linearGradient id="linear-gradient-85" x1="117.52" y1="619.54" x2="145.28" y2="619.54" gradientTransform="matrix(0.85, 0.52, -0.42, 0.68, 551.45, -60.72)" xlink:href="#linear-gradient-30"/><linearGradient id="linear-gradient-86" x1="154.74" y1="643.23" x2="87.21" y2="654.73" gradientTransform="matrix(0.85, 0.52, -0.42, 0.68, 551.45, -60.72)" xlink:href="#linear-gradient-31"/><linearGradient id="linear-gradient-87" x1="70.57" y1="624.95" x2="100.67" y2="654.54" gradientTransform="matrix(0.85, 0.52, -0.42, 0.68, 551.45, -60.72)" xlink:href="#linear-gradient-32"/><linearGradient id="linear-gradient-88" x1="95.69" y1="624.81" x2="108.23" y2="632.33" gradientTransform="matrix(0.85, 0.52, -0.42, 0.68, 551.45, -60.72)" xlink:href="#linear-gradient-33"/><linearGradient id="linear-gradient-89" x1="21.2" y1="843.95" x2="15.01" y2="788.28" gradientTransform="matrix(0.95, 0.3, -0.24, 0.76, 361.62, -118.31)" xlink:href="#linear-gradient-23"/><linearGradient id="linear-gradient-90" x1="-73.1" y1="828.88" x2="-80.41" y2="712.46" gradientTransform="matrix(0.95, 0.3, -0.24, 0.76, 361.62, -118.31)" xlink:href="#linear-gradient-24"/><linearGradient id="linear-gradient-91" x1="-108.2" y1="704.9" x2="-27.21" y2="698.16" gradientTransform="matrix(0.95, 0.3, -0.24, 0.76, 361.62, -118.31)" xlink:href="#linear-gradient-25"/><linearGradient id="linear-gradient-92" x1="2.89" y1="706.76" x2="-102.14" y2="656.14" gradientTransform="matrix(0.95, 0.3, -0.24, 0.76, 361.62, -118.31)" xlink:href="#linear-gradient-26"/><linearGradient id="linear-gradient-93" x1="-85.73" y1="671.94" x2="49.24" y2="681.64" gradientTransform="matrix(0.95, 0.3, -0.24, 0.76, 361.62, -118.31)" xlink:href="#linear-gradient-27"/><linearGradient id="linear-gradient-94" x1="24.76" y1="632.72" x2="-38.08" y2="776.55" gradientTransform="matrix(0.95, 0.3, -0.24, 0.76, 361.62, -118.31)" xlink:href="#linear-gradient-28"/><linearGradient id="linear-gradient-95" x1="-23.72" y1="679.05" x2="-36.66" y2="664.99" gradientTransform="matrix(0.95, 0.3, -0.24, 0.76, 361.62, -118.31)" xlink:href="#linear-gradient-29"/><linearGradient id="linear-gradient-96" x1="-43.65" y1="690.3" x2="-6.32" y2="690.3" gradientTransform="matrix(0.95, 0.3, -0.24, 0.76, 361.62, -118.31)" xlink:href="#linear-gradient-30"/><linearGradient id="linear-gradient-97" x1="6.41" y1="722.16" x2="-84.42" y2="737.62" gradientTransform="matrix(0.95, 0.3, -0.24, 0.76, 361.62, -118.31)" xlink:href="#linear-gradient-31"/><linearGradient id="linear-gradient-98" x1="-106.81" y1="697.58" x2="-66.32" y2="737.37" gradientTransform="matrix(0.95, 0.3, -0.24, 0.76, 361.62, -118.31)" xlink:href="#linear-gradient-32"/><linearGradient id="linear-gradient-99" x1="-73.02" y1="697.38" x2="-56.15" y2="707.51" gradientTransform="matrix(0.95, 0.3, -0.24, 0.76, 361.62, -118.31)" xlink:href="#linear-gradient-33"/><linearGradient id="linear-gradient-100" x1="259.35" y1="946.96" x2="253.59" y2="895.13" gradientTransform="matrix(0.22, -0.97, 0.77, 0.17, -178.37, 522.76)" xlink:href="#linear-gradient-23"/><linearGradient id="linear-gradient-101" x1="171.56" y1="932.93" x2="164.76" y2="824.55" gradientTransform="matrix(0.22, -0.97, 0.77, 0.17, -178.37, 522.76)" xlink:href="#linear-gradient-24"/><linearGradient id="linear-gradient-102" x1="138.89" y1="817.51" x2="214.28" y2="811.23" gradientTransform="matrix(0.22, -0.97, 0.77, 0.17, -178.37, 522.76)" xlink:href="#linear-gradient-25"/><linearGradient id="linear-gradient-103" x1="242.31" y1="819.23" x2="144.53" y2="772.11" gradientTransform="matrix(0.22, -0.97, 0.77, 0.17, -178.37, 522.76)" xlink:href="#linear-gradient-26"/><linearGradient id="linear-gradient-104" x1="159.8" y1="786.82" x2="285.46" y2="795.85" gradientTransform="matrix(0.22, -0.97, 0.77, 0.17, -178.37, 522.76)" xlink:href="#linear-gradient-27"/><linearGradient id="linear-gradient-105" x1="262.67" y1="750.31" x2="204.16" y2="884.21" gradientTransform="matrix(0.22, -0.97, 0.77, 0.17, -178.37, 522.76)" xlink:href="#linear-gradient-28"/><linearGradient id="linear-gradient-106" x1="217.53" y1="793.44" x2="205.49" y2="780.35" gradientTransform="matrix(0.22, -0.97, 0.77, 0.17, -178.37, 522.76)" xlink:href="#linear-gradient-29"/><linearGradient id="linear-gradient-107" x1="198.98" y1="803.91" x2="233.74" y2="803.91" gradientTransform="matrix(0.22, -0.97, 0.77, 0.17, -178.37, 522.76)" xlink:href="#linear-gradient-30"/><linearGradient id="linear-gradient-108" x1="245.58" y1="833.57" x2="161.02" y2="847.97" gradientTransform="matrix(0.22, -0.97, 0.77, 0.17, -178.37, 522.76)" xlink:href="#linear-gradient-31"/><linearGradient id="linear-gradient-109" x1="140.18" y1="810.69" x2="177.88" y2="847.73" gradientTransform="matrix(0.22, -0.97, 0.77, 0.17, -178.37, 522.76)" xlink:href="#linear-gradient-32"/><linearGradient id="linear-gradient-110" x1="171.64" y1="810.51" x2="187.34" y2="819.93" gradientTransform="matrix(0.22, -0.97, 0.77, 0.17, -178.37, 522.76)" xlink:href="#linear-gradient-33"/><linearGradient id="linear-gradient-111" x1="370.77" y1="94.6" x2="362.24" y2="489.23" gradientUnits="userSpaceOnUse"><stop offset="0" stop-color="#fff"/><stop offset="1" stop-color="#fff" stop-opacity="0"/></linearGradient><linearGradient id="linear-gradient-112" x1="384.19" y1="168.89" x2="377.59" y2="474.57" gradientUnits="userSpaceOnUse"><stop offset="0.34" stop-color="#efd6ff"/><stop offset="1" stop-color="#fff" stop-opacity="0"/></linearGradient></defs><path class="cls-2" d="M37.49,635.9s45.09,72.5,146.25,89.36c27.3,4.55,178.51,74.25,217,60,14.46-5.35,30.09,11.12,95.59-10.54,9.81-3.24,42.9-30,51-33,141.8-53.15,7.32-51.85-29.59-64.47-44.31-15.16-60.61-123.8-146.78-123.8S142.4,532.86,37.49,635.9Z"/><polygon class="cls-3" points="415.79 513.18 399.99 744.97 43.52 652.78 14.54 413.96 415.79 513.18"/><polygon class="cls-4" points="415.79 513.18 608.95 409.57 581.74 634.34 399.99 744.97 415.79 513.18"/><polygon class="cls-5" points="608.95 409.57 415.79 513.18 14.54 413.96 205.95 319.14 608.95 409.57"/><polygon class="cls-6" points="109.06 437.01 411.62 509.13 563.36 432.32 419.11 517.56 402.25 728.32 406.93 516.63 109.06 437.01"/><polygon class="cls-7" points="609.83 398.16 209.46 312.11 305.16 50.47 716.95 117.2 609.83 398.16"/><path class="cls-8" d="M609.83,398.16,717,117.2S810,171.63,767,320C750.31,370.94,682.71,428.89,609.83,398.16Z"/><path class="cls-9" d="M641.44,374.82,719.58,176s23.19,28.49,26.34,72C750.06,305.18,724,378,641.44,374.82Z"/><polygon class="cls-9" points="366.86 704.53 64.31 628.65 46.52 453.49 372.48 525.62 366.86 704.53"/><polygon class="cls-10" points="372.48 525.62 67.12 458.18 82.11 618.35 93.86 620.98 83.77 479.65 372.05 545.83 372.48 525.62"/><polygon class="cls-11" points="369.93 588.52 72.44 515.03 71.75 506.29 370.63 577.27 369.93 588.52"/><polygon class="cls-12" points="366.86 704.53 366.86 689.54 82.11 618.35 64.31 628.65 366.86 704.53"/><polygon class="cls-13" points="82.11 618.35 67.12 458.18 46.52 453.49 64.31 628.65 82.11 618.35"/><polygon class="cls-9" points="451.17 520 438.05 690.48 561.7 612.73 580.43 454.43 451.17 520"/><polygon class="cls-14" points="580.43 454.43 560.76 463.8 546.71 605.24 561.7 612.73 580.43 454.43"/><polygon class="cls-15" points="561.7 612.73 438.05 690.48 439.93 673.62 546.71 605.24 561.7 612.73"/><polygon class="cls-16" points="482.27 732.59 419.73 764.26 356.79 732.72 357.09 709.89 419.88 677.75 482.27 708.51 482.27 732.59"/><polygon class="cls-17" points="360.9 730.5 360.88 731.48 419.98 761.1 478.38 731.52 478.38 729.26 420.12 700.18 360.9 730.5"/><path class="cls-18" d="M419.73,764.26l62.54-31.67V754.2l-61.79,31.54S419.73,764.11,419.73,764.26Z"/><polygon class="cls-19" points="420.48 785.74 419.73 764.26 356.79 732.72 356.79 753.6 420.48 785.74"/><polygon class="cls-20" points="393.89 742.63 367 729.27 399.4 712.9 426.49 726.11 393.89 742.63"/><path class="cls-21" d="M367,729.27c.61-.15,71.65-36.35,71.65-36.35l-19.22-10.07-52.58,26.74Z"/><polygon class="cls-22" points="412.97 712.74 444.96 696.37 471.4 709.44 439.55 725.66 412.97 712.74"/><polygon class="cls-23" points="471.3 709.5 400.35 745.64 419.43 755.25 472.15 728.51 471.3 709.5"/><path class="cls-24" d="M399.4,712.92l2.41,1.17,36.84-18.75-.1-2.41Z"/><polygon class="cls-25" points="439.56 725.65 412.98 712.75 412.99 715.17 437.17 726.92 439.56 725.65"/><polygon class="cls-26" points="419.65 755.08 400.43 745.57 400.57 747.87 419.65 757.48 472.27 730.85 472.16 728.5 419.65 755.08"/><polygon class="cls-27" points="482.25 732.6 419.73 764.26 417.83 763.17 479.96 731.83 480.92 708.09 482.27 708.51 482.25 732.6"/><polygon class="cls-28" points="367 729.27 367 731.87 393.89 745.24 393.82 742.58 367 729.27"/><polygon class="cls-29" points="426.34 726.19 393.82 742.58 393.89 745.24 426.49 728.72 426.34 726.19"/><polygon class="cls-6" points="472.16 728.5 419.65 755.08 400.43 745.57 419.88 753.91 472 727.77 472.16 728.5"/><polygon class="cls-6" points="463.79 753.25 464.82 730.23 450.77 725.97 466.89 724.89 473.04 706.51 472.12 725.51 486.54 732.58 471.31 731.74 463.79 753.25"/><polygon class="cls-6" points="438.56 692.93 419.53 682.76 390.29 697.73 419.58 684.26 438.56 692.93"/><polygon class="cls-6" points="402.81 714.9 426.34 726.19 393.82 742.58 423.24 726.12 402.81 714.9"/><polygon class="cls-16" points="314.58 715.73 260.71 743.01 206.5 715.85 206.76 696.18 260.84 668.5 314.58 694.99 314.58 715.73"/><polygon class="cls-17" points="210.04 713.93 210.03 714.78 260.93 740.29 311.23 714.82 311.23 712.87 261.05 687.82 210.04 713.93"/><path class="cls-30" d="M260.71,743l53.87-27.28v18.62l-53.22,27.16S260.71,742.88,260.71,743Z"/><polygon class="cls-31" points="261.36 761.51 260.71 743.01 206.5 715.85 206.5 733.83 261.36 761.51"/><polygon class="cls-32" points="238.46 724.38 215.3 712.87 243.21 698.77 266.53 710.15 238.46 724.38"/><path class="cls-33" d="M215.3,712.87c.52-.13,61.71-31.31,61.71-31.31l-16.56-8.66-45.28,23Z"/><polygon class="cls-34" points="254.89 698.64 282.44 684.54 305.21 695.79 277.79 709.77 254.89 698.64"/><polygon class="cls-35" points="305.13 695.84 244.02 726.97 260.45 735.25 305.86 712.22 305.13 695.84"/><path class="cls-36" d="M243.21,698.79l2.07,1L277,683.65l-.08-2.08Z"/><polygon class="cls-37" points="277.8 709.76 254.89 698.65 254.91 700.73 275.73 710.85 277.8 709.76"/><polygon class="cls-38" points="260.64 735.1 244.09 726.91 244.22 728.89 260.64 737.17 305.96 714.24 305.87 712.21 260.64 735.1"/><polygon class="cls-27" points="314.56 715.74 260.71 743.01 259.08 742.07 312.59 715.08 313.41 694.64 314.58 694.99 314.56 715.74"/><polygon class="cls-39" points="215.3 712.88 215.3 715.11 238.46 726.63 238.4 724.34 215.3 712.88"/><polygon class="cls-40" points="266.41 710.22 238.4 724.34 238.46 726.63 266.53 712.4 266.41 710.22"/><polygon class="cls-6" points="305.87 712.21 260.64 735.1 244.09 726.91 260.84 734.09 305.73 711.58 305.87 712.21"/><polygon class="cls-6" points="299.44 734.64 301.1 697.83 278.63 691.01 304.41 689.29 314.23 659.88 312.77 690.27 335.84 701.59 311.48 700.24 299.44 734.64"/><polygon class="cls-6" points="276.93 681.57 260.54 672.82 235.36 685.71 260.58 674.1 276.93 681.57"/><polygon class="cls-6" points="246.14 700.5 266.41 710.22 238.4 724.34 263.73 710.16 246.14 700.5"/><polygon class="cls-9" points="677.85 135.02 594.48 363.57 247.9 297.06 330.33 79.75 677.85 135.02"/><polygon class="cls-41" points="671.29 155.63 342.51 99.42 330.33 79.75 677.85 135.02 671.29 155.63"/><polygon class="cls-13" points="330.33 79.75 342.51 99.42 270.38 301.75 247.9 297.06 330.33 79.75"/><polygon class="cls-42" points="555.14 413.21 406.2 492.83 55.88 410.4 206.69 336.41 555.14 413.21"/><path class="cls-43" d="M267.36,492.27l-.55,40.54A30,30,0,0,1,257.65,554L224.2,586.24c-5.86,5.65-24.67,10.42-29.69,4L169,540.31a30,30,0,0,1-6.36-18.47L149,477.43c0-12.8,15.3-26.21,27.69-23l76,18.63A19.56,19.56,0,0,1,267.36,492.27Z"/><path class="cls-44" d="M253.31,494.14l-.55,40.54a30,30,0,0,1-9.16,21.15l-33.45,32.28a13.72,13.72,0,0,1-20.33-1.42L155,542.18a30,30,0,0,1-6.36-18.46V476.9A19.56,19.56,0,0,1,173.09,458l65.56,17A19.56,19.56,0,0,1,253.31,494.14Z"/><polygon class="cls-11" points="368.53 645.42 78.27 575.87 77.16 566.43 368.53 635.58 368.53 645.42"/><polygon class="cls-11" points="446.65 577.95 447.92 568.03 555.79 511.55 555.03 521.48 446.65 577.95"/><polygon class="cls-11" points="442.83 631.38 444.11 621.97 550.45 564.22 549.68 572.87 442.83 631.38"/><polygon class="cls-45" points="663.91 371.88 653.9 372.65 726.96 189.88 731.17 199.62 663.91 371.88"/><polygon class="cls-45" points="699.34 359.04 687.61 366.94 741.7 229.4 743.75 243.78 699.34 359.04"/><polygon class="cls-10" points="206.69 336.41 206.69 444.13 403.39 491.9 555.14 413.21 206.69 336.41"/><path class="cls-46" d="M270.75,303.05l74.57-202.69s71.86,37,40.39,145.52C373.51,283.14,332.21,313,270.75,303.05Z"/><path class="cls-47" d="M238.65,474.93c6.73,2.15,14.09,5.31,14.44,22.47s-.7,35-.7,35,3.16,12.62-15.06,29.44c10.51-8.06,16.46-16.12,17.52-19.63s1.4-46.25,1.4-46.25,4.55-20-25.58-26.28c-24.18-4.9-41-8.41-41-8.41S231.92,472.78,238.65,474.93Z"/><path class="cls-48" d="M226.73,544.85a85.69,85.69,0,0,0-4.13-12.62c-1.38-3.56-6-7.92-8.95-10.13a2.17,2.17,0,0,1-.2-3.32c2.89-2.76,8.07-8.14,9.73-11,1.09-2,3.24-5.77,3.33-9.05.22-2.44-.12-5.26-3.34-6.55a4.73,4.73,0,0,0-4.88.63c-2,1.41-2.7,5.26-4.14,9.09-1.67,4.43-4.29,5-5.67,5s-.48-1.46-3.66-10.64-11.6-7.51-17.95-3.71c-8.07,4.83-4.48,15.11-2.48,21.74-1.1,1.1-5.38,1.93-9.25,4a39,39,0,0,0-6.46,3.74c-2.79,2.24-4,4.78-3,8.23a4.92,4.92,0,0,0,2.44,2.79c2.28,1,5.64-.47,10.78-4.34a31.58,31.58,0,0,1,8.14-3.79s3.11,4.76,6,10.42-3.11,7.52-3.73,7.52-10.08-.9-7.94,7.11,13.6,5.11,19.47,1.24,4.41-16.49,4.41-16.49c5.73-.9,7.53,5.17,8.08,8.28s-.69,8.49,5.11,8.63a9.17,9.17,0,0,0,2.41-.35c3.12-.72,4.94-2.29,5.68-4A3.94,3.94,0,0,0,226.73,544.85Z"/><path class="cls-49" d="M212.64,507.14c1.38,0,4-.56,5.67-5,1.44-3.83,2.11-7.68,4.13-9.1a4.18,4.18,0,0,1,1.3-.73l-.52-.24a4.73,4.73,0,0,0-4.88.63c-2,1.41-2.7,5.26-4.14,9.1a8.63,8.63,0,0,1-2.59,3.88C211.89,506.84,212.05,507.14,212.64,507.14Z"/><path class="cls-49" d="M217.47,543.24c-.56-3.11-2.35-9.18-8.08-8.29,0,0,0,.17.05.47,2.53,1.67,3.53,5.3,3.92,7.47.55,3.11-.69,8.49,5.11,8.63a9.27,9.27,0,0,0,1.66-.18C217.17,549.89,217.92,545.79,217.47,543.24Z"/><path class="cls-49" d="M185.51,550.21c-2.14-8,7.25-7.11,7.94-7.11s6.62-1.87,3.73-7.52-6-10.43-6-10.43A30.63,30.63,0,0,0,188,526.3c1.14,1.84,3.15,5.18,5.07,8.93,2.9,5.66-3.11,7.53-3.73,7.53s-10.08-.9-7.94,7.1c1.07,4.1,4.66,5.32,8.68,5A6.23,6.23,0,0,1,185.51,550.21Z"/><path class="cls-49" d="M169.8,530.49c-1-3.45.25-6,3-8.23a39,39,0,0,1,6.46-3.73c3.86-2.07,8.14-2.9,9.25-4-2-6.63-5.59-16.91,2.48-21.75a20.83,20.83,0,0,1,8.06-3c-3.73-1.18-8.33.33-12.16,2.62-8.08,4.83-4.49,15.12-2.49,21.74-1.1,1.11-5.38,1.94-9.25,4a38.66,38.66,0,0,0-6.46,3.73c-2.79,2.24-4,4.78-3,8.23a4.89,4.89,0,0,0,2.44,2.79,4.76,4.76,0,0,0,3.51,0A4.82,4.82,0,0,1,169.8,530.49Z"/><line class="cls-50" x1="393.32" y1="169.33" x2="646.97" y2="212.46"/><line class="cls-50" x1="623.35" y1="275.1" x2="392.3" y2="232.99"/><line class="cls-50" x1="604.86" y1="322.33" x2="367.65" y2="277.15"/><g class="cls-51"><polygon class="cls-52" points="300.85 360.68 243.15 408.94 168.2 399.3 162.43 378.25 220.26 329.48 294.43 338.57 300.85 360.68"/><polygon class="cls-53" points="171.95 396 172.19 396.91 242.57 405.96 296.45 360.89 295.85 358.81 226.49 350 171.95 396"/><path class="cls-54" d="M243.15,408.94l57.7-48.26,5.75,19.83-56.94,47.92S243.11,408.8,243.15,408.94Z"/><polygon class="cls-55" points="249.66 428.43 243.15 408.94 168.2 399.3 173.76 418.46 249.66 428.43"/><polygon class="cls-56" points="210.07 397.02 178.08 393 207.98 368.03 240.13 371.85 210.07 397.02"/><path class="cls-57" d="M178.08,393c.59-.33,66.08-55.36,66.08-55.36l-23-3.33L172.68,375Z"/><polygon class="cls-58" points="222.28 363.73 251.75 338.88 283.18 342.76 253.83 367.43 222.28 363.73"/><polygon class="cls-59" points="283.1 342.85 217.7 397.79 240.43 400.76 289.06 360.04 283.1 342.85"/><path class="cls-60" d="M208,368.05l2.86.34,34-28.52-.74-2.19Z"/><polygon class="cls-61" points="253.84 367.41 222.29 363.73 222.95 365.95 251.65 369.31 253.84 367.41"/><polygon class="cls-62" points="240.62 400.53 217.77 397.7 218.53 399.77 241.26 402.74 289.81 362.15 289.07 360.02 240.62 400.53"/><polygon class="cls-63" points="300.82 360.69 243.15 408.94 240.85 408.52 298.2 360.68 292.89 338.61 294.43 338.57 300.82 360.69"/><polygon class="cls-64" points="178.08 393 178.77 395.38 210.76 399.41 209.98 396.99 178.08 393"/><polygon class="cls-65" points="240 371.97 209.98 396.99 210.76 399.41 240.83 374.24 240 371.97"/><polygon class="cls-6" points="289.07 360.02 240.62 400.53 217.77 397.7 240.56 399.39 288.71 359.4 289.07 360.02"/><polygon class="cls-6" points="244.06 337.69 221.23 334.19 194.3 356.9 221.68 335.55 244.06 337.69"/><polygon class="cls-6" points="212.11 368.82 240 371.97 209.98 396.99 236.7 372.85 212.11 368.82"/><polygon class="cls-52" points="478.37 441.02 409.56 499.88 318.73 494.48 311.35 471.09 380.31 411.66 470.18 416.48 478.37 441.02"/><polygon class="cls-53" points="323.2 490.47 323.52 491.48 408.8 496.55 473.06 441.59 472.3 439.28 388.25 434.41 323.2 490.47"/><path class="cls-66" d="M409.56,499.88,478.37,441l7.35,22-67.9,58.4S409.51,499.72,409.56,499.88Z"/><polygon class="cls-67" points="417.82 521.44 409.56 499.88 318.73 494.48 325.84 515.76 417.82 521.44"/><polygon class="cls-68" points="369.32 488.82 330.56 486.62 366.22 456.18 405.18 458.13 369.32 488.82"/><path class="cls-69" d="M330.56,486.62c.71-.41,78.8-67.48,78.8-67.48l-27.89-2.09-57.8,49.59Z"/><polygon class="cls-70" points="383.42 450.25 418.57 419.98 456.66 422.06 421.65 452.12 383.42 450.25"/><polygon class="cls-71" points="456.56 422.15 378.56 489.13 406.11 490.82 464.1 441.17 456.56 422.15"/><path class="cls-72" d="M366.22,456.19l3.46.18,40.51-34.77-.95-2.41C402.31,425.14,366.22,456.19,366.22,456.19Z"/><polygon class="cls-73" points="421.67 452.1 383.44 450.26 384.28 452.72 419.05 454.41 421.67 452.1"/><polygon class="cls-74" points="406.33 490.55 378.64 489.03 379.61 491.31 407.15 493 465.05 443.5 464.12 441.15 406.33 490.55"/><polygon class="cls-63" points="478.35 441.04 409.56 499.88 406.77 499.57 475.18 441.23 468.31 416.64 470.18 416.48 478.35 441.04"/><polygon class="cls-75" points="330.56 486.63 331.44 489.28 370.21 491.47 369.21 488.8 330.56 486.63"/><polygon class="cls-76" points="405.02 458.27 369.21 488.8 370.21 491.47 406.06 460.78 405.02 458.27"/><polygon class="cls-6" points="464.12 441.15 406.33 490.55 378.64 489.03 406.23 489.26 463.67 440.48 464.12 441.15"/><polygon class="cls-6" points="409.24 419.19 381.58 416.91 349.46 444.59 382.14 418.42 409.24 419.19"/><polygon class="cls-6" points="371.23 456.77 405.02 458.27 369.21 488.8 401.05 459.52 371.23 456.77"/><polygon class="cls-52" points="321.13 501.28 262.98 449.43 257.06 371.37 276.14 362.37 334.81 414.27 341.1 491.45 321.13 501.28"/><polygon class="cls-53" points="261 374.72 260.17 375.11 265.73 448.4 320.03 496.82 321.91 495.9 316.33 423.68 261 374.72"/><path class="cls-77" d="M263,449.43l58.15,51.85-17.92,8.82L245.55,459S263.11,449.37,263,449.43Z"/><polygon class="cls-78" points="245.55 458.97 262.98 449.43 257.06 371.37 239.74 379.89 245.55 458.97"/><polygon class="cls-79" points="267.75 413.84 265.13 380.54 295.22 407.42 298.06 440.86 267.75 413.84"/><path class="cls-80" d="M265.13,380.54c.43.56,66.66,59.37,66.66,59.37l-1.45-24-49-43.53Z"/><polygon class="cls-81" points="302.26 421.4 332.14 447.86 334.78 480.57 305.1 454.21 302.26 421.4"/><polygon class="cls-82" points="334.69 480.5 268.55 421.76 270.3 445.44 319.35 489.13 334.69 480.5"/><path class="cls-83" d="M295.2,407.43l.26,3c17,15.11,34.33,30.51,34.33,30.51l1.95-1.08Z"/><polygon class="cls-84" points="305.11 454.22 302.26 421.41 300.26 422.42 302.84 452.26 305.11 454.22"/><polygon class="cls-85" points="270.56 445.6 268.65 421.82 266.82 422.9 268.57 446.58 317.47 490.21 319.37 489.14 270.56 445.6"/><polygon class="cls-63" points="321.11 501.26 262.98 449.43 262.92 447.02 320.59 498.58 340.75 489.88 341.1 491.45 321.11 501.26"/><polygon class="cls-86" points="265.12 380.55 262.97 381.6 265.59 414.91 267.75 413.75 265.12 380.55"/><polygon class="cls-87" points="297.92 440.74 267.75 413.75 265.59 414.91 295.91 441.92 297.92 440.74"/><polygon class="cls-6" points="319.37 489.14 270.56 445.6 268.65 421.82 271.65 445.37 319.89 488.68 319.37 489.14"/><polygon class="cls-6" points="331.74 439.82 330.47 415.96 303.15 391.79 329.25 416.62 331.74 439.82"/><polygon class="cls-6" points="295.29 411.76 297.92 440.74 267.75 413.75 296.4 437.5 295.29 411.76"/><polygon class="cls-52" points="457.71 449.24 375.27 434.68 325.78 366.66 338.15 347.65 421.08 361.98 470.42 428.98 457.71 449.24"/><polygon class="cls-53" points="331.27 367.5 330.74 368.32 377.21 432.18 454.19 445.79 455.39 443.88 409.5 381.01 331.27 367.5"/><path class="cls-88" d="M375.28,434.68l82.43,14.56-11.4,18.19-81.58-14.19Z"/><polygon class="cls-89" points="364.73 453.25 375.27 434.68 325.78 366.66 314.77 384.23 364.73 453.25"/><polygon class="cls-90" points="359.54 399.45 338.34 370.49 381.02 378.07 402.51 407.03 359.54 399.45"/><path class="cls-91" d="M338.34,370.49c.71.26,94.47,16.63,94.47,16.63L417.92,366l-69.36-12.15Z"/><polygon class="cls-92" points="395.36 386.87 437.62 394.18 458.5 422.6 416.48 415.26 395.36 386.87"/><polygon class="cls-93" points="458.37 422.58 364.74 406.24 379.71 426.9 449.23 439.14 458.37 422.58"/><path class="cls-94" d="M381,378.08l1.91,2.57c24.07,4.22,48.61,8.5,48.61,8.5l1.17-2.09Z"/><polygon class="cls-95" points="416.5 415.26 395.36 386.88 394.1 388.93 413.31 414.75 416.5 415.26"/><polygon class="cls-96" points="380.04 426.9 364.86 406.23 363.8 408.26 378.78 428.92 448.12 441.19 449.25 439.14 380.04 426.9"/><polygon class="cls-63" points="457.69 449.23 375.27 434.68 373.86 432.51 455.69 447.08 469.21 427.74 470.42 428.98 457.69 449.23"/><polygon class="cls-97" points="338.33 370.49 336.96 372.68 358.17 401.64 359.49 399.36 338.33 370.49"/><polygon class="cls-98" points="402.31 407 359.49 399.36 358.17 401.64 401.14 409.22 402.31 407"/><polygon class="cls-6" points="449.25 439.14 380.04 426.9 364.86 406.23 380.9 426.06 449.47 438.42 449.25 439.14"/><polygon class="cls-6" points="432.7 387.06 418.08 365.97 379.45 359.3 417.34 367.26 432.7 387.06"/><polygon class="cls-6" points="383.54 382 402.31 407 359.49 399.36 399.09 404.89 383.54 382"/><polygon class="cls-52" points="362.31 351.34 289.41 398.14 204.05 381.17 200.1 358.04 273.21 310.72 357.75 327.02 362.31 351.34"/><polygon class="cls-53" points="208.8 377.95 208.97 378.95 289.13 394.88 357.21 351.19 356.78 348.9 277.77 333.31 208.8 377.95"/><path class="cls-99" d="M289.41,398.14l72.9-46.8,4.09,21.83-72,46.48S289.39,398,289.41,398.14Z"/><polygon class="cls-100" points="294.43 419.65 289.41 398.14 204.05 381.17 208 402.26 294.43 419.65"/><polygon class="cls-101" points="252.72 382.4 216.28 375.26 254.05 351.07 290.71 358 252.72 382.4"/><path class="cls-102" d="M216.28,375.26c.73-.29,83.49-53.66,83.49-53.66L273.61,316l-61.25,39.45Z"/><polygon class="cls-103" points="271.13 347.7 308.38 323.59 344.21 330.54 307.11 354.46 271.13 347.7"/><polygon class="cls-104" points="344.1 330.62 261.44 383.91 287.33 389.11 348.77 349.63 344.1 330.62"/><path class="cls-105" d="M254.05,351.08l3.25.62L300.23,324l-.58-2.41C292.31,326.36,254.05,351.08,254.05,351.08Z"/><polygon class="cls-106" points="307.12 354.44 271.14 347.71 271.62 350.15 304.34 356.29 307.12 354.44"/><polygon class="cls-107" points="287.58 388.88 261.53 383.82 262.15 386.11 288.03 391.3 349.36 351.96 348.78 349.61 287.58 388.88"/><polygon class="cls-63" points="362.28 351.36 289.41 398.14 286.81 397.48 359.26 351.12 355.96 326.92 357.75 327.02 362.28 351.36"/><polygon class="cls-108" points="216.28 375.27 216.77 377.89 253.22 385.03 252.62 382.37 216.28 375.27"/><polygon class="cls-109" points="290.55 358.12 252.62 382.37 253.22 385.03 291.2 360.63 290.55 358.12"/><polygon class="cls-6" points="348.78 349.61 287.58 388.88 261.53 383.82 287.65 387.64 348.44 348.91 348.78 349.61"/><polygon class="cls-6" points="299.65 321.63 273.73 315.86 239.68 337.9 274.07 317.36 299.65 321.63"/><polygon class="cls-6" points="258.72 352.29 290.55 358.12 252.62 382.37 286.62 358.78 258.72 352.29"/><polygon class="cls-52" points="450.62 470.92 381.08 459.65 338.62 403.01 348.8 386.86 418.76 397.93 461.07 453.72 450.62 470.92"/><polygon class="cls-53" points="343.25 403.65 342.81 404.34 382.68 457.53 447.62 468.06 448.6 466.44 409.24 414.09 343.25 403.65"/><path class="cls-110" d="M381.08,459.65l69.54,11.27-9.38,15.44-68.81-11Z"/><polygon class="cls-111" points="372.43 475.4 381.08 459.65 338.62 403.01 329.56 417.92 372.43 475.4"/><polygon class="cls-112" points="367.42 430.2 349.23 406.08 385.24 411.95 403.67 436.06 367.42 430.2"/><path class="cls-113" d="M349.23,406.08c.6.22,79.69,12.86,79.69,12.86l-12.78-17.6-58.5-9.4Z"/><polygon class="cls-114" points="397.41 419.19 433.05 424.83 450.97 448.49 415.52 442.82 397.41 419.19"/><polygon class="cls-115" points="450.86 448.48 371.88 435.85 384.72 453.05 443.36 462.53 450.86 448.48"/><path class="cls-116" d="M385.23,412l1.64,2.14,41,6.57,1-1.77Z"/><polygon class="cls-117" points="415.53 442.82 397.41 419.2 396.38 420.94 412.85 442.43 415.53 442.82"/><polygon class="cls-118" points="385 453.05 371.98 435.84 371.11 437.56 383.96 454.77 442.45 464.26 443.38 462.52 385 453.05"/><polygon class="cls-63" points="450.6 470.92 381.08 459.65 379.86 457.84 448.9 469.13 460.04 452.69 461.07 453.72 450.6 470.92"/><polygon class="cls-119" points="349.23 406.08 348.1 407.94 366.29 432.06 367.38 430.12 349.23 406.08"/><polygon class="cls-120" points="403.5 436.04 367.38 430.12 366.29 432.06 402.54 437.92 403.5 436.04"/><polygon class="cls-6" points="443.38 462.52 385 453.05 371.98 435.84 385.71 452.34 443.55 461.92 443.38 462.52"/><polygon class="cls-6" points="428.83 418.9 416.27 401.33 383.69 396.17 415.67 402.42 428.83 418.9"/><polygon class="cls-6" points="387.41 415.22 403.5 436.04 367.38 430.12 400.76 434.31 387.41 415.22"/><polygon class="cls-52" points="240.26 438.19 145.78 445.41 72.39 384.75 80.59 360.43 175.56 352.82 248.5 412.4 240.26 438.19"/><polygon class="cls-53" points="78.64 384.12 78.28 385.17 147.2 442.13 235.43 435.39 236.2 432.97 168.22 376.94 78.64 384.12"/><path class="cls-121" d="M145.78,445.41l94.48-7.22-7.39,23.15-93.43,7.39S145.83,445.25,145.78,445.41Z"/><polygon class="cls-122" points="139.44 468.73 145.78 445.41 72.39 384.75 65.25 407.11 139.44 468.73"/><polygon class="cls-123" points="118.62 411.21 87.23 385.41 136.16 381.72 167.86 407.44 118.62 411.21"/><path class="cls-124" d="M87.23,385.41c.85.1,108.26-8.33,108.26-8.33l-22.28-19-79.46,6.19Z"/><polygon class="cls-125" points="154.35 387.35 202.74 383.47 233.63 408.76 185.5 412.53 154.35 387.35"/><polygon class="cls-126" points="233.49 408.78 126.23 417.19 148.46 435.63 228.12 429.51 233.49 408.78"/><path class="cls-127" d="M136.15,381.74,139,384c27.57-2.14,55.69-4.35,55.69-4.35l.69-2.62Z"/><polygon class="cls-128" points="185.52 412.53 154.36 387.36 153.56 389.96 181.88 412.86 185.52 412.53"/><polygon class="cls-129" points="148.82 435.54 126.36 417.15 125.77 419.67 148 438.11 227.48 432.06 228.14 429.5 148.82 435.54"/><polygon class="cls-63" points="240.23 438.19 145.78 445.41 143.62 443.43 237.44 436.39 246.83 411.38 248.5 412.4 240.23 438.19"/><polygon class="cls-130" points="87.22 385.42 86.34 388.2 117.73 414 118.54 411.12 87.22 385.42"/><polygon class="cls-131" points="167.64 407.46 118.54 411.12 117.73 414 166.97 410.22 167.64 407.46"/><polygon class="cls-6" points="228.14 429.5 148.82 435.54 126.36 417.15 149.53 434.38 228.18 428.65 228.14 429.5"/><polygon class="cls-6" points="195.35 377.05 173.39 358.04 129.16 361.58 172.94 359.66 195.35 377.05"/><polygon class="cls-6" points="140.03 385.32 167.64 407.46 118.54 411.12 163.52 406.06 140.03 385.32"/><polygon class="cls-52" points="517.23 381.01 531.51 467.75 481.93 540.85 458.99 535.36 444.31 448.21 492.95 375.63 517.23 381.01"/><polygon class="cls-53" points="480.84 535.13 481.83 535.36 528.39 466.72 515.06 385.72 512.78 385.21 467 452.92 480.84 535.13"/><path class="cls-132" d="M531.51,467.75,517.23,381l21.8,4.83,14.35,85.76Z"/><polygon class="cls-133" points="553.38 471.6 531.51 467.75 481.93 540.85 502.98 545.52 553.38 471.6"/><polygon class="cls-134" points="502.4 495.82 481.33 527.07 473.98 482.14 494.95 450.61 502.4 495.82"/><path class="cls-135" d="M481.33,527.07c0-.8-16.42-99.38-16.42-99.38l-15.58,22.24,12.11,72.93Z"/><polygon class="cls-136" points="477.65 464.84 470.17 420.43 490.82 389.68 498.18 433.87 477.65 464.84"/><polygon class="cls-137" points="490.85 389.81 507.26 488.26 522.34 466.12 510.27 392.99 490.85 389.81"/><path class="cls-138" d="M474,482.15l1.86-2.8c-4.2-25.31-8.5-51.12-8.5-51.12l-2.46-.41C466.35,436.56,474,482.15,474,482.15Z"/><polygon class="cls-139" points="498.18 433.85 477.66 464.83 480.1 465.35 498.78 437.18 498.18 433.85"/><polygon class="cls-140" points="522.22 465.79 507.21 488.14 509.57 488.47 524.65 466.33 512.65 393.36 510.25 392.97 522.22 465.79"/><polygon class="cls-63" points="517.23 381.04 531.51 467.75 529.87 469.92 515.81 383.78 492.15 377.26 492.95 375.63 517.23 381.04"/><polygon class="cls-141" points="481.34 527.07 483.95 527.65 505.03 496.4 502.33 495.9 481.34 527.07"/><polygon class="cls-142" points="494.99 450.81 502.33 495.9 505.03 496.4 497.57 451.19 494.99 450.81"/><polygon class="cls-6" points="510.25 392.97 522.22 465.79 507.21 488.14 521.11 465.23 509.48 393.01 510.25 392.97"/><polygon class="cls-6" points="464.89 427.82 449.27 449.77 456.1 490.36 450.79 450.05 464.89 427.82"/><polygon class="cls-6" points="476.96 478.26 494.99 450.81 502.33 495.9 494.04 454.75 476.96 478.26"/><path class="cls-2" d="M463.77,462.47c-7.4,18-26.62,27.17-56.88,14.74s-48.81-37.1-41.41-55.11S403.4,399.57,433.67,412,471.16,444.46,463.77,462.47Z"/><path class="cls-143" d="M407.22,474.35c-27.86-11.44-45.84-32.62-42.13-53.46.39-2.2,4.28-11,5.15-13.07,1.56-3.8,3.36-8.5,6-11.49C389,382,413.1,378.7,441.68,390.44s43.42,31,42.41,50.17c-.21,4-2.23,8.6-3.8,12.4-.86,2.11-4.25,11.08-5.52,12.92C462.76,483.36,435.09,485.79,407.22,474.35Z"/><ellipse class="cls-144" cx="428.09" cy="423.54" rx="31.28" ry="51.03" transform="translate(-126.31 658.67) rotate(-67.68)"/><ellipse class="cls-145" cx="428.09" cy="423.54" rx="31.28" ry="51.03" transform="translate(-126.31 658.67) rotate(-67.68)"/><path class="cls-146" d="M437.82,399.83c24.52,10.07,39.76,29.49,34.06,43.38a16.09,16.09,0,0,1-2.34,3.93,16.26,16.26,0,0,0,4.91-6.46c5.7-13.89-10.13-33.55-35.37-43.91s-50.32-7.51-56,6.39a16.18,16.18,0,0,0-1,8,15.87,15.87,0,0,1,1.09-4.44C388.82,392.87,413.31,389.77,437.82,399.83Z"/><path class="cls-147" d="M451.14,413.28c0,.08,0,.15-.05.23-.3,1-.47,1.76-.61,2.4s-.25,1.09-.43,1.7l0,.1a20.07,20.07,0,0,1-.89,3.18L447,426.35a2.4,2.4,0,0,1-.66,1,1.83,1.83,0,0,0-.47,1.91,9.78,9.78,0,0,1,.31,5.16,2.56,2.56,0,0,1-.18,1.12l-3,7.32a2.54,2.54,0,0,1-.49.76,11.23,11.23,0,0,1-3.21,3.69c-5.5,4.07-14.78,1.2-19.82-.87h0a58.88,58.88,0,0,1-14.38-8.46,4.29,4.29,0,0,1-1.19-5.06c.83-1.89,1.36-3.29,1.77-4.36.21-.54.39-1,.56-1.43l0-.1,2.9-6.28a2.44,2.44,0,0,1,.67-.89,1.57,1.57,0,0,1,.25-.2,1.84,1.84,0,0,0,.88-1.8,9,9,0,0,1,.85-5.12l1.9-4.89a3.43,3.43,0,0,1,.37-.64l.06-.14a10.6,10.6,0,0,1,3.69-4.26,1.78,1.78,0,0,0-.76-3.27c-13.65-1.33-25,2.64-28.48,11.16-5,12.16,7.86,28.95,28.7,37.51s41.78,5.64,46.78-6.52C467.62,433,462.12,422,451.14,413.28Z"/><path class="cls-148" d="M480.82,445.92c-7.52,18.33-37.35,23.45-66.62,11.43s-46.89-36.61-39.36-54.94S412.19,379,441.46,391,488.35,427.6,480.82,445.92Zm-41.35-50.1c-25-10.25-50.31-6.16-56.59,9.15s8.86,36,33.83,46.28,50.31,6.16,56.59-9.15S464.44,406.08,439.47,395.82Z"/><path class="cls-149" d="M414.93,455.59c-28.25-11.6-45.44-35.13-38.33-52.46s35.89-22,64.13-10.39,45.44,35.13,38.33,52.46S443.18,467.19,414.93,455.59Zm25.26-61.53c-12.39-5.09-25.3-6.91-36.33-5.13-11.37,1.84-19.45,7.28-22.75,15.32s-1.37,17.58,5.42,26.88c6.6,9,17.06,16.79,29.46,21.88s25.3,6.92,36.33,5.13c11.37-1.84,19.45-7.28,22.75-15.31s1.37-17.59-5.42-26.89C463.05,406.92,452.59,399.15,440.19,394.06Z"/><path class="cls-150" d="M414.3,457.11c-28.75-11.8-46.26-35.75-39.73-54-.15.31-.29.63-.42.95-7.53,18.33,10.1,42.93,39.36,55s59.09,6.9,66.62-11.43c.13-.32.26-.65.37-1C472.34,464.19,443.05,468.92,414.3,457.11Z"/><path class="cls-6" d="M415.82,453.08c-28.66-11.76-46.93-33.63-40.4-51.84-.15.31-.29.63-.42.95-7.53,18.33,10,42.9,39.18,54.87s58.91,6.83,66.44-11.5c.13-.32.26-.65.37-1C472.84,462.13,444.47,464.85,415.82,453.08Z"/><path class="cls-6" d="M431.76,392.51c-6.68-2.22-24.06-6.84-37.28-.22a2.05,2.05,0,0,1-2.36-.38h0a2,2,0,0,1,.63-3.35c5.3-2.22,18.51-5.78,39.85,1.13a1.46,1.46,0,0,1,.89.83l0,.09A1.43,1.43,0,0,1,431.76,392.51Z"/><path class="cls-151" d="M481.69,446.74,473.37,467s-4.49,6.47-10.1,8.82l6.39-15.56S475.78,457.7,481.69,446.74Z"/><path class="cls-152" d="M373.5,401l-8.32,20.26s-1.35,7.76,1,13.37l6.39-15.55S370,413,373.5,401Z"/><path class="cls-153" d="M414.83,475.83l5.49-13.39c-2.37-.75-4.75-1.61-7.12-2.58-2.62-1.08-5.13-2.25-7.55-3.51l-5.49,13.38c2.42,1.25,4.93,2.42,7.55,3.49Q411.28,474.69,414.83,475.83Z"/><path class="cls-154" d="M430,479.23l6.09-13.38a83.34,83.34,0,0,1-15.73-3.41l-5.49,13.39A84.12,84.12,0,0,0,430,479.23Z"/><path class="cls-154" d="M402.36,454.54c-1.48-.8-3.73-2.34-3.73-2.34l-5.53,13.47q1.71,1.09,3.51,2.13l.25.13Z"/><path class="cls-154" d="M395.51,450c-.48-.29-1-.6-1.4-.88a1.34,1.34,0,0,0-2,.62l-4.48,10.92a1.33,1.33,0,0,0,.52,1.64c.53.33,1.51.9,2.16,1.28a.65.65,0,0,0,.93-.31l4.77-11.62A1.34,1.34,0,0,0,395.51,450Z"/><path class="cls-151" d="M385.85,458.38l4.42-10.75a1.4,1.4,0,0,0-.4-1.61l-2-1.71c-.72-.61-4.61-5.27-5-4.4l-10.45,6.86c-.24.55,8.51,9.84,9,10.24.73.65,1.49,1.3,2.27,1.93A1.41,1.41,0,0,0,385.85,458.38Z"/><path class="cls-145" d="M407.3,446.27c-6.43-2.63-7.08-6.9-6.9-9.22a6.47,6.47,0,0,1,3-5.38c2.22-1.38,5.28-1.29,9.08.27l.81.35a4,4,0,0,0,1.53-.08,2.53,2.53,0,0,0,0-.55c-.5-2.85-1.15-5.53-1.6-7.24a28.27,28.27,0,0,0-5.37,0c-5.23.84-8.48.78-10.85-.2a7,7,0,0,1-2.13-1.33l-.06-.06-.06-.06a7,7,0,0,1-2.14-5.07c.16-2.79,1.58-6.34,7.4-7.45a27.11,27.11,0,0,1,5.4-.37h1.75a45.28,45.28,0,0,1,5.91.36l.43,0a23.12,23.12,0,0,1,1.39-7.46c1.69-4.19-4.38-2.54-.44-5,6.53-4.15,19.74.47,23.31,1.93,4.66,1.92,4.36,3.3,4.42,8.16a56.17,56.17,0,0,1-.23,6.16,4.29,4.29,0,0,0,1.65-1c.57-.53,1.12-1.1,1.65-1.65,1.73-1.79.24-3,2.79-3.41.67-.13,7.11,1.8,7.84,2.42,1.74,1.47,6.52,3.57,4,8.3-1.37,2.91-4.47,5-6.33,6.2l-.21.15,0,0c-2.22,1.38-7,3-10.38,4,1.54,2.36,4.05,6.7,4.24,10.23a59.91,59.91,0,0,1-.09,10.84,5.42,5.42,0,0,1-2,3.61c-2,1.61-5,2.1-8.48,1.39a13.19,13.19,0,0,1-2.76-.79l-.05,0c-2.7-1.17-4.28-2.92-4.68-5.19a9.49,9.49,0,0,1,.67-4.78,11.5,11.5,0,0,0,.34-1.14,6.1,6.1,0,0,0-.2-3.58c-1.58,3.39-4.62,7.87-9.72,8.39A28.59,28.59,0,0,1,407.3,446.27Zm22.66-41c-.5-.07-2.76-.31-3.3,1.41-.68,2.12.09,2.63,1.07,3a9.12,9.12,0,0,0,2.45.54,14,14,0,0,0,3.76,0,6.4,6.4,0,0,0,.07-.92c0-2.79-.4-3.07-1.43-3.49a9.86,9.86,0,0,0-2.48-.58H430Z"/><path class="cls-146" d="M444.76,440.77c-.2-2.77-4.58-8.42-6.46-10.85a1.31,1.31,0,0,1,.71-2.21c3.13-.79,8.85-2.5,11-3.76,1.43-.92,4.22-2.62,5.16-4.7.83-1.5,3.59-6.57,1.25-8.51-2.12-1.75-6.51,1.88-6.51,1.88-2.05.22-3.62,2.48-5.84,4.46a5.48,5.48,0,0,1-6,1.28c-1.08-.45,0-1.11-.21-8.11S431.57,397.7,425.29,398c-8,.36-9.12,12-9.21,16.93-1.21.34-5-.59-8.74-.57-2.34,0-4.63-3.59-6.72-3.24-2.91.5-4.22,5.17-4.33,7.72a3.89,3.89,0,0,0,1.29,2.64c1.62,1.44,4.81,1.61,10.09.87a33.21,33.21,0,0,1,7.77.33,86.88,86.88,0,0,1,2.22,8.77c.91,4.64-4.57,3.79-5.08,3.58s-3.16-4.73-5.52-4.37c-.72.11-1.23,1.29-1.7,1.86a14.33,14.33,0,0,0-1.25,4.39c-.39,5.82,9.93,7.93,15.82,7.43s8-9.13,8-9.13c5,1.37,4.87,5.9,4.51,8.09s-2.82,5.24,1.95,7.31a11,11,0,0,0,2.1.6c2.78.6,4.7.2,5.76-.63.49-.38.54-1,.84-1.51C444.77,446.18,445.06,444.81,444.76,440.77ZM429.09,415c-5.45-.57-7-3.4-5.91-6.95,1.24-4,6.29-3.09,6.29-3.09,5.7.78,6.29,3.26,6.32,6.61S434.49,415.56,429.09,415Z"/><path class="cls-155" d="M444.66,435.56c-.2-2.77-2.86-7.15-4.74-9.59a1.31,1.31,0,0,1,.7-2.2c3.14-.8,8.86-2.5,11-3.76,1.43-.92,4.22-2.62,5.16-4.71.83-1.49,1.3-3.43-1-5.36a5.21,5.21,0,0,0-4.22-1.26c-2.05.22-3.63,2.48-5.84,4.46a5.48,5.48,0,0,1-6,1.28c-1.09-.45,0-1.11-.21-8.11s-7.64-8.8-13.92-8.51c-8,.36-7.72,8.21-7.81,13.17-1.21.34-5-.59-8.74-.57a37.62,37.62,0,0,0-6.35.21c-2.91.49-4.59,1.72-4.7,4.27a3.82,3.82,0,0,0,1.29,2.63c1.62,1.45,4.8,1.62,10.09.88a32.6,32.6,0,0,1,7.77.33,90.14,90.14,0,0,1,2.22,8.77c.91,4.63-4.57,3.79-5.08,3.58s-8.13-4-8.47,1.88,9.93,7.92,15.82,7.43,8-9.13,8-9.13c5,1.37,4.87,5.9,4.5,8.09s-2.82,5.24,2,7.31a11,11,0,0,0,2.1.6c2.78.59,4.7.2,5.76-.63a2.17,2.17,0,0,0,.84-1.52A51.19,51.19,0,0,0,444.66,435.56Z"/><path class="cls-156" d="M457.28,414.15a7.43,7.43,0,0,1-.43,1c-1,2.08-3.73,3.79-5.17,4.7-2.12,1.26-7.85,3-11,3.76a1.3,1.3,0,0,0-.79,2.09,1.48,1.48,0,0,1,.59-.29c3.13-.8,8.86-2.5,11-3.76,1.44-.92,4.22-2.62,5.17-4.7A4.44,4.44,0,0,0,457.28,414.15Z"/><path class="cls-156" d="M444.62,446.69c.05-.46.09-.91.12-1.36a2.22,2.22,0,0,1-.76,1.09c-1.06.83-3,1.22-5.76.62a9.76,9.76,0,0,1-2.1-.6c-2-.88-2.76-1.94-2.88-3-.47,1.69-.47,3.47,2.68,4.84a11,11,0,0,0,2.1.6c2.78.59,4.7.2,5.76-.63A2.17,2.17,0,0,0,444.62,446.69Z"/><path class="cls-156" d="M419.15,429.08c0,.13.05.26.07.38a3.6,3.6,0,0,0,.14-2.18,88.7,88.7,0,0,0-2.23-8.76,32.5,32.5,0,0,0-7.76-.33c-5.29.74-8.48.57-10.1-.88a4.27,4.27,0,0,1-1.25-2.17,4.92,4.92,0,0,0-.24,1.33,3.85,3.85,0,0,0,1.29,2.63c1.62,1.45,4.81,1.62,10.1.88a33.1,33.1,0,0,1,7.76.33A86.88,86.88,0,0,1,419.15,429.08Z"/><path class="cls-156" d="M434.17,439.14c.36-2.19.48-6.72-4.51-8.09,0,0-2.14,8.64-8,9.13-5.69.48-15.49-1.47-15.83-6.84a5.66,5.66,0,0,0-.2,1.2c-.38,5.82,9.93,7.92,15.82,7.43s8-9.13,8-9.13c4,1.1,4.72,4.23,4.66,6.56C434.14,439.31,434.15,439.22,434.17,439.14Z"/><path class="cls-157" d="M430.36,411.13c-5.63-.59-7.26-3.52-6.1-7.17,1.28-4.15,6.49-3.19,6.49-3.19,5.89.81,6.49,3.36,6.53,6.81S435.93,411.7,430.36,411.13Z"/><path class="cls-158" d="M429.65,402.51c5.89.8,6.5,3.36,6.53,6.81a7.47,7.47,0,0,1-.11,1.5c1.06-.52,1.4-1.55,1.39-3.3,0-3.45-.65-6-6.53-6.81,0,0-4.94-.91-6.38,2.88C426.55,401.94,429.65,402.51,429.65,402.51Z"/><path class="cls-156" d="M437.43,407.51a7.44,7.44,0,0,0-1-4.3,10.39,10.39,0,0,1,.43,3.11c.06,3.47-1.34,4.12-7,3.5-3-.33-4.84-1.27-5.82-2.6.63,1.95,2.66,3.37,6.43,3.79C436.09,411.63,437.49,411,437.43,407.51Z"/><path class="cls-2" d="M320.75,414.07c7.92,16,2.61,34.75-24.24,48.07s-55,11.16-63-4.82,7.41-39.72,34.26-53S312.82,398.1,320.75,414.07Z"/><path class="cls-159" d="M294.75,460.18C270,472.44,244.58,472,232.48,456.86c-1.28-1.6-5-9.58-5.88-11.44-1.68-3.38-3.82-7.46-4.27-11.09-2.17-17.44,10.14-36,35.49-48.6s47.59-11.13,60.16,1.14c2.62,2.56,4.57,6.74,6.25,10.11.93,1.87,5,9.63,5.55,11.61C334.52,427.4,319.46,447.91,294.75,460.18Z"/><ellipse class="cls-160" cx="272.39" cy="415.1" rx="46.74" ry="28.65" transform="translate(-156.09 164.29) rotate(-26.38)"/><ellipse class="cls-161" cx="272.39" cy="415.1" rx="46.74" ry="28.65" transform="translate(-156.09 164.29) rotate(-26.38)"/><path class="cls-162" d="M262,394.07c21.75-10.79,44.33-9.54,50.45,2.78a14.76,14.76,0,0,1,1.28,4,14.81,14.81,0,0,0-1.47-7.29c-6.11-12.32-29.22-13.31-51.61-2.2s-35.58,30.1-29.46,42.42a14.82,14.82,0,0,0,4.9,5.58,14.71,14.71,0,0,1-2.39-3.44C227.54,423.59,240.21,404.85,262,394.07Z"/><path class="cls-163" d="M279.26,393s.09.1.13.16c.53.84.93,1.39,1.28,1.88s.6.83.91,1.32l.05.08a17.15,17.15,0,0,1,1.65,2.54l2.47,4.77a2.22,2.22,0,0,1,.26,1,1.65,1.65,0,0,0,1,1.48,9,9,0,0,1,3.74,2.9,2.24,2.24,0,0,1,.65.81l3.23,6.49a2.6,2.6,0,0,1,.23.8,10.23,10.23,0,0,1,.59,4.44c-.52,6.25-8.1,10.9-12.57,13.12h0a54.35,54.35,0,0,1-14.52,4.78,3.94,3.94,0,0,1-4.2-2.23c-.8-1.73-1.44-2.94-1.93-3.86-.25-.47-.47-.88-.65-1.25l0-.09L259,426.42a2.49,2.49,0,0,1-.21-1,1.53,1.53,0,0,1,0-.3,1.73,1.73,0,0,0-.71-1.69,8.16,8.16,0,0,1-3-3.68l-2.21-4.26a2.43,2.43,0,0,1-.22-.64l-.06-.13a9.72,9.72,0,0,1-.7-5.11,1.63,1.63,0,0,0-2.71-1.46c-9.17,8.59-13.28,18.79-9.53,26.35,5.34,10.78,24.67,12.09,43.16,2.92S312,412.07,306.6,401.29C302.79,393.61,291.89,390.74,279.26,393Z"/><path class="cls-164" d="M319.67,392.33c8.07,16.26-6.44,39.89-32.4,52.76s-53.55,10.14-61.62-6.12,6.45-39.88,32.41-52.76S311.6,376.07,319.67,392.33Zm-59.48-1.82c-22.15,11-34.65,30.9-27.91,44.48s30.15,15.68,52.3,4.69,34.65-30.9,27.91-44.48S282.34,379.52,260.19,390.51Z"/><path class="cls-165" d="M286.49,443.53c-25.06,12.43-51.65,10-59.27-5.33s6.56-38,31.61-50.42,51.65-10,59.28,5.33S311.55,431.1,286.49,443.53ZM259.41,389c-11,5.45-20.05,13.23-25.49,21.9-5.61,8.94-6.75,17.79-3.21,24.92s11.27,11.58,21.78,12.52c10.2.91,21.87-1.59,32.87-7.05s20.05-13.23,25.49-21.9c5.61-8.94,6.75-17.79,3.21-24.92s-11.27-11.58-21.78-12.52C282.08,381,270.41,383.49,259.41,389Z"/><path class="cls-166" d="M287.16,444.88c-25.5,12.65-52.57,10.23-61.17-5.28.13.29.26.58.41.87,8.06,16.26,35.65,19,61.61,6.12s40.47-36.5,32.4-52.76c-.14-.28-.29-.57-.44-.84C327.11,409.21,312.67,432.23,287.16,444.88Z"/><path class="cls-6" d="M285.3,441.4c-25.42,12.61-51.51,12-60.1-3.53.13.29.26.58.4.86,8.07,16.26,35.58,19,61.45,6.2s40.31-36.42,32.25-52.68c-.15-.28-.29-.56-.45-.84C326,407.63,310.72,428.79,285.3,441.4Z"/><path class="cls-6" d="M253.25,393.82c-5.56,3.25-19.25,12.42-22.69,25.52a1.89,1.89,0,0,1-1.69,1.4h0a1.88,1.88,0,0,1-1.92-2.46c1.67-5,7.21-16.23,24.87-26.75a1.31,1.31,0,0,1,1.11-.11l.08,0A1.31,1.31,0,0,1,253.25,393.82Z"/><path class="cls-167" d="M320.75,392.23l8.92,18s1.74,7,0,12.28l-6.85-13.8S324.72,402.92,320.75,392.23Z"/><path class="cls-168" d="M223.9,439.07l8.92,18s4.52,5.62,9.8,7.4l-6.84-13.79S230,448.7,223.9,439.07Z"/><path class="cls-169" d="M300.36,455.83,294.47,444c-2,1.18-4,2.3-6.09,3.34q-3.48,1.72-7,3.07l5.9,11.88q3.48-1.37,7-3.09Q297.43,457.59,300.36,455.83Z"/><path class="cls-170" d="M311.85,447.47l-5.53-12.28A76.78,76.78,0,0,1,294.47,444l5.89,11.87A76.6,76.6,0,0,0,311.85,447.47Z"/><path class="cls-170" d="M278.17,451.55c-1.45.54-3.86,1.15-3.86,1.15l5.93,11.95c1.19-.35,2.38-.72,3.58-1.13l.24-.09Z"/><path class="cls-170" d="M270.89,453.51l-1.45.43a1.22,1.22,0,0,0-.76,1.72l4.81,9.69a1.22,1.22,0,0,0,1.44.63l2.19-.71a.59.59,0,0,0,.34-.83l-5.11-10.31A1.21,1.21,0,0,0,270.89,453.51Z"/><path class="cls-167" d="M270.84,465.23l-4.73-9.54a1.3,1.3,0,0,0-1.36-.7l-2.39.36c-.85.13-6.42,0-6.05.77l-1.59,11.34c.23.51,11.91.09,12.47,0,.89-.11,1.79-.24,2.7-.4A1.29,1.29,0,0,0,270.84,465.23Z"/><path class="cls-161" d="M275.47,443.15c-5.7,2.83-9,.7-10.52-.83A6,6,0,0,1,263,437c.4-2.36,2.31-4.41,5.68-6.09l.73-.34a3.63,3.63,0,0,0,.87-1.11,3,3,0,0,0-.4-.29c-2.26-1.39-4.5-2.56-5.94-3.28a24.42,24.42,0,0,0-3.25,3.7c-2.58,4.1-4.59,6.3-6.7,7.35a6.45,6.45,0,0,1-2.2.65h-.15a6.46,6.46,0,0,1-4.79-1.59c-1.82-1.8-3.4-4.92-.65-9.6a25.73,25.73,0,0,1,3-3.94l1.05-1.21a41.17,41.17,0,0,1,3.82-3.86l.29-.26a21.39,21.39,0,0,1-4.3-5.47c-1.86-3.69-4.39,1.48-3.73-2.75,1.08-7,12.25-13.3,15.42-14.87,4.13-2.05,4.9-1,8.28,1.89a49.22,49.22,0,0,1,4.1,3.88,3.74,3.74,0,0,0,.3-1.75c0-.71-.08-1.44-.13-2.14-.19-2.26-1.95-2-.67-4a29.47,29.47,0,0,1,6.41-3.94c2.06-.3,6.39-2.32,8.13,2.27,1.17,2.69.72,6.07.44,8.1l0,.23v.05c-.39,2.36-2.16,6.65-3.5,9.57,2.55.36,7,1.26,9.6,3.27a55,55,0,0,1,7.41,6.6,5,5,0,0,1,1.29,3.55c-.09,2.34-1.57,4.7-4.17,6.68a12.5,12.5,0,0,1-2.21,1.42l0,0c-2.44,1.15-4.6,1.18-6.41.08a8.77,8.77,0,0,1-2.88-3.35,8.19,8.19,0,0,0-.57-.92,5.64,5.64,0,0,0-2.59-2c1.37,3.14,2.62,7.94-.1,11.76A26.27,26.27,0,0,1,275.47,443.15Zm-14.53-40.39c-.35.3-1.88,1.71-1,3.12,1,1.75,1.86,1.53,2.74,1.1a7.91,7.91,0,0,0,1.84-1.36,13.38,13.38,0,0,0,2.3-2.57,5.17,5.17,0,0,0-.6-.61c-1.9-1.69-2.35-1.57-3.26-1.12a9,9,0,0,0-1.9,1.36l-.07.06Z"/><path class="cls-162" d="M294.32,414c-2-1.53-8.56-1.93-11.37-2.11a1.21,1.21,0,0,1-1.1-1.82c1.36-2.63,3.64-7.6,4.06-9.83.23-1.54.74-4.48-.12-6.39-.53-1.48-2.35-6.45-5.09-6-2.49.4-2.65,5.62-2.65,5.62-1.09,1.55-.48,4-.46,6.72a5,5,0,0,1-2.76,4.92c-1,.48-.77-.66-5.71-4.75s-12.42-3.3-16,1.19c-4.57,5.72,2.73,13.52,6.09,16.58-.5,1-3.42,3.07-5.68,5.67-1.4,1.61-5.27,1-6.29,2.67-1.42,2.3,1,6,2.7,7.64a3.48,3.48,0,0,0,2.59.71c2-.24,4-2.33,6.71-6.42a30,30,0,0,1,4.91-5.15,80.86,80.86,0,0,1,7.38,3.77c3.74,2.18-.15,5.44-.61,5.67s-5.16-.69-6.34,1.15c-.36.57.14,1.63.25,2.3a12.93,12.93,0,0,0,2.27,3.51c3.77,3.79,11.46-2,14.68-6.39s-1.43-11-1.43-11c4-2.61,7,.21,8.3,1.78s1.9,5.11,6.21,3.07a9.28,9.28,0,0,0,1.68-1.08c2.09-1.55,3-3.11,3.05-4.34,0-.57-.36-1-.54-1.5C298.05,417.3,297.28,416.28,294.32,414Zm-27.2-4.78c-3.69,3.4-6.6,2.78-8.36-.13-2-3.29,1.67-6.2,1.67-6.2,4-3.45,6.05-2.36,8.37-.36S270.76,405.87,267.12,409.25Z"/><path class="cls-171" d="M290.68,411c-2-1.53-6.66-2.34-9.47-2.52a1.2,1.2,0,0,1-1.09-1.82c1.35-2.64,3.63-7.61,4.05-9.83.24-1.55.75-4.49-.11-6.4a3.52,3.52,0,0,0-4.33-2.53,4.72,4.72,0,0,0-3.41,2.15c-1.09,1.54-.49,4-.47,6.71a5,5,0,0,1-2.76,4.92c-1,.48-.77-.66-5.71-4.75s-10.67-.06-14.27,4.43c-4.57,5.71,1,10.28,4.34,13.34-.5,1-3.41,3.08-5.67,5.67a36.22,36.22,0,0,0-3.7,4.5c-1.42,2.3-1.59,4.19.1,5.82a3.56,3.56,0,0,0,2.6.7c2-.24,4-2.33,6.7-6.42a30,30,0,0,1,4.92-5.14,80.86,80.86,0,0,1,7.38,3.77c3.74,2.17-.15,5.43-.61,5.66s-7.67,3.17-3.83,7,11.46-2.05,14.69-6.4-1.43-11-1.43-11c4-2.61,7,.21,8.29,1.79s1.9,5.11,6.21,3.07a10.51,10.51,0,0,0,1.68-1.08c2.1-1.56,3-3.12,3.06-4.35a2,2,0,0,0-.54-1.49A47.12,47.12,0,0,0,290.68,411Z"/><path class="cls-172" d="M283.57,389.33a4.92,4.92,0,0,1,.39.88c.86,1.91.36,4.85.12,6.39-.42,2.23-2.7,7.2-4.05,9.84a1.18,1.18,0,0,0,1,1.8,1.45,1.45,0,0,1,.16-.58c1.35-2.64,3.63-7.61,4.05-9.84.24-1.54.75-4.48-.11-6.39A4,4,0,0,0,283.57,389.33Z"/><path class="cls-172" d="M298.32,417.72c-.29-.32-.58-.62-.88-.91a1.93,1.93,0,0,1,.3,1.18c-.07,1.23-1,2.79-3.05,4.34a9.28,9.28,0,0,1-1.68,1.08c-1.85.88-3,.73-3.85.15.89,1.34,2.12,2.42,5,1.08a10.51,10.51,0,0,0,1.68-1.08c2.1-1.56,3-3.12,3.05-4.35A2,2,0,0,0,298.32,417.72Z"/><path class="cls-172" d="M270.8,424.59l.3.2a3.2,3.2,0,0,0-1.42-1.42,81.46,81.46,0,0,0-7.37-3.77,30.28,30.28,0,0,0-4.92,5.15c-2.69,4.09-4.74,6.18-6.71,6.42a3.88,3.88,0,0,1-2.25-.46,4.26,4.26,0,0,0,.77,1,3.48,3.48,0,0,0,2.59.71c2-.24,4-2.33,6.71-6.42a30,30,0,0,1,4.92-5.14A82.25,82.25,0,0,1,270.8,424.59Z"/><path class="cls-172" d="M286.8,420.34c-1.29-1.57-4.33-4.39-8.3-1.78,0,0,4.65,6.69,1.43,11.05-3.11,4.2-10.37,9.77-14.27,6.75a4.68,4.68,0,0,0,.7.87c3.78,3.78,11.46-2.05,14.68-6.4s-1.42-11.05-1.42-11.05c3.17-2.09,5.76-.69,7.32.75Z"/><path class="cls-173" d="M265.22,406c-3.81,3.52-6.81,2.88-8.63-.13-2.07-3.39,1.73-6.4,1.73-6.4,4.12-3.56,6.24-2.43,8.64-.37S269,402.54,265.22,406Z"/><path class="cls-174" d="M258.86,401.31c4.11-3.57,6.24-2.44,8.63-.38a7.41,7.41,0,0,1,1,1c.28-1.05-.22-1.91-1.43-2.95-2.4-2.06-4.53-3.19-8.64.37,0,0-3.61,2.85-1.88,6.14C256.59,403.1,258.86,401.31,258.86,401.31Z"/><path class="cls-172" d="M267,399a6.76,6.76,0,0,0-3.59-1.88,9.46,9.46,0,0,1,2.4,1.58c2.43,2.05,2,3.42-1.84,7-2,1.84-3.8,2.56-5.31,2.43,1.72.75,3.92.21,6.49-2.13C269,402.39,269.42,401,267,399Z"/></g><path class="cls-175" d="M480.72,370.9l80.1-55.45S431.43,357,437.6,349.34s89.33-154,89.33-154S394.47,321.61,394.47,310.83s23.1-132.46,23.1-132.46L365.2,300.05l-40-127.84,1.54,126.3-94-117.06,49.29,114L172.67,246.14s81.64,58.53,87.8,58.53,52.36,4.62,47.74,15.4-21.56,37,18.49,32.35,63.15-15.4,77-4.62,23.1,35.43,50.83,32.34S480.72,370.9,480.72,370.9Z"/><path class="cls-176" d="M423.83,389.82l100.78-57.69s-117.24,32.56-115.51,29.1,71-111.25,71-111.25L372.72,339.57l28-109.44-47.91,95.58L336.35,231.5l-1,87.58-56.54-72.52L302.39,322l-64.62-38.42,51.91,48.8s7.56,6,39.14-5c15.74-5.48,37.81,18.48,50,17.8s8.66,10,13.85,10.89,9.53,10.4,11.27,13.86,20.88,16.92,20.88,16.92"/><polygon class="cls-6" points="183.05 384.54 167.1 358.6 148.58 364.36 165.41 351.22 158.49 326.56 171.58 348.02 192.6 345.06 175.32 355.44 183.05 384.54"/><polygon class="cls-6" points="382.38 409.28 350.77 357.85 314.04 369.26 347.41 343.22 333.69 294.33 359.65 336.87 401.33 331 367.07 351.57 382.38 409.28"/><polygon class="cls-6" points="532.94 427.38 514.41 397.22 492.87 403.92 512.43 388.65 504.39 359.98 519.61 384.92 544.05 381.48 523.96 393.54 532.94 427.38"/><polygon class="cls-6" points="398.1 512.5 367.93 463.41 332.86 474.3 364.71 449.45 351.62 402.77 376.4 443.38 416.19 437.78 383.48 457.42 398.1 512.5"/><path class="cls-2" d="M598,699.25c-.68,20.33-16.15,36.3-50.31,35.17s-61.29-18.53-60.61-38.86,28.91-35.88,63.06-34.74S598.66,678.93,598,699.25Z"/><path class="cls-177" d="M547,731.49c-31.44-1-56.76-15.22-60.73-37-.42-2.3.2-12.29.28-14.67.14-4.29.2-9.55,1.7-13.44,7.25-18.68,29.65-30.68,61.9-29.61s53.8,14.54,59.79,33.65c1.24,4,1,9.23.8,13.53-.07,2.37-.12,12.39-.69,14.65C604.62,720.07,578.41,732.54,547,731.49Z"/><ellipse class="cls-178" cx="548.88" cy="674.15" rx="32.67" ry="53.3" transform="translate(-143.12 1200.35) rotate(-88.1)"/><ellipse class="cls-179" cx="548.88" cy="674.15" rx="32.67" ry="53.3" transform="translate(-143.12 1200.35) rotate(-88.1)"/><path class="cls-180" d="M549.76,647.4c27.66.92,49.67,14.37,49.15,30.05a17,17,0,0,1-.86,4.7A17,17,0,0,0,600.5,674c.52-15.68-22.14-29.15-50.62-30.1s-52,11-52.51,26.67a17,17,0,0,0,1.91,8.26,16.51,16.51,0,0,1-.54-4.75C499.26,658.45,522.1,646.48,549.76,647.4Z"/><path class="cls-181" d="M567.7,655.72a1.6,1.6,0,0,1,0,.23c.09,1.13.19,1.9.28,2.58s.15,1.16.2,1.82a.34.34,0,0,0,0,.1,22.65,22.65,0,0,1,.29,3.45L568.4,670a2.52,2.52,0,0,1-.3,1.18,1.9,1.9,0,0,0,.24,2,10.36,10.36,0,0,1,2.19,4.93,2.56,2.56,0,0,1,.22,1.16l-.27,8.27a2.62,2.62,0,0,1-.2.92,11.69,11.69,0,0,1-1.81,4.79c-3.9,6-14,6.56-19.71,6.37h0a62.11,62.11,0,0,1-17.16-3,4.47,4.47,0,0,1-3-4.51c.13-2.16.14-3.72.15-4.91,0-.61,0-1.14,0-1.61,0,0,0-.07,0-.11l.54-7.21a2.79,2.79,0,0,1,.33-1.12l.18-.28a1.92,1.92,0,0,0,.2-2.08,9.39,9.39,0,0,1-1-5.32l.08-5.48a3.27,3.27,0,0,1,.13-.76.81.81,0,0,1,0-.16,11.08,11.08,0,0,1,2-5.52,1.85,1.85,0,0,0-1.93-2.92c-13.84,3.67-23.49,11.69-23.81,21.31-.46,13.71,18.24,25.46,41.76,26.24s43-9.7,43.41-23.42C591,669,581.62,660.24,567.7,655.72Z"/><path class="cls-182" d="M608.65,676.85c-.69,20.68-28,36.56-61,35.46s-59.24-18.75-58.56-39.44,28-36.56,61.05-35.46S609.34,656.16,608.65,676.85Zm-58.74-34c-28.17-.94-51.48,12.3-52.06,29.58s21.81,32,50,33,51.48-12.3,52.06-29.58S578.09,643.81,549.91,642.88Z"/><path class="cls-183" d="M547.67,710.32c-31.87-1.06-57.28-17.83-56.63-37.38s27.11-34.6,59-33.54,57.28,17.83,56.63,37.38S579.55,711.38,547.67,710.32ZM550,640.89c-14-.47-27.28,2.45-37.43,8.22-10.46,5.94-16.38,14.21-16.69,23.28s5.07,17.72,15.11,24.34c9.74,6.42,22.81,10.22,36.8,10.68s27.28-2.45,37.43-8.22c10.46-5.94,16.39-14.21,16.69-23.28s-5.07-17.71-15.11-24.34C577,645.15,564,641.35,550,640.89Z"/><path class="cls-184" d="M547.62,712c-32.45-1.08-58.32-18.14-58.57-38.35,0,.36-.05.72-.06,1.09-.69,20.68,25.53,38.34,58.55,39.44s60.36-14.79,61.05-35.47c0-.36,0-.73,0-1.09C607,697.81,580.06,713.12,547.62,712Z"/><path class="cls-6" d="M547.63,707.54c-32.33-1.07-58.19-15.81-58.44-36,0,.36-.05.72-.06,1.08-.69,20.69,25.44,38.34,58.35,39.43s60.15-14.78,60.84-35.47c0-.36,0-.72,0-1.09C606.74,695.62,580,708.62,547.63,707.54Z"/><path class="cls-6" d="M541.16,642.44c-7.35.27-26,2.08-36.57,13.37a2.16,2.16,0,0,1-2.45.5h0a2.15,2.15,0,0,1-.6-3.52c4.37-4.1,16-12.39,39.42-13.41a1.52,1.52,0,0,1,1.17.48l.07.08A1.49,1.49,0,0,1,541.16,642.44Z"/><path class="cls-185" d="M609.79,677.33,609,700.18s-2,8-6.67,12.31l.58-17.55S608,690.21,609.79,677.33Z"/><path class="cls-186" d="M487.24,672l-.76,22.86s1.51,8.08,5.85,12.72l.58-17.55S488.17,685,487.24,672Z"/><path class="cls-187" d="M555,730.17l.5-15.1c-2.59.12-5.24.15-7.92.06-2.94-.1-5.83-.34-8.66-.69l-.5,15.11c2.82.34,5.71.57,8.66.66C549.72,730.3,552.36,730.28,555,730.17Z"/><path class="cls-188" d="M571,728l1.09-15.31a88.35,88.35,0,0,1-16.64,2.4l-.5,15.1A87.39,87.39,0,0,0,571,728Z"/><path class="cls-188" d="M535,713.88c-1.74-.25-4.5-.93-4.5-.93l-.5,15.19c1.38.3,2.78.57,4.21.81l.28,0Z"/><path class="cls-188" d="M526.62,711.91l-1.69-.35a1.39,1.39,0,0,0-1.69,1.31l-.41,12.33a1.38,1.38,0,0,0,1.11,1.41c.64.13,1.81.34,2.58.47a.68.68,0,0,0,.8-.65l.43-13.11A1.4,1.4,0,0,0,526.62,711.91Z"/><path class="cls-185" d="M520.23,723.65l.41-12.13a1.49,1.49,0,0,0-1-1.44l-2.6-.93c-.92-.33-6.44-3.48-6.49-2.49l-7.73,10.52c0,.63,11.92,6.53,12.51,6.76,1,.37,1.94.72,2.93,1.06A1.48,1.48,0,0,0,520.23,723.65Z"/><path class="cls-179" d="M536.81,704c-7.25-.24-9.45-4.18-10.11-6.51a6.77,6.77,0,0,1,.92-6.34c1.68-2.16,4.7-3.19,9-3l.92,0a4,4,0,0,0,1.47-.64,2.52,2.52,0,0,0-.24-.51c-1.53-2.62-3.14-5-4.2-6.51a28.16,28.16,0,0,0-5.26,2c-4.81,2.72-8,3.84-10.7,3.75a7.45,7.45,0,0,1-2.56-.53l-.08,0-.08,0a7.28,7.28,0,0,1-3.95-4.18c-.85-2.79-.76-6.78,4.53-10a29.44,29.44,0,0,1,5.16-2.33l1.7-.65a46.3,46.3,0,0,1,5.92-1.8l.43-.11a24.25,24.25,0,0,1-1.35-7.81c.12-4.72-5.21-.89-2.27-4.78,4.87-6.44,19.49-6.73,23.52-6.6,5.26.18,5.47,1.64,7.3,6.38a59.15,59.15,0,0,1,2,6.11,4.48,4.48,0,0,0,1.25-1.61c.36-.72.69-1.48,1-2.21,1-2.38-.87-3,1.48-4.35.61-.38,7.62-.83,8.56-.49,2.24.81,7.68,1.12,6.94,6.67-.28,3.34-2.56,6.48-3.93,8.37l-.16.22,0,0c-1.67,2.16-5.77,5.5-8.69,7.72,2.37,1.74,6.4,5.07,7.88,8.47a62.31,62.31,0,0,1,3.86,10.63,5.76,5.76,0,0,1-.62,4.26c-1.35,2.29-4.12,3.87-7.8,4.45a14,14,0,0,1-3,.24h-.06c-3.08-.17-5.26-1.3-6.48-3.38a10,10,0,0,1-1.09-4.92,10,10,0,0,0-.07-1.24,6.35,6.35,0,0,0-1.51-3.44c-.31,3.9-1.65,9.39-6.46,11.76A29.81,29.81,0,0,1,536.81,704Zm7.24-48.4c-.52.11-2.81.7-2.72,2.58.11,2.32,1,2.54,2.15,2.58a9.14,9.14,0,0,0,2.59-.37,14.52,14.52,0,0,0,3.7-1.34,6.32,6.32,0,0,0-.27-.93c-1-2.73-1.51-2.85-2.68-2.89a10.56,10.56,0,0,0-2.64.34l-.1,0Z"/><path class="cls-180" d="M571.47,684.94c-1.2-2.64-7.55-6.57-10.28-8.27a1.36,1.36,0,0,1-.11-2.41c2.78-1.92,7.76-5.68,9.38-7.69,1.07-1.41,3.17-4.1,3.34-6.48.26-1.77,1.12-7.74-1.87-8.78-2.72-.95-5.69,4.21-5.69,4.21-1.93,1-2.65,3.75-4.1,6.5a5.69,5.69,0,0,1-5.43,3.44c-1.23,0-.41-1.07-3.16-7.85s-10.69-10-16.73-7.45c-7.68,3.26-4.56,15-2.85,19.93-1.06.77-5.09,1.24-8.76,2.62-2.28.87-5.84-1.83-7.75-.72-2.67,1.55-2.25,6.59-1.43,9.14a4,4,0,0,0,2.23,2.1c2.1.83,5.29-.16,10.19-2.82a34.58,34.58,0,0,1,7.72-2.51,93.6,93.6,0,0,1,5.38,7.77c2.57,4.21-3.1,5.38-3.68,5.36-.41,0-4.81-3.48-7-2.26-.67.37-.74,1.71-1,2.44a14.91,14.91,0,0,0,.38,4.75c1.74,5.84,12.61,4.14,18.2,1.51S553,685.6,553,685.6c5.39-.47,6.92,4,7.36,6.28s-.85,6.16,4.58,6.44a11.23,11.23,0,0,0,2.27-.18c2.94-.43,4.68-1.51,5.41-2.71.34-.55.17-1.17.27-1.79C573.46,690.23,573.24,688.79,571.47,684.94Zm-24.72-19.51c-5.55,1.43-8.13-.77-8.33-4.65-.24-4.38,5-5.31,5-5.31,5.87-1.31,7.35.9,8.6,4.16S552.23,664,546.75,665.43Z"/><path class="cls-189" d="M569.48,679.88c-1.21-2.64-5.41-6-8.14-7.66a1.36,1.36,0,0,1-.11-2.41c2.78-1.92,7.76-5.68,9.38-7.69,1.07-1.41,3.17-4.1,3.34-6.48.26-1.76,0-3.83-3-4.87a5.4,5.4,0,0,0-4.58.31c-1.94,1-2.65,3.74-4.1,6.49a5.7,5.7,0,0,1-5.43,3.44c-1.23,0-.41-1.07-3.17-7.85S543,647.33,537,649.89c-7.68,3.27-4.56,10.86-2.85,15.75-1.06.77-5.09,1.24-8.76,2.62a41,41,0,0,0-6.14,2.52c-2.67,1.55-3.86,3.35-3,5.9a4,4,0,0,0,2.22,2.1c2.11.83,5.3-.16,10.2-2.82a34.41,34.41,0,0,1,7.72-2.51,94.15,94.15,0,0,1,5.37,7.78c2.58,4.2-3.09,5.37-3.67,5.35s-9.42-1-7.61,4.93,12.62,4.14,18.2,1.51,4.54-11.87,4.54-11.87c5.39-.47,6.92,4,7.36,6.28s-.85,6.16,4.58,6.44a10.6,10.6,0,0,0,2.27-.18c2.94-.43,4.68-1.51,5.41-2.71a2.26,2.26,0,0,0,.27-1.79A53.83,53.83,0,0,0,569.48,679.88Z"/><path class="cls-190" d="M574,654.32a8,8,0,0,1-.08,1.1c-.17,2.38-2.27,5.06-3.34,6.48-1.62,2-6.6,5.76-9.38,7.68a1.35,1.35,0,0,0,0,2.33,1.84,1.84,0,0,1,.47-.5c2.79-1.92,7.76-5.67,9.38-7.68,1.08-1.42,3.18-4.1,3.35-6.49A4.58,4.58,0,0,0,574,654.32Z"/><path class="cls-190" d="M573.5,690.79c-.12-.47-.25-.92-.39-1.38a2.27,2.27,0,0,1-.34,1.35c-.74,1.19-2.47,2.28-5.41,2.71a11.29,11.29,0,0,1-2.27.18c-2.33-.12-3.42-.91-3.94-1.94.16,1.83.81,3.58,4.39,3.76a11.18,11.18,0,0,0,2.27-.17c3-.43,4.68-1.52,5.42-2.72A2.31,2.31,0,0,0,573.5,690.79Z"/><path class="cls-190" d="M542.15,682.83c.07.12.14.24.2.36a3.74,3.74,0,0,0-.66-2.19,92.93,92.93,0,0,0-5.37-7.77,34.41,34.41,0,0,0-7.72,2.51c-4.91,2.65-8.09,3.64-10.2,2.82a4.48,4.48,0,0,1-2-1.67,5.21,5.21,0,0,0,.26,1.39,4,4,0,0,0,2.22,2.11c2.11.82,5.29-.17,10.2-2.82a34.41,34.41,0,0,1,7.72-2.51A92.93,92.93,0,0,1,542.15,682.83Z"/><path class="cls-190" d="M560.51,687.21c-.44-2.28-2-6.75-7.36-6.28,0,0,1.05,9.24-4.54,11.87-5.39,2.53-15.69,4.21-18-.93a5.09,5.09,0,0,0,.24,1.24c1.75,5.84,12.61,4.14,18.2,1.51s4.54-11.86,4.54-11.86c4.31-.38,6.16,2.42,6.94,4.72A2.51,2.51,0,0,0,560.51,687.21Z"/><path class="cls-191" d="M546.58,661.18c-5.73,1.47-8.39-.8-8.59-4.8-.25-4.52,5.19-5.48,5.19-5.48,6.06-1.36,7.58.92,8.87,4.29S552.24,659.71,546.58,661.18Z"/><path class="cls-192" d="M542.74,653c6.06-1.36,7.59.92,8.88,4.29a7.84,7.84,0,0,1,.43,1.51c.85-.9.81-2,.16-3.74-1.29-3.36-2.82-5.64-8.88-4.29,0,0-5.16.92-5.19,5.14C539.5,653.57,542.74,653,542.74,653Z"/><path class="cls-190" d="M552.17,655.06a7.63,7.63,0,0,0-2.58-3.82,10.49,10.49,0,0,1,1.55,2.88c1.33,3.37.2,4.52-5.61,6-3,.75-5.2.52-6.64-.42,1.32,1.68,3.82,2.32,7.67,1.36C552.37,659.58,553.5,658.43,552.17,655.06Z"/><polygon class="cls-6" points="500.56 678.12 494.24 653.55 478.07 653.58 494.7 647.26 495.26 625.93 500.41 646.22 517.87 649.04 501.56 653.05 500.56 678.12"/></svg>