<svg xmlns="http://www.w3.org/2000/svg" viewBox="0 0 800 800"><defs><style>.cls-1{isolation:isolate;}.cls-2{fill:#1c1c1c;opacity:0.2;}.cls-3{fill:#4c0f1b;stroke:#1a0f1b;stroke-width:11.24px;}.cls-11,.cls-26,.cls-28,.cls-3{stroke-miterlimit:10;}.cls-4{fill:#66101d;}.cls-5{fill:#6e1c29;}.cls-6{fill:#fea401;}.cls-27,.cls-7{fill:#891811;}.cls-8{fill:#a24f40;}.cls-9{fill:#500e19;}.cls-10{fill:#d6960b;}.cls-11,.cls-26,.cls-28,.cls-33{fill:none;}.cls-11,.cls-26,.cls-28{stroke:#000;}.cls-11{stroke-width:0.25px;}.cls-12{fill:#d6ac00;}.cls-13{fill:#a64001;}.cls-14{fill:#f2c644;}.cls-15{fill:#e7ba33;}.cls-16{fill:#fec82e;}.cls-17{fill:#fde56c;}.cls-18{fill:#a65801;}.cls-19{fill:#fff;}.cls-20{fill:#ffeba2;}.cls-21{fill:#be7e4c;}.cls-22{fill:#ac7e4c;}.cls-23{fill:#ebc656;}.cls-24{fill:#e5b420;}.cls-25{fill:#b86734;}.cls-26{stroke-width:0.29px;}.cls-27{mix-blend-mode:multiply;opacity:0.3;}.cls-28{stroke-width:0.37px;}.cls-29{fill:#710e19;}.cls-30{fill:#d98200;}.cls-31{mix-blend-mode:luminosity;opacity:0.5;}.cls-32{mix-blend-mode:overlay;}.cls-33{stroke:#450000;stroke-linecap:round;stroke-linejoin:round;stroke-width:3.08px;stroke-dasharray:12.24 12.24;}</style></defs><g class="cls-1"><g id="Layer_1" data-name="Layer 1"><path class="cls-2" d="M677.27,612.46S804.56,686,717.77,713.59s-188,49-245.91,49S354,756.71,293.2,759.77s-68.78,0-118-6.12-110.3-21.45-110.3-42.9,51.07-89.1,140.75-79.9S402.43,689.07,469,689.07,677.27,612.46,677.27,612.46Z"/><path class="cls-3" d="M186.72,312.08S75.78,442,90.86,540.67C107.61,650.32,67.51,666,73.66,679.56c16.2,35.42,71.41,12.19,94.55,24.25,6,3.12,10.59,8.32,16.19,12.09,9.68,6.52,21.69,8.38,33.29,9.64,43.68,4.75,86.82,14.21,130.1,18.56,82.28,8.26,165.21,4.21,246.85-8.32,22.56-3.47,171.41-44.87,161.09-82-6.15-22.12-44.24-28.26-40.56-59s6.15-39.32,1.23-67.59-6.14-72.51-56.53-121.67l-50.39-49.15s41.79-22.13,38.1-61.45-52.85-72.51-52.85-72.51,33.19-19.66,27-50.39-55.3-60.22-72.51-60.22h-17.2S497.65,94.56,476.75,97c0,0-83.57-86-189.26-35.64,0,0-113.78,32.74-125.35,82.34-8.6,36.86-26.5,32.42-43,47.93-19.24,18.06-28.27,73.73,2.45,81.11S186.72,312.08,186.72,312.08Z"/><path class="cls-4" d="M712.91,640s-49,49-79.67,46-67.42,24.51-131.77,30.64-134.83,0-104.19-12.26,104.19-15.32,153.22-46S608.72,591,639.37,591s91.93,42.9,88.87,58.22"/><path class="cls-5" d="M238.26,391.45s-145.7,116.19-79,164.67C280,643.94,281.44,658.58,310.71,622s10.35-71.12,49.87-110.64,45.39-37.47,55.75-57.88c9.49-18.68,2.8,28.6-8.91,63.74s0,111.25,29.28,127.35,55.62,26.35,67.33-82-2.92-146.38-42.45-147.84S408.89,419.13,384,406s-28.39,23.64-13.17,48.3c9.39,15.23-72.08,101.92-132.57,68.92C190,496.84,255.82,387.06,238.26,391.45Z"/><path class="cls-6" d="M520.14,403S526,476.22,526,539.16s0,68.8-5.85,87.83,1.46,41,1.46,41l27.81-1.47s13.18-17.56,1.47-38L539.16,608s0-169.8-4.39-203.47C531.85,401.56,520.14,403,520.14,403Z"/><path class="cls-6" d="M182,305.68a192.25,192.25,0,0,0,52.7,24.89c30.25,8.78,64.9,20.25,68.8,30s-1.95,12.68-19.52,6.83-59.77-17.57-82.21-27.33S172.24,329.11,182,305.68Z"/><path class="cls-6" d="M365,387.9s42,12.69,70.26,11.71,38.6-4.32,37.58-10.49c-1-5.85.48-7.07-22.94-5.12s-72.68-7.7-81.49-8.44C359.81,374.85,360.79,387.09,365,387.9Z"/><path class="cls-6" d="M562.59,371.31s-33.18,9.27-42,10.25-5.85,11.71-2,12.2,49.77-6.35,67.82-15.62,26.35-9.76,23.43-16.59-5.86-4.39-5.86-4.39S574.3,368.38,562.59,371.31Z"/><path class="cls-6" d="M539.16,404.49s4.4,14.64,13.18,58.55,22,62.95,24.88,89.3,7.32,42.45,4.4,58.55-2.93,42.45,4.39,55.62,23.42,13.18,35.13,8.79,0-35.13-11.71-49.77-13.18-45.38-14.64-60-14.64-89.29-29.28-125.89-16.1-43.91-16.1-43.91Z"/><path class="cls-6" d="M569.9,382.54s0,21.95-24.88,29.27-30.74-1.46-30.74-7.32,4.39-17.56,4.39-17.56Z"/><path class="cls-7" d="M551.38,191.46s-18.15-29.76-59.05-55.82C481,128.43,461.9,218.49,453,215.31c-10.84-3.87,38.68-42.47-32.66-63.73-20.28-6.05-74-45.31-90.38-44.43-10.22.55-13.43,11.85-18.39,12.26-7.42.62-39.78.28-59.74,7.66-27.3,10.1-44.69,11.25-81.05,52.68-62.94,71.73-57.09,60-45.38,71.73s140.53,77.58,180,87.82,112.71,29.28,143.45,26.35,56.62-3.06,81.5-20.62,19.51-46.71,18-73.06,20.5-46.84,14.64-58.55S551.38,191.46,551.38,191.46Z"/><path class="cls-8" d="M583.08,227.37s46.84,26.35,38.06,70.26S588,349.57,550,352.5s-40.06.76-40.06.76l-4.39-7.32s75.9-5.87,76.71-58.11c.51-32.47-25.36-44-25.36-44S568.44,215.66,583.08,227.37Z"/><path class="cls-9" d="M489,190.61A71,71,0,0,0,440.1,165.1c-10.25-.91-22.05-3.72-31.21-10.92-20.5-16.1-68.8-38.06-82-33.67s-45.38,11.71-52.7,38.06S252.26,196.63,223,206.88s-42.45-7.32-49.77,11.71,2.93,23.42,22,35.13,86.36,42.45,123,55.62S410.35,344.48,448.41,343s61.48,8.79,84.9,0,30.74-14.64,29.28-52.7S552.34,242,552.34,242s-27.81,7.32-45.38-24.89A174,174,0,0,0,489,190.61Z"/><path class="cls-10" d="M492.46,281.68c38.32-25.38,59.14-61.29,47.7-89.6-1.21-3-9.51-14.11-11.39-16.81-3.41-4.88-7.44-10.94-12.24-14.3-23.08-16.12-60-12.85-99.29,13.18s-56,58.22-49,85c1.45,5.58,5.77,11.45,9.18,16.32,1.89,2.7,9.49,14.29,11.9,16.48C412.15,312.72,454.14,307.05,492.46,281.68Z"/><ellipse class="cls-11" cx="446.91" cy="216.56" rx="77.88" ry="45.22" transform="translate(-46.1 276.3) rotate(-32.76)"/><ellipse class="cls-12" cx="446.91" cy="216.56" rx="77.88" ry="45.22" transform="translate(-46.1 276.3) rotate(-32.76)"/><path class="cls-13" d="M425.66,186.19c-33.71,22.32-51,54.85-38.5,72.65a22.27,22.27,0,0,0,4.61,4.79,22.94,22.94,0,0,1-9.16-7.53c-12.45-17.8,5.59-50.86,40.31-73.84s72.94-27.19,85.39-9.38a22.06,22.06,0,0,1,3.84,11.05,21.74,21.74,0,0,0-2.89-5.93C496.8,160.2,459.38,163.86,425.66,186.19Z"/><path class="cls-13" d="M426.72,237.38l.16-.09c-2.51-4.38-1.59-11,5.68-18.35,6.7-6.78,10.65-11.21,12.6-14.36a30.76,30.76,0,0,0-8.93,4.51c-8.07,5.48-11.62,11.23-12.86,13.68l-.71,2-4.77-7.08a26,26,0,0,1-2-3.85c-.92-1.63-1.31-2.85-2.8-5.61,14.2-15.34,37.28-28.92,46.74-17.22.13.16.22.32.33.48a3.59,3.59,0,0,1,.36.25l4.3,6.41c7,8.7-5.36,20.31-13.19,29.39,9.12-6.61,20.16-18.52,19.45-18.88l6.13,8c1.28,1.82,2.85,4.48,6.33,9-11.17,14-33.92,29.57-45,24.89a12.19,12.19,0,0,1-5-3.84h-.21Z"/><path class="cls-14" d="M409.62,209.62c0,.1.08.21.13.31.74,1.37,1.2,2.34,1.6,3.2s.68,1.46,1.12,2.26l.06.13a28.42,28.42,0,0,0,2.24,4.22l4.74,7a3.53,3.53,0,0,0,1.26,1.14,2.5,2.5,0,0,1,1.25,2.55,13.38,13.38,0,0,0,1,7.41,3.43,3.43,0,0,0,.59,1.52l6.57,9.39a3.58,3.58,0,0,0,.94.92,16,16,0,0,0,5.85,4.16c9.35,3.95,22.38-3.16,29.31-7.75h0a93.91,93.91,0,0,0,19.06-16.72,6,6,0,0,0,.34-7.55c-1.78-2.42-3-4.22-3.88-5.6-.46-.7-.86-1.3-1.24-1.84l-.09-.13-6.11-8a3.67,3.67,0,0,0-1.24-1,4.32,4.32,0,0,0-.45-.19,2.59,2.59,0,0,1-1.81-2.26,12.28,12.28,0,0,0-2.72-7l-4.23-6.29a3.9,3.9,0,0,0-.73-.79l-.13-.18a15.16,15.16,0,0,0-6.71-4.82,2.56,2.56,0,0,1,.21-4.89c20-6.37,38-4.47,45.65,6.45,10.9,15.57-3.51,43.59-32.18,62.57s-60.74,21.74-71.63,6.16C390.62,243,395.7,225.57,409.62,209.62Z"/><path class="cls-15" d="M432.35,241.79c4.94,1.9,12.46-.41,20.24-4.78l4.31,6.33,9.33-6.18-4.36-6.23a93.23,93.23,0,0,0,15.33-14.25l-6.13-8c.58.29-6.7,8.32-14.36,14.85l-6.29-9c7.27-7.92,14.77-16.86,9.4-23.51s-15.38-5.09-25.54.42l-3.47-4.95-8.7,5.77,3.33,4.88a92.49,92.49,0,0,0-12.36,11.1c2.42,4.5,4.8,8.68,4.8,8.68s2.69-6.6,11.91-13.39l7.3,10.7c-1.35,1.43-2.85,3-4.53,4.68C421.9,229.72,424.88,238.93,432.35,241.79Zm12-36-5.32-7.6c5.22-2,7.49-.45,7.68,1.87C446.79,201.55,446.09,203.33,444.32,205.83Zm-4.26,23.57c-.28-1.7.95-3.92,2.94-6.47l4.85,7.12C443.76,232.38,440.62,232.84,440.06,229.4Z"/><path class="cls-13" d="M463.94,253.09l8.91-5.9a.24.24,0,0,0,.08-.33l-6.72-9.6-9.33,6.18L463.6,253A.24.24,0,0,0,463.94,253.09Z"/><path class="cls-16" d="M417.73,174.84c40.25-26.65,86.2-29.22,102.63-5.73s-2.88,64.13-43.14,90.78-86.2,29.22-102.63,5.74S377.47,201.49,417.73,174.84Zm-33,82.9c13.72,19.61,52.68,17.07,87-5.67S522.82,195,509.1,175.39s-52.68-17.08-87,5.66S371,238.12,384.72,257.74Z"/><path class="cls-17" d="M377,264c-15.53-22.2,3.45-61.2,42.3-86.92s83.09-28.59,98.63-6.38-3.45,61.19-42.3,86.91S392.54,286.22,377,264Zm5.74-44.54c-7.5,15.4-7.66,29.56-.45,39.86s20.8,15.35,38.28,14.21c17-1.1,35.7-7.93,52.75-19.22s30.46-25.74,37.74-40.69c7.5-15.4,7.66-29.56.46-39.86s-20.81-15.35-38.29-14.21c-17,1.1-35.7,7.93-52.75,19.22S390,204.53,382.75,219.48Z"/><path class="cls-18" d="M477,259.58c39.55-26.18,58.88-65.86,44-89.52.3.4.6.8.89,1.21,16.43,23.49-2.88,64.13-43.14,90.79s-86.2,29.21-102.63,5.73c-.29-.42-.56-.84-.83-1.26C392.42,288.7,437.46,285.77,477,259.58Z"/><path class="cls-19" d="M473.6,254.38c39.41-26.1,60.48-63.08,45.56-86.74.31.4.61.8.9,1.22,16.43,23.48-2.77,64-42.89,90.61S391.22,288.53,374.79,265q-.44-.62-.84-1.26C391.1,286,434.19,280.47,473.6,254.38Z"/><path class="cls-19" d="M432.64,173.82c9.33-5.34,33.95-17.61,55.55-12.58a3.3,3.3,0,0,0,3.42-1.31h0a2.87,2.87,0,0,0-1.9-4.54c-8.53-1.41-29.25-2.09-59.13,14.71a2.23,2.23,0,0,0-1.1,1.47l0,.14A2.08,2.08,0,0,0,432.64,173.82Z"/><path class="cls-20" d="M445.81,198.3c-1.14-.91-3.28-1.1-6.65.2l-.88-1.25C442.88,195.49,445.2,196.47,445.81,198.3Z"/><path class="cls-20" d="M439.29,228.46c-.27-1.7,1-3.92,3-6.48l.86,1.26c-2,2.55-3.22,4.77-2.95,6.46a4.33,4.33,0,0,0,.21.79A3,3,0,0,1,439.29,228.46Z"/><path class="cls-20" d="M429.9,203.86c-9.24,6.81-11.94,13.42-11.94,13.42s-.31-.54-.8-1.42c.46-1,3.44-7,11.88-13.26Z"/><path class="cls-20" d="M450.58,214.83l-.87-1.25c6.88-7.49,14-15.89,10.25-22.39l.08.09C465.42,197.92,457.87,206.89,450.58,214.83Z"/><path class="cls-20" d="M431.54,240.88c4.95,1.89,12.49-.44,20.3-4.83l.86,1.26c-7.81,4.38-15.34,6.7-20.29,4.81a10.57,10.57,0,0,1-5.44-4.44A11,11,0,0,0,431.54,240.88Z"/><path class="cls-20" d="M461.16,230a93.24,93.24,0,0,0,15.34-14.24l.92,1.19A93.5,93.5,0,0,1,462,231.2Z"/><polygon class="cls-20" points="465.52 236.18 466.39 237.43 457.03 243.63 456.17 242.37 465.52 236.18"/><path class="cls-21" d="M373.53,267.06l18.16,26s8.53,7.68,17.57,9.16l-13.94-19.93S385.45,280.64,373.53,267.06Z"/><path class="cls-22" d="M522,166.74l18.15,26s4.22,10.54,2.32,19.26L528.51,192S530.59,182.51,522,166.74Z"/><path class="cls-23" d="M481.54,286.27l-12-17.15c3.32-1.85,6.63-3.85,9.9-6,3.59-2.38,7-4.88,10.25-7.46l12,17.16c-3.25,2.56-6.68,5.05-10.27,7.43Q486.52,283.48,481.54,286.27Z"/><path class="cls-24" d="M459.92,296.07,447,279.12a137,137,0,0,0,22.5-10l12,17.15A136.51,136.51,0,0,1,459.92,296.07Z"/><path class="cls-24" d="M494.1,252c2-1.62,4.89-4.53,4.89-4.53l12.07,17.26c-1.49,1.4-3,2.8-4.62,4.17l-.34.26Z"/><path class="cls-24" d="M503,243.3c.63-.57,1.27-1.17,1.83-1.71a2.07,2.07,0,0,1,3.1.23l9.79,14a1.9,1.9,0,0,1-.31,2.49c-.7.64-2,1.78-2.86,2.53a1,1,0,0,1-1.48-.14l-10.42-14.89A1.9,1.9,0,0,1,503,243.3Z"/><path class="cls-24" d="M519.81,252l-9.63-13.77a2,2,0,0,1,.13-2.42l2.53-3.08a2.19,2.19,0,0,1,3.43,0l9.89,13.45a2,2,0,0,1-.06,2.41q-1.36,1.74-2.84,3.48A2.2,2.2,0,0,1,519.81,252Z"/><polygon class="cls-25" points="456.68 247.1 453.09 248.71 447.72 240.32 450.88 238.81 456.68 247.1"/><path class="cls-4" d="M236.06,402.42s-65.87,112-8.78,138.33,95.5,9,127.82-44.89c33.76-56.22,18.53-68.76,9.11-87,0,0-46.91,94.53-90.82,101.12S227.28,442,236.06,402.42Z"/><path class="cls-4" d="M374.39,556.12s-22,158.08-48.31,169.06-63.67,26.35-94.41,0-49.5-73.27-67.07-68.88S130.67,707.61,104.33,701,64.6,685.31,89,657.12c23.3-27-11-140.52,11-199.8s26.35-19.77,24.16,11S95.25,588,152.34,605.6s53,3.46,79.33,33.95c54.79,63.37,90,19.76,105.39-32.93S361.21,553.92,374.39,556.12Z"/><path class="cls-10" d="M431.17,358.31c-51.69-11.05-89.08-40.74-88.73-75.85,0-3.7,4.24-19.1,5.12-22.79,1.6-6.65,3.36-14.83,7.09-20.45,17.93-26.95,58.8-39,111.82-27.63s84.39,38.78,88.22,70.39c.8,6.58-1.36,14.67-3,21.33-.88,3.68-4.14,19.28-5.8,22.64C530.17,357.77,482.85,369.35,431.17,358.31Z"/><ellipse class="cls-26" cx="452.54" cy="269.46" rx="52.01" ry="89.56" transform="translate(99.51 660.32) rotate(-78.68)"/><ellipse class="cls-12" cx="452.54" cy="269.46" rx="52.01" ry="89.56" transform="translate(99.51 660.32) rotate(-78.68)"/><path class="cls-13" d="M462.51,228c45.48,9.72,77.6,37.29,71.76,61.58a25.52,25.52,0,0,1-2.92,7.07A26.4,26.4,0,0,0,538,284.75c5.84-24.29-27.38-52.09-74.2-62.1s-89.51,1.58-95.35,25.87A25.44,25.44,0,0,0,369,262a25,25,0,0,1,.61-7.56C375.44,230.11,417,218.3,462.51,228Z"/><path class="cls-13" d="M482.91,283.26l-.22,0c.86-5.74-2.91-12.43-13.79-17.25-10-4.44-16.11-7.52-19.52-10.08A35.89,35.89,0,0,1,460.84,257c10.94,2.48,17.15,7.14,19.51,9.24L482,268.1l2.13-9.59a29.57,29.57,0,0,0,.53-5c.29-2.13.21-3.6.63-7.18-21.65-10.45-52.06-15.29-57.26,1.22-.07.22-.1.44-.16.66s-.28.41-.28.41l-1.91,8.67c-3.79,12.24,14.28,19.49,26.48,25.91-12.54-3.24-29.36-11.35-28.76-12l-3.2,11.12c-.6,2.49-1.16,6-3,12.34,17.82,10.25,48.73,17.39,58.64,7.71a14.09,14.09,0,0,0,3.77-6.21l.22-.1Z"/><path class="cls-14" d="M489.54,246.35c0,.13,0,.25,0,.38-.22,1.79-.3,3-.36,4.11s-.12,1.85-.25,2.88a1.11,1.11,0,0,0,0,.17,33.24,33.24,0,0,1-.62,5.46l-2.11,9.51a4.22,4.22,0,0,1-.87,1.76,2.85,2.85,0,0,0-.27,3.25,15.52,15.52,0,0,1,2.06,8.34,4,4,0,0,1,0,1.88L484,296.9a4,4,0,0,1-.62,1.38,18.47,18.47,0,0,1-4.51,6.92c-8.36,8.16-25.29,6-34.64,4h0a108.47,108.47,0,0,1-27.43-9.88,7,7,0,0,1-3.54-7.94c.9-3.34,1.41-5.77,1.8-7.63.2-.94.38-1.76.56-2.49a.85.85,0,0,1,0-.17L418.86,270a4.33,4.33,0,0,1,.9-1.64,4.78,4.78,0,0,1,.39-.39,3,3,0,0,0,1-3.18,14.06,14.06,0,0,1,0-8.62L423,247.7a5,5,0,0,1,.45-1.16c0-.08.05-.16.07-.24a17.31,17.31,0,0,1,5.16-8,2.94,2.94,0,0,0-2.28-5.14c-24.07,1.58-42.58,11.19-46.16,26.09-5.12,21.25,22.08,45.18,60.75,53.44s74.16-2.26,79.27-23.51C523.9,274.06,511.14,257.57,489.54,246.35Z"/><path class="cls-15" d="M468.9,266c-2.52-1.12-4.76-2.14-6.81-3.1l3.31-14.53c12.73,3.4,18.38,9.33,18.38,9.33s.79-5.48,1.48-11.31a105,105,0,0,0-17.88-6.68l1.51-6.63-11.75-2.51-1.62,6.75c-13.2-1.63-24.53.8-27.52,10.29s8.84,15.79,19.94,21.21L445,281.06c-10.95-3.77-22.11-9.3-21.62-9.86l-3.2,11.12a106.17,106.17,0,0,0,22.4,8.8l-2.05,8.51,12.58,2.69,2-8.59c10.17,1.41,19.19.72,23.68-3.39C485.53,284.13,484.84,273,468.9,266Zm-23-14.23c-.78-2.56,1-5.17,7.43-5.23l-2.49,10.38C447.86,255,446.36,253.34,445.87,251.74Zm11.34,32.55,2.2-9.66c3.2,1.9,5.45,3.76,5.87,5.69C466.12,284.24,462.56,285.07,457.21,284.29Z"/><path class="cls-13" d="M449.67,315.72l-12-2.57a.28.28,0,0,1-.22-.32l3.16-13.1,12.58,2.69L450,315.51A.3.3,0,0,1,449.67,315.72Z"/><path class="cls-16" d="M550.58,291.57c-7.71,32.05-58,48.62-112.26,37s-92.06-47-84.35-79,58-48.62,112.27-37S558.29,259.52,550.58,291.57ZM464.2,221c-46.32-9.9-89.1,3.77-95.54,30.53s25.9,56.48,72.22,66.38,89.1-3.76,95.54-30.52S510.53,230.9,464.2,221Z"/><path class="cls-17" d="M439.06,325.5c-52.4-11.2-89.1-45-81.82-75.25s55.86-45.83,108.26-34.63,89.1,44.95,81.81,75.25S491.46,336.7,439.06,325.5Zm25.88-107.58c-23-4.92-45.92-4.35-64.54,1.61-19.19,6.13-31.62,17.25-35,31.3s2.75,29.14,17.26,42.48c14.07,12.94,34.49,22.77,57.49,27.69s45.92,4.34,64.55-1.61c19.19-6.13,31.62-17.25,35-31.31s-2.74-29.14-17.25-42.47C508.36,232.67,487.94,222.84,464.94,217.92Z"/><path class="cls-18" d="M438.42,328.16c-53.34-11.4-90.72-45.75-84.71-77.34q-.24.84-.45,1.68c-7.71,32.05,30.05,67.43,84.35,79s104.55-5,112.26-37c.14-.56.26-1.13.36-1.7C541.2,323.77,491.76,339.56,438.42,328.16Z"/><path class="cls-19" d="M439.87,321.16c-53.16-11.36-91.25-42.1-85.23-73.69q-.25.84-.45,1.68c-7.71,32,29.9,67.4,84,79s104.22-5,111.93-37.08c.13-.57.25-1.13.36-1.7C541.46,320.28,493,332.52,439.87,321.16Z"/><path class="cls-19" d="M449.85,217.71c-12.23-1.79-43.75-4.57-64.76,9.89a3.78,3.78,0,0,1-4.2,0h0A3.3,3.3,0,0,1,381,222c8.54-5.09,30.43-14.53,69.48-9.11a2.61,2.61,0,0,1,1.79,1.11l.09.14A2.39,2.39,0,0,1,449.85,217.71Z"/><path class="cls-20" d="M446,249.45c.84-1.46,3.06-2.55,7.21-2.59l.41-1.7C448,245.21,445.93,247.23,446,249.45Z"/><path class="cls-20" d="M465.7,279c-.42-1.93-2.68-3.8-5.89-5.69l-.39,1.71c3.2,1.89,5.45,3.75,5.87,5.68a5.22,5.22,0,0,1,.11.92A3.37,3.37,0,0,0,465.7,279Z"/><path class="cls-20" d="M465.41,248.71c12.76,3.41,18.42,9.34,18.42,9.34s.11-.69.26-1.84c-.92-.9-6.64-6.1-18.29-9.2Z"/><path class="cls-20" d="M447.89,269.15l.41-1.7c-10.52-5.13-21.64-11.13-20.39-19.66a.5.5,0,0,0-.05.13C424.9,257.29,436.74,263.72,447.89,269.15Z"/><path class="cls-20" d="M479.22,289c-4.51,4.11-13.56,4.79-23.76,3.37l-.39,1.71c10.2,1.41,19.24.73,23.74-3.37a12.13,12.13,0,0,0,3.95-7.05A12.53,12.53,0,0,1,479.22,289Z"/><path class="cls-20" d="M442.92,289.78A108,108,0,0,1,420.51,281c-.15.53-.31,1.08-.48,1.66a107.14,107.14,0,0,0,22.48,8.83Z"/><polygon class="cls-20" points="440.88 298.29 440.47 299.99 453.09 302.69 453.48 300.98 440.88 298.29"/><path class="cls-21" d="M552.32,292.66l-8.52,35.42s-5.9,11.81-15,17.19l6.55-27.19S545.26,312.21,552.32,292.66Z"/><path class="cls-22" d="M351.25,247.69l-8.53,35.42s-.08,13.06,5.63,21.59l6.54-27.19S348.66,268.2,351.25,247.69Z"/><path class="cls-23" d="M444.79,358.63l5.63-23.4q-6.51-.87-13.12-2.27-7.28-1.56-14.11-3.67l-5.64,23.41c4.56,1.37,9.27,2.59,14.12,3.63Q438.3,357.74,444.79,358.63Z"/><path class="cls-24" d="M472,360l6.67-23.56a156.81,156.81,0,0,1-28.29-1.24l-5.63,23.4A156.12,156.12,0,0,0,472,360Z"/><path class="cls-24" d="M416.94,327.24c-2.81-.89-7.15-2.79-7.15-2.79L404.13,348c2.19.88,4.42,1.72,6.71,2.52l.46.14Z"/><path class="cls-24" d="M403.72,321.67c-.92-.34-1.86-.71-2.68-1.05a2.37,2.37,0,0,0-3.22,1.54l-4.6,19.11a2.19,2.19,0,0,0,1.39,2.53c1,.39,2.88,1.06,4.12,1.5a1.15,1.15,0,0,0,1.52-.77l4.89-20.32A2.17,2.17,0,0,0,403.72,321.67Z"/><path class="cls-24" d="M389.42,338.07l4.52-18.8a2.28,2.28,0,0,0-1.16-2.53l-4-2.23a2.52,2.52,0,0,0-3.67,1.44l-4.93,18.56a2.27,2.27,0,0,0,1.07,2.54q2.21,1.31,4.51,2.53A2.53,2.53,0,0,0,389.42,338.07Z"/><polygon class="cls-25" points="454.93 306.25 459.45 306.47 461.67 295.23 457.65 294.95 454.93 306.25"/><path class="cls-27" d="M445.81,198.3s46.55,14.56,31.23,26.81S451,242,449.46,261.88s1.71,33.08-14.33,43.31-19.37,7.25-31.63,7.25-60.73,10-50.08-1.12,42.43-22.47,67.71-55.11S445.81,198.3,445.81,198.3Z"/><path class="cls-10" d="M366.29,312.26c-59.93,25.77-120,21.49-146.59-15.84-2.8-3.94-10.46-23.24-12.41-27.77-3.52-8.19-8-18.1-8.65-26.73-2.88-41.45,28.57-83.73,90-110.16s113.8-20.16,141.9,10.43c5.85,6.38,9.92,16.49,13.44,24.68,2,4.53,10.69,23.36,11.62,28.11C464.41,240,426.22,286.49,366.29,312.26Z"/><ellipse class="cls-28" cx="319.29" cy="202.96" rx="110.52" ry="67.74" transform="translate(-54.2 142.62) rotate(-23.27)"/><ellipse class="cls-12" cx="319.29" cy="202.96" rx="110.52" ry="67.74" transform="translate(-54.2 142.62) rotate(-23.27)"/><path class="cls-13" d="M297.37,152C350.1,129.3,403.25,135.15,416.1,165a34.28,34.28,0,0,1,2.53,9.57,35.22,35.22,0,0,0-2.54-17.38c-12.85-29.88-67.27-35.19-121.55-11.85s-87.88,66.49-75,96.37a35.18,35.18,0,0,0,10.87,13.8,34.14,34.14,0,0,1-5.21-8.42C212.32,217.24,244.65,174.64,297.37,152Z"/><path class="cls-13" d="M360.12,195.53l-.24.13c-3.57-6.69-12.46-11-27-8.24-13.38,2.57-21.81,3.73-27.17,3.5,2.46-2.28,6.38-4.73,12.24-7.16,12.78-5.31,22.55-4.88,26.51-4.38l3.07.82-5.25-11.66a41.12,41.12,0,0,0-3.29-5.63c-1.35-2.46-2.57-4-4.89-8-29.58,4.65-63.56,21.57-56.05,42.77.1.28.23.53.35.8s0,.64,0,.64l4.76,10.54c5.62,15.67,29.18,10.24,46.26,8.19-15,5.66-38,9.28-37.87,8.11L297,240c1.32,3.06,3.45,7.17,6.53,15.19,25.61-2.09,61.86-16.94,64.29-34.34a18.59,18.59,0,0,0-1-9.29l.14-.25Z"/><path class="cls-14" d="M338.36,151.76l.28.41c1.16,2,2,3.4,2.79,4.6.67,1,1.31,2,2,3.23l.12.19a43.54,43.54,0,0,1,3.57,6.21L352.3,178a5.43,5.43,0,0,1,.48,2.49,4,4,0,0,0,2.24,3.63,21.11,21.11,0,0,1,8.45,7.32,5.5,5.5,0,0,1,1.45,2l6.78,15.76a5.54,5.54,0,0,1,.44,1.9,24.45,24.45,0,0,1,.83,10.58c-2.05,14.66-20.54,24.67-31.38,29.33h0a128.17,128.17,0,0,1-34.89,9.43,9.3,9.3,0,0,1-9.63-5.82c-1.67-4.17-3-7.11-4.06-9.35-.53-1.14-1-2.13-1.37-3l-.09-.21-5.33-14a5.74,5.74,0,0,1-.37-2.39q0-.34.09-.69a4,4,0,0,0-1.45-4.08,19.4,19.4,0,0,1-6.64-9.08l-4.67-10.35a6.33,6.33,0,0,1-.45-1.54c0-.11-.08-.21-.11-.31a22.87,22.87,0,0,1-1-12.16,3.85,3.85,0,0,0-6.22-3.78c-22.73,19.09-33.77,42.65-25.89,61C250.74,270.7,296.2,276.27,341,257s72.06-56.1,60.82-82.24C393.85,156.14,368.48,148,338.36,151.76Z"/><path class="cls-15" d="M332.89,187.42c-3.36.64-6.39,1.19-9.16,1.66l-7.86-17.74c15.27-5.63,25.45-3.45,25.45-3.45s-3.42-6.36-7.21-13a126.37,126.37,0,0,0-22.94,5.9l-3.59-8.09L294,158.52l3.57,8.31c-14.39,7.84-23.8,18.61-19.48,30.8,4.25,12,20.92,10.27,36.14,8l6.49,15.08c-13.79,4-29.15,6.2-29.09,5.24L297,240A127.1,127.1,0,0,0,326,233.06l4.5,10.46,14.59-6.27-4.65-10.49c11.2-5.87,19.65-13.13,21-20.72C363.4,194.56,354.18,183.33,332.89,187.42ZM299,189.07c-2.74-2.14-3-6.19,3.38-10.9l5.49,12.77C303.49,191,300.75,190.41,299,189.07Zm36.31,26.17-5.23-11.8c4.64-.31,8.3,0,10.2,1.76C344.17,208.73,341.27,212.19,335.34,215.24Z"/><path class="cls-13" d="M333.54,239.72h15.88a0,0,0,0,1,0,0v17.54a.35.35,0,0,1-.35.35H333.89a.35.35,0,0,1-.35-.35V239.72A0,0,0,0,1,333.54,239.72Z" transform="translate(-70.45 155.1) rotate(-23.27)"/><path class="cls-16" d="M433.86,155.3c16.95,39.43-20.34,93.33-83.29,120.39s-127.73,17.05-144.68-22.38S226.23,160,289.18,132.92,416.91,115.88,433.86,155.3Zm-140.2-12C240,166.44,207.88,211.85,222,244.77s69.17,40.89,122.88,17.8,85.78-68.51,71.63-101.43S347.37,120.25,293.66,143.34Z"/><path class="cls-17" d="M348.94,271.9C288.18,298,225.71,289,209.69,251.68s20.37-88.84,81.12-115S414,119.66,430.06,156.93,409.69,245.78,348.94,271.9ZM292,139.55C265.36,151,243,168.22,229,188c-14.39,20.37-18.22,41.12-10.78,58.41s25.12,28.79,49.81,32.36c23.95,3.47,51.83-.93,78.49-12.4s49.05-28.67,63-48.44c14.39-20.37,18.21-41.12,10.78-58.41s-25.12-28.78-49.81-32.36C346.58,123.68,318.7,128.09,292,139.55Z"/><path class="cls-18" d="M350.34,275.17c-61.84,26.59-125.43,17.39-143.73-20.32q.4,1.05.84,2.1c17,39.42,81.73,49.44,144.68,22.37s100.24-81,83.29-120.39c-.3-.69-.62-1.37-.95-2.05C449.26,196.1,412.19,248.59,350.34,275.17Z"/><path class="cls-19" d="M346.4,266.73c-61.63,26.5-123.15,21.63-141.44-16.09q.39,1.06.84,2.1c16.95,39.42,81.55,49.52,144.28,22.55s99.86-80.8,82.91-120.23c-.3-.69-.62-1.37-.95-2.05C446.83,192.23,408,240.23,346.4,266.73Z"/><path class="cls-19" d="M403.52,138.12c-11.09-5.29-40.23-17-64.69-8.26a3.56,3.56,0,0,1-4-1.16h0a3.65,3.65,0,0,1,1.86-5.73c9.7-2.77,33.45-6.19,69,10.4A2.52,2.52,0,0,1,407,135l0,.16A2.53,2.53,0,0,1,403.52,138.12Z"/><path class="cls-20" d="M297.45,186.54c-.28-2.15,1.08-4.92,5.18-8l-.9-2.09C296.13,180.64,295.63,184.27,297.45,186.54Z"/><path class="cls-20" d="M339.71,203.49c-1.9-1.74-5.58-2.07-10.23-1.75l.92,2.09c4.65-.32,8.31,0,10.21,1.75a6.69,6.69,0,0,1,.82.9A4.67,4.67,0,0,0,339.71,203.49Z"/><path class="cls-20" d="M316.16,171.73c15.31-5.65,25.51-3.48,25.51-3.48s-.43-.81-1.16-2.14c-1.61-.28-11.3-1.62-25.27,3.53Z"/><path class="cls-20" d="M314.42,206l-.9-2.09c-14.4,2.2-30.09,3.91-35.4-6,0,.06,0,.12.05.18C282.43,210.12,299.15,208.33,314.42,206Z"/><path class="cls-20" d="M360.87,204.3c-1.32,7.6-9.81,14.87-21.05,20.76l.92,2.08c11.24-5.89,19.71-13.16,21-20.75a16.1,16.1,0,0,0-1.47-10.3A16.45,16.45,0,0,1,360.87,204.3Z"/><path class="cls-20" d="M325.33,231.38a127.76,127.76,0,0,1-29.06,7c.26.66.52,1.36.8,2.1a127.52,127.52,0,0,0,29.16-7Z"/><polygon class="cls-20" points="329.83 241.84 330.73 243.94 345.37 237.64 344.45 235.56 329.83 241.84"/><path class="cls-21" d="M436.42,155.2l18.74,43.57s3.2,16.75-1.68,29L439.1,194.3S444.42,181,436.42,155.2Z"/><path class="cls-22" d="M201.75,253.33l18.73,43.57s10,13.85,22.19,18.73l-14.38-33.46S214.94,276.85,201.75,253.33Z"/><path class="cls-23" d="M380.09,302.73,367.71,274q-7.12,3.8-14.8,7.1-8.43,3.61-16.86,6.35l12.38,28.79q8.4-2.78,16.84-6.39Q373,306.5,380.09,302.73Z"/><path class="cls-24" d="M408.3,284.48l-11.48-29.71A182,182,0,0,1,367.71,274l12.38,28.78A181.64,181.64,0,0,0,408.3,284.48Z"/><path class="cls-24" d="M328.26,289.76C324.78,290.84,319,292,319,292l12.46,29c2.85-.66,5.72-1.38,8.61-2.2l.57-.18Z"/><path class="cls-24" d="M310.82,293.45c-1.17.3-2.4.59-3.48.83a2.88,2.88,0,0,0-2,4l10.1,23.5a2.89,2.89,0,0,0,3.33,1.67c1.31-.32,3.68-1,5.26-1.39a1.41,1.41,0,0,0,.92-1.92l-10.75-25A2.87,2.87,0,0,0,310.82,293.45Z"/><path class="cls-24" d="M309.19,321.12,299.25,298a3.06,3.06,0,0,0-3.11-1.83c-1.63.17-3.8.37-5.69.54a3.05,3.05,0,0,0-2.54,4.19l9.35,23.16a3,3,0,0,0,3,1.91q3.2-.22,6.43-.59A3.07,3.07,0,0,0,309.19,321.12Z"/><polygon class="cls-25" points="349.94 240.08 354.6 237.04 348.18 223.56 343.96 226.17 349.94 240.08"/><polygon class="cls-19" points="407.21 333.1 367.87 269.08 322.14 283.29 363.68 250.88 346.6 190.02 378.92 242.96 430.79 235.66 388.15 261.27 407.21 333.1"/><polygon class="cls-19" points="385.66 166.2 358.87 122.62 327.74 132.28 356.02 110.22 344.4 68.79 366.39 104.83 401.71 99.86 372.68 117.3 385.66 166.2"/><polygon class="cls-19" points="488.03 172.07 474.32 149.76 458.39 154.71 472.86 143.42 466.92 122.22 478.17 140.66 496.25 138.12 481.39 147.04 488.03 172.07"/><polygon class="cls-19" points="538.21 276.98 524.26 241.48 500.15 244.5 523.79 232.01 520.69 200.07 532.11 229.41 558.69 230.39 535.1 239.38 538.21 276.98"/><path class="cls-27" d="M277.88,291s39.83-10.72,27.58-16.85S243.81,259.51,238,238.8c-7.15-25.53,7.82-54-9.19-61.28-7.15-3.06-17.37,12.26-28.6,33.71-5,9.59-6.6,35.33,11.79,52.18S277.88,291,277.88,291Z"/><path class="cls-27" d="M288.06,283.74s20.42,6.13,34.72,10.22,20.49,8.21,25.57,10.74,17.53,2.37,17.94,7.56-16,12.2-34.83,8.69S288.06,283.74,288.06,283.74Z"/><path class="cls-4" d="M627.11,413.27s36.77,36.78,33.71,70.49-18.39,55.16-18.39,33.7,9.2-61.28-15.32-79.67-24.51-33.71-24.51-33.71Z"/><path class="cls-8" d="M535.72,352.59S425,379.61,375.22,362s-75.49-23.83-120.87-38.46-42.25-26.25-61.28-30.64-60.85-30.44-69.63-46.54-13.17-27.81,8.78-46.84,26.35-14.64,45.38-42.45,38.06-55.63,65.87-67.34S282,81.35,282,81.35s35-11.19,43.5-15.49c1.66-.84,57.09-14.15,96.61,10.74S490.86,103,490.86,103s14.64,23.42,39.52,20.49,58.55,16.1,67.34,36.6-1.47,45.37-1.47,45.37,1.47-20.49-8.78-20.49S607.27,216,585,214.55c-18.76-1.21-18.34,16.21-21.27,10.35s26.65-26.81-1.16-53.15-10.77-15.09-10.77-15.09L507,132.22s-36.09-33.7-59.51-39.56-66.88-21.25-88.84-21.25-65.37,11-107.82,37.39S204,163,180.53,184.92s-43.91,35.13-27.81,46.84,48.3,24.89,76.12,35.13S316.67,312.27,356.19,324s52.7,20.5,79,20.5S534.26,345.27,535.72,352.59Z"/><path class="cls-7" d="M148.24,224.58s0,11,26.34,13.17,59.29,15.37,96.61,35.13,37.33,35.13,79,39.52,69.2,37.88,98.18,30.61c73.05-18.32,72.57-.13,84.9,0,10.05.11-36.59,19.88-99.07,12.45-14.16-1.69-37.49,3.21-51.69-2.87C305.7,319.65,280,316.8,231.67,294.84S141.65,250.93,148.24,224.58Z"/><path class="cls-29" d="M269.67,307.23s39.84-2,48-2S334,310.3,334,310.3s-31.28,4.28-24.83,10.82S269.67,307.23,269.67,307.23Z"/><path class="cls-30" d="M297.29,368.48s-26.66-7.33-68.66-22-44-18.67-44-23.33,7.33,1.33,58,19.33S304,357.81,304,365.15C304,371.81,297.29,368.48,297.29,368.48Z"/><path class="cls-30" d="M468,393.15s-20,7.33-54.67,3.33c-31.85-3.67-49.36-8-49.33-12s10,1.33,40.67,2.67,45.33,4.66,54.66,2S468,393.15,468,393.15Z"/><path class="cls-30" d="M602,366.48s-31.43,14.79-36.71,15.39-22,1.94-18,7.28,5.34,13.33-.66,15.33-5.75,6.06-5.75,6.06,16.41,57.27,23.75,85.27,23.33,72,20.66,97.34,5.34,65.33,6.67,71.33-16,6-16-14.67,9.33-36.66,3.33-66-2.66-22-18-80-24.66-94.66-24.66-94.66-2-10.67-8-10.67-12.67,5.33-6,9.33,10,6.67,10,12,2.66,186,2.66,186,22.67,18.67,12,51.34c-4.66,1.33-4.66,4-4.66,1.33s2.66-27.33-2.67-36-12-18-12-18,4.67-175.33-1.33-182.67-10-10.66-10-16.66-6.67-14,2-13.34,29.33,2.67,22-1.33-26-4.67-17.34-4.67S584.63,371.15,602,366.48Z"/><g class="cls-31"><g class="cls-32"><path class="cls-19" d="M260.59,463.9a15.84,15.84,0,0,0-8.31,17.55c1.88,10.39,11.34,16.14,21.18,11.2,10.94-5.49,11.93-8,7.8-17.51S273,458.68,260.59,463.9Zm14.49,7.87a1.08,1.08,0,0,1-.63.13A1.9,1.9,0,0,1,273,471a8.32,8.32,0,0,0-1.13-1.47,1.68,1.68,0,0,1-.39-2.22,1.42,1.42,0,0,1,2.08,0,10.64,10.64,0,0,1,1.7,2.25A1.66,1.66,0,0,1,275.08,471.77Zm5.28,11.32a1.09,1.09,0,0,1-1.06,1.3h-.25a2,2,0,0,1-1.45-1.94,8.11,8.11,0,0,0-1.09-4.45c-.41-.89-.29-1.77.43-2.05a1.52,1.52,0,0,1,1.94.93A11.08,11.08,0,0,1,280.36,483.09Z"/><path class="cls-19" d="M338.44,447.23c-16.88-21.79-46.36-31.36-72.94-31.5-33.53-.17-65.29,16.68-80.41,47.22-12.44,25.11-16.42,55.59-16.55,83.58-.1,21.77,7,31.07,21.54,45.94C208,610.79,230.77,638.3,258.61,638c30.31-.31,60.28,5,84.37-18.36,21-20.43,48.81-75.08,26.82-101.26m-78.62-50.11c.43-.44,1.2-.15,1.64.44a1.4,1.4,0,0,1-.13,1.92c-.43.45-1.19.15-1.64-.44A1.56,1.56,0,0,1,291.18,468.28ZM224,483.41c-.07-.49.35-.74.8-.83a.69.69,0,0,1,.73.87.71.71,0,0,1-.8.83C224.26,484.37,223.9,483.93,224,483.41Zm-6.93,33a1.37,1.37,0,0,1,2-.07,1.57,1.57,0,0,1-.3,2.18,1.37,1.37,0,0,1-2,.07C216.25,518.1,216.48,517.06,217.05,516.42Zm14.13,42.82c-.62.23-1-.08-1-.59s.47-1,1.08-1.23a.68.68,0,0,1,1,.59A1.52,1.52,0,0,1,231.18,559.24Zm57.45,21.69a1.59,1.59,0,0,1-1.75,1c-.57-.18-.87-.85-.53-1.68.5-.82,1.22-1.31,1.75-1C288.67,579.43,289,580.1,288.63,580.93Zm40.24,1.65c-2.23,4.57-6.81,8.52-13.94,9.69a17,17,0,0,1-5.41.32c-12.38-1.57-7-15-6.73-22.71s-1.2-21.74-13.74-19.08c-1,13.83-5.89,30.9-18.21,38.48-9.27,5.7-39.12,15.25-40.17-3.21-.58-10.27,11.39-14.79,20.33-15,1.26,0,15.3-5.26,11.45-17.15a88,88,0,0,0-10-20.78,112.42,112.42,0,0,0-18.29,12.11c-6.78,6.26-14.89,13-24.4,13.72-3-.66-4.3-2.39-4.6-3.59-1.37-5.49,1.41-11,7.52-17.54,4.38-4.68,8.83-7.91,14-12.22,8.26-6.93,17.41-11,19.61-13.93-6.14-14.26-15.81-36.71-1.25-49.32,12.43-10.76,31.16-9.91,38.1,6.73,8.13,19.5,7.46,22.75,9.69,22.73s6.42-1.25,8.1-10.67c1.46-8.16,2-16.41,5.35-19.47a7.11,7.11,0,0,1,8.46-1.46c5.66,2.67,6.09,8.63,5.87,13.76,0,6.88-2.66,14.89-3.88,19-1.76,5.88-8.05,17.37-11.86,23.24a5.08,5.08,0,0,0,1.58,6.65c5.87,3.88,15.46,12.2,17.86,20.3,3.11,10.46,5.5,21.4,6,32.54A14.57,14.57,0,0,1,328.87,582.58Zm-4.94-78.72-2.14,1.67c0,1.45.06,2.17.12,3.61-.76-1.22-1.13-1.83-1.85-3.07l-2.95-.64,2.17-1.69c0-1.46,0-2.19,0-3.66.67,1.26,1,1.89,1.72,3.13Zm-7.14,18.3a1.09,1.09,0,0,1-1.3,1.19,1.68,1.68,0,0,1-1.32-1.63c0-.84.51-1.3,1.24-1.22A1.78,1.78,0,0,1,316.79,522.16Z"/></g></g><path class="cls-33" d="M265.18,415.83c-33.83-.17-65.86,16.64-81.12,47.12-12.54,25.05-16.56,55.46-16.69,83.39-.1,21.72,7,31,21.72,45.84,18.1,18.27,41,45.72,69.14,45.43,30.57-.31,60.8,5,85.1-18.32,21.23-20.38,49.24-74.91,27.05-101-16.95-20-15.17-50-31.63-71C321.73,425.51,292,416,265.18,415.83Z"/></g></g></svg>