<svg id="Layer_1" data-name="Layer 1" xmlns="http://www.w3.org/2000/svg" viewBox="0 0 800 800"><defs><style>.cls-1{fill:#1c1c1c;opacity:0.2;}.cls-2{fill:#d6960b;}.cls-18,.cls-3{fill:none;stroke:#000;stroke-miterlimit:10;}.cls-3{stroke-width:0.68px;}.cls-4{fill:#d6ac00;}.cls-5{fill:#a64001;}.cls-6{fill:#f2c644;}.cls-7{fill:#e7ba33;}.cls-8{fill:#fec82e;}.cls-9{fill:#fde56c;}.cls-10{fill:#a65801;}.cls-11{fill:#fff;}.cls-12{fill:#ffeba2;}.cls-13{fill:#be7e4c;}.cls-14{fill:#ac7e4c;}.cls-15{fill:#ebc656;}.cls-16{fill:#e5b420;}.cls-17{fill:#b86734;}.cls-18{stroke-width:0.62px;}</style></defs><ellipse class="cls-1" cx="317.87" cy="570.8" rx="239.11" ry="142.29"/><path class="cls-2" d="M314.4,703.56c-121.57,0-221.19-51.5-239.3-135-1.91-8.81-.81-47.49-.81-56.68,0-16.61-.47-36.92,4.86-52.14C104.73,386.65,189.7,337.4,314.4,337.4s209.67,49.25,235.25,122.32c5.33,15.22,4.86,35.53,4.86,52.14,0,9.19,1.1,47.87-.81,56.68C535.59,652.06,436,703.56,314.4,703.56Z"/><ellipse class="cls-3" cx="314.4" cy="481.83" rx="205.97" ry="126.25"/><ellipse class="cls-4" cx="314.4" cy="481.83" rx="205.97" ry="126.25"/><path class="cls-5" d="M314.4,378.4c107,0,193.66,49.14,193.66,109.76a64.09,64.09,0,0,1-2.72,18.26,65.59,65.59,0,0,0,8.45-31.64C513.79,414.16,424.52,365,314.4,365S115,414.16,115,474.78a65.59,65.59,0,0,0,8.45,31.64,64.09,64.09,0,0,1-2.72-18.26C120.74,427.54,207.44,378.4,314.4,378.4Z"/><path class="cls-5" d="M389.76,499.18l-.5,0c-1.18-14.06-13.22-28-40.14-34-24.8-5.45-40.08-9.66-49.1-14,5.9-2.1,14.4-3.4,26.22-3.25,25.8.32,42.22,8.24,48.62,12l4.64,3.66-.4-23.83a77.83,77.83,0,0,0-1.49-12.07c-.49-5.2-1.48-8.66-2.45-17.37-54.05-13.81-124.68-9.87-127.44,32,0,.56,0,1.08,0,1.63-.29.72-.41,1.13-.41,1.13l.4,21.54c-1.9,31,42.43,39,73.17,48.08-29.8-1.33-71.79-12.05-70.8-14l-1.19,28c0,6.22.63,14.82,0,30.81,45.38,15.28,118.37,16.55,135.34-11.45a34.76,34.76,0,0,0,5.09-16.66l.43-.33Z"/><path class="cls-6" d="M384.73,408.22c.06.3.13.6.17.91.48,4.34,1,7.31,1.4,9.92.38,2.29.74,4.46,1,7a3,3,0,0,0,.06.42,82.15,82.15,0,0,1,1.54,13.26l.4,23.65a10.16,10.16,0,0,1-1,4.61,7.34,7.34,0,0,0,1.17,7.85,39.57,39.57,0,0,1,9.08,18.76,10.21,10.21,0,0,1,1,4.47v32a10.14,10.14,0,0,1-.65,3.59,45.48,45.48,0,0,1-6.35,18.71c-14.31,23.6-53.33,27.13-75.32,27.13h0a238.89,238.89,0,0,1-66.68-9.55,17.3,17.3,0,0,1-12.2-17c.21-8.37,0-14.4-.07-19-.06-2.34-.11-4.37-.11-6.2,0-.15,0-.29,0-.43l1.18-27.92a10.44,10.44,0,0,1,1.13-4.35,9.75,9.75,0,0,1,.67-1.12,7.51,7.51,0,0,0,.5-8.06A36.18,36.18,0,0,1,237,466.33l-.38-21.15a11.54,11.54,0,0,1,.38-3l0-.61A42.54,42.54,0,0,1,244.25,420c3.85-5.64-1.32-13-7.86-11-53,15.95-89.22,48.17-89.22,85.35,0,53,73.72,96,164.67,96s164.66-43,164.66-96C476.5,456.56,439.1,423.9,384.73,408.22Z"/><path class="cls-7" d="M349.12,465.24c-6.24-1.37-11.81-2.66-16.9-3.89l-.42-36.16c30.3,1.6,46.13,12.83,46.13,12.83s-1.19-13.42-2.77-27.62a233.56,233.56,0,0,0-43.6-6.78l-.19-16.5H303.75V404c-30.41,2.83-54.44,14.33-56,38.38-1.57,23.74,28.27,33,56,40.23v30.6c-26.52-3.39-54.47-10.85-53.66-12.43l-1.19,28c16.06,5,35.58,8.41,54.85,9.55v21.23h29.59l-.25-21.38c23.51-1.81,43.31-8,51.15-20C396.09,499.93,388.58,473.92,349.12,465.24Zm-59.18-22.09c-3.13-5.68-.53-12.79,13.81-16.18v25.9C296.12,449.78,291.89,446.7,289.94,443.15Zm42.89,71.52-.28-24c8.18,2.87,14.21,6.15,16.18,10.52C352.73,510,345.22,513.81,332.83,514.67Z"/><path class="cls-5" d="M303.94,559.74h29.59a0,0,0,0,1,0,0v32.68a.66.66,0,0,1-.66.66H304.6a.66.66,0,0,1-.66-.66V559.74A0,0,0,0,1,303.94,559.74Z"/><path class="cls-8" d="M545.62,484.58c0,80-103.52,144.81-231.22,144.81S83.18,564.55,83.18,484.58,186.7,339.77,314.4,339.77,545.62,404.6,545.62,484.58ZM314.4,360.91c-109,0-197.28,54.14-197.28,120.92S205.44,602.76,314.4,602.76s197.29-54.14,197.29-120.93S423.36,360.91,314.4,360.91Z"/><path class="cls-9" d="M314.4,621.69c-123.25,0-223.52-61.51-223.52-137.11S191.15,347.46,314.4,347.46,537.93,409,537.93,484.58,437.65,621.69,314.4,621.69Zm0-268.48c-54.1,0-105.07,13-143.52,36.55-39.63,24.3-61.46,57-61.46,92.07s21.83,67.78,61.46,92.07c38.45,23.57,89.42,36.55,143.52,36.55s105.07-13,143.52-36.55c39.63-24.29,61.46-57,61.46-92.07s-21.83-67.77-61.46-92.07C419.47,366.19,368.5,353.21,314.4,353.21Z"/><path class="cls-10" d="M314.4,628.33c-125.45,0-227.56-62.57-231.11-140.6-.07,1.4-.11,2.81-.11,4.21,0,80,103.52,144.81,231.22,144.81s231.22-64.83,231.22-144.81c0-1.4,0-2.81-.11-4.21C542,565.76,439.85,628.33,314.4,628.33Z"/><path class="cls-11" d="M313.87,611c-125,0-226.78-53.63-230.32-131.65-.06,1.4-.1,2.8-.1,4.21,0,80,103.16,144.8,230.42,144.8S544.3,563.5,544.3,483.53c0-1.41,0-2.81-.1-4.21C540.65,557.34,438.9,611,313.87,611Z"/><path class="cls-11" d="M280.52,360.36c-28.32,2-100.32,11.35-139.54,56.33a8.27,8.27,0,0,1-9.39,2.21h0a8.29,8.29,0,0,1-2.77-13.49c16.36-16.42,60.25-49.93,150.53-56.87a5.88,5.88,0,0,1,4.61,1.73l.27.28A5.77,5.77,0,0,1,280.52,360.36Z"/><path class="cls-12" d="M289.08,437.65c1.11-3.9,5.47-7.62,14.74-9.81V423.6C291.18,426.58,287.64,432.42,289.08,437.65Z"/><path class="cls-12" d="M349,497.78c-2-4.38-8-7.65-16.24-10.53l0,4.27C341,494.39,347,497.65,349,502a13.41,13.41,0,0,1,.75,2.14A8.75,8.75,0,0,0,349,497.78Z"/><path class="cls-12" d="M332,426.06c30.37,1.61,46.24,12.83,46.24,12.83s-.15-1.71-.41-4.52c-2.55-1.66-18.16-11.1-45.88-12.56Z"/><path class="cls-12" d="M303.82,483.46v-4.25c-26.28-6.82-54.4-15.44-56.19-36.32,0,.11,0,.22,0,.34C246,467,276,476.22,303.82,483.46Z"/><path class="cls-12" d="M384.6,514.74c-7.87,12-27.74,18.24-51.33,20l.05,4.24c23.57-1.81,43.42-8,51.28-20a30,30,0,0,0,5-18.73A30.68,30.68,0,0,1,384.6,514.74Z"/><path class="cls-12" d="M303.82,534.94c-19.27-1.13-38.78-4.5-54.87-9.49,0,1.32-.11,2.71-.18,4.19,16.12,5,35.71,8.41,55,9.55Z"/><polygon class="cls-12" points="303.82 556.17 303.82 560.41 333.52 560.41 333.47 556.17 303.82 556.17"/><path class="cls-13" d="M550.09,486.29v88.38s-6.84,31-24.2,48.4V555.21S544.83,536.27,550.09,486.29Z"/><path class="cls-14" d="M76.08,481.55v88.39s6.84,31,24.2,48.4V550.47S81.34,531.53,76.08,481.55Z"/><path class="cls-15" d="M345,697.41V639q-15,1.25-30.57,1.26c-11.39,0-22.58-.54-33.54-1.54v58.41c10.94,1,22.13,1.46,33.54,1.46Q330,698.61,345,697.41Z"/><path class="cls-16" d="M406.78,686.92l2.22-59.3A340,340,0,0,1,345,639v58.39A337.44,337.44,0,0,0,406.78,686.92Z"/><path class="cls-16" d="M265.85,637.05c-6.75-.71-17.48-3-17.48-3v58.78c5.37,1,10.82,1.84,16.36,2.57l1.12.1Z"/><path class="cls-16" d="M233.28,630.52c-2.23-.34-4.53-.75-6.57-1.13a5.37,5.37,0,0,0-6.36,5.29v47.68a5.38,5.38,0,0,0,4.46,5.31c2.48.42,7,1.06,10,1.48a2.63,2.63,0,0,0,3-2.61v-50.7A5.38,5.38,0,0,0,233.28,630.52Z"/><path class="cls-13" d="M210.12,676.7V629.79a5.67,5.67,0,0,0-4-5.42c-2.91-.92-6.78-2.17-10.13-3.26-3.63-1.18-25.33-12.62-25.41-8.81l-28.49,41.64c-.05,2.45,46.87,23.68,49.19,24.49q5.63,2,11.44,3.72A5.71,5.71,0,0,0,210.12,676.7Z"/><polygon class="cls-17" points="339.54 567.95 349.76 566.17 348.68 538.36 339.54 539.74 339.54 567.95"/><ellipse class="cls-1" cx="284.86" cy="459.79" rx="239.11" ry="142.29"/><path class="cls-2" d="M281.4,592.55c-121.57,0-221.19-51.5-239.3-135-1.91-8.81-.81-47.49-.81-56.68,0-16.61-.47-36.92,4.86-52.14C71.73,275.64,156.69,226.39,281.4,226.39s209.67,49.25,235.25,122.32c5.33,15.22,4.85,35.53,4.85,52.14,0,9.19,1.11,47.87-.8,56.68C502.59,541.05,403,592.55,281.4,592.55Z"/><ellipse class="cls-3" cx="281.4" cy="370.82" rx="205.97" ry="126.25"/><ellipse class="cls-4" cx="281.4" cy="370.82" rx="205.97" ry="126.25"/><path class="cls-5" d="M281.4,267.39c107,0,193.66,49.14,193.66,109.76a64.14,64.14,0,0,1-2.72,18.26,65.59,65.59,0,0,0,8.45-31.64C480.79,303.15,391.52,254,281.4,254S82,303.15,82,363.77a65.54,65.54,0,0,0,8.44,31.63,64.36,64.36,0,0,1-2.71-18.25C87.74,316.53,174.44,267.39,281.4,267.39Z"/><path class="cls-5" d="M356.76,388.17l-.51,0c-1.18-14.06-13.22-28.05-40.13-34-24.81-5.45-40.09-9.66-49.1-14,5.89-2.1,14.4-3.4,26.21-3.25,25.8.32,42.22,8.23,48.63,12l4.64,3.65-.4-23.82a77.83,77.83,0,0,0-1.49-12.07c-.49-5.2-1.48-8.66-2.45-17.37-54.06-13.81-124.68-9.87-127.45,32,0,.56,0,1.08,0,1.63-.28.72-.4,1.13-.4,1.13l.39,21.54c-1.9,31,42.43,39,73.18,48.08-29.8-1.33-71.8-12.05-70.81-14l-1.18,28c0,6.22.63,14.82,0,30.81,45.37,15.28,118.37,16.55,135.34-11.45a34.65,34.65,0,0,0,5.08-16.67l.44-.32Z"/><path class="cls-6" d="M351.72,297.2c.06.31.14.61.18.92.48,4.34,1,7.31,1.4,9.92.38,2.29.74,4.46,1,7,0,.14,0,.28.05.42a83,83,0,0,1,1.55,13.26l.4,23.65a10.29,10.29,0,0,1-1,4.61,7.34,7.34,0,0,0,1.16,7.85,39.58,39.58,0,0,1,9.09,18.76,10.34,10.34,0,0,1,1,4.46v32a10.39,10.39,0,0,1-.65,3.6,45.35,45.35,0,0,1-6.36,18.71c-14.3,23.6-53.32,27.13-75.31,27.13h0a238.87,238.87,0,0,1-66.67-9.55,17.32,17.32,0,0,1-12.21-17.05c.21-8.37.06-14.4-.06-19-.06-2.34-.11-4.37-.11-6.2,0-.15,0-.29,0-.44s1.18-27.9,1.18-27.91a10.58,10.58,0,0,1,1.12-4.35,10.36,10.36,0,0,1,.67-1.12,7.49,7.49,0,0,0,.51-8.06A36.2,36.2,0,0,1,204,355.32l-.39-21.15a12,12,0,0,1,.39-3c0-.2,0-.41,0-.61A42.65,42.65,0,0,1,211.25,309c3.84-5.64-1.33-13-7.87-11-53,15.95-89.21,48.17-89.21,85.35,0,53,73.72,96,164.66,96s164.67-43,164.67-96C443.5,345.55,406.09,312.89,351.72,297.2Z"/><path class="cls-7" d="M316.12,354.23c-6.24-1.37-11.82-2.66-16.91-3.9l-.41-36.15c30.29,1.6,46.12,12.83,46.12,12.83s-1.18-13.42-2.76-27.62a233.67,233.67,0,0,0-43.61-6.78l-.19-16.5H270.74V293c-30.4,2.82-54.44,14.33-56,38.38-1.56,23.74,28.28,33,56,40.23v30.6c-26.51-3.39-54.47-10.85-53.66-12.44l-1.18,28c16.06,5,35.57,8.41,54.84,9.55v21.23h29.6l-.25-21.38c23.51-1.82,43.31-8,51.15-20.05C363.08,388.92,355.58,362.91,316.12,354.23Zm-59.19-22.09c-3.12-5.68-.52-12.79,13.81-16.18v25.9C263.12,338.77,258.89,335.69,256.93,332.14Zm42.89,71.52-.27-24c8.18,2.87,14.2,6.15,16.17,10.52C319.73,399,312.22,402.8,299.82,403.66Z"/><path class="cls-5" d="M270.94,448.73h29.59a0,0,0,0,1,0,0v32.68a.66.66,0,0,1-.66.66H271.6a.66.66,0,0,1-.66-.66V448.73A0,0,0,0,1,270.94,448.73Z"/><path class="cls-8" d="M512.62,373.57c0,80-103.52,144.8-231.22,144.8S50.18,453.54,50.18,373.57,153.7,228.76,281.4,228.76,512.62,293.59,512.62,373.57ZM281.4,249.9c-109,0-197.29,54.14-197.29,120.92S172.44,491.75,281.4,491.75s197.28-54.14,197.28-120.93S390.35,249.9,281.4,249.9Z"/><path class="cls-9" d="M281.4,510.68c-123.25,0-223.53-61.51-223.53-137.11S158.15,236.45,281.4,236.45,504.92,298,504.92,373.57,404.65,510.68,281.4,510.68Zm0-268.48c-54.1,0-105.07,13-143.53,36.55-39.63,24.3-61.45,57-61.45,92.07s21.82,67.78,61.45,92.07c38.46,23.57,89.43,36.55,143.53,36.55s105.06-13,143.52-36.55c39.63-24.29,61.46-57,61.46-92.07s-21.83-67.77-61.46-92.07C386.46,255.18,335.49,242.2,281.4,242.2Z"/><path class="cls-10" d="M281.4,517.32c-125.45,0-227.56-62.57-231.12-140.6-.06,1.4-.1,2.8-.1,4.21,0,80,103.52,144.81,231.22,144.81s231.22-64.83,231.22-144.81c0-1.41,0-2.81-.11-4.21C509,454.75,406.85,517.32,281.4,517.32Z"/><path class="cls-11" d="M280.87,500c-125,0-226.78-53.63-230.32-131.65-.07,1.39-.11,2.8-.11,4.2,0,80,103.17,144.81,230.43,144.81S511.3,452.49,511.3,372.51c0-1.4,0-2.81-.1-4.2C507.65,446.33,405.89,500,280.87,500Z"/><path class="cls-11" d="M247.52,249.35c-28.33,2-100.32,11.35-139.54,56.33a8.28,8.28,0,0,1-9.39,2.21h0a8.29,8.29,0,0,1-2.77-13.49c16.36-16.42,60.24-49.93,150.53-56.87a5.85,5.85,0,0,1,4.6,1.73l.28.28A5.77,5.77,0,0,1,247.52,249.35Z"/><path class="cls-12" d="M256.08,326.64c1.11-3.9,5.46-7.62,14.73-9.81v-4.24C258.18,315.57,254.63,321.41,256.08,326.64Z"/><path class="cls-12" d="M316,386.76c-2-4.37-8-7.64-16.24-10.52l0,4.26C308,383.38,314,386.64,316,391a12.41,12.41,0,0,1,.74,2.14C317.28,391.39,317.1,389.29,316,386.76Z"/><path class="cls-12" d="M299,315.05c30.37,1.61,46.24,12.83,46.24,12.83s-.15-1.71-.42-4.52c-2.54-1.66-18.15-11.1-45.87-12.56Z"/><path class="cls-12" d="M270.81,372.45V368.2c-26.27-6.83-54.39-15.44-56.18-36.32,0,.11,0,.22,0,.34C213,356,243,365.21,270.81,372.45Z"/><path class="cls-12" d="M351.6,403.73c-7.87,12-27.74,18.24-51.33,20l.05,4.24c23.56-1.82,43.41-8,51.28-20a30,30,0,0,0,5-18.72A30.79,30.79,0,0,1,351.6,403.73Z"/><path class="cls-12" d="M270.81,423.93c-19.27-1.13-38.78-4.5-54.86-9.49-.06,1.32-.12,2.71-.18,4.19,16.12,5,35.7,8.41,55,9.54Z"/><polygon class="cls-12" points="270.81 445.16 270.81 449.4 300.51 449.4 300.46 445.16 270.81 445.16"/><path class="cls-13" d="M517.09,375.28v88.38s-6.84,31-24.2,48.4V444.19S511.83,425.26,517.09,375.28Z"/><path class="cls-14" d="M43.08,370.54v88.39s6.84,31,24.2,48.4V439.46S48.34,420.52,43.08,370.54Z"/><path class="cls-15" d="M312,586.4V528c-10,.83-20.21,1.26-30.57,1.26-11.4,0-22.59-.55-33.54-1.55v58.42c10.94,1,22.13,1.46,33.54,1.46C291.85,587.6,302.05,587.18,312,586.4Z"/><path class="cls-16" d="M373.77,575.91l2.22-59.3A340.56,340.56,0,0,1,312,528V586.4A338.33,338.33,0,0,0,373.77,575.91Z"/><path class="cls-16" d="M232.85,526c-6.76-.71-17.49-3-17.49-3v58.77q8.07,1.47,16.37,2.58l1.12.1Z"/><path class="cls-16" d="M200.28,519.51c-2.23-.34-4.54-.75-6.57-1.14a5.38,5.38,0,0,0-6.36,5.3v47.68a5.39,5.39,0,0,0,4.46,5.31c2.48.42,7,1.06,10,1.48a2.63,2.63,0,0,0,3-2.61v-50.7A5.38,5.38,0,0,0,200.28,519.51Z"/><path class="cls-13" d="M177.12,565.69V518.78a5.67,5.67,0,0,0-4-5.42c-2.91-.92-6.78-2.18-10.13-3.27-3.63-1.17-25.33-12.61-25.42-8.8l-28.48,41.63c-.06,2.46,46.87,23.69,49.19,24.5q5.61,2,11.44,3.72A5.71,5.71,0,0,0,177.12,565.69Z"/><polygon class="cls-17" points="306.54 456.94 316.76 455.16 315.68 427.35 306.54 428.73 306.54 456.94"/><path class="cls-1" d="M499.33,319.34c0,78.58-57.71,142.26-189.77,142.26S70.45,397.9,70.45,319.31,177.51,177,309.56,177,499.33,240.75,499.33,319.34Z"/><path class="cls-2" d="M306.43,450.41c-121.57,0-221.19-51.51-239.3-135-1.91-8.8-.81-47.49-.81-56.68,0-16.6-.47-36.92,4.86-52.14C96.76,133.5,181.73,84.25,306.43,84.25S516.1,133.5,541.68,206.56c5.33,15.22,4.86,35.54,4.86,52.14,0,9.19,1.1,47.88-.81,56.68C527.62,398.9,428,450.41,306.43,450.41Z"/><ellipse class="cls-3" cx="306.43" cy="228.67" rx="205.97" ry="126.25"/><ellipse class="cls-4" cx="306.43" cy="228.67" rx="205.97" ry="126.25"/><path class="cls-5" d="M306.43,125.24c107,0,193.66,49.14,193.66,109.76a64,64,0,0,1-2.72,18.26,65.48,65.48,0,0,0,8.45-31.64c0-60.61-89.27-109.75-199.39-109.75S107,161,107,221.62a65.59,65.59,0,0,0,8.45,31.64A64,64,0,0,1,112.77,235C112.77,174.38,199.48,125.24,306.43,125.24Z"/><path class="cls-5" d="M381.79,246l-.5,0c-1.18-14.06-13.22-28-40.14-34-24.8-5.46-40.08-9.67-49.1-14,5.9-2.11,14.4-3.41,26.22-3.26,25.8.33,42.22,8.24,48.62,12l4.65,3.66-.4-23.83a77.17,77.17,0,0,0-1.5-12.06c-.49-5.21-1.48-8.67-2.44-17.38-54.06-13.81-124.69-9.86-127.45,32,0,.56,0,1.09,0,1.63-.29.72-.41,1.13-.41,1.13l.4,21.54c-1.9,31,42.43,39,73.17,48.08-29.8-1.33-71.79-12-70.8-14l-1.19,28c0,6.23.63,14.82,0,30.82C286.31,321.7,359.3,323,376.27,295a34.73,34.73,0,0,0,5.09-16.66l.43-.33Z"/><path class="cls-6" d="M376.76,155.06a9.12,9.12,0,0,1,.17.91c.48,4.35,1,7.31,1.41,9.93.37,2.28.73,4.45,1,7l.06.41a82.26,82.26,0,0,1,1.54,13.26l.4,23.65a10.16,10.16,0,0,1-1,4.61,7.36,7.36,0,0,0,1.17,7.86,39.52,39.52,0,0,1,9.08,18.76,10.16,10.16,0,0,1,1,4.46v32a10.1,10.1,0,0,1-.65,3.59,45.29,45.29,0,0,1-6.35,18.71c-14.3,23.61-53.33,27.13-75.32,27.13h0a239.25,239.25,0,0,1-66.68-9.54,17.34,17.34,0,0,1-12.2-17.05c.21-8.37.05-14.4-.07-19-.06-2.34-.11-4.37-.11-6.2,0-.14,0-.29,0-.43s1.18-27.9,1.18-27.91a10.49,10.49,0,0,1,1.13-4.36,9.75,9.75,0,0,1,.67-1.12,7.51,7.51,0,0,0,.51-8A36.14,36.14,0,0,1,229,213.18L228.64,192a11.6,11.6,0,0,1,.38-3l0-.61a42.67,42.67,0,0,1,7.23-21.56c3.85-5.64-1.32-13-7.86-11.05-53,16-89.22,48.18-89.22,85.35,0,53,73.72,96,164.67,96s164.66-43,164.66-96C468.53,203.4,431.13,170.74,376.76,155.06Z"/><path class="cls-7" d="M341.15,212.09c-6.24-1.38-11.81-2.66-16.9-3.9L323.83,172c30.3,1.6,46.13,12.83,46.13,12.83s-1.19-13.41-2.76-27.62a234.63,234.63,0,0,0-43.61-6.78L323.4,134H295.78v16.86c-30.41,2.83-54.44,14.34-56,38.38-1.57,23.75,28.27,33,56,40.23V260c-26.52-3.39-54.47-10.85-53.66-12.43l-1.19,28c16.06,5,35.58,8.41,54.85,9.55v21.23h29.59L325.13,285c23.5-1.81,43.3-8,51.14-20.05C388.12,246.77,380.61,220.77,341.15,212.09ZM282,190c-3.12-5.68-.53-12.78,13.81-16.18v25.91C288.15,196.62,283.92,193.55,282,190Zm42.89,71.53-.28-24c8.18,2.88,14.21,6.15,16.18,10.52C344.76,256.87,337.25,260.65,324.86,261.52Z"/><path class="cls-5" d="M296,306.59h29.59a0,0,0,0,1,0,0v32.68a.66.66,0,0,1-.66.66H296.63a.66.66,0,0,1-.66-.66V306.59A0,0,0,0,1,296,306.59Z"/><path class="cls-8" d="M537.65,231.42c0,80-103.52,144.81-231.22,144.81S75.21,311.4,75.21,231.42,178.73,86.61,306.43,86.61,537.65,151.45,537.65,231.42ZM306.43,107.75c-109,0-197.28,54.14-197.28,120.92S197.47,349.6,306.43,349.6s197.29-54.14,197.29-120.93S415.39,107.75,306.43,107.75Z"/><path class="cls-9" d="M306.43,368.53c-123.25,0-223.52-61.5-223.52-137.11S183.18,94.31,306.43,94.31,530,155.82,530,231.42,429.68,368.53,306.43,368.53Zm0-268.47c-54.1,0-105.07,13-143.52,36.55-39.63,24.29-61.46,57-61.46,92.07s21.83,67.77,61.46,92.06c38.45,23.57,89.42,36.55,143.52,36.55s105.07-13,143.52-36.55c39.63-24.29,61.46-57,61.46-92.06S489.58,160.9,450,136.61C411.5,113,360.53,100.06,306.43,100.06Z"/><path class="cls-10" d="M306.43,375.18c-125.45,0-227.56-62.57-231.11-140.6-.07,1.4-.11,2.8-.11,4.21,0,80,103.52,144.8,231.22,144.8s231.22-64.83,231.22-144.8c0-1.41,0-2.81-.1-4.21C534,312.61,431.88,375.18,306.43,375.18Z"/><path class="cls-11" d="M305.91,357.81c-125,0-226.78-53.62-230.33-131.65-.06,1.4-.1,2.8-.1,4.21,0,80,103.16,144.81,230.43,144.81s230.42-64.84,230.42-144.81c0-1.41,0-2.81-.1-4.21C532.69,304.19,430.93,357.81,305.91,357.81Z"/><path class="cls-11" d="M272.55,107.21c-28.32,2-100.32,11.34-139.54,56.32a8.27,8.27,0,0,1-9.39,2.22h0a8.29,8.29,0,0,1-2.77-13.49c16.36-16.42,60.25-49.93,150.54-56.88a5.9,5.9,0,0,1,4.6,1.73l.27.28A5.78,5.78,0,0,1,272.55,107.21Z"/><path class="cls-12" d="M281.12,184.49c1.1-3.89,5.46-7.62,14.73-9.81v-4.24C283.21,173.42,279.67,179.27,281.12,184.49Z"/><path class="cls-12" d="M341,244.62c-2-4.38-8-7.65-16.23-10.52l0,4.26C333,241.23,339,244.5,341,248.86a13.76,13.76,0,0,1,.75,2.14A8.76,8.76,0,0,0,341,244.62Z"/><path class="cls-12" d="M324.05,172.9c30.37,1.61,46.24,12.83,46.24,12.83s-.15-1.71-.41-4.52c-2.55-1.66-18.15-11.1-45.88-12.55Z"/><path class="cls-12" d="M295.85,230.3v-4.24c-26.27-6.83-54.4-15.45-56.19-36.33,0,.12,0,.22,0,.34C238,213.82,268,223.06,295.85,230.3Z"/><path class="cls-12" d="M376.63,261.59c-7.87,12-27.74,18.23-51.33,20.05l.05,4.23c23.57-1.81,43.42-8,51.28-20a30,30,0,0,0,5.05-18.73A30.68,30.68,0,0,1,376.63,261.59Z"/><path class="cls-12" d="M295.85,281.79c-19.27-1.14-38.78-4.5-54.87-9.5,0,1.33-.11,2.71-.17,4.19,16.11,5,35.7,8.41,55,9.55Z"/><polygon class="cls-12" points="295.85 303.01 295.85 307.26 325.55 307.26 325.5 303.01 295.85 303.01"/><path class="cls-13" d="M542.12,233.13v88.38s-6.84,31-24.2,48.41V302.05S536.86,283.11,542.12,233.13Z"/><path class="cls-14" d="M68.11,228.4v88.38s6.84,31,24.2,48.4V297.31S73.37,278.37,68.11,228.4Z"/><path class="cls-15" d="M337.07,444.25V385.86q-15,1.25-30.57,1.26c-11.39,0-22.58-.54-33.54-1.54V444c10.94.95,22.13,1.46,33.54,1.46Q322.07,445.45,337.07,444.25Z"/><path class="cls-16" d="M398.81,433.76l2.22-59.3a339.21,339.21,0,0,1-64,11.4v58.39A337.44,337.44,0,0,0,398.81,433.76Z"/><path class="cls-16" d="M257.88,383.89c-6.75-.71-17.48-3-17.48-3v58.77c5.37,1,10.82,1.84,16.36,2.57l1.12.1Z"/><path class="cls-16" d="M225.31,377.37c-2.23-.35-4.53-.76-6.57-1.14a5.38,5.38,0,0,0-6.36,5.29V429.2a5.37,5.37,0,0,0,4.46,5.31c2.48.42,7,1.07,10,1.48a2.63,2.63,0,0,0,3-2.61v-50.7A5.37,5.37,0,0,0,225.31,377.37Z"/><path class="cls-13" d="M202.15,423.54V376.63a5.68,5.68,0,0,0-4-5.42c-2.91-.92-6.78-2.17-10.13-3.26-3.63-1.18-25.33-12.62-25.41-8.8l-28.49,41.63c-.05,2.45,46.87,23.68,49.19,24.49,3.75,1.32,7.56,2.55,11.44,3.72A5.7,5.7,0,0,0,202.15,423.54Z"/><polygon class="cls-17" points="331.57 314.8 341.79 313.02 340.71 285.2 331.57 286.58 331.57 314.8"/><path class="cls-1" d="M702.52,703.08c-22.91,11.08-126.63,11.16-171,3-68.26-12.57-99-18-111-16.5-62.35,7.79-55.25,33.61-64.5-27-13.5-88.5,35.05-54.58,46.5-82.5,8.81-21.48-12.69-67.38-4.5-90,7.55-20.82,19.86-18.17,31.5-52.5,30-88.5,90.24-170.73,138.9-168.55,67.91,3,130.25,90.48,139.61,215.78S762.7,674,702.52,703.08Z"/><path class="cls-2" d="M470.68,503c-8.61-115.36,28.72-213.9,99.44-237.6,7.45-2.5,40.88-4.47,48.8-5.19,14.32-1.3,31.8-3.33,45.29.54C729,279.32,777.5,356.1,786.34,474.42s-27.59,202.79-88.77,232.77c-12.74,6.24-30.29,7.38-44.6,8.68-7.92.71-41.19,4.78-48.92,3.66C530.77,708.86,479.3,618.35,470.68,503Z"/><ellipse class="cls-18" cx="661.83" cy="485.69" rx="109.26" ry="195.99" transform="translate(-31.25 45.75) rotate(-3.87)"/><ellipse class="cls-4" cx="661.83" cy="485.69" rx="109.26" ry="195.99" transform="translate(-31.25 45.75) rotate(-3.87)"/><path class="cls-5" d="M751,477.62c7.59,101.49-28.63,187.59-80.88,192.32a50.48,50.48,0,0,1-15.93-1.15,52.15,52.15,0,0,0,27.87,5.55c52.25-4.73,88.28-93.27,80.48-197.76S706,291.22,653.77,296c-9.48.86-18.42,4.51-26.67,10.48a51.45,51.45,0,0,1,15.55-4C694.9,297.7,743.41,376.14,751,477.62Z"/><path class="cls-5" d="M652.22,558.56l-.06-.48c12-2.22,23.24-14.73,26.43-40.73,2.95-24,5.49-38.8,8.59-47.69,2.23,5.43,4,13.4,4.66,24.62,1.56,24.51-4.1,40.71-6.91,47.08l-2.82,4.69,20.51-2.24a60.69,60.69,0,0,0,10.29-2.36c4.46-.87,7.37-2.08,14.81-3.67,8.07-52.37-.34-119.08-36.59-118.44-.49,0-.93.1-1.4.14-.65-.22-1-.3-1-.3l-18.54,2.06c-26.84.61-30.62,43.3-36.26,73.18-1-28.38,5.3-69.06,7-68.28l-24.24,1.07c-5.36.48-12.73,1.75-26.56,2.4-9.95,44.25-5.87,113.61,19.47,127.53a27.71,27.71,0,0,0,14.73,3.52l.31.39Z"/><path class="cls-6" d="M730.28,546.68a7,7,0,0,1-.78.23c-3.71.8-6.23,1.5-8.45,2.11-1.95.54-3.79,1.05-5.95,1.49l-.35.09a66.23,66.23,0,0,1-11.32,2.5l-20.37,2.22a8,8,0,0,1-4-.59,6,6,0,0,0-6.69,1.71,33.78,33.78,0,0,1-15.53,10.09,8.23,8.23,0,0,1-3.77,1.31l-27.55,2.5a8.09,8.09,0,0,1-3.14-.34,36.45,36.45,0,0,1-16.59-4.57C584.39,553.7,578.59,517,577,496.08h0a249.84,249.84,0,0,1,3.5-64c1.4-7.23,7.12-12.49,13.83-12.91,7.23-.46,12.42-1.07,16.38-1.55,2-.23,3.76-.44,5.34-.58l.37,0,24.15-1.06a8.34,8.34,0,0,1,3.83.73,7.58,7.58,0,0,1,1,.55,6,6,0,0,0,7-.15,29.42,29.42,0,0,1,17.28-6l18.21-2a9.08,9.08,0,0,1,2.6.13l.53,0a34.14,34.14,0,0,1,19.09,5.18c5.14,3.21,11.13-2.27,9-8.33-17.51-49-47.85-80.89-79.9-78-45.72,4.14-77.55,77.45-71.1,163.74s48.73,152.89,94.45,148.75C695.11,637.54,720.61,599.49,730.28,546.68Z"/><path class="cls-7" d="M678.59,517.35c.74-6,1.46-11.42,2.16-16.35l31.15-3.21c.76,28.87-7.8,44.76-7.8,44.76s11.49-2.17,23.62-4.77a244.67,244.67,0,0,0,2.75-41.91l14.21-1.47-2-26.21-14.53,1.32C723.6,440.88,712,419,691.13,419.34c-20.58.37-26.43,29.4-30.71,56.3L634,478c1.05-25.42,5.5-52.53,6.92-51.89l-24.24,1.07A247.57,247.57,0,0,0,612.38,480l-18.3,1.66,2.1,28.08,18.41-1.9c3.23,22.16,10,40.47,20.91,47C652,564.62,673.91,555.46,678.59,517.35Zm14.85-57.89c4.68-3.4,11-1.49,14.93,11.84l-22.33,2C688.17,465.85,690.52,461.59,693.44,459.46Zm-58.61,46.28,20.7-2.14c-1.89,8-4.29,14-7.92,16.17C640.24,524.27,636.45,517.44,634.83,505.74Z"/><path class="cls-5" d="M567.24,511.91l-2-26.83a.61.61,0,0,1,.52-.68l28.18-2.55L596,509.93l-28.17,2.55A.57.57,0,0,1,567.24,511.91Z"/><path class="cls-8" d="M675.86,705.3c-69,6.24-132.17-86.92-141.23-208.09s39.5-224.46,108.44-230.7,132.17,86.93,141.23,208.1S744.8,699.06,675.86,705.3Zm90.22-229c-7.73-103.39-60.66-183-118.24-177.76s-98,93.24-90.25,196.63,60.66,183,118.23,177.76S773.8,579.64,766.08,476.26Z"/><path class="cls-9" d="M541.26,496.61c-8.73-116.95,37.18-216.89,102.36-222.79s125.31,84.44,134,201.39S740.49,692.1,675.31,698,550,613.56,541.26,496.61Zm231.45-20.95C768.87,424.33,754.07,377,731,342.32c-23.75-35.7-53.48-53.86-83.72-51.12s-56.88,26-75,65.49c-17.6,38.33-25.17,87.71-21.34,139s18.64,98.68,41.69,133.33c23.75,35.71,53.48,53.87,83.72,51.13s56.88-26,75-65.5C769,576.36,776.54,527,772.71,475.66Z"/><path class="cls-10" d="M535.54,497.13c-8.9-119,37.8-220.81,104.82-230.27-1.21.05-2.42.12-3.64.23-68.94,6.24-117.49,109.53-108.44,230.69s72.28,214.34,141.23,208.1c1.21-.11,2.42-.26,3.62-.43C605.61,708.16,544.43,616.16,535.54,497.13Z"/><path class="cls-11" d="M550.47,495.27c-8.87-118.63,30.15-219.37,97.16-228.82-1.21.05-2.42.12-3.63.23-69,6.24-117.52,109.19-108.5,230S607.73,710.21,676.67,704c1.21-.11,2.42-.26,3.62-.42C612.78,706.27,559.33,613.9,550.47,495.27Z"/><path class="cls-11" d="M764.14,444.07c-3.69-26.73-16.89-94.3-58.45-128a8.33,8.33,0,0,1-2.57-8.74h0c1.54-5.34,7.54-7.3,11.43-3.68,15.31,14.24,47.31,53.27,59.7,138.4a6,6,0,0,1-1.16,4.5c-.08.09-.15.19-.22.28C770.08,450.38,764.78,448.72,764.14,444.07Z"/><path class="cls-12" d="M698.12,458.22c3.44.75,7,4.59,9.51,13.22l3.65-.33C707.82,459.35,702.53,456.44,698.12,458.22Z"/><path class="cls-12" d="M650.54,519.73c3.63-2.22,6-8.21,7.92-16.23l-3.67.38c-1.9,8-4.29,14-7.91,16.18a11.32,11.32,0,0,1-1.79.88C646.64,521.35,648.44,521,650.54,519.73Z"/><path class="cls-12" d="M711.16,498.06c.77,28.95-7.78,44.88-7.78,44.88l3.86-.75c1.25-2.54,8.28-18.09,7.58-44.51Z"/><path class="cls-12" d="M659.68,475.78l3.66-.33c4-25.46,9.46-52.82,27.33-56.15l-.3,0C669.79,419.64,664,448.78,659.68,475.78Z"/><path class="cls-12" d="M638.44,554.87c-10.93-6.52-17.69-24.9-20.93-47.14l-3.65.38c3.24,22.22,10,40.57,20.92,47.09a23.91,23.91,0,0,0,16.5,3.34A24.71,24.71,0,0,1,638.44,554.87Z"/><path class="cls-12" d="M615.3,479.8a248.57,248.57,0,0,1,4.29-52.8l-3.62.16a248.64,248.64,0,0,0-4.33,53Z"/><polygon class="cls-12" points="597 481.45 593.34 481.78 595.44 509.96 599.1 509.59 597 481.45"/><path class="cls-13" d="M674.7,709.68l-76.19,6.9s-27.24-4.07-43.44-19.19l58.5-5.3S631.24,708.59,674.7,709.68Z"/><path class="cls-14" d="M645.17,259.54,569,266.44s-26.27,8.91-40,26.74l58.51-5.3S602.46,268.43,645.17,259.54Z"/><path class="cls-15" d="M478.16,531.59,528.5,527q-2.14-14.14-3.26-28.91-1.2-16.23-1-31.95l-50.36,4.56c0,10.46.31,21.11,1.12,31.94Q476.07,517.45,478.16,531.59Z"/><path class="cls-16" d="M491.58,589.35l51.28-2.52A350.24,350.24,0,0,1,528.5,527l-50.34,4.55A348.81,348.81,0,0,0,491.58,589.35Z"/><path class="cls-16" d="M524.58,451.74c.14-6.47,1.36-16.83,1.36-16.83l-50.66,4.59q-.69,7.77-1.06,15.73v1.07Z"/><path class="cls-16" d="M527.9,420.33c.14-2.14.33-4.36.51-6.33.31-3.18-2.11-5.88-5-5.62l-41.1,3.72a4.89,4.89,0,0,0-4.26,4.65c-.19,2.38-.42,6.75-.57,9.64a2.38,2.38,0,0,0,2.46,2.63l43.71-4A4.89,4.89,0,0,0,527.9,420.33Z"/><path class="cls-16" d="M486.45,402l40.44-3.66a5.07,5.07,0,0,0,4.39-4.18c.59-2.84,1.39-6.61,2.1-9.87.76-3.54-1.8-6.87-5.09-6.65l-40.19,2.64a5.07,5.07,0,0,0-4.48,4q-1.29,5.49-2.39,11.15C480.54,399,483.15,402.25,486.45,402Z"/><polygon class="cls-17" points="589.37 516.27 591.63 525.83 615.53 522.64 613.69 514.07 589.37 516.27"/><polygon class="cls-11" points="681.29 362.75 737.38 348.49 738.22 308.11 751.63 350.02 800 352.71 753.66 364.33 746.31 407.77 738.11 366.8 681.29 362.75"/><polygon class="cls-11" points="224.74 306.23 301.93 286.6 303.08 231.05 321.53 288.72 388.09 292.42 324.32 308.41 314.21 368.18 302.93 311.8 224.74 306.23"/><polygon class="cls-11" points="109.24 592.83 157.62 580.52 158.34 545.71 169.9 581.85 211.61 584.17 171.65 594.19 165.31 631.65 158.24 596.32 109.24 592.83"/></svg>