<svg id="Layer_1" data-name="Layer 1" xmlns="http://www.w3.org/2000/svg" xmlns:xlink="http://www.w3.org/1999/xlink" viewBox="0 0 800 800"><defs><style>.cls-1{fill:#1c1c1c;}.cls-1,.cls-3{opacity:0.3;}.cls-2{fill:#07374a;}.cls-3{fill:#1bb8ff;}.cls-4{fill:url(#linear-gradient);}.cls-5{fill:url(#linear-gradient-2);}.cls-6{fill:url(#linear-gradient-3);}.cls-7{fill:url(#linear-gradient-4);}.cls-8{fill:url(#linear-gradient-5);}.cls-9{fill:url(#linear-gradient-6);}.cls-10{fill:url(#linear-gradient-7);}.cls-11{fill:url(#linear-gradient-8);}.cls-12{fill:url(#linear-gradient-9);}.cls-13{fill:#b5ffff;opacity:0.6;}.cls-14{fill:url(#linear-gradient-10);}.cls-15{fill:url(#linear-gradient-11);}.cls-16{fill:#fff;}.cls-17{fill:url(#linear-gradient-12);}.cls-18{fill:url(#linear-gradient-13);}.cls-19{fill:url(#linear-gradient-14);}.cls-20{fill:url(#linear-gradient-15);}.cls-21{fill:url(#linear-gradient-16);}.cls-22{fill:url(#linear-gradient-17);}.cls-23{fill:url(#linear-gradient-18);}.cls-24{fill:url(#linear-gradient-19);}.cls-25{fill:url(#linear-gradient-20);}.cls-26{fill:url(#linear-gradient-21);}.cls-27{fill:url(#linear-gradient-22);}.cls-28{fill:url(#linear-gradient-23);}.cls-29{fill:url(#linear-gradient-24);}.cls-30{fill:url(#linear-gradient-25);}.cls-31{fill:url(#linear-gradient-26);}.cls-32{fill:url(#linear-gradient-27);}.cls-33{fill:url(#linear-gradient-28);}.cls-34{fill:url(#linear-gradient-29);}.cls-35{fill:url(#linear-gradient-30);}.cls-36{fill:url(#linear-gradient-31);}.cls-37{fill:url(#linear-gradient-32);}.cls-38{fill:url(#linear-gradient-33);}.cls-39{fill:url(#linear-gradient-34);}.cls-40{fill:url(#linear-gradient-35);}.cls-41{fill:url(#linear-gradient-36);}.cls-42{fill:url(#linear-gradient-37);}.cls-43{fill:url(#linear-gradient-38);}.cls-44{fill:url(#linear-gradient-39);}.cls-45{fill:url(#linear-gradient-40);}.cls-46{fill:url(#linear-gradient-41);}.cls-47{fill:url(#linear-gradient-42);}.cls-48{fill:url(#linear-gradient-43);}.cls-49{fill:url(#linear-gradient-44);}</style><linearGradient id="linear-gradient" x1="496.67" y1="849.5" x2="460.67" y2="535.5" gradientUnits="userSpaceOnUse"><stop offset="0" stop-color="#92acb3"/><stop offset="0.19" stop-color="#74939c"/><stop offset="0.94" stop-color="#003145"/></linearGradient><linearGradient id="linear-gradient-2" x1="117.89" y1="1745.28" x2="99.11" y2="1446.21" gradientTransform="translate(109.43 -925.39) rotate(-1)" gradientUnits="userSpaceOnUse"><stop offset="0.05" stop-color="#9fc762"/><stop offset="0.59" stop-color="#008ebb"/></linearGradient><linearGradient id="linear-gradient-3" x1="27.72" y1="1426.79" x2="235.77" y2="1409.45" gradientTransform="translate(109.43 -925.39) rotate(-1)" gradientUnits="userSpaceOnUse"><stop offset="0.25" stop-color="#e700ff"/><stop offset="0.79" stop-color="#fa7a36"/><stop offset="1" stop-color="#ffd100"/></linearGradient><linearGradient id="linear-gradient-4" x1="313.1" y1="1431.55" x2="43.29" y2="1301.52" gradientTransform="translate(109.43 -925.39) rotate(-1)" gradientUnits="userSpaceOnUse"><stop offset="0.53" stop-color="#fabd09"/><stop offset="0.83" stop-color="#fa6b00"/></linearGradient><linearGradient id="linear-gradient-5" x1="85.43" y1="1342.09" x2="432.18" y2="1367.02" gradientTransform="translate(109.43 -925.39) rotate(-1)" gradientUnits="userSpaceOnUse"><stop offset="0.2" stop-color="#baff8e"/><stop offset="0.75" stop-color="#008ebb"/><stop offset="0.87" stop-color="#008ebb"/></linearGradient><linearGradient id="linear-gradient-6" x1="369.3" y1="1241.35" x2="207.84" y2="1610.85" gradientTransform="translate(109.43 -925.39) rotate(-1)" gradientUnits="userSpaceOnUse"><stop offset="0" stop-color="#fff"/><stop offset="0.21" stop-color="#baff8e"/><stop offset="0.63" stop-color="#008ebb"/></linearGradient><linearGradient id="linear-gradient-7" x1="244.74" y1="1360.37" x2="211.51" y2="1324.25" gradientTransform="translate(109.43 -925.39) rotate(-1)" gradientUnits="userSpaceOnUse"><stop offset="0.42" stop-color="#fabd09"/><stop offset="0.83" stop-color="#fa6b00"/></linearGradient><linearGradient id="linear-gradient-8" x1="193.54" y1="1389.27" x2="289.45" y2="1389.27" gradientTransform="translate(109.43 -925.39) rotate(-1)" gradientUnits="userSpaceOnUse"><stop offset="0" stop-color="#baff8e"/><stop offset="0.63" stop-color="#008ebb"/><stop offset="0.7" stop-color="#008ebb"/></linearGradient><linearGradient id="linear-gradient-9" x1="322.14" y1="1471.12" x2="88.81" y2="1510.85" gradientTransform="translate(109.43 -925.39) rotate(-1)" gradientUnits="userSpaceOnUse"><stop offset="0" stop-color="#baff8e"/><stop offset="0.63" stop-color="#008ebb"/></linearGradient><linearGradient id="linear-gradient-10" x1="31.28" y1="1407.97" x2="135.31" y2="1510.19" gradientTransform="translate(109.43 -925.39) rotate(-1)" gradientUnits="userSpaceOnUse"><stop offset="0.25" stop-color="#a900ff"/><stop offset="0.64" stop-color="#f037a5"/><stop offset="0.76" stop-color="#f45672"/><stop offset="0.89" stop-color="#fa7a36"/><stop offset="1" stop-color="#ff9b00"/></linearGradient><linearGradient id="linear-gradient-11" x1="118.09" y1="1407.46" x2="161.43" y2="1433.47" gradientTransform="translate(109.43 -925.39) rotate(-1)" gradientUnits="userSpaceOnUse"><stop offset="0.25" stop-color="#e700ff"/><stop offset="0.32" stop-color="#e804f9"/><stop offset="0.41" stop-color="#e90ee8"/><stop offset="0.52" stop-color="#ec1fcc"/><stop offset="0.64" stop-color="#f037a5"/><stop offset="0.76" stop-color="#f45672"/><stop offset="0.89" stop-color="#fa7a36"/><stop offset="1" stop-color="#ff9b00"/></linearGradient><linearGradient id="linear-gradient-12" x1="410.59" y1="712.24" x2="388.59" y2="396.24" xlink:href="#linear-gradient"/><linearGradient id="linear-gradient-13" x1="47.82" y1="1652.17" x2="29.04" y2="1353.1" xlink:href="#linear-gradient-2"/><linearGradient id="linear-gradient-14" x1="-42.35" y1="1333.68" x2="165.7" y2="1316.34" xlink:href="#linear-gradient-3"/><linearGradient id="linear-gradient-15" x1="243.03" y1="1338.43" x2="-26.78" y2="1208.4" xlink:href="#linear-gradient-4"/><linearGradient id="linear-gradient-16" x1="15.37" y1="1248.98" x2="362.11" y2="1273.91" xlink:href="#linear-gradient-5"/><linearGradient id="linear-gradient-17" x1="299.23" y1="1148.24" x2="137.77" y2="1517.74" xlink:href="#linear-gradient-6"/><linearGradient id="linear-gradient-18" x1="174.67" y1="1267.26" x2="141.44" y2="1231.14" xlink:href="#linear-gradient-7"/><linearGradient id="linear-gradient-19" x1="123.47" y1="1296.16" x2="219.39" y2="1296.16" xlink:href="#linear-gradient-8"/><linearGradient id="linear-gradient-20" x1="252.07" y1="1378" x2="18.74" y2="1417.74" xlink:href="#linear-gradient-9"/><linearGradient id="linear-gradient-21" x1="-38.78" y1="1314.86" x2="65.24" y2="1417.08" xlink:href="#linear-gradient-10"/><linearGradient id="linear-gradient-22" x1="48.02" y1="1314.35" x2="91.36" y2="1340.36" xlink:href="#linear-gradient-11"/><linearGradient id="linear-gradient-23" x1="461.59" y1="619.61" x2="465.59" y2="389.61" xlink:href="#linear-gradient"/><linearGradient id="linear-gradient-24" x1="120.26" y1="1540.37" x2="101.48" y2="1241.3" xlink:href="#linear-gradient-2"/><linearGradient id="linear-gradient-25" x1="30.09" y1="1221.88" x2="238.14" y2="1204.55" xlink:href="#linear-gradient-3"/><linearGradient id="linear-gradient-26" x1="315.47" y1="1226.64" x2="45.66" y2="1096.61" xlink:href="#linear-gradient-4"/><linearGradient id="linear-gradient-27" x1="87.8" y1="1137.19" x2="434.55" y2="1162.11" xlink:href="#linear-gradient-5"/><linearGradient id="linear-gradient-28" x1="371.67" y1="1036.44" x2="210.21" y2="1405.95" xlink:href="#linear-gradient-6"/><linearGradient id="linear-gradient-29" x1="247.11" y1="1155.46" x2="213.88" y2="1119.34" xlink:href="#linear-gradient-7"/><linearGradient id="linear-gradient-30" x1="195.91" y1="1184.36" x2="291.82" y2="1184.36" xlink:href="#linear-gradient-8"/><linearGradient id="linear-gradient-31" x1="324.51" y1="1266.21" x2="91.18" y2="1305.94" xlink:href="#linear-gradient-9"/><linearGradient id="linear-gradient-32" x1="33.65" y1="1203.07" x2="137.68" y2="1305.28" xlink:href="#linear-gradient-10"/><linearGradient id="linear-gradient-33" x1="120.46" y1="1202.56" x2="163.8" y2="1228.56" xlink:href="#linear-gradient-11"/><linearGradient id="linear-gradient-34" x1="368.93" y1="522.81" x2="558.93" y2="288.81" gradientUnits="userSpaceOnUse"><stop offset="0" stop-color="#92acb3"/><stop offset="0.63" stop-color="#003145"/></linearGradient><linearGradient id="linear-gradient-35" x1="414.26" y1="628.18" x2="568.26" y2="406.18" gradientTransform="matrix(0.67, -0.74, -0.74, -0.67, 583.82, 1318.7)" xlink:href="#linear-gradient-34"/><linearGradient id="linear-gradient-36" x1="380.09" y1="1465.24" x2="569.96" y2="1449.42" gradientTransform="matrix(-0.33, -0.94, -0.94, 0.33, 2149.14, 511.51)" xlink:href="#linear-gradient-3"/><linearGradient id="linear-gradient-37" x1="640.54" y1="1469.58" x2="394.3" y2="1350.92" gradientTransform="matrix(-0.33, -0.94, -0.94, 0.33, 2149.14, 511.51)" xlink:href="#linear-gradient-4"/><linearGradient id="linear-gradient-38" x1="432.76" y1="1387.95" x2="749.21" y2="1410.69" gradientTransform="matrix(-0.33, -0.94, -0.94, 0.33, 2149.14, 511.51)" xlink:href="#linear-gradient-5"/><linearGradient id="linear-gradient-39" x1="691.82" y1="1296.01" x2="544.48" y2="1633.22" gradientTransform="matrix(-0.33, -0.94, -0.94, 0.33, 2149.14, 511.51)" xlink:href="#linear-gradient-6"/><linearGradient id="linear-gradient-40" x1="578.15" y1="1404.62" x2="547.82" y2="1371.66" gradientTransform="matrix(-0.33, -0.94, -0.94, 0.33, 2149.14, 511.51)" xlink:href="#linear-gradient-7"/><linearGradient id="linear-gradient-41" x1="531.42" y1="1431" x2="618.96" y2="1431" gradientTransform="matrix(-0.33, -0.94, -0.94, 0.33, 2149.14, 511.51)" xlink:href="#linear-gradient-8"/><linearGradient id="linear-gradient-42" x1="648.78" y1="1505.7" x2="435.84" y2="1541.96" gradientTransform="matrix(-0.33, -0.94, -0.94, 0.33, 2149.14, 511.51)" xlink:href="#linear-gradient-9"/><linearGradient id="linear-gradient-43" x1="383.35" y1="1448.07" x2="478.28" y2="1541.36" gradientTransform="matrix(-0.33, -0.94, -0.94, 0.33, 2149.14, 511.51)" xlink:href="#linear-gradient-10"/><linearGradient id="linear-gradient-44" x1="462.57" y1="1447.61" x2="502.12" y2="1471.34" gradientTransform="matrix(-0.33, -0.94, -0.94, 0.33, 2149.14, 511.51)" xlink:href="#linear-gradient-11"/></defs><path class="cls-1" d="M461,658.22l-100,58s-220-102-226-114-36-26,34-26,258-42,318-16S461,658.22,461,658.22Z"/><polygon class="cls-2" points="577.79 501.95 354.22 620.11 125.27 510.3 124.92 427.94 349.34 308.08 576.28 415.1 577.79 501.95"/><polygon class="cls-3" points="139.93 502.02 139.95 505.58 354.93 608.69 563.72 498.36 563.58 490.2 351.62 388.96 139.93 502.02"/><path class="cls-4" d="M354.22,620.11,577.79,502l1.36,77.95L358.28,697.53S354.21,619.57,354.22,620.11Z"/><polygon class="cls-5" points="358.28 697.53 354.22 620.11 125.27 510.3 126.58 585.6 358.28 697.53"/><polygon class="cls-6" points="259.69 543.73 161.89 497.2 277.71 436.15 376.21 482.09 259.69 543.73"/><path class="cls-7" d="M161.89,497.2C164,496.62,418,361.61,418,361.61l-70-35.09L160.11,426.25Z"/><polygon class="cls-8" points="326.61 434.73 440.97 373.68 537.13 419.15 423.31 479.65 326.61 434.73"/><polygon class="cls-9" points="536.8 419.36 283.17 554.15 352.57 587.63 541.04 487.9 536.8 419.36"/><path class="cls-10" d="M277.71,436.21l8.74,4.07c65.22-34.6,131.7-69.94,131.7-69.94l-.5-8.68C395.12,373.64,277.71,436.21,277.71,436.21Z"/><polygon class="cls-11" points="423.35 479.62 326.64 434.76 326.86 443.49 414.79 484.34 423.35 479.62"/><polygon class="cls-12" points="353.37 586.98 283.46 553.9 284.13 562.18 353.52 595.65 541.61 496.31 541.09 487.85 353.37 586.98"/><polygon class="cls-13" points="577.72 501.99 354.22 620.11 347.31 616.28 569.43 499.35 571.38 413.7 576.28 415.1 577.72 501.99"/><polygon class="cls-14" points="161.89 497.23 162.05 506.59 259.85 553.12 259.43 543.54 161.89 497.23"/><polygon class="cls-15" points="375.69 482.4 259.43 543.54 259.85 553.12 376.37 491.48 375.69 482.4"/><polygon class="cls-16" points="417.65 361.66 348.41 326.18 243.9 382 348.67 331.57 417.65 361.66"/><polygon class="cls-16" points="290.12 443.16 375.69 482.4 259.43 543.54 364.49 482.32 290.12 443.16"/><polygon class="cls-1" points="289.54 591.75 126.05 525.75 126.05 558.75 289.54 644.25 289.54 591.75"/><polygon class="cls-2" points="506.12 410.07 282.55 528.23 53.59 418.42 53.24 336.06 277.66 216.2 504.61 323.22 506.12 410.07"/><polygon class="cls-3" points="68.26 410.14 68.27 413.7 283.25 516.81 492.04 406.48 491.9 398.32 279.94 297.08 68.26 410.14"/><path class="cls-17" d="M282.55,528.23,506.12,410.07,507.47,488,286.6,605.65S282.54,527.69,282.55,528.23Z"/><polygon class="cls-18" points="286.6 605.65 282.55 528.23 53.59 418.42 54.9 493.72 286.6 605.65"/><polygon class="cls-19" points="188.02 451.85 90.21 405.32 206.04 344.27 304.53 390.22 188.02 451.85"/><path class="cls-20" d="M90.21,405.32c2.16-.58,256.12-135.59,256.12-135.59l-70-35.08L88.44,334.37Z"/><polygon class="cls-21" points="254.94 342.85 369.3 281.8 465.46 327.27 351.63 387.77 254.94 342.85"/><polygon class="cls-22" points="465.12 327.48 211.5 462.28 280.9 495.75 469.36 396.02 465.12 327.48"/><path class="cls-23" d="M206,344.33l8.73,4.07c65.23-34.6,131.71-69.94,131.71-69.94l-.5-8.68C323.44,281.76,206,344.33,206,344.33Z"/><polygon class="cls-24" points="351.67 387.74 254.97 342.88 255.18 351.61 343.12 392.46 351.67 387.74"/><polygon class="cls-25" points="281.7 495.1 211.79 462.02 212.45 470.3 281.85 503.77 469.94 404.44 469.41 395.97 281.7 495.1"/><polygon class="cls-13" points="506.04 410.11 282.55 528.23 275.64 524.4 497.76 407.47 499.7 321.82 504.61 323.22 506.04 410.11"/><polygon class="cls-26" points="90.21 405.35 90.38 414.71 188.18 461.24 187.75 451.66 90.21 405.35"/><polygon class="cls-27" points="304.02 390.52 187.75 451.66 188.18 461.24 304.69 399.61 304.02 390.52"/><polygon class="cls-16" points="469.41 395.97 281.7 495.1 211.79 462.02 282.46 490.87 468.8 393.35 469.41 395.97"/><polygon class="cls-16" points="448.25 465.05 449.89 405.33 413.28 394.9 455.02 391.39 470.11 343.46 468.6 392.75 506.31 410.44 466.79 408.95 448.25 465.05"/><polygon class="cls-16" points="345.98 269.78 276.74 234.3 172.22 290.13 277 239.69 345.98 269.78"/><polygon class="cls-16" points="218.44 351.28 304.02 390.52 187.75 451.66 292.82 390.44 218.44 351.28"/><path class="cls-1" d="M421.53,458.26l-64.45,34.35L125.38,380.68l-24.83,14.58L327,501.75s7.5,75,12,73.5,88.49-42,88.49-42Z"/><polygon class="cls-2" points="576.6 297.04 353.03 415.2 124.08 305.38 123.73 223.03 348.15 103.16 575.09 210.19 576.6 297.04"/><polygon class="cls-3" points="138.74 297.11 138.75 300.66 353.74 403.77 562.53 293.44 562.38 285.29 350.43 184.04 138.74 297.11"/><path class="cls-28" d="M353,415.2,576.6,297,578,375,357.08,492.61S353,414.65,353,415.2Z"/><polygon class="cls-29" points="357.08 492.61 353.03 415.2 124.08 305.38 125.38 380.68 357.08 492.61"/><polygon class="cls-30" points="258.5 338.81 160.69 292.28 276.52 231.23 375.01 277.18 258.5 338.81"/><path class="cls-31" d="M160.69,292.28c2.16-.58,256.12-135.58,256.12-135.58l-70-35.09L158.92,221.33Z"/><polygon class="cls-32" points="325.42 229.81 439.78 168.76 535.94 214.23 422.11 274.73 325.42 229.81"/><polygon class="cls-33" points="535.6 214.44 281.98 349.24 351.38 382.71 539.84 282.98 535.6 214.44"/><path class="cls-34" d="M276.52,231.29l8.74,4.07C350.48,200.77,417,165.42,417,165.42l-.5-8.68C393.93,168.72,276.52,231.29,276.52,231.29Z"/><polygon class="cls-35" points="422.16 274.7 325.45 229.84 325.66 238.57 413.6 279.42 422.16 274.7"/><polygon class="cls-36" points="352.18 382.07 282.27 348.99 282.93 357.26 352.33 390.73 540.42 291.4 539.89 282.93 352.18 382.07"/><polygon class="cls-13" points="576.52 297.07 353.03 415.2 346.12 411.37 568.24 294.44 570.18 208.78 575.09 210.19 576.52 297.07"/><polygon class="cls-37" points="160.69 292.32 160.86 301.67 258.66 348.2 258.24 338.63 160.69 292.32"/><polygon class="cls-38" points="374.5 277.48 258.24 338.63 258.66 348.2 375.18 286.57 374.5 277.48"/><polygon class="cls-16" points="539.89 282.93 352.18 382.07 282.27 348.99 352.94 377.83 539.28 280.31 539.89 282.93"/><polygon class="cls-16" points="416.46 156.74 347.22 121.27 242.7 177.09 347.48 126.66 416.46 156.74"/><polygon class="cls-16" points="288.92 238.24 374.5 277.48 258.24 338.63 363.3 277.41 288.92 238.24"/><path class="cls-1" d="M437,320.22l-34,60s-26,58-20,82,8,42,8,58a292.76,292.76,0,0,1-1.68,30.3L429,582.22s8,78,14,72,136.62,44,136.62,44,21.38-54-.62-112-42-140-64-166S437,320.22,437,320.22Z"/><polygon class="cls-2" points="507.32 285.75 477.54 514.6 644.43 675.39 714.97 649.43 745.93 419.31 582.07 259.36 507.32 285.75"/><polygon class="cls-3" points="646.84 660.21 643.79 661.33 487.09 510.36 514.88 296.64 521.9 294.16 676.04 443.14 646.84 660.21"/><path class="cls-39" d="M477.54,514.6l29.78-228.85-67.09,23.69L410.05,535.81S478,514.44,477.54,514.6Z"/><polygon class="cls-40" points="410.05 535.82 477.54 514.6 644.43 675.39 579.62 698.27 410.05 535.82"/><polygon class="cls-41" points="573 571.09 643.96 639.89 659.25 521.39 588.56 451.81 573 571.09"/><path class="cls-42" d="M644,639.9c-.19-2,34.3-262.24,34.3-262.24l52.31,48.65L705.2,618.8Z"/><polygon class="cls-43" points="644.87 479.12 660.62 361.86 591.09 294.13 575.63 410.75 644.87 479.12"/><polygon class="cls-44" points="591.01 294.48 556.59 554.34 505.85 505.66 531.05 312.7 591.01 294.48"/><path class="cls-45" d="M659.2,521.41l-6.27-6.18c8.79-66.8,17.82-134.92,17.82-134.92l7.58-2.34C675.28,401.06,659.2,521.41,659.2,521.41Z"/><polygon class="cls-46" points="575.65 410.7 644.84 479.1 637.3 481.7 574.34 419.52 575.65 410.7"/><polygon class="cls-47" points="506.14 504.77 556.72 554.01 549.43 556.08 498.68 507.4 523.67 314.9 531.08 312.64 506.14 504.77"/><polygon class="cls-13" points="507.31 285.83 477.54 514.6 483.02 519.29 512.21 292.07 584.83 263.11 582.07 259.36 507.31 285.83"/><polygon class="cls-48" points="643.93 639.9 635.88 642.75 564.91 573.94 573.24 571.26 643.93 639.9"/><polygon class="cls-49" points="588.46 452.35 573.24 571.26 564.91 573.94 580.48 454.66 588.46 452.35"/><polygon class="cls-16" points="531.08 312.64 506.14 504.77 556.72 554.01 509.52 502.77 533.52 312.34 531.08 312.64"/><polygon class="cls-16" points="447.03 365.26 516.72 334.62 550.96 381.16 533.83 319.94 593.99 273.07 524.7 301.35 479.55 257.11 502.62 312.51 447.03 365.26"/><polygon class="cls-16" points="686.15 433.08 723.5 443.44 722.01 472.81 734.97 443.16 773.78 444.05 737.36 432.89 733.8 400.91 725.05 430.18 686.15 433.08"/><polygon class="cls-16" points="282.35 132.33 338.88 147.25 337.19 191.59 356.17 146.61 414.74 147.22 359.58 131.07 353.61 82.9 340.98 127.22 282.35 132.33"/><polygon class="cls-16" points="678.33 377.97 730.75 425.88 716.33 533.04 726.05 427.37 678.33 377.97"/><polygon class="cls-16" points="649.3 513.01 588.46 452.35 573.24 571.26 592.1 461.9 649.3 513.01"/></svg>