<svg id="Layer_1" data-name="Layer 1" xmlns="http://www.w3.org/2000/svg" xmlns:xlink="http://www.w3.org/1999/xlink" viewBox="0 0 800 800"><defs><style>.cls-1,.cls-27,.cls-30,.cls-45,.cls-46,.cls-47,.cls-48,.cls-49,.cls-50{fill:none;}.cls-2{fill:#1c1c1c;opacity:0.2;}.cls-3{fill:#ffd111;}.cls-4{fill:#f29a16;}.cls-5{fill:#ffb300;}.cls-6{fill:#ffea92;}.cls-7{fill:#fff00d;}.cls-8{fill:#ef9d3b;}.cls-9{fill:#592e00;}.cls-10{fill:#5f3812;}.cls-11{fill:#472604;}.cls-12{fill:#361d00;}.cls-13{fill:#e6960d;}.cls-14{fill:#7e521f;}.cls-15{fill:#552c03;}.cls-16{fill:#8f540c;}.cls-17{fill:#cb8425;}.cls-18{fill:#482403;}.cls-19{fill:#fb9c33;}.cls-20{fill:#903900;}.cls-21{fill:#e5981c;}.cls-22{fill:#ebd800;}.cls-23{fill:#421e02;}.cls-24{fill:#341b01;}.cls-25{fill:#413812;}.cls-26{fill:#541d00;}.cls-27{stroke:#421e02;stroke-width:7.19px;}.cls-27,.cls-30,.cls-45,.cls-46,.cls-47,.cls-48,.cls-49,.cls-50{stroke-miterlimit:10;}.cls-28{clip-path:url(#clip-path);}.cls-29{fill:#d6960b;}.cls-30,.cls-45,.cls-46,.cls-47,.cls-48,.cls-49,.cls-50{stroke:#000;}.cls-30{stroke-width:0.22px;}.cls-31{fill:#d6ac00;}.cls-32{fill:#a64001;}.cls-33{fill:#f2c644;}.cls-34{fill:#e7ba33;}.cls-35{fill:#fec82e;}.cls-36{fill:#fde56c;}.cls-37{fill:#a65801;}.cls-38{fill:#fff;}.cls-39{fill:#ffeba2;}.cls-40{fill:#be7e4c;}.cls-41{fill:#ac7e4c;}.cls-42{fill:#ebc656;}.cls-43{fill:#e5b420;}.cls-44{fill:#b86734;}.cls-45{stroke-width:0.26px;}.cls-46{stroke-width:0.2px;}.cls-47{stroke-width:0.23px;}.cls-48{stroke-width:0.25px;}.cls-49{stroke-width:0.2px;}.cls-50{stroke-width:0.19px;}.cls-51{fill:url(#linear-gradient);}.cls-52{fill:url(#linear-gradient-2);}</style><clipPath id="clip-path"><polygon class="cls-1" points="558.95 414.99 410.01 494.61 59.69 412.18 130.14 314.87 230.78 269.68 573.76 288.17 558.95 414.99"/></clipPath><linearGradient id="linear-gradient" x1="381.58" y1="104.38" x2="373.05" y2="499" gradientUnits="userSpaceOnUse"><stop offset="0" stop-color="#fff"/><stop offset="1" stop-color="#fff" stop-opacity="0"/></linearGradient><linearGradient id="linear-gradient-2" x1="395" y1="178.67" x2="388.39" y2="484.34" gradientUnits="userSpaceOnUse"><stop offset="0.34" stop-color="#fff"/><stop offset="1" stop-color="#fff" stop-opacity="0"/></linearGradient></defs><path class="cls-2" d="M47.3,619.56s45.09,72.5,146.25,89.36c27.3,4.55,178.51,74.25,217,60,14.46-5.35,69.76,20.35,136.51,2.89,98.39-25.73,19.51-97.55-19.51-110.9-44.32-15.16-60.61-123.8-146.78-123.8S152.21,516.53,47.3,619.56Z"/><polygon class="cls-3" points="419.6 514.95 403.8 746.75 47.32 654.56 18.35 415.74 419.6 514.95"/><polygon class="cls-4" points="419.6 514.95 612.76 411.35 585.54 636.12 403.8 746.75 419.6 514.95"/><polygon class="cls-5" points="612.76 411.35 419.6 514.95 18.35 415.74 209.75 320.91 612.76 411.35"/><polygon class="cls-6" points="112.87 438.78 415.42 510.91 567.17 434.1 422.92 519.34 406.06 730.09 410.74 518.4 112.87 438.78"/><polygon class="cls-7" points="613.64 399.94 213.27 313.89 308.97 52.24 720.76 118.97 613.64 399.94"/><path class="cls-8" d="M613.64,399.94,720.76,119s93.07,54.44,50,202.82C754.12,372.72,686.51,430.67,613.64,399.94Z"/><path class="cls-9" d="M645.25,376.59,723.39,177.8s23.19,28.49,26.34,72C753.87,307,727.78,379.74,645.25,376.59Z"/><polygon class="cls-10" points="370.67 706.3 68.12 630.43 50.32 455.27 376.29 527.39 370.67 706.3"/><polygon class="cls-11" points="376.29 527.39 70.93 459.95 85.92 620.13 97.67 622.76 87.58 481.43 375.85 547.61 376.29 527.39"/><polygon class="cls-12" points="373.74 590.29 76.25 516.81 75.55 508.06 374.44 579.05 373.74 590.29"/><polygon class="cls-13" points="370.67 706.3 370.67 691.32 85.92 620.13 68.12 630.43 370.67 706.3"/><polygon class="cls-14" points="85.92 620.13 70.93 459.95 50.32 455.27 68.12 630.43 85.92 620.13"/><polygon class="cls-15" points="454.97 521.77 441.86 692.25 565.5 614.51 584.24 456.2 454.97 521.77"/><polygon class="cls-16" points="584.24 456.2 564.57 465.57 550.52 607.01 565.5 614.51 584.24 456.2"/><polygon class="cls-17" points="565.5 614.51 441.86 692.25 443.73 675.39 550.52 607.01 565.5 614.51"/><polygon class="cls-18" points="681.65 136.79 598.29 365.35 251.71 298.84 334.14 81.53 681.65 136.79"/><polygon class="cls-19" points="675.1 157.4 346.32 101.2 334.14 81.53 681.65 136.79 675.1 157.4"/><polygon class="cls-14" points="334.14 81.53 346.32 101.2 274.19 303.52 251.71 298.84 334.14 81.53"/><polygon class="cls-20" points="558.95 414.99 410.01 494.61 59.69 412.18 210.5 338.18 558.95 414.99"/><path class="cls-21" d="M271.17,494.05l-.55,40.53a30,30,0,0,1-9.16,21.15L228,588c-5.86,5.65-24.67,10.42-29.69,4l-25.48-49.94a30,30,0,0,1-6.37-18.47l-13.63-44.41c0-12.8,15.29-26.21,27.68-23l76,18.63A19.56,19.56,0,0,1,271.17,494.05Z"/><path class="cls-22" d="M257.12,495.92l-.55,40.53a30,30,0,0,1-9.16,21.16L214,589.89a13.73,13.73,0,0,1-20.34-1.42L158.79,544a29.93,29.93,0,0,1-6.37-18.47V478.67a19.57,19.57,0,0,1,24.48-18.94l65.56,17A19.56,19.56,0,0,1,257.12,495.92Z"/><polygon class="cls-12" points="372.33 647.2 82.08 577.65 80.97 568.2 372.33 637.36 372.33 647.2"/><polygon class="cls-12" points="450.46 579.73 451.73 569.81 559.6 513.33 558.84 523.25 450.46 579.73"/><polygon class="cls-12" points="446.64 633.16 447.91 623.74 554.26 565.99 553.49 574.64 446.64 633.16"/><polygon class="cls-23" points="667.72 373.66 657.71 374.43 730.77 191.66 734.98 201.4 667.72 373.66"/><polygon class="cls-23" points="703.15 360.82 691.42 368.72 745.5 231.18 747.56 245.55 703.15 360.82"/><polygon class="cls-11" points="210.5 338.18 210.5 445.9 407.2 493.67 558.95 414.99 210.5 338.18"/><path class="cls-24" d="M274.56,304.82l74.57-202.68s71.86,37,40.39,145.52C377.32,284.91,336,314.76,274.56,304.82Z"/><path class="cls-6" d="M242.46,476.71c6.73,2.15,14.09,5.3,14.44,22.47s-.7,35-.7,35,3.15,12.61-15.07,29.43c10.52-8.06,16.47-16.12,17.52-19.62s1.4-46.25,1.4-46.25,4.56-20-25.57-26.28c-24.18-4.91-41-8.41-41-8.41S235.73,474.56,242.46,476.71Z"/><path class="cls-25" d="M230.54,546.63A87,87,0,0,0,226.41,534c-1.38-3.56-6-7.92-8.95-10.13a2.16,2.16,0,0,1-.21-3.31c2.9-2.76,8.08-8.14,9.74-11,1.09-2,3.24-5.78,3.33-9,.22-2.44-.12-5.26-3.35-6.55a4.72,4.72,0,0,0-4.88.62c-2,1.41-2.69,5.27-4.13,9.1-1.67,4.42-4.29,5-5.68,5s-.47-1.46-3.65-10.64-11.6-7.51-17.95-3.72c-8.07,4.83-4.48,15.12-2.48,21.74-1.11,1.11-5.39,1.94-9.25,4a39,39,0,0,0-6.46,3.73c-2.79,2.25-4,4.78-3,8.23a5,5,0,0,0,2.45,2.79c2.28,1,5.64-.47,10.78-4.33a31.64,31.64,0,0,1,8.14-3.8s3.11,4.77,6,10.42-3.11,7.53-3.73,7.53-10.08-.9-7.94,7.11,13.6,5.1,19.46,1.24S209,536.5,209,536.5c5.73-.89,7.52,5.18,8.08,8.29s-.69,8.48,5.1,8.62a9.62,9.62,0,0,0,2.42-.34c3.12-.73,4.93-2.3,5.68-4A4,4,0,0,0,230.54,546.63Z"/><path class="cls-26" d="M216.44,508.92c1.38,0,4-.56,5.67-5,1.45-3.84,2.11-7.69,4.14-9.1a4.19,4.19,0,0,1,1.29-.73,3.56,3.56,0,0,0-.52-.24,4.71,4.71,0,0,0-4.87.63c-2,1.41-2.7,5.26-4.14,9.09a8.73,8.73,0,0,1-2.59,3.89C215.7,508.62,215.86,508.92,216.44,508.92Z"/><path class="cls-26" d="M221.27,545c-.55-3.1-2.34-9.18-8.07-8.28,0,0,0,.17,0,.47,2.54,1.67,3.54,5.29,3.93,7.47.55,3.11-.69,8.49,5.1,8.63a8.28,8.28,0,0,0,1.66-.19C221,551.67,221.73,547.57,221.27,545Z"/><path class="cls-26" d="M189.32,552c-2.14-8,7.25-7.11,7.94-7.11s6.62-1.86,3.72-7.52-6-10.42-6-10.42a31.82,31.82,0,0,0-3.17,1.14c1.14,1.84,3.14,5.19,5.07,8.94,2.89,5.66-3.11,7.52-3.73,7.52s-10.08-.9-7.94,7.11c1.07,4.1,4.66,5.32,8.68,5A6.26,6.26,0,0,1,189.32,552Z"/><path class="cls-26" d="M173.61,532.27c-1-3.45.24-6,3-8.23a38.58,38.58,0,0,1,6.46-3.74c3.86-2.07,8.14-2.9,9.25-4-2-6.63-5.59-16.91,2.48-21.74a20.62,20.62,0,0,1,8.06-3c-3.74-1.19-8.33.32-12.17,2.62-8.07,4.83-4.48,15.11-2.48,21.74-1.11,1.1-5.38,1.93-9.25,4a39,39,0,0,0-6.46,3.74c-2.79,2.24-4,4.78-3,8.23a5,5,0,0,0,2.44,2.79,4.82,4.82,0,0,0,3.51,0A4.79,4.79,0,0,1,173.61,532.27Z"/><line class="cls-27" x1="397.13" y1="171.1" x2="650.77" y2="214.23"/><line class="cls-27" x1="627.16" y1="276.87" x2="396.11" y2="234.77"/><line class="cls-27" x1="608.67" y1="324.11" x2="371.46" y2="278.93"/><g class="cls-28"><path class="cls-2" d="M200.54,462.83c-14.26,20.69-41,27-75.79,3S73.36,405.66,87.63,385s54-18,88.78,5.95S214.81,442.14,200.54,462.83Z"/><path class="cls-29" d="M126,462.33c-32-22.07-48.89-53.72-38.49-79,1.09-2.67,8.4-12.65,10.07-15.07,3-4.38,6.58-9.81,10.74-12.85,20-14.59,51.31-12.14,84.15,10.5s46.26,51,39.73,74.91c-1.36,5-5.17,10.24-8.18,14.61-1.67,2.42-8.4,12.8-10.5,14.77C193.55,488.92,158,484.39,126,462.33Z"/><ellipse class="cls-30" cx="166.21" cy="403.95" rx="40.37" ry="65.87" transform="matrix(0.57, -0.82, 0.82, 0.57, -260.7, 311.5)"/><ellipse class="cls-31" cx="166.21" cy="403.95" rx="40.37" ry="65.87" transform="matrix(0.57, -0.82, 0.82, 0.57, -260.7, 311.5)"/><path class="cls-32" d="M185,376.71c28.16,19.42,42.06,48.1,31.06,64.06a20.87,20.87,0,0,1-4,4.31,21,21,0,0,0,8-6.8c11-16-3.58-45.1-32.58-65.09S126,349.94,115,365.9a21,21,0,0,0-3.52,9.86,20.72,20.72,0,0,1,2.6-5.3C125.08,354.5,156.83,357.3,185,376.71Z"/><path class="cls-32" d="M182.9,422.19l-.14-.08c2.25-3.92,1.61-9.78-4.4-16.23-5.54-5.94-8.8-9.82-10.38-12.6a24.8,24.8,0,0,1,7.49,3.9c6.73,4.77,9.62,9.84,10.62,12l.56,1.81,4.22-6.35a24.15,24.15,0,0,0,1.8-3.44c.81-1.46,1.18-2.55,2.51-5-11.73-13.45-31-25.23-39.36-14.72-.11.14-.2.29-.29.43l-.32.22-3.8,5.75c-6.13,7.81,4.09,18,10.54,25.94-7.61-5.76-16.72-16.21-16.11-16.54l-5.4,7.16c-1.13,1.64-2.52,4-5.59,8.12,9.18,12.26,28.16,25.84,37.71,21.55a11,11,0,0,0,4.37-3.47h.17Z"/><path class="cls-33" d="M198.09,397.33c0,.09-.07.18-.12.27-.66,1.23-1.07,2.1-1.43,2.87s-.62,1.31-1,2l-.06.12a26.27,26.27,0,0,1-2,3.77l-4.19,6.3a3.19,3.19,0,0,1-1.1,1,2.35,2.35,0,0,0-1.12,2.28,12.7,12.7,0,0,1-1,6.59,3.41,3.41,0,0,1-.54,1.36l-5.8,8.41a3.27,3.27,0,0,1-.83.83,14.42,14.42,0,0,1-5.07,3.77c-8.05,3.62-19-2.53-24.75-6.53h0a76.09,76.09,0,0,1-15.82-14.61,5.54,5.54,0,0,1-.12-6.71c1.57-2.16,2.63-3.78,3.43-5,.41-.63.76-1.17,1.1-1.66l.08-.11,5.37-7.13a3.37,3.37,0,0,1,1.09-.94,2.64,2.64,0,0,1,.38-.18,2.41,2.41,0,0,0,1.6-2,11.57,11.57,0,0,1,2.47-6.23l3.74-5.64a3.92,3.92,0,0,1,.64-.71l.12-.16a13.65,13.65,0,0,1,5.82-4.36,2.3,2.3,0,0,0-.07-4.34c-16.84-5.41-32.23-3.51-39,6.28-9.63,14,2,38.66,25.93,55.17s51.15,18.58,60.78,4.61C213.48,426.72,209.56,411.33,198.09,397.33Z"/><path class="cls-34" d="M178.36,405.88c-1.39-1.49-2.63-2.84-3.74-4.09l6.45-9.6c7.69,5.92,9.82,11.75,9.82,11.75s2.12-3.75,4.29-7.77a75,75,0,0,0-10.26-9.7l3-4.38-7.27-5-3.06,4.43c-8.52-4.77-16.94-6.1-21.72-.06s1.45,13.82,7.45,20.76l-5.56,8.06c-6.36-5.71-12.37-12.75-11.87-13l-5.4,7.16a75.31,75.31,0,0,0,12.71,12.47l-3.85,5.59,7.79,5.38,3.82-5.68c6.51,3.79,12.85,5.75,17.1,4C184.43,423.54,187.18,415.33,178.36,405.88Zm-11.57-16.56c.21-2.06,2.18-3.46,6.57-1.75l-4.7,6.82C167.22,392.19,166.66,390.61,166.79,389.32Zm-1.69,26.62,4.29-6.38c1.63,2.24,2.63,4.19,2.35,5.7C171.18,418.33,168.52,418,165.1,415.94Z"/><path class="cls-32" d="M145.45,424.31h9.46a0,0,0,0,1,0,0v10.45a.21.21,0,0,1-.21.21h-9a.21.21,0,0,1-.21-.21V424.31a0,0,0,0,1,0,0Z" transform="translate(270.41 -9.33) rotate(34.58)"/><path class="cls-35" d="M226.59,446.64c-14.52,21.06-53.54,19.34-87.16-3.84s-49.11-59.05-34.6-80.1,53.55-19.34,87.17,3.84S241.11,425.58,226.59,446.64Zm-38.43-74.53c-28.69-19.78-61.77-21.56-73.89-4s1.3,47.88,30,67.65,61.77,21.56,73.89,4S216.85,391.89,188.16,372.11Z"/><path class="cls-36" d="M140.82,440.77c-32.45-22.37-47.68-56.77-34-76.68s51.29-17.89,83.74,4.48,47.69,56.77,34,76.67S173.27,463.14,140.82,440.77Zm48.74-70.69c-14.25-9.82-30-15.65-44.43-16.43-14.84-.8-26.52,3.85-32.89,13.09s-6.56,21.8-.53,35.39c5.85,13.19,16.91,25.86,31.15,35.68s30,15.65,44.43,16.43c14.84.8,26.52-3.85,32.89-13.09s6.56-21.8.53-35.39C214.86,392.57,203.8,379.9,189.56,370.08Z"/><path class="cls-37" d="M139.62,442.52c-33-22.77-48.56-57.78-35.33-79-.27.35-.54.72-.79,1.09-14.52,21.05,1,56.91,34.59,80.09s72.64,24.91,87.16,3.85c.26-.37.5-.75.74-1.13C210.89,467.35,172.65,465.29,139.62,442.52Z"/><path class="cls-38" d="M142.63,437.85c-32.92-22.69-50-55.28-36.74-76.47-.27.36-.54.72-.8,1.09-14.51,21,.88,56.85,34.39,79.95s72.44,24.76,87,3.71c.26-.38.5-.75.74-1.13C212.07,464.9,175.55,460.55,142.63,437.85Z"/><path class="cls-38" d="M179.34,365.82c-7.81-4.63-28.47-15.23-47-10.51a2.63,2.63,0,0,1-2.88-1.12h0a2.65,2.65,0,0,1,1.72-4.05c7.29-1.35,24.93-2.21,50,12.35a1.89,1.89,0,0,1,.9,1.29l0,.12A1.85,1.85,0,0,1,179.34,365.82Z"/><path class="cls-39" d="M167.56,387.72c1-.83,2.83-1,5.66.09l.77-1.12C170.13,385.18,168.13,386.08,167.56,387.72Z"/><path class="cls-39" d="M172.41,414.42c.28-1.51-.72-3.47-2.36-5.72l-.76,1.13c1.63,2.24,2.63,4.2,2.35,5.7a3.4,3.4,0,0,1-.19.7A2.73,2.73,0,0,0,172.41,414.42Z"/><path class="cls-39" d="M181,392.46c7.71,5.94,9.85,11.77,9.85,11.77l.71-1.26c-.37-.9-2.76-6.22-9.8-11.64Z"/><path class="cls-39" d="M163.13,402.45l.77-1.11c-5.68-6.57-11.52-13.95-8.2-19.77l-.07.08C150.9,387.62,157.11,395.49,163.13,402.45Z"/><path class="cls-39" d="M178.72,425.35c-4.26,1.74-10.62-.23-17.16-4l-.75,1.12c6.53,3.8,12.89,5.77,17.14,4a9.63,9.63,0,0,0,4.73-4A9.8,9.8,0,0,1,178.72,425.35Z"/><path class="cls-39" d="M153.78,416a76.49,76.49,0,0,1-12.72-12.46l-.81,1.07A76.24,76.24,0,0,0,153,417.13Z"/><polygon class="cls-39" points="149.93 421.6 149.16 422.71 156.98 428.11 157.74 426.98 149.93 421.6"/><path class="cls-40" d="M227.46,447.9l-16.05,23.27s-7.43,6.93-15.16,8.35l12.32-17.86S217,460.11,227.46,447.9Z"/><path class="cls-41" d="M103.51,360.61l-16,23.27S83.64,393.3,85.06,401l12.31-17.87S95.83,374.73,103.51,360.61Z"/><path class="cls-42" d="M135.15,466.27l10.59-15.38q-4.17-2.38-8.27-5.21c-3-2.07-5.85-4.25-8.55-6.5l-10.61,15.38q4.06,3.36,8.57,6.47Q131,463.87,135.15,466.27Z"/><path class="cls-43" d="M153.3,474.71l11.35-15.21a108.17,108.17,0,0,1-18.91-8.61l-10.59,15.38A108.05,108.05,0,0,0,153.3,474.71Z"/><path class="cls-43" d="M125.25,436c-1.65-1.41-4-4-4-4l-10.67,15.48c1.23,1.23,2.51,2.45,3.84,3.64l.28.23Z"/><path class="cls-43" d="M117.86,428.37c-.52-.5-1.06-1-1.52-1.49a1.72,1.72,0,0,0-2.64.24l-8.65,12.55a1.72,1.72,0,0,0,.21,2.21c.57.56,1.65,1.55,2.37,2.21a.84.84,0,0,0,1.26-.14l9.21-13.35A1.72,1.72,0,0,0,117.86,428.37Z"/><path class="cls-40" d="M103.38,436.32,111.9,424a1.83,1.83,0,0,0-.06-2.15c-.6-.77-1.4-1.8-2.08-2.69s-4.38-7.92-5.09-6.93L89.61,418c-.46.63,8,14.74,8.5,15.37q1.13,1.54,2.34,3.06A1.82,1.82,0,0,0,103.38,436.32Z"/><polygon class="cls-44" points="157.2 431.18 160.21 432.57 164.97 425.05 162.32 423.76 157.2 431.18"/><path class="cls-2" d="M524,444.85c0,30-22,54.33-72.48,54.33s-91.31-24.33-91.31-54.34,40.88-54.34,91.31-54.34S524,414.84,524,444.85Z"/><path class="cls-29" d="M450.29,494.9c-46.43,0-84.47-19.67-91.39-51.56-.73-3.36-.31-18.14-.31-21.65,0-6.34-.17-14.1,1.86-19.91,9.77-27.9,42.22-46.71,89.84-46.71s80.07,18.81,89.84,46.71c2,5.81,1.85,13.57,1.85,19.91,0,3.51.42,18.29-.3,21.65C534.76,475.23,496.72,494.9,450.29,494.9Z"/><ellipse class="cls-45" cx="450.29" cy="410.23" rx="78.66" ry="48.21"/><ellipse class="cls-31" cx="450.29" cy="410.23" rx="78.66" ry="48.21"/><path class="cls-32" d="M450.29,370.73c40.84,0,73.95,18.76,73.95,41.91a24.57,24.57,0,0,1-1,7,25.07,25.07,0,0,0,3.22-12.09c0-23.15-34.09-41.91-76.14-41.91s-76.15,18.76-76.15,41.91a25,25,0,0,0,3.23,12.08,24.46,24.46,0,0,1-1-7C376.33,389.49,409.44,370.73,450.29,370.73Z"/><path class="cls-32" d="M479.07,416.85h-.19c-.46-5.37-5.05-10.71-15.33-13-9.47-2.08-15.31-3.69-18.75-5.35a29.7,29.7,0,0,1,10-1.24c9.85.13,16.12,3.15,18.57,4.59l1.77,1.4-.15-9.1a29.65,29.65,0,0,0-.57-4.61c-.19-2-.57-3.31-.94-6.63-20.64-5.28-47.61-3.77-48.67,12.2,0,.22,0,.42,0,.62s-.16.44-.16.44l.15,8.22c-.72,11.83,16.21,14.9,27.95,18.36-11.38-.5-27.42-4.6-27-5.34l-.45,10.7c0,2.38.24,5.66,0,11.77,17.32,5.83,45.2,6.32,51.68-4.38a13.17,13.17,0,0,0,1.94-6.36l.17-.12Z"/><path class="cls-33" d="M477.15,382.11c0,.12.05.23.06.35.19,1.66.37,2.79.54,3.79s.28,1.7.38,2.67a1,1,0,0,0,0,.16,31.7,31.7,0,0,1,.59,5.06l.15,9a3.9,3.9,0,0,1-.38,1.76,2.82,2.82,0,0,0,.44,3,15.12,15.12,0,0,1,3.47,7.17,3.93,3.93,0,0,1,.39,1.7V429a4,4,0,0,1-.25,1.37,17.33,17.33,0,0,1-2.42,7.14c-5.47,9-20.37,10.36-28.77,10.36h0a91.18,91.18,0,0,1-25.46-3.64,6.63,6.63,0,0,1-4.66-6.51c.08-3.2,0-5.5,0-7.26,0-.89,0-1.67,0-2.37a.86.86,0,0,1,0-.16l.45-10.66a3.9,3.9,0,0,1,.43-1.67,3.58,3.58,0,0,1,.25-.42,2.87,2.87,0,0,0,.2-3.08,13.79,13.79,0,0,1-1.79-7.8l-.15-8.08a4.41,4.41,0,0,1,.15-1.14,1.77,1.77,0,0,1,0-.23,16.2,16.2,0,0,1,2.76-8.23,2.74,2.74,0,0,0-3-4.22c-20.24,6.09-34.07,18.39-34.07,32.59,0,20.25,28.15,36.67,62.88,36.67s62.88-16.42,62.88-36.67C512.19,400.57,497.91,388.1,477.15,382.11Z"/><path class="cls-34" d="M463.55,403.89c-2.39-.52-4.51-1-6.46-1.49l-.16-13.8c11.57.61,17.62,4.89,17.62,4.89s-.45-5.12-1.06-10.54a89.29,89.29,0,0,0-16.65-2.59l-.07-6.3H446.22v6.43c-11.61,1.09-20.79,5.48-21.4,14.66s10.8,12.6,21.4,15.37V422.2c-10.12-1.29-20.8-4.14-20.49-4.75l-.45,10.7a90.43,90.43,0,0,0,20.94,3.65v8.1h11.3l-.09-8.16c9-.69,16.54-3.06,19.53-7.66C481.48,417.14,478.62,407.21,463.55,403.89ZM441,395.45c-1.2-2.16-.2-4.88,5.27-6.17v9.89C443.31,398,441.69,396.81,441,395.45Zm16.38,27.32-.11-9.18c3.12,1.09,5.42,2.34,6.18,4C464.93,421,462.06,422.44,457.33,422.77Z"/><path class="cls-32" d="M446.3,440h11.3a0,0,0,0,1,0,0v12.48a.25.25,0,0,1-.25.25h-10.8a.25.25,0,0,1-.25-.25V440A0,0,0,0,1,446.3,440Z"/><path class="cls-35" d="M538.59,411.28c0,30.54-39.53,55.3-88.3,55.3S362,441.82,362,411.28s39.53-55.3,88.3-55.3S538.59,380.73,538.59,411.28Zm-88.3-47.23c-41.61,0-75.34,20.67-75.34,46.18s33.73,46.18,75.34,46.18,75.34-20.68,75.34-46.18S491.9,364.05,450.29,364.05Z"/><path class="cls-36" d="M450.29,463.64c-47.07,0-85.36-23.49-85.36-52.36s38.29-52.37,85.36-52.37,85.36,23.49,85.36,52.37S497.36,463.64,450.29,463.64Zm0-102.53c-20.66,0-40.13,5-54.81,14C380.34,384.34,372,396.83,372,410.23s8.33,25.88,23.47,35.16c14.68,9,34.15,13.95,54.81,13.95s40.12-4.95,54.81-13.95c15.13-9.28,23.47-21.77,23.47-35.16s-8.34-25.89-23.47-35.16C490.41,366.07,471,361.11,450.29,361.11Z"/><path class="cls-37" d="M450.29,466.17c-47.91,0-86.9-23.89-88.26-53.69,0,.53,0,1.07,0,1.61,0,30.54,39.53,55.3,88.3,55.3s88.3-24.76,88.3-55.3c0-.54,0-1.08,0-1.61C537.19,442.28,498.2,466.17,450.29,466.17Z"/><path class="cls-38" d="M450.09,459.54c-47.75,0-86.61-20.48-88-50.27,0,.53,0,1.07,0,1.6,0,30.54,39.4,55.3,88,55.3s88-24.76,88-55.3c0-.53,0-1.07,0-1.6C536.69,439.06,497.83,459.54,450.09,459.54Z"/><path class="cls-38" d="M437.35,363.84c-10.82.75-38.31,4.33-53.29,21.51a3.17,3.17,0,0,1-3.58.85h0a3.17,3.17,0,0,1-1.06-5.16c6.25-6.27,23-19.06,57.49-21.72a2.24,2.24,0,0,1,1.75.66l.11.11A2.21,2.21,0,0,1,437.35,363.84Z"/><path class="cls-39" d="M440.62,393.35c.42-1.48,2.09-2.91,5.63-3.74V388C441.42,389.13,440.07,391.36,440.62,393.35Z"/><path class="cls-39" d="M463.49,416.32c-.76-1.67-3.07-2.92-6.2-4l0,1.62c3.12,1.1,5.42,2.35,6.18,4a4.88,4.88,0,0,1,.28.81A3.33,3.33,0,0,0,463.49,416.32Z"/><path class="cls-39" d="M457,388.93c11.6.61,17.66,4.9,17.66,4.9s-.06-.66-.16-1.73c-1-.63-6.93-4.24-17.52-4.79Z"/><path class="cls-39" d="M446.25,410.85v-1.62c-10-2.61-20.78-5.9-21.46-13.88a.51.51,0,0,1,0,.13C424.17,404.55,435.61,408.08,446.25,410.85Z"/><path class="cls-39" d="M477.1,422.79c-3,4.6-10.6,7-19.61,7.66l0,1.62c9-.69,16.58-3.06,19.59-7.65a11.48,11.48,0,0,0,1.93-7.16A11.86,11.86,0,0,1,477.1,422.79Z"/><path class="cls-39" d="M446.25,430.51a90.63,90.63,0,0,1-20.95-3.63c0,.51-.05,1-.07,1.6a90.51,90.51,0,0,0,21,3.65Z"/><polygon class="cls-39" points="446.25 438.62 446.25 440.24 457.59 440.24 457.57 438.62 446.25 438.62"/><path class="cls-40" d="M540.3,411.93v33.75s-2.62,11.85-9.25,18.48V438.25S538.29,431,540.3,411.93Z"/><path class="cls-41" d="M359.28,410.12v33.75s2.61,11.86,9.24,18.49V436.44S361.29,429.21,359.28,410.12Z"/><path class="cls-42" d="M462,492.55V470.26c-3.82.31-7.72.48-11.67.48-4.36,0-8.63-.21-12.81-.59v22.3q6.27.56,12.81.56Q456.26,493,462,492.55Z"/><path class="cls-43" d="M485.57,488.55l.84-22.65A130.06,130.06,0,0,1,462,470.26v22.29A129.34,129.34,0,0,0,485.57,488.55Z"/><path class="cls-43" d="M431.75,469.5c-2.58-.27-6.68-1.15-6.68-1.15v22.44c2.05.38,4.14.71,6.25,1l.43,0Z"/><path class="cls-43" d="M419.31,467c-.85-.13-1.73-.29-2.51-.43a2.05,2.05,0,0,0-2.43,2v18.2a2.05,2.05,0,0,0,1.71,2c.94.16,2.68.41,3.83.57a1,1,0,0,0,1.14-1V469A2.05,2.05,0,0,0,419.31,467Z"/><path class="cls-40" d="M410.47,484.64V466.73a2.17,2.17,0,0,0-1.52-2.07l-3.87-1.25c-1.38-.45-9.67-4.81-9.7-3.36L384.5,476c0,.94,17.9,9.05,18.78,9.36,1.43.5,2.89,1,4.37,1.42A2.19,2.19,0,0,0,410.47,484.64Z"/><polygon class="cls-44" points="459.89 443.12 463.79 442.44 463.38 431.81 459.89 432.34 459.89 443.12"/><path class="cls-2" d="M330.31,376.62c0,22.83-16.77,41.32-55.13,41.32s-69.45-18.5-69.45-41.33,31.09-41.33,69.45-41.33S330.31,353.79,330.31,376.62Z"/><path class="cls-29" d="M274.27,414.69c-35.31,0-64.25-15-69.51-39.22-.55-2.56-.23-13.8-.23-16.47,0-4.82-.14-10.72,1.41-15.14,7.43-21.23,32.11-35.53,68.33-35.53s60.91,14.3,68.34,35.53c1.55,4.42,1.41,10.32,1.41,15.14,0,2.67.32,13.91-.23,16.47C338.53,399.73,309.59,414.69,274.27,414.69Z"/><ellipse class="cls-46" cx="274.27" cy="350.28" rx="59.83" ry="36.67"/><ellipse class="cls-31" cx="274.27" cy="350.28" rx="59.83" ry="36.67"/><path class="cls-32" d="M274.27,320.24c31.07,0,56.26,14.27,56.26,31.88a18.59,18.59,0,0,1-.79,5.3,19,19,0,0,0,2.45-9.19c0-17.61-25.93-31.88-57.92-31.88s-57.92,14.27-57.92,31.88a19,19,0,0,0,2.46,9.19,18.59,18.59,0,0,1-.79-5.3C218,334.51,243.2,320.24,274.27,320.24Z"/><path class="cls-32" d="M296.17,355.32H296c-.34-4.09-3.84-8.15-11.66-9.87-7.21-1.58-11.64-2.8-14.26-4.06a22.19,22.19,0,0,1,7.61-.95c7.5.09,12.27,2.39,14.13,3.49l1.35,1.06-.12-6.92a22.66,22.66,0,0,0-.43-3.5c-.15-1.51-.43-2.52-.71-5.05-15.71-4-36.22-2.86-37,9.29,0,.16,0,.31,0,.47a2.45,2.45,0,0,0-.12.33l.11,6.25c-.55,9,12.33,11.34,21.26,14-8.66-.39-20.86-3.5-20.57-4.06l-.34,8.14c0,1.8.18,4.3,0,8.95,13.18,4.43,34.38,4.8,39.31-3.33A10,10,0,0,0,296,364.7l.13-.1Z"/><path class="cls-33" d="M294.7,328.9a2.38,2.38,0,0,1,.05.26c.14,1.26.29,2.13.41,2.89s.21,1.29.29,2a.5.5,0,0,0,0,.12,25.22,25.22,0,0,1,.45,3.85l.11,6.88a2.85,2.85,0,0,1-.29,1.33,2.14,2.14,0,0,0,.34,2.29,11.53,11.53,0,0,1,2.64,5.45,3,3,0,0,1,.29,1.29v9.29a2.82,2.82,0,0,1-.19,1A13.09,13.09,0,0,1,297,371c-4.16,6.86-15.49,7.89-21.88,7.89h0a69.43,69.43,0,0,1-19.37-2.78,5,5,0,0,1-3.55-4.95c.07-2.43,0-4.18,0-5.52,0-.68,0-1.27,0-1.8a.57.57,0,0,1,0-.13l.34-8.11a3.1,3.1,0,0,1,.33-1.26,2.79,2.79,0,0,1,.19-.33,2.18,2.18,0,0,0,.15-2.34,10.44,10.44,0,0,1-1.36-5.93l-.11-6.15a3.17,3.17,0,0,1,.11-.86,1.09,1.09,0,0,1,0-.18,12.34,12.34,0,0,1,2.1-6.26,2.09,2.09,0,0,0-2.29-3.21c-15.39,4.63-25.91,14-25.91,24.79,0,15.41,21.41,27.9,47.83,27.9s47.83-12.49,47.83-27.9C321.36,342.94,310.5,333.45,294.7,328.9Z"/><path class="cls-34" d="M284.36,345.46c-1.81-.4-3.43-.77-4.91-1.13l-.12-10.5c8.8.46,13.4,3.72,13.4,3.72s-.35-3.89-.8-8a68.4,68.4,0,0,0-12.67-2l-.06-4.79h-8v4.9c-8.83.82-15.82,4.16-16.28,11.15s8.22,9.58,16.28,11.68v8.89c-7.7-1-15.82-3.15-15.59-3.61l-.34,8.14a68.55,68.55,0,0,0,15.93,2.77v6.17h8.6l-.08-6.21c6.83-.53,12.58-2.33,14.86-5.83C298,355.54,295.82,348,284.36,345.46ZM267.17,339c-.91-1.64-.16-3.71,4-4.69v7.52C269,341,267.74,340.08,267.17,339Zm12.46,20.78-.08-7c2.37.83,4.12,1.78,4.7,3.05C285.41,358.47,283.23,359.57,279.63,359.82Z"/><path class="cls-32" d="M271.24,372.91h8.6a0,0,0,0,1,0,0v9.49a.19.19,0,0,1-.19.19h-8.21a.19.19,0,0,1-.19-.19v-9.49A0,0,0,0,1,271.24,372.91Z"/><path class="cls-35" d="M341.44,351.08c0,23.23-30.07,42.06-67.17,42.06s-67.16-18.83-67.16-42.06S237.18,309,274.27,309,341.44,327.85,341.44,351.08Zm-67.17-35.93c-31.65,0-57.3,15.73-57.3,35.13s25.65,35.13,57.3,35.13,57.31-15.73,57.31-35.13S305.92,315.15,274.27,315.15Z"/><path class="cls-36" d="M274.27,390.91c-35.8,0-64.93-17.87-64.93-39.83s29.13-39.83,64.93-39.83,64.94,17.87,64.94,39.83S310.08,390.91,274.27,390.91Zm0-78c-15.71,0-30.52,3.77-41.69,10.62-11.51,7-17.85,16.55-17.85,26.74S221.07,370,232.58,377c11.17,6.84,26,10.61,41.69,10.61S304.79,383.87,316,377c11.51-7.06,17.85-16.56,17.85-26.75s-6.34-19.69-17.85-26.74C304.79,316.69,290,312.92,274.27,312.92Z"/><path class="cls-37" d="M274.27,392.84c-36.44,0-66.1-18.18-67.13-40.84,0,.4,0,.81,0,1.22,0,23.23,30.07,42.06,67.16,42.06s67.17-18.83,67.17-42.06c0-.41,0-.82,0-1.22C340.38,374.66,310.72,392.84,274.27,392.84Z"/><path class="cls-38" d="M274.12,387.8c-36.32,0-65.88-15.58-66.91-38.25,0,.41,0,.81,0,1.22,0,23.24,30,42.07,66.94,42.07s66.94-18.83,66.94-42.07c0-.41,0-.81,0-1.22C340,372.22,310.44,387.8,274.12,387.8Z"/><path class="cls-38" d="M264.43,315c-8.23.57-29.14,3.29-40.53,16.36a2.41,2.41,0,0,1-2.73.64h0a2.41,2.41,0,0,1-.8-3.92c4.75-4.77,17.5-14.5,43.72-16.52a1.71,1.71,0,0,1,1.34.5l.08.08A1.68,1.68,0,0,1,264.43,315Z"/><path class="cls-39" d="M266.92,337.45c.32-1.13,1.59-2.22,4.28-2.85v-1.23C267.53,334.23,266.5,335.93,266.92,337.45Z"/><path class="cls-39" d="M284.31,354.91c-.57-1.27-2.33-2.22-4.71-3.05v1.23c2.38.84,4.13,1.79,4.7,3.06a3.3,3.3,0,0,1,.22.62A2.5,2.5,0,0,0,284.31,354.91Z"/><path class="cls-39" d="M279.39,334.08c8.83.47,13.44,3.73,13.44,3.73l-.13-1.32c-.74-.48-5.27-3.22-13.32-3.64Z"/><path class="cls-39" d="M271.2,350.75v-1.23c-7.63-2-15.8-4.49-16.32-10.55,0,0,0,.06,0,.1C254.41,346,263.11,348.65,271.2,350.75Z"/><path class="cls-39" d="M294.67,359.84c-2.29,3.5-8.06,5.3-14.91,5.83v1.23c6.85-.53,12.61-2.33,14.9-5.83a8.7,8.7,0,0,0,1.46-5.43A8.91,8.91,0,0,1,294.67,359.84Z"/><path class="cls-39" d="M271.2,365.71A69.27,69.27,0,0,1,255.26,363c0,.39,0,.79,0,1.22a69.07,69.07,0,0,0,16,2.77Z"/><polygon class="cls-39" points="271.2 371.88 271.2 373.11 279.83 373.11 279.81 371.88 271.2 371.88"/><path class="cls-40" d="M342.74,351.58v25.67s-2,9-7,14.06V371.6S341.21,366.09,342.74,351.58Z"/><path class="cls-41" d="M205,350.2v25.68s2,9,7,14.05V370.22S206.57,364.72,205,350.2Z"/><path class="cls-42" d="M283.18,412.9v-17c-2.91.24-5.87.37-8.89.37-3.31,0-6.56-.16-9.74-.45v17q4.77.42,9.74.42Q278.82,413.25,283.18,412.9Z"/><path class="cls-43" d="M301.11,409.86l.64-17.23a98.92,98.92,0,0,1-18.57,3.31v17A97.37,97.37,0,0,0,301.11,409.86Z"/><path class="cls-43" d="M260.17,395.37c-2-.21-5.08-.88-5.08-.88v17.08c1.56.28,3.15.53,4.76.75l.32,0Z"/><path class="cls-43" d="M250.71,393.47c-.65-.1-1.32-.21-1.91-.33a1.57,1.57,0,0,0-1.85,1.54v13.85a1.56,1.56,0,0,0,1.3,1.54c.72.13,2,.31,2.91.44a.77.77,0,0,0,.87-.76V395A1.57,1.57,0,0,0,250.71,393.47Z"/><path class="cls-40" d="M244,406.89V393.26a1.63,1.63,0,0,0-1.15-1.57l-2.94-.95c-1.06-.34-7.36-3.67-7.39-2.56l-8.27,12.1c0,.71,13.61,6.88,14.29,7.11,1.09.38,2.19.74,3.32,1.08A1.66,1.66,0,0,0,244,406.89Z"/><polygon class="cls-44" points="281.58 375.3 284.55 374.78 284.23 366.7 281.58 367.1 281.58 375.3"/><path class="cls-2" d="M288.51,392.44c16.24,20.65,14.24,49.32-20.46,76.61s-76,32.68-92.25,12-1.27-59.51,33.43-86.81S272.27,371.79,288.51,392.44Z"/><path class="cls-29" d="M264.91,466.76c-32,25.13-68.77,32.18-90.79,14-2.32-1.92-10-12.32-11.93-14.73-3.43-4.36-7.75-9.61-9.5-14.71-8.38-24.48,3.77-55,36.54-80.76s65.28-30.4,87.1-16.48c4.55,2.89,8.62,8.33,12.05,12.69,1.9,2.42,10.19,12.36,11.51,15.06C312.39,407.51,296.86,441.63,264.91,466.76Z"/><ellipse class="cls-47" cx="219.08" cy="408.49" rx="68.86" ry="42.21" transform="translate(-205.66 222.86) rotate(-38.19)"/><ellipse class="cls-31" cx="219.08" cy="408.49" rx="68.86" ry="42.21" transform="translate(-205.66 222.86) rotate(-38.19)"/><path class="cls-32" d="M197.7,381.31c28.11-22.11,61.05-27.11,73.58-11.18a21.26,21.26,0,0,1,3.06,5.36A21.89,21.89,0,0,0,270,365.43c-12.53-15.93-46.14-10.4-75.08,12.37s-42.24,54.12-29.71,70.05a22,22,0,0,0,8.76,6.57,21.25,21.25,0,0,1-4.49-4.24C157,434.25,169.6,403.42,197.7,381.31Z"/><path class="cls-32" d="M242.47,397.47l-.13.12c-3.21-3.46-9.27-4.64-17.56-.64-7.65,3.7-12.54,5.75-15.8,6.47a25.6,25.6,0,0,1,6.22-6.27c6.84-5.25,12.79-6.56,15.26-6.89h2l-5-6.18a26.3,26.3,0,0,0-2.88-2.86c-1.21-1.27-2.18-2-4.24-4.06-17.06,7.54-34.8,23.18-26.88,34.74.11.16.23.28.34.43a2.81,2.81,0,0,0,.13.38l4.55,5.58c5.91,8.53,19.21,1.48,29.17-2.49-8.11,5.81-21.36,11.67-21.5,11l5.48,7.6c1.29,1.64,3.23,3.77,6.37,8.1,15.08-5.36,34.53-20.12,33.2-31a11.66,11.66,0,0,0-2.11-5.43l.05-.18Z"/><path class="cls-33" d="M222.35,374.61l.23.2c1,1.05,1.77,1.72,2.42,2.32s1.11,1,1.7,1.63l.11.1A28.11,28.11,0,0,1,230,382l5,6.14a3.34,3.34,0,0,1,.68,1.42,2.48,2.48,0,0,0,1.93,1.82,13.32,13.32,0,0,1,6.27,3.05,3.44,3.44,0,0,1,1.19,1l6.6,8.4a3.53,3.53,0,0,1,.58,1.08,15.18,15.18,0,0,1,2.19,6.23c1.12,9.16-8.4,18.15-14.18,22.7h0a79.86,79.86,0,0,1-19.5,11.27,5.79,5.79,0,0,1-6.73-2c-1.67-2.24-3-3.79-3.94-5-.5-.6-.93-1.12-1.31-1.61l-.09-.11-5.46-7.58a3.35,3.35,0,0,1-.6-1.38,3.18,3.18,0,0,1-.06-.43,2.48,2.48,0,0,0-1.53-2.22,12.12,12.12,0,0,1-5.45-4.4l-4.48-5.48a3.75,3.75,0,0,1-.51-.86l-.12-.17a14.34,14.34,0,0,1-2.56-7.16,2.4,2.4,0,0,0-4.35-1.28c-10.62,15.14-13.49,31.1-5.8,40.87,11,13.94,39.22,10,63.12-8.8s34.38-45.33,23.42-59.27C256.45,368.34,239.87,367.49,222.35,374.61Z"/><path class="cls-34" d="M224.78,397c-1.93.93-3.66,1.75-5.25,2.47L212,390c8.29-5.84,14.77-6.16,14.77-6.16s-3.09-3.28-6.44-6.69a78.19,78.19,0,0,0-12.86,7.23l-3.46-4.3-7.25,5.71,3.48,4.43c-7.41,7-11.34,15-6.79,21.67s14.25,2.83,23-1l6.32,8c-7.67,4.59-16.55,8.41-16.67,7.83l5.48,7.6A79.25,79.25,0,0,0,228,425.54l4.38,5.57,7.78-6.11-4.48-5.57c5.8-5.33,9.72-11.06,9.29-15.84C244.29,396.36,236.94,391.08,224.78,397Zm-20.12,6.43c-2-.84-2.78-3.25.28-7.1l5.36,6.8C207.65,403.85,205.91,403.91,204.66,403.38Zm26.05,9.93-5-6.26c2.74-.93,5-1.32,6.42-.58C235,408,233.79,410.52,230.71,413.31Z"/><path class="cls-32" d="M234.82,426.87h9.89a0,0,0,0,1,0,0V437.8a.22.22,0,0,1-.22.22H235a.22.22,0,0,1-.22-.22V426.87A0,0,0,0,1,234.82,426.87Z" transform="translate(-216.04 240.77) rotate(-38.19)"/><path class="cls-35" d="M280.41,361.42c16.53,21,2.73,59.45-30.83,85.85S175.42,478,158.89,457s-2.73-59.45,30.83-85.84S263.88,340.41,280.41,361.42Zm-86.32,15.29c-28.64,22.52-40.66,55-26.85,72.56s48.2,13.52,76.83-9,40.66-55,26.85-72.56S222.72,354.19,194.09,376.71Z"/><path class="cls-36" d="M248,445.24c-32.39,25.48-71.45,30-87.08,10.17s-2-56.75,30.4-82.23,71.45-30,87.08-10.17S280.38,419.77,248,445.24ZM192.5,374.69c-14.22,11.18-24.93,25.13-30.16,39.27-5.4,14.58-4.37,27.68,2.88,36.9s19.74,13.3,35.17,11.49c15-1.75,31.06-8.88,45.28-20.06s24.92-25.13,30.16-39.27c5.39-14.57,4.37-27.68-2.88-36.9s-19.75-13.3-35.18-11.49C222.79,356.39,206.71,363.51,192.5,374.69Z"/><path class="cls-37" d="M249.36,447c-33,25.93-72.73,30.59-89.79,10.82.27.38.55.76.84,1.13,16.53,21,57.13,16.65,90.69-9.74s47.36-64.83,30.83-85.84c-.29-.37-.59-.73-.9-1.09C296.23,383.51,282.33,421.06,249.36,447Z"/><path class="cls-38" d="M245.63,442.54c-32.85,25.84-70.67,32.78-87.73,13,.27.38.55.76.84,1.13,16.53,21,57,16.73,90.48-9.57s47.16-64.67,30.63-85.68l-.9-1.09C294.14,381.57,278.49,416.69,245.63,442.54Z"/><path class="cls-38" d="M185.07,383.57c-7,6.37-24,23.72-25,43.65a2.77,2.77,0,0,1-2,2.52h0a2.77,2.77,0,0,1-3.52-3c.9-7.7,5.51-25.58,27.8-46.06a2,2,0,0,1,1.57-.5l.13,0A1.92,1.92,0,0,1,185.07,383.57Z"/><path class="cls-39" d="M203.3,402.11c-.52-1.25-.14-3.13,1.84-5.62l-.88-1.12C201.56,398.77,201.84,401,203.3,402.11Z"/><path class="cls-39" d="M231.46,405.54c-1.43-.74-3.69-.35-6.44.59l.89,1.11c2.74-.94,5-1.33,6.42-.59a4.17,4.17,0,0,1,.64.41A2.91,2.91,0,0,0,231.46,405.54Z"/><path class="cls-39" d="M212.18,390.19C220.5,384.34,227,384,227,384l-1.05-1.11c-1,.09-7.06.84-14.65,6.19Z"/><path class="cls-39" d="M216.64,411.11l-.88-1.12c-8.32,3.64-17.49,7.18-22.27,2.07l0,.1C198,418.72,207.82,415,216.64,411.11Z"/><path class="cls-39" d="M244.33,402.63c.42,4.79-3.52,10.53-9.34,15.88l.88,1.1c5.82-5.35,9.76-11.08,9.34-15.87a10,10,0,0,0-2.54-6A10.37,10.37,0,0,1,244.33,402.63Z"/><path class="cls-39" d="M227.28,424.63a79.38,79.38,0,0,1-16.38,8.85l.82,1.14a79.34,79.34,0,0,0,16.43-8.87Z"/><polygon class="cls-39" points="231.66 430.21 232.54 431.33 240.35 425.19 239.46 424.08 231.66 430.21"/><path class="cls-40" d="M281.94,361l18.27,23.22s4.61,9.57,3.64,17.72l-14-17.83S290.88,375.17,281.94,361Z"/><path class="cls-41" d="M156.4,457.68l18.26,23.22s8.22,6.74,16.37,7.72l-14-17.84S168.11,469.72,156.4,457.68Z"/><path class="cls-42" d="M271.69,458.81l-12.07-15.35c-2.45,2.29-5.05,4.51-7.77,6.65q-4.5,3.54-9.13,6.53L254.79,472c3.07-2,6.12-4.19,9.11-6.55C266.63,463.3,269.23,461.08,271.69,458.81Z"/><path class="cls-43" d="M285.74,443.29l-11.67-16a113.49,113.49,0,0,1-14.45,16.21l12.07,15.35A112.14,112.14,0,0,0,285.74,443.29Z"/><path class="cls-43" d="M238.41,459.31c-1.93,1.21-5.22,2.83-5.22,2.83l12.14,15.44q2.43-1.27,4.84-2.71l.31-.2Z"/><path class="cls-43" d="M228.5,464.33c-.66.37-1.35.74-2,1.06a1.8,1.8,0,0,0-.58,2.71l9.85,12.52a1.8,1.8,0,0,0,2.27.48c.74-.4,2.07-1.17,2.95-1.69a.88.88,0,0,0,.24-1.3l-10.48-13.32A1.78,1.78,0,0,0,228.5,464.33Z"/><path class="cls-40" d="M232,481.25l-9.69-12.32a1.89,1.89,0,0,0-2.16-.61l-3.34,1.24c-1.2.44-9.26,1.92-8.5,2.94l1.12,16.83c.49.65,17.21-3.47,18-3.73,1.25-.43,2.51-.9,3.77-1.39A1.9,1.9,0,0,0,232,481.25Z"/><polygon class="cls-44" points="243.49 425.93 245.81 423.35 239.77 416.26 237.66 418.51 243.49 425.93"/><path class="cls-2" d="M408.15,477.74c-13.26,25-42.4,35.59-84.47,13.3s-65.43-60.65-52.16-85.69,58.12-27.26,100.19-5S421.41,452.71,408.15,477.74Z"/><path class="cls-29" d="M324.57,486.94c-38.73-20.52-61.78-53.74-53.45-83.4.88-3.13,7.76-15.27,9.31-18.2,2.8-5.29,6.08-11.84,10.35-15.79,20.48-19,55.86-20.31,95.59.74s58.49,51.08,54.31,78.67c-.88,5.75-4.45,12.14-7.26,17.43-1.55,2.93-7.73,15.44-9.82,17.92C403.73,507.87,363.3,507.46,324.57,486.94Z"/><ellipse class="cls-48" cx="361.99" cy="416.3" rx="45.52" ry="74.26" transform="translate(-175.34 541.29) rotate(-62.09)"/><ellipse class="cls-31" cx="361.99" cy="416.3" rx="45.52" ry="74.26" transform="translate(-175.34 541.29) rotate(-62.09)"/><path class="cls-32" d="M379.45,383.35c34.08,18,53.41,48.34,43.17,67.65a23.1,23.1,0,0,1-3.94,5.36,23.73,23.73,0,0,0,8-8.65c10.23-19.31-9.92-50-45-68.62s-71.82-18-82,1.31A23.64,23.64,0,0,0,297,391.91a23.38,23.38,0,0,1,2.22-6.28C309.46,366.32,345.38,365.3,379.45,383.35Z"/><path class="cls-32" d="M383.08,434.55l-.17-.08c2-4.68.52-11.16-7.05-17.59-7-5.93-11.14-9.85-13.28-12.75a27.75,27.75,0,0,1,8.9,3.39c8.16,4.45,12.06,9.75,13.46,12l.86,1.95,3.9-7.66a28.11,28.11,0,0,0,1.56-4.09c.72-1.74,1-3,2.15-5.95-14.89-13.52-38.06-24.19-46-11.33-.1.17-.18.35-.27.52s-.32.29-.32.29l-3.51,6.93c-5.83,9.55,6.93,19.59,15.2,27.67-9.27-5.45-20.84-16-20.2-16.41l-5.11,8.73c-1.05,2-2.3,4.83-5.2,9.82,11.88,12.52,34.92,25.25,45.06,19.19a12.59,12.59,0,0,0,4.43-4.45l.19,0Z"/><path class="cls-33" d="M396.82,404.72c0,.1-.05.21-.09.32-.58,1.46-.93,2.49-1.23,3.4s-.52,1.54-.86,2.39a.58.58,0,0,0-.05.14,29.44,29.44,0,0,1-1.75,4.48L389,423.06a3.72,3.72,0,0,1-1.09,1.3,2.65,2.65,0,0,0-1,2.7,14.21,14.21,0,0,1-.27,7.5,3.75,3.75,0,0,1-.43,1.6l-5.39,10.18a3.63,3.63,0,0,1-.82,1,16.25,16.25,0,0,1-5.18,4.88c-8.54,5.11-21.57-.35-28.57-4.06h0a86.58,86.58,0,0,1-19.64-14.3,6.25,6.25,0,0,1-1-7.49c1.48-2.63,2.45-4.58,3.19-6.07.38-.75.7-1.41,1-2l.08-.14,5.09-8.69a3.68,3.68,0,0,1,1.09-1.2,3.26,3.26,0,0,1,.4-.24A2.71,2.71,0,0,0,338,405.6a13,13,0,0,1,2-7.3l3.45-6.81a4.12,4.12,0,0,1,.62-.88l.11-.19a15.46,15.46,0,0,1,5.95-5.65,2.59,2.59,0,0,0-.64-4.85c-19.58-3.86-36.56.29-42.83,12.14-8.95,16.89,7.28,43,36.25,58.38s59.72,14.1,68.67-2.8C417.9,435.61,411.5,418.89,396.82,404.72Z"/><path class="cls-34" d="M375.86,416.88c-1.76-1.49-3.32-2.85-4.73-4.1l6-11.59c9.38,5.62,12.53,11.87,12.53,11.87s1.89-4.47,3.78-9.26a84.27,84.27,0,0,0-12.75-9.52l2.73-5.29-8.8-4.66-2.85,5.37c-10.16-4.23-19.76-4.62-24.33,2.77s3.44,15.28,11.06,22.27l-5.16,9.75c-7.88-5.55-15.52-12.65-15-13l-5.11,8.73a85.55,85.55,0,0,0,15.87,12.3l-3.59,6.76,9.43,5,3.53-6.86c7.8,3.39,15.15,4.76,19.68,2.25C385,435.85,387,426.3,375.86,416.88Zm-15.13-17c0-2.34,2-4.16,7.13-2.83l-4.37,8.26C361.58,403,360.75,401.31,360.73,399.85Zm1.59,30,4-7.7c2.12,2.29,3.49,4.35,3.38,6.08C369.45,431.75,366.42,431.69,362.32,429.87Z"/><path class="cls-32" d="M342.08,441.16h10.67a0,0,0,0,1,0,0v11.78a.24.24,0,0,1-.24.24h-10.2a.24.24,0,0,1-.24-.24V441.16A0,0,0,0,1,342.08,441.16Z" transform="translate(249.75 -110.61) rotate(27.91)"/><path class="cls-35" d="M435.2,456.2c-13.5,25.48-57.43,28.66-98.11,7.11s-62.72-59.68-49.22-85.16S345.29,349.49,386,371,448.69,430.72,435.2,456.2Zm-52.8-78.42c-34.71-18.39-72-16-83.26,5.22s7.73,53.44,42.44,71.83,72,16.05,83.27-5.23S417.12,396.17,382.4,377.78Z"/><path class="cls-36" d="M338.39,460.86c-39.27-20.8-60.83-57.32-48.07-81.41s55.09-26.76,94.35-6,60.83,57.33,48.07,81.41S377.66,481.66,338.39,460.86Zm45.31-85.54c-17.23-9.13-35.66-13.59-51.89-12.58-16.73,1.06-29.2,7.79-35.12,19s-4.49,25.28,4,39.71c8.27,14,22.32,26.74,39.56,35.87s35.66,13.6,51.89,12.58c16.73-1.05,29.2-7.79,35.12-19s4.48-25.28-4-39.71C415,397.19,400.94,384.45,383.7,375.32Z"/><path class="cls-37" d="M337.27,463c-40-21.18-61.94-58.35-49.9-83.81-.26.44-.51.88-.75,1.33-13.49,25.48,8.54,63.6,49.23,85.16s84.6,18.37,98.1-7.11c.24-.45.46-.9.68-1.36C420.33,481.45,377.24,484.15,337.27,463Z"/><path class="cls-38" d="M340,457.36c-39.83-21.11-63.2-55.37-51.16-80.82-.25.43-.5.87-.74,1.32-13.5,25.48,8.43,63.55,49,85s84.36,18.23,97.85-7.25c.24-.44.46-.9.68-1.35C421.33,478.55,379.86,478.46,340,457.36Z"/><path class="cls-38" d="M371.7,371.88c-9.35-4.15-33.87-13.31-54-5.6a3,3,0,0,1-3.37-.88h0a3,3,0,0,1,1.4-4.77c8-2.47,27.62-5.74,57.56,7.29a2.15,2.15,0,0,1,1.17,1.33l0,.13A2.08,2.08,0,0,1,371.7,371.88Z"/><path class="cls-39" d="M361.39,398c1-1.05,3-1.5,6.35-.64l.71-1.35C363.92,394.78,361.81,396,361.39,398Z"/><path class="cls-39" d="M370.31,427.21c.11-1.72-1.26-3.79-3.39-6.09l-.71,1.37c2.13,2.29,3.49,4.35,3.39,6.08a4.61,4.61,0,0,1-.13.8A3.12,3.12,0,0,0,370.31,427.21Z"/><path class="cls-39" d="M377,401.51c9.41,5.64,12.57,11.89,12.57,11.89l.63-1.51c-.53-1-3.91-6.6-12.5-11.74Z"/><path class="cls-39" d="M358.35,415l.71-1.35c-7.21-6.61-14.72-14.1-11.76-21.06l-.08.11C342.71,400,350.7,408,358.35,415Z"/><path class="cls-39" d="M378.8,438.63c-4.53,2.51-11.91,1.13-19.73-2.27l-.7,1.36c7.81,3.4,15.18,4.77,19.72,2.27a10.84,10.84,0,0,0,4.77-5.12A11.06,11.06,0,0,1,378.8,438.63Z"/><path class="cls-39" d="M349.66,431.44a85.93,85.93,0,0,1-15.88-12.29l-.76,1.31a85.72,85.72,0,0,0,15.92,12.33Z"/><polygon class="cls-39" points="346.08 438.2 345.36 439.55 354.82 444.56 355.52 443.2 346.08 438.2"/><path class="cls-40" d="M436.33,457.5l-14.92,28.16S414,494.39,405.53,497L417,475.37S426.22,472.54,436.33,457.5Z"/><path class="cls-41" d="M286.11,376,271.2,404.15s-3.06,11-.46,19.5L282.19,402S279.36,392.8,286.11,376Z"/><path class="cls-42" d="M335.37,490.15l9.86-18.6q-5-2.13-10-4.76c-3.63-1.92-7.1-4-10.42-6.15L315,479.25c3.33,2.15,6.8,4.2,10.44,6.13Q330.4,488,335.37,490.15Z"/><path class="cls-43" d="M356.81,497.23l10.72-18.52a121.88,121.88,0,0,1-22.3-7.16l-9.86,18.6A121.08,121.08,0,0,0,356.81,497.23Z"/><path class="cls-43" d="M320.33,457.56c-2-1.37-5.06-3.91-5.06-3.91l-9.92,18.72q2.32,1.83,4.78,3.58l.34.22Z"/><path class="cls-43" d="M311.05,450c-.65-.48-1.31-1-1.9-1.47a1.94,1.94,0,0,0-2.92.61l-8,15.19a1.93,1.93,0,0,0,.52,2.45c.72.55,2.06,1.52,3,2.16a.94.94,0,0,0,1.39-.32l8.56-16.16A1.93,1.93,0,0,0,311.05,450Z"/><path class="cls-40" d="M295.88,460.78l7.92-14.94a2,2,0,0,0-.35-2.4c-.77-.78-1.79-1.84-2.68-2.75s-5.94-8.29-6.61-7.09l-16.1,8.45c-.43.78,10.93,15.46,11.54,16.11,1,1,2,2.09,3,3.12A2.06,2.06,0,0,0,295.88,460.78Z"/><polygon class="cls-44" points="355.47 447.98 359.02 449.14 363.38 440.1 360.23 438.99 355.47 447.98"/></g><polygon class="cls-38" points="385.16 531.32 352.83 478.73 315.26 490.4 349.39 463.77 335.36 413.77 361.91 457.27 404.53 451.27 369.5 472.31 385.16 531.32"/><polygon class="cls-38" points="197.5 402.12 175.11 365.69 149.08 373.77 172.72 355.33 163 320.69 181.4 350.82 210.92 346.67 186.65 361.24 197.5 402.12"/><path class="cls-2" d="M582.28,731.23c-.59,22.63-17.68,40.53-55.71,39.55S458.19,750.66,458.78,728s31.89-40.18,69.91-39.2S582.87,708.6,582.28,731.23Z"/><path class="cls-29" d="M525.76,767.53c-35-.9-63.31-16.47-67.91-40.66-.48-2.55.12-13.68.19-16.33.13-4.78.14-10.63,1.79-15,7.91-20.85,32.74-34.4,68.65-33.48s60,15.75,66.83,37c1.43,4.42,1.14,10.27,1,15-.06,2.64,0,13.79-.65,16.31C589.83,754.35,560.76,768.44,525.76,767.53Z"/><ellipse class="cls-49" cx="527.41" cy="703.68" rx="36.37" ry="59.33" transform="translate(-189.67 1212.73) rotate(-88.52)"/><ellipse class="cls-31" cx="527.41" cy="703.68" rx="36.37" ry="59.33" transform="translate(-189.67 1212.73) rotate(-88.52)"/><path class="cls-32" d="M528.18,673.9c30.8.8,55.4,15.59,55,33.05a18.53,18.53,0,0,1-.92,5.23,18.93,18.93,0,0,0,2.67-9c.45-17.46-24.89-32.27-56.6-33.09S470.49,682.71,470,700.17a18.89,18.89,0,0,0,2.2,9.17,18.74,18.74,0,0,1-.65-5.28C472,686.61,497.38,673.1,528.18,673.9Z"/><path class="cls-32" d="M549,709.24h-.15c-.23-4.06-3.59-8.18-11.3-10.08-7.1-1.76-11.47-3.09-14-4.4a22.35,22.35,0,0,1,7.58-.74A28.33,28.33,0,0,1,545,697.85l1.31,1.09.06-6.87a22,22,0,0,0-.34-3.48c-.1-1.5-.36-2.51-.57-5-15.47-4.38-35.83-3.77-36.94,8.25a3.69,3.69,0,0,0,0,.47c-.09.21-.13.32-.13.32l0,6.21c-.78,8.9,11.93,11.55,20.71,14.39-8.57-.61-20.58-4-20.28-4.56l-.55,8.06c-.05,1.79.07,4.27-.23,8.88,12.95,4.73,34,5.64,39-2.3a9.85,9.85,0,0,0,1.59-4.76l.13-.09Z"/><path class="cls-33" d="M548.21,683c0,.09,0,.17,0,.26.11,1.26.22,2.11.33,2.87s.18,1.29.23,2c0,0,0,.08,0,.12a22.9,22.9,0,0,1,.34,3.83l-.06,6.81a3,3,0,0,1-.32,1.32,2.11,2.11,0,0,0,.27,2.27,11.36,11.36,0,0,1,2.48,5.47,3,3,0,0,1,.26,1.29l-.24,9.21a3,3,0,0,1-.21,1,13.16,13.16,0,0,1-2,5.34c-4.29,6.69-15.56,7.41-21.89,7.25h0a68.81,68.81,0,0,1-19.13-3.25,5,5,0,0,1-3.39-5c.13-2.4.13-4.14.13-5.47,0-.67,0-1.26,0-1.79a.49.49,0,0,1,0-.12l.54-8a3,3,0,0,1,.36-1.24,3.45,3.45,0,0,1,.2-.32,2.17,2.17,0,0,0,.21-2.32,10.34,10.34,0,0,1-1.2-5.92l0-6.09a3.07,3.07,0,0,1,.13-.85c0-.06,0-.12,0-.18a12.24,12.24,0,0,1,2.25-6.15,2.08,2.08,0,0,0-2.19-3.25c-15.37,4.2-26.05,13.21-26.32,23.92-.4,15.27,20.51,28.2,46.7,28.88S573.6,723.76,574,708.49C574.27,697.61,563.75,687.93,548.21,683Z"/><path class="cls-34" d="M537.53,699.17c-1.79-.45-3.38-.86-4.84-1.25l.15-10.42c8.71.69,13.19,4,13.19,4s-.24-3.87-.59-8a67.63,67.63,0,0,0-12.51-2.28l.07-4.75-8-.21-.12,4.86c-8.78.58-15.78,3.72-16.42,10.63s7.89,9.71,15.83,12l-.22,8.81c-7.61-1.17-15.61-3.53-15.36-4l-.55,8.06a67.77,67.77,0,0,0,15.72,3.16l-.16,6.11,8.52.22.09-6.15c6.78-.35,12.53-2,14.88-5.4C550.79,709.5,548.83,702,537.53,699.17Zm-16.88-6.81c-.86-1.66-.06-3.68,4.1-4.55l-.2,7.46C522.38,694.32,521.19,693.4,520.65,692.36Zm11.82,20.92.1-6.93c2.33.89,4,1.88,4.58,3.15C538.24,712.09,536,713.12,532.47,713.28Z"/><path class="cls-32" d="M523.69,726.15h8.52a0,0,0,0,1,0,0v9.42a.19.19,0,0,1-.19.19h-8.15a.19.19,0,0,1-.19-.19v-9.42A0,0,0,0,1,523.69,726.15Z" transform="translate(19.07 -13.4) rotate(1.48)"/><path class="cls-35" d="M594,706.2c-.6,23-30.89,40.92-67.66,40s-66.1-20.39-65.51-43.42,30.89-40.93,67.66-40S594.56,683.17,594,706.2Zm-65.66-37.34c-31.38-.81-57.22,14.12-57.71,33.35s24.53,35.48,55.91,36.3,57.21-14.13,57.71-33.36S559.68,669.67,528.31,668.86Z"/><path class="cls-36" d="M526.37,744c-35.5-.92-63.91-19.38-63.35-41.15s29.9-38.74,65.39-37.82,63.91,19.38,63.34,41.15S561.86,744.88,526.37,744Zm2-77.31c-15.57-.41-30.35,3-41.6,9.45-11.59,6.7-18.12,16-18.38,26.06s5.78,19.68,17,27c10.9,7.07,25.48,11.19,41.06,11.59s30.35-3,41.6-9.46c11.59-6.7,18.12-16,18.38-26s-5.78-19.68-17-27C558.52,671.17,543.94,667.05,528.36,666.65Z"/><path class="cls-37" d="M526.32,745.87c-36.13-.93-65.07-19.71-65.51-42.21,0,.4-.05.81-.06,1.21-.6,23,28.73,42.47,65.5,43.42s67.07-16.94,67.66-40c0-.41,0-.81,0-1.22C592.31,729.55,562.44,746.8,526.32,745.87Z"/><path class="cls-38" d="M526.29,740.87c-36-.93-64.9-17.13-65.34-39.63,0,.4-.05.81-.06,1.21-.6,23,28.63,42.47,65.27,43.42s66.84-17,67.44-40c0-.4,0-.81,0-1.21C592,727.11,562.3,741.8,526.29,740.87Z"/><path class="cls-38" d="M518.56,668.45c-8.18.36-29,2.52-40.61,15.18a2.36,2.36,0,0,1-2.72.57h0a2.38,2.38,0,0,1-.69-3.9c4.83-4.61,17.72-13.93,43.77-15.26a1.71,1.71,0,0,1,1.31.53l.08.08A1.66,1.66,0,0,1,518.56,668.45Z"/><path class="cls-39" d="M520.45,690.77c.34-1.11,1.63-2.15,4.31-2.71l0-1.22C521.13,687.6,520.07,689.26,520.45,690.77Z"/><path class="cls-39" d="M537.24,708.53c-.54-1.27-2.25-2.26-4.6-3.15v1.23c2.33.89,4,1.87,4.58,3.14a4.54,4.54,0,0,1,.2.63A2.53,2.53,0,0,0,537.24,708.53Z"/><path class="cls-39" d="M532.9,687.75c8.73.69,13.22,4,13.22,4s0-.49-.09-1.3c-.72-.5-5.14-3.33-13.12-4Z"/><path class="cls-39" d="M524.35,704.07l0-1.22c-7.52-2.16-15.55-4.85-15.91-10.88a.3.3,0,0,1,0,.1C507.82,698.9,516.38,701.78,524.35,704.07Z"/><path class="cls-39" d="M547.38,713.68c-2.36,3.41-8.13,5.05-14.93,5.39l0,1.23c6.8-.35,12.56-2,14.91-5.39a8.59,8.59,0,0,0,1.6-5.36A8.91,8.91,0,0,1,547.38,713.68Z"/><path class="cls-39" d="M524,718.9a69,69,0,0,1-15.72-3.14q0,.57-.09,1.2a68.4,68.4,0,0,0,15.78,3.16Z"/><polygon class="cls-39" points="523.81 725.01 523.77 726.23 532.33 726.46 532.34 725.23 523.81 725.01"/><path class="cls-40" d="M595.24,706.72l-.65,25.45s-2.21,8.89-7.33,13.76l.5-19.54S593.36,721.07,595.24,706.72Z"/><path class="cls-41" d="M458.78,701.83l-.66,25.45s1.74,9,6.61,14.12l.51-19.54S459.92,716.26,458.78,701.83Z"/><path class="cls-42" d="M534.63,766l.43-16.81c-2.89.16-5.83.21-8.81.13-3.28-.08-6.5-.32-9.65-.69l-.43,16.82c3.14.35,6.36.58,9.64.67Q530.29,766.21,534.63,766Z"/><path class="cls-43" d="M552.48,763.43l1.08-17.06a97.92,97.92,0,0,1-18.5,2.81L534.63,766A97.28,97.28,0,0,0,552.48,763.43Z"/><path class="cls-43" d="M512.27,748c-1.94-.26-5-1-5-1l-.44,16.92c1.54.33,3.1.62,4.69.87l.33,0Z"/><path class="cls-43" d="M502.94,745.9c-.64-.12-1.3-.25-1.88-.38a1.55,1.55,0,0,0-1.87,1.48l-.36,13.73a1.55,1.55,0,0,0,1.25,1.56c.71.14,2,.36,2.88.5a.76.76,0,0,0,.88-.73l.37-14.6A1.54,1.54,0,0,0,502.94,745.9Z"/><path class="cls-40" d="M495.93,759l.35-13.51a1.64,1.64,0,0,0-1.11-1.59c-.83-.28-1.93-.67-2.89-1s-7.2-3.82-7.25-2.73L476.52,752c0,.71,13.32,7.17,14,7.42,1.07.41,2.16.79,3.26,1.16A1.66,1.66,0,0,0,495.93,759Z"/><polygon class="cls-44" points="534 728.67 536.96 728.23 536.86 720.22 534.22 720.55 534 728.67"/><path class="cls-29" d="M320.67,778.22c-34-.88-61.43-16-65.89-39.46-.47-2.47.12-13.27.18-15.84.12-4.64.14-10.32,1.74-14.54,7.67-20.23,31.77-33.38,66.62-32.48s58.23,15.28,64.85,35.88c1.38,4.29,1.1,10,1,14.61-.06,2.57,0,13.38-.63,15.83C382.85,765.43,354.64,779.1,320.67,778.22Z"/><ellipse class="cls-50" cx="322.27" cy="716.26" rx="35.29" ry="57.57" transform="translate(-402.08 1019.92) rotate(-88.52)"/><ellipse class="cls-31" cx="322.27" cy="716.26" rx="35.29" ry="57.57" transform="translate(-402.08 1019.92) rotate(-88.52)"/><path class="cls-32" d="M323,687.36c29.89.77,53.76,15.13,53.32,32.07a17.55,17.55,0,0,1-.89,5.08,18.33,18.33,0,0,0,2.59-8.78c.44-16.94-24.15-31.31-54.92-32.11s-56.07,12.29-56.51,29.23a18.26,18.26,0,0,0,2.13,8.9,18,18,0,0,1-.63-5.12C268.55,699.69,293.13,686.59,323,687.36Z"/><path class="cls-32" d="M343.21,721.65h-.14c-.23-3.94-3.5-7.93-11-9.78-6.9-1.71-11.14-3-13.62-4.27a21.6,21.6,0,0,1,7.35-.72,27.67,27.67,0,0,1,13.5,3.71l1.27,1.06.06-6.66a21.38,21.38,0,0,0-.33-3.39c-.1-1.45-.35-2.43-.56-4.87-15-4.25-34.77-3.66-35.84,8a3.53,3.53,0,0,0,0,.46,2.38,2.38,0,0,0-.12.31l-.05,6c-.76,8.64,11.57,11.21,20.1,14-8.32-.59-20-3.89-19.69-4.42l-.53,7.82c0,1.73.07,4.14-.22,8.61,12.57,4.59,33,5.48,37.9-2.23a9.63,9.63,0,0,0,1.54-4.62l.13-.09Z"/><path class="cls-33" d="M342.46,696.2c0,.08,0,.17,0,.26.1,1.21.22,2,.32,2.78s.17,1.25.23,2c0,0,0,.08,0,.11a24.49,24.49,0,0,1,.34,3.72l-.06,6.61a2.92,2.92,0,0,1-.32,1.28,2.07,2.07,0,0,0,.27,2.21,11.07,11.07,0,0,1,2.4,5.3,2.85,2.85,0,0,1,.26,1.26l-.23,8.93a3.08,3.08,0,0,1-.21,1,12.73,12.73,0,0,1-1.91,5.18c-4.17,6.49-15.1,7.2-21.25,7h0a66.75,66.75,0,0,1-18.56-3.15,4.85,4.85,0,0,1-3.29-4.85c.12-2.34.12-4,.12-5.32,0-.65,0-1.22,0-1.73v-.12l.53-7.79a3,3,0,0,1,.35-1.21,2,2,0,0,1,.2-.31,2.1,2.1,0,0,0,.2-2.24,10.06,10.06,0,0,1-1.16-5.75l0-5.91a2.88,2.88,0,0,1,.13-.83c0-.06,0-.11,0-.17a11.88,11.88,0,0,1,2.18-6,2,2,0,0,0-2.12-3.15c-14.92,4.08-25.28,12.82-25.55,23.21-.38,14.82,19.91,27.36,45.32,28s46.33-10.82,46.71-25.64C367.75,710.37,357.54,701,342.46,696.2Z"/><path class="cls-34" d="M332.1,711.88c-1.74-.43-3.29-.83-4.7-1.21l.15-10.11c8.45.67,12.79,3.92,12.79,3.92s-.23-3.76-.57-7.74a66,66,0,0,0-12.14-2.21l.07-4.61-7.72-.2-.12,4.71c-8.52.57-15.32,3.61-15.93,10.32s7.66,9.42,15.36,11.65l-.22,8.55c-7.38-1.14-15.14-3.43-14.91-3.86l-.53,7.82A66.22,66.22,0,0,0,318.89,732l-.15,5.93,8.26.22.09-6c6.58-.34,12.16-1.93,14.44-5.23C345,721.91,343.06,714.59,332.1,711.88Zm-16.38-6.6c-.83-1.61-.06-3.58,4-4.42l-.18,7.23C317.4,707.17,316.24,706.28,315.72,705.28Zm11.47,20.29.09-6.72c2.27.86,3.93,1.82,4.45,3.06C332.78,724.42,330.66,725.42,327.19,725.57Z"/><path class="cls-32" d="M318.67,738.06h8.27a0,0,0,0,1,0,0v9.14a.18.18,0,0,1-.18.18h-7.91a.18.18,0,0,1-.18-.18v-9.14a0,0,0,0,1,0,0Z" transform="translate(19.3 -8.09) rotate(1.48)"/><path class="cls-35" d="M386.86,718.7c-.57,22.35-30,39.72-65.65,38.79s-64.14-19.78-63.57-42.13,30-39.72,65.66-38.79S387.44,696.35,386.86,718.7Zm-63.71-36.23c-30.45-.79-55.52,13.7-56,32.37S291,749.27,321.4,750.05s55.52-13.7,56-32.36S353.59,683.26,323.15,682.47Z"/><path class="cls-36" d="M321.26,755.34c-34.44-.89-62-18.8-61.47-39.92s29-37.6,63.45-36.7,62,18.8,61.48,39.92S355.7,756.24,321.26,755.34Zm1.94-75c-15.11-.39-29.45,2.87-40.37,9.18C271.58,696,265.25,705,265,714.78s5.61,19.1,16.51,26.17c10.58,6.87,24.73,10.86,39.84,11.25s29.46-2.86,40.37-9.17c11.25-6.5,17.59-15.48,17.84-25.29s-5.61-19.09-16.51-26.17C352.47,684.71,338.32,680.71,323.2,680.32Z"/><path class="cls-37" d="M321.22,757.2c-35.06-.91-63.14-19.13-63.57-41,0,.39,0,.78-.06,1.18-.58,22.35,27.88,41.21,63.56,42.13s65.08-16.44,65.66-38.79c0-.39,0-.79,0-1.18C385.26,741.36,356.27,758.11,321.22,757.2Z"/><path class="cls-38" d="M321.19,752.35c-34.93-.91-63-16.63-63.41-38.46,0,.39,0,.78-.06,1.18-.57,22.35,27.79,41.21,63.35,42.13s64.86-16.46,65.43-38.8c0-.4,0-.79,0-1.18C385,739,356.13,753.25,321.19,752.35Z"/><path class="cls-38" d="M313.68,682.08c-7.93.34-28.11,2.44-39.39,14.73a2.33,2.33,0,0,1-2.65.55h0a2.32,2.32,0,0,1-.67-3.79c4.69-4.47,17.19-13.52,42.47-14.81a1.67,1.67,0,0,1,1.28.52l.07.08A1.62,1.62,0,0,1,313.68,682.08Z"/><path class="cls-39" d="M315.52,703.73c.34-1.08,1.58-2.09,4.19-2.63l0-1.19C316.18,700.65,315.15,702.26,315.52,703.73Z"/><path class="cls-39" d="M331.82,721c-.53-1.24-2.19-2.2-4.46-3.06l0,1.19c2.26.86,3.92,1.82,4.44,3a4.32,4.32,0,0,1,.2.61A2.46,2.46,0,0,0,331.82,721Z"/><path class="cls-39" d="M327.6,700.81c8.48.66,12.83,3.91,12.83,3.91l-.08-1.26c-.7-.48-5-3.23-12.73-3.84Z"/><path class="cls-39" d="M319.3,716.64l0-1.19c-7.3-2.09-15.09-4.7-15.44-10.55,0,0,0,.06,0,.09C303.27,711.62,311.57,714.42,319.3,716.64Z"/><path class="cls-39" d="M341.65,726c-2.28,3.3-7.88,4.89-14.49,5.23v1.18c6.6-.33,12.19-1.93,14.47-5.23a8.38,8.38,0,0,0,1.55-5.19A8.6,8.6,0,0,1,341.65,726Z"/><path class="cls-39" d="M318.93,731a67,67,0,0,1-15.26-3c0,.37-.05.75-.08,1.17a66.24,66.24,0,0,0,15.31,3.06Z"/><polygon class="cls-39" points="318.78 736.96 318.75 738.14 327.05 738.36 327.06 737.17 318.78 736.96"/><path class="cls-40" d="M388.1,719.21l-.64,24.7s-2.13,8.62-7.11,13.35l.49-19S386.27,733.14,388.1,719.21Z"/><path class="cls-41" d="M255.68,714.46l-.64,24.7s1.69,8.72,6.41,13.7l.49-19S256.79,728.47,255.68,714.46Z"/><path class="cls-42" d="M329.28,776.72l.42-16.31q-4.2.24-8.55.13c-3.19-.08-6.31-.32-9.36-.67l-.42,16.32c3.05.34,6.17.57,9.36.65Q325.08,776.95,329.28,776.72Z"/><path class="cls-43" d="M346.61,774.24l1-16.56a94.9,94.9,0,0,1-17.95,2.73l-.42,16.31A94.58,94.58,0,0,0,346.61,774.24Z"/><path class="cls-43" d="M307.59,759.29c-1.89-.25-4.87-1-4.87-1l-.42,16.42c1.49.31,3,.59,4.55.84l.31,0Z"/><path class="cls-43" d="M298.53,757.23l-1.83-.37a1.49,1.49,0,0,0-1.81,1.44l-.35,13.32a1.51,1.51,0,0,0,1.21,1.51c.69.14,2,.35,2.8.49a.73.73,0,0,0,.85-.71l.37-14.16A1.5,1.5,0,0,0,298.53,757.23Z"/><path class="cls-40" d="M291.73,770l.33-13.11a1.59,1.59,0,0,0-1.06-1.54l-2.81-1c-1-.36-7-3.71-7-2.65l-8.26,11.43c0,.69,12.93,7,13.57,7.2,1,.39,2.09.77,3.17,1.12A1.6,1.6,0,0,0,291.73,770Z"/><polygon class="cls-44" points="328.68 740.51 331.55 740.09 331.44 732.31 328.88 732.63 328.68 740.51"/><polygon class="cls-38" points="447.36 410.61 417.72 362.38 383.26 373.08 414.56 348.66 401.69 302.8 426.04 342.7 465.13 337.19 433 356.49 447.36 410.61"/><polygon class="cls-38" points="277.86 338.96 261.92 313.02 243.39 318.78 260.22 305.64 253.3 280.99 266.39 302.44 287.41 299.48 270.13 309.86 277.86 338.96"/><path class="cls-51" d="M491.53,380.68l80.09-55.45S442.24,366.82,448.4,359.12s89.34-154,89.34-154S405.28,331.39,405.28,320.61s23.1-132.46,23.1-132.46L376,309.83,336,182l1.55,126.3-94-117.06,49.29,114L183.48,255.92s81.63,58.53,87.79,58.53,52.37,4.62,47.75,15.4-21.56,37,18.49,32.35,63.15-15.41,77-4.63,23.1,35.43,50.83,32.35S491.53,380.68,491.53,380.68Z"/><path class="cls-52" d="M434.64,399.59l100.78-57.68S418.18,374.47,419.91,371s71-111.25,71-111.25L383.53,349.35l28-109.45L363.6,335.49l-16.44-94.22-1,87.59-56.53-72.53,23.55,75.39L248.58,293.3l51.91,48.8s7.55,6,39.14-5c15.74-5.48,37.8,18.47,50,17.79s8.65,10,13.85,10.9,9.53,10.39,11.26,13.86,20.89,16.91,20.89,16.91"/></svg>