<svg id="Layer_1" data-name="Layer 1" xmlns="http://www.w3.org/2000/svg" viewBox="0 0 800 800"><defs><style>.cls-1{fill:#1c1c1c;opacity:0.2;}.cls-2{fill:#d6960b;}.cls-3{fill:none;stroke:#000;stroke-miterlimit:10;stroke-width:0.68px;}.cls-4{fill:#d6ac00;}.cls-5{fill:#a64001;}.cls-6{fill:#f2c644;}.cls-7{fill:#e7ba33;}.cls-8{fill:#fec82e;}.cls-9{fill:#fde56c;}.cls-10{fill:#a65801;}.cls-11{fill:#fff;}.cls-12{fill:#ffeba2;}.cls-13{fill:#be7e4c;}.cls-14{fill:#ac7e4c;}.cls-15{fill:#ebc656;}.cls-16{fill:#e5b420;}.cls-17{fill:#b86734;}</style></defs><ellipse class="cls-1" cx="547.81" cy="456.79" rx="239.11" ry="142.29"/><path class="cls-2" d="M544.34,589.55c-121.57,0-221.19-51.5-239.3-135-1.91-8.81-.81-47.49-.81-56.68,0-16.61-.47-36.92,4.86-52.14,25.58-73.07,110.55-122.32,235.25-122.32S754,272.64,779.59,345.71c5.33,15.22,4.86,35.53,4.86,52.14,0,9.19,1.1,47.87-.81,56.68C765.53,538.05,665.91,589.55,544.34,589.55Z"/><ellipse class="cls-3" cx="544.34" cy="367.82" rx="205.97" ry="126.25"/><ellipse class="cls-4" cx="544.34" cy="367.82" rx="205.97" ry="126.25"/><path class="cls-5" d="M544.34,264.39c107,0,193.66,49.14,193.66,109.76a64.14,64.14,0,0,1-2.72,18.26,65.48,65.48,0,0,0,8.45-31.64c0-60.62-89.27-109.76-199.39-109.76S345,300.15,345,360.77a65.55,65.55,0,0,0,8.45,31.63,64,64,0,0,1-2.72-18.25C350.68,313.53,437.39,264.39,544.34,264.39Z"/><path class="cls-5" d="M619.71,385.17l-.51,0c-1.18-14.06-13.22-28.05-40.14-34-24.8-5.45-40.08-9.66-49.1-14,5.9-2.1,14.4-3.4,26.22-3.25,25.8.32,42.22,8.23,48.62,12l4.65,3.65-.4-23.82a77.2,77.2,0,0,0-1.5-12.07c-.49-5.2-1.48-8.66-2.44-17.37-54.06-13.81-124.69-9.87-127.45,32,0,.56,0,1.08,0,1.63a11.07,11.07,0,0,0-.4,1.13l.39,21.54c-1.9,31,42.43,39,73.17,48.08-29.8-1.33-71.79-12.05-70.8-14l-1.19,28c0,6.22.63,14.82,0,30.81,45.38,15.28,118.37,16.55,135.34-11.45a34.77,34.77,0,0,0,5.09-16.67l.44-.32Z"/><path class="cls-6" d="M614.67,294.2c.06.31.14.61.17.92.48,4.34,1,7.31,1.41,9.92.37,2.29.73,4.46,1,7l.06.42a82.15,82.15,0,0,1,1.54,13.26l.4,23.65a10.29,10.29,0,0,1-1,4.61,7.32,7.32,0,0,0,1.16,7.85,39.47,39.47,0,0,1,9.08,18.76,10.19,10.19,0,0,1,1,4.46v32a10.16,10.16,0,0,1-.65,3.6,45.34,45.34,0,0,1-6.35,18.71c-14.3,23.6-53.33,27.13-75.32,27.13h0a238.89,238.89,0,0,1-66.68-9.55,17.33,17.33,0,0,1-12.2-17.05c.21-8.37.05-14.4-.07-19-.06-2.34-.11-4.37-.11-6.2,0-.15,0-.29,0-.44s1.18-27.9,1.18-27.91a10.44,10.44,0,0,1,1.13-4.35,9,9,0,0,1,.67-1.12,7.51,7.51,0,0,0,.51-8.06,36.12,36.12,0,0,1-4.69-20.43l-.38-21.15a11.54,11.54,0,0,1,.38-3l0-.61A42.64,42.64,0,0,1,474.19,306c3.85-5.64-1.32-13-7.86-11-53,15.95-89.22,48.17-89.22,85.35,0,53,73.72,96,164.67,96s164.67-43,164.67-96C706.45,342.55,669,309.89,614.67,294.2Z"/><path class="cls-7" d="M579.06,351.23c-6.24-1.37-11.81-2.66-16.9-3.9l-.42-36.15C592,312.78,607.87,324,607.87,324s-1.19-13.42-2.76-27.62a233,233,0,0,0-43.61-6.78l-.19-16.5H533.69V290c-30.41,2.82-54.44,14.33-56,38.38-1.57,23.74,28.27,33,56,40.23v30.6c-26.52-3.39-54.47-10.85-53.66-12.44l-1.19,28c16.06,5,35.58,8.41,54.85,9.55v21.22h29.59L563,424.16c23.5-1.82,43.3-8,51.14-20.06C626,385.92,618.52,359.91,579.06,351.23Zm-59.18-22.09c-3.12-5.68-.53-12.79,13.81-16.18v25.9C526.06,335.76,521.83,332.69,519.88,329.14Zm42.89,71.52-.28-24c8.18,2.87,14.21,6.14,16.18,10.52C582.67,396,575.17,399.8,562.77,400.66Z"/><path class="cls-5" d="M533.89,445.73h29.59a0,0,0,0,1,0,0v32.68a.66.66,0,0,1-.66.66H534.54a.66.66,0,0,1-.66-.66V445.73A0,0,0,0,1,533.89,445.73Z"/><path class="cls-8" d="M775.56,370.57c0,80-103.52,144.8-231.22,144.8s-231.22-64.83-231.22-144.8S416.64,225.76,544.34,225.76,775.56,290.59,775.56,370.57ZM544.34,246.89c-109,0-197.28,54.15-197.28,120.93s88.32,120.93,197.28,120.93,197.29-54.14,197.29-120.93S653.3,246.89,544.34,246.89Z"/><path class="cls-9" d="M544.34,507.68c-123.25,0-223.52-61.51-223.52-137.11S421.09,233.45,544.34,233.45,767.87,295,767.87,370.57,667.59,507.68,544.34,507.68Zm0-268.48c-54.09,0-105.07,13-143.52,36.55-39.63,24.3-61.46,57-61.46,92.07s21.83,67.78,61.46,92.07c38.45,23.57,89.43,36.55,143.52,36.55s105.07-13,143.53-36.55c39.63-24.29,61.45-57,61.45-92.07s-21.82-67.77-61.45-92.07C649.41,252.18,598.44,239.2,544.34,239.2Z"/><path class="cls-10" d="M544.34,514.32c-125.45,0-227.55-62.57-231.11-140.6-.07,1.4-.11,2.8-.11,4.21,0,80,103.52,144.81,231.22,144.81s231.22-64.83,231.22-144.81c0-1.41,0-2.81-.1-4.21C771.9,451.75,669.79,514.32,544.34,514.32Z"/><path class="cls-11" d="M543.82,497c-125,0-226.78-53.63-230.33-131.65-.06,1.39-.1,2.8-.1,4.2,0,80,103.16,144.81,230.43,144.81s230.43-64.83,230.43-144.81c0-1.4,0-2.81-.11-4.2C770.6,443.33,668.84,497,543.82,497Z"/><path class="cls-11" d="M510.47,246.35c-28.33,2-100.32,11.34-139.54,56.33a8.3,8.3,0,0,1-9.4,2.21h0a8.29,8.29,0,0,1-2.77-13.49C375.12,275,419,241.47,509.3,234.53a5.86,5.86,0,0,1,4.6,1.73l.27.28A5.77,5.77,0,0,1,510.47,246.35Z"/><path class="cls-12" d="M519,323.64c1.1-3.9,5.46-7.62,14.73-9.81v-4.25C521.12,312.57,517.58,318.41,519,323.64Z"/><path class="cls-12" d="M578.9,383.76c-2-4.37-8-7.64-16.23-10.52l.05,4.26c8.18,2.87,14.21,6.14,16.18,10.51a13.08,13.08,0,0,1,.75,2.14C580.23,388.39,580.05,386.29,578.9,383.76Z"/><path class="cls-12" d="M562,312.05c30.38,1.61,46.24,12.83,46.24,12.83s-.15-1.71-.41-4.52c-2.55-1.66-18.15-11.1-45.87-12.56Z"/><path class="cls-12" d="M533.76,369.45V365.2c-26.27-6.83-54.4-15.44-56.19-36.32,0,.11,0,.22,0,.34C476,353,505.9,362.21,533.76,369.45Z"/><path class="cls-12" d="M614.54,400.73c-7.87,12-27.74,18.24-51.33,20l0,4.24c23.57-1.82,43.42-8,51.28-20a29.92,29.92,0,0,0,5.05-18.72A30.68,30.68,0,0,1,614.54,400.73Z"/><path class="cls-12" d="M533.76,420.93c-19.27-1.13-38.78-4.5-54.87-9.49-.05,1.32-.11,2.71-.17,4.19,16.11,5,35.7,8.41,55,9.54Z"/><polygon class="cls-12" points="533.76 442.16 533.76 446.4 563.46 446.4 563.41 442.16 533.76 442.16"/><path class="cls-13" d="M780,372.28v88.38s-6.84,31-24.2,48.4V441.19S774.77,422.26,780,372.28Z"/><path class="cls-14" d="M306,367.54v88.39s6.84,31,24.2,48.4V436.46S311.28,417.52,306,367.54Z"/><path class="cls-15" d="M575,583.4V525q-15,1.25-30.57,1.26c-11.39,0-22.58-.55-33.54-1.55v58.42c10.94,1,22.13,1.46,33.54,1.46C554.79,584.6,565,584.18,575,583.4Z"/><path class="cls-16" d="M636.72,572.91l2.22-59.3A340.81,340.81,0,0,1,575,525V583.4A338.3,338.3,0,0,0,636.72,572.91Z"/><path class="cls-16" d="M495.79,523c-6.75-.71-17.48-3-17.48-3v58.77q8.06,1.47,16.36,2.58l1.12.1Z"/><path class="cls-16" d="M463.22,516.51c-2.22-.34-4.53-.75-6.57-1.14a5.38,5.38,0,0,0-6.36,5.3v47.68a5.39,5.39,0,0,0,4.46,5.31c2.48.42,7,1.06,10,1.48a2.63,2.63,0,0,0,3-2.61v-50.7A5.38,5.38,0,0,0,463.22,516.51Z"/><path class="cls-13" d="M440.06,562.69V515.78a5.67,5.67,0,0,0-4-5.42c-2.92-.93-6.79-2.18-10.14-3.27-3.63-1.17-25.33-12.61-25.41-8.8l-28.49,41.63c-.05,2.46,46.87,23.69,49.19,24.5q5.63,2,11.44,3.72A5.71,5.71,0,0,0,440.06,562.69Z"/><polygon class="cls-17" points="569.48 453.94 579.71 452.16 578.63 424.35 569.48 425.73 569.48 453.94"/><polygon class="cls-11" points="607.95 499.2 598.33 433.34 556.15 428.9 601.29 417.06 608.69 361.55 616.46 415.95 661.24 428.16 617.57 434.08 607.95 499.2"/><path class="cls-1" d="M508.66,267.66c21,19.93,48.56,10.83,60.48,61.45,18.34,77.88-171.55,98-80.06,181.35,52.73,48,111,89.52,45.75,80.06-158-22.9-428.18,42.46-462-48.43C45.41,468.44,102.24,366.47,219.43,305.6S453.56,215.32,508.66,267.66Z"/><path class="cls-2" d="M343.14,551.29c-107.89,56-220,56.24-274.61-9.53-5.75-6.93-22.6-41.77-26.84-49.92C34,477.1,24.26,459.29,22,443.33c-11-76.64,41.73-159.51,152.39-217s208.77-52.94,265.15.11c11.74,11,20.69,29.3,28.34,44,4.24,8.16,23,42,25.41,50.67C515.69,403.63,451,495.25,343.14,551.29Z"/><ellipse class="cls-3" cx="240.93" cy="354.52" rx="205.97" ry="126.25" transform="translate(-136.29 150.96) rotate(-27.45)"/><ellipse class="cls-4" cx="240.93" cy="354.52" rx="205.97" ry="126.25" transform="translate(-136.29 150.96) rotate(-27.45)"/><path class="cls-5" d="M193.26,262.73c94.92-49.3,194.51-45.66,222.45,8.14a64.09,64.09,0,0,1,6,17.45,65.56,65.56,0,0,0-7.08-32c-27.94-53.79-129.81-56.25-227.54-5.49S32.8,386.37,60.74,440.16a65.44,65.44,0,0,0,22.08,24.18A64,64,0,0,1,72,449.39C44.05,395.6,98.34,312,193.26,262.73Z"/><path class="cls-5" d="M315.81,335.17l-.44.26c-7.53-11.93-24.66-18.79-51.27-11.64-24.53,6.59-40,9.9-50,10.21,4.26-4.59,11.22-9.66,21.77-15,23-11.61,41.26-12.15,48.69-11.75l5.81,1.11-11.34-21a77.35,77.35,0,0,0-6.89-10c-2.83-4.4-5.3-7-10.18-14.29-54.34,12.66-115.19,48.71-98.37,87.1.23.52.51,1,.76,1.44.08.78.17,1.2.17,1.2l10.27,18.93c12.59,28.37,55.64,15.06,87.1,8.94-27.06,12.55-69.27,22.4-69.28,20.22l11.86,25.41c2.87,5.52,7.39,12.86,14.21,27.35,47.3-7.36,112.67-39.88,114.82-72.55A34.65,34.65,0,0,0,330.3,364l.24-.5Z"/><path class="cls-6" d="M269.41,256.77c.2.24.4.47.58.73,2.43,3.64,4.23,6,5.82,8.16,1.39,1.86,2.7,3.62,4.1,5.74.07.11.16.23.24.34a81.78,81.78,0,0,1,7.48,11.05l11.26,20.81a10.3,10.3,0,0,1,1.23,4.56,7.34,7.34,0,0,0,4.65,6.43,39.51,39.51,0,0,1,16.71,12.46,10.22,10.22,0,0,1,3,3.49l14.73,28.36a10,10,0,0,1,1.08,3.49,45.35,45.35,0,0,1,3,19.53c-1.81,27.54-34.82,48.66-54.34,58.8h0A239,239,0,0,1,225.33,463a17.33,17.33,0,0,1-18.69-9.51c-3.67-7.52-6.59-12.8-8.82-16.83-1.13-2.05-2.11-3.83-2.95-5.45-.07-.13-.13-.26-.19-.39l-11.82-25.32a10.56,10.56,0,0,1-1-4.38,11.2,11.2,0,0,1,.08-1.3,7.49,7.49,0,0,0-3.26-7.38,36.19,36.19,0,0,1-13.58-16L155,357.84a11.7,11.7,0,0,1-1-2.81l-.26-.56A42.66,42.66,0,0,1,150.19,332c.81-6.79-7.17-10.95-12.07-6.19-39.67,38.58-57,83.88-39.84,116.87C122.73,489.75,208,493.92,288.68,452S415,338,390.55,290.89C373.14,257.37,324.89,245.63,269.41,256.77Z"/><path class="cls-7" d="M264.1,323.79c-6.17,1.66-11.71,3.09-16.8,4.33l-17-31.89c27.62-12.55,46.84-9.88,46.84-9.88s-7.23-11.36-15.18-23.23a233.83,233.83,0,0,0-41.82,14.08l-7.78-14.56-24.51,12.74,7.77,15c-25.68,16.52-41.7,37.81-32,59.88,9.56,21.8,40.3,16.25,68.27,9.88l14.1,27.16c-25.09,9.21-53.34,15.47-53.35,13.69l11.86,25.41c16.57-2.94,35.45-8.93,53.07-16.81l9.79,18.84,26.26-13.64-10.07-18.86c20-12.44,34.73-27.08,36.15-41.36C321.77,332.93,303.12,313.31,264.1,323.79Zm-62.71,7.67c-5.38-3.6-6.36-11.1,4.8-20.72l11.94,23C209.94,334.5,204.77,333.72,201.39,331.46Zm71,43.71L261.1,354c8.58-1.22,15.43-1.09,19.2,1.88C288,361.87,283,368.69,272.42,375.17Z"/><path class="cls-5" d="M273.58,419.78h29.59a0,0,0,0,1,0,0v32.68a.66.66,0,0,1-.66.66H274.24a.66.66,0,0,1-.66-.66V419.78A0,0,0,0,1,273.58,419.78Z" transform="translate(-168.71 182.05) rotate(-27.45)"/><path class="cls-8" d="M447.39,250.38c36.86,71-25.12,176.22-138.45,235.08S73.87,534.5,37,463.53,62.13,287.31,175.45,228.45,410.53,179.41,447.39,250.38Zm-262.2-3.18C88.5,297.42,35.07,386.18,65.85,445.45S200,512.05,296.67,461.83,446.79,322.85,416,263.58,281.89,197,185.19,247.2Z"/><path class="cls-9" d="M305.4,478.63C196,535.44,78.68,527.08,43.84,460S69.62,292.08,179,235.27s226.71-48.44,261.56,18.65S414.78,421.82,305.4,478.63ZM181.65,240.37c-48,24.94-87.26,59.95-110.52,98.6-24,39.82-28.27,78.9-12.1,110s50.61,50.08,97,53.38c45,3.19,96.21-8.79,144.22-33.72s87.26-60,110.52-98.59c24-39.83,28.27-78.9,12.1-110s-50.61-50.09-97-53.38C280.87,203.47,229.66,215.44,181.65,240.37Z"/><path class="cls-10" d="M308.46,484.53C197.13,542.35,77.68,533.89,38.55,466.28c.59,1.27,1.2,2.54,1.85,3.78C77.26,541,199,550.86,312.34,492S487.65,327.89,450.79,256.91c-.65-1.25-1.34-2.47-2-3.68C481.56,324.11,419.79,426.7,308.46,484.53Z"/><path class="cls-11" d="M300,469.36C189,527,74,526.3,34.91,458.69c.59,1.27,1.2,2.53,1.85,3.78,36.86,71,158.3,81,271.23,22.3S482.6,321,445.74,250.05c-.65-1.25-1.33-2.47-2-3.69C476.53,317.24,410.94,411.74,300,469.36Z"/><path class="cls-11" d="M154.88,262.34c-24.23,14.79-83.8,56.3-97.87,114.3a8.27,8.27,0,0,1-7.31,6.29h0A8.29,8.29,0,0,1,41,372.24C48,350.13,71.47,300.16,148.39,252.38a5.86,5.86,0,0,1,4.88-.58l.37.12A5.77,5.77,0,0,1,154.88,262.34Z"/><path class="cls-12" d="M198.1,327c-.81-4,1.34-9.29,8.55-15.5l-2-3.77C194.86,316.19,194.41,323,198.1,327Z"/><path class="cls-12" d="M279,352.74c-3.77-3-10.64-3.09-19.26-1.86l2,3.76c8.59-1.22,15.44-1.1,19.21,1.86a13.09,13.09,0,0,1,1.65,1.56A8.7,8.7,0,0,0,279,352.74Z"/><path class="cls-12" d="M230.86,296.9c27.7-12.57,46.95-9.93,46.95-9.93s-.92-1.45-2.45-3.82c-3-.3-21.22-1.48-46.5,10Z"/><path class="cls-12" d="M232.29,360.84l-2-3.77c-26.46,6.05-55.39,11.37-66.6-6.34a3,3,0,0,0,.12.32C173.39,372.85,204.23,367.25,232.29,360.84Z"/><path class="cls-12" d="M318.4,351.37c-1.44,14.3-16.21,29-36.31,41.45l2,3.74c20.07-12.48,34.83-27.14,36.26-41.43a29.88,29.88,0,0,0-4.14-18.94A30.74,30.74,0,0,1,318.4,351.37Z"/><path class="cls-12" d="M256,406.53c-17.62,7.87-36.49,13.88-53.06,16.86.56,1.2,1.14,2.46,1.77,3.8,16.62-3,35.56-9,53.25-16.9Z"/><polygon class="cls-12" points="265.81 425.37 267.76 429.13 294.12 415.44 292.12 411.7 265.81 425.37"/><path class="cls-13" d="M452.15,249.83l40.74,78.44s8.23,30.7.83,54.11l-31.28-60.23S470.51,296.61,452.15,249.83Z"/><path class="cls-14" d="M29.31,464.12l40.74,78.43s20.38,24.4,43.78,31.8L82.55,514.12S57,506.05,29.31,464.12Z"/><path class="cls-15" d="M367.49,531.7l-26.91-51.81q-12.74,8-26.55,15.21c-10.11,5.25-20.3,9.92-30.48,14.09L310.48,561q15.22-6.3,30.43-14.17Q354.73,539.68,367.49,531.7Z"/><path class="cls-16" d="M417.44,493.94l-25.36-53.65a340.42,340.42,0,0,1-51.5,39.6l26.91,51.81A337.33,337.33,0,0,0,417.44,493.94Z"/><path class="cls-16" d="M269.39,514.64c-6.32,2.48-16.9,5.38-16.9,5.38l27.09,52.16c5.22-1.61,10.45-3.35,15.71-5.26l1-.43Z"/><path class="cls-16" d="M237.48,523.86c-2.13.72-4.37,1.42-6.35,2a5.37,5.37,0,0,0-3.21,7.63l22,42.31a5.38,5.38,0,0,0,6.4,2.66c2.4-.77,6.73-2.3,9.59-3.31a2.63,2.63,0,0,0,1.45-3.7l-23.37-45A5.36,5.36,0,0,0,237.48,523.86Z"/><path class="cls-16" d="M238.21,575.51l-21.62-41.62a5.68,5.68,0,0,0-6-3c-3,.53-7,1.2-10.5,1.78a5.68,5.68,0,0,0-4.16,8.12l20.52,41.78a5.68,5.68,0,0,0,5.89,3.14q5.88-.84,11.86-2A5.72,5.72,0,0,0,238.21,575.51Z"/><polygon class="cls-17" points="302.94 419.36 311.19 413.06 297.41 388.88 289.94 394.32 302.94 419.36"/><polygon class="cls-11" points="113.15 383.7 74.25 329.68 34.77 345.19 69.38 313.87 50.36 261.2 82.33 305.89 127.69 296.09 91.67 321.47 113.15 383.7"/></svg>