<svg id="Layer_1" data-name="Layer 1" xmlns="http://www.w3.org/2000/svg" xmlns:xlink="http://www.w3.org/1999/xlink" viewBox="0 0 800 800"><defs><style>.cls-1{fill:#07374a;}.cls-2{fill:#1bb8ff;}.cls-16,.cls-2{opacity:0.3;}.cls-3{fill:url(#linear-gradient);}.cls-4{fill:url(#linear-gradient-2);}.cls-5{fill:url(#linear-gradient-3);}.cls-6{fill:url(#linear-gradient-4);}.cls-7{fill:url(#linear-gradient-5);}.cls-8{fill:url(#linear-gradient-6);}.cls-9{fill:url(#linear-gradient-7);}.cls-10{fill:url(#linear-gradient-8);}.cls-11{fill:url(#linear-gradient-9);}.cls-12{fill:#b5ffff;opacity:0.6;}.cls-13{fill:url(#linear-gradient-10);}.cls-14{fill:url(#linear-gradient-11);}.cls-15{fill:#fff;}.cls-16{fill:#1c1c1c;}.cls-17{fill:url(#linear-gradient-12);}.cls-18{fill:url(#linear-gradient-13);}.cls-19{fill:url(#linear-gradient-14);}.cls-20{fill:url(#linear-gradient-15);}.cls-21{fill:url(#linear-gradient-16);}.cls-22{fill:url(#linear-gradient-17);}.cls-23{fill:url(#linear-gradient-18);}.cls-24{fill:url(#linear-gradient-19);}.cls-25{fill:url(#linear-gradient-20);}.cls-26{fill:url(#linear-gradient-21);}.cls-27{fill:url(#linear-gradient-22);}</style><linearGradient id="linear-gradient" x1="647.9" y1="806.78" x2="628.96" y2="636.32" gradientUnits="userSpaceOnUse"><stop offset="0.05" stop-color="#9fc762"/><stop offset="0.59" stop-color="#008ebb"/></linearGradient><linearGradient id="linear-gradient-2" x1="359.19" y1="760.62" x2="336.8" y2="404.2" gradientUnits="userSpaceOnUse"><stop offset="0" stop-color="#92acb3"/><stop offset="0.63" stop-color="#003145"/></linearGradient><linearGradient id="linear-gradient-3" x1="251.73" y1="381.05" x2="499.67" y2="360.39" gradientUnits="userSpaceOnUse"><stop offset="0.25" stop-color="#e700ff"/><stop offset="0.79" stop-color="#fa7a36"/><stop offset="1" stop-color="#ffd100"/></linearGradient><linearGradient id="linear-gradient-4" x1="591.84" y1="386.72" x2="270.28" y2="231.75" gradientUnits="userSpaceOnUse"><stop offset="0.53" stop-color="#fabd09"/><stop offset="0.83" stop-color="#fa6b00"/></linearGradient><linearGradient id="linear-gradient-5" x1="320.51" y1="280.11" x2="733.75" y2="309.82" gradientUnits="userSpaceOnUse"><stop offset="0.2" stop-color="#baff8e"/><stop offset="0.75" stop-color="#008ebb"/><stop offset="0.87" stop-color="#008ebb"/></linearGradient><linearGradient id="linear-gradient-6" x1="658.81" y1="160.05" x2="466.39" y2="600.41" gradientUnits="userSpaceOnUse"><stop offset="0" stop-color="#fff"/><stop offset="0.21" stop-color="#baff8e"/><stop offset="0.63" stop-color="#008ebb"/></linearGradient><linearGradient id="linear-gradient-7" x1="510.36" y1="301.89" x2="470.76" y2="258.84" gradientUnits="userSpaceOnUse"><stop offset="0.42" stop-color="#fabd09"/><stop offset="0.83" stop-color="#fa6b00"/></linearGradient><linearGradient id="linear-gradient-8" x1="449.35" y1="336.33" x2="563.65" y2="336.33" gradientUnits="userSpaceOnUse"><stop offset="0" stop-color="#baff8e"/><stop offset="0.63" stop-color="#008ebb"/><stop offset="0.7" stop-color="#008ebb"/></linearGradient><linearGradient id="linear-gradient-9" x1="602.61" y1="433.88" x2="324.53" y2="481.23" gradientUnits="userSpaceOnUse"><stop offset="0" stop-color="#baff8e"/><stop offset="0.63" stop-color="#008ebb"/></linearGradient><linearGradient id="linear-gradient-10" x1="255.97" y1="358.63" x2="379.95" y2="480.45" gradientUnits="userSpaceOnUse"><stop offset="0.25" stop-color="#a900ff"/><stop offset="0.64" stop-color="#f037a5"/><stop offset="0.76" stop-color="#f45672"/><stop offset="0.89" stop-color="#fa7a36"/><stop offset="1" stop-color="#ff9b00"/></linearGradient><linearGradient id="linear-gradient-11" x1="359.43" y1="358.02" x2="411.08" y2="389.01" gradientUnits="userSpaceOnUse"><stop offset="0.25" stop-color="#e700ff"/><stop offset="0.32" stop-color="#e804f9"/><stop offset="0.41" stop-color="#e90ee8"/><stop offset="0.52" stop-color="#ec1fcc"/><stop offset="0.64" stop-color="#f037a5"/><stop offset="0.76" stop-color="#f45672"/><stop offset="0.89" stop-color="#fa7a36"/><stop offset="1" stop-color="#ff9b00"/></linearGradient><linearGradient id="linear-gradient-12" x1="394.41" y1="1205.11" x2="375.47" y2="1034.65" gradientTransform="translate(-253.18 -192.8) rotate(-26.98)" xlink:href="#linear-gradient"/><linearGradient id="linear-gradient-13" x1="105.69" y1="1158.95" x2="83.31" y2="802.53" gradientTransform="translate(-253.18 -192.8) rotate(-26.98)" xlink:href="#linear-gradient-2"/><linearGradient id="linear-gradient-14" x1="-1.77" y1="779.38" x2="246.18" y2="758.72" gradientTransform="translate(-253.18 -192.8) rotate(-26.98)" xlink:href="#linear-gradient-3"/><linearGradient id="linear-gradient-15" x1="338.34" y1="785.05" x2="16.79" y2="630.08" gradientTransform="translate(-253.18 -192.8) rotate(-26.98)" xlink:href="#linear-gradient-4"/><linearGradient id="linear-gradient-16" x1="67.02" y1="678.45" x2="480.26" y2="708.15" gradientTransform="translate(-253.18 -192.8) rotate(-26.98)" xlink:href="#linear-gradient-5"/><linearGradient id="linear-gradient-17" x1="405.32" y1="558.38" x2="212.9" y2="998.75" gradientTransform="translate(-253.18 -192.8) rotate(-26.98)" xlink:href="#linear-gradient-6"/><linearGradient id="linear-gradient-18" x1="256.87" y1="700.22" x2="217.27" y2="657.18" gradientTransform="translate(-253.18 -192.8) rotate(-26.98)" xlink:href="#linear-gradient-7"/><linearGradient id="linear-gradient-19" x1="195.85" y1="734.67" x2="310.16" y2="734.67" gradientTransform="translate(-253.18 -192.8) rotate(-26.98)" xlink:href="#linear-gradient-8"/><linearGradient id="linear-gradient-20" x1="349.11" y1="832.21" x2="71.03" y2="879.56" gradientTransform="translate(-253.18 -192.8) rotate(-26.98)" xlink:href="#linear-gradient-9"/><linearGradient id="linear-gradient-21" x1="2.48" y1="756.96" x2="126.45" y2="878.78" gradientTransform="translate(-253.18 -192.8) rotate(-26.98)" xlink:href="#linear-gradient-10"/><linearGradient id="linear-gradient-22" x1="105.93" y1="756.35" x2="157.59" y2="787.34" gradientTransform="translate(-253.18 -192.8) rotate(-26.98)" xlink:href="#linear-gradient-11"/></defs><polygon class="cls-1" points="747.23 391.15 478.37 527.32 207.82 391.73 209.12 293.58 479.02 155.4 747.23 287.63 747.23 391.15"/><polygon class="cls-2" points="225.47 382.17 225.41 386.4 479.45 513.72 730.53 386.58 730.53 376.86 480.06 251.82 225.47 382.17"/><path class="cls-3" d="M478.37,527.32,747.23,391.15v92.91L481.6,619.66S478.37,526.68,478.37,527.32Z"/><polygon class="cls-4" points="481.6 619.66 478.37 527.32 207.82 391.73 207.82 481.48 481.6 619.66"/><polygon class="cls-5" points="367.31 434.34 251.73 376.87 391.01 306.52 507.43 363.31 367.31 434.34"/><path class="cls-6" d="M251.73,376.87c2.58-.64,308-156.25,308-156.25l-82.65-43.27-226,114.94Z"/><polygon class="cls-7" points="449.31 305.85 586.85 235.47 700.49 291.64 563.6 361.38 449.31 305.85"/><polygon class="cls-8" points="700.09 291.89 395.07 447.25 477.08 488.58 703.72 373.65 700.09 291.89"/><path class="cls-9" d="M391,306.59l10.33,5C479.77,271.75,559.73,231,559.73,231l-.42-10.36C532.21,234.47,391,306.59,391,306.59Z"/><polygon class="cls-10" points="563.65 361.34 449.35 305.88 449.42 316.29 553.36 366.79 563.65 361.34"/><polygon class="cls-11" points="478.05 487.83 395.42 446.96 396.04 456.83 478.05 498.16 704.23 383.69 703.78 373.58 478.05 487.83"/><polygon class="cls-12" points="747.13 391.19 478.37 527.32 470.22 522.62 737.32 387.88 741.41 285.86 747.23 287.63 747.13 391.19"/><polygon class="cls-13" points="251.73 376.91 251.73 388.07 367.31 445.53 367 434.12 251.73 376.91"/><polygon class="cls-14" points="506.81 363.67 367 434.12 367.31 445.53 507.43 374.51 506.81 363.67"/><polygon class="cls-15" points="703.78 373.58 478.05 487.83 395.42 446.96 479.04 482.8 703.1 370.45 703.78 373.58"/><polygon class="cls-15" points="715.26 448.71 690.18 382.08 645.08 387.06 689.55 364.39 684.62 304.7 705.16 359.77 754.73 362.31 710.45 378.46 715.26 448.71"/><polygon class="cls-15" points="559.31 220.66 477.54 176.95 351.84 241.31 477.74 183.38 559.31 220.66"/><polygon class="cls-15" points="405.65 315.13 506.81 363.67 367 434.12 493.46 363.34 405.65 315.13"/><path class="cls-16" d="M462.1,224.56s82.38,59.56,109.18,83.38c26.5,23.55,31.56,66.06,34.54,86.91s-5.54,41-11.71,50.06c-22.57,33-102.23,71.46-103.22,102.23s9.79,68.36-6.09,73.32S349,633,223.94,626.05c-35.46-2-99.71-9.28-116.67-14.27-14.27-4.19,6.25-36.19,23.32-64.64C154.41,507.44,228.85,250.37,462.1,224.56Z"/><polygon class="cls-1" points="545.01 286.72 367.2 530.06 64.58 531.97 21.2 443.92 199.03 198.33 498.04 194.47 545.01 286.72"/><polygon class="cls-2" points="75.97 515.45 77.84 519.25 361.99 517.45 528.06 290.23 523.64 281.56 243.71 283.78 75.97 515.45"/><path class="cls-17" d="M367.2,530.06,545,286.72l42.15,82.8L412,610.87S366.91,529.48,367.2,530.06Z"/><polygon class="cls-18" points="411.97 610.87 367.2 530.06 64.58 531.97 105.3 611.95 411.97 610.87"/><polygon class="cls-19" points="226.04 497.59 96.97 498.82 189.17 372.93 318.68 370.72 226.04 497.59"/><path class="cls-20" d="M97,498.82c2-1.75,203.57-279,203.57-279l-93.28-1L58,423.73Z"/><polygon class="cls-21" points="240.82 345.87 331.45 220.75 458.21 219.25 367.86 343.5 240.82 345.87"/><polygon class="cls-22" points="457.96 219.65 256.64 496.5 348.47 496.12 498.29 290.86 457.96 219.65"/><path class="cls-23" d="M189.2,373l11.49-.2c51.81-71.12,104.57-143.7,104.57-143.7l-5.07-9C282.31,244.65,189.2,373,189.2,373Z"/><polygon class="cls-24" points="367.89 343.44 240.86 345.89 245.65 355.13 361.19 352.97 367.89 343.44"/><polygon class="cls-25" points="348.99 495.01 256.82 496.08 261.85 504.59 353.68 504.21 503.3 299.58 498.32 290.78 348.99 495.01"/><polygon class="cls-12" points="544.94 286.8 367.2 530.06 357.8 529.56 534.7 288.3 492.05 195.53 498.04 194.47 544.94 286.8"/><polygon class="cls-26" points="96.99 498.85 102.05 508.79 231.12 507.56 225.66 497.53 96.99 498.85"/><polygon class="cls-27" points="318.29 371.31 225.66 497.53 231.12 507.56 323.76 380.69 318.29 371.31"/><polygon class="cls-15" points="498.32 290.78 348.99 495.01 256.82 496.08 347.6 490.07 496.29 288.29 498.32 290.78"/><polygon class="cls-15" points="511.72 375.84 482.3 311.01 437.63 318.95 480.51 293.4 471.65 234.16 495.77 287.75 545.4 287.02 502.29 306.06 511.72 375.84"/><polygon class="cls-15" points="300.19 220.06 207.49 218.21 124.67 332.58 210.58 223.84 300.19 220.06"/><polygon class="cls-15" points="206.12 373.96 318.29 371.31 225.66 497.53 306.25 377.08 206.12 373.96"/></svg>