<?xml version="1.0" encoding="utf-8"?>
<!-- Generator: Adobe Illustrator 25.4.1, SVG Export Plug-In . SVG Version: 6.00 Build 0)  -->
<svg version="1.1" id="Layer_1" xmlns="http://www.w3.org/2000/svg" xmlns:xlink="http://www.w3.org/1999/xlink" x="0px" y="0px"
	 viewBox="0 0 512 512" style="enable-background:new 0 0 512 512;" xml:space="preserve">
<style type="text/css">
	.st0{fill:#62A5D3;stroke:#1E3D70;stroke-width:6.7709;stroke-miterlimit:10;}
	.st1{fill:#A9C944;stroke:#4C7235;stroke-width:5.4167;stroke-miterlimit:10;}
	.st2{fill:#195C8D;stroke:#195C8D;stroke-width:5.2407;stroke-miterlimit:10;}
	.st3{fill:#F2F3F2;}
	.st4{fill:#32111A;}
	.st5{fill:#E73F58;stroke:#7D1527;stroke-width:2.6203;stroke-miterlimit:10;}
	.st6{fill:#733E18;}
	.st7{fill:#F49F1E;stroke:#B22F24;stroke-width:3.9914;stroke-miterlimit:10;}
	.st8{fill:#A0D7E7;stroke:#305BA6;stroke-width:3.9914;stroke-miterlimit:10;}
	.st9{fill:none;stroke:#FFFFFF;stroke-width:5.3219;stroke-linecap:round;stroke-miterlimit:10;}
	.st10{fill:#E73F58;stroke:#7D1527;stroke-width:3.9914;stroke-miterlimit:10;}
	.st11{fill:#F49F1E;stroke:#B22F24;stroke-width:4.2072;stroke-miterlimit:10;}
	.st12{fill:#E8E125;stroke:#E84E27;stroke-width:1.2447;stroke-miterlimit:10;}
	.st13{fill:#E8E125;stroke:#E84E27;stroke-width:2.0675;stroke-miterlimit:10;}
	.st14{fill:#E8E125;stroke:#E84E27;stroke-width:1.7469;stroke-miterlimit:10;}
	.st15{fill:#62A5D3;}
	.st16{fill:#A0D7E7;stroke:#2A6597;stroke-width:1.8867;stroke-miterlimit:10;}
	.st17{fill:#F5E959;}
	.st18{fill:#F8F098;}
	.st19{fill:#FAF4B9;}
	.st20{fill:#FFFFFF;}
	.st21{fill:#FAB82E;}
	.st22{fill:#FCCB63;}
	.st23{fill:#FFDD97;}
	.st24{fill:#FFEABF;}
	.st25{fill:none;stroke:#434343;stroke-width:2.6203;stroke-miterlimit:10;}
	.st26{fill:none;stroke:#434343;stroke-width:3.9305;stroke-linecap:round;stroke-miterlimit:10;}
	.st27{fill:#020202;}
	.st28{fill:none;stroke:#434343;stroke-width:2.6203;stroke-linecap:round;stroke-miterlimit:10;}
	.st29{fill:none;stroke:#FFFFFF;stroke-width:4.9375;stroke-linecap:round;stroke-miterlimit:10;}
	.st30{fill:none;stroke:#FFFFFF;stroke-width:5.5058;stroke-linecap:round;stroke-miterlimit:10;}
	.st31{fill:none;stroke:#FFFFFF;stroke-width:5.6615;stroke-linecap:round;stroke-miterlimit:10;}
	.st32{fill:none;stroke:#FFFFFF;stroke-width:4.6998;stroke-linecap:round;stroke-miterlimit:10;}
	.st33{fill:#D6D7D6;stroke:#434343;stroke-width:4.2967;stroke-miterlimit:10;}
	.st34{fill:#CECFCE;}
	.st35{fill:none;stroke:#434343;stroke-width:4.1709;stroke-miterlimit:10;}
	.st36{fill:none;stroke:#E88023;stroke-width:3.9914;stroke-miterlimit:10;}
</style>
<path class="st0" d="M382,158.8L382,158.8c-0.2-0.6-7.3-10.7-20.4-23c-2.9-2.7-5.8-5.3-8.8-7.7c-29.3-24.2-79.1-50.7-143.2-29.7
	c-42,13.8-59.8,57.1-57.9,90.1c3.8,63.7,1.2,20-60,81.1C24.1,337,73.4,450.8,182.4,475c72.1,9.7,102.5,10.2,176.1-19
	c91.1-40.9,100.9-131.5,54.8-243.6C405,192.1,394,174.4,382,158.8z"/>
<path class="st1" d="M307,473.7c-61.3,21.7-134.9-0.5-148.9-5.9C193.3,429.8,273.8,447.5,307,473.7z"/>
<g>
	<path class="st2" d="M175.8,438.1c0.9-2.2,0.8-4.5-0.3-6.7c-10-20.7-21.3-34.5-33.8-41.1c2.2-4,4.9-7.9,8.4-13.1
		c5.3,3.8,10.5,8.1,15.3,12.8c3.3,3.2,8.6,3.6,12.3,0.9l17.1-12.5c2-1.5,3.3-3.7,3.4-6.2c0.2-2.5-0.8-5-2.7-6.8
		c-19.5-18.9-38.3-29.8-54.9-36c0.1,0,0.2,0,0.3-0.1c7.5-1.8,14.2-5.4,19.9-10.6c5.1-4.6,9.2-10.5,12-16.9c4.2,2.5,7,4.5,8.8,6.1
		c-2.7,1.9-6.4,4-9.6,5.4c-4.3,1.9-6.2,6.8-4.2,11.2l7.1,16.1c2,4.5,7.3,6.7,11.9,4.9c9.6-3.9,26.4-12.5,31.6-26.4
		c2.8-7.3,2.1-15-1.9-22.2c-1.3-2.3-2.9-4.6-4.8-6.9c1.8,0.4,3.6,0.3,5.4-0.4l14.9-5.8c2.4-0.9,4.2-2.8,5-5.2
		c0.9-2.5,0.6-5.2-0.7-7.6c-3.1-5.4-7.1-10.7-11.8-15.8c9.2-17.1,3.4-32,0.4-37.7l0,0c-2.2-4.2-5.1-7.9-8.4-11.3
		c6.6,1.9,13.7,2.5,20.7,1.8c5.7-0.6,11.1-2,16-4.2c13.8-6.2,22.6-18.3,24.2-33.2c0.2-2.3-0.5-4.5-2-6.4c-1.6-1.9-3.9-3.2-6.4-3.4
		l-15.4-1.5l0,0c-4.6-0.4-8.6,2.6-9.3,7.2c-0.6,3.9-2.7,6.6-6.6,8.3c-0.4,0.2-0.7,0.3-1.1,0.4c0.6-0.7,1.2-1.5,2-2.3
		c1.5-1.7,2.3-3.8,2.1-6.1c-0.1-2.3-1.2-4.6-3.1-6.2l-6.7-5.9c-2-1.8-4.5-2.5-7-2.3c2.2-2.4,2.8-6,1.4-9.2l-6.2-13.7
		c-2.1-4.6-7.4-6.7-11.9-4.8c-14.4,6.1-23.2,18.5-24.1,33.8c-0.7,12.8,4.1,25.7,12.6,35c-7.5-2.4-15.6-3.1-23.3-1.6
		c-8.5,1.6-36.2,10.3-34.3,54.3c0.1,1.6,0.5,3.1,1.3,4.4c-2.2-0.7-4.3-1.4-6.6-2.1c-2.4-0.8-4.9-0.5-7.1,0.6c-2,1.1-3.5,3-4.1,5.2
		l-4.2,16c-1.2,4.5,1.5,9.3,6.2,10.7c5.5,1.8,10.9,3.6,16,5.5c-0.7,1.9-2,4.3-4.3,6.4c-3.1,2.8-8.8,0.6-19.6-5.1
		c-4.4-2.3-9.8-0.8-12,3.4l-7.8,14.5c-1.1,2-1.3,4.3-0.6,6.5c0.7,2.3,2.3,4.3,4.5,5.4c2.7,1.4,5.4,2.9,8.1,4.3
		c-8.8-0.8-15.9-0.4-20.7-0.2l-0.9,0c-2.7,0.1-5.2,1.4-6.8,3.5c-1.5,2-2,4.5-1.5,6.9l5.3,23.1l1,4.8l4.9-0.7
		c1.1-0.1,1.9-0.5,2.8-0.8c2.2-0.9,7.7-3.3,20.9,0.4c-0.6,0.8-1.1,1.6-1.6,2.3c-2.7,3.9-4.7,6.8-6.8,10.9
		c-17.4-4.2-45.4-2.8-59.7,3.1c-1.7,0.6-4.2,2.3-3.2,7.2l5.7,27.9l7.7,5.3l1.9-0.1c56.9-4.3,68.6,27,70.4,33.3
		c0.7,2.4,2.4,4.5,4.8,5.6c0.1,0,0.1,0.1,0.2,0.1c2.4,1.1,5.2,1.2,7.7,0.3l31-12.1C173.1,442.1,174.9,440.3,175.8,438.1z
		 M193.7,159.5c0.6-10.8,6.4-19.3,16.2-24l4.8,10.6c-5.5,3.5-8.8,9-9.2,15.7l0,0.2c-0.2,3.9,2.3,7.5,6.2,8.8c3.9,1.3,8,0.1,10.2-3.2
		c0.8-1.2,1.8-2.5,2.9-3.8l4.3,3.8c-2.1,2.5-3.6,4.8-4.6,7c-1.3,2.9-0.8,6.1,1.1,8.7c2.1,2.7,5.5,4.1,8.9,3.5
		c2.6-0.4,5.1-1.2,7.4-2.2c6.5-2.9,10.8-7.9,12.3-14.4l12.2,1.2c-1.6,10.3-7.9,18.3-17.7,22.8c-3.9,1.8-8.2,2.9-12.7,3.4
		c-9.3,1-18.7-1-25.8-5.4C199.6,185.6,193,172.4,193.7,159.5z M174.4,202.6c15.8-3,33.5,5.5,41,19.9c2.2,4.3,6.6,15.6-0.8,28.5
		c-2,3.5-1.4,7.9,1.5,10.9c3.9,4.1,7.3,8.4,9.9,12.8l-11.8,4.6c-10.3-16.4-31.3-28.1-43.4-33.8c-0.2-0.1-0.4-0.2-0.6-0.3l-8.2-3.8
		l0.3,3.8l-13.5-0.3C147.6,211.4,166.3,204.2,174.4,202.6z M168,256.1c10.2,4.9,25.5,13.7,34.6,25.3c-11.2-9-27.6-17.5-49.2-25.6
		L168,256.1z M112.1,298.2c10.2,5.4,21.5,10.9,30.4,2.9c4.8-4.4,7-9.6,7.9-13.2c1.1-4.3-1.4-8.9-5.7-10.5c-5.2-2-10.8-3.9-16.5-5.7
		l3.2-12.2c40.9,13.2,67.7,28.3,75.8,42.7c2.5,4.4,2.9,8.8,1.2,13.2c-3.8,10-18.2,17.1-24.4,19.7l-5.7-12.9c4-2,8.9-4.8,12.1-7.6
		c1.8-1.5,2.9-3.7,2.9-6c0.1-2.4-0.9-4.9-2.7-6.7c-3.2-3.2-8-6.6-14.3-10.2c-2.4-1.3-5.2-1.6-7.7-0.7c-2.4,0.9-4.2,2.7-5.1,5
		c-2.1,5.8-5.6,10.9-10,14.9c-4.4,4-9.6,6.7-15.3,8.1c-9,2.2-21.2-4-32.1-9.9L112.1,298.2z M137,444.7c-2.1-6.4-9.2-22.5-29.9-32.2
		c-11.6-5.5-27.5-8.9-49.2-7.6l-1.1-0.8c-0.9-4.4-2.9-14.4-4.1-20.3c12.6-3.7,35.1-5,50-1.1c4.3,1.1,8.7-0.8,10.6-4.5
		c2-4.1,3.8-6.7,6.7-10.9c1-1.4,2.1-3,3.3-4.8c1.5-2.2,1.8-4.9,0.9-7.4c-1-2.7-3.2-4.8-6.1-5.7c-12.8-3.9-20.9-3.4-25.8-2.2
		L89,332.4c15.9-0.7,54.7-1.4,97.3,39l-14.1,10.4c-5.3-5.1-11-9.8-16.8-13.9c-2.1-1.5-4.8-2.1-7.4-1.6c-2.4,0.4-4.5,1.8-5.8,3.7
		l-0.8,1.1c-4.4,6.4-7.6,11.1-10.2,16.4c-1,2-1.2,4.3-0.4,6.4c0.8,2.3,2.5,4.2,4.8,5.3c7.2,3.4,18.1,12.3,29.3,34.7L137,444.7z"/>
	<path class="st2" d="M175.2,234c5.5,2.6,10.9,5.5,15.9,8.5c0.3,0.2,0.6,0.3,0.9,0.5c2.4,1.1,5.2,1.2,7.6,0.2c2.6-1.1,4.4-3.3,5-6
		c0.8-3.6,0.4-7.2-1.2-10.3c-4.1-7.8-14.9-12.8-24-11.1l0,0c-1.8,0.3-3.6,1-5.2,1.8c-2.9,1.6-4.6,4.6-4.5,7.9
		C169.7,229.2,171.9,232.4,175.2,234z M193.9,231.8C193.9,231.8,194,231.8,193.9,231.8c-3.4-1.9-6.9-3.9-10.6-5.7
		C187.5,226.2,192.3,228.7,193.9,231.8z"/>
</g>
<path class="st3" d="M425.8,387.8L425.8,387.8c-4.1-63.9-34-91-66.7-110.7c3.2-36.3-26.4-68.6-26.4-68.6s2.2-5.6,3-10.7
	c0.2-1.5,0.4-3,0.3-4.3l0,0c-0.6-0.1-1.1-0.2-1.7-0.2c0.5-0.1,1.1-0.2,1.6-0.4c-0.1-0.8-0.3-1.5-0.6-2c-2.4-4.5-11.4-16-17.9-18.1
	c-1.4-0.4-3-0.4-4.7,0.1c-2.5,0.7-5.2,2.2-7.9,4.3c-1.2,0.9-2.3,1.9-3.4,3c-3,2.9-5.8,6.3-7.9,9.8c-7.3,12.1,12.7,22.7,24.3,45.4
	c3.9,7.6,1.1,20.8,1.1,20.8c-27.7-8.2-45.6-10.2-52.1-6.5c-14.2,5.7-25.3,26.5-25.9,47.4c-0.6,23.1,26.9,29,37.1,33.2
	c10.2,4.1,8.8,17.6,5.2,25.6c0,0-15,30.6-20.3,33.8c-5.3,3.1-16.8,12.4-20.7,19.8c-3.9,7.3,8.9,30.7,13.2,28.9
	c4.4-1.7,13.1-3.1,16.4-5.1c3.3-2,14,9.5,17.9-1.2c3.9-10.7,2.2-24.9,0.9-29.2c-1.3-4.3,27.1-43.7,27.1-43.7s16.1,11.6,16.9,21.2
	c0.8,9.6-6.1,35.1-15.8,58.3c-9.6,23,24.6,33.7,44,15c11.6-11.2,19.8-63.9,20.2-65.4c0.2,1,2,14.4,3.3,33.4
	c0.7,10.8,19.9,10.7,29.2,4.4C424.4,420.3,426.1,408.4,425.8,387.8z M319.5,196.2C319.5,196.2,319.6,196.1,319.5,196.2L319.5,196.2
	c0.1,0,0.1,0,0.2,0C319.7,196.2,319.6,196.2,319.5,196.2z"/>
<path class="st4" d="M351.1,145.5c0.3-0.3,2.1-0.1,4.1,0.4c-0.6,1.2-1.3,2.3-2.1,3.3C351.4,147.8,350.6,146,351.1,145.5z"/>
<path class="st4" d="M355.2,146c4.1,1.1,9.2,3.4,5.2,4.8c-3,1.1-5.6,0-7.3-1.4C353.9,148.2,354.5,147.1,355.2,146z"/>
<path class="st5" d="M362,143.9c-1.4-3.7-3.2-7.4-3.2-7.4s-4.9,2.6-7.7,5.6c-0.7,0.8-1.3,1.6-1.6,2.3c-0.9,2.1,0.8,4.1,3,5.7
	c1,0.7,2.1,1.4,3.2,2c4.1,2.3,8,1.7,7.7-3.3C363.2,147.5,362.7,145.7,362,143.9z M360.4,150.7c-3,1.1-5.6,0-7.3-1.4
	c-1.7-1.4-2.5-3.3-2-3.8c0.3-0.3,2.1-0.1,4.1,0.4C359.2,147,364.4,149.3,360.4,150.7z"/>
<path class="st6" d="M315.6,126.5c0.6,0.5,0.8,1.7-0.4,2.8c-0.2-0.9-0.4-1.9-0.6-2.8C315.1,126.3,315.5,126.3,315.6,126.5z"/>
<path class="st6" d="M310.5,128c1.7-0.5,3.2-1.3,4.2-1.5c0.2,0.9,0.4,1.9,0.6,2.8c-1.1,1-3.2,1.9-7.2,2.1
	C302.6,131.8,303.7,130.2,310.5,128z"/>
<path class="st7" d="M318,125.7c-0.8-1.3-1.9-3.1-3.3-4.9c-1-1.3-2.1-2.6-3.4-3.8c-1.5-1.4-3.2-2.5-5.1-3l-0.6,1.8
	c-0.7,2.1-1.5,4.3-2,6.5c-0.8,3.1-1.3,6.3-0.9,9.5c0.2,2.1,8.4,1.3,12.9-1.1C317.9,129.4,319.2,127.7,318,125.7z M315.3,129.3
	c-1.1,1-3.2,1.9-7.2,2.1c-5.5,0.4-4.4-1.2,2.4-3.5c1.7-0.5,3.2-1.3,4.2-1.5c0.5-0.1,0.8-0.1,1,0C316.3,127,316.5,128.2,315.3,129.3z
	"/>
<path class="st8" d="M300.8,143.1c-1.7-1.2-4.8-2.9-10-4.2c-1.9-0.5-4.2-0.9-6.7-1.2c0,0-0.2,3.8,0.1,7.8c0.4,5.2,1.8,10.8,5.7,9.2
	c3.1-1.3,5.9-3.4,8-5.5c1.4-1.3,2.5-2.5,3.3-3.4C301.9,145,301.8,143.8,300.8,143.1z"/>
<path class="st8" d="M290.8,118.6c0.1,0,0.1,0,0.1,0.1c1,6.1,1.1,12.8,0.4,20.1c-1.8-0.5-3.9-1-6.3-1.3c0,0-0.1,3.7,0.3,7.7l0,0
	c-42.2,42.3-91.8-21-54.2-54.1c10.9-9.6,23.8-10.9,34.3-7.4c0.3,1.3,0.6,2.6,1,3.9c0.2,0.8,0.5,1.6,0.8,2.5c0.1,0.4,0.2,0.7,0.4,1.1
	c0,0.1,0.1,0.2,0.1,0.2c0.1,0.4,0.3,0.7,0.4,1c0.3,0.7,0.6,1.4,0.9,2.1c0.3,0.7,0.6,1.3,1,2c0.2,0.4,0.4,0.8,0.6,1.2
	c0.3,0.6,0.7,1.2,1,1.9c0.2,0.3,0.4,0.7,0.6,1c0.1,0.2,0.3,0.4,0.4,0.6c0.4,0.7,0.9,1.4,1.4,2.1c0.1,0.1,0.2,0.3,0.3,0.4
	c0.3,0.4,0.6,0.8,0.9,1.2c0.3,0.4,0.7,0.9,1,1.3c0.3,0.4,0.7,0.8,1,1.3c0.3,0.4,0.7,0.8,1.1,1.2c1.1,1.2,2.2,2.4,3.4,3.4
	c0.4,0.4,0.8,0.7,1.2,1.1c0,0,0.1,0.1,0.1,0.1c0.6,0.5,1.2,1,1.9,1.5c0.2,0.2,0.4,0.3,0.6,0.4c0.4,0.3,0.7,0.5,1.1,0.8
	c0.9,0.6,1.8,1.2,2.8,1.8C289.9,118.1,290.3,118.3,290.8,118.6z"/>
<path class="st9" d="M276.1,101.6c-7.2-9.7-18.4-9.5-21-9.1"/>
<path class="st9" d="M245.8,94.5c-3,1-1.5,2-1.5,2"/>
<path class="st10" d="M381.5,74.3c-7.9-2.3-15-2.1-21.2,0.1c-3.8,1.3-7.2,3.4-10.1,6c-0.1,0.5-0.2,0.9-0.3,1.4
	c-1.3,5.9-4.1,11.9-8.5,17.6c-0.2,0.3-0.5,0.6-0.7,1c-0.2,0.3-0.5,0.6-0.8,1c-0.3,0.4-0.6,0.7-0.9,1.1c-1.8,12.1,1.5,26.3,11.5,39.6
	l0.6,0.1c2.8-3,7.7-5.6,7.7-5.6s1.9,3.7,3.2,7.4l0.7,0.1c27.1,0.4,41.4-16.1,43.2-33.4C407.6,95.4,399.3,79.5,381.5,74.3z"/>
<path class="st11" d="M302.4,27.8c-22,2.8-33.9,13-38.6,25.7c-2.9,7.9-3.1,16.7-1.1,25.3c0,0,0,0,0,0c0.3,1.5,0.7,2.9,1.1,4.4
	c0.3,0.9,0.6,1.8,0.9,2.7c0.1,0.4,0.3,0.8,0.4,1.2c0,0.1,0.1,0.2,0.1,0.3c0.1,0.4,0.3,0.8,0.5,1.1c0.3,0.8,0.6,1.5,1,2.3
	c0.4,0.8,0.7,1.5,1.1,2.3c0.2,0.5,0.5,0.9,0.7,1.4c0.4,0.7,0.7,1.4,1.1,2.1c0.2,0.4,0.5,0.8,0.7,1.1c0.1,0.2,0.3,0.5,0.4,0.7
	c0.5,0.8,1,1.6,1.5,2.3c0.1,0.1,0.2,0.3,0.3,0.5c0.3,0.5,0.6,0.9,1,1.3c0.4,0.5,0.7,1,1.1,1.5c0.4,0.5,0.8,1,1.1,1.4
	c0.4,0.5,0.8,0.9,1.2,1.4c1.2,1.4,2.4,2.6,3.7,3.8c0.4,0.4,0.9,0.8,1.3,1.2c0,0,0.1,0.1,0.1,0.1c0.7,0.6,1.3,1.1,2,1.7
	c0.2,0.2,0.4,0.3,0.6,0.5c0.4,0.3,0.8,0.6,1.2,0.9c1,0.7,2,1.4,3,2c0.5,0.3,1,0.6,1.5,0.8c0.1,0,0.1,0.1,0.2,0.1
	c3.9,2.1,8,3.6,12.3,4.2l0.6,0.2c0.5-2.4,1.2-4.7,1.8-7.1l0.6-1.9c1.9,0.6,3.7,1.9,5.2,3.4c1.3,1.3,2.5,2.8,3.6,4.3l0.1-0.1
	c10.4-5.7,18.3-12.3,23.8-19.3c0.3-0.4,0.6-0.8,0.9-1.2c0.3-0.3,0.5-0.7,0.7-1c0.3-0.3,0.5-0.7,0.7-1c4.3-6.2,6.9-12.7,8.1-19.1
	c0.1-0.5,0.2-1,0.3-1.5c0.6-4,0.7-7.9,0.2-11.8C347,43,327.4,24.6,302.4,27.8z"/>
<path class="st12" d="M364.7,169.9c-3,0.2-4.9-0.1-4.9-0.1c1.2-1.5,2.6-3,3.9-4.2c-0.7-2.9-1.1-5.1-1.1-5.1c1.4,1,2.6,1.9,3.7,2.8
	c2-1.7,3.4-2.8,3.4-2.8c0.3,2.1,0.2,3.9-0.1,5.5c2,1.7,2.9,2.6,2.9,2.6c-1.4,0.4-2.7,0.7-3.9,0.9c-1.2,3.1-2.8,4.7-2.8,4.7
	C365.5,172.8,365.1,171.4,364.7,169.9z"/>
<path class="st13" d="M405,248.5c-0.3-1.8-0.5-3.7-0.8-5.5c-0.3-1.9-0.6-3.7-0.9-5.5c0,0-4.1,1.8-8.1,6.5c-0.5,0.6-1,1.2-1.5,1.9
	c-1.6-0.3-3.2-0.5-4.9-0.8c-2.1-0.3-4.2-0.5-6.4-0.7c0,0,0.5,0.6,1.4,1.8c1.2,1.5,3.2,3.9,6.1,7.2c-1.3,3.6-2,7.9-2,13
	c0,0,4.5-1.2,10.6-3.5c2.8,3,6,6.3,9.6,9.9c0,0-0.6-5.6-1.5-13.1c4.2-1.8,8.5-3.9,12.5-6.3C419,253.4,413.7,250.9,405,248.5z"/>
<path class="st14" d="M281.2,222.1c1.5-0.7,2.9-1.4,4.4-2.2c1.5-0.7,2.9-1.5,4.3-2.2c0,0-3.9-2.5-10.3-4c-0.8-0.2-1.6-0.4-2.5-0.5
	c-0.6-1.2-1.3-2.5-2.1-3.8c-0.9-1.6-1.9-3.2-3-4.9c0,0-0.3,0.5-0.8,1.6c-0.6,1.3-1.6,3.5-2.8,6.4c-3.8,0.1-8,0.8-12.4,2.3
	c0,0,3.6,2.9,9,6.7c-1,2.9-2.1,6.1-3.3,9.8c0,0,4.6-2,10.6-4.8c3.9,2.5,8.2,5.1,12.6,7.3C284.8,233.7,284,229.1,281.2,222.1z"/>
<path class="st15" d="M344.2,195.5c1.9,0.5,3.7,1.4,5.4,2.9c-2,0.5-4,0.9-6,1.1C344,198,344.2,196.6,344.2,195.5z"/>
<path class="st15" d="M362.1,194.3c-4,1.4-8.2,3-12.4,4c-1.7-1.4-3.5-2.3-5.4-2.9l0,0c0-0.2,0-0.4,0-0.5
	C350.1,194.3,356.5,193.8,362.1,194.3z"/>
<path class="st16" d="M295.1,146.3c5.3-3,5-2.8,4-0.3c-0.4,1.4-3,2.6-6.3,4.7C288.3,153.6,289,149.8,295.1,146.3z"/>
<g>
	<path class="st17" d="M174.5,386.7l17.1-12.5c1.6-1.2,1.7-3.4,0.2-4.9c-47.1-45.8-90.3-42.8-105.2-42.1c-2.3,0.1-3.8,1.9-3.4,3.9
		l5.3,23.1c0,0,0.1,0,0.1,0c1.7-0.2,8.1-5.7,28,0.4c2.4,0.7,3.5,3.2,2.3,5.1c-5,7.3-7.4,10.4-10.4,16.3c-0.7,1.5-2.6,2.2-4.5,1.7
		c-17.2-4.5-44.8-2.6-57.5,2.7c0,0,0,0,0,0l5.5,27c1.7,1.2,2.7,1.8,4.4,3c56.5-4.2,72.5,25.2,75.9,37.2c0.6,2.2,3.3,3.4,5.6,2.5
		l31-12.1c1.8-0.7,2.6-2.6,1.8-4.3c-4.3-8.9-15.7-31.2-32.9-39.4c-1.9-0.9-2.7-2.9-1.9-4.5c2.7-5.3,6-10.1,10.6-16.9
		c1.2-1.7,3.8-2.1,5.7-0.7c5.6,3.9,11.2,8.5,16.8,13.9C170.6,387.7,173,387.8,174.5,386.7z"/>
	<path class="st18" d="M126.8,255.9l-4.2,16c-0.5,1.8,0.7,3.7,2.7,4.3c6.3,2,12.2,4,17.6,6.1c1.8,0.7,2.9,2.5,2.4,4.2
		c-0.9,3.5-2.9,7.5-6.4,10.6c-6.2,5.6-15.1,1.3-25.7-4.4c-1.8-1-4-0.4-4.8,1.2l-7.8,14.5c-0.9,1.6-0.1,3.7,1.7,4.7
		c13.2,7,26.3,13.8,37.3,11.1c6.5-1.6,12.5-4.7,17.6-9.4c5.2-4.7,9.1-10.7,11.4-17c0.7-2,3.1-2.7,5.2-1.6c6,3.4,10.4,6.6,13.2,9.4
		c1.5,1.4,1.5,3.6,0,4.8c-3.2,2.7-8.7,5.9-12.9,7.7c-1.6,0.7-2.3,2.5-1.5,4.2l7.1,16.1c0.8,1.9,3.1,2.8,5,2.1
		c7.5-3,24-11.1,28.7-23.3c2.2-5.8,1.7-11.9-1.5-17.7c-11.2-20.1-49.3-35.8-80.6-45.8C129.3,253.2,127.3,254.1,126.8,255.9z"/>
	<path class="st19" d="M220.1,220.1c-8.6-16.4-28.6-26.1-46.7-22.7c-7.6,1.5-31.7,9.2-30,48.9c0.1,2.2,2,4,4.2,4.1l20.3,0.4
		c0-0.2,0-0.4,0-0.6c14.4,6.7,33.2,18,42.1,32.6c1.1,1.8,3.3,2.7,5.1,2l14.9-5.8c2-0.8,2.8-3.2,1.6-5.2c-3.2-5.6-7.2-10.7-11.7-15.4
		c-1.2-1.3-1.5-3.2-0.7-4.6C228,238.4,222.6,224.9,220.1,220.1z M180.3,221c6.8-1.3,15.3,2.6,18.3,8.3c1.1,2,1.3,4.3,0.8,6.6
		c-0.5,2.4-3.3,3.3-5.6,2c-5.8-3.5-11.4-6.4-16.3-8.8c-3-1.4-3.5-5.4-0.8-6.9C177.8,221.7,179,221.3,180.3,221z"/>
	<path class="st20" d="M253.1,164.8c-1.8-0.2-3.3,1-3.6,2.7c-0.9,5.7-4.1,9.9-9.7,12.4c-2,0.9-4,1.5-6,1.8c-2.9,0.5-5.4-2.4-4.3-4.8
		c0.9-2,2.4-4.3,5.1-7.2c1.2-1.3,1-3.4-0.5-4.7l-6.7-5.9c-1.5-1.4-3.9-1.4-5.2,0c-1.8,2-3.4,3.9-4.6,5.6c-1.9,2.8-6.9,1.1-6.7-2.4
		c0,0,0-0.1,0-0.1c0.2-4.1,1.9-9.3,8.1-12.4c1.5-0.8,2.1-2.5,1.4-4.1l-6.2-13.7c-0.8-1.9-3.1-2.8-5-2.1
		c-12.5,5.3-20.1,15.8-20.8,29.2c-0.9,14.9,6.8,30,19,37.6c8.3,5.1,18.9,7.2,29.2,6.2c5-0.5,9.9-1.8,14.3-3.8
		c12.2-5.5,19.7-15.9,21.1-28.8c0.2-1.9-1.5-3.7-3.6-3.9L253.1,164.8z"/>
</g>
<g>
	<path class="st21" d="M172.7,378.7c-5.6-5.4-11.2-10-16.8-13.9c-1.9-1.3-5.9-1.5-7.1,0.2c-4.6,6.8-8,11.6-10.6,16.9
		c-0.3,0.6,1,1.6,1.1,2.2c2-3.3,4.4-6.8,7.4-11c1.2-1.7,3.8-2.1,5.7-0.7c5.6,3.9,11.2,8.5,16.8,13.9c1.5,1.4,3.9,1.6,5.4,0.5
		l17.1-12.5c1.6-1.2,1.7-3.4,0.2-4.9c0,0-0.1-0.1-0.1-0.1l-13.6,10C176.5,380.3,174.1,380.1,172.7,378.7z"/>
	<path class="st21" d="M88.5,354.2C88.5,354.2,88.5,354.2,88.5,354.2c1.8-0.2,8.2-5.7,28.1,0.4c1.3,0.4,3.1,5.2,3.5,6.2
		c1-1.4,2-3,3.3-4.8c1.2-1.8,2-7.4-3.2-9c-19.9-6-26.3-0.6-28-0.4c0,0-0.1,0-0.1,0l-4.4-19.5c-0.4,0-0.7,0-1,0
		c-2.3,0.1-3.8,1.9-3.4,3.9L88.5,354.2z"/>
	<path class="st21" d="M170.7,433.7c-0.3-0.7-0.7-1.4-1.1-2.2l-28.2,11c-2.2,0.9-5-0.4-5.6-2.5c-3.4-12-19.4-41.4-75.9-37.2
		c-1.7-1.2-2.7-1.8-4.4-3l-4.3-21.1c-1.7,0.5-3.3,1.1-4.8,1.6c0,0,0,0,0,0l5.5,27c1.7,1.2,2.7,1.8,4.4,3
		c56.5-4.2,72.5,25.2,75.9,37.2c0.6,2.2,3.3,3.4,5.6,2.5l31-12.1C170.7,437.3,171.5,435.4,170.7,433.7z"/>
</g>
<g>
	<path class="st22" d="M122.6,271.9c-0.5,1.8,0.7,3.7,2.7,4.3c6.3,2,12.2,4,17.6,6.1c1.8,0.7,3.7,6.3,3.3,8c1.8-2.4,2.9-6,2.7-11.3
		c-0.1-1.7-0.6-3.5-2.4-4.2c-5.4-2-11.3-4.1-17.6-6.1c-1.9-0.6-3.1-2.5-2.7-4.3l2.8-10.6c-1,0.3-1.8,1.1-2.1,2.1L122.6,271.9z"/>
	<path class="st22" d="M214.1,314.8c-6.6,9.4-19.5,15.6-25.8,18.2c-1.9,0.8-4.2-0.2-5-2.1l-6.2-14.1c-1,0.5-2,1-2.9,1.4
		c-1.6,0.7-2.3,2.5-1.5,4.2l7.1,16.1c0.8,1.9,3.1,2.8,5,2.1c7.5-3,24-11.1,28.7-23.3C213.7,316.4,213.9,315.6,214.1,314.8z"/>
	<path class="st22" d="M190.5,298.1c-2.7-2.8-7.2-5.9-13.2-9.4c-2-1.1-6.5-1.2-7.2,0.8c-2.3,6.3-4.1,13-9.3,17.8
		c-5.1,4.7-11.1,7.8-17.6,9.4c-11,2.7-24.1-4.1-37.3-11.1c-1.3-0.7-2-1.9-2-3.1l-3.2,6c-0.9,1.6-0.1,3.7,1.7,4.7
		c13.2,7,26.3,13.8,37.3,11.1c6.5-1.6,12.5-4.7,17.6-9.4c5.2-4.7,9.1-10.7,11.4-17c0.7-2,3.1-2.7,5.2-1.6c6,3.4,12.4,12.3,15.1,15.1
		C190.3,310.5,195.8,303.6,190.5,298.1z"/>
</g>
<g>
	<path class="st23" d="M231.6,273.8c-0.3-0.4-0.5-0.9-0.8-1.3l-12.1,4.7c-1.8,0.7-4-0.2-5.1-2c-8.4-13.9-29-28.8-43.1-35.6
		c-0.7-0.3,1.7,3.3,1,3c0,0.2,0,0.4,0,0.6l-20.3-0.4c-2.2,0-4.1-1.9-4.2-4.1c-0.4-10.3,0.9-18.5,3.2-25c-4.4,7.2-7.4,17.6-6.8,32.5
		c0.1,2.2,2,4,4.2,4.1l20.3,0.4c0-0.2,0-0.4,0-0.6c14.4,6.7,33.2,18,42.1,32.6c1.1,1.8,3.3,2.7,5.1,2l14.9-5.8
		C232,278.2,232.7,275.8,231.6,273.8z"/>
	<path class="st23" d="M202.2,221.8c-2.8-5.8-11.5-9.6-18.3-8.3c-1.3,0.2-2.6,0.6-3.6,1.3c-8.6,5.7-5.3,9.9-5.2,9.8
		c10.2-8,20.7-1,23.6,4.7c0.3,0.5-0.2,7.9,0,8.5C200.4,237.9,208.1,233.6,202.2,221.8z"/>
</g>
<g>
	<path class="st21" d="M232.9,171.5c0.5-0.6,1-1.2,1.6-1.9c0.9-1,1-2.4,0.4-3.6c-0.8,1.2-1.5,2.3-1.9,3.3
		C232.7,170,232.7,170.8,232.9,171.5z"/>
	<path class="st24" d="M211.7,165.4c-3.3-8.7,5.4-14.7,7.3-15.6c1.5-0.8,2.1-2.5,1.4-4.1l-0.7-1.6
		C203.1,147.8,206.1,161.6,211.7,165.4z"/>
	<path class="st24" d="M230.7,180.9c-3.3-8.7,2-8.9,3.9-9.8c1.5-0.8,2.1-2.5,1.4-4.1l-0.7-1.6C221.8,172.7,227.6,182.3,230.7,180.9z
		"/>
	<path class="st24" d="M254.5,191.5c-4.5,2-9.4,3.3-14.3,3.8c-10.3,1.1-20.9-1-29.2-6.2c-12.2-7.6-19.9-22.7-19-37.6
		c0.2-3.1,0.7-6.1,1.6-8.8c-3,4.7-4.8,10.2-5.2,16.4c-0.9,14.9,6.8,30,19,37.6c8.3,5.1,18.9,7.2,29.2,6.2c5-0.5,9.9-1.8,14.3-3.8
		c9.6-4.3,16.3-11.7,19.4-21C266.7,183.9,261.4,188.5,254.5,191.5z"/>
	<path class="st21" d="M249.4,168c0.8-0.9,1.4-1.8,2-2.9c-1,0.4-1.7,1.3-1.9,2.4C249.5,167.7,249.4,167.8,249.4,168z"/>
</g>
<path class="st25" d="M328.2,196.3C328.2,196.3,328.2,196.2,328.2,196.3L328.2,196.3c0.1,0,0.1,0,0.2,0
	C328.3,196.3,328.2,196.3,328.2,196.3z"/>
<path class="st26" d="M328.2,196.2C328.2,196.2,328.2,196.3,328.2,196.2c-1.4,2.5-2.5,5.1-2.2,7.9"/>
<path class="st26" d="M310.2,193.6c2.4-3.3,4.8-6.3,7.3-8.5c4.3-3.7,8.8-5,14-1c3.5,2.8,0.1,6.5-2.7,11.1"/>
<path class="st27" d="M314.6,268.6c8,13.6-12,35.3-17.3,37.3c-5.3,2-23.8,1-35.5-10.4c-9.9-9.6,2.5-33.3,10.9-37.9
	C281,253.1,306.6,255,314.6,268.6z"/>
<path class="st28" d="M328.2,196.3C328.3,196.3,328,196.3,328.2,196.3c0.1,0,7.3-0.1,7.3-0.1c3.3,0.1,1.4-0.5,7.1-1.1
	c0.5-0.1,1.1-0.1,1.6-0.2c5.9-0.6,12.3-1.1,17.9-0.6c7.1,0.6,12.9,2.8,14.5,8.4c4.3,14.9,17.6,13,17.6,13"/>
<path class="st28" d="M332.2,196.6c4.8-0.3,10-2,14.3-1.2c0.5,0.1,1.1,0.2,1.6,0.4l0,0c1.9,0.5,3.7,1.4,5.4,2.9
	c2.9,2.4,5.5,6.4,7.6,12.8c6.7,19.9,13.9,10.7,13.9,10.7"/>
<path class="st28" d="M327.9,196.1c0.1,0.1,0.2,0.1,0.2,0.1l0,0c0,0,0.1,0.1,0.1,0.1c5.2,2.9,10.3,3.6,15.4,3.1c2-0.2,4-0.6,6-1.1
	c4.2-1,8.4-2.6,12.4-4c5.7-2,11.2-3.8,16.4-3.5c15,1,21.4,18.2,21.4,18.2"/>
<path class="st28" d="M313.9,188.9c0,0,0.9-6.9,1.5-11.4c1.4-10.6,3.1-41.1-9.2-63.4"/>
<path class="st28" d="M358.8,136.5c-0.3,1.1-1.9,5.5-2.3,6.5c-0.4,1-0.8,2-1.3,3c-0.6,1.2-1.3,2.3-2.1,3.3c-0.2,0.3-0.4,0.6-0.6,0.8
	c-7.6,9.8-21.1,15.6-29.3,24.1c-2.9,3-8.1,9.8-9.2,13.8"/>
<path class="st28" d="M284.1,137.7c1.4,0.5,9,6.6,11,8.5c1,0.9,1.9,1.9,2.8,2.9c8.2,9.5,12.2,23,13.9,30.6c0.8,3.6,2,9,2,9"/>
<path class="st29" d="M298.5,268.1c-6.3-3.1-12.3-2.2-12.3-2.2"/>
<path class="st30" d="M305.8,273.1C305.6,273,306.4,273.6,305.8,273.1"/>
<path class="st31" d="M300.1,35.4c-1,0.3-2,0.7-3,1.1"/>
<path class="st31" d="M339.4,53.1c-6.1-10.4-16.1-16.7-26-18.4"/>
<path class="st32" d="M377.3,79.6c7.6,0.5,13.2,6.5,13.2,6.5"/>
<path class="st33" d="M362,278.8c-26.7-14-33.1-20.1-47.3-23.9"/>
<path class="st34" d="M363.1,453.8c11.6-11.2,19.8-63.9,20.2-65.4c0.2,1,2,14.4,3.3,33.4c0.7,10.8,19.9,10.7,29.2,4.4
	c8.6-5.9,10.3-17.8,10.1-38.4l0,0c-0.9-13.4-2.9-25.4-5.9-36.3c-4.4,21.1-13.8,40.5-22.6,41.1c-7.7,0.5-8.2-13.2-10.6-17.8
	c-2.4-4.6-6.7-0.3-10.9,12.8c-2.7,8.3-15.7,49.4-20.8,53.6c-10.9,9-25.9,1.3-22.8-8.2c4.5-13.9,30-66,18.1-75.1
	c-5.2-4-20.8-18.6-25.8-20.4c-6.1-2.2-7.1,3.4-17,16.2c-18.1,23.5-22.9,42.7-24.3,63.7c-1.4,21-9.3,7.2-12.5,5.5
	c-3.3-1.7-1.9-0.7-9.6,2.5c-7.8,3.2-11.8-6.7-10.8-14.8c1-8.1,7.1-4.4,23.2-23.6c16.1-19.2,27.3-55.6,20.5-61.1
	c-6.8-5.4-48.3-5.4-44.7-33.5c3.7-29.2,13.8-37.1,24.8-44.3c-3.1,0.2-5.5,0.8-7.1,1.7c-14.2,5.7-25.3,26.5-25.9,47.4
	c-0.6,23.1,26.9,29,37.1,33.2c10.2,4.1,8.8,17.6,5.2,25.6c0,0-15,30.6-20.3,33.8c-5.3,3.1-16.8,12.4-20.7,19.8
	c-3.9,7.3,8.9,30.7,13.2,28.9c4.4-1.7,13.1-3.1,16.4-5.1c3.3-2,14,9.5,17.9-1.2c3.9-10.7,2.2-24.9,0.9-29.2
	c-1.3-4.3,27.1-43.7,27.1-43.7s16.1,11.6,16.9,21.2c0.8,9.6-6.1,35.1-15.8,58.3C309.5,461.8,343.7,472.5,363.1,453.8z"/>
<path class="st35" d="M425.8,387.8L425.8,387.8c-4.1-63.9-34-91-66.7-110.7c3.2-36.3-26.4-68.6-26.4-68.6s2.2-5.6,3-10.7
	c0.2-1.5,0.4-3,0.3-4.3l0,0c-0.6-0.1-1.1-0.2-1.7-0.2c0.5-0.1,1.1-0.2,1.6-0.4c-0.1-0.8-0.4-1.4-0.6-2c-2.2-6.3-11.4-16-17.9-18.1
	c-1.4-0.4-3-0.4-4.7,0.1c-2.5,0.7-5.2,2.2-7.9,4.3c-1.2,0.9-2.3,1.9-3.4,3c-3,2.9-5.8,6.3-7.9,9.8c-7.3,12.1,12.7,22.7,24.3,45.4
	c3.9,7.6,1.1,20.8,1.1,20.8c-27.7-8.2-45.6-10.2-52.1-6.5c-14.2,5.7-25.3,26.5-25.9,47.4c-0.6,23.1,26.9,29,37.1,33.2
	c10.2,4.1,8.8,17.6,5.2,25.6c0,0-15,30.6-20.3,33.8c-5.3,3.1-16.8,12.4-20.7,19.8c-3.9,7.3,8.9,30.7,13.2,28.9
	c4.4-1.7,13.1-3.1,16.4-5.1c3.3-2,14,9.5,17.9-1.2c3.9-10.7,2.2-24.9,0.9-29.2c-1.3-4.3,27.1-43.7,27.1-43.7s16.1,11.6,16.9,21.2
	c0.8,9.6-6.1,35.1-15.8,58.3c-9.6,23,24.6,33.7,44,15c11.6-11.2,19.8-63.9,20.2-65.4c0.2,1,2,14.4,3.3,33.4
	c0.7,10.8,19.9,10.7,29.2,4.4C424.4,420.3,426.1,408.4,425.8,387.8z"/>
<g>
	<path class="st36" d="M174.5,386.7l17.1-12.5c1.6-1.2,1.7-3.4,0.2-4.9c-47.1-45.8-90.3-42.8-105.2-42.1c-2.3,0.1-3.8,1.9-3.4,3.9
		l5.3,23.1c0,0,0.1,0,0.1,0c1.7-0.2,8.1-5.7,28,0.4c2.4,0.7,3.5,3.2,2.3,5.1c-5,7.3-7.4,10.4-10.4,16.3c-0.7,1.5-2.6,2.2-4.5,1.7
		c-17.2-4.5-44.8-2.6-57.5,2.7c0,0,5.5,27,5.5,27c1.7,1.2,2.7,1.8,4.4,3c56.5-4.2,72.5,25.2,75.9,37.2c0.6,2.2,3.3,3.4,5.6,2.5
		l31-12.1c1.8-0.7,2.6-2.6,1.8-4.3c-4.3-8.9-15.7-31.2-32.9-39.4c-1.9-0.9-2.7-2.9-1.9-4.5c2.7-5.3,6-10.1,10.6-16.9
		c1.2-1.7,3.8-2.1,5.7-0.7c5.6,3.9,11.2,8.5,16.8,13.9C170.6,387.7,173,387.8,174.5,386.7z"/>
	<path class="st36" d="M126.8,255.9l-4.2,16c-0.5,1.8,0.7,3.7,2.7,4.3c6.3,2,12.2,4,17.6,6.1c1.8,0.7,2.9,2.5,2.4,4.2
		c-0.9,3.5-2.9,7.5-6.4,10.6c-6.2,5.6-15.1,1.3-25.7-4.4c-1.8-1-4-0.4-4.8,1.2l-7.8,14.5c-0.9,1.6-0.1,3.7,1.7,4.7
		c13.2,7,26.3,13.8,37.3,11.1c6.5-1.6,12.5-4.7,17.6-9.4c5.2-4.7,9.1-10.7,11.4-17c0.7-2,3.1-2.7,5.2-1.6c6,3.4,10.4,6.6,13.2,9.4
		c1.5,1.4,1.5,3.6,0,4.8c-3.2,2.7-8.7,5.9-12.9,7.7c-1.6,0.7-2.3,2.5-1.5,4.2l7.1,16.1c0.8,1.9,3.1,2.8,5,2.1
		c7.5-3,24-11.1,28.7-23.3c2.2-5.8,1.7-11.9-1.5-17.7c-11.2-20.1-49.3-35.8-80.6-45.8C129.3,253.2,127.3,254.1,126.8,255.9z"/>
	<path class="st36" d="M220.1,220.1c-8.6-16.4-28.6-26.1-46.7-22.7c-7.6,1.5-31.7,9.2-30,48.9c0.1,2.2,2,4,4.2,4.1l20.3,0.4
		c0-0.2,0-0.4,0-0.6c14.4,6.7,33.2,18,42.1,32.6c1.1,1.8,3.3,2.7,5.1,2l14.9-5.8c2-0.8,2.8-3.2,1.6-5.2c-3.2-5.6-7.2-10.7-11.7-15.4
		c-1.2-1.3-1.5-3.2-0.7-4.6C228,238.4,222.6,224.9,220.1,220.1z M180.3,221c6.8-1.3,15.3,2.6,18.3,8.3c1.1,2,1.3,4.3,0.8,6.6
		c-0.5,2.4-3.3,3.3-5.6,2c-5.8-3.5-11.4-6.4-16.3-8.8c-3-1.4-3.5-5.4-0.8-6.9C177.8,221.7,179,221.3,180.3,221z"/>
	<path class="st36" d="M253.1,164.8c-1.8-0.2-3.3,1-3.6,2.7c-0.9,5.7-4.1,9.9-9.7,12.4c-2,0.9-4,1.5-6,1.8c-2.9,0.5-5.4-2.4-4.3-4.8
		c0.9-2,2.4-4.3,5.1-7.2c1.2-1.3,1-3.4-0.5-4.7l-6.7-5.9c-1.5-1.4-3.9-1.4-5.2,0c-1.8,2-3.4,3.9-4.6,5.6c-1.9,2.8-6.9,1.1-6.7-2.4
		c0,0,0-0.1,0-0.1c0.2-4.1,1.9-9.3,8.1-12.4c1.5-0.8,2.1-2.5,1.4-4.1l-6.2-13.7c-0.8-1.9-3.1-2.8-5-2.1
		c-12.5,5.3-20.1,15.8-20.8,29.2c-0.9,14.9,6.8,30,19,37.6c8.3,5.1,18.9,7.2,29.2,6.2c5-0.5,9.9-1.8,14.3-3.8
		c12.2-5.5,19.7-15.9,21.1-28.8c0.2-1.9-1.5-3.7-3.6-3.9L253.1,164.8z"/>
</g>
<path class="st20" d="M234.6,360.2c-15.3,2-21.9-8.2-12.6-12.7c9.3-4.5,0.3-11,16.9-6.6c16.6,4.5,21.5,12.8,8.5,16.3
	C234.5,360.6,234.6,360.2,234.6,360.2z"/>
<path class="st20" d="M201.8,413.8c-13.5,5.2-23.7,0.3-11.5-6.5c12.2-6.9,27.6-0.1,23,4.4C208.6,416.1,201.8,413.8,201.8,413.8z"/>
</svg>
