<?xml version="1.0" encoding="utf-8"?>
<!-- Generator: Adobe Illustrator 25.4.1, SVG Export Plug-In . SVG Version: 6.00 Build 0)  -->
<svg version="1.1" xmlns="http://www.w3.org/2000/svg" xmlns:xlink="http://www.w3.org/1999/xlink" x="0px" y="0px"
	 viewBox="0 0 512 512" style="enable-background:new 0 0 512 512;" xml:space="preserve">
<style type="text/css">
	.st0{fill:none;stroke:#FFFFFF;stroke-width:0.7122;stroke-linecap:round;stroke-linejoin:round;stroke-miterlimit:10;}
	.st1{fill:#FFFFFF;stroke:#C4C4C4;stroke-miterlimit:10;}
	.st2{fill:#FFFFFF;}
	.st3{fill:#040404;stroke:#000000;stroke-miterlimit:10;}
</style>
<g id="safe">
</g>
<g id="Layer_1">
	<path class="st1" d="M492.1,417.9c-1.3-15.9-11.2-24.7-27.8-24.8l-1.2,0c-2.6,0-5.2,0-7.7,0.1c0.5-0.9,1.4-1,2-1
		c7-0.5,12.8-3.5,16.4-8.5c3.7-5.2,4.7-12.1,2.7-19.1c-3.1-11.2-9.8-12.8-13.5-12.8c-0.5,0-1,0-1.4,0.1c-0.6-0.1-1.3-0.1-2.1-0.1
		c-4.4,0-8.5,1.3-12.1,3.6c-0.2-2.4-0.4-4.6-0.6-6.9c-0.2-1.5-0.3-3-0.5-4.4l12.8,2.5l-0.1,0.2c0.4-0.8,1.2-1.8,1.7-2.2
		c0,0,0.1,0,0.1,0c1.6,0.5,3.2,0.7,4.9,0.7c7.8,0,15.1-5.1,19.3-13.4c4.2-8.3,3.8-17.4-0.9-23.7c-3.4-4.6-8.9-7.2-15.1-7.2
		c-6.5,0-12.9,2.8-17.9,8c-2.9,3-6.2,7.5-8.4,14.2c-2.1-8.8-4.9-16.6-8.3-23.5c-4.3-8.6-10-16.5-16.6-22.6
		c-6.2-5.8-13.8-10.9-22.6-15.1c-8.3-4-16.6-6.8-23-8.8c-8.1-2.5-16.3-4.3-24.2-5.3c-7.3-1-15-1.5-22.8-1.5
		c-8.1,0-16.7,0.5-25.5,1.6C285,249.8,270,253.1,254,258c-6.2,1.9-12.5,4.1-18.8,6.5c0.3-2.1,0.6-4.1,0.8-6
		c0.6-6.2,0.3-12.3-0.8-18.1c-1-5.4-2.7-10.3-4.1-14.6l-0.4-1c-0.8-2.3-1.5-4.4-2.1-6.2c-0.3-1-0.6-1.9-0.8-2.9l-1-3.5
		c-0.5-1.9-1.1-3.7-1.7-5.4c-0.2-0.6-0.4-1.3-0.7-1.9l-0.1-0.3c0,0-0.5-1.3-0.7-1.9c-0.7-1.8-1.4-3.6-2.3-5.5
		c-0.9-2-1.8-3.9-2.7-5.8l-0.7-1.3c0,0-0.7-1.3-0.8-1.4c0.8-0.9,1.6-1.7,2.5-2.6c1.7-1.7,3.4-3.5,5-5.2c2.4-2.5,4.6-4.9,7-7.1
		c8-7.2,17.2-16,25.6-26.2c4.8-5.8,8.3-10.8,11.2-15.7c4-6.7,6.7-13.1,8.1-19.4c0.9-3.9,1.4-7.8,1.4-11.6c0-1.6-0.1-3-0.2-4.2
		l-0.1-1.2l-0.1-0.6c-0.2-1.4-0.3-3-0.6-4.7c-1.1-6.6-3.1-13.3-6.1-19.8c-2.7-6-6.3-11.8-10.6-17.4c-2-2.6-4.2-5.2-6.6-7.7
		c-1.3-1.3-2.5-2.5-3.6-3.6c-1-1-2.2-2-3.7-3.2c-0.9-0.8-1.6-1.4-2.5-2.1c-0.9-0.7-1.8-1.3-2.6-1.9c-1.7-1.2-3.4-2.3-5.3-3.4
		c-3.5-2.1-7.3-3.9-11.3-5.5c-8-3.1-16.3-4.8-24.6-5.2c-1.2-0.1-2.4-0.1-3.6-0.1c-7.1,0-14.2,0.9-21.2,2.8c-7.5,2-15.1,5-22.4,9
		c-12.4,6.8-24.2,16-36.1,28.2c-4.9,5.1-9.8,10.7-14.6,16.6c-1.4,1.7-2.5,3.1-3.4,4.4L98,82.1c-0.9,1.2-1.8,2.3-2.6,3.5
		c-0.3,0.5-0.7,1-1.1,1.4c-0.7,1-1.5,2-2.1,2.9l-2.7,3.8l-3.7,4.5l-1.4,1.8l-2.6,3.4l-2.6,3.5c-1.3,1.7-2.5,3.4-3.6,5
		c-0.5,0.7-1,1.4-1.5,2.1l-0.1,0.1c0,0-1,1.4-1.4,2.1c-1.2,1.7-2.3,3.5-3.5,5.3c-3.2,4.9-6.3,9.9-9.1,14.9c-1.4,2.5-2.9,5-4.3,7.7
		c-1.1,2-2.3,4.4-3.6,7l-0.4,0.7c-0.3,0.4-0.5,0.9-0.8,1.3l-0.1,0.3c-0.6,0.9-1,1.8-1.4,2.5l-0.3,0.6c-0.5,1-1,2-1.4,2.8
		c0,0-0.4,0.8-0.5,1.1c-0.3,0.6-0.6,1.3-0.9,2.1c-1.4,3.3-2.7,6.8-4.1,11l-1.8,5.6c-0.4,1.2-0.7,2.5-1.1,3.7
		c-0.2,0.6-0.3,1.2-0.5,1.7c-0.8,2.7-1.4,5.4-2,7.9c-0.2,1-0.5,2.1-0.8,3.1l0,0.2c-3,13-5.4,26.9-7.5,44.1c-0.1,1.2-0.3,2.5-0.4,3.7
		c-0.3,2.4-0.6,4.8-0.8,7.3l-1,10.7c-0.3,2.7-0.5,5.4-0.6,8c-0.1,1-0.1,2.1-0.2,3.2l-0.7,10.9c-0.4,7.5-0.8,14.8-1.1,21.8l0,0.9
		c-0.1,3.3-0.3,6.7-0.3,10.3c0,3.9,0.1,7.9,0.4,11.9c0.5,7.8,1.7,15.7,3.4,23.5c1.7,7.9,4,15.6,6,22l0.8,2.7
		c1.7,5.6,3.4,10.9,4.1,15.6c0.7,4.9,0.5,10.1-0.8,16c-0.4,2-0.9,3.9-1.5,6.2c-0.3,1.2-0.6,2.4-1,3.7c-0.3,1.1-0.6,2.4-0.8,4.1
		l0,0.2c-0.1,0.4-0.1,0.9-0.1,1.4l0,0.2c0,0.4-0.1,1-0.1,1.5l0,1.3c0,1.9,0,3.8,0,5.7c0,4.7,0.2,8.3,0.4,11.9
		c0.1,1.8,0.4,4.1,0.8,6.7c0.2,1.1,0.5,2.5,0.9,4.2c0.3,1,0.6,1.9,0.9,2.8l0,0.1c0.4,1.1,1.1,2.5,2.2,4.2l0.1,0.1
		c0.9,1.3,1.9,2.3,3,3.3c0.8,0.7,1.8,1.4,2.7,1.9c0.9,0.5,2,1,3,1.4l0.1,0c0.3,0.1,0.9,0.3,1.5,0.4c0.4,0.1,0.7,0.2,0.9,0.2
		c0.5,0.1,1,0.2,1.4,0.2c1.4,0.2,2.6,0.3,3.6,0.4c2.1,0.2,4.1,0.3,5.9,0.4c4.1,0.2,8.1,0.4,11.1,0.5c3.3,0.1,6.8,0.2,10.7,0.3
		c0.2,0.3,0.3,0.5,0.5,0.8c2.4,4.1,5.8,7.9,9.6,10.8c3.2,2.5,6.9,4.6,11.1,6.4c3.4,1.4,6.9,2.5,10.8,3.4c1.9,0.4,3.7,0.8,5.2,1
		l0.2,0l4.6,0.6c1.3,0.2,2.5,0.3,3.5,0.4c0.5,0,0.9,0.1,1.4,0.1c1.8,0.2,3.6,0.3,5.2,0.4c2,0.1,4,0.1,5.9,0.1c0,0,0,0,0,0
		c4.9,0,9.8-0.3,14.3-1c1.4-0.2,2.8-0.4,4.1-0.7l1.2-0.2l1.3-0.3c1.2-0.3,2.5-0.5,3.9-0.9c3.3-0.9,6.7-2,10-3.3c1.5-0.6,3-1.2,4.8-2
		l2.1-1c1-0.5,2.9-1.5,4.6-3c0.6-0.5,1.1-1.1,1.7-1.7c0.6-0.6,1-1.2,1.3-1.6l0.1-0.1c1.5-2.2,2.3-4.2,2.8-5.5
		c0.5-1.3,0.8-2.6,1.2-4.1c0.4-2,0.7-4,0.9-6.3c0.5-6.3,0.3-12,0-17.5l-0.1-1.7l-0.2-4.3c-0.2-4.4-0.4-8.6-0.5-12.9
		c-0.1-6.6,0-11.5,0.3-15.9c0.1-1.3,0.2-2.5,0.4-3.6l0.3-2.1c0.1-1,0.2-2,0.3-2.8l0-0.2c0.3-3.4,0.3-7,0-10.8
		c-0.4-6.6-1.5-12.8-2.6-19c-0.4-2.1-0.8-4.2-1.2-6.3c-0.7-3.7-1.3-7.2-2-10.7c-1.4-7.9-2.4-15.4-3-22.7c2.7-0.9,5.5-2.1,8.2-3.7
		c5.1-3,9.9-6.9,14.4-12c4.7-5.3,8.9-11.4,12.8-18.5c13.3-5.5,26.6-10.1,39.7-13.7c14.3-3.9,28.1-6.5,40.9-7.7
		c5.7-0.5,11.2-0.8,16.5-0.8c8.3,0,16.3,0.6,23.7,1.9c6.2,1,12.5,2.6,18.8,4.8c7.6,2.6,13.4,5.1,18.2,7.6c5.6,2.9,10.3,6.2,13.8,9.8
		c3.6,3.6,6.6,8.1,9,13.2c2.2,4.9,4,10.6,5.3,17.3c0.4,2.2,0.8,4.5,1.2,6.8c-5.2-4.2-10.2-5-13.1-5c-6.7,0-12.7,3.8-15.2,9.8
		c-0.2,0.4-0.3,0.8-0.5,1.2c-1.7-0.6-3.5-1-5.5-1c-3.3,0-6.6,1-9.8,3.1c-7.7,5-7.7,11.6-7.3,14.2c1.1,7.2,8.1,13,20.9,17.1
		c-2.1,6.3-0.6,13.7,3.6,18.7c-10,3.3-15.9,11.2-16.8,22.8c-2.3,0.1-4.2,0.5-5.8,1.2c-1.5-0.6-3.2-0.9-5-0.9c-0.5,0-1,0-1.5,0.1
		l-0.2,0c-1.4,0-4.8,0-7.9,2.2c-2.4-1.3-5.2-2.1-8.2-2.2l2.2-8.8l-10.3-2.1c-2.8-0.6-4.9-0.9-6.9-0.9c-3.4,0-6,1-8,2.4
		c-1.9-1.2-4.2-2-7.3-2c-2.2,0-4.4,0.4-7.2,1l-10.5,2.2l2.9,10.3c0.1,0.4,0.2,0.8,0.3,1.2c0.3,1,0.5,1.8,0.8,2.7
		c0.8,2.3,1.6,4.7,2.4,7c3.7,10.6,7.1,20.7,6.1,31c-0.5,4.7,1.7,7.6,3.1,8.9c0.1,0.1,0.2,0.2,0.2,0.3c1.2,1.4,3.8,4.2,8.1,4.8
		c1.3,0.2,2.3,0.2,3.2,0.2c1.7,0,5.6-0.3,8.7-3.2c3.1,2.1,6.9,3.3,11,3.3c0,0,0.1,0,0.1,0c4.2,0,8-1.2,11.2-3.3
		c2.4,1.7,5.3,2.7,8.6,2.7c2.3,0,4.7-0.5,7-1.5c1.2,0.2,2.7,0.5,4.4,0.5h0c0.8,0,1.6-0.1,2.4-0.2c4.2,8.4,12.3,13.1,23.6,13.1l0.3,0
		c16.1-0.1,32.4-0.5,48.2-0.9c8.3-0.2,16.5-0.4,24.8-0.6c15.8-0.3,25.9-10.4,26.3-26.2C493.5,446,493.2,431.7,492.1,417.9z
		 M410.3,376l1.5,0.9c0,0.3,0,0.6,0.1,0.8C411.3,377.2,410.8,376.6,410.3,376z M444.9,392.5l8.9,0.7c-3.1,0.1-6.2,0.1-9.2,0.2
		C444.6,393.1,444.8,392.8,444.9,392.5z"/>
	<g>
		<path d="M175.8,305c6.4-4.1,12.8-7.7,19.4-11.2c6.6-3.5,13.2-6.8,20-10c13.5-6.2,27.5-11.7,41.8-16.2c14.3-4.4,29-7.8,44-9.7
			c15-1.9,30.4-2.2,45.6-0.1c7.6,1,15.2,2.7,22.6,4.9c7.2,2.3,14.5,4.8,21.6,8.2c7.1,3.4,14,7.7,20.1,13.4
			c6,5.6,10.9,12.5,14.5,19.8c3.6,7.3,6.1,14.9,7.8,22.5c1.8,7.6,2.9,15.3,3.7,22.9c0.4,3.8,0.7,7.6,0.9,11.4
			c0.2,3.8,0.5,7.6,0.5,11.3c0,3.8-0.5,7.5-1.3,11.3c-0.8,3.7-1.9,7.4-3.8,11.1c-1,2-3.5,2.8-5.5,1.8c-0.9-0.4-1.5-1.2-1.9-2l0,0
			c-1.6-3.7-2.5-7.4-3.1-11.1c-0.7-3.6-1.1-7.3-1.2-10.9c0-3.6,0.1-7.2,0-10.8c-0.1-3.6-0.2-7.2-0.5-10.7c-0.5-7.1-1.3-14.1-2.7-21
			c-1.4-6.8-3.3-13.4-6-19.5c-2.8-6.1-6.4-11.5-11-16.1c-4.6-4.6-10.2-8.4-16.3-11.6c-6.1-3.2-12.8-5.8-19.6-8.2
			c-6.6-2.3-13.5-4-20.5-5.2c-14-2.4-28.4-2.5-42.8-1.2c-14.4,1.3-28.6,4.2-42.7,8c-14,3.8-27.9,8.7-41.4,14.3
			c-6.8,2.8-13.4,5.8-20,9c-6.6,3.2-13.1,6.6-19.3,10.3l-0.1,0c-1.3,0.8-3,0.3-3.8-1C174.2,307.4,174.6,305.8,175.8,305z"/>
	</g>
	<path d="M414.4,366.8c0,0-10.6-6.7-15.3-6.6s-11.3-6.7-8.6-12.9C393.2,341.1,407,339.9,414.4,366.8z"/>
	<path d="M385.8,369.5c0,0-3.6-21.6-14.8-14.4C359.8,362.3,385.8,369.5,385.8,369.5z"/>
	<path d="M410.8,395.1c0,0-6.2-14.6-14.9-17.3c-8.7-2.7-9.3,8.8-4.9,12.8C395.4,394.7,410.8,395.1,410.8,395.1z"/>
	<path d="M445.5,391c0,0,2-8.2,11.2-8.9c9.2-0.6,12.1-7.7,10.1-15c-2-7.3-4.7-5.2-4.7-5.2S443.2,356.7,445.5,391z"/>
	<path d="M449.9,342.6c0,0,4.4-10.3,13.7-7.7s18.2-13.1,12.5-20.8C470.4,306.5,449.5,311.5,449.9,342.6z"/>
	<g>
		<path class="st2" d="M101.5,102.9c-22.6,26.6-36.4,55.9-36.4,55.9s-19.4,25.9-25.1,125.1c-0.6,10.6-1,20.3-1.3,29
			c-1.1,36.3,11.5,58.2,14.3,75.9s-3.9,31.3-4,36.8c-0.2,12.2,0.1,27.3,3.3,28.8c3.2,1.5,41.8,2,41.8,2s-0.7,17.9,28.5,22.5
			s44.8-2.4,53.2-6.3s0.4-42,4.2-67.4c3.1-21.1-7.9-43.7-8.9-86.6s11.6-117.4,30.8-134.8s65-52.4,63.2-84.2s-27.7-51.2-27.7-51.2
			S177.2-8.2,101.5,102.9z"/>
		<path d="M105.6,106l-2.7,3.3l-1.3,1.6l-1.3,1.6l-2.5,3.2l-2.4,3.3c-1.6,2.2-3.2,4.5-4.7,6.7c-1.5,2.3-3.1,4.5-4.5,6.8
			c-3,4.6-5.8,9.3-8.5,14c-1.4,2.4-2.7,4.8-4,7.2c-1.3,2.4-2.5,4.9-3.7,7.2l-0.1,0.2l-0.5,0.8l-0.5,0.7c-0.2,0.3-0.4,0.7-0.6,1
			c-0.4,0.7-0.7,1.4-1.1,2.1c-0.4,0.7-0.7,1.5-1.1,2.3c-0.3,0.8-0.7,1.5-1,2.3c-1.3,3.1-2.5,6.4-3.6,9.7l-1.6,5
			c-0.5,1.7-0.9,3.4-1.4,5.1c-1,3.4-1.7,6.8-2.5,10.2c-3.1,13.7-5.2,27.8-6.9,41.8c-1.7,14.1-2.7,28.3-3.6,42.5
			c-0.4,7.1-0.7,14.2-1,21.4c-0.1,3.6-0.3,7.2-0.3,10.6c0,3.4,0.1,6.9,0.3,10.3c0.5,6.9,1.5,13.7,3,20.4c1.5,6.8,3.5,13.4,5.6,20.3
			c2.1,6.8,4.5,13.8,5.6,21.7c1.1,7.8,0.5,15.8-1,23.3c-0.8,3.7-1.8,7.4-2.6,10.6c-0.2,0.8-0.4,1.5-0.4,2.1l0,0.3c0,0.1,0,0.1,0,0.3
			l0,1.3c0,1.8,0,3.5,0,5.3c0,3.5,0.1,7,0.3,10.3c0.1,1.7,0.3,3.3,0.5,4.8c0.1,0.8,0.3,1.5,0.4,2.1c0.1,0.3,0.2,0.5,0.2,0.7
			c0.1,0.2,0.1,0.2,0,0.1c-0.1-0.1-0.2-0.3-0.5-0.5c-0.1-0.1-0.3-0.3-0.6-0.4c-0.3-0.2-0.5-0.3-0.7-0.3c-0.1,0-0.1,0-0.1,0
			c0,0,0,0,0.1,0l0.4,0.1c0.7,0.1,1.5,0.2,2.3,0.3c1.7,0.2,3.4,0.3,5.2,0.4c3.5,0.2,7.1,0.3,10.6,0.5c7.1,0.2,14.3,0.4,21.4,0.5h0
			l5.4,5.7l0-0.1c0,0,0,0,0,0l0,0.1l0,0.3c0,0.2,0.1,0.4,0.1,0.7c0.1,0.5,0.2,1,0.3,1.4c0.3,1,0.7,1.9,1.3,2.8
			c1.1,1.8,2.6,3.5,4.4,4.9c3.7,2.9,8.6,4.8,13.7,5.9c1.3,0.3,2.6,0.5,3.9,0.8l4.1,0.6c1.4,0.2,2.8,0.3,4.1,0.5
			c1.4,0.2,2.8,0.2,4.1,0.3c5.5,0.3,11,0.2,16.4-0.6c1.3-0.2,2.7-0.4,4-0.6c1.3-0.3,2.6-0.5,3.9-0.9c2.6-0.7,5.2-1.5,7.7-2.5
			c1.3-0.5,2.5-1,3.8-1.6l1.9-0.9c-0.1,0-0.3,0.2-0.4,0.2c0,0-0.1,0.1-0.1,0.1c0,0,0,0,0,0c0.1-0.1,0.5-1.1,0.7-2.1
			c0.2-1.1,0.4-2.3,0.5-3.6c0.4-5.3,0.2-11.1,0-16.8c-0.2-5.8-0.5-11.6-0.5-17.5c-0.1-5.9,0-11.9,0.5-18c0.1-1.5,0.3-3,0.5-4.6
			l0.3-2.1c0.1-0.6,0.2-1.3,0.2-2c0.2-2.6,0.2-5.3,0.1-8c-0.3-5.4-1.2-11.1-2.1-16.7c-1-5.7-2.1-11.4-3-17.2
			c-1.9-11.6-3.2-23.4-3.7-35.3c-0.5-11.9,0-23.7,1-35.4c1-11.7,2.5-23.4,4.6-35c2-11.6,4.5-23.1,7.9-34.5
			c1.7-5.7,3.5-11.3,5.8-16.9c2.3-5.6,4.9-11.1,8.6-16.3c0.9-1.3,2-2.6,3.1-3.8c0.5-0.6,1.2-1.2,1.8-1.7c0.6-0.5,1.1-1,1.7-1.4
			c2.3-1.8,4.7-3.5,7.1-5.2c4.7-3.5,9.6-6.7,13.9-10.6c8.6-7.8,16.8-16,24-24.9c3.6-4.5,6.9-9.2,9.7-14.1c2.8-4.9,5-10.1,6.1-15.5
			c0.6-2.7,0.8-5.4,0.7-8.1c0-1.3-0.2-2.7-0.4-4.1c-0.2-1.4-0.4-2.8-0.7-4.1c-1-5.5-2.9-10.8-5.4-15.8c-2.5-5-5.5-9.7-9-14.1
			c-1.8-2.2-3.6-4.3-5.6-6.2c-1-1-2-2-3-2.9c-1-0.9-2.1-1.9-3.1-2.6l-0.1-0.1l-0.2-0.2c-0.5-0.4-1.2-1-1.8-1.4
			c-0.6-0.5-1.3-0.9-2-1.4c-1.3-0.9-2.7-1.8-4.2-2.5c-2.9-1.6-5.9-2.9-8.9-4c-6.2-2.2-12.6-3.4-19.2-3.6c-13.1-0.3-26,3.8-37.4,10.4
			c-11.5,6.6-21.8,15.5-31,25.4c-4.6,4.9-9,10.1-13.2,15.5c-1.1,1.3-2.1,2.7-3.1,4.1c-1,1.4-2,2.7-3,4.1c-1,1.4-2,2.7-3,4.2
			L105.6,106z M97.5,99.8l2.9-4.1c1-1.4,2.1-2.8,3.1-4.2c1-1.4,2.1-2.8,3.2-4.2c1.1-1.4,2.2-2.8,3.3-4.2c4.4-5.5,9.1-10.9,14-16
			c9.9-10.2,21-19.5,33.7-26.4c6.3-3.5,13.1-6.3,20.2-8.1c7.1-1.9,14.5-2.7,21.8-2.4c7.3,0.3,14.6,1.9,21.5,4.5
			c3.4,1.3,6.7,2.9,9.9,4.8c1.6,0.9,3.1,1.9,4.6,3c0.8,0.5,1.5,1.1,2.2,1.7c0.8,0.6,1.4,1.1,2.2,1.9l-0.3-0.2c1.3,1.1,2.4,2,3.5,3.1
			c1.1,1,2.2,2.1,3.2,3.2c2.1,2.2,4,4.5,5.9,6.9c3.7,4.8,6.9,10,9.4,15.5c2.5,5.5,4.4,11.3,5.4,17.3c0.3,1.5,0.4,3,0.6,4.5
			c0.1,1.5,0.3,3,0.3,4.6c0,3.1-0.4,6.3-1.1,9.2c-1.4,6-4,11.5-7,16.7c-3,5.2-6.6,9.9-10.4,14.5c-7.5,9.1-16,17.3-24.6,25.1
			c-4.3,3.9-8.1,8.4-12.3,12.6c-2.1,2.1-4,4.2-6.1,6.3c-0.5,0.5-1,1-1.6,1.5c-0.5,0.5-0.9,0.8-1.3,1.3c-0.8,0.9-1.7,1.9-2.4,3
			c-3,4.3-5.4,9.4-7.5,14.6c-2.1,5.2-3.8,10.7-5.4,16.1c-3.1,11-5.5,22.3-7.3,33.6c-1.9,11.4-3.3,22.8-4.2,34.3
			c-0.9,11.5-1.3,22.9-0.7,34.3c0.5,11.4,1.9,22.8,3.9,34.1c1,5.7,2.1,11.3,3.1,17.1c1,5.8,2.1,11.7,2.4,17.9c0.2,3.1,0.2,6.2,0,9.4
			c-0.1,0.8-0.1,1.6-0.2,2.4l-0.3,2.2c-0.2,1.4-0.3,2.7-0.4,4.1c-0.5,5.5-0.5,11.2-0.4,16.9c0.1,5.7,0.4,11.5,0.7,17.3
			c0.2,5.9,0.5,11.7,0,18.1c-0.1,1.6-0.3,3.2-0.7,5c-0.2,0.9-0.4,1.8-0.8,2.8c-0.4,1-0.8,2-1.6,3.2c-0.2,0.3-0.4,0.6-0.7,0.9
			c-0.2,0.3-0.5,0.6-0.8,0.9c-0.6,0.5-1.4,1.1-2.2,1.4l-2,0.9c-1.4,0.6-2.8,1.2-4.2,1.8c-2.9,1.2-5.9,2.1-8.9,2.9
			c-1.5,0.4-3,0.7-4.6,1.1c-1.5,0.3-3.1,0.6-4.6,0.8c-6.2,0.9-12.3,1-18.4,0.7c-1.5-0.1-3-0.1-4.6-0.3c-1.5-0.2-3-0.2-4.5-0.5
			l-4.5-0.6c-1.5-0.3-3.1-0.5-4.6-0.9c-3.1-0.7-6.2-1.6-9.2-2.9c-3-1.3-6-2.9-8.8-5c-2.8-2.1-5.3-4.8-7.2-8
			c-0.9-1.6-1.7-3.3-2.3-5.1c-0.3-0.9-0.5-1.8-0.7-2.8c-0.1-0.5-0.2-1-0.2-1.5c0-0.3,0-0.5-0.1-0.8l0-0.4l0-0.3l0-0.4l5.4,5.7h0
			c-7.2-0.1-14.4-0.2-21.6-0.5c-3.6-0.1-7.2-0.3-10.9-0.4c-1.8-0.1-3.7-0.2-5.6-0.4c-1-0.1-1.9-0.2-3-0.4c-0.3,0-0.6-0.1-0.9-0.2
			c-0.2,0-0.3-0.1-0.6-0.1c-0.2,0-0.5-0.1-0.7-0.2c-0.3-0.1-0.8-0.3-1.3-0.6c-0.5-0.3-0.8-0.5-1.1-0.8c-0.6-0.5-1.1-1.1-1.4-1.5
			c-0.6-0.9-1-1.6-1.2-2.3c-0.3-0.7-0.5-1.3-0.6-1.8c-0.3-1.1-0.5-2.2-0.7-3.2c-0.3-2-0.5-3.9-0.7-5.8c-0.3-3.8-0.4-7.5-0.4-11.1
			c0-1.8,0-3.7,0-5.5l0-1.4c0-0.2,0-0.7,0-1c0-0.4,0.1-0.7,0.1-1c0.2-1.2,0.4-2.2,0.6-3.2c0.9-3.7,1.9-7,2.5-10.3
			c1.4-6.6,1.8-13.1,0.9-19.4c-0.9-6.3-3.2-13-5.3-19.9c-2.1-6.9-4.2-13.9-5.8-21.2c-1.6-7.2-2.7-14.6-3.2-22.1
			c-0.3-3.7-0.4-7.4-0.4-11.2c0-3.8,0.2-7.3,0.3-10.9c0.3-7.2,0.6-14.4,1-21.6l0.7-10.8c0.3-3.6,0.4-7.2,0.8-10.8l1-10.8
			c0.3-3.6,0.8-7.2,1.2-10.8c1.8-14.4,4-28.7,7.3-42.9c0.9-3.5,1.6-7.1,2.7-10.6c0.5-1.8,1-3.5,1.5-5.3l1.7-5.3
			c1.2-3.5,2.5-7,3.9-10.5c0.3-0.9,0.8-1.7,1.2-2.6c0.4-0.9,0.8-1.7,1.2-2.6c0.4-0.9,0.9-1.7,1.4-2.6c0.3-0.4,0.5-0.9,0.8-1.3
			l0.4-0.7l0.2-0.4l0.3-0.5l-0.6,0.9c1.3-2.7,2.6-5.1,3.9-7.7c1.4-2.5,2.7-5,4.1-7.4c2.8-4.9,5.8-9.7,8.9-14.5
			c1.5-2.4,3.1-4.7,4.7-7.1c1.7-2.3,3.2-4.7,5-6.9l2.5-3.4l2.6-3.4l1.3-1.7l1.3-1.6L97.5,99.8z"/>
	</g>
	<g>
		<path d="M83.6,334.5c0.5,0.3,0.7,0.5,1,0.8c0.3,0.3,0.5,0.5,0.7,0.8c0.5,0.6,0.9,1.2,1.3,1.8c0.8,1.2,1.4,2.5,2,3.8
			c1.2,2.6,2.2,5.2,3.1,7.9c0.9,2.7,1.7,5.4,2.4,8.1c0.4,1.4,0.7,2.7,1,4.1l0.9,4.1c2.3,10.9,3.7,21.9,5.1,33
			c0.7,5.5,1.5,11.1,1.9,16.6c0.4,5.6,0.4,11.2-0.1,16.8c-0.4,5.6-1.2,11.2-2.4,16.8c-0.6,2.8-1.4,5.5-2.4,8.3c-0.5,1.4-1,2.7-1.6,4
			c-0.3,0.7-0.6,1.3-1,2c-0.4,0.6-0.7,1.3-1.1,1.9l-1.1-0.4c0-5.6-0.5-11-0.8-16.4c-0.4-5.4-0.8-10.8-1.1-16.2
			c-0.4-5.4-0.6-10.8-0.5-16.2c0-5.4,0.3-10.9,0.2-16.3c-0.2-10.9-0.9-21.8-1.8-32.7l-0.8-8.1c-0.2-2.7-0.5-5.4-0.9-8.1
			c-0.4-2.7-0.8-5.3-1.5-7.9c-0.3-1.3-0.7-2.6-1.2-3.8c-0.2-0.6-0.5-1.2-0.8-1.8c-0.1-0.3-0.3-0.6-0.5-0.8c-0.1-0.1-0.2-0.3-0.3-0.4
			c-0.1-0.1-0.2-0.2-0.2-0.3L83.6,334.5z"/>
	</g>
	<path class="st3" d="M236.9,76.8c0,0-22.8-30.9-48.8-12.7c-16.9,11.8-30,27.2-27.8,47.1s23,39.2,42.4,45.5
		c11.1,3.6,21.9-3.4,35.3-20.1C249.2,122.5,260.9,101.6,236.9,76.8z"/>
	<g>
		<path class="st2" d="M140.9,217.9c-0.4,15.9,11.5,67.8,18.4,86.5c9.5,25.6,14.9,16.1,14.9,16.1s23.3,4.5,42.8-46.3
			c8.8-28.3,0.8-37.1-3.6-55.1c-13-53.1-58.8-79.7-58.8-79.7"/>
		<path d="M140.9,217.9c0.3,4.8,1.3,9.4,2.2,14.1c0.9,4.7,2.1,9.3,3.2,13.9c2.2,9.2,4.8,18.4,7.4,27.5c1.3,4.6,2.7,9.1,4.1,13.6
			c1.4,4.5,2.9,9,4.5,13.3c1.6,4.3,3.4,8.6,5.6,12.3c0.5,0.9,1.1,1.8,1.7,2.6c0.6,0.8,1.2,1.5,1.7,1.9c0.5,0.5,0.9,0.4,0.1,0.3
			c-0.3,0-0.8,0.1-1,0.2c-0.1,0.1-0.2,0.1-0.2,0.1c0,0,0,0-0.1,0c0,0,0,0,0,0c0,0,0,0-0.1,0.2l5.1-2.4c-0.2,0-0.1,0-0.1,0l0.1,0
			l0.2,0c0.2,0,0.4,0,0.5,0c0.4,0,0.8-0.1,1.2-0.1c0.8-0.1,1.7-0.3,2.6-0.6c1.8-0.6,3.5-1.4,5.2-2.5c1.7-1,3.3-2.3,4.9-3.7
			c1.5-1.4,3-2.9,4.4-4.5c2.8-3.2,5.3-6.9,7.5-10.7c2.2-3.8,4.3-7.8,6.2-11.9c0.5-1,0.9-2.1,1.4-3.1c0.4-1,0.9-2.1,1.3-3.1l1.2-3
			c0.3-1,0.6-1.9,0.9-3c1.2-4.3,2.1-8.6,2.6-12.8c0.5-4.2,0.4-8.4-0.3-12.5c-0.7-4.1-1.9-8.4-3.3-12.9c-0.7-2.2-1.4-4.6-2-6.9
			c-0.3-1.2-0.6-2.4-0.9-3.6l-0.8-3.3c-0.5-2.2-1.2-4.3-1.8-6.5c-0.7-2.1-1.4-4.3-2.2-6.4c-3.1-8.5-7.2-16.6-12.1-24.3
			c-9.8-15.4-22.4-29.3-37.3-40.7c2.1,1,4.2,2.2,6.2,3.4c2,1.2,4,2.5,5.9,3.9c3.9,2.7,7.7,5.6,11.2,8.7c3.6,3.1,7.1,6.4,10.3,9.9
			c3.3,3.5,6.4,7.1,9.3,11c0.7,1,1.4,1.9,2.1,2.9l2.1,3c1.3,2,2.6,4,3.8,6.1c1.3,2.1,2.4,4.2,3.5,6.3c1.1,2.2,2.2,4.3,3.1,6.6
			c1,2.2,1.9,4.5,2.7,6.8c0.8,2.3,1.6,4.6,2.3,6.9l1,3.5c0.3,1.1,0.6,2.1,0.9,3.2c0.7,2.1,1.4,4.3,2.1,6.5c1.5,4.4,3.2,9.1,4.1,14.2
			c1,5.1,1.1,10.4,0.7,15.4c-0.5,5.1-1.5,10-2.8,14.7c-0.3,1.2-0.7,2.5-1.1,3.7l-1.4,3.5c-0.5,1.2-0.9,2.3-1.4,3.4
			c-0.5,1.1-0.9,2.2-1.5,3.3c-4.1,8.8-9,17.4-15.7,25c-3.4,3.8-7.3,7.3-12,10c-2.3,1.3-4.8,2.5-7.6,3.3c-1.4,0.4-2.8,0.7-4.3,0.8
			c-0.7,0.1-1.5,0.1-2.3,0.1c-0.4,0-0.8,0-1.2,0c-0.2,0-0.4,0-0.7-0.1l-0.4,0c-0.2,0-0.2,0-0.5-0.1l5.1-2.4
			c-0.2,0.4-0.3,0.4-0.4,0.6l-0.3,0.4c-0.2,0.2-0.4,0.5-0.6,0.7c-0.5,0.5-1,0.9-1.6,1.3c-1.2,0.8-2.9,1.2-4.4,1.2
			c-1.5-0.1-2.8-0.6-3.8-1.1c-0.5-0.3-0.9-0.6-1.3-0.9c-0.4-0.3-0.7-0.6-1-0.9c-1.2-1.2-2.2-2.4-2.9-3.6c-0.8-1.2-1.4-2.3-2-3.5
			c-2.4-4.7-4-9.3-5.5-14c-2.8-9.4-5-18.7-6.9-28.1c-1.9-9.4-3.5-18.9-4.8-28.3c-0.7-4.7-1.2-9.5-1.6-14.3c-0.2-2.4-0.3-4.8-0.4-7.2
			C140.7,222.6,140.7,220.2,140.9,217.9z"/>
	</g>
	<path class="st2" d="M232.3,128.9c0,0,8.5-6.1,8.8-20.1c0.1-3.7-5.2-5.4-6.4-2.1c-3,7.9-6.8,16.9-15.5,21.9c-2.5,1.4-1.9,5.3,1,5.6
		C223.7,134.7,228.5,133.1,232.3,128.9z"/>
	<path class="st2" d="M201.3,137.5c-1.9,3-0.9,7,2.2,9s7.2,1.3,9.2-1.7c1.9-3,0.9-7-2.2-9C207.4,133.8,203.3,134.6,201.3,137.5z"/>
	<path d="M428.6,403.9c11.9-0.3,23.8-0.8,35.7-0.8c11.2,0,16.9,4.5,17.8,15.6c1.2,14.1,1.4,28.4,1,42.6c-0.3,9.8-5.2,16.2-16.5,16.5
		c-24.3,0.5-48.6,1.3-72.9,1.5c-10.8,0.1-16.1-4.8-16.9-15.6c-1-13.9-1.3-27.9-1-41.9c0.3-11.3,5.9-16.4,17.4-17
		C405.1,404.2,416.8,404.2,428.6,403.9z"/>
	<path class="st2" d="M436.8,431.9c-0.1-4.4-0.2-7.9-0.3-11.4c0-2.1,0.2-4.2-3.1-4.1c-3.3,0.1-2.9,2.3-2.8,4.4
		c0.3,13.1,0.5,26.1,1,39.2c0.1,1.6,0.9,4.3,1.7,4.4c1.7,0.3,3.6-0.8,4.9-1.2c3.2,0.4,6.4,1.7,8.9,0.8c3.6-1.2,3.2-5.3,3.2-8.5
		c-0.1-5.9-0.2-11.8-0.4-17.6c0-1.4-0.1-2.9-0.4-4.3c-1.2-5.5-5.4-7-9.9-3.7C438.9,430.2,438.3,430.7,436.8,431.9z"/>
	<path class="st2" d="M418.9,462c0.1,3.5,2.7,3.5,4.9,2.6c1-0.4,1.7-2.8,1.7-4.3c-0.1-9-0.3-18-0.6-27c0-1.4-0.2-2.7-0.4-4.4
		c-2.2,0.2-4,0.3-6.1,0.5c0.2,8.2,0.4,16,0.5,23.8c0,1.6-0.4,3.4-1.3,4.7c-0.5,0.9-2.1,1.2-3.2,1.7c-0.5-1-1.3-2-1.3-3
		c-0.3-4.8-0.3-9.7-0.4-14.5c-0.1-4.1-0.2-8.3-0.3-12.7c-2.3,0.1-4.1,0.1-6.3,0.1c0,1.6-0.2,3-0.1,4.4c0.2,7.4,0.1,14.9,0.6,22.3
		c0.2,2.9,1,6.7,2.9,8.3c3,2.5,6-0.6,8.5-2.7C418.3,462,418.4,462,418.9,462z"/>
	<path class="st2" d="M474.2,446.5c-0.1-4,0.1-7.2-0.3-10.4c-0.6-5.2-4.2-8.5-9.1-8.6c-5.2-0.1-9.2,2.8-9.5,8.3
		c-0.4,6.7-0.3,13.6,0.4,20.3c0.7,6.3,5.9,9.2,12.1,7.8c5-1.2,7.5-6.1,6-12.1c-1.7,0-3.5,0.1-5.3,0.1c-0.1,1.3,0.1,2.5-0.3,3.3
		c-0.8,1.3-2,2.3-3.1,3.5c-1.1-1.2-2.7-2.2-3.2-3.7c-0.6-1.5-0.2-3.4-0.3-5c-0.2-2.4,0.8-3.3,3.1-3.3
		C467.7,446.7,470.7,446.6,474.2,446.5z"/>
	<path class="st2" d="M399.1,444.5c-0.1-5.3-0.1-10.7-0.4-16c-0.2-3.5,0.5-5.6,4.6-5.2c2.2,0.2,3.3-0.6,3.3-3.1
		c0-2.7-1.3-3.3-3.7-3.2c-5.1,0.2-10.2,0.3-15.3,0.4c-2.2,0-3.4,0.6-3.3,3.1c0.1,2.3,0.8,3.5,3.2,3.1c4-0.7,4.8,1.4,4.8,4.9
		c0.1,11.2,0.5,22.4,0.7,33.6c0,2.6,1,3.4,3.5,3.3c2.5-0.1,3.1-1.2,3-3.4C399.3,456.3,399.2,450.4,399.1,444.5z"/>
	<path d="M326.3,449c-0.1-3-0.3-6-0.2-9c0.3-6,3.9-10,9.2-10.3c5.5-0.4,10,3.1,10.6,9.3c0.6,6.5,0.8,13,0.5,19.5
		c-0.3,5.9-4.5,9.5-9.9,9.5c-5.4,0-9.3-3.8-9.9-9.6C326.3,455.3,326.4,452.1,326.3,449z M333.8,449C333.8,449,333.8,449,333.8,449
		c0.1,3,0,6,0.3,9c0.1,1.1,1.5,2,2.4,3c0.8-1,2.4-2,2.4-3c0.1-6,0-12-0.4-18c-0.1-1-1.6-2-2.5-3c-0.8,1.1-2.2,2.2-2.3,3.4
		C333.4,443.2,333.8,446.1,333.8,449z"/>
	<path d="M302,419.1c7.4-1.6,7.7-1.4,9.5,5.1c0.9,3.3,1.9,6.5,2.9,9.7c0.1,0.2,0.2,0.5,0.7,1.4c1-4.3,1.9-8,2.8-11.8
		c1.5-6,2.2-6.4,9.3-4.9c-0.7,2.6-1.3,5.2-2,7.8c-1.7,6-4.1,11.9-5.1,18c-1,6.2-0.6,12.7-0.7,19c-0.1,4.1-0.7,4.9-4.8,4.3
		c-1-0.1-1.9-1.5-2.8-2.3c-0.1-0.1-0.1-0.5-0.1-0.8c1.5-15-4.5-28.3-8.9-42.1C302.6,421.5,302.4,420.4,302,419.1z"/>
	<path d="M358.9,460.5c3.8-0.9,4.4-3,4.4-5.8c-0.2-7.1-0.3-14.1-0.5-21.2c-0.1-2.6,0.5-4.1,3.6-4.2c3.1-0.1,3.7,1.4,3.8,4.1
		c0.1,9.1,0.5,18.3,0.5,27.4c0,1.9-0.5,5-1.5,5.3c-1.9,0.7-4.4-0.3-6.6-0.5c0-0.3,0-0.7,0-1c-0.9,0.6-1.7,1.2-2.6,1.7
		c-4,2.4-8.2,0.8-8.4-3.7c-0.6-10.2-0.7-20.4-0.9-30.6c-0.1-2.9,2.3-2.2,4-2.4c2.3-0.2,3.3,0.7,3.4,3.1c0.1,7.7,0.3,15.4,0.5,23.1
		C358.5,457.3,358.7,458.7,358.9,460.5z"/>
	<path d="M443.7,446.2c0.1,3,0.5,6.1,0.1,9c-0.2,1.5-1.8,3.6-3.1,3.9c-2.2,0.4-3.3-1.4-3.3-3.8c-0.1-5.9-0.2-11.7-0.4-17.6
		c-0.1-2.4,1.1-4.1,3.3-3.8c1.2,0.2,2.9,2,3.2,3.4C443.9,440.1,443.7,443.2,443.7,446.2z"/>
	<path d="M460.5,437.1c1.3-1.4,2.5-3.7,4-3.9c3.1-0.3,3.3,2.5,3.5,4.9c0.2,2.6-0.7,3.8-3.5,3.8C461.3,442.1,461.2,440.2,460.5,437.1
		z"/>
</g>
</svg>
