<?xml version="1.0" encoding="utf-8"?>
<!-- Generator: Adobe Illustrator 25.4.1, SVG Export Plug-In . SVG Version: 6.00 Build 0)  -->
<svg version="1.1" id="Layer_1" xmlns="http://www.w3.org/2000/svg" xmlns:xlink="http://www.w3.org/1999/xlink" x="0px" y="0px"
	 viewBox="0 0 512 512" style="enable-background:new 0 0 512 512;" xml:space="preserve">
<style type="text/css">
	.st0{fill:#FFFFFF;stroke:#D2D2D2;stroke-miterlimit:10;}
	.st1{fill:none;stroke:#1183C6;stroke-width:7.0176;stroke-miterlimit:10;}
	.st2{fill:none;stroke:#E88023;stroke-width:7.0176;stroke-miterlimit:10;}
	.st3{fill:none;stroke:#AB3224;stroke-width:7.0176;stroke-miterlimit:10;}
	.st4{fill:none;stroke:#0F7B3E;stroke-width:7.0176;stroke-miterlimit:10;}
	.st5{fill:#A0D7E7;stroke:#305BA6;stroke-width:4.2105;stroke-miterlimit:10;}
	.st6{fill:#A0D7E7;stroke:#305BA6;stroke-width:2.1053;stroke-miterlimit:10;}
	.st7{fill:#E73F58;stroke:#7D1527;stroke-width:2.807;stroke-miterlimit:10;}
	.st8{fill:#E73F58;stroke:#7D1527;stroke-width:4.2105;stroke-miterlimit:10;}
	.st9{fill:#E8E125;}
	.st10{fill:#E8A920;}
	.st11{fill:#F49F1E;stroke:#B22F24;stroke-width:4.2105;stroke-miterlimit:10;}
	.st12{fill:#A0D7E7;}
	.st13{fill:#F08622;}
	.st14{fill:#B9CE39;}
	.st15{fill:#52C2F0;}
	.st16{fill:none;stroke:#1183C6;stroke-width:4.2105;stroke-miterlimit:10;}
	.st17{fill:#F3C31A;}
	.st18{fill:none;stroke:#E88023;stroke-width:4.2105;stroke-miterlimit:10;}
	.st19{fill:#D95A26;}
	.st20{fill:none;stroke:#AB3224;stroke-width:4.2105;stroke-miterlimit:10;}
	.st21{fill:#85BD45;}
	.st22{fill:none;stroke:#0F7B3E;stroke-width:4.2105;stroke-miterlimit:10;}
	.st23{fill:#E4E5E3;}
	.st24{fill:#CECFCE;}
	.st25{fill:#F2F3F2;}
	.st26{fill:none;stroke:#434343;stroke-width:2.807;stroke-linecap:round;stroke-miterlimit:10;}
	.st27{fill:none;stroke:#434343;stroke-width:2.807;stroke-miterlimit:10;}
	.st28{fill:#020202;}
	.st29{fill:none;stroke:#FFFFFF;stroke-width:5.0346;stroke-linecap:round;stroke-miterlimit:10;}
	.st30{fill:none;stroke:#FFFFFF;stroke-width:5.6141;stroke-linecap:round;stroke-miterlimit:10;}
	.st31{fill:none;stroke:#434343;stroke-width:4.2105;stroke-miterlimit:10;}
	.st32{fill:none;stroke:#E84E27;stroke-width:2.807;stroke-miterlimit:10;}
</style>
<path class="st0" d="M475.9,256.3l-23.1,21.9c1.7-25-0.9-50-7.9-73.5c3.1-3.1,6.2-6.5,9.1-10.3l16.3-21.2l-12.8-0.1
	c-7.9,0-17.2-0.4-22.7-0.9c1.5-5.8,4.2-15.4,6.7-23.7l6.7-22l-27.8,25.3c-5.7-8.7-12.1-16.9-19.1-24.5c-2.5-3.4-5.5-6.4-8.9-9.1
	l0.2-0.2l-8.3-7.2c-0.3-0.3-0.9-0.8-1.7-1.4c-1.7-1.1-3.4-2.1-5.1-3.2l-2.6-4.9c-0.3-0.6-1.6-2.9-4-6.4c3.9-0.3,7.2-0.9,7.8-1
	l24.1-4.5l-21.5-7.1l43.9-25.7l-53.6,10.5c-0.1-3.9-0.1-8.8-0.2-13.5L371.3,36l-11.1,13.8c-5,6.2-11.2,13.5-14.5,16.8
	c-0.1-0.1-0.2-0.2-0.3-0.3c-2-1.8-4.3-3.7-6.6-5.6l-16.1-26.2l-2.9,32.9c-0.1,0.4-0.2,1.4-0.4,3c-0.1,1.3-0.3,3-0.5,5.2
	c-0.2,0.1-0.4,0.2-0.6,0.3c-1.2-15-7.7-32.9-20.8-43.3c-10.5-8.3-23.5-12.6-37.7-12.6c-9.3,0-18.6,2.3-26.9,6.5
	c-10.1,5.2-17.6,14.5-22.7,24.2l-5.5-18l-11.5,20.9c0,0,0,0-0.1,0c-1.5-0.2-2.9-0.3-4.4-0.3l-30.9-9.8L176.3,68
	c-1.7-0.1-3.3,0-5,0.1c-21.7,1.4-42.7,15.9-48.8,33.3c-1.2,1.1-2.3,2.2-3.4,3.3c-1.4-1.3-3.2-3.2-4.7-5L99.8,82.3l3.3,22.3
	c1,6.4,1.9,14.2,2,17.2c-1.4,2.1-2.7,4.3-3.9,6.6l-47-26.3l39.4,43c-3.2,8.4-9.7,26.8-11.5,41.2c-5.8,5.4-16.5,13.4-16.7,13.5
	l-9.7,7.3l26.7,8.7c1.3,8.1,4.2,15.4,7,22.4c1.5,3.7,3,7.6,4.3,11.4c1.1,3.3-0.1,10.2-1.2,15.3L64,262.9l22.1,19.3
	c0.2,0.4,0.4,0.8,0.6,1.3c-1.1,2-2.1,4.1-2.9,6.2l-21,23.5L81,309c-4.4,18.8-7.6,39.9-4.7,61c0.1,0.4,0.1,0.8,0.2,1.2
	c-4.9,16.4-4.1,44.4,4.6,59c12.2,20.6,34.3,18.6,35.7,18.4l10.8-1.1c0.6,0.4,1.3,0.8,1.9,1.2c1,5.8,4.1,11.2,8.8,14.9
	c5.8,4.6,12.1,8.4,18.6,11.5c8.7,4,15.1-1.4,19.1-6c1,0.3,2,0.5,3,0.8c0.1,4.3,1.4,9.6,7,13c7.3,4.3,15.1,6.9,23,7.7
	c11.1,1.1,21.6-4.4,27-13.8c1.9,0,3.8,0,5.7-0.1c0.3,2.1,0.7,3.9,1.1,5.4c2,6.6,8.4,14.5,28.1,14.5c4,0,8.4-0.3,12.4-1
	c26-4,29.7-15.5,29.6-22c0-0.6-0.2-4.3-0.8-9.7c1.9-0.7,3.8-1.4,5.7-2.1c8.3,11.2,17.6,17.7,26.7,18.4c17.6,1.6,62.3-26.1,71.5-53.5
	c2.8-8.6-5.2-20.2-10.4-26.4c14.3-17.3,25.6-37,33.6-58.7l12.3,5.3l0.5-16.5c0-1.4,0-8-3.4-16.9c1.9-2.5,3.8-5,5.5-7.5L475.9,256.3z
	"/>
<path class="st1" d="M379.8,390.8c0,0,25.9,28.9,24.8,32.2c-7.5,22.4-47.3,46.4-59.2,45.4c-14.3-1.2-33.6-31.7-35.7-61.8
	c-0.4-6.2,11.1-20.4,19.9-14.2c10.3,7.3,22.9,26.8,24.8,26.5C358,418.4,379.8,390.8,379.8,390.8z"/>
<path class="st2" d="M300.9,473.8c0.2,9.9-43.5,15.8-46.7,4.8s-4.5-75.1,16.5-75.1C294.8,403.6,300.7,463.9,300.9,473.8z"/>
<path class="st3" d="M212.6,389.8c15.2,4.8,23.7,34.6,14.9,76c-1.7,8.1-9.2,13.7-17.4,12.9c-5.2-0.5-11.4-2.2-18.1-6.1
	c-5.3-3.1,9.9-24.7-9.4-24.9c-10.4-0.1-15.8,18.9-20.8,16.6c-5.4-2.5-10.8-5.8-16.2-10c-4.2-3.3-5.7-8.9-3.6-13.8
	c4.2-9.8,12.6-26.3,25.4-36.7C178.3,394.9,197,384.8,212.6,389.8z M201.1,421.2c1.8-9.3-4.6-11.3-13.4-4.9
	C181.7,420.6,198.6,434.4,201.1,421.2z"/>
<path class="st4" d="M177.5,372.1c0,0-7,10.5-17.3,14c-5.9,2-28.6-20.1-29.5-19.1c-1.9,2.1-8.2,11.6-8.2,11.6s28.1,15.7,26,17.8
	c-5.3,5.6-10.3,10.3-13.3,11.8c0,0-8.2-3.3-14.1-6c-3.2-1.5-7.8-5.7-10.5-3.5c-7,5.8,4.8,38,4.8,38s-15.8,1.6-24.2-12.6
	c-7.1-12-7.5-38.9-2.7-51.8c18.6-49.1,44-35.3,44-35.3S168.8,348.2,177.5,372.1z"/>
<path class="st5" d="M206.8,165l15.3,4.9c-0.7,7.3-13.3,15.9-13.3,15.9c-2.2-4.9-3.3-15.2-3.7-19.4
	C205.8,165.9,206.3,165.4,206.8,165z"/>
<path class="st5" d="M194.9,137.7c-5.1,2.9,4.5-12.7,4.5-12.7l-10.8,4.6c0,0-4.9-10.3-7.2,4.2l-1.3-27.8l-9.9,22l-4.5-13.2
	l-4.8,10.1l-9.8-19c0,0,4.7,30.7,5,31.7c-0.4-0.6-7.1-10-9.9-10.6c-2.9-0.6,0.6,6.1,0.6,6.1c-50-29.6,36.9-81.8,54.2-36.7
	c17.3,45.1,18.6,50.5,7.4,66.9c0,0-0.5,0.6-1.6,1.6c0,0-1.8,0.2-1.7,1.4c-4.2,3.3-12.2,7.4-21.5,2.2c0,0,9.9,0,13.8-10.6
	c3.8-10.6-14.1-1-14.1-1s7.4-13.2,17-13.8C209.9,142.5,200,134.8,194.9,137.7z"/>
<polygon class="st6" points="163.1,145.7 153.1,145.7 145.4,148.9 139.1,135.2 147.9,135.6 141.9,136.6 149.3,141.6 "/>
<polygon class="st7" points="364,221.7 354.7,226 353.9,221.2 "/>
<path class="st8" d="M350.1,216.4l3.8,4.8l-7.9,6.4l-4.8-5.9c-2.8-3.4-3.4-8.1-1.6-12.1l2.1,8.6L350.1,216.4z"/>
<path class="st8" d="M317.1,188.2l0,10c-5.7,2.5-11.8-11-11.8-11s7.4-1.2,10.5-0.9C316.2,186.9,316.6,187.6,317.1,188.2z"/>
<path class="st9" d="M168.9,168.8c22.7,12.1,31.6,23.6,31.6,23.6c-14.4,3.8-29.4,7.1-43.5,9.8c-8.5,23.2-15.5,41.3-15.5,41.3
	c-5.5-13.3-10.1-25.4-14-36.2c-19.9,3.2-39.3-4.5-39.3-4.5c13.7-11.1,20.6-16,29.1-25c-6.2-19.2-8.6-29.7-8.6-29.7
	c12.8,2.6,24.1,5.7,33.9,9.2c19-11.6,34.7-14,34.7-14C174.8,151.4,171.9,160.1,168.9,168.8z"/>
<g>
	<path class="st10" d="M168.6,170.3c1.6-4.8,7.3-22.4,8.7-26.9c0,0-1.3,0.2-3.7,0.8c-1.3,3.8-6.8,20.5-8.1,24.4
		C166.6,169.2,167.6,169.7,168.6,170.3z"/>
	<path class="st10" d="M120.8,175.7c-2-6.1-6.2-22.2-7.4-26.5c-1.5-0.3-3.1-0.7-4.7-1l8.6,29.7l-11,10.9
		C107.6,187.4,119.6,177,120.8,175.7z"/>
	<path class="st10" d="M156,187.6c-8.5,23.2-14.8,39.5-14.8,39.5c-5.5-13.3-9-22.1-12.9-32.9c-22,7.5-30.9,1.2-36.9,2
		c-2.7,4.3,0,0-12.3,7.9c0,0,28.5,6.4,48.4,3.2c3.9,10.8,8.6,22.9,14,36.2c0,0,7-18.1,15.5-41.3c14.1-2.7,29.2-6,43.5-9.8
		c0,0-3.3-4.2-10.8-10.2C177.5,183.8,166.4,185.6,156,187.6z"/>
</g>
<path class="st9" d="M114.3,280.6c6.8,2.3,10.7,4.5,10.7,4.5c-4.2,1.9-8.7,3.5-12.8,4.8c-1.5,6.2-2.7,10.8-2.7,10.8
	c-2-3.1-3.7-5.9-5.3-8.5c-6,1.6-10.3,2.5-10.3,2.5c1.5-4.2,3.5-7.7,5.7-10.6c-2.6-4.9-3.8-7.6-3.8-7.6c3.4,0.4,6.5,1,9.4,1.6
	c5.7-4.9,10.9-6.6,10.9-6.6C115.6,274.3,115,277.5,114.3,280.6z"/>
<path class="st9" d="M427.9,301c11-1.1,16.9-1.3,16.9-1.3c-3,4.4-6.1,8.5-9.2,12.1c5.5,10.2,5.2,18.3,5.2,18.3
	c-5-2.2-10.5-4.6-15.9-7.2c-8.8,8.3-15.6,12.4-15.6,12.4c-0.7-6.7-0.8-13.6-0.5-20c-10.7-5.1-18.7-9.1-18.7-9.1
	c7.1-1.2,13.7-2.2,19.5-3c0.9-9.1,2.1-15.3,2.1-15.3C418.6,292,423.9,296.5,427.9,301z"/>
<path class="st9" d="M445.1,187.6c-6.4,8.4-15.2,17-25.2,21.1c-2.5,8.1-10.1,19.5-10.1,19.5s-9.4-11.6-13-16
	c-14,2.9-21.2,1.6-29.9,0.5c6.9-8,11.6-12.8,18.2-18.8c-8.5-11.5-16.2-24.1-16.2-24.1c8.3,5.4,24.4,8.1,31.4,11
	c14.5-11.9,21.4-15.1,21.4-15.1c1.4,9.4,0.8,15,0.3,22.3C434.7,190.2,445.1,187.6,445.1,187.6z"/>
<path class="st9" d="M203,68.4c5.1,2.8,7.8,6.2,7.8,6.2c-2.2,0.4-4.7,0.8-7.2,1.1c0.2,5.6-0.4,9.1-0.4,9.1c-2.5-2.6-4.9-5.4-7-8.1
	c-4.9,0.6-8.6,1-8.6,1c1.7-2.3,3.3-4.4,4.8-6.2c-2.8-4-4.6-6.8-4.6-6.8c3.5,0,6.6,0.5,9.3,1.3c2.9-3.2,4.6-4.8,4.6-4.8
	C202.2,63.6,202.7,66.1,203,68.4z"/>
<path class="st9" d="M353.8,91c1.8-1.9,3.6-3.8,5.4-5.7c1.8-2,3.6-3.9,5.3-5.7c0,0-7.1-1.7-17.4-0.7c-1.3,0.1-2.6,0.3-4,0.5
	c-1.6-1.5-3.3-3.1-5.1-4.7c-2.2-2-4.5-3.9-7-5.9c0,0-0.1,1-0.4,2.8c-0.3,2.4-0.6,6.2-0.9,11.4c-5.7,2.2-11.6,5.5-17.5,10.2
	c0,0,6.8,2.5,16.9,5.5c-0.1,5,0,10.6,0.1,16.8c0,0,5.8-5.6,13.4-13.2c7.2,1.8,14.9,3.4,22.6,4.4C365.2,106.8,361.6,100.2,353.8,91z"
	/>
<g>
	<path class="st10" d="M344.3,96.7c-7.5,7.5-13.4,13.2-13.4,13.2c-0.2-6.2-0.2-11.8-0.1-16.8c-5.4-1.6-9.8-3-12.8-4
		c-2,1.3-3.9,2.7-5.9,4.2c0,0,6.8,2.5,16.9,5.5c-0.1,5,0,10.6,0.1,16.8c0,0,5.8-5.6,13.4-13.2c7.2,1.8,14.9,3.4,22.6,4.4
		c0,0-1.4-2.5-4.2-6.6C355.2,99.2,349.6,98,344.3,96.7z"/>
	<path class="st10" d="M364.5,79.6c0,0-1.1-0.3-3-0.5c-0.2,0.2-0.3,0.4-0.5,0.5c-1.8,1.9-8.5,7.8-10.3,9.7c0.6,0.7,1.2,1.4,1.7,2.1
		c0.7-0.7,6.2-5.4,6.9-6.1C361,83.3,362.8,81.4,364.5,79.6z"/>
	<path class="st10" d="M331.4,77.4c0.2-3.1,0.4-5.6,0.6-7.7c-0.3-0.3-0.7-0.6-1-0.8c0,0-0.1,1-0.4,2.8c-0.2,1.5-0.4,3.6-0.6,6.3
		C330.4,77.8,330.9,77.6,331.4,77.4z"/>
</g>
<path class="st8" d="M317.8,158.7c0.2-0.5,1.7-3.5,11.2,0.9c0,0-1.9,3.3-5.1,6.3c0,0,11,3.5,15.8,7.7c0,0-8.1,2.6-10.2,4.8
	c0,0,16.2,4.3,23.9,3.9c0,0-1.5,6.4-4.4,11.6c0,0,4.7-2.3,7-5c0,0,2.8,8.3,0.6,11.4c0,0,5,0.5,6.9-3.4c-0.3,0.7-6.4,16-34.7,1.7
	c-5.2-2.6-9-6.2-11.9-10.3v-1.6c-0.2-0.2-0.7-0.3-1.3-0.3c-5.1-8.6-5.9-18.7-4.6-25.3c2-10.5,8.3-18,8.3-18S319.7,150.8,317.8,158.7
	z"/>
<path class="st8" d="M377.9,122.2c15.1,7.1,25.5,24.7,19.2,38.9c0,0-8.1,4.4-12.6,2.6c0,0,1.8-10.3,0.7-15.4l-22.7,7.4
	c0,0,7.9-9.4,6.4-16.6c-1.5-7.2-19.4,11.8-19.4,11.8l-3.1-9.2c0,0-5.9,6-5.9,9.3c0,0-4-2.2-6.7-6.4l-2.5,5c0,0-3.8-3.7-4.3-6.3
	l-3.2,3.7l-4.2-4C327.5,124.9,358.5,113.1,377.9,122.2z"/>
<path class="st11" d="M263,148.9l11.7,13.2c0,0-3.3,6.4-10,6.4c-9.2-0.1-11.9-2.5-11.9-2.5L263,148.9z"/>
<path class="st11" d="M290.5,45.7c-8.2-6.5-18.9-10.2-30.7-10.2c-7.7,0-15.1,1.9-21.7,5.3c-30.8,15.9-42.5,64.9,24.9,108.1
	C317.7,108.5,315.1,65,290.5,45.7z"/>
<path class="st12" d="M379.8,390.8c0,0,25.9,28.9,24.8,32.2c-7.5,22.4-47.3,46.4-59.2,45.4c-14.3-1.2-33.6-31.7-35.7-61.8
	c-0.4-6.2,20.2-20.3,20.2-20.3s22.6,32.9,24.5,32.6C358,418.4,379.8,390.8,379.8,390.8z"/>
<path class="st9" d="M300.9,473.8c0.2,9.9-43.5,15.8-46.7,4.8s-4.5-75.1,16.5-75.1C294.8,403.6,300.7,463.9,300.9,473.8z"/>
<path class="st13" d="M212.6,389.8c15.2,4.8,23.7,34.6,14.9,76c-1.7,8.1-9.2,13.7-17.4,12.9c-5.2-0.5-11.4-2.2-18.1-6.1
	c-5.3-3.1,9.9-24.7-9.4-24.9c-10.4-0.1-15.8,18.9-20.8,16.6c-5.4-2.5-10.8-5.8-16.2-10c-4.2-3.3-5.7-8.9-3.6-13.8
	c4.2-9.8,12.6-26.3,25.4-36.7C178.3,394.9,197,384.8,212.6,389.8z M201.1,421.2c1.8-9.3-4.6-11.3-13.4-4.9
	C181.7,420.6,198.6,434.4,201.1,421.2z"/>
<path class="st14" d="M177.5,372.1c0,0-7,10.5-17.3,14c-5.9,2-28.6-20.1-29.5-19.1c-1.9,2.1-8.2,11.6-8.2,11.6s28.1,15.7,26,17.8
	c-5.3,5.6-10.3,10.3-13.3,11.8c0,0-8.2-3.3-14.1-6c-3.2-1.5-7.8-5.7-10.5-3.5c-7,5.8,4.8,38,4.8,38s-15.8,1.6-24.2-12.6
	c-7.1-12-7.5-38.9-2.7-51.8c18.6-49.1,44-35.3,44-35.3S168.8,348.2,177.5,372.1z"/>
<path class="st15" d="M345.5,459.9c-13.5-1.1-31.3-28.2-35.1-56.6c-0.4,1.2-0.6,2.3-0.5,3.2c2.1,30.2,21.3,60.6,35.7,61.8
	c11.8,1,51.7-23,59.2-45.4c0.2-0.7-0.3-2.5-1.5-4.9C393,439.4,356.7,460.9,345.5,459.9z"/>
<path class="st16" d="M379.8,390.8c0,0,25.4,30.2,24.8,32.2c-7.5,22.4-47.3,46.4-59.2,45.4c-14.3-1.2-33.6-31.7-35.7-61.8
	c-0.4-6.2,20.2-20.3,20.2-20.3s22.6,32.9,24.5,32.6C356.5,418.6,379.8,390.8,379.8,390.8z"/>
<path class="st17" d="M256.3,469.5c-0.8-2.9-1.5-9.5-1.6-17.5c-0.2,11.6,0.6,21.9,1.6,25.6c3,10.6,42.9,4.9,42.8-4.6
	c0-1.3-0.1-3.6-0.4-6.4C294.6,475,259.2,479.4,256.3,469.5z"/>
<path class="st18" d="M300.9,473.8c0.2,9.9-43.5,15.8-46.7,4.8s-4.5-75.1,16.5-75.1C294.8,403.6,300.7,463.9,300.9,473.8z"/>
<g>
	<path class="st19" d="M193.9,455.6c1.2-6.5-0.5-16.1-11.4-16.2c-10.4-0.1-15.8,18.9-20.8,16.6c-5.4-2.5-10.8-5.8-16.2-10
		c-1.7-1.3-3-3.1-3.7-5c-1.9,4.8-0.4,10.3,3.7,13.4c5.4,4.3,10.9,7.5,16.2,10c5,2.3,10.4-16.7,20.8-16.6
		C188.5,447.8,192.9,452.6,193.9,455.6z"/>
	<path class="st19" d="M183.9,410.4c-1.7,2.4-1.6,8.3,0.9,10.8c1.2-0.8,6.7-7.3,7.7-7.7c1.9-0.8,3.6-1.1,4.9-0.9
		c1.4,0.2,4.4,9.8,5.1,10.9c0.2-0.6,1.7-6.2,0.6-12.2C201.4,402.1,190.8,400.8,183.9,410.4z"/>
	<path class="st19" d="M224.8,458.1c-1.7,8.1-6.6,13-14.8,12.2c-5.2-0.5-11.4-2.2-18.1-6.1c-0.1-0.1-0.2-0.2-0.3-0.2
		c-0.8,4-1.6,7.5,0.3,8.7c6.7,3.9,12.9,5.6,18.1,6.1c8.2,0.8,15.7-4.8,17.4-12.9c2.8-13.3,1.5-27.7,1.1-38.1
		C228.3,436.1,226.9,448.3,224.8,458.1z"/>
</g>
<path class="st20" d="M212.6,389.8c15.2,4.8,23.7,34.6,14.9,76c-1.7,8.1-9.2,13.7-17.4,12.9c-5.2-0.5-11.4-2.2-18.1-6.1
	c-5.3-3.1,9.9-24.7-9.4-24.9c-10.4-0.1-15.8,18.9-20.8,16.6c-5.4-2.5-10.8-5.8-16.2-10c-4.2-3.3-5.7-8.9-3.6-13.8
	c4.2-9.8,12.6-26.3,25.4-36.7C178.3,394.9,197,384.8,212.6,389.8z M201.1,421.2c1.8-9.3-4.6-11.3-13.4-4.9
	C181.7,420.6,198.6,434.4,201.1,421.2z"/>
<g>
	<path class="st21" d="M91.3,415.7c-3.5-5.9-5.4-15.5-5.8-25.2c-0.5,12.2,1.3,25.9,5.8,33.6c8.4,14.2,24.2,12.6,24.2,12.6
		s-1.3-3.5-2.8-8.4C107.9,428.1,97.6,426.3,91.3,415.7z"/>
	<path class="st21" d="M144.6,392.1c-3.7,3.7-7,6.6-9.3,7.7c0,0-8.2-3.3-14.1-6c-3.2-1.5-8.5-6.3-10.5-3.5
		c-8.7,12.2-1.9,19.4-1.2,24.9c0.3-1.6-4.2-11.9,1.2-16.5c2.7-2.3,7.3,2,10.5,3.5c5.9,2.7,14.1,6,14.1,6c3-1.5,8-6.2,13.3-11.8
		C149.1,395.8,147.4,394.2,144.6,392.1z"/>
	<path class="st21" d="M160.2,377.7c-5.9,2-31.8-23.1-32.7-22.1c-1.9,2.1-8.2,11.6-8.2,11.6c-5.1,8.1-1.8,12.7,3.3,13.1
		c1.6-2.3,7.2-12.3,8.1-13.3c0.9-1,23.6,21.1,29.5,19.1c10.3-3.5,17.3-14,17.3-14c-0.7-1.8-1.5-3.6-2.5-5.3
		C172.1,370.2,166.8,375.4,160.2,377.7z"/>
</g>
<path class="st22" d="M177.5,372.1c0,0-7,10.5-17.3,14c-5.9,2-28.6-20.1-29.5-19.1c-1.9,2.1-8.2,11.6-8.2,11.6s28.1,15.7,26,17.8
	c-5.3,5.6-10.3,10.3-13.3,11.8c0,0-8.2-3.3-14.1-6c-3.2-1.5-7.8-5.7-10.5-3.5c-7,5.8,4.8,38,4.8,38s-15.8,1.6-24.2-12.6
	c-7.1-12-7.5-38.9-2.7-51.8c18.6-49.1,44-35.3,44-35.3S168.8,348.2,177.5,372.1z"/>
<path class="st23" d="M259.1,178.6c14.5,1.6,16,15,16,15s-6.1,17.6-6.9,25.2c-0.6,5.7-1.1,30.4-1.3,43.1
	c-10.2-4.8-22.5-9.7-36.4-13.5c6.3-22.6,7.9-41.3,6.5-48.5C235.4,191.6,244.6,177,259.1,178.6z"/>
<path class="st24" d="M266.9,262c0.2-12.6,0.7-37.4,1.3-43.1c0.6-5.6,4-16.6,5.8-22.1c-3.9,1.8-7.6,5.6-10.2,12.7
	c-6,16.3-10.6,35.7-12.7,45.7C256.8,257.4,262.1,259.7,266.9,262z"/>
<path class="st25" d="M266.9,262c18.8,8.9,30.1,17.2,30.1,17.2s22.8-26.5,38.3-24.8c15.4,1.6,33.7,23.8,41.9,37.7
	c8.2,13.9-3.4,34.5-18.8,33.4c-15.4-1.2-10.8-15.9-23.9-18.4c-13.1-2.5-21.1,26.9-21.1,26.9c4.5,9.1,14.4,29.5,10.2,46.7
	c-3.4,14-18.9,25.3-32.4,31.2c-30.1,13.1-36.3-16.4-33.6-22.9c2.7-6.6,22.2-9.1,23-17.3c0.8-8.2-39.6-37.7-39.6-37.7
	s-30.4,34.3-28,46c2.1,10.7-4.2,21.3-14.8,8.6c-3.6-4.3-6.3,7.2-10.1,9.8c-8,5.4-32.4-12.6-18-29.8c14.4-17.2,36.9-49.2,36.9-49.2
	s-30,4.3-43.9-14.6c-13.9-18.8-7.1-51.1,6.4-58c13.6-6.9,27.7-6.5,54.7,0c2.1,0.5,4.3,1.1,6.3,1.7
	C244.4,252.3,256.7,257.2,266.9,262z"/>
<path class="st24" d="M257.5,388.9c-2.7,6.6,3.6,36.1,33.6,22.9c6-2.6,12.5-6.4,18.1-11c-2.4,0.8-4.8,1.7-6.9,3
	c-16.2,9.8-33.9-10.9-21.2-18.6c12.6-7.7,15.6-17.5-8.6-45.6c-7.9-9.2-16.6-15.5-25.6-20.1c-3.3-1.7-12.7-2.1-16.4,1.8
	c-6.3,6.7-16.1,17.8-25.4,27.9c-6.7,7.3-13,24.6-17.5,28.7c-15,13.6-20.5,0-13-10.7c2.1-3,44.6-57.3,41-58.1
	c-8.8-1.9-17.7-3.4-26.2-5.3c-28-6.3-33.2-15.6-28-48.9c-7.5,12.7-9.1,35.2,1.7,49.7c13.9,18.8,43.9,14.6,43.9,14.6
	s-22.5,32-36.9,49.2c-14.4,17.2,10,35.2,18,29.8c3.7-2.5,6.5-14,10.1-9.8c10.7,12.7,16.9,2,14.8-8.6c-2.3-11.7,28-46,28-46
	s40.4,29.5,39.6,37.7C279.6,379.9,260.1,382.4,257.5,388.9z"/>
<path class="st24" d="M331.4,287.9c-10.3,0-29.2,30.4-29.2,30.4l9.9,18.9c0,0,9.1-32.6,22.2-30.2c13.1,2.5,8.5,17.2,23.9,18.4
	c6.1,0.4,11.6-2.5,15.5-7.1C356.2,338.3,346.3,287.9,331.4,287.9z"/>
<g>
	<polyline class="st26" points="263,148.9 281,158.2 249.6,168.9 277.6,178.7 254.9,192.4 	"/>
	<polyline class="st26" points="206.8,165 220.7,166.5 207.6,179.2 230,175.3 217.5,184.9 238.5,182.1 236.8,190.3 254.9,192.4 	"/>
</g>
<g>
	<path class="st26" d="M288.6,211.9l-24.4-8.4L288.6,211.9z"/>
	<polyline class="st26" points="317.1,186.6 287,177.5 303.2,207.7 277.8,197.7 281,203.5 288.6,211.9 	"/>
	<path class="st27" d="M246.8,209.1c0-16,15.4-23.6,22.7-18.7c4.5,3-3.8,8-6.3,14.1l17.8,23l-9.6,18.3l26.6-6.5l-9.4,11.3"/>
	<polyline class="st26" points="263.2,204.5 281,218.6 260.4,223.6 275,229.6 260.4,239.4 	"/>
</g>
<path class="st28" d="M214.6,251.7c4.9,3.5,6,20.4,3.9,31.3c-1.5,7.7-11.3,9.5-23.1,9.6c-11.4,0.1-24.6-1.2-26.8-11
	c-1.3-5.8-2.4-19.5,3.1-28.7c2.3-3.9,8.6-6.8,22.4-6.8C202.7,246.2,211.3,249.3,214.6,251.7z"/>
<g>
	<path class="st29" d="M189.1,253.4c7.1-1.1,12.3,1.6,12.3,1.6"/>
	<path class="st30" d="M180.4,256.1C180.7,256,179.7,256.5,180.4,256.1"/>
</g>
<path class="st31" d="M259.1,178.6c14.5,1.6,16,15,16,15s-6.1,17.6-6.9,25.2c-0.6,5.7-1.1,30.4-1.3,43.1
	c-10.2-4.8-22.5-9.7-36.4-13.5c6.3-22.6,7.9-41.3,6.5-48.5C235.4,191.6,244.6,177,259.1,178.6z"/>
<path class="st31" d="M266.9,262c18.8,8.9,30.1,17.2,30.1,17.2s22.8-26.5,38.3-24.8c15.4,1.6,33.7,23.8,41.9,37.7
	c8.2,13.9-3.4,34.5-18.8,33.4c-15.4-1.2-10.8-15.9-23.9-18.4c-13.1-2.5-21.1,26.9-21.1,26.9c4.5,9.1,14.4,29.5,10.2,46.7
	c-3.4,14-18.9,25.3-32.4,31.2c-30.1,13.1-36.3-16.4-33.6-22.9c2.7-6.6,22.2-9.1,23-17.3c0.8-8.2-39.6-37.7-39.6-37.7
	s-30.4,34.3-28,46c2.1,10.7-4.2,21.3-14.8,8.6c-3.6-4.3-6.3,7.2-10.1,9.8c-8,5.4-32.4-12.6-18-29.8c14.4-17.2,36.9-49.2,36.9-49.2
	s-30,4.3-43.9-14.6c-13.9-18.8-7.1-51.1,6.4-58c13.6-6.9,27.7-6.5,54.7,0c2.1,0.5,4.3,1.1,6.3,1.7
	C244.4,252.3,256.7,257.2,266.9,262z"/>
<path class="st29" d="M281,53.8c16.3,7.3,17.7,33.6,10.7,43.2"/>
<path class="st29" d="M267.6,46.6c0.7,0.2,1.4,0.4,2.1,0.6"/>
<path class="st29" d="M167.1,86.5c2.9-0.8,6.4,0,6.4,0"/>
<path class="st29" d="M184.3,89.2c7.8,2.5,10.6,21.4,15.2,26.3"/>
<path class="st29" d="M342.6,129.9c10.9-6.7,34.4-8.4,43.5,5.3"/>
<path class="st32" d="M168.9,168.8c22.7,12.1,31.6,23.6,31.6,23.6c-14.4,3.8-29.4,7.1-43.5,9.8c-8.5,23.2-15.5,41.3-15.5,41.3
	c-5.5-13.3-10.1-25.4-14-36.2c-19.9,3.2-48.4-3.2-48.4-3.2c8.3-6.1,29.7-17.3,38.2-26.2c-6.2-19.2-8.6-29.7-8.6-29.7
	c12.8,2.6,24.1,5.7,33.9,9.2c19-11.6,34.7-14,34.7-14C174.8,151.4,171.9,160.1,168.9,168.8z"/>
<g>
	<path class="st10" d="M418.9,188.7c0.6,0.1,1.2,0.2,1.8,0.3c0.2-4.4,2-17.3,1.1-23.4c0,0-0.2,0.1-0.6,0.3
		C421.4,171.1,419.2,183.7,418.9,188.7z"/>
	<path class="st10" d="M436.1,188.7c-5.1,5.2-11.1,9.7-17.6,12.4c-2.5,8.1-10.1,19.5-10.1,19.5s-9.4-11.6-13-16
		c-10,2.1-16.5,2-22.5,1.4c-1.9,2-3.8,4.2-6,6.7c8.6,1,15.8,2.4,29.9-0.5c3.6,4.4,13,16,13,16s7.6-11.4,10.1-19.5
		c10.1-4.1,18.8-12.8,25.2-21.1C445.1,187.6,441.6,188.5,436.1,188.7z"/>
	<path class="st10" d="M386.4,194.9c0.8-0.7,1.6-1.5,2.5-2.3c-3.5-4.8-11.9-16-14.6-20.1c-1.9-0.8-3.7-1.7-5.2-2.7
		C369,169.8,379.5,185.1,386.4,194.9z"/>
</g>
<g>
	<path class="st10" d="M200.9,64.4c0.6,0.3,1.1,0.6,1.6,1c-0.2-1.4-0.5-2.8-0.9-4.3c0,0-0.4,0.4-1.1,1.1
		C200.6,62.9,200.8,63.7,200.9,64.4z"/>
	<path class="st10" d="M210.8,74.6c0,0,1-0.3-1.6-2.3c-1.7,0.3-5.7,1.4-7.5,1.7c0.2,5.6,0.9,5.7,0.9,5.7c-2.5-2.6-3.7-3.3-5.9-6
		c-1.1,0.1-4.9,1.1-5.8,1.2c-1.1,1.4-2,1.1-3.2,2.7c0,0,3.7-0.4,8.6-1c2.1,2.7,4.5,5.5,7,8.1c0,0,0.6-3.4,0.4-9.1
		C206.1,75.3,208.6,74.9,210.8,74.6z"/>
	<polygon class="st10" points="190.8,74.9 195.4,70.4 189.8,65.3 192.4,71.4 	"/>
	<path class="st10" d="M189.9,67.9c0.1-0.1,0.2-0.3,0.3-0.4c-0.7-1-1.4-2-2-2.8c-0.2,0-0.3,0-0.5,0
		C187.8,64.6,188.6,65.9,189.9,67.9z"/>
</g>
<g>
	<path class="st10" d="M115.3,271.8c-0.3,1.6-0.7,3.2-1,4.8c0.3,0.1,0.5,0.2,0.8,0.3c0.4-1.8,0.8-3.7,1.1-5.4
		C116.2,271.5,115.8,271.6,115.3,271.8z"/>
	<path class="st10" d="M111.3,286.1c-1.5,6.2-1.8,7.8-1.8,7.8c-2-3.1-2.6-3.4-4.1-6c-3.6,1-7.7,1.9-9.5,2.3
		c-0.7,1.4-1.3,2.8-1.9,4.4c0,0,4.2-0.8,10.3-2.5c1.5,2.6,3.3,5.4,5.3,8.5c0,0,1.2-4.7,2.7-10.8c4.2-1.3,8.6-2.9,12.8-4.8
		c0,0-1.6-0.9-4.5-2.2C117.7,284,114,285.2,111.3,286.1z"/>
	<path class="st10" d="M101.9,283.4c-0.7-1.3-3.6-5.7-4.1-6.7c-0.7-0.1-1.3-0.2-2-0.3c0,0,3.2,5.2,4.9,8.7
		C101.1,284.6,101.5,284,101.9,283.4z"/>
</g>
<g>
	<path class="st10" d="M410.9,310c-3.7-1.8-9.2-3.9-12-5.2c-2.8,0.4-5.8,0.9-8.9,1.4l18,8.8c0,0-2.1,12.2,2,14.1
		C410,327.1,410.9,311.9,410.9,310z"/>
	<path class="st10" d="M432.4,308.6c0.7,1.3,1.3,2.5,1.8,3.7c2.5-3.1,8.2-9,10.6-12.6c0,0-1.5,0.1-4.3,0.2
		C438.8,302,434.1,306.7,432.4,308.6z"/>
	<path class="st10" d="M424.9,317.1c-8.8,8.3-15.6,12.4-15.6,12.4c-0.4-3.4-0.5-6.9-0.6-10.3c-0.1,5.3,0.1,10.8,0.6,16.1
		c0,0,6.8-4.1,15.6-12.4c5.4,2.5,10.9,5,15.9,7.2c0,0,0.1-2.4-0.7-6.1C435.2,321.9,430.1,319.5,424.9,317.1z"/>
</g>
<path class="st32" d="M114.3,280.6c6.8,2.3,10.7,4.5,10.7,4.5c-4.2,1.9-8.7,3.5-12.8,4.8c-1.5,6.2-2.7,10.8-2.7,10.8
	c-2-3.1-3.7-5.9-5.3-8.5c-6,1.6-10.3,2.5-10.3,2.5c1.5-4.2,3.5-7.7,5.7-10.6c-2.6-4.9-3.8-7.6-3.8-7.6c3.4,0.4,6.5,1,9.4,1.6
	c5.7-4.9,10.9-6.6,10.9-6.6C115.6,274.3,115,277.5,114.3,280.6z"/>
<path class="st32" d="M427.9,301c11-1.1,16.9-1.3,16.9-1.3c-3,4.4-6.1,8.5-9.2,12.1c5.5,10.2,5.2,18.3,5.2,18.3
	c-5-2.2-10.5-4.6-15.9-7.2c-8.8,8.3-15.6,12.4-15.6,12.4c-0.7-6.7-0.8-13.6-0.5-20c-10.7-5.1-18.7-9.1-18.7-9.1
	c7.1-1.2,13.7-2.2,19.5-3c0.9-9.1,2.1-15.3,2.1-15.3C418.6,292,423.9,296.5,427.9,301z"/>
<path class="st32" d="M445.1,187.6c-6.4,8.4-15.2,17-25.2,21.1c-2.5,8.1-10.1,19.5-10.1,19.5s-9.4-11.6-13-16
	c-14,2.9-21.2,1.6-29.9,0.5c6.9-8,11.6-12.8,18.2-18.8c-8.5-11.5-16.2-24.1-16.2-24.1c8.3,5.4,24.4,8.1,31.4,11
	c14.5-11.9,21.4-15.1,21.4-15.1c1.4,9.4,0.8,15,0.3,22.3C434.7,190.2,445.1,187.6,445.1,187.6z"/>
<path class="st32" d="M203,68.4c5.1,2.8,7.8,6.2,7.8,6.2c-2.2,0.4-4.7,0.8-7.2,1.1c0.2,5.6-0.4,9.1-0.4,9.1c-2.5-2.6-4.9-5.4-7-8.1
	c-4.9,0.6-8.6,1-8.6,1c1.7-2.3,3.3-4.4,4.8-6.2c-2.8-4-4.6-6.8-4.6-6.8c3.5,0,6.6,0.5,9.3,1.3c2.9-3.2,4.6-4.8,4.6-4.8
	C202.2,63.6,202.7,66.1,203,68.4z"/>
<path class="st32" d="M353.8,91c1.8-1.9,3.6-3.8,5.4-5.7c1.8-2,3.6-3.9,5.3-5.7c0,0-7.1-1.7-17.4-0.7c-1.3,0.1-2.6,0.3-4,0.5
	c-1.6-1.5-3.3-3.1-5.1-4.7c-2.2-2-4.5-3.9-7-5.9c0,0-0.1,1-0.4,2.8c-0.3,2.4-0.6,6.2-0.9,11.4c-5.7,2.2-11.6,5.5-17.5,10.2
	c0,0,6.8,2.5,16.9,5.5c-0.1,5,0,10.6,0.1,16.8c0,0,5.8-5.6,13.4-13.2c7.2,1.8,14.9,3.4,22.6,4.4C365.2,106.8,361.6,100.2,353.8,91z"
	/>
</svg>
