<?xml version="1.0" encoding="utf-8"?>
<!-- Generator: Adobe Illustrator 25.4.1, SVG Export Plug-In . SVG Version: 6.00 Build 0)  -->
<svg version="1.1" id="artwotk" xmlns="http://www.w3.org/2000/svg" xmlns:xlink="http://www.w3.org/1999/xlink" x="0px" y="0px"
	 viewBox="0 0 512 512" style="enable-background:new 0 0 512 512;" xml:space="preserve">
<style type="text/css">
	.st0{fill:#FFFFFF;stroke:#D2D2D2;stroke-miterlimit:10;}
	.st1{fill:#AAAAAA;}
	.st2{fill:#FFFFFF;}
	.st3{fill:#89FFFF;}
	.st4{fill:#BBFFFF;}
	.st5{fill:#E5E5FF;}
	.st6{fill:#7BE5FF;}
	.st7{fill:#49FFFF;}
	.st8{fill:#C46390;}
	.st9{fill:#6A6390;}
	.st10{fill:#3F3F3F;}
	.st11{fill:#223F3F;}
	.st12{fill:#FFFF45;}
	.st13{fill:#5A5A64;}
</style>
<path class="st0" d="M491.7,208.7c-0.6-1.7-1.6-3.3-2.9-4.4c0.3-1.1,0.3-2.3,0.2-3.5c-0.2-1.7-0.9-3.3-1.9-4.7
	c0.2-1.1,0.3-2.2,0.1-3.3c-0.4-3.3-2.5-6.2-5.5-7.7l-13.4-6.5c-0.5-0.6-0.9-1.1-1.4-1.7c-4.1-5-9.2-9.4-15-13.3
	c-5.3-3.5-10.8-6.3-16.9-8.5c-0.1,0-0.1,0-0.2-0.1c-5.8-2-11.9-3.4-17.9-4c-0.3,0-0.8-0.1-1.1-0.1c-1.2,0-2.3,0.2-3.4,0.5
	c-1.9-0.1-3.9-0.2-5.8-0.2c-7.7,0-15.6,1-23.4,2.9c-11.4,2.8-21.8,7.3-30.8,13.4c-10.4,6.9-18.9,16-24.4,26.4
	c-3,5.6-5.2,11.6-6.4,17.9c-0.9,4.5-1.3,9.1-1.2,13.7c-0.6,1.4-0.8,3-0.7,4.6c0.7,10.7,3.7,21.4,9,32.7c4.1,8.7,9.3,17.3,15.9,26.2
	c1,1.4,2,2.7,2.9,3.9c0.5,0.6,1,1.3,1.5,2c0.1,0.1,0.1,0.2,0.2,0.3l4.3,5.2c2.5,3.1,4.8,6.1,6.8,9.1c2,3.1,3.9,6.2,5.5,9.3
	c1.5,3,2.8,6.1,3.8,9.2c1.8,5.8,2.4,11.2,1.7,15.1c0,0.1,0,0.1,0,0.2c-0.2,1.1-0.5,2.1-0.8,2.8c-7.8-12.2-18.6-23.4-31.5-32.8
	c-1.8-1.3-3.7-2.6-5.5-3.9c-18.6-13.3-33.5-24-49.6-55.9c5.3-1.7,9.3-6.1,10.3-11.6c0.8-2.1,1.2-4.4,1.2-6.7V234
	c0-2.3-0.4-4.5-1.2-6.7c-0.1-0.7-0.3-1.3-0.5-1.9c22.7-23.9,35.2-55.1,35.2-88.2c0-34.2-13.3-66.3-37.5-90.4
	C267.7,23,234.7,9.3,201,9.3c-7.6,0-15.3,0.7-22.8,2c-1.4,0.2-2.6,0.8-3.7,1.5c-24.1,5.1-45.9,17-63.4,34.5
	c-2.3,2.3-4.6,4.8-6.7,7.3c-2,1.2-3.5,3.1-4.3,5.3c-4.6,6-8.6,12.3-12,19c-1,0.9-1.8,2-2.4,3.2c-22.7,47.5-13.8,104.1,21.9,142.4
	c-0.2,0.5-0.4,1-0.5,1.5c-5.2,1.2-9.5,4.1-11.9,8.2c-3.3,5.6-2.4,12.5,2.2,17.6c0.9,1.8,2.2,8.8-4.7,35.6
	c-1.8,7.1-7.4,44.1,6.1,61.1c0.4,8.1,1.3,16.1,2.7,23.7l-5.3,11.6c-1.1,2.5-1.2,5.3-0.2,7.8c0.7,1.7,1.8,3.2,3.2,4.3
	c-0.2,1.1-0.2,2.3,0,3.5c0.3,1.7,1.1,3.3,2.2,4.6c-0.2,1.1-0.1,2.2,0.1,3.3c0.6,3.3,2.9,6.1,6,7.4l12.1,5.1c0.8,1.3,1.6,2.5,2.4,3.7
	c3.4,5.5,10.7,12.9,17.1,18.8c-8,1.6-15,3.4-20.6,5.4c-5.4,1.9-21.8,7.6-21.8,20.8c0,12.4,13.4,20.5,43.4,26.3
	c23.4,4.5,54.4,7,87.2,7c32.8,0,63.8-2.5,87.2-7c30-5.8,43.4-13.9,43.4-26.3c0-6.2-3.6-10.7-7.8-13.8c0.1-0.2,0.2-0.4,0.3-0.6
	c16.6-11.3,27.7-26.1,32.3-43.1c3.3-1.3,6.5-2.8,9.6-4.6c7.6-4.5,14-10.4,19.2-17.6c4.7-6.6,8.1-13.8,10-21.7
	c1.7-6.7,2.4-13.9,2.1-21.4c0,0,0-0.1,0-0.1c-0.7-11.8-4-23.3-10-35.4c-1.8-3.7-3.8-7.2-5.9-10.5c3.5,1.3,7.2,2,10.9,2
	c3.9,0,7.7-0.7,11.4-2.1l4.2-1.6c7.2-2.8,14-6.9,20.1-12.2c5.3-4.6,10-9.9,13.8-15.5c7.3-10.7,12-22.7,14.2-35.8
	c0-0.3,0.1-0.5,0.1-0.8l9-17C492.3,214.1,492.5,211.3,491.7,208.7z M388.2,275c-0.8-0.9-1.7-1.8-2.6-2.7l-4.2-4.5
	c-0.5-0.6-1-1.2-1.6-1.8c-0.8-0.9-1.5-1.7-2.2-2.6c-0.1-0.1-0.1-0.1-0.2-0.2c-2.6-3-4.9-6.2-6.9-9c-1.9-2.7-3.7-5.7-5.4-9.1
	c-3.3-6.4-5.1-12.3-5.5-17.7c-0.2-2.7,0-5.2,0.5-7.6c0.5-2.3,1.4-4.6,2.6-6.8c2.5-4.3,6.5-8.1,11.5-11.1c2.6-1.5,5.4-2.9,8.4-4
	c3-1.1,6.1-1.9,9.3-2.5c3.4-0.6,6.8-0.9,10.1-0.9c3,0,5.9,0.2,8.7,0.7c0,0,0.1,0,0.1,0c2.6,0.4,5.2,1.2,7.8,2.2
	c2.1,0.9,4.5,2.3,6.4,3.8c3.4,2.6,5.7,5.9,6.7,9.4c0.3,1.2,0.8,2.3,1.5,3.2c0.1,0.9,0.1,1.8,0.1,2.8c-0.1,2.2-0.5,4.5-1.2,6.9
	c-1.3,4.5-4,8.9-7.2,12.2c-2.8,2.8-5.6,3.9-6.4,4l-0.2,0c-3.8,0-7.7,0.7-11.1,2.1C393.6,247.3,386,261.1,388.2,275z"/>
<path d="M473.5,207.5l5.6-5.4l-6.6-3.8l4.9-4.2l-15.5-7.6c-0.8-1.1-1.6-2.2-2.5-3.2c-3.5-4.2-7.8-8-12.8-11.4
	c-4.6-3-9.4-5.5-14.8-7.4c-5.1-1.8-10.4-3-15.7-3.5c-0.5,0-0.9,0.3-0.9,0.8l0,0c-10-1-19.9-0.2-29.4,2.2c-9.7,2.4-19.1,6.3-27.6,12
	c-8.5,5.6-16.1,13.3-21.1,22.8c-2.5,4.7-4.4,9.8-5.4,15.1c-0.9,5-1.2,10-1,14.9l0,0c-0.5,0-0.8,0.4-0.8,0.9c0.7,9.5,3.3,19,8.1,29.1
	c3.8,8.1,8.7,16.2,14.9,24.6c0.9,1.2,1.8,2.4,2.7,3.5c0.5,0.7,1.1,1.4,1.6,2.1l4.4,5.3c2.7,3.4,5.1,6.6,7.4,9.9
	c2.2,3.4,4.3,6.9,6.1,10.4c1.7,3.5,3.2,7.1,4.4,10.6c2.4,7.5,3.1,14.4,2,20.1c-0.9,5.4-3.7,10.1-7.3,12.2c-1.5,0.9-3.2,1.4-4.6,1.2
	c-0.1,0-0.8-0.1-3.8-1c-7.2-13.4-18.4-25.8-32.4-35.9c-1.8-1.3-3.6-2.6-5.4-3.9c-19.7-14.1-36.7-26.3-54.7-63.6
	c-1.4-2.9-2.6-5.8-3.7-8.8h6.3c1.5,0,2.8-0.3,4.1-0.9c0,0,0,0,0,0c2.6-0.2,4.7-2.3,4.9-4.9c-0.1,0.3-0.3,0.6-0.5,1
	c0.2-0.3,0.4-0.6,0.5-1c0.6-1.2,0.9-2.6,0.9-4.1V234c0-1.5-0.3-2.8-0.9-4.1c-0.2-0.4-0.4-0.8-0.6-1.2c0.2,0.4,0.4,0.8,0.6,1.2
	c-0.2-2.6-2.2-4.7-4.8-4.9l0,0l0,0c1.8-1.6,3.3-3,4.7-4.4c22.3-22.3,34.5-51.9,34.5-83.4c0-31.5-12.3-61.1-34.5-83.4
	C257.1,26.6,218.1,14.4,180,21.2l0.1,0.7l0.1,0.7h0l-0.1-0.7h0c-22.7,4.1-44.4,14.9-62,32.5c-2.8,2.8-5.4,5.7-7.9,8.7
	c-0.3,0-0.5,0.1-0.8,0.1l0,0.8l0,0l0,0c-5.7,7.1-10.5,14.7-14.3,22.7l0,0l0,0l-0.7-0.3c-21.5,45-12.2,98.9,23,134.2
	c1.3,1.3,2.7,2.7,4.4,4.1c-0.3,0.1-0.5,0.2-0.7,0.3c-0.5,0.2-1.1,0.5-1.5,0.9c0.5-0.3,1-0.6,1.5-0.9c-2.6,0.2-4.7,2.2-4.9,4.9
	c0.5-1.1,1.2-2.1,2-2.9c-0.8,0.8-1.5,1.8-2,2.9c-0.6,1.2-0.9,2.6-0.9,4.1v1.4c0,0.1,0,0.2,0,0.4c-5-1-10,0.5-11.7,3.5
	c-1.1,1.9-0.7,4.1,1,6c6.2,6.7,2.2,26.4-2.4,44.8c-2.8,11-5.2,44.2,5.8,54.1c0.1,0.1,0.3,0.2,0.4,0.2c0.2,10.2,1.3,20,3.2,29.3
	l-6.7,14.5l9,3.8l-5.2,5.7l6.8,3.4l-4.6,4.4l15.1,6.3c1.3,2.1,2.6,4.2,4,6.3c3.7,6.3,16.5,18.3,26.5,26.6l-0.1,0.1
	c-0.3,0.4-0.2,0.9,0.2,1.2c1.5,1,3,1.9,4.6,2.9c-33.2,4.2-55.2,11.4-55.2,19.6c0,12.9,54,23.3,120.6,23.3s120.6-10.4,120.6-23.3
	c0-3.7-4.4-7.1-12.2-10.2c2.9-3.5,5.4-7.2,6.6-10.8c17.8-11.3,28.8-26.6,32-44.3c4.6-1.2,8.9-3,13-5.4c6.4-3.7,11.8-8.7,16.2-14.8
	c4-5.5,6.8-11.7,8.5-18.3c1.5-5.7,2.1-11.9,1.8-18.5c-0.6-10.4-3.6-20.7-9-31.5c-2.4-4.7-4.9-9-7.7-13c-2.6-3.9-5.6-7.9-8.8-11.7
	c-2.8-3.5-5.9-7-9.5-10.7l-4.4-4.7c-0.5-0.6-1.1-1.2-1.6-1.8c-0.8-0.9-1.7-1.9-2.5-2.9c-2.9-3.3-5.4-6.8-7.5-9.7
	c-2.2-3.1-4.2-6.5-6.2-10.3c-3.9-7.6-6.1-14.8-6.6-21.6c-0.3-3.6,0-7.2,0.7-10.5c0.7-3.3,2-6.5,3.7-9.5c3.3-5.8,8.5-10.9,15.1-14.8
	c3.1-1.9,6.5-3.5,10.1-4.8c3.5-1.3,7.2-2.3,11-2.9c7.6-1.4,15.3-1.4,22.3-0.2c3.3,0.6,6.7,1.5,10,2.9c2.9,1.3,6,3.1,8.6,5.1
	c5.1,4,8.7,9.1,10.2,14.7c0.1,0.4,0.6,0.7,1,0.6c0.7,2.7,1,5.4,0.9,8.3c-0.1,3.1-0.7,6.3-1.6,9.4c-1.8,6.2-5.4,12.1-9.8,16.4
	c-4.3,4.3-9.6,7-13.5,6.9c-2.5,0-5.2,0.4-7.6,1.4c-10.2,4-15.4,15.3-11.8,25.6l0,0c-0.4,0.2-0.7,0.7-0.5,1.1
	c2.1,5.3,6.1,9.5,11.3,11.7c2.7,1.2,5.6,1.8,8.5,1.8c2.6,0,5.2-0.5,7.7-1.5l4.2-1.6c6.2-2.4,11.9-5.9,17.2-10.4
	c4.7-4.1,8.8-8.7,12.1-13.6c6.4-9.4,10.7-20.1,12.5-31.7c0.1-0.8,0.2-1.6,0.3-2.3l9.9-18.6L473.5,207.5z M282.4,227
	c-0.7-0.7-1.6-1.3-2.5-1.8C280.9,225.7,281.7,226.3,282.4,227z"/>
<g>
	<path class="st1" d="M326.8,466.6c-5.2,4.6-11.9,7.2-18.9,7.4l-51.4,1.7l0,0c-0.2,0-0.3-0.1-0.5-0.1c-0.7-0.5-6.4-4.3-8.1-6.4
		c-0.7,0-1.5,0-2.3,0c-3.6,0-7.3-0.1-11-0.2c-12.9-0.4-25.5-2.2-37.5-5.4c-0.4,0.9-0.9,1.7-1.3,2.6c-2.5,5.2-4.7,9.6-7.8,11.9
		c-3.5,2.5-7.1,3.4-10.3,3.4c-4.6,0-8.5-1.9-10.3-4.3c-2-2.5-1.6-5.4,0.9-7.5c1.2-1,4.3-9.5,5.4-14.4c-4.2-1.9-8.3-4.1-12.2-6.4
		c-33.2,4.2-55.2,11.4-55.2,19.6c0,12.9,54,23.3,120.6,23.3s120.6-10.4,120.6-23.3c0-3.7-4.4-7.1-12.2-10.2
		C332.6,461.4,329.6,464.3,326.8,466.6z"/>
	<path class="st2" d="M172.5,276.8c-28.7-1.8-51.4,56.5-7.9,108.3C164.6,385.1,252.3,281.9,172.5,276.8z M163.1,305.1l-6.2,5.9
		l4.9,5.1c0.2,0.2,0.3,0.5,0.2,0.8c-0.1,0.3-0.3,0.5-0.6,0.6l-6.9,2.2l6.4,5.9c0.2,0.2,0.3,0.4,0.3,0.7c0,0.2-0.1,0.5-0.3,0.6
		l-6.1,5.1l7.3,5.1c0.4,0.3,0.5,0.8,0.2,1.2c-0.2,0.2-0.4,0.4-0.7,0.4c-0.2,0-0.3-0.1-0.5-0.2l-8.2-5.8c-0.2-0.2-0.4-0.4-0.4-0.7
		c0-0.3,0.1-0.5,0.3-0.7l6.2-5.2l-6.8-6.2c-0.2-0.2-0.3-0.5-0.3-0.8c0.1-0.3,0.3-0.5,0.6-0.6l7-2.2l-4.6-4.7
		c-0.2-0.2-0.2-0.4-0.2-0.6c0-0.2,0.1-0.4,0.3-0.6l6.9-6.5c0.3-0.3,0.9-0.3,1.2,0C163.5,304.2,163.4,304.8,163.1,305.1z"/>
	<path class="st3" d="M284.5,239.5c-1,2.2-2.7,3.9-4.9,4.9C282.3,244.2,284.4,242.1,284.5,239.5"/>
	<path class="st3" d="M138.6,225.9h-13.3c-4.5,0-8.1,3.6-8.1,8.1v1.4c0,0.3,0,0.5,0,0.8c2.7,0.9,6.6,2.8,10.1,7.3h2.9l0,0l0,0
		c1.3-3.1,2.7-6.1,4.2-9.2h-0.1c-0.9,0-1.7-0.8-1.7-1.7l0,0l0,0c0-0.9,0.8-1.7,1.7-1.7h1.7l0,0l0,0
		C136.9,229.2,137.8,227.5,138.6,225.9"/>
	<path class="st3" d="M279.7,225.1L279.7,225.1c2.1,1,3.8,2.7,4.8,4.9C284.4,227.3,282.3,225.3,279.7,225.1"/>
	<path class="st3" d="M275.6,225.9h-5.7c-1,2.2-2.5,4.4-4.6,6.8c1,3.7,2.1,7.3,3.3,10.9h7c4.5,0,8.1-3.6,8.1-8.1V234
		C283.7,229.5,280,225.9,275.6,225.9"/>
	<path class="st3" d="M121.3,225c-2.6,0.2-4.7,2.2-4.9,4.9C117.4,227.8,119.1,226,121.3,225"/>
	<path class="st3" d="M238.5,225h-20.8c0.1,0.6,0.2,1.3,0.2,1.9c0,2.2-0.7,4.4-2,6.4l0.1,0c3.1,1.9,6,2.5,8.4,2.5
		c3.5,0,6.3-1.4,7.9-2.5C235.3,231.3,237.5,228.1,238.5,225"/>
	<path class="st3" d="M246.8,225h-6.5c-1,3.6-3.5,7.4-7,9.8c-1.9,1.3-4.9,2.9-8.9,2.9c-2.7,0-5.9-0.7-9.3-2.8
		c-0.1-0.1-0.2-0.1-0.3-0.2c-0.4,0.4-0.8,0.8-1.2,1.2c-3.1,2.8-7.4,4.3-12.2,4.3c-2.6,0-5.3-0.4-8-1.3c-0.4-0.1-0.6-0.5-0.6-0.8
		c0-0.1,0-0.2,0-0.3c0.1-0.4,0.5-0.6,0.8-0.6c0.1,0,0.2,0,0.3,0c2.5,0.8,5,1.2,7.4,1.2c4.3,0,8.2-1.3,11-3.8
		c2.4-2.2,3.6-4.8,3.6-7.6c0-0.6-0.1-1.3-0.2-1.9h-34.6H157c0,0.1,0,0.2,0,0.4c0,1.9,0.4,3.7,1.2,5.5h11.3c0.9,0,1.7,0.8,1.7,1.7
		l0,0l0,0c0,0.9-0.8,1.7-1.7,1.7h-9c2.3,2.5,5.5,4,9,4.1l0,0l0,0l-0.1,1.7c-4.5-0.2-8.5-2.3-11.2-5.8H148c-0.9,0-1.7-0.8-1.7-1.7
		l0,0l0,0c0-0.9,0.8-1.7,1.7-1.7h8.3c-0.7-1.8-1.1-3.7-1.1-5.5c0-0.1,0-0.2,0-0.3h-9.6v0l0,0c0,0.5-0.4,0.9-0.9,0.9h-6.2l0,0l0,0
		c-0.9,1.7-1.7,3.3-2.5,5h0.3c0.9,0,1.7,0.8,1.7,1.7l0,0l0,0c0,0.9-0.8,1.7-1.7,1.7h-2l0,0l0,0l0,0l0,0c-1.5,3.1-2.9,6.1-4.2,9.2
		h136.5c-1.1-3.1-2-6.2-2.9-9.4l-0.1,0.1l-1.2-1.2l0,0c0.3-0.3,0.5-0.5,0.8-0.8c-0.6-2.1-1.1-4.2-1.6-6.3l-14.2,0
		C247.1,225.9,246.8,225.5,246.8,225"/>
	<path class="st3" d="M263.6,225.9c0.4,1.6,0.8,3.2,1.2,4.8c1.4-1.7,2.4-3.2,3.2-4.8L263.6,225.9"/>
	<path class="st4" d="M157.7,46c-0.6,0-1.3-0.4-1.6-1c-0.4-0.9,0-1.9,0.8-2.3c0.3-0.2,0.7-0.3,1-0.5c0.2-0.1,0.5-0.2,0.7-0.2
		c0.6,0,1.3,0.4,1.6,1c0.4,0.9,0,1.9-0.8,2.3c-0.3,0.2-0.7,0.3-1,0.5C158.2,45.9,157.9,46,157.7,46 M166.8,42.2
		c-0.7,0-1.4-0.4-1.6-1.1c-0.3-0.9,0.1-1.9,1-2.2l0.9-0.3c0.2-0.1,0.4-0.1,0.6-0.1c0.7,0,1.4,0.4,1.6,1.2c0.3,0.9-0.2,1.9-1.1,2.2
		l-0.9,0.3C167.2,42.2,167,42.2,166.8,42.2 M176.2,39.3c-0.8,0-1.5-0.5-1.7-1.3c-0.2-0.9,0.3-1.9,1.2-2.1c0.5-0.1,0.9-0.2,1.4-0.3
		c0.1,0,0.3,0,0.4,0c0.8,0,1.5,0.5,1.7,1.3c0.2,0.9-0.4,1.8-1.3,2.1c-0.5,0.1-0.9,0.2-1.4,0.3C176.5,39.3,176.3,39.3,176.2,39.3
		 M201,20.8c-6.9,0-13.8,0.6-20.7,1.9l-0.1-0.7h0c-22.7,4.1-44.4,14.9-62,32.5c-2.8,2.8-5.4,5.7-7.9,8.7c3.8-0.4,6.1-1.8,8.6-3.4
		c2.9-1.9,6-3.8,11.7-3.8c1.9,0,3.6,0.2,5,0.6c3.6-3,7.3-5.7,11.2-8.1c0.3-0.2,0.6-0.3,0.9-0.3c0.6,0,1.1,0.3,1.5,0.8
		c0.5,0.8,0.3,1.9-0.5,2.4c-3.2,2-6.3,4.2-9.3,6.6c1,0.5,1.9,1,2.8,1.6c3.1,1.8,6.3,3.8,12.5,3.8c4.9,0,7.6-1.7,10.3-3.5
		c2.9-1.9,5.9-3.9,11.6-3.9c5.4,0,8.5,1.8,11.5,3.6c3.1,1.8,6.3,3.8,12.5,3.8c4.9,0,7.6-1.7,10.3-3.5c2.9-1.9,5.9-3.9,11.6-3.9
		c5.4,0,8.5,1.8,11.5,3.6c3.1,1.8,6.3,3.8,12.5,3.8c4.9,0,7.6-1.7,10.3-3.5c1.5-1,3.1-2,5-2.7c-17.3-13.5-38.6-20.8-60.7-20.8
		c-2.9,0-5.9,0.1-8.8,0.4c-0.1,0-0.1,0-0.2,0c-0.9,0-1.6-0.7-1.7-1.6c-0.1-0.9,0.6-1.8,1.6-1.9c3-0.3,6.1-0.4,9.1-0.4
		c23.7,0,46.6,8.2,64.9,23.3c0.8-0.1,1.6-0.1,2.4-0.1c5.4,0,8.5,1.8,11.5,3.6c2.8,1.7,5.7,3.4,11,3.7c-2.4-2.9-4.9-5.6-7.5-8.3
		C261.3,32.9,231.6,20.8,201,20.8"/>
	<path class="st4" d="M109.6,64c-5.7,7.1-10.5,14.7-14.3,22.7l0,0l0,0l0,0C99.1,78.8,103.9,71.2,109.6,64L109.6,64L109.6,64"/>
	<path class="st3" d="M261,190.3L261,190.3c0-2.9,2.3-5.2,5.2-5.2c2.9,0,5.2,2.3,5.2,5.2l0,0l0,0c0,2.9-2.3,5.2-5.2,5.2
		C263.3,195.4,261,193.1,261,190.3L261,190.3 M245.6,139L245.6,139c0-3.6,2.9-6.5,6.5-6.5c3.6,0,6.5,2.9,6.5,6.5l0,0l0,0
		c0,3.6-2.9,6.5-6.5,6.5C248.5,145.5,245.6,142.6,245.6,139L245.6,139 M223.7,117.5L223.7,117.5c0-2.9,2.3-5.2,5.2-5.2
		c2.9,0,5.2,2.3,5.2,5.2l0,0l0,0c0,2.9-2.3,5.2-5.2,5.2C226,122.6,223.7,120.3,223.7,117.5L223.7,117.5 M239.8,90.8L239.8,90.8
		c0-5.4,4.4-9.8,9.8-9.8c5.4,0,9.8,4.4,9.8,9.8l0,0l0,0c0,5.4-4.4,9.8-9.8,9.8C244.2,100.6,239.8,96.2,239.8,90.8L239.8,90.8
		 M130.5,85L130.5,85c0-5.1,4.1-9.2,9.2-9.2c4.2,0,7.8,2.9,8.9,6.8c1.6,0.4,3.1,1,4.5,1.7l5.8-5.5v10.3c1.2,1.5,2.1,3.1,2.8,4.8
		l7.9-7.5c0.2-0.2,0.4-0.2,0.6-0.2c0.1,0,0.1,0,0.2,0c0.3,0.1,0.5,0.2,0.6,0.5c0.5,1,0.7,2.4,0.7,3.9c0,1.9-0.4,4.1-1.1,5.8
		c-0.7,1.6-1.7,2.8-2.8,3.5c1.6,2,2.4,5.4,2.4,8.5c0,2-0.3,3.8-1,5c-0.1,0.3-0.4,0.4-0.7,0.4l-0.1,0c-0.3,0-0.5-0.1-0.7-0.3
		l-6.4-8.3c-3.5,3.4-7.4,5.9-11.5,7.1v4.2l-3.2-3.4c-0.7,0.1-1.4,0.1-2,0.2l-0.1,0c-6.1,0-12.1-3.9-16.3-10.5h-3.3
		c-1.8,0-2.8-1.3-2.8-2.6l0,0l0,0c0-0.6,0.3-1.2,0.7-1.7l-0.1-0.1c-0.4-0.4-0.6-1-0.6-1.6l0,0l0,0c0-1.4,1-3,2.4-3h3.6
		c0.7-1.9,1.8-3.6,3.1-5.1C130.8,87.5,130.5,86.3,130.5,85L130.5,85 M268.4,57.6c-0.2,0-0.4,0-0.5,0c1.9,1.6,3.8,3.4,5.6,5.2
		c0.3,0.3,0.5,0.8,0.5,1.2s-0.2,0.9-0.5,1.2c-0.3,0.3-0.8,0.5-1.2,0.5c-0.4,0-0.9-0.2-1.2-0.5c-2.4-2.4-5-4.7-7.7-6.9
		c-2.2,0.7-3.9,1.8-5.6,2.9c-2.9,1.9-5.8,3.8-11.3,3.8c-6.7,0-10.1-2-13.4-4c-2.9-1.7-5.6-3.4-10.6-3.4c-5.2,0-7.9,1.7-10.7,3.6
		c-2.9,1.9-5.8,3.8-11.3,3.8c-6.7,0-10.1-2-13.4-4c-2.9-1.7-5.6-3.4-10.6-3.4c-5.2,0-7.9,1.7-10.7,3.6c-2.9,1.9-5.8,3.8-11.3,3.8
		c-6.7,0-10.1-2-13.4-4c-1.1-0.7-2.2-1.3-3.4-1.8c-2.3,1.9-4.5,4-6.7,6.1c-18.7,18.7-29,43.6-29,70c0,0.9-0.8,1.7-1.7,1.7
		c-0.9,0-1.7-0.8-1.7-1.7l0,0l0,0c0-27.4,10.7-53.1,30-72.4c1.7-1.7,3.4-3.3,5.2-4.9c-1-0.2-2.1-0.3-3.4-0.3
		c-5.2,0-7.9,1.7-10.7,3.6c-2.7,1.7-5.4,3.5-10.2,3.7l0-0.9h0c-5.7,7.1-10.5,14.7-14.3,22.7l0.6,0.3l0,0
		c-7.6,16-11.3,33.1-11.3,50.1c0,30.3,11.8,60.2,34.1,82.5c1.5,1.5,3.1,3,5,4.7c0.5-0.1,1.1-0.1,1.6-0.1h14.2l0,0l0,0
		c6.9-13.2,15-26.4,24.2-39.4l-0.3-3l2-0.2l0-0.1l0,0c-0.8-11.9-1.3-21.6-1.3-29.2c0-10.5,0.8-17.2,2.4-20.4l0,0l0,0l0.1-0.1l0-0.1
		c0.2-0.4,0.4-0.7,0.7-1l0,0l0,0l0.1-0.1l0,0l0.1-0.2l0,0l0,0l0,0l0,0c0.6-0.7,1.3-1.1,2.1-1.2l0,0l0,0l0,0l0,0
		c1.2-1.2,2.5-1.7,3.9-1.7c0,0,0,0,0,0l0,0l0,0c0,0,0,0,0,0c1.9,0,3.9,1,6,3c0,0,0,0,0,0c0,0,0.1,0,0.1,0.1c0,0,0,0,0,0
		c0,0,0.1,0.1,0.1,0.1c0,0,0,0,0,0c0,0,0,0,0.1,0.1l0,0l0,0l0,0l0,0l0,0l0,0l0,0c0.2-0.2,0.4-0.2,0.6-0.2c0.2,0,0.4,0.1,0.6,0.3
		c2.3,2.4,5.1,5.7,8,9.3c3.6,4.3,7.6,9.2,11.4,13.1c0.9-0.5,1.9-0.9,2.6-1.2c0.1,0,0.2-0.1,0.3-0.1c0.3,0,0.6,0.2,0.8,0.5l0,0l0,0
		l0,0l0,0l0,0c2.6-1.1,5.2-2.1,8-2.9l-1.9-1l20.1-6.8l-1.1,5.8l7.3-2l-0.8,6.5c0.1,0.1,0.3,0.2,0.4,0.4l0,0l0,0l0,0l8.7-2.9l1.1,4.8
		c6.5-2.3,14.7-5.9,19.1-6.2l0-0.1l0,0c0-0.5,0.4-0.8,0.8-0.8c0,0,0,0,0,0c2.8,0,4,4.5,4,8.9c0,0,0,0.1,0,0.1l0,0.2
		c0.1,0.4,0.1,0.9,0.1,1.4c0,4.8-2.7,12.5-12.9,30.1c-0.1,0.6-0.4,2.5-1.1,4.9c0.6,2.2,1.1,4.5,1.7,7.2l1.5,7
		c3.3,0.5,6.3,2.1,8.5,4.3c2.1,2.1,3.5,5.1,3.5,8.6c0,1.5-0.3,3.1-0.8,4.8h5c0.9,0,1.8,0.1,2.7,0.4l-0.1-0.1l0,0
		c2-1.8,3.7-3.4,5.2-4.9c22-22,34.1-51.2,34.1-82.3c0-26.6-8.9-51.8-25.2-72.3c-6.6,0-10-2-13.3-4C276.1,59.2,273.4,57.6,268.4,57.6
		"/>
	<polyline class="st3" points="169,95.8 168.9,95.8 168.9,95.8 169,95.8 	"/>
	<path class="st3" d="M167.7,103.7c0,0.2,0.1,0.5,0.2,0.7C167.8,104.2,167.8,103.9,167.7,103.7"/>
	<path class="st5" d="M167,179c0.5-0.6,1.1-1.2,1.6-1.8c0-0.2,0-0.3,0.1-0.5l8.7-14.3c0.2-0.3,0.5-0.4,0.8-0.4
		c0.3,0,0.6,0.3,0.7,0.6l0.8,2.5l0.8-3.5c0.1-0.4,0.5-0.7,0.8-0.7c0.4,0,0.7,0.3,0.8,0.7l0.6,2.7l2.2-4c0.1-0.2,0.3-0.4,0.6-0.4
		c0.2-0.1,0.5,0,0.7,0.2l4.5,3.4c1.4,0,2.5,0.2,3.4,0.4c-1-1.7-1.9-3.4-2.8-5l0,0c-7.8-13.5-16.5-27.9-20.9-28.4
		c-0.6-0.1-1.1,0.2-1.6,0.7l0,0l0,0l0,0c-0.3,0.4-0.5,0.7-0.7,1l0,0l0,0l0,0C165.5,137.7,165.2,152.5,167,179"/>
	<path class="st6" d="M170.2,130.6c-0.5,0-1,0.2-1.4,0.7l0,0l0,0l0,0c-0.3,0.4-0.5,0.7-0.7,1l0,0l0,0l0,0c-1.5,3-2.2,9.4-2.2,19.4
		c0,7.1,0.4,16.1,1.1,27.1c0.5-0.6,1.1-1.2,1.6-1.8c0,0,0,0,0,0l0,0c0-0.1,0-0.3,0.1-0.4l8.7-14.3c0.2-0.3,0.4-0.4,0.7-0.4
		c0,0,0.1,0,0.1,0c0.3,0,0.6,0.3,0.7,0.6l0.8,2.5l0.8-3.5c0.1-0.4,0.4-0.7,0.8-0.7c0,0,0,0,0,0c0.4,0,0.7,0.3,0.8,0.7l0.6,2.7l2.2-4
		c0.1-0.2,0.3-0.4,0.6-0.4c0.1,0,0.1,0,0.2,0c0.2,0,0.4,0.1,0.5,0.2l4.5,3.4c0.1,0,0.1,0,0.2,0c1.3,0,2.4,0.2,3.2,0.4
		c-1-1.7-1.9-3.4-2.8-5l0,0c-7.8-13.5-16.5-27.9-20.9-28.4C170.3,130.6,170.3,130.6,170.2,130.6"/>
	<path class="st5" d="M254.4,185.9l1.6,0.3c11.8-20.3,12.9-26.6,12.4-30.4c-0.2-1.1-0.6-1.8-1.4-2.2c-2.7-1.2-9.2,1.4-19.1,7.8
		l1.4,6.2l9.4-2.3l2,8.4l-9.7,2.3C252.2,179.1,253.3,182.4,254.4,185.9"/>
	<path class="st6" d="M265.4,153.3c-3.3,0-9.2,2.7-17.5,8.1l1.4,6.2l9.4-2.3l2,8.4l-9.7,2.3c1.2,3.1,2.3,6.3,3.4,9.8l1.6,0.3
		c10.3-17.8,12.5-24.8,12.5-28.9c0-0.6,0-1.1-0.1-1.5c-0.2-1.1-0.6-1.8-1.4-2.2C266.5,153.4,266,153.3,265.4,153.3"/>
	<polyline class="st5" points="247.5,168.1 247.7,168 247.4,167.8 247.5,168.1 	"/>
	<polyline class="st6" points="247.4,167.8 247.5,168.1 247.7,168 247.4,167.8 	"/>
	<path class="st3" d="M259.8,208.3l0.4,1.7v0l0,0l0.4,1.9c0.8,4.1,1.7,8.2,2.6,12.3l5.5,0c0.6-1.7,0.9-3.3,0.9-4.8
		c0-3-1.2-5.6-3-7.4C264.9,210.1,262.4,208.8,259.8,208.3"/>
	<path class="st2" d="M167.2,190c0,3.1,0.7,8.4,4.2,12.3c3.4,3.8,8.8,5.5,16.1,5.2c20.9-1,23.6-13.8,24-16.9
		c-2-0.5-8.2-2.1-16.6-2.6c-0.4,0-2.1,0.1-4.7,0.1c0.7,1.1,1,2.3,1,3.6c0,3.8-3.1,7-7,7c-3.9,0-7-3.1-7-7c0-1,0.2-1.9,0.6-2.8
		L167.2,190"/>
	<path class="st3" d="M194.8,188c-0.4,0-2.1,0.1-4.7,0.1c0.7,1.1,1,2.3,1,3.6l0,0l0,0l0,0l0,0c0,3.8-3.1,7-7,7c-3.9,0-7-3.1-7-7l0,0
		l0,0l0,0l0,0c0-1,0.2-1.9,0.6-2.8l-10.5,1c0,3.1,0.7,8.4,4.2,12.3c3.1,3.5,8,5.2,14.3,5.2c0.6,0,1.1,0,1.7,0
		c20.9-1,23.6-13.8,24-16.9C209.4,190,203.2,188.5,194.8,188"/>
	<path class="st2" d="M254.9,187.7c0.1,0.4,0.2,0.8,0.4,1.3c0.1-0.5,0.2-0.8,0.2-1.2L254.9,187.7"/>
	<path class="st3" d="M254.9,187.7c0.1,0.4,0.2,0.8,0.4,1.3c0.1-0.5,0.2-0.8,0.2-1.2L254.9,187.7"/>
	<path class="st2" d="M251.7,197.6c1.2-1.8,2.1-3.7,2.6-5.4c-0.2-0.6-0.3-1.2-0.5-1.7l0-0.1c-0.3-1-0.6-2-0.8-3l-3.3-0.5l-9.6,0.7
		c0.7,1,1,2.3,1,3.5c0,3.6-2.9,6.6-6.6,6.6c-3.6,0-6.6-2.9-6.6-6.6c0-0.9,0.2-1.8,0.6-2.6l-4.7,0.4c0.3,2.2,1.4,8.3,5.9,12
		c3.2,2.6,7.5,3.6,12.7,2.8C246.3,203.1,249.4,201.1,251.7,197.6"/>
	<path class="st3" d="M249.8,186.9l-9.6,0.7c0.7,1,1,2.3,1,3.5l0,0l0,0l0,0l0,0c0,3.6-2.9,6.6-6.6,6.6c-3.6,0-6.6-2.9-6.6-6.6l0,0
		l0,0l0,0l0,0c0-0.9,0.2-1.8,0.6-2.6l-4.7,0.4c0.3,2.2,1.4,8.3,5.9,12c2.5,2,5.6,3.1,9.3,3.1c1.1,0,2.2-0.1,3.4-0.3
		c3.7-0.5,6.8-2.6,9.2-6c1.2-1.8,2.1-3.7,2.6-5.4c-0.2-0.6-0.3-1.2-0.5-1.7l0-0.1c-0.3-1-0.6-2-0.8-3L249.8,186.9"/>
	<path class="st3" d="M234,220.3c0-0.2,0.1-0.5,0.3-0.6c0.1-0.1,2.4-2.1,5-2.1c0.4,0,0.8,0,1.2,0.1c1.8,0.5,3.1,1.9,4,4.4
		c0,0.1,0.1,0.2,0.1,0.3c0,0.4-0.2,0.7-0.6,0.8c-0.1,0-0.2,0.1-0.3,0.1c-0.4,0-0.7-0.2-0.8-0.6c-0.7-1.9-1.6-3-2.8-3.3
		c-0.2-0.1-0.5-0.1-0.8-0.1c-1.9,0-3.9,1.7-3.9,1.7c-0.2,0.1-0.4,0.2-0.6,0.2c-0.2,0-0.5-0.1-0.6-0.3
		C234.1,220.7,234,220.5,234,220.3 M173.7,127.2C173.7,127.2,173.7,127.2,173.7,127.2c-1.4,0-2.7,0.6-4,1.7c0.2,0,0.3,0,0.5,0
		c0.1,0,0.2,0,0.3,0c4.8,0.5,11.5,10.7,22.3,29.3l0,0c1.3,2.3,2.7,4.7,4.1,7.2l0,0l0.1,0.2l0,0.1l0,0.1l0,0c0,0.5-0.4,0.9-0.9,0.9
		l-0.2-0.1l0,0l-0.2-0.1l-0.1,0c-0.1-0.1-1.2-0.8-3.1-1.1c0,0,0,0,0,0c0,0.2,0,0.4-0.2,0.5c-0.2,0.2-0.4,0.3-0.7,0.3
		c-0.2,0-0.4-0.1-0.5-0.2l-1-0.8c-1.9,0.1-4.2,0.7-7,2.1c-0.2,0.2-0.4,0.3-0.7,0.4c-0.6,0.3-1.3,0.7-1.9,1.2
		c-0.1,0.2-0.3,0.3-0.5,0.3c-1.7,1.2-3.6,2.7-5.6,4.6c-0.2,0.2-0.5,0.5-0.7,0.7c-0.5,0.5-0.9,0.9-1.4,1.4c-1.8,1.7-3.6,3.5-5.1,5.4
		l30.3-3l0.8,8.2c8.4,0.8,13.9,2.5,14.1,2.6c0.4,0.1,0.6,0.4,0.6,0.8c0,0,0,0,0,0c0,0.2-0.8,18-25.6,19.2c-0.6,0-1.2,0-1.8,0
		c0,0,0,0,0,0c-6.9,0-12.1-2-15.6-5.8c-3.8-4.3-4.6-9.8-4.6-13.2l-1.2,0.1l-0.5-5.5l0,0l0,0c-9.3,13-17.3,26.2-24.2,39.4h5.3
		c0.5,0,0.9,0.4,0.9,0.9h9.6c0-1.8,0.4-3.7,1.2-5.4c1.9-4.3,6.8-7.8,12.2-8.8c1.1-0.2,2.2-0.3,3.3-0.3c5.5,0,11,2.5,15.6,7.3l0,0
		l0,0l-1.2,1.2c-4.3-4.4-9.4-6.8-14.4-6.8c-1,0-2,0.1-2.9,0.3c-4.9,0.9-9.2,4-10.9,7.8c-0.7,1.5-1,3.1-1,4.7h24.4h34.6
		c-0.1-0.6-0.3-1.3-0.6-1.9c-2.2-0.2-4.2-1.7-5.3-4.1c-0.6-1.2-0.9-2.3-0.9-3.4c0-1.1,0.3-2,0.8-2.8c1.1-1.4,6.7-1.6,9.2-1.6
		c0.7,0,1.2,0,1.2,0c3.8,0.1,4.1,0.6,4.3,1c0.4,0.6,0.5,1.3,0.5,2.1c0,1.2-0.4,2.6-1.1,4c-1.5,2.7-4,4.4-7,4.8
		c0.2,0.6,0.4,1.3,0.5,1.9h20.8c0.3-1.1,0.5-2.1,0.5-3.1c0-0.5,0-0.9-0.1-1.4c0-0.1,0-0.1,0-0.2c0-0.4,0.3-0.8,0.7-0.8
		c0.1,0,0.1,0,0.2,0c0.4,0,0.8,0.3,0.8,0.7c0.1,0.6,0.2,1.1,0.2,1.7c0,1-0.1,2.1-0.4,3.1h6.5v0l0,0c0-0.5,0.4-0.9,0.9-0.9l13.8,0
		c-0.9-4-1.7-8-2.6-11.9l-0.4-1.9l0,0L258,208c-0.3,0-0.7,0-1.1,0c-3.1,0-6.2,1-8.7,3.4l-1.2-1.3l0,0c2.9-2.7,6.4-3.8,9.9-3.8
		c0.2,0,0.5,0,0.7,0l-1.4-6.4c-0.4-1.7-0.8-3.3-1.1-4.8c-0.5,1.2-1.2,2.4-1.9,3.5c-2.6,3.8-6.1,6.1-10.3,6.7
		c-1.3,0.2-2.5,0.3-3.7,0.3c-4.1,0-7.6-1.2-10.4-3.5c-6.1-5-6.5-13.7-6.6-14c0,0,0,0,0,0c0-0.4,0.3-0.8,0.8-0.9l6.9-0.5l0.2-0.2
		l8.4-0.7l0.3,0.2l0,0l11-0.8l0.2,0l2.5,0.4c-1-3.2-2-6.3-3.2-9.1l-28.3,6.8l-2-8.4l26.8-6.4c-0.9-1.7-1.8-3.4-2.7-5
		c-0.2-0.3-0.4-0.6-0.5-0.9l-0.2-0.4c-1.2-1.9-2.6-4.1-4.2-6c-1.9-2.3-3.8-4-5.8-5.2c-1.4-0.8-2.9-1.5-4.5-1.9
		c-0.4-0.1-0.6-0.5-0.6-0.8c0-0.1,0-0.1,0-0.2c0.1-0.4,0.4-0.6,0.8-0.6c0.1,0,0.1,0,0.2,0c1.8,0.5,3.4,1.2,4.9,2.1
		c1,0.6,1.9,1.2,2.8,2l0.8-6.5l-7.3,2l1.1-5.8l-20.1,6.8l1.9,1l0,0l0,0l0,0c-2.7,0.8-5.4,1.8-8,2.9c0,0.1,0.1,0.2,0.1,0.3
		c0,0.3-0.2,0.6-0.5,0.8c-0.6,0.3-1.3,0.6-2,0.9c0.3,0.3,0.7,0.6,1,0.9c0.2,0.2,0.3,0.4,0.3,0.6c0,0.2-0.1,0.4-0.2,0.6
		c-0.2,0.2-0.4,0.3-0.6,0.3c-0.2,0-0.4-0.1-0.6-0.2c-0.6-0.6-1.3-1.2-1.9-1.8c-4-4-8.3-9.1-12-13.6c-2.9-3.5-5.6-6.9-7.9-9.2
		c-0.2-0.2-0.2-0.4-0.2-0.6s0.1-0.4,0.2-0.6c0,0,0,0-0.1-0.1c0,0,0,0,0,0c0,0-0.1-0.1-0.1-0.1c0,0,0,0,0,0c0,0-0.1,0-0.1-0.1
		c0,0,0,0,0,0C177.5,128.2,175.5,127.2,173.7,127.2C173.7,127.2,173.7,127.2,173.7,127.2"/>
	<path class="st7" d="M230.5,141.3l-20.1,6.8L230.5,141.3 M179.9,130.4C179.9,130.4,179.9,130.4,179.9,130.4
		C179.9,130.4,179.9,130.4,179.9,130.4 M179.8,130.3C179.8,130.3,179.8,130.3,179.8,130.3C179.8,130.3,179.8,130.3,179.8,130.3
		 M179.7,130.2C179.7,130.2,179.7,130.2,179.7,130.2C179.7,130.2,179.7,130.2,179.7,130.2 M173.7,127.2c-1.4,0-2.7,0.6-3.9,1.7l0,0
		C170.9,127.8,172.2,127.2,173.7,127.2 M173.7,127.2L173.7,127.2C173.7,127.2,173.7,127.2,173.7,127.2
		C173.7,127.2,173.7,127.2,173.7,127.2"/>
	<path class="st3" d="M265.3,147.6L265.3,147.6L265.3,147.6c-4.4,0.4-12.6,4-19.1,6.2l-1.1-4.8l-8.7,2.9c1,0.9,2,2,3,3.2
		c1.7,2,3.1,4.3,4.3,6.2l0.2,0.4l0.1,0.1c10.3-6.9,17.2-10.2,21.4-10.2c0.8,0,1.6,0.1,2.2,0.4c0.2,0.1,0.4,0.2,0.5,0.3
		c-0.4-2.4-1.3-4-2.1-4C265.7,148.4,265.3,148,265.3,147.6"/>
	<path class="st3" d="M247.9,161.4c-1,0.6-1.9,1.2-2.9,1.9c0.8,1.5,1.7,3,2.4,4.5l0.3,0.2l1.6-0.4L247.9,161.4L247.9,161.4
		L247.9,161.4L247.9,161.4"/>
	<path class="st3" d="M181.4,165.8l-0.2,0.7c0.1-0.1,0.2-0.1,0.3-0.2L181.4,165.8"/>
	<path class="st3" d="M186,162.1l-1.5,2.8c1.4-0.5,2.6-0.9,3.7-1.1L186,162.1"/>
	<path class="st3" d="M177.9,165l-4.7,7.7l0.2-0.2c1.9-1.8,3.8-3.3,5.5-4.5L177.9,165"/>
	<path class="st8" d="M216,221.5L216,221.5L216,221.5L216,221.5c4.1,0.1,6.1-2.7,6.8-3.9c0.9-1.7,1.1-3.4,0.7-4.2
		c-1.6-0.6-10.9-0.4-12.1,0.6c-0.7,0.9-0.6,2.7,0.2,4.4C212.5,220.3,214.2,221.5,216,221.5"/>
	<path class="st9" d="M219.2,213c-3.2,0-7.1,0.3-7.8,0.9c-0.3,0.4-0.5,1-0.5,1.7c0,0.8,0.2,1.8,0.7,2.7c1,2,2.6,3.2,4.4,3.2v0l0,0v0
		l0,0l0,0c0,0,0.1,0,0.1,0c4,0,6-2.8,6.6-3.9c0.6-1.1,0.9-2.3,0.9-3.2c0-0.4-0.1-0.8-0.2-1.1C222.8,213.1,221.1,213,219.2,213"/>
	<path class="st10" d="M184.2,197c2.9,0,5.3-2.4,5.3-5.3c0-1.3-0.5-2.6-1.4-3.6l-0.3,0c-0.6,0-1.2,0-1.8,0l-6.1,0.6
		c-0.6,0.9-0.9,1.9-0.9,3C178.9,194.6,181.3,197,184.2,197"/>
	<path class="st11" d="M187.7,188.1c-0.6,0-1.2,0-1.8,0l-6.1,0.6c-0.6,0.9-0.9,1.9-0.9,3c0,2.9,2.4,5.3,5.3,5.3
		c2.9,0,5.3-2.4,5.3-5.3c0-1.3-0.5-2.6-1.4-3.6L187.7,188.1"/>
	<path class="st10" d="M234.6,196c2.7,0,4.8-2.2,4.8-4.8c0-1.3-0.5-2.5-1.4-3.4l-7.4,0.6c-0.6,0.8-0.9,1.8-0.9,2.8
		C229.8,193.8,231.9,196,234.6,196"/>
	<path class="st11" d="M238.1,187.8l-7.4,0.6c-0.6,0.8-0.9,1.8-0.9,2.8c0,2.7,2.2,4.8,4.9,4.8c2.7,0,4.8-2.2,4.8-4.8
		C239.5,189.9,239,188.7,238.1,187.8"/>
	<circle class="st4" cx="249.6" cy="90.8" r="8.3"/>
	<path class="st2" d="M249.6,100.6c5.4,0,9.8-4.4,9.8-9.8S255,81,249.6,81s-9.8,4.4-9.8,9.8S244.2,100.6,249.6,100.6z M257.9,90.8
		c0,4.6-3.7,8.3-8.3,8.3s-8.3-3.7-8.3-8.3s3.7-8.3,8.3-8.3S257.9,86.2,257.9,90.8z"/>
	<circle class="st4" cx="228.9" cy="117.5" r="3.7"/>
	<path class="st2" d="M228.9,122.6c2.9,0,5.2-2.3,5.2-5.2s-2.3-5.2-5.2-5.2s-5.2,2.3-5.2,5.2S226,122.6,228.9,122.6z M232.6,117.5
		c0,2-1.7,3.7-3.7,3.7s-3.7-1.7-3.7-3.7s1.7-3.7,3.7-3.7S232.6,115.4,232.6,117.5z"/>
	<circle class="st4" cx="266.1" cy="190.3" r="3.7"/>
	<path class="st2" d="M266.1,185.1c-2.9,0-5.2,2.3-5.2,5.2s2.3,5.2,5.2,5.2s5.2-2.3,5.2-5.2S269,185.1,266.1,185.1z M262.4,190.3
		c0-2,1.7-3.7,3.7-3.7s3.7,1.7,3.7,3.7s-1.7,3.7-3.7,3.7S262.4,192.3,262.4,190.3z"/>
	<path class="st4" d="M252,134c-2.8,0-5,2.2-5,5c0,2.7,2.2,5,5,5c2.7,0,5-2.2,5-5C257,136.3,254.8,134,252,134z"/>
	<path class="st2" d="M252,132.6c-3.6,0-6.5,2.9-6.5,6.5c0,3.6,2.9,6.5,6.5,6.5c3.6,0,6.5-2.9,6.5-6.5
		C258.5,135.5,255.6,132.6,252,132.6z M252,144c-2.8,0-5-2.2-5-5c0-2.8,2.2-5,5-5c2.7,0,5,2.2,5,5C257,141.8,254.8,144,252,144z"/>
	<path class="st2" d="M149,48.9c-0.5-0.8-1.6-1-2.4-0.5c-3.9,2.4-7.6,5.2-11.2,8.1c1.4,0.4,2.6,0.9,3.7,1.4c3-2.4,6.1-4.6,9.3-6.6
		C149.3,50.8,149.6,49.7,149,48.9z"/>
	<path class="st2" d="M98.6,135.2c0,0.9,0.8,1.7,1.7,1.7s1.7-0.8,1.7-1.7c0-26.4,10.3-51.3,29-70c2.1-2.1,4.4-4.2,6.7-6.1
		c-1.1-0.5-2.4-1-3.9-1.2c-1.8,1.6-3.6,3.2-5.2,4.9C109.3,82.1,98.6,107.8,98.6,135.2z"/>
	<path class="st2" d="M157.7,46c0.2,0,0.5-0.1,0.7-0.2c0.3-0.2,0.7-0.3,1-0.5c0.9-0.4,1.2-1.4,0.8-2.3c-0.4-0.9-1.4-1.2-2.3-0.8
		c-0.3,0.2-0.7,0.3-1,0.5c-0.9,0.4-1.2,1.4-0.8,2.3C156.4,45.6,157,46,157.7,46z"/>
	<path class="st2" d="M166.8,42.2c0.2,0,0.4,0,0.6-0.1l0.9-0.3c0.9-0.3,1.4-1.3,1.1-2.2c-0.3-0.9-1.3-1.4-2.2-1.1l-0.9,0.3
		c-0.9,0.3-1.4,1.3-1,2.2C165.4,41.7,166.1,42.2,166.8,42.2z"/>
	<path class="st2" d="M176.2,39.3c0.1,0,0.3,0,0.4-0.1c0.5-0.1,0.9-0.2,1.4-0.3c0.9-0.2,1.5-1.1,1.3-2.1s-1.1-1.5-2.1-1.3
		c-0.5,0.1-1,0.2-1.4,0.3c-0.9,0.2-1.5,1.2-1.2,2.1C174.7,38.8,175.4,39.3,176.2,39.3z"/>
	<path class="st2" d="M192,33.2c-0.9,0.1-1.6,0.9-1.6,1.9c0.1,0.9,0.9,1.7,1.9,1.6c25.1-2.2,49.9,5.2,69.5,20.4
		c1.2-0.5,2.6-0.8,4.2-1C245.4,39.1,218.9,30.8,192,33.2z"/>
	<path class="st2" d="M272.2,65.7c0.4,0,0.9-0.2,1.2-0.5c0.7-0.7,0.7-1.8,0-2.4c-1.8-1.8-3.7-3.5-5.6-5.2c-1.8,0-3.2,0.3-4.5,0.7
		c2.7,2.2,5.2,4.5,7.7,6.9C271.4,65.5,271.8,65.7,272.2,65.7z"/>
	<path class="st2" d="M156.3,230.9H148c-0.9,0-1.7,0.8-1.7,1.7s0.8,1.7,1.7,1.7h10.3c-0.2-0.3-0.5-0.7-0.7-1
		C157,232.5,156.7,231.7,156.3,230.9z"/>
	<path class="st2" d="M160.5,234.3h9c0.9,0,1.7-0.8,1.7-1.7s-0.8-1.7-1.7-1.7h-11.3c0.2,0.5,0.5,1,0.8,1.5
		C159.4,233.1,159.9,233.7,160.5,234.3z"/>
	<path class="st2" d="M132.6,232.6c0,0.9,0.8,1.7,1.7,1.7h0.1h2c0.9,0,1.7-0.8,1.7-1.7s-0.8-1.7-1.7-1.7h-0.3h-1.7
		C133.4,230.9,132.6,231.7,132.6,232.6z"/>
	<path class="st12" d="M157.2,82.9l-2.6,2.4c0.9,0.6,1.8,1.3,2.6,2V82.9z"/>
	<path class="st12" d="M169.7,88.8l-8,7.6c-0.3,0.3-0.9,0.3-1.2,0c-0.2-0.2-0.3-0.5-0.2-0.8c-1.6-5.3-6.2-9.5-11.5-11
		c0,0.2,0,0.3,0,0.5c0,5.1-4.1,9.2-9.2,9.2c-3.1,0-5.9-1.6-7.5-3.9c-0.9,1.1-1.6,2.3-2.2,3.5h4.5v1.7h-10c-0.2,0-0.7,0.6-0.7,1.3
		c0,0.1,0,0.3,0.1,0.4c0.1,0.1,0.3,0.2,0.6,0.2h1.2h6.8h1.2v1.7h-1.2h-6.8c-0.9,0-1.3,0.2-1.6,0.4c-0.3,0.2-0.3,0.5-0.3,0.7
		c0,0.4,0.3,0.9,1.1,0.9h10.9v1.7h-5.5c3.8,5.5,9,8.7,14.2,8.7h0.1c0.2,0,0.4,0,0.5,0l-4.4-4.8l0.6-0.6l0,0h0l0.6-0.6l0.6,0.6
		l6.4,0.2h0.9v4.2c3.7-1.2,7.2-3.5,10.4-6.7c-0.2-0.4-0.2-0.9,0.2-1.1c0.4-0.3,0.9-0.2,1.2,0.2l6.5,8.4c0.4-1.9,0.4-4.6-0.2-6.9
		c-0.1-0.2-0.2-0.5-0.2-0.7c-0.5-1.5-1.2-2.7-2.1-3.4c-0.4-0.3-0.5-0.8-0.2-1.2c0.2-0.3,0.6-0.4,0.9-0.3c1.3-0.5,2.2-1.9,2.6-3
		l0-0.1C169.9,93.5,170.1,90.7,169.7,88.8z"/>
	<polygon class="st12" points="141.4,106.2 141.4,106.2 141.4,106.2 	"/>
	<path class="st12" d="M147.3,111.2c0.3-0.1,0.6-0.1,0.9-0.2v-4.7h0.9l-6.4-0.2L147.3,111.2z"/>
	<path class="st2" d="M132.2,85c0,0.8,0.1,1.6,0.4,2.3c0.8-0.7,1.7-1.4,2.6-2l0-0.3c0-2.5,2-4.5,4.5-4.5c1.5,0,2.8,0.7,3.7,1.9
		c0.7-0.1,1.4-0.1,2.2-0.1c0.4,0,0.8,0.1,1.1,0.1c-1.1-2.8-3.8-4.8-7-4.8C135.6,77.6,132.2,80.9,132.2,85z"/>
	<path class="st2" d="M139.7,89.6c-1.8,0-3.3-1-4.1-2.5c-0.8,0.6-1.6,1.2-2.3,1.9c1.3,2.1,3.7,3.5,6.3,3.5c4.1,0,7.4-3.3,7.4-7.4
		c0-0.3,0-0.6-0.1-0.9c-0.5-0.1-1.1-0.1-1.6-0.2c-0.4,0-0.9,0-1.3,0c0.1,0.3,0.1,0.7,0.1,1C144.2,87.5,142.2,89.6,139.7,89.6z"/>
	<path d="M180,131.6c2.3,2.3,5,5.6,7.9,9.2c3.7,4.5,7.9,9.7,12,13.6c0.6,0.6,1.3,1.2,1.9,1.8c0.2,0.1,0.4,0.2,0.6,0.2
		c0.2,0,0.5-0.1,0.6-0.3c0.3-0.4,0.3-0.9-0.1-1.2c-0.3-0.3-0.6-0.6-1-0.9c0.7-0.4,1.4-0.7,2-0.9c0.4-0.2,0.6-0.7,0.4-1.1l0,0
		c-0.2-0.4-0.7-0.6-1.1-0.4c-0.7,0.3-1.7,0.7-2.6,1.2c-3.9-3.8-7.9-8.7-11.4-13.1c-2.9-3.6-5.7-6.9-8-9.3c-0.3-0.3-0.9-0.3-1.2,0
		l0,0C179.6,130.8,179.6,131.3,180,131.6z"/>
	<path d="M156.3,230.9c0.3,0.8,0.7,1.6,1.2,2.4c0.2,0.4,0.5,0.7,0.7,1c2.7,3.6,6.7,5.7,11.2,5.8l0.1-1.7c-3.5-0.1-6.7-1.6-9-4.1
		c-0.5-0.6-1.1-1.2-1.5-1.9c-0.3-0.5-0.6-1-0.8-1.5c-0.9-1.9-1.3-3.9-1.2-5.9v0c0-1.6,0.4-3.2,1-4.7c1.7-3.8,6-6.9,10.9-7.8
		c6-1.1,12.2,1.2,17.3,6.5l1.2-1.2c-5.6-5.7-12.3-8.2-18.9-7c-5.4,1-10.3,4.5-12.2,8.8c-0.8,1.7-1.1,3.6-1.2,5.4v0
		C155.2,227,155.6,229,156.3,230.9z"/>
	<path d="M165.5,190.2c0,3.4,0.8,9,4.6,13.2c3.5,3.9,8.7,5.8,15.6,5.8c0.6,0,1.2,0,1.8,0c24.9-1.2,25.6-19,25.6-19.2
		c0-0.4-0.2-0.7-0.6-0.8c-0.3-0.1-5.7-1.8-14.1-2.6l-0.8-8.2l-30.3,3c1.5-2,3.3-3.7,5.1-5.4c0.5-0.5,1-0.9,1.4-1.4
		c0.2-0.2,0.5-0.5,0.7-0.7c2-1.9,3.8-3.4,5.6-4.6c0.2-0.1,0.4-0.2,0.5-0.3c0.7-0.4,1.3-0.8,1.9-1.2c0.3,0,0.5-0.1,0.7-0.4
		c2.8-1.4,5.1-2,7-2.1l1,0.8c0.4,0.3,0.9,0.2,1.2-0.2c0.1-0.2,0.2-0.4,0.2-0.6c1.9,0.3,3,1,3.1,1.1l0.1,0l0.2,0.1l0,0l0.2,0.1
		c0.5,0,0.9-0.4,0.9-0.9l0-0.1l0-0.1l-0.1-0.2l0,0c-1.4-2.5-2.8-4.9-4.1-7.2l0,0c-10.7-18.6-17.4-28.8-22.3-29.3c-0.3,0-0.6,0-0.9,0
		c-0.8,0.1-1.5,0.5-2.1,1.2l0,0l0,0l0,0l0,0l-0.1,0.2l0,0l-0.1,0.1l0,0l0,0c-0.2,0.3-0.5,0.7-0.7,1l0,0.1l-0.1,0.1l0,0l0,0
		c-2.8,5.6-3.1,21.4-1.1,49.7l0,0l0,0.1l-2,0.2l0.3,3l0.5,5.5L165.5,190.2z M168.1,132.4L168.1,132.4L168.1,132.4
		c0.2-0.4,0.4-0.7,0.7-1.1l0,0l0,0l0,0c0.5-0.5,1-0.7,1.6-0.7c4.5,0.5,13.2,14.9,20.9,28.4l0,0c0.9,1.6,1.9,3.3,2.8,5
		c-0.9-0.2-2.1-0.4-3.4-0.4l-4.5-3.4c-0.2-0.2-0.5-0.2-0.7-0.2c-0.2,0.1-0.5,0.2-0.6,0.4l-2.2,4l-0.6-2.8c-0.1-0.4-0.4-0.7-0.8-0.7
		c-0.4,0-0.8,0.3-0.8,0.7l-0.8,3.5l-0.8-2.5c-0.1-0.3-0.4-0.6-0.7-0.6c-0.3,0-0.7,0.1-0.8,0.4l-8.7,14.3c-0.1,0.1-0.1,0.3-0.1,0.5
		c-0.6,0.6-1.1,1.2-1.6,1.8C165.2,152.5,165.5,137.7,168.1,132.4L168.1,132.4z M185.9,188.2c0.6,0,1.2,0,1.8,0l0.3,0
		c0.9,1,1.4,2.2,1.4,3.6c0,2.9-2.4,5.3-5.3,5.3c-2.9,0-5.3-2.4-5.3-5.3c0-1.1,0.3-2.1,0.9-3L185.9,188.2z M184.2,198.7
		c3.8,0,7-3.1,7-7c0-1.3-0.4-2.5-1-3.6c2.5,0,4.3-0.1,4.7-0.1c8.4,0.5,14.6,2,16.6,2.6c-0.4,3.1-3.1,15.9-24,16.9
		c-7.2,0.3-12.7-1.4-16.1-5.2c-3.5-3.9-4.1-9.1-4.2-12.3l10.5-1c-0.4,0.9-0.6,1.8-0.6,2.8C177.2,195.6,180.3,198.7,184.2,198.7z
		 M173.3,172.6l-0.2,0.2l4.7-7.7l1,3C177.1,169.3,175.3,170.7,173.3,172.6z M181.4,165.8l0.1,0.6c-0.1,0.1-0.2,0.1-0.3,0.2
		L181.4,165.8z M186,162.1l2.2,1.7c-1.1,0.2-2.4,0.6-3.7,1.1L186,162.1z"/>
	<path d="M443,207.7c-1.6-6-5.4-11.4-10.8-15.6c-2.7-2.1-5.9-4-9-5.3c-3.4-1.4-6.9-2.4-10.4-3c-7.2-1.3-15.1-1.2-22.9,0.2
		c-3.9,0.7-7.7,1.7-11.3,3c-3.7,1.3-7.2,3-10.4,4.9c-6.8,4.1-12.2,9.4-15.7,15.4c-1.8,3.2-3.1,6.5-3.8,10c-0.7,3.5-1,7.2-0.7,11
		c0.5,7,2.7,14.4,6.7,22.2c2,3.9,4.1,7.3,6.3,10.5c2.1,3,4.7,6.5,7.6,9.9c0.8,1,1.7,2,2.6,3c0.5,0.6,1.1,1.2,1.6,1.8l4.4,4.7
		c3.5,3.6,6.6,7.1,9.4,10.6c3.1,3.8,6.1,7.7,8.7,11.6c2.7,3.9,5.2,8.2,7.5,12.8c5.3,10.6,8.2,20.7,8.8,30.8
		c0.3,6.3-0.3,12.4-1.7,17.9c-1.6,6.3-4.4,12.4-8.2,17.7c-4.2,5.8-9.6,10.8-15.6,14.3c-3.7,2.2-7.7,3.9-11.8,5
		c2-13.5-0.6-27.8-7.6-41.5c1.7,0.5,2.2,0.6,2.5,0.6c1.8,0.2,3.8-0.4,5.6-1.5c4-2.3,7.1-7.3,8.1-13.3c1.1-5.9,0.4-13.1-2-20.9
		c-1.2-3.6-2.7-7.3-4.5-10.9c-1.8-3.5-3.9-7.1-6.2-10.5c-2.3-3.3-4.7-6.6-7.5-10l-4.3-5.3c-0.5-0.7-1.1-1.4-1.6-2.1
		c-0.9-1.1-1.8-2.3-2.7-3.5c-6.2-8.4-11-16.3-14.7-24.3c-4.7-10-7.3-19.3-7.9-28.5c0-0.5-0.4-0.8-0.9-0.8l0,0
		c-0.5,0-0.8,0.4-0.8,0.9c0.7,9.5,3.3,19,8.1,29.1c3.8,8.1,8.7,16.2,14.9,24.6c0.9,1.2,1.8,2.4,2.7,3.5c0.5,0.7,1.1,1.4,1.6,2.1
		l4.4,5.3c2.7,3.4,5.1,6.6,7.4,9.9c2.2,3.4,4.3,6.9,6.1,10.4c1.7,3.5,3.2,7.1,4.4,10.6c2.4,7.5,3.1,14.4,2,20.1
		c-0.9,5.4-3.7,10.1-7.3,12.2c-1.5,0.9-3.2,1.4-4.6,1.2c-0.1,0-0.8-0.1-3.8-1c-7.2-13.4-18.4-25.8-32.4-35.9
		c-1.8-1.3-3.6-2.6-5.4-3.9c-19.7-14.1-36.7-26.3-54.7-63.6c-1.4-2.9-2.6-5.8-3.7-8.8h6.3c1.5,0,2.8-0.3,4.1-0.9
		c2.2-1,3.9-2.7,4.9-4.9c0.6-1.2,0.9-2.6,0.9-4.1V234c0-1.5-0.3-2.8-0.9-4.1c-1-2.1-2.7-3.9-4.8-4.9l0,0c1.8-1.6,3.3-3,4.7-4.4
		c22.3-22.3,34.5-51.9,34.5-83.4c0-31.5-12.3-61.1-34.5-83.4C257.1,26.6,218.1,14.4,180,21.2l0.1,0.7l0.1,0.7
		c37.6-6.8,76.1,5.3,103.1,32.2c2.7,2.7,5.2,5.4,7.5,8.3c-5.2-0.3-8.2-2-11-3.7c-3-1.8-6-3.6-11.5-3.6c-0.9,0-1.7,0.1-2.4,0.1
		c-1.6,0.2-3,0.5-4.2,1c-1.9,0.7-3.5,1.7-5,2.7c-2.8,1.8-5.4,3.5-10.3,3.5c-6.2,0-9.4-1.9-12.5-3.8c-3-1.8-6-3.6-11.5-3.6
		c-5.7,0-8.7,2-11.6,3.9c-2.8,1.8-5.4,3.5-10.3,3.5c-6.2,0-9.4-1.9-12.5-3.8c-3-1.8-6-3.6-11.5-3.6c-5.7,0-8.7,2-11.6,3.9
		c-2.8,1.8-5.4,3.5-10.3,3.5c-6.2,0-9.4-1.9-12.5-3.8c-0.9-0.5-1.8-1.1-2.8-1.6c-1.1-0.6-2.3-1.1-3.7-1.4c-1.4-0.4-3.1-0.6-5-0.6
		c-5.7,0-8.7,2-11.7,3.8c-2.4,1.6-4.7,3-8.6,3.4c-0.3,0-0.5,0.1-0.8,0.1l0,0.8l0,0l0,0.9c4.8-0.2,7.5-2,10.2-3.7
		c2.8-1.8,5.5-3.6,10.7-3.6c1.2,0,2.4,0.1,3.4,0.3c1.5,0.3,2.7,0.7,3.9,1.2c1.2,0.5,2.3,1.2,3.4,1.8c3.3,2,6.7,4,13.4,4
		c5.5,0,8.4-1.9,11.3-3.8c2.8-1.8,5.5-3.6,10.7-3.6c5,0,7.7,1.6,10.6,3.4c3.3,2,6.7,4,13.4,4c5.5,0,8.4-1.9,11.3-3.8
		c2.8-1.8,5.5-3.6,10.7-3.6c5,0,7.7,1.6,10.6,3.4c3.3,2,6.7,4,13.4,4c5.5,0,8.4-1.9,11.3-3.8c1.7-1.1,3.4-2.2,5.6-2.9
		c1.3-0.4,2.8-0.6,4.5-0.7c0.2,0,0.4,0,0.5,0c5,0,7.7,1.6,10.6,3.4c3.3,2,6.7,4,13.3,4c16.3,20.5,25.2,45.7,25.2,72.3
		c0,31.1-12.1,60.3-34.1,82.3c-1.5,1.5-3.2,3.1-5.2,4.9l0.1,0.1c-0.9-0.2-1.7-0.4-2.7-0.4l-5,0c1.9-5.6,0.3-10.3-2.7-13.4
		c-2.2-2.2-5.2-3.8-8.5-4.3l-1.5-7c-0.6-2.7-1.2-5-1.7-7.2c0.8-2.4,1.1-4.3,1.1-4.9c11.3-19.4,13.4-26.7,12.8-31.5l0.1-0.2
		c0-4.4-1.2-8.9-4-9c-0.4,0-0.9,0.4-0.9,0.8l0,0.1c0,0.4,0.4,0.8,0.8,0.8c0.8,0,1.7,1.5,2.1,4c-0.2-0.1-0.3-0.2-0.5-0.3
		c-3.7-1.6-11.2,1.5-23.6,9.8l-0.1-0.1l-0.2-0.4c-1.2-1.9-2.6-4.2-4.3-6.2c-1-1.2-2-2.3-3-3.2c-0.1-0.1-0.3-0.2-0.4-0.4
		c-0.9-0.8-1.9-1.5-2.8-2c-1.5-0.9-3.2-1.6-4.9-2.1c-0.5-0.1-0.9,0.2-1,0.6c-0.1,0.5,0.2,0.9,0.6,1c1.6,0.4,3.1,1.1,4.5,1.9
		c2,1.2,3.9,2.9,5.8,5.2c1.6,2,3,4.2,4.2,6l0.2,0.4c0.2,0.3,0.4,0.6,0.5,0.9c1,1.6,1.8,3.3,2.7,5l-26.8,6.4l2,8.4l28.3-6.8
		c1.1,2.9,2.2,5.9,3.2,9.1l-2.5-0.4l-0.2,0l-11,0.8l0,0l-0.3-0.2l-8.4,0.7l-0.2,0.2l-6.9,0.5c-0.5,0-0.8,0.4-0.8,0.9
		c0,0.4,0.5,9,6.6,14c2.8,2.3,6.3,3.5,10.4,3.5c1.2,0,2.4-0.1,3.7-0.3c4.2-0.6,7.7-2.9,10.3-6.7c0.8-1.2,1.4-2.4,1.9-3.5
		c0.4,1.5,0.7,3.1,1.1,4.8l1.4,6.4c-3.7-0.2-7.5,1-10.6,3.8l1.2,1.3c2.8-2.6,6.4-3.6,9.8-3.4l0.5,2.3l0,0l0.4,1.9
		c0.8,4,1.6,8,2.6,11.9l-13.8,0c-0.5,0-0.9,0.4-0.9,0.9v0l0,0c0,0.5,0.4,0.9,0.9,0.9l14.2,0c0.5,2.1,1,4.2,1.6,6.3
		c-0.3,0.3-0.5,0.5-0.8,0.8l1.2,1.2l0.1-0.1c0.9,3.2,1.8,6.3,2.9,9.4H130.2h-2.9c-3.5-4.5-7.3-6.4-10.1-7.3c0-0.3,0-0.5,0-0.8V234
		c0-4.5,3.6-8.1,8.1-8.1h13.3h6.2c0.5,0,0.9-0.4,0.9-0.9v0l0,0c0-0.5-0.4-0.9-0.9-0.9h-5.3h-14.2c-0.5,0-1.1,0.1-1.6,0.1
		c-1.9-1.7-3.6-3.2-5-4.7c-34.8-34.8-44-88.1-22.8-132.6l-0.6-0.3l0,0l-0.7-0.3c-21.5,45-12.2,98.9,23,134.2
		c1.3,1.3,2.7,2.7,4.4,4.1c-0.3,0.1-0.5,0.2-0.7,0.3c-2.2,1-3.9,2.7-4.9,4.9c-0.6,1.2-0.9,2.6-0.9,4.1v1.4c0,0.1,0,0.2,0,0.4
		c-5-1-10,0.5-11.7,3.5c-1.1,1.9-0.7,4.1,1,6c6.2,6.7,2.2,26.4-2.4,44.8c-2.8,11-5.2,44.2,5.8,54.1c0.1,0.1,0.3,0.2,0.4,0.2l0.1,0
		c0.2,0,0.5-0.1,0.6-0.3c0.3-0.4,0.3-0.9-0.1-1.2l-0.1-0.1c-9.9-9.1-8.2-40.8-5.2-52.3c5.1-19.8,8.8-39,2-46.3
		c-0.9-0.9-1.7-2.4-0.8-3.9c1-1.7,3.9-3.1,7.6-3c1.7-0.2,4.9,1,4.9,1c5.4,1.6,8.7,7,8.7,7c3.2,4.4,5.9,11.4,6.7,22.1
		c0.5,6.9,1,27.6-2.6,40.4c-0.1,0.4,0.1,0.7,0.4,0.9l0.2,0.1c0.5,0.1,0.9-0.1,1.1-0.6c3.7-13,3.2-34,2.7-41
		c-0.7-9.7-3-16.4-5.8-21.1c-0.2-0.3-0.4-0.6-0.6-0.9h1h137.9c1.2,3.2,2.5,6.4,4,9.5c18.2,37.7,36.2,50.6,55.3,64.3
		c1.8,1.3,3.6,2.6,5.4,3.9c13.9,10.1,25,22.4,32,35.7l0,0c7.7,14.4,10.5,29.5,8.1,43.6c-2.9,16.9-13.1,31.6-29.7,42.7
		c1.2-5.7,1.3-12.1,0.1-19c-0.1-0.5-0.5-0.8-1-0.7c-0.5,0.1-0.8,0.5-0.7,1c1.3,7.6,1.1,14.5-0.6,20.5c-1.9,6.7-9,13.9-14.6,18.8
		c-4.9,4.3-11.3,6.8-17.8,7l-51.1,1.7c-2.8-1.9-6.9-4.9-7.8-6.1c-0.9-1.3-2.4-4.8,1.7-9.6c5.9-6.8,16.4-7.1,24.9-7.3
		c6.3-0.2,11.3-0.3,12.8-3.2c1-1.9,0.2-4.7-2.4-8.7c-8.5-13-16-31.4-11.3-44.2c2.4-6.5,7.8-11.1,16.1-13.5c0.5-0.1,0.7-0.6,0.6-1.1
		c-0.1-0.5-0.6-0.7-1.1-0.6c-8.8,2.6-14.6,7.5-17.2,14.5c-4.9,13.3,2.7,32.4,11.5,45.7c2.2,3.3,3,5.7,2.3,6.9c-1,2-5.8,2.1-11.4,2.2
		c-8.8,0.2-19.7,0.5-26.1,7.9c-3,3.5-3.9,7.3-2.6,10.4c-4,0-8,0-12.2-0.2c-12.7-0.4-25.1-2.2-36.8-5.3c7.6-15.8,10.8-41.9,7.9-64.2
		c-0.1-0.5-0.5-0.8-1-0.7c-0.5,0.1-0.8,0.5-0.7,1c2.9,22.4-0.4,48.7-8.2,64.1c-0.5,1.1-1.1,2.2-1.6,3.2c-2.3,4.7-4.5,9.2-7.3,11.2
		c-7.2,5.1-15.5,3.1-18.3-0.5c-0.8-1-1.8-3.1,0.6-5.2c1.9-1.6,5.3-11.9,6.1-16.1c1.9-10.2,1.5-26.5,0.4-37.2
		c-0.1-0.5-0.5-0.8-0.9-0.8c-0.5,0.1-0.8,0.5-0.8,0.9c1.1,10.3,1.5,25.5-0.2,35.6c-5.7-2.6-11.1-5.6-16.2-9
		c-0.4-0.2-0.8-0.2-1.1,0.2l-0.1,0.1c-0.3,0.4-0.2,0.9,0.2,1.2c1.5,1,3,1.9,4.6,2.9c3.9,2.3,8,4.5,12.2,6.4c-1,5-4.2,13.4-5.4,14.4
		c-2.5,2.1-2.9,5-0.9,7.5c1.9,2.4,5.8,4.3,10.3,4.3c3.3,0,6.9-1,10.3-3.4c3.2-2.3,5.3-6.7,7.8-11.9c0.4-0.8,0.8-1.7,1.3-2.6
		c12,3.2,24.6,5,37.5,5.4c3.7,0.1,7.4,0.2,11,0.2c0.8,0,1.5,0,2.3,0c1.8,2.1,7.5,5.9,8.1,6.4c0.1,0.1,0.3,0.1,0.5,0.1l0,0l51.4-1.7
		c6.9-0.2,13.7-2.9,18.9-7.4c2.7-2.4,5.8-5.3,8.5-8.5c2.9-3.5,5.4-7.2,6.6-10.8c17.8-11.3,28.8-26.6,32-44.3c4.6-1.2,8.9-3,13-5.4
		c6.4-3.7,11.8-8.7,16.2-14.8c4-5.5,6.8-11.7,8.5-18.3c1.5-5.7,2.1-11.9,1.8-18.5c-0.6-10.4-3.6-20.7-9-31.5c-2.4-4.7-4.9-9-7.7-13
		c-2.6-3.9-5.6-7.9-8.8-11.7c-2.8-3.5-5.9-7-9.5-10.7l-4.4-4.7c-0.5-0.6-1.1-1.2-1.6-1.8c-0.8-0.9-1.7-1.9-2.5-2.9
		c-2.9-3.3-5.4-6.8-7.5-9.7c-2.2-3.1-4.2-6.5-6.2-10.3c-3.9-7.6-6.1-14.8-6.6-21.6c-0.3-3.6,0-7.2,0.7-10.5c0.7-3.3,2-6.5,3.7-9.5
		c3.3-5.8,8.5-10.9,15.1-14.8c3.1-1.9,6.5-3.5,10.1-4.8c3.5-1.3,7.2-2.3,11-2.9c7.6-1.4,15.3-1.4,22.3-0.2c3.3,0.6,6.7,1.5,10,2.9
		c2.9,1.3,6,3.1,8.6,5.1c5.1,4,8.7,9.1,10.2,14.7c0.1,0.4,0.6,0.7,1,0.6l0,0C442.9,208.7,443.1,208.2,443,207.7z M267.9,225.9
		c-0.8,1.5-1.8,3.1-3.2,4.8c-0.4-1.6-0.8-3.2-1.2-4.8L267.9,225.9z M268.7,224.2l-5.5,0c-0.9-4.1-1.8-8.2-2.6-12.3l-0.4-1.9l0,0l0,0
		l-0.4-1.7c2.7,0.6,5.1,1.9,6.9,3.7C269.3,214.7,270.7,219,268.7,224.2z M283.7,234v1.4c0,4.5-3.6,8.1-8.1,8.1h-7
		c-1.3-3.6-2.4-7.2-3.3-10.9c2.1-2.4,3.6-4.6,4.6-6.8l5.7,0C280,225.9,283.7,229.5,283.7,234z M229.8,200.8c-4.5-3.7-5.6-9.8-5.9-12
		l4.7-0.4c-0.4,0.8-0.6,1.7-0.6,2.6c0,3.6,3,6.6,6.6,6.6c3.6,0,6.6-2.9,6.6-6.6c0-1.3-0.4-2.5-1-3.5l9.6-0.7l3.3,0.5
		c0.3,1,0.6,2,0.8,3l0,0.1c0.2,0.6,0.3,1.1,0.5,1.7c-0.6,1.7-1.4,3.6-2.6,5.4c-2.3,3.4-5.4,5.4-9.2,6
		C237.3,204.4,233,203.5,229.8,200.8z M229.8,191.1c0-1,0.3-2,0.9-2.8l7.4-0.6c0.9,0.9,1.4,2.1,1.4,3.4c0,2.7-2.2,4.8-4.8,4.8
		C231.9,196,229.8,193.8,229.8,191.1z M258.7,165.4l-9.4,2.3l-1.6,0.4l-0.2,0.1l-0.1-0.2c-0.8-1.5-1.6-3-2.4-4.5
		c1-0.7,2-1.3,2.9-1.9c9.9-6.4,16.4-9,19.1-7.8c0.8,0.3,1.2,1.1,1.4,2.2c0.6,3.8-0.6,10.1-12.4,30.4l-1.6-0.3
		c-1-3.5-2.2-6.8-3.4-9.8l9.7-2.3L258.7,165.4z M254.9,187.7l0.6,0.1c-0.1,0.3-0.1,0.7-0.2,1.2C255.1,188.6,255,188.2,254.9,187.7z"
		/>
	<path d="M472.5,215.5c-0.5-5.9-1.9-11.7-4.1-17.1c-1.7-4.1-3.9-8.2-6.7-11.9c-0.8-1.1-1.6-2.2-2.5-3.2c-3.5-4.2-7.8-8-12.8-11.4
		c-4.6-3-9.4-5.5-14.8-7.4c-5.1-1.8-10.4-3-15.7-3.5c-0.5,0-0.9,0.3-0.9,0.8l0,0c0,0.5,0.3,0.9,0.8,0.9c5.2,0.5,10.3,1.7,15.3,3.4
		c5.2,1.9,9.9,4.2,14.4,7.2c4.9,3.2,9,6.9,12.5,11c0.1,0.1,0.2,0.3,0.3,0.4c3.6,4.3,6.5,9.3,8.6,14.3c2.1,5.3,3.5,10.9,4,16.6
		c0.5,4.9,0.4,9.9-0.2,14.8c-0.1,0.7-0.2,1.3-0.3,2c-1.8,11.4-6,21.8-12.3,31c-3.3,4.8-7.3,9.3-11.8,13.3
		c-5.1,4.4-10.7,7.8-16.7,10.1l-4.2,1.6c-4.9,1.9-10.2,1.8-15-0.3c-4.8-2.1-8.5-5.9-10.4-10.8c-0.2-0.4-0.6-0.6-1.1-0.5l0,0
		c-0.4,0.2-0.7,0.7-0.5,1.1c2.1,5.3,6.1,9.5,11.3,11.7c2.7,1.2,5.6,1.8,8.5,1.8c2.6,0,5.2-0.5,7.7-1.5l4.2-1.6
		c6.2-2.4,11.9-5.9,17.2-10.4c4.7-4.1,8.8-8.7,12.1-13.6c6.4-9.4,10.7-20.1,12.5-31.7c0.1-0.8,0.2-1.6,0.3-2.3
		C472.9,225.4,473,220.5,472.5,215.5z"/>
	<path d="M251.8,268.2l6.5,1.6l-3.1,4.1c-0.2,0.2-0.2,0.5-0.1,0.8c0.1,0.3,0.3,0.5,0.6,0.6l6.2,2l-3.7,5.5c-0.2,0.2-0.2,0.5-0.1,0.8
		c0.1,0.3,0.3,0.5,0.6,0.5l8.6,2.1l-2.8,9.9c-0.1,0.5,0.1,0.9,0.6,1.1l0.2,0c0.4,0,0.7-0.2,0.8-0.6l3-10.7c0.1-0.2,0-0.5-0.1-0.7
		s-0.3-0.3-0.5-0.4l-8.3-2l3.6-5.5c0.1-0.2,0.2-0.5,0.1-0.8s-0.3-0.5-0.5-0.5l-6.1-2l3.1-4.1c0.2-0.2,0.2-0.5,0.1-0.8
		c-0.1-0.3-0.3-0.5-0.6-0.5l-7.8-1.9c-0.5-0.1-0.9,0.2-1,0.6S251.4,268.1,251.8,268.2z"/>
	<path d="M347.2,367.1l8.5,2.5l-4.2,6.8c-0.1,0.2-0.2,0.5-0.1,0.7s0.2,0.4,0.5,0.5l7.9,3.5l-5.8,4.2c-0.2,0.2-0.4,0.5-0.4,0.8
		c0,0.3,0.2,0.6,0.5,0.7l6.3,3.3l-4.1,7.5c-0.2,0.4-0.1,0.9,0.3,1.2c0.1,0.1,0.3,0.1,0.4,0.1c0.3,0,0.6-0.2,0.8-0.5l4.5-8.3
		c0.1-0.2,0.1-0.4,0.1-0.7c-0.1-0.2-0.2-0.4-0.4-0.5l-5.8-3l5.9-4.3c0.2-0.2,0.4-0.5,0.4-0.8c0-0.3-0.2-0.6-0.5-0.7l-8.4-3.7
		l4.3-6.9c0.1-0.2,0.2-0.5,0.1-0.8c-0.1-0.3-0.3-0.4-0.6-0.5l-9.6-2.9c-0.5-0.1-0.9,0.1-1.1,0.6S346.8,366.9,347.2,367.1z"/>
	<path d="M161.9,303.8l-6.9,6.5c-0.2,0.2-0.3,0.4-0.3,0.6c0,0.2,0.1,0.5,0.2,0.6l4.6,4.7l-7,2.2c-0.3,0.1-0.5,0.3-0.6,0.6
		c-0.1,0.3,0,0.6,0.3,0.8l6.8,6.2l-6.2,5.2c-0.2,0.2-0.3,0.4-0.3,0.7c0,0.3,0.1,0.5,0.4,0.7l8.2,5.8c0.1,0.1,0.3,0.2,0.5,0.2
		c0.3,0,0.5-0.1,0.7-0.4c0.3-0.4,0.2-0.9-0.2-1.2l-7.3-5.1l6.1-5.1c0.2-0.2,0.3-0.4,0.3-0.6c0-0.2-0.1-0.5-0.3-0.7l-6.4-5.9l6.9-2.2
		c0.3-0.1,0.5-0.3,0.6-0.6c0.1-0.3,0-0.6-0.2-0.8l-4.9-5.1l6.2-5.9c0.3-0.3,0.4-0.9,0-1.2C162.8,303.5,162.3,303.5,161.9,303.8z"/>
	<path d="M212.5,234.6c-4.4,3.9-11.4,4.9-18.4,2.6c-0.4-0.2-0.9,0.1-1.1,0.5c-0.1,0.5,0.1,0.9,0.5,1.1c2.7,0.9,5.4,1.3,8,1.3
		c4.7,0,9.1-1.5,12.2-4.3c0.4-0.4,0.8-0.8,1.2-1.2c0.1,0.1,0.1,0.2,0.3,0.2c3.5,2,6.6,2.8,9.3,2.8c4,0,7-1.6,8.9-2.9
		c3.4-2.4,6-6.1,7-9.8l0,0c0.4-1.7,0.6-3.3,0.3-4.8c-0.1-0.5-0.5-0.8-1-0.7c-0.5,0.1-0.8,0.5-0.7,1c0.3,1.4,0.1,2.9-0.4,4.5l0,0
		c-1,3.1-3.2,6.3-6.1,8.4c-2.8,2-8.7,4.6-16.4,0l-0.1,0c1.7-2.5,2.3-5.4,1.8-8.3v0c-0.1-0.6-0.3-1.3-0.5-1.9c3-0.3,5.5-2,7-4.8
		c1.2-2.2,1.4-4.7,0.6-6.1c-0.2-0.3-0.6-0.8-4.3-1c-0.1,0-9.1-0.3-10.5,1.6c-1.1,1.5-1.1,3.9,0,6.2c1.2,2.4,3.1,3.8,5.3,4.1
		c0.3,0.6,0.4,1.3,0.6,1.9l0,0C216.6,228.5,215.5,232,212.5,234.6z M211.3,213.9c1.1-1,10.5-1.2,12.1-0.6c0.4,0.8,0.2,2.5-0.7,4.2
		c-0.7,1.2-2.6,4-6.7,3.9l0,0l0,0l0,0c-1.8,0-3.4-1.2-4.4-3.2C210.7,216.6,210.7,214.8,211.3,213.9z"/>
	<path d="M235.4,220.9c0,0,2.5-2.2,4.6-1.6c1.2,0.3,2.1,1.4,2.8,3.3c0.1,0.4,0.5,0.6,0.8,0.6c0.1,0,0.2,0,0.3-0.1
		c0.4-0.2,0.7-0.7,0.5-1.1c-0.9-2.4-2.2-3.9-4-4.4c-3-0.8-6.1,1.9-6.2,2c-0.4,0.3-0.4,0.9-0.1,1.2
		C234.5,221.2,235.1,221.3,235.4,220.9z"/>
	<path d="M124.9,102.8h3.3c4.2,6.6,10.3,10.5,16.3,10.5l0.1,0c0.7,0,1.3-0.1,2-0.2l3.2,3.4v-4.2c4.1-1.2,8-3.7,11.5-7.1l6.4,8.3
		c0.2,0.2,0.4,0.3,0.7,0.3l0.1,0c0.3,0,0.5-0.2,0.7-0.4c1.6-2.9,1.3-10.1-1.4-13.5c1.2-0.7,2.1-1.9,2.8-3.5c1.3-3.1,1.5-7.4,0.4-9.7
		c-0.1-0.2-0.3-0.4-0.6-0.5c-0.3-0.1-0.6,0-0.8,0.2l-7.9,7.5c-0.7-1.7-1.6-3.4-2.8-4.8V79l-5.8,5.5c-1.4-0.8-3-1.4-4.5-1.7
		c-1-3.9-4.6-6.8-8.9-6.8c-5.1,0-9.2,4.1-9.2,9.2c0,1.3,0.3,2.5,0.8,3.6c-1.3,1.5-2.4,3.2-3.1,5.1h-3.6c-1.4,0-2.4,1.6-2.4,3
		c0,0.6,0.2,1.2,0.6,1.6l0.1,0.1c-0.4,0.5-0.7,1.1-0.7,1.7C122.1,101.4,123.1,102.8,124.9,102.8z M168.9,95.8
		c-0.5,1.1-1.3,2.5-2.6,3c-0.3-0.1-0.7,0-0.9,0.3c-0.3,0.4-0.2,0.9,0.2,1.2c0.9,0.6,1.6,1.9,2.1,3.4c0.1,0.2,0.1,0.5,0.2,0.7
		c0.6,2.3,0.7,5,0.2,6.9l-6.5-8.4c-0.3-0.4-0.8-0.4-1.2-0.2c-0.4,0.3-0.4,0.8-0.2,1.1c-3.1,3.2-6.7,5.5-10.4,6.7v-4.2H149h-0.9v4.7
		c-0.3,0.1-0.6,0.1-0.9,0.2l-4.7-5.1l-0.6-0.6l-0.6,0.6l0,0l-0.6,0.6l4.4,4.8c-0.2,0-0.4,0-0.5,0h-0.1c-5.2,0-10.4-3.2-14.2-8.7h5.5
		v-1.7h-10.9c-0.7,0-1.1-0.5-1.1-0.9c0-0.2,0.1-0.5,0.3-0.7c0.2-0.2,0.7-0.4,1.6-0.4h6.8h1.2v-1.7h-1.2h-6.8h-1.2
		c-0.3,0-0.5-0.1-0.6-0.2c-0.1-0.1-0.1-0.3-0.1-0.4c0-0.7,0.5-1.3,0.7-1.3h10v-1.7H130c0.6-1.3,1.3-2.5,2.2-3.5
		c1.7,2.4,4.4,3.9,7.5,3.9c5.1,0,9.2-4.1,9.2-9.2c0-0.2,0-0.3,0-0.5c5.3,1.5,9.9,5.7,11.5,11c-0.1,0.3,0,0.6,0.2,0.8
		c0.3,0.3,0.9,0.4,1.2,0l8-7.6C170.1,90.7,169.9,93.5,168.9,95.8L168.9,95.8L168.9,95.8z M146.6,82.4c-0.4,0-0.8-0.1-1.1-0.1
		c-0.7,0-1.4,0-2.2,0.1c-0.8-1.1-2.2-1.9-3.7-1.9c-2.5,0-4.5,2-4.5,4.5l0,0.3c-0.9,0.6-1.8,1.3-2.6,2c-0.2-0.7-0.4-1.5-0.4-2.3
		c0-4.1,3.3-7.4,7.4-7.4C142.9,77.6,145.6,79.6,146.6,82.4z M144.1,84c0.4,0,0.9,0,1.3,0c0.5,0,1.1,0.1,1.6,0.2
		c0,0.3,0.1,0.6,0.1,0.9c0,4.1-3.3,7.4-7.4,7.4c-2.7,0-5-1.4-6.3-3.5c0.7-0.7,1.5-1.3,2.3-1.9c0.7,1.5,2.3,2.5,4.1,2.5
		c2.5,0,4.5-2,4.5-4.5C144.2,84.7,144.2,84.3,144.1,84z M157.2,82.9v4.5c-0.8-0.8-1.7-1.4-2.6-2L157.2,82.9z"/>
	<path class="st13" d="M364.1,358.6c-7.1-13.3-18.1-25.6-32-35.7c-1.8-1.3-3.6-2.6-5.4-3.9c-19.1-13.7-37.1-26.6-55.3-64.3
		c-1.5-3.1-2.8-6.3-4-9.5H129.5c-0.1,0.3-0.3,0.6-0.4,0.9c2.8,4.7,5.1,11.4,5.8,21.1c0.5,7,1,28-2.7,41c-0.1,0.5-0.6,0.7-1.1,0.6
		l-0.2-0.1c-0.3-0.2-0.5-0.6-0.4-0.9c3.6-12.7,3.1-33.5,2.6-40.4c-0.8-10.8-3.5-17.7-6.7-22.1c0,0-3.3-5.4-8.7-7c0,0-3.1-1.2-4.9-1
		c-3.7-0.1-6.6,1.2-7.6,3c-0.9,1.6-0.1,3,0.8,3.9c6.7,7.3,3,26.6-2,46.3c-2.9,11.6-4.7,43.2,5.2,52.3l0.1,0.1
		c0.4,0.3,0.4,0.9,0.1,1.2c-0.2,0.2-0.4,0.3-0.6,0.3l-0.1,0c0.2,10.2,1.3,20,3.2,29.3l-6.7,14.5l9,3.8l-5.2,5.7l6.8,3.4l-4.6,4.4
		l15.1,6.3c1.3,2.1,2.6,4.2,4,6.3c3.7,6.3,16.5,18.3,26.5,26.6c0.3-0.3,0.8-0.4,1.1-0.2c5.1,3.3,10.5,6.4,16.2,9
		c1.7-10.1,1.3-25.4,0.2-35.6c-0.1-0.5,0.3-0.9,0.8-0.9c0.5-0.1,0.9,0.3,0.9,0.8c1.2,10.8,1.6,27-0.4,37.2
		c-0.8,4.2-4.1,14.4-6.1,16.1c-2.4,2.1-1.5,4.1-0.6,5.2c2.8,3.7,11.2,5.6,18.3,0.5c2.8-2,5-6.5,7.3-11.2c0.5-1.1,1-2.1,1.6-3.2
		c7.8-15.4,11.1-41.7,8.2-64.1c-0.1-0.5,0.3-0.9,0.7-1c0.5-0.1,0.9,0.3,1,0.7c2.9,22.2-0.3,48.4-7.9,64.2
		c11.7,3.1,24.1,4.9,36.8,5.3c4.1,0.1,8.2,0.2,12.2,0.2c-1.3-3.1-0.4-6.9,2.6-10.4c6.4-7.4,17.3-7.7,26.1-7.9
		c5.5-0.1,10.3-0.3,11.4-2.2c0.7-1.3-0.1-3.6-2.3-6.9c-8.8-13.3-16.4-32.3-11.5-45.7c2.6-7.1,8.4-12,17.2-14.5
		c0.5-0.1,0.9,0.1,1.1,0.6c0.1,0.5-0.1,0.9-0.6,1.1c-8.3,2.4-13.7,6.9-16.1,13.5c-4.7,12.7,2.8,31.2,11.3,44.2
		c2.6,4,3.4,6.8,2.4,8.7c-1.5,2.9-6.5,3-12.8,3.2c-8.5,0.2-19,0.5-24.9,7.3c-4.2,4.8-2.6,8.3-1.7,9.6c0.8,1.2,5,4.3,7.8,6.1
		l51.1-1.7c6.6-0.2,12.9-2.7,17.8-7c5.6-4.9,12.7-12.1,14.6-18.8c1.7-5.9,1.9-12.8,0.6-20.5c-0.1-0.5,0.2-0.9,0.7-1
		c0.5-0.1,0.9,0.2,1,0.7c1.2,7,1.2,13.4-0.1,19c16.6-11,26.9-25.7,29.7-42.7C374.6,388.1,371.8,373.1,364.1,358.6L364.1,358.6z
		 M164.6,385.1c-43.5-51.8-20.8-110.1,7.9-108.3C252.3,281.9,164.6,385.1,164.6,385.1z M269.2,285.8l-3,10.7
		c-0.1,0.4-0.5,0.6-0.8,0.6l-0.2,0c-0.5-0.1-0.7-0.6-0.6-1.1l2.8-9.9l-8.6-2.1c-0.3-0.1-0.5-0.3-0.6-0.5c-0.1-0.3-0.1-0.6,0.1-0.8
		l3.7-5.5l-6.2-2c-0.3-0.1-0.5-0.3-0.6-0.6c-0.1-0.3,0-0.6,0.1-0.8l3.1-4.1l-6.5-1.6c-0.5-0.1-0.7-0.6-0.6-1s0.6-0.7,1-0.6l7.8,1.9
		c0.3,0.1,0.5,0.3,0.6,0.5c0.1,0.3,0,0.6-0.1,0.8l-3.1,4.1l6.1,2c0.3,0.1,0.5,0.3,0.5,0.5s0.1,0.5-0.1,0.8l-3.6,5.5l8.3,2
		c0.2,0.1,0.4,0.2,0.5,0.4S269.2,285.6,269.2,285.8z M362.4,390.1l-4.5,8.3c-0.2,0.3-0.5,0.5-0.8,0.5c-0.1,0-0.3,0-0.4-0.1
		c-0.4-0.2-0.6-0.7-0.3-1.2l4.1-7.5l-6.3-3.3c-0.3-0.1-0.4-0.4-0.5-0.7c0-0.3,0.1-0.6,0.4-0.8l5.8-4.2l-7.9-3.5
		c-0.2-0.1-0.4-0.3-0.5-0.5s0-0.5,0.1-0.7l4.2-6.8l-8.5-2.5c-0.5-0.1-0.7-0.6-0.6-1.1s0.6-0.7,1.1-0.6l9.6,2.9
		c0.3,0.1,0.5,0.3,0.6,0.5c0.1,0.3,0.1,0.5-0.1,0.8l-4.3,6.9l8.4,3.7c0.3,0.1,0.5,0.4,0.5,0.7c0,0.3-0.1,0.6-0.4,0.8l-5.9,4.3l5.8,3
		c0.2,0.1,0.4,0.3,0.4,0.5C362.5,389.7,362.5,389.9,362.4,390.1z"/>
	<path class="st13" d="M482.2,211.8l-8.7-4.3l5.6-5.4l-6.6-3.8l4.9-4.2l-15.5-7.6c2.7,3.7,5,7.8,6.7,11.9c2.2,5.4,3.6,11.2,4.1,17.1
		c0.5,4.9,0.4,9.9-0.2,14.9L482.2,211.8z"/>
	<path class="st13" d="M466.8,199.1c-2-5-5-9.9-8.6-14.3c-0.1-0.1-0.2-0.3-0.3-0.4c-3.4-4.1-7.6-7.8-12.5-11
		c-4.5-3-9.2-5.3-14.4-7.2c-5-1.7-10.2-2.9-15.3-3.4c-0.5,0-0.8-0.5-0.8-0.9c-10-1-19.9-0.2-29.4,2.2c-9.7,2.4-19.1,6.3-27.6,12
		c-8.5,5.6-16.1,13.3-21.1,22.8c-2.5,4.7-4.4,9.8-5.4,15.1c-0.9,5-1.2,10-1,14.9c0.5,0,0.9,0.3,0.9,0.8c0.6,9.2,3.2,18.6,7.9,28.5
		c3.8,8,8.6,16,14.7,24.3c0.9,1.2,1.8,2.4,2.7,3.5c0.5,0.7,1.1,1.4,1.6,2.1l4.3,5.3c2.8,3.4,5.2,6.7,7.5,10c2.3,3.5,4.4,7,6.2,10.5
		c1.8,3.6,3.3,7.2,4.5,10.9c2.5,7.8,3.2,15,2,20.9c-1,6-4.1,11-8.1,13.3c-1.8,1.1-3.9,1.6-5.6,1.5c-0.3,0-0.8-0.1-2.5-0.6
		c6.9,13.8,9.6,28.1,7.6,41.5c4.2-1.2,8.1-2.9,11.8-5c6.1-3.6,11.5-8.5,15.6-14.3c3.8-5.3,6.6-11.4,8.2-17.7
		c1.5-5.6,2-11.6,1.7-17.9c-0.6-10.1-3.5-20.2-8.8-30.8c-2.3-4.6-4.9-8.9-7.5-12.8c-2.6-3.9-5.5-7.8-8.7-11.6
		c-2.8-3.5-5.9-6.9-9.4-10.6l-4.4-4.7c-0.5-0.6-1.1-1.2-1.6-1.8c-0.9-1-1.7-1.9-2.6-3c-2.9-3.4-5.5-6.9-7.6-9.9
		c-2.2-3.2-4.3-6.6-6.3-10.5c-4-7.8-6.3-15.3-6.7-22.2c-0.3-3.8,0-7.5,0.7-11c0.8-3.5,2.1-6.8,3.8-10c3.5-6,8.9-11.4,15.7-15.4
		c3.2-1.9,6.7-3.6,10.4-4.9c3.6-1.3,7.4-2.3,11.3-3c7.8-1.4,15.7-1.5,22.9-0.2c3.5,0.6,7,1.6,10.4,3c3.1,1.3,6.3,3.2,9,5.3
		c5.4,4.2,9.2,9.6,10.8,15.6c0.1,0.5-0.1,0.9-0.6,1.1l0,0c0.7,2.7,1,5.4,0.9,8.3c-0.1,3.1-0.7,6.3-1.6,9.4
		c-1.8,6.2-5.4,12.1-9.8,16.4c-4.3,4.3-9.6,7-13.5,6.9c-2.5,0-5.2,0.4-7.6,1.4c-10.2,4-15.4,15.3-11.8,25.6c0.4-0.1,0.9,0.1,1.1,0.5
		c1.9,4.9,5.6,8.7,10.4,10.8c4.8,2.1,10.1,2.2,15,0.3l4.2-1.6c6-2.3,11.6-5.7,16.7-10.1c4.6-4,8.6-8.4,11.8-13.3
		c6.3-9.2,10.4-19.7,12.3-31c0.1-0.6,0.2-1.3,0.3-2c0.6-4.9,0.7-9.9,0.2-14.8C470.3,209.9,468.9,204.3,466.8,199.1z"/>
	<path class="st13" d="M263.9,234.1L263.9,234.1l-1.3-1.1c0.3-0.3,0.5-0.5,0.8-0.8c-0.6-2.1-1.1-4.2-1.6-6.3l-14.2,0
		c-0.5,0-0.9-0.4-0.9-0.9l0,0v0c0-0.5,0.4-0.9,0.9-0.9l13.8,0c-0.9-4-1.7-8-2.6-11.9l-0.4-1.9l0,0L258,208c-3.4-0.3-6.9,0.7-9.8,3.4
		l-1.2-1.3c3.1-2.9,6.9-4,10.6-3.8l-1.4-6.4c-0.4-1.7-0.8-3.3-1.1-4.8c-0.5,1.2-1.2,2.4-1.9,3.5c-2.6,3.8-6.1,6.1-10.3,6.7
		c-1.3,0.2-2.5,0.3-3.7,0.3c-4.1,0-7.6-1.2-10.4-3.5c-6.1-5-6.5-13.7-6.6-14c0-0.5,0.3-0.9,0.8-0.9l6.9-0.5l0.2-0.2l8.4-0.7l0.3,0.2
		l0,0l11-0.8l0.2,0l2.5,0.4c-1-3.2-2-6.3-3.2-9.1l-28.3,6.8l-2-8.4l26.8-6.4c-0.9-1.7-1.8-3.4-2.7-5c-0.2-0.3-0.4-0.6-0.5-0.9
		l-0.2-0.4c-1.2-1.9-2.6-4.1-4.2-6c-1.9-2.3-3.8-4-5.8-5.2c-1.4-0.8-2.9-1.5-4.5-1.9c-0.5-0.1-0.7-0.6-0.6-1c0.1-0.5,0.6-0.7,1-0.6
		c1.8,0.5,3.4,1.2,4.9,2.1c1,0.6,1.9,1.2,2.8,2l0.8-6.5l-7.3,2l1.1-5.8l-20.1,6.8l1.9,1c-2.7,0.8-5.4,1.8-8,2.9
		c0.2,0.4,0,0.9-0.4,1.1c-0.6,0.3-1.3,0.6-2,0.9c0.3,0.3,0.7,0.6,1,0.9c0.4,0.3,0.4,0.9,0.1,1.2c-0.2,0.2-0.4,0.3-0.6,0.3
		c-0.2,0-0.4-0.1-0.6-0.2c-0.6-0.6-1.3-1.2-1.9-1.8c-4-4-8.3-9.1-12-13.6c-2.9-3.5-5.6-6.9-7.9-9.2c-0.3-0.3-0.3-0.9,0-1.2
		c-3.9-3.7-7.3-4.3-10.3-1.5c0.3,0,0.6-0.1,0.9,0c4.8,0.5,11.5,10.7,22.3,29.3l0,0c1.3,2.3,2.7,4.7,4.1,7.2l0,0l0.1,0.2l0,0.1l0,0.1
		c0,0.5-0.4,0.9-0.9,0.9l-0.2-0.1l0,0l-0.2-0.1l-0.1,0c-0.1-0.1-1.2-0.8-3.1-1.1c0,0.2,0,0.4-0.2,0.6c-0.3,0.4-0.8,0.4-1.2,0.2
		l-1-0.8c-1.9,0.1-4.2,0.7-7,2.1c-0.2,0.2-0.4,0.3-0.7,0.4c-0.6,0.3-1.3,0.7-1.9,1.2c-0.1,0.2-0.3,0.3-0.5,0.3
		c-1.7,1.2-3.6,2.7-5.6,4.6c-0.2,0.2-0.5,0.5-0.7,0.7c-0.5,0.5-0.9,0.9-1.4,1.4c-1.8,1.7-3.6,3.5-5.1,5.4l30.3-3l0.8,8.2
		c8.4,0.8,13.9,2.5,14.1,2.6c0.4,0.1,0.6,0.5,0.6,0.8c0,0.2-0.8,18-25.6,19.2c-0.6,0-1.2,0-1.8,0c-6.9,0-12.1-1.9-15.6-5.8
		c-3.8-4.3-4.6-9.8-4.6-13.2l-1.2,0.1l-0.5-5.5c-9.3,13-17.3,26.2-24.2,39.4h5.3c0.5,0,0.9,0.4,0.9,0.9l0,0v0c0,0.5-0.4,0.9-0.9,0.9
		h-6.2c-0.9,1.7-1.7,3.3-2.5,5h0.3c0.9,0,1.7,0.8,1.7,1.7s-0.8,1.7-1.7,1.7h-2c-1.5,3.1-2.9,6.1-4.2,9.2h136.5
		C265.7,240.4,264.7,237.3,263.9,234.1z M186.2,219c-5.2-5.3-11.3-7.6-17.3-6.5c-4.9,0.9-9.2,4-10.9,7.8c-0.7,1.5-1,3.1-1,4.7v0
		c-0.1,2,0.4,4,1.2,5.9h11.3c0.9,0,1.7,0.8,1.7,1.7s-0.8,1.7-1.7,1.7h-9c2.3,2.5,5.5,4,9,4.1l-0.1,1.7c-4.5-0.2-8.5-2.3-11.2-5.8
		H148c-0.9,0-1.7-0.8-1.7-1.7s0.8-1.7,1.7-1.7h8.3c-0.8-1.9-1.1-3.9-1.1-5.9v0c0-1.8,0.4-3.7,1.2-5.4c1.9-4.3,6.8-7.8,12.2-8.8
		c6.6-1.2,13.3,1.3,18.9,7L186.2,219z M240.3,225L240.3,225c-1,3.6-3.5,7.4-7,9.8c-1.9,1.3-4.9,2.9-8.9,2.9c-2.7,0-5.9-0.7-9.3-2.8
		c-0.1-0.1-0.2-0.1-0.3-0.2c-0.4,0.4-0.8,0.8-1.2,1.2c-3.1,2.8-7.4,4.3-12.2,4.3c-2.6,0-5.3-0.4-8-1.3c-0.5-0.1-0.7-0.6-0.5-1.1
		c0.1-0.5,0.6-0.7,1.1-0.5c7,2.3,14.1,1.3,18.4-2.6c2.9-2.7,4.1-6.1,3.4-9.6l0,0c-0.1-0.6-0.3-1.3-0.6-1.9c-2.2-0.2-4.2-1.7-5.3-4.1
		c-1.1-2.3-1.1-4.7,0-6.2c1.4-1.8,10.4-1.6,10.5-1.6c3.8,0.1,4.1,0.6,4.3,1c0.9,1.4,0.7,3.9-0.6,6.1c-1.5,2.7-4,4.4-7,4.8
		c0.2,0.6,0.4,1.3,0.5,1.9v0c0.5,2.9-0.1,5.8-1.8,8.3l0.1,0c7.7,4.6,13.6,1.9,16.4,0c2.9-2.1,5.2-5.2,6.1-8.4l0,0
		c0.5-1.6,0.6-3.1,0.4-4.5c-0.1-0.5,0.2-0.9,0.7-1c0.5-0.1,0.9,0.2,1,0.7C240.9,221.7,240.7,223.4,240.3,225z M243.9,223.1
		c-0.1,0-0.2,0.1-0.3,0.1c-0.4,0-0.7-0.2-0.8-0.6c-0.7-1.9-1.6-3-2.8-3.3c-2.2-0.6-4.6,1.6-4.6,1.6c-0.4,0.3-0.9,0.3-1.2-0.1
		c-0.3-0.4-0.3-0.9,0.1-1.2c0.1-0.1,3.2-2.8,6.2-2c1.8,0.5,3.1,1.9,4,4.4C244.6,222.5,244.4,223,243.9,223.1z"/>
	<path class="st13" d="M267.9,225.9l-4.4,0c0.4,1.6,0.8,3.2,1.2,4.8C266.1,229,267.2,227.4,267.9,225.9z"/>
	<path class="st13" d="M266.6,212c-1.8-1.8-4.2-3.1-6.9-3.7l0.4,1.7l0,0l0,0l0.4,1.9c0.8,4.1,1.7,8.2,2.6,12.3l5.5,0
		C270.7,219,269.3,214.7,266.6,212z"/>
	<path class="st13" d="M239.5,155.1c1.7,2,3.1,4.3,4.3,6.2l0.2,0.4l0.1,0.1c12.4-8.3,19.9-11.5,23.6-9.8c0.2,0.1,0.4,0.2,0.5,0.3
		c-0.4-2.4-1.3-4-2.1-4c-0.5,0-0.8-0.4-0.8-0.8c-4.4,0.4-12.6,4-19.1,6.2l-1.1-4.8l-8.7,2.9C237.5,152.8,238.5,153.9,239.5,155.1z"
		/>
	<path class="st13" d="M247.4,167.8l0.3,0.2l1.6-0.4l-1.4-6.2c-1,0.6-1.9,1.2-2.9,1.9C245.8,164.8,246.6,166.3,247.4,167.8z"/>
	<path class="st13" d="M181.2,166.6c0.1-0.1,0.2-0.1,0.3-0.2l-0.1-0.6L181.2,166.6z"/>
	<path class="st13" d="M184.5,164.9c1.4-0.5,2.6-0.9,3.7-1.1l-2.2-1.7L184.5,164.9z"/>
	<path class="st13" d="M177.9,165l-4.7,7.7l0.2-0.2c1.9-1.8,3.8-3.3,5.5-4.5L177.9,165z"/>
	<ellipse transform="matrix(0.3827 -0.9239 0.9239 0.3827 7.6336 181.5783)" class="st2" cx="139.7" cy="85.1" rx="7.7" ry="7.7"/>
	<circle cx="139.8" cy="85" r="3.8"/>
</g>
</svg>
