<?xml version="1.0" encoding="utf-8"?>
<!-- Generator: Adobe Illustrator 25.4.1, SVG Export Plug-In . SVG Version: 6.00 Build 0)  -->
<svg version="1.1" id="Layer_1" xmlns="http://www.w3.org/2000/svg" xmlns:xlink="http://www.w3.org/1999/xlink" x="0px" y="0px"
	 viewBox="0 0 365.5 600" style="enable-background:new 0 0 365.5 600;" xml:space="preserve">
<style type="text/css">
	.st0{fill:#FFFFFF;stroke:#D2D2D2;stroke-miterlimit:10;}
	.st1{fill:#E9D3AE;}
	.st2{fill:#E2BB95;}
	.st3{fill:#FFFFFF;}
	.st4{fill:#D4D4D4;}
	.st5{fill:#A65B69;}
	.st6{fill:#98753A;}
	.st7{fill:#1D91A1;}
	.st8{fill:#077089;}
	.st9{fill:#39C7C7;}
	.st10{fill:#D37584;}
	.st11{fill:#D98391;}
	.st12{fill:#CA3A36;}
	.st13{fill:#BB0500;}
	.st14{fill:#DDCD81;}
	.st15{fill:#F6F4E0;}
	.st16{fill:none;stroke:#6A2F19;stroke-width:1.2361;stroke-miterlimit:10;}
	.st17{fill:#643300;}
	.st18{fill:none;stroke:#3C1500;stroke-width:1.2361;stroke-miterlimit:10;}
	.st19{fill:#6A2F19;}
	.st20{fill:none;stroke:#000000;stroke-width:1.1139;stroke-miterlimit:10;}
	.st21{fill:#420000;}
	.st22{fill:#001B3D;}
	.st23{fill:#65071A;}
	.st24{fill:none;stroke:#65071A;stroke-width:1.3;stroke-miterlimit:10;}
	.st25{fill:none;stroke:#65071A;stroke-width:1.3;stroke-linecap:round;stroke-miterlimit:10;}
	.st26{fill:none;stroke:#6A2F19;stroke-width:1.3;stroke-miterlimit:10;}
	.st27{fill:#3C1500;}
	.st28{fill:#E9D3AE;stroke:#3C1500;stroke-width:1.3;stroke-miterlimit:10;}
	.st29{fill:#F1E2CA;}
	.st30{fill:#98753A;stroke:#643300;stroke-width:1.2361;stroke-miterlimit:10;}
	.st31{fill:#F29795;}
	.st32{fill:#EAC29A;}
	.st33{fill:#7D47A8;}
	.st34{fill:#9756C8;}
	.st35{fill:#9E62CD;}
	.st36{fill:#430079;}
	.st37{fill:none;stroke:#430079;stroke-width:1.3;stroke-miterlimit:10;}
	.st38{fill:none;stroke:#430079;stroke-width:1.3;stroke-linecap:round;stroke-miterlimit:10;}
	.st39{fill:#EFD9B3;}
	.st40{fill:#E0E0E0;}
	.st41{fill:#323232;}
	.st42{fill:#7B7B7B;}
	.st43{fill:#484848;}
	.st44{fill:#B5B5B5;}
	.st45{fill:#D93E3A;}
	.st46{fill:#CE0600;}
	.st47{fill:#0B0B0B;}
	.st48{fill:#6D6D6D;}
	.st49{fill:#343434;}
	.st50{fill:#6E6F6E;}
	.st51{fill:#969796;}
	.st52{fill:none;stroke:#944123;stroke-width:1.2361;stroke-miterlimit:10;}
	.st53{fill:none;stroke:#732800;stroke-width:1.2361;stroke-miterlimit:10;}
	.st54{fill:#944123;}
	.st55{fill:#630000;}
	.st56{fill:none;stroke:#944123;stroke-width:1.3;stroke-miterlimit:10;}
	.st57{fill:#732800;}
	.st58{fill:#EFD9B3;stroke:#732800;stroke-width:1.3;stroke-miterlimit:10;}
	.st59{fill:#F5E6CD;}
	.st60{fill:#6D6D6D;stroke:#000000;stroke-width:1.2361;stroke-miterlimit:10;}
	.st61{fill:#F69997;}
	.st62{fill:#8E5E46;}
	.st63{fill:#B4A392;}
	.st64{fill:#E1CDB8;}
	.st65{fill:#E7D8C9;}
	.st66{fill:#734C27;}
	.st67{fill:none;stroke:#734C27;stroke-width:1.3;stroke-miterlimit:10;}
	.st68{fill:none;stroke:#734C27;stroke-width:1.3;stroke-linecap:round;stroke-miterlimit:10;}
	.st69{fill:#C38A73;}
	.st70{fill:#3D2212;}
	.st71{fill:#663122;}
	.st72{fill:#9C5347;}
	.st73{fill:#CA5A55;}
	.st74{fill:#BB231D;}
	.st75{fill:#3C2111;}
	.st76{fill:#6E4329;}
	.st77{fill:#946E4F;}
	.st78{fill:none;stroke:#3D2212;stroke-width:1.2361;stroke-miterlimit:10;}
	.st79{fill:#201100;}
	.st80{fill:#3B0000;}
	.st81{fill:none;stroke:#3D2212;stroke-width:1.3;stroke-miterlimit:10;}
	.st82{fill:#C38A73;stroke:#201100;stroke-width:1.3;stroke-miterlimit:10;}
	.st83{fill:#D39880;}
	.st84{fill:#3D2212;stroke:#201100;stroke-width:1.2361;stroke-miterlimit:10;}
	.st85{fill:#F2BCBA;}
	.st86{fill:#462A1D;}
	.st87{fill:#89A3C1;}
	.st88{fill:#ABC8EE;}
	.st89{fill:#BCD6F3;}
	.st90{fill:#1F4F80;}
	.st91{fill:none;stroke:#1F4F80;stroke-width:1.3;stroke-miterlimit:10;}
	.st92{fill:none;stroke:#1F4F80;stroke-width:1.3;stroke-linecap:round;stroke-miterlimit:10;}
	.st93{fill:#5C3B2F;}
	.st94{fill:#3B2216;}
	.st95{fill:#161616;}
	.st96{fill:#2A1009;}
	.st97{fill:#190C04;}
	.st98{fill:#47231D;}
	.st99{fill:#513226;}
	.st100{fill:#2E2F2E;}
	.st101{fill:none;stroke:#190C04;stroke-width:1.2361;stroke-miterlimit:10;}
	.st102{fill:none;stroke:#190900;stroke-width:1.2361;stroke-miterlimit:10;}
	.st103{fill:#2C1005;}
	.st104{fill:#0D0700;}
	.st105{fill:none;stroke:#190C04;stroke-width:1.3;stroke-miterlimit:10;}
	.st106{fill:#540E0C;}
	.st107{fill:#613B30;}
	.st108{fill:#513226;stroke:#0D0700;stroke-width:1.3;stroke-miterlimit:10;}
	.st109{fill:#6A4537;}
	.st110{fill:#161616;stroke:#000000;stroke-width:1.2361;stroke-miterlimit:10;}
	.st111{fill:#759548;}
	.st112{fill:#96C25E;}
	.st113{fill:#A2C86C;}
	.st114{fill:#345401;}
	.st115{fill:none;stroke:#345401;stroke-width:1.3;stroke-miterlimit:10;}
	.st116{fill:none;stroke:#345401;stroke-width:1.3;stroke-linecap:round;stroke-miterlimit:10;}
	.st117{fill:#5D5E5D;}
	.st118{fill:#270000;}
	.st119{fill:#343434;stroke:#000000;stroke-width:1.2361;stroke-miterlimit:10;}
	.st120{fill:#4F7389;}
	.st121{fill:#A13F1D;}
	.st122{fill:#892C07;}
	.st123{fill:#C75739;}
	.st124{fill:#6A97B6;}
	.st125{fill:#77A0BC;}
	.st126{fill:#AE5A3D;}
	.st127{fill:#C8745C;}
	.st128{fill:#450000;}
	.st129{fill:none;stroke:#000000;stroke-width:1.0591;stroke-miterlimit:10;}
	.st130{fill:none;stroke:#000000;stroke-width:1.2361;stroke-miterlimit:10;}
	.st131{fill:#073048;}
	.st132{fill:none;stroke:#073048;stroke-width:1.3;stroke-miterlimit:10;}
	.st133{fill:none;stroke:#073048;stroke-width:1.3;stroke-linecap:round;stroke-miterlimit:10;}
	.st134{fill:#A13F1D;stroke:#3C1500;stroke-width:1.2361;stroke-miterlimit:10;}
</style>
<path class="st0" d="M117.2,287.1c-3.7,6.2-6.9,11.6-11.1,17.4C78.7,339.5,42.5,379,30.4,418.7c-12.7,15.4-13.2,28.9-10.7,46
	c3,15.7,11.5,25.8,20.2,36c3.9,3.9,8.1,7.2,12.7,9.8c3.3,5.1,7.1,9.9,11.3,14.3c23.2,24.8,58.1,36.2,91.2,38.1
	c64.8,4.8,128.5-45.4,142.8-102.6c68-67.5,50.1-72.7,29.5-146.9c-16.3-42.2-18.4-59.4-40.1-69.8c30.9-13.3,47-38.1,55-51.1
	c3.4-7.1-1.5-12-7.5-16.1c-6.4-5-14.3-11.3-22.5-17.8c-8.3-6.6-13-17-17.2-26.8c-18.1-47.3-19.9-73-71.7-89.5
	c-50.8-17.5-155.6,4.7-152.1,63c3,21.3,16.7,39.7,37.3,51c-9.7,43.6-27.4,44.3-25,59.7c-0.3,1.5,17.9,39.7,57.1,37.3
	c-6.5,2.8-10.1,9-13,15C124.5,274.1,120.6,281.2,117.2,287.1z"/>
<g>
	<g>
		<path class="st1" d="M232.6,188.1c0,0,0.1,0,0.1,0c3.1,0.1,5.8-1.6,7.7-3.9c0,0,0-0.1,0.1-0.1c2.7-3.3,4-7.7,4.1-12
			c0,0-4.6-1.8-5.1-2c-1.6-0.8-3-1.9-4.3-3c-4.8-4.2-7.9-10-10-16c-0.8-2.3-1.4-4.6-1.9-7c-1.5-6.7-2.1-14.3-2-22.5
			c0-0.2,0-0.5,0-0.7c0-1.5-0.1-3-0.2-4.5c-0.4-4.5-1.4-8.9-3-13.1c0-0.1-0.1-0.2-0.1-0.3c-1.3-3.1-2.8-5.9-4.7-8.4
			c-11,1.9-27.4-2.9-58.6-15.1c-28.6,7.6-42.4,36.1-37.2,60c0.7,3.2,1.3,6.9,1.8,11.1c0.2,0.1,0.3,1.5,0.2,2.1
			c1,9.8,1.3,22,0.2,35.3c-1.2,14.3,9,40.5,27.5,54.7c7.7,5.9,16.9,9.7,27.3,9.7c0.9,0,1.7,0,2.6-0.1c4.2-0.2,8.3-0.8,12.2-1.8
			c24.2-6,42-26.5,43.6-51.3C233.2,195.6,232.6,188.1,232.6,188.1z"/>
	</g>
	<path class="st2" d="M235.3,167.1c-4.8-4.2-7.9-10-10-16c-0.8-2.3-1.4-4.6-1.9-7c-1.5-6.7-2.1-14.3-2-22.5c0-0.2,0-0.5,0-0.7
		c0-1.5-0.1-3-0.2-4.5c-0.4-4.5-1.4-8.9-3-13.1c0-0.1-0.1-0.2-0.1-0.3c-1.3-3.1-2.8-5.9-4.7-8.4c-0.7,0.1-1.4,0.2-2.2,0.3
		c6.4,8.4,9.5,22.1,7.2,41.8c-2.3,19.4,6.7,39.4,22.6,46.9c2.4-3.3,3.6-7.4,3.8-11.5c0,0-4.6-1.8-5.1-2
		C238.1,169.3,236.6,168.3,235.3,167.1z"/>
	<path class="st2" d="M170,237.9c-11.5-2.3-7.9-11.8-7.9-11.8l-0.6-2.8c-1.7-2-2.7-3.8-3.1-5.6c-2.6-7.1,6-12.5,6-12.5
		c2.9-5.2-2.2-7.4-2.2-7.4c-6.6,0.6-10-5.7-10-5.7l-0.4-2.6c0,0,8.8-10.6,9-20.3c1.4-55.3-15-66.7-15-66.7s-11.4-4.4-20.3,11.8
		c-5.4,9.8-3,24.1-3.5,36.1c0,0,0.2,7,0.2,7.4c1,9.8-1,16.6-2.1,30c-1.2,14.3,9,40.5,27.5,54.7h0c7.1,5.4,15.4,9.1,24.8,9.6
		C159.2,248,170,237.9,170,237.9z M145.7,185.8c-6.9,3-16.1-5.6-19.8-24.4c-4.7-24.1,22.4-38.1,29.5-1.6
		C157.1,168.4,152.6,182.9,145.7,185.8z"/>
	<path class="st3" d="M155.4,159.8c-7.2-36.5-34.2-22.5-29.5,1.6c3.7,18.8,12.9,27.4,19.8,24.4C152.6,182.9,157.1,168.4,155.4,159.8
		z"/>
	<path class="st4" d="M125.5,152.6c7.4-10,21.8-10,29.1,3.8C147.6,128.5,127.8,135.2,125.5,152.6z"/>
	<path class="st2" d="M49.5,431.7c-1.1,4.8-2,9.7-2.4,14.6c-4.5-2.2-7.3-4.2-6.9-5C41.1,439.4,43.4,436.5,49.5,431.7z"/>
	<path class="st120" d="M234.9,460.2c6.4,21.2-3.1,27.4-9,22.2h0c1.3-1.8,2.8-3.4,4.8-5c5.9-4.8-5.4-33.4-13.8-30.5
		c-0.3,0.1-0.5,0.2-0.8,0.2C219.4,436.9,229.3,441.4,234.9,460.2z"/>
	<path class="st121" d="M145.6,102.5c0,0,0.4,4.4-7.6,5.7c-8,1.2-11.5,10.2-11.5,10.2C127.6,106.2,139.7,99.9,145.6,102.5z"/>
	<path class="st121" d="M155.4,165.9c-1.1-8-6.7-13.9-12.4-13.3c-5.7,0.7-9.4,7.7-8.3,15.7c1.1,8,6.7,13.9,12.4,13.3
		c1.8-0.2,3.4-1.1,4.7-2.4c1.9-3.5,3.2-7.9,3.7-12.1C155.5,166.7,155.5,166.3,155.4,165.9z"/>
	<path class="st122" d="M141.1,156.9c6.4-0.7,12.6,5.2,14,13.3c0.2-1,0.4-2,0.5-3c0-0.4-0.1-0.8-0.1-1.2c-1.1-8-6.7-13.9-12.4-13.3
		c-3.5,0.4-6.2,3.1-7.5,7C137,158.1,138.9,157.1,141.1,156.9z"/>
	<path class="st123" d="M144.3,173.7C144.3,173.7,144.2,173.7,144.3,173.7c-1.1-3.9-4-6.6-7-6.3c-0.7,0.1-1.3,0.3-1.9,0.7
		c-0.2,0.1-0.4,0.3-0.6,0.5c1,6.3,4.7,11.2,9,12.7c0.8-1.6,1.1-3.8,0.8-6C144.5,174.7,144.4,174.2,144.3,173.7z"/>
	<path class="st1" d="M51.6,462.5c7.2,4,16.8,7.9,24.6,8.1c3.6,0.3,6.5,8.5-2.7,9.8c-2.3,0.3-4.8,0.4-7.5,0.2v0.1
		c3.4,1.8,6.8,3.2,10,3.9c3.5,0.9,4.9,9.6-4.4,9.1c-2.4-0.1-5-0.5-7.7-1.2c1.5,1.2,4.6,3.5,6.1,4.4c3.1,1.9,1.9,10.6-6.8,7.5
		c-1.2-0.4-2.5-1-3.8-1.6c-7.6-3.7-15.4-10.6-21-20.4c0,0-6.1-6.9-8.3-16c-6.7-28.2,7.2-40.7,8.9-42.4c5.4-5.5,13.4-9.1,15.8-9.5
		c0,0,7.6,7.5-1.5,14.1c-1.5,1.1-2.8,2.1-3.9,3c-6.1,4.8-8.4,7.7-9.3,9.6c-0.4,0.8,2.4,2.8,6.9,5c7.7,3.7,20.3,7.9,29.8,7.1
		c3.6-0.1,7.5,7.7-1.5,10C68.6,465.1,60.3,465,51.6,462.5z"/>
	<path class="st2" d="M39.2,425.5c0.8-1.5,2.3-2.6,3.3-4.4c-1.1,0.9-2.3,1.8-3.3,2.9c-1.7,1.7-15.6,14.2-8.9,42.4
		c2.1,9.1,8.3,16,8.3,16c1.4,2.5,2.9,4.7,4.6,6.8C32.4,474.3,26.9,448.9,39.2,425.5z"/>
	<g>
		<path class="st2" d="M72.4,476c-10.1,0.6-18.8-1.2-26.6-4.5c-4.8-2-4.4,0.5-4.2,0.5c3.1,1.6,15.7,9.4,34.2,7.8
			c4.8-1.6,4.6-5.8,2.8-8C77.9,473.6,75.8,475.8,72.4,476z"/>
		<path class="st2" d="M52.5,423.8c-1.5,1.1-2.8,2.1-3.9,3c-6.1,4.8-8.4,7.7-9.3,9.6c-0.3,0.5-0.8,4.2,0.9,5.4
			c1.4-1.8,5.3-6.9,9.3-10c1.2-0.9,2.5-1.9,3.9-3c5.6-4.1,4.9-8.5,3.5-11.3C56.6,419.4,55.4,421.6,52.5,423.8z"/>
		<path class="st2" d="M79.6,454.8c-0.6,1.5-2.2,2.9-5.2,3.7c-6.7,1.7-18,2.1-26.7-0.5c-5.4-1.5-7.2,0-4.9,1.1
			c3.3,1.5,10.3,5.2,24.8,5.4c2.7-0.1,5.3-0.5,7.7-1.1C81.8,461.7,81.6,457.2,79.6,454.8z"/>
		<path class="st2" d="M62.3,487.5c-8.5-1.8-20.8-8.5-20.6-7.8c0.4,0,10.6,12,30,14c7.8,0.8,8-5.6,5.9-8.1
			C76.9,487.5,73.9,490.3,62.3,487.5z"/>
		<path class="st2" d="M70.5,497.1c-0.8,2.3-3.3,4-8,2.3c-1.2-0.4-2.5-1-3.8-1.6c-7.6-3.7-15.4-10.6-21-20.4c0,0-6.1-6.9-8.3-16
			c-0.1-0.4-0.2-0.9-0.3-1.3c0.3,2,0.7,4,1.2,6.2c2.1,9.1,8.3,16,8.3,16c5.6,9.8,13.4,16.7,21,20.4c1.3,0.6,2.5,1.2,3.8,1.6
			C71.8,507.4,73.1,499.4,70.5,497.1z"/>
	</g>
	<path class="st120" d="M102.8,326.3c-3.8,10-2.3,22.1,4.6,29.9c-23.3,10.1-42.2,33.2-52.5,58.3c-2.3,0.4-10.4,4-15.8,9.5
		c8.2-24.4,22.2-47.8,39.6-69.9C81.8,350.2,102.8,326.3,102.8,326.3z"/>
	<path class="st124" d="M272.3,323.7c-0.5,9.7-8.8,30.7,2.6,73.8c5.6-4.9,10.1-9.1,12.6-11.9C279.9,365.7,277,346.1,272.3,323.7z
		 M70.2,496.9c-1.6-0.9-4.6-3.2-6.1-4.4c2.7,0.7,5.2,1.1,7.7,1.2c9.3,0.5,7.9-8.2,4.4-9.1c-3.2-0.7-6.7-2.1-10-3.9v-0.1
		c2.6,0.2,5.1,0.1,7.5-0.2c9.2-1.2,6.3-9.5,2.7-9.8c-7.9-0.2-17.5-4.2-24.6-8.1c8.7,2.5,17,2.6,23.7,0.9c9-2.3,5.1-10.2,1.5-10
		c-9.5,0.8-22.1-3.4-29.8-7.1c0.5-4.9,1.3-9.8,2.4-14.6c1.2-0.9,2.5-1.9,3.9-3c9.1-6.7,1.5-14.1,1.5-14.1
		c10.3-25.1,29.2-48.3,52.5-58.3c-7-7.9-8.4-19.9-4.6-29.9c1.3-3.5,3.2-6.7,5.8-9.4c0.5-0.5,1.1-1,1.7-1.7
		c10.7-11.7,27.4-45,29.9-49c4.5-7,25.8-9.7,33.1-13.9c4.2-0.2,8.3,0.2,12.2-0.8c0,0,0,3.8,0,13.6c0,16.2,47.5,10.4,47.5-12.3
		c0-5.4-0.4-8.4-0.8-15.6c13.6,7.1,45.6,11.5,56.4,18.1c15.4,9.4,43.9,102.8,48,131.9c0.6,4.3-12.9,38.8-48.1,67.7
		c-4.5,34.4-64.8,123.3-170.1,91.3c-29-8.8-47.7-25.2-58.9-43.4c1.3,0.6,2.5,1.2,3.8,1.6C72.1,507.5,73.2,498.8,70.2,496.9z"/>
	<path class="st120" d="M232.6,243.3l-47.1,11.2c-11,6.7-11.8,14.3-9.2,21.4c3.2,8.7,6.6,21.9,6.6,21.9s29-10.3,39.1-14.1
		c10.1-3.8,19-10.1,22.7-18.1C250.9,252.5,237.2,242.6,232.6,243.3z"/>
	<g>
		<path class="st120" d="M66.1,480.6L66.1,480.6c2,1.2,4,2,6,2.8c-0.1-1.1-0.5-2-1.1-2.7C69.4,480.7,67.8,480.7,66.1,480.6z"/>
		<path class="st120" d="M47.3,444.2c1.1-0.6,2.2-7.9,5.6-9.3c0.2-0.1,0.5-0.2,0.7-0.4c8.1-4.1,5.6-10.4,4.3-12.8
			c-0.2,2.2-1.3,4.6-4.5,6.9c-1.5,1.1-2.8,2.1-3.9,3c-0.5,1.9-0.8,3.8-1.2,5.7C47.7,441.2,46.9,444.4,47.3,444.2z"/>
		<path class="st120" d="M68.9,496.1c-0.2-1.2-0.9-2.3-1.9-2.8c-0.3-0.1-0.5-0.2-0.8-0.4c-0.7-0.1-1.5-0.3-2.2-0.5
			C65.2,493.5,67.3,495.1,68.9,496.1z"/>
		<path class="st120" d="M74.5,463.6c-6.5,1.5-14.5,1.3-22.9-1.1c6.7,3.7,15.4,7.3,23,8C76.8,468.4,76.1,465.2,74.5,463.6z"/>
	</g>
	<g>
		<path class="st120" d="M129.3,298.1c14-14.6,26.1-32.5,26.1-32.5c3.2-5.2,19.9-10.1,30.2-11.2c0-1.8,0-2.1,0-3
			c-3.9,1-8,0.6-12.2,0.8c-7.3,4.2-28.7,6.9-33.1,13.9c-2.3,3.7-16.3,31.5-26.9,45.4C120.2,306.2,126.9,300.6,129.3,298.1z"/>
		<path class="st120" d="M336.7,387.2c-4.1-29.1-32.6-122.4-48-131.9c-10.8-6.6-42.7-10.9-56.4-18.1c0.3,5.9,0.6,10.9,0.8,15.6
			c0,6-0.5,15.1-18.2,21.1c-8.6,2.9,26.2,1.4,41.5-12.9c0,0,17.2-0.5,24.4,4.2c7,4.6,20.1,28.4,26.6,51.6
			c6.5,23.2,23.3,66.1,21.1,73.2c-2.2,7.1-32.6,60.2-92.2,75.6c2.1,10.7-0.6,16.4-4.1,17.9c-0.2-1.7-1-3.6,0.2-4.7
			c0,0,1.4-5.5-2.9-17.7c-4.1-11.5-8.3-13.9-8.3-13.9c-0.2,0.1-7.8,4-8.1,4.1c-0.7,0.2-1.5,0.4-2.3,0.6c-8.6,1.7-20-0.7-20-0.7
			s-21.3-12.4-25.3-16.3c-1.9-1.9-9.2,6.3,4.2,17c8.9,7.1,6.6,10.8,6.6,10.8l-9.3,3c0,0-26.9-6-35.5-7.7c-5.3-1.1-9.3,8.7,0.3,12
			c15.1,5.2,25.8,10.6,25.8,10.6l-1.9,0.5c0,0-15.3,2.6-31.7,6.2c-5.3,1.2-5.6,11.8,4.5,11c15.8-1.3,32-1.5,32-1.5
			s-11,6.8-25.2,16.5c-4.6,3.1-1.3,13.2,7.8,8.5c14-7.1,25.1-10.9,25.6-11.1c-0.3,0.4-5.1,6.2-15.7,19.5c-3.5,4.4,1.4,11.8,9.8,5.7
			c17.8-12.9,29.2-18.4,29.2-18.4c4.6-3.2,18.2-8.1,24.3-13.6c1-0.9,1.9-1.8,2.7-2.7c5.1,4,10.1,6.5,10.1,6.5l47.7-22.5
			c6.9-11.6,10.9-22.5,11.9-30.4C323.8,426,337.3,391.4,336.7,387.2z"/>
	</g>
	<path class="st124" d="M239.3,252.3c2.4,6.9,3.5,16.9-4.4,21.6s-39.5,14.2-49.4,19.2c0,0-7.2-13.8-6.4-20.3c0.8-6.5,4.6-1,7.8,3.1
		c3.2,4.2,20.6,3,31-1.6C241,264,237.5,247.2,239.3,252.3z"/>
	<path class="st125" d="M185.5,278.3c13.1,4.3,42.7-2,50.8-14.4c1.9-2.9,1.1,1.4-3.4,6.6s-29.7,16.1-43.7,14
		C175.1,282.5,182.5,277.3,185.5,278.3z"/>
	<g>
		<path class="st120" d="M332.2,365.8c0-0.1-0.1-0.3-0.1-0.4C332.2,365.5,332.2,365.6,332.2,365.8z"/>
		<path class="st120" d="M330.8,360.1c0,0,0-0.1,0-0.1C330.8,360,330.8,360,330.8,360.1z"/>
		<path class="st120" d="M333.5,370.9c-0.1-0.2-0.1-0.5-0.2-0.7C333.4,370.4,333.4,370.7,333.5,370.9z"/>
		<path class="st120" d="M332.9,368.5c-0.1-0.2-0.1-0.4-0.2-0.6C332.8,368,332.8,368.2,332.9,368.5z"/>
		<path class="st120" d="M329.3,354.6c0-0.2-0.1-0.4-0.1-0.5C329.2,354.3,329.3,354.5,329.3,354.6z"/>
		<path class="st120" d="M328.5,351.7c0-0.1-0.1-0.3-0.1-0.4C328.5,351.4,328.5,351.6,328.5,351.7z"/>
		<path class="st120" d="M239.3,353.1c0,0-29.6,23.4-26.5,24.8c13.3,6,26.9,24.6,30.6,45.3c10.7-8.2,22.5-17.8,31.6-25.7
			c-11.1-43.4-3.1-64.2-2.6-73.8c-1.2-5.9-2.5-12.1-4.1-18.5l-2.1-4l0,0C266.1,301.1,238.6,338.9,239.3,353.1z"/>
		<path class="st120" d="M330.1,357.4c0-0.2-0.1-0.3-0.1-0.5C330,357.1,330,357.3,330.1,357.4z"/>
		<path class="st120" d="M335,377.9c0-0.1-0.1-0.3-0.1-0.4C335,377.7,335,377.8,335,377.9z"/>
		<path class="st120" d="M336.2,383.9c0-0.2-0.1-0.4-0.1-0.7C336.1,383.5,336.1,383.7,336.2,383.9z"/>
		<path class="st120" d="M336.5,385.6c0-0.2-0.1-0.4-0.1-0.5C336.4,385.3,336.4,385.4,336.5,385.6z"/>
		<path class="st120" d="M209.3,517.6c-72.6,48.8-143.4-5.5-145.2-8c11.5,15.4,29,29,54.3,36.7c105.3,32,165.6-56.9,170.1-91.3
			c-12.6,10.3-28,19.9-46.5,27.1C236.3,494.1,226.2,506.3,209.3,517.6z"/>
		<path class="st120" d="M334.5,375.4c0-0.1,0-0.2-0.1-0.3C334.4,375.2,334.5,375.3,334.5,375.4z"/>
		<path class="st120" d="M335.9,382.1c0-0.2-0.1-0.5-0.1-0.7C335.8,381.7,335.8,381.9,335.9,382.1z"/>
		<path class="st120" d="M334,373.2c0-0.2-0.1-0.4-0.1-0.6C333.9,372.8,333.9,373,334,373.2z"/>
		<path class="st120" d="M335.5,380.2c0-0.2-0.1-0.4-0.1-0.6C335.4,379.8,335.4,380,335.5,380.2z"/>
	</g>
	<path class="st120" d="M166.2,358.1l-1.6-6.8c21,21.9,39.3,15.5,42.6,14.5c5.3-1.7,26-7.7,30-33.8c1.1-7.3,22.7-20.6,28.9-30.8
		c0.9-1.5,17.9,30.7-15.4,47.5c0,0-14,27.9-43.4,31.4C174.3,383.9,166.2,358.1,166.2,358.1z"/>
	<path class="st120" d="M101.1,333.1c0,0,4.7,30.4,50.9,23.8c0,0,0,6.9-29.5,7.3C100.8,364.4,101.1,333.1,101.1,333.1z"/>
	<path class="st12" d="M160.7,216.4c-0.4,5.3,4.8,6.9,4.8,6.9c0,0,0,0,0,0c-0.3,0.1-3.6,1.1-6.6-4.3c-4.3-7.7,5.4-13.8,5.4-13.8
		c3.2,0.8,7.7-0.4,7.7-0.4c9.9,12.8,18.2,8.3,18.7,8c-2.1,2.3-4.4,3.6-6.7,4.2c-4.5,1.2-9.1-0.2-12.5-2.3
		C166.5,211.7,161.1,211.2,160.7,216.4z"/>
	<path class="st13" d="M173.3,209.7c-2.8-2.7-5.5-1.1-7.5-1.4c-3.6-0.4-4.4,0.2-6.2,1.7c-0.1,0.1-0.3,0.2-0.4,0.3
		c-1.4,2.4-2.2,5.4-0.3,8.7c3,5.4,6.3,4.4,6.6,4.3c0,0,0,0,0,0c0,0-5.2-1.6-4.8-6.9c0.4-5.3,5.8-4.8,10.9-1.6
		c3.4,2.1,8,3.5,12.5,2.3c1.7-0.5,3.4-1.3,5.1-2.7C182.1,215.9,177.2,213.5,173.3,209.7z"/>
	<path d="M171.6,214.8c3.4,2.1,8,3.5,12.5,2.3l0.1,0.2c-9.3,17.7-23.5,8.9-18.6,6c0,0,0,0,0,0c0,0-5.2-1.6-4.8-6.9
		C161.1,211.2,166.5,211.7,171.6,214.8z"/>
	<path class="st2" d="M229.1,199.3l-0.1-11.9l3.6,0.8l0,10.5c-1,14.9-0.8,27.1-0.4,36.3c0,0.8,0.1,1.6,0.1,2.4
		c0.4,7.2,0.8,10.1,0.8,15.6c0,22.7-47.5,28.5-47.5,12.3c0-11.9,0-13.6,0-13.6C209.7,245.5,227.6,224,229.1,199.3z"/>
	<path class="st1" d="M231.7,259.2c-2.2-9.8-8.1-14.1-15.1-14.1c-8.9,0-16.1,11.4-16.1,25.6c0,1.6-0.1,1.6,0.1,3.1
		C212.2,274.7,227.2,269,231.7,259.2z"/>
	<path class="st121" d="M147.3,242.6c-40.6,6-54.4-30.2-54.4-30.2s19-20.5,26.7-59.9c1,9.8,1.3,22,0.2,35.3
		C118.6,202.2,128.8,228.4,147.3,242.6z"/>
	<path class="st121" d="M171,77.5c-39.4-0.5-59.7,33.9-53.5,62c0.7,3.2,1.3,6.9,1.8,11c-13.7-5.8-26.8-17.9-33.3-31
		c-0.4-0.8-0.8-1.7-1.1-2.5c-0.1-0.2-0.2-0.4-0.3-0.7c-6.1-14.9-3.2-30.5,17.5-38.9C126.7,67.6,151,72,171,77.5z"/>
	<g>
		<path class="st126" d="M232.6,188.1l0.1,0C232.7,188.1,232.6,188.1,232.6,188.1L232.6,188.1z"/>
		<path class="st126" d="M305.5,165.9c-24.9-19.8-30-80-50.4-95.8c-56-43.4-129.2-18-154.6,0c-20.9,14.8-22.9,29.5-15.8,46.2
			c-3.4-8.3-4-16.8-0.3-24.2c0,0.3,0,0.4,0,0.4c7-12.6,32.5-28,69.2-13.6c31.9,12.6,48.6,17.5,59.7,15.6c5.1,6.8,8.1,15.8,8.1,26.3
			c0,0.2,0,0.5,0,0.7c-0.3,26.2,7.3,46.3,23.3,50.5c-0.2,6.5-3.4,13-8.1,15.2l0,0c-2,1-3.8,0.8-3.8,0.8s1.5,7.7-0.9,20.8l0.1,23.7
			l4.1,2.2h0c58.9,21.4,97.2-47,97.2-47S330.4,185.7,305.5,165.9z"/>
	</g>
	<path class="st121" d="M233.7,188.1c14.1,35.8,85.5,27.3,99.6-0.2c0,0-23.4,41.8-59.7,49.3c-29,6-41.7-4.6-41.7-4.6l-0.1-21.7
		c0,0,1.6-7.4,1.6-13S233.7,188.1,233.7,188.1z"/>
	<path class="st121" d="M213.3,94.6c0,0,14.8-5.2,22.2-13.4c0,0-7.1,8.3-8.5,23.9c-1.5,15.6-2.7,55.4,17.7,67
		c0,0-20.9-7.1-22.2-38.7C221.4,109.5,222.4,107.5,213.3,94.6"/>
	<g>
		<path class="st127" d="M168.8,62.3c-31.6-7.3-64.3,5.7-73.4,16c0,0,0.1,0,0.1,0c9.5-7.2,31.2-12.9,59.8-4.9
			c33.6,9.5,49,12.4,59.2,9.5c0.1,0,0.2-0.1,0.3-0.1c0.1,0,0.2-0.1,0.3-0.1c0.3-0.1,0.5-0.2,0.8-0.2l0,0c1-0.4,2-0.8,2.9-1.3
			l0.4,0.1c18-6.5,20.1-9.8,20.1-9.8C203.8,75.5,198.6,69.2,168.8,62.3z"/>
		<path class="st127" d="M92.7,79.5c-0.1,0-0.2,0.1-0.2,0.1C92.6,79.5,92.7,79.5,92.7,79.5z"/>
	</g>
	<path class="st2" d="M175.3,146.7c-5.9-40.9-3.9-48.3,7.3-45.7s24,9.2,26.2,47.1c0.9,15.6-11.3,36.8-22.2,31.2
		C175.7,173.7,177.9,165.1,175.3,146.7z"/>
	<path class="st3" d="M178,163.4c-7.1-45,33.5-40.4,29.6-7.4C204.3,184.1,182.1,189.6,178,163.4z"/>
	<path class="st4" d="M207.3,145.8c-4-20.7-29.3-22.1-30.1,6.3C180.3,139.1,200,134.5,207.3,145.8z"/>
	<path class="st121" d="M193.4,177.3c-5.8,0-10.5-6.5-10.5-14.6s4.7-14.6,10.5-14.6c5.8,0,10.5,6.5,10.5,14.6
		S199.1,177.3,193.4,177.3z"/>
	<path class="st122" d="M191.9,153.9c5.3,0,9.9,4.1,11.9,9.9c0-0.4,0-0.7,0-1.1c0-8.1-4.7-14.6-10.5-14.6c-4.5,0-8.4,4-9.8,9.7
		C185.8,155.4,188.7,153.9,191.9,153.9z"/>
	<path class="st123" d="M193.5,171C193.5,171,193.5,171,193.5,171c-1.1-3.7-3.8-6.3-6.7-6c-0.6,0.1-1.3,0.3-1.8,0.7
		c-0.6,0.4-1.2,1-1.6,1.7c1.4,5.8,5.3,10,9.9,10c0,0,0,0,0,0c0.5-1.4,0.7-3.1,0.4-4.9C193.7,171.9,193.6,171.5,193.5,171z"/>
	<path class="st13" d="M164.5,223.7c-5.2,2.2-4.1,13.3,5.5,14.3c9.6,1,17.4-8.1,18.8-19.9l0.3-3.6l-5,2.9c-9.3,17.7-23.5,8.9-18.6,6
		c0,0,0,0,0,0"/>
	<path class="st16" d="M147.3,242.6c-18.5-14.2-28.8-40.4-27.5-54.7c1.2-13.4,0.8-25.5-0.2-35.3c-0.1-0.7-0.2-1.4-0.2-2.1
		c-0.5-4.2-1.1-7.9-1.8-11c-5.2-23.7,8.4-51.9,36.4-59.8c0.5-0.1,0.2-0.1,0.7-0.2"/>
	<path class="st16" d="M232.6,188.1c0.5,3.8,0.6,7.5,0.4,11.1c-1.5,24.7-19.4,45.2-43.6,51.3c-3.9,1-8,1.6-12.2,1.8
		c-0.9,0-1.7,0.1-2.6,0.1c-10.4,0-19.6-3.8-27.3-9.7"/>
	<g>
		<path class="st27" d="M84.4,117.2c-1.5-3.5-2.8-7.1-3.5-10.9c-0.7-3.8-0.8-7.8-0.1-11.6c0.8-3.8,2.3-7.5,4.4-10.7
			c2.1-3.2,4.7-6.1,7.5-8.8c2.9-2.5,5.9-4.9,9.1-7c3.2-2.1,6.5-4,9.9-5.8c6.8-3.4,13.9-6.3,21.1-8.7c7.2-2.3,14.6-4.2,22.1-5.6
			c7.5-1.3,15.1-2.1,22.7-2.3c7.6-0.2,15.2,0.2,22.7,1.3c7.5,1.1,14.9,2.8,22.1,5.3c7.2,2.5,14.1,5.7,20.7,9.5l1.2,0.7l1.2,0.8
			l2.4,1.5c1.6,1,3.2,2.1,4.7,3.2l2.3,1.6c0.8,0.6,1.5,1.2,2.2,1.8c1.4,1.3,2.7,2.8,3.8,4.3c4.6,6.2,7.6,13.2,10.5,20.2
			c2.8,7.1,5.3,14.2,7.9,21.4c2.6,7.1,5.2,14.2,8.3,21.2c1.5,3.5,3.2,6.9,5,10.2c1.8,3.3,3.8,6.5,6.2,9.4c2.3,3,5,5.6,7.9,7.9
			l8.9,7.1l17.8,14.1l0.4,0.3l-0.3,0.5l0,0c-2.5,4.5-5.4,8.7-8.4,12.9c-1.5,2-3.1,4.1-4.8,6c-1.7,2-3.4,3.9-5.2,5.7
			c-1.8,1.9-3.6,3.7-5.5,5.4c-1,0.9-1.9,1.7-2.9,2.6l-3,2.5l-3.1,2.4l-3.2,2.2c-2.2,1.4-4.4,2.8-6.6,4l-1.7,0.9l-1.8,0.8
			c-1.2,0.5-2.3,1.2-3.5,1.6c-1.2,0.5-2.4,1-3.6,1.4l-3.7,1.2c-2.5,0.7-5,1.4-7.6,1.7l-1.9,0.3c-0.6,0.1-1.3,0.1-1.9,0.2
			c-1.3,0.1-2.6,0.3-3.9,0.3l-3.9,0c-1.3,0-2.6-0.2-3.9-0.3c-0.6-0.1-1.3-0.1-1.9-0.2l-1.9-0.3c-1.3-0.2-2.6-0.4-3.8-0.7
			c-2.5-0.7-5-1.2-7.4-2.2l-1.8-0.7l-0.9-0.3c-0.4-0.2-0.6-0.3-0.9-0.4c-0.6-0.3-1.2-0.6-1.7-0.9c-0.6-0.4-1.1-0.7-1.7-1.3l0.9-0.9
			c0.4,0.3,1,0.6,1.5,0.9c0.6,0.3,1.1,0.5,1.7,0.7c0.3,0.1,0.6,0.2,0.9,0.3l0.9,0.3l1.8,0.5l1.8,0.5l0.9,0.3l0.9,0.2l3.7,0.8
			c1.2,0.3,2.5,0.3,3.7,0.5l1.9,0.2c0.6,0.1,1.2,0.1,1.9,0.1c1.2,0.1,2.5,0.2,3.7,0.2l3.7-0.1c1.2,0,2.5-0.2,3.7-0.3
			c0.6-0.1,1.2-0.1,1.9-0.2l1.8-0.3c2.5-0.3,4.9-1,7.3-1.6l3.6-1.1c1.2-0.4,2.3-0.9,3.5-1.3c1.2-0.4,2.3-1,3.4-1.5l1.7-0.8l1.7-0.9
			c2.2-1.1,4.4-2.5,6.5-3.8l3.1-2.1l3-2.2l3-2.4c1-0.8,1.9-1.6,2.9-2.5c1.9-1.7,3.7-3.4,5.5-5.2c1.8-1.8,3.5-3.6,5.2-5.5
			c1.7-1.9,3.3-3.8,4.9-5.8c1.6-2,3.1-4,4.6-6.1c1.5-2.1,2.9-4.2,4.2-6.3l0,0l0.2,0.8l-17.8-14.1l-8.9-7.1c-3-2.4-5.8-5.1-8.1-8.1
			c-2.4-3-4.4-6.3-6.2-9.6c-1.8-3.3-3.5-6.8-5-10.3c-3.1-7-5.6-14.1-8.2-21.3c-2.5-7.2-5-14.3-7.8-21.4c-2.8-7-5.9-14-10.3-20.1
			c-0.5-0.8-1.2-1.5-1.7-2.2c-0.6-0.7-1.3-1.4-1.9-2.1c-0.7-0.7-1.4-1.3-2.1-1.9l-2.3-1.7c-1.5-1.1-3-2.3-4.6-3.3l-2.4-1.6l-1.2-0.8
			l-1.2-0.7c-6.5-3.9-13.4-7.1-20.6-9.5c-7.2-2.4-14.6-4.1-22.1-5.1c-7.5-1-15.1-1.2-22.7-0.9c-7.6,0.3-15.1,1.2-22.5,2.7
			c-7.4,1.5-14.7,3.4-21.9,5.8c-7.2,2.4-14.1,5.4-20.9,8.8c-3.3,1.7-6.6,3.6-9.7,5.7c-3.1,2.1-6.1,4.4-8.9,6.9
			c-2.7,2.6-5.3,5.3-7.3,8.4c-2.1,3.1-3.5,6.5-4.3,10.1c-0.7,3.6-0.7,7.4-0.1,11c0.6,3.7,1.8,7.2,3.3,10.7L84.4,117.2z"/>
	</g>
	<g>
		<path class="st27" d="M120.2,152.7l-0.8,4.1c-0.3,1.4-0.5,2.7-0.8,4.1l-1,4c-0.2,0.7-0.3,1.4-0.5,2l-0.6,2l-1.2,4l-1.4,3.9l-0.7,2
			l-0.8,1.9l-1.6,3.9l-1.7,3.8c-0.6,1.3-1.2,2.5-1.9,3.7c-0.6,1.2-1.3,2.5-2,3.7c-0.7,1.2-1.3,2.4-2.1,3.6c-0.7,1.2-1.5,2.4-2.2,3.5
			c-0.8,1.2-1.6,2.3-2.4,3.4c-0.8,1.1-1.7,2.2-2.5,3.3c-0.9,1.1-1.8,2.1-2.8,3.2l0.1-0.6l0,0c0.5,1.2,1.2,2.5,1.8,3.7
			c0.7,1.2,1.4,2.4,2.2,3.5c0.8,1.2,1.6,2.3,2.4,3.4c0.8,1.1,1.7,2.2,2.6,3.2l1.4,1.5l1.5,1.5c1,0.9,2,1.9,3.1,2.7
			c1.1,0.9,2.1,1.7,3.3,2.5c1.1,0.8,2.3,1.5,3.5,2.2c4.8,2.7,10,4.5,15.5,5.4c1.4,0.2,2.7,0.4,4.1,0.5c0.7,0.1,1.4,0.1,2.1,0.2
			l2.1,0l1,0l1,0l2.1-0.1c1.4-0.1,2.8-0.2,4.1-0.3l0.1,0h0v1.2h0l0.1,0c-1.4,0.2-2.8,0.5-4.2,0.6c-1.4,0.1-2.8,0.3-4.3,0.3l-2.1,0
			c-0.7,0-1.4-0.1-2.1-0.1c-1.4,0-2.8-0.3-4.3-0.4c-0.7-0.1-1.4-0.3-2.1-0.4c-0.7-0.1-1.4-0.3-2.1-0.4l-2.1-0.5l-2-0.7
			c-0.7-0.2-1.3-0.5-2-0.8c-0.7-0.3-1.3-0.5-2-0.8l-1.9-0.9l-1.9-1c-1.2-0.7-2.5-1.5-3.6-2.3c-1.2-0.8-2.3-1.7-3.4-2.6
			c-1.1-0.9-2.1-1.9-3.2-2.9l-1.5-1.5l-1.4-1.6c-0.9-1.1-1.8-2.2-2.6-3.3c-0.8-1.1-1.6-2.3-2.4-3.5c-0.7-1.2-1.4-2.4-2.1-3.7
			c-0.7-1.3-1.2-2.5-1.8-3.9l0,0l-0.1-0.3l0.3-0.3c0.8-1,1.7-2.1,2.5-3.2c0.8-1.1,1.6-2.2,2.3-3.4c0.8-1.1,1.5-2.3,2.2-3.5
			c0.7-1.2,1.4-2.3,2.1-3.5c0.7-1.2,1.4-2.4,2-3.6c0.7-1.2,1.3-2.4,1.9-3.6c0.6-1.2,1.2-2.4,1.8-3.7l1.7-3.7l1.6-3.8l0.8-1.9
			l0.7-1.9l1.4-3.9l1.3-3.9l0.6-2c0.2-0.7,0.4-1.3,0.6-2l1.1-3.9c0.4-1.3,0.7-2.7,1-4l1-4L120.2,152.7z"/>
	</g>
	<path class="st18" d="M178,163.4c-7.1-45,33.5-40.4,29.6-7.4C204.3,184.1,182.1,189.6,178,163.4z"/>
	<g>
		<path class="st27" d="M145.5,102.6c-0.5-0.2-1-0.4-1.6-0.4c-0.3,0-0.6-0.1-0.8-0.1l-0.9,0c-0.6,0-1.1,0.2-1.7,0.2
			c-0.6,0.1-1.1,0.3-1.7,0.5c-0.5,0.2-1.1,0.4-1.6,0.7c-0.5,0.3-1,0.5-1.5,0.8c-0.5,0.3-1,0.6-1.4,1c-0.4,0.4-0.9,0.7-1.3,1.1
			l-1.2,1.2l-1.1,1.3c-0.3,0.5-0.6,1-1,1.4c-0.3,0.5-0.5,1-0.8,1.5c-0.3,0.5-0.5,1-0.7,1.6l-0.3,0.8l-0.2,0.8
			c-0.1,0.6-0.3,1.1-0.4,1.7l-0.2,1.7l-1.2-0.3l0,0c0.2-0.6,0.5-1,0.8-1.5c0.3-0.5,0.6-1,0.9-1.5c0.3-0.5,0.6-0.9,1-1.4
			c0.3-0.5,0.7-0.9,1.1-1.3c0.4-0.4,0.8-0.8,1.2-1.2l0.6-0.6l0.7-0.5c0.4-0.4,0.9-0.6,1.4-0.9c0.5-0.3,1-0.5,1.5-0.7
			c0.5-0.2,1.1-0.4,1.6-0.5c0.6-0.1,1.1-0.2,1.6-0.3c1.1-0.2,2.1-0.4,3.1-0.8c0.5-0.2,1-0.4,1.4-0.7c0.5-0.3,0.9-0.6,1.3-1
			c0.4-0.4,0.7-0.8,0.9-1.3C145.3,103.6,145.5,103.1,145.5,102.6z M145.8,102.5c0,0.6-0.1,1.2-0.4,1.7c-0.2,0.5-0.6,1-0.9,1.4
			c-0.4,0.4-0.8,0.8-1.3,1.1c-0.5,0.3-1,0.6-1.5,0.8c-1,0.4-2.1,0.7-3.2,0.9c-0.5,0.1-1.1,0.2-1.6,0.4c-0.5,0.1-1,0.4-1.5,0.5
			c-0.5,0.2-1,0.5-1.4,0.7c-0.4,0.3-0.9,0.6-1.3,0.9l-0.6,0.5l-0.6,0.6c-0.4,0.4-0.7,0.8-1.1,1.2c-0.3,0.4-0.7,0.8-1,1.3
			c-0.3,0.4-0.6,0.9-0.9,1.3c-0.3,0.5-0.5,0.9-0.8,1.4c-0.2,0.5-0.5,1-0.6,1.4l0,0l-2,4.7l0.8-5l0.3-1.8c0.1-0.6,0.3-1.2,0.4-1.8
			l0.3-0.9l0.3-0.8c0.2-0.6,0.4-1.1,0.8-1.6c0.3-0.5,0.6-1.1,0.9-1.6c0.4-0.5,0.7-1,1.1-1.5l1.2-1.4l1.3-1.2
			c0.5-0.4,0.9-0.7,1.4-1.1c0.5-0.4,1-0.6,1.5-1c0.5-0.3,1.1-0.5,1.6-0.8c0.5-0.2,1.1-0.4,1.7-0.6c0.6-0.2,1.2-0.3,1.7-0.4
			c0.6-0.1,1.2-0.2,1.8-0.2l0.9,0c0.3,0,0.6,0.1,0.9,0.1c0.6,0.1,1.1,0.3,1.7,0.5l0.1,0L145.8,102.5z"/>
	</g>
	<g>
		<path class="st19" d="M159.9,174.1c0,0,0,0.2-0.1,0.5c-0.1,0.3-0.1,0.8-0.3,1.4c-0.1,0.6-0.4,1.3-0.6,2.1
			c-0.3,0.8-0.7,1.7-1.1,2.6c-0.4,0.9-1,1.9-1.6,3c-0.6,1-1.3,2.1-2,3.1c-0.7,1.1-1.5,2.2-2.1,3.2c0,0,0,0.4,0,0.6
			c0,0.3,0.1,0.6,0.3,0.8c0.2,0.6,0.6,1.1,1,1.6c0.8,1,1.8,1.9,2.8,2.5c1.1,0.6,2.3,1.1,3.4,1.3c2.4,0.5,4.7,0.2,6.6-0.3
			c1.9-0.5,3.4-1.2,4.5-1.7c1-0.5,1.6-0.9,1.6-0.9c0.3-0.2,0.7-0.1,0.9,0.2c0.2,0.3,0.1,0.7-0.2,0.9l0,0c0,0-0.6,0.4-1.7,1
			c-1.1,0.6-2.7,1.4-4.7,2c-2,0.6-4.6,0.9-7.3,0.4c-2.7-0.5-5.3-2.1-7.1-4.5c-0.4-0.6-0.8-1.2-1.1-1.9c-0.1-0.4-0.3-0.7-0.3-1.1
			c-0.1-0.4-0.1-0.8,0.1-1.4c0.4-0.7,0.8-1.2,1.2-1.7c0.4-0.5,0.8-1.1,1.2-1.6c1.5-2.1,2.8-4,3.9-5.8c0.5-0.9,0.9-1.7,1.3-2.5
			c0.3-0.7,0.6-1.4,0.8-2c0.2-0.6,0.3-1,0.4-1.3C159.9,174.3,159.9,174.1,159.9,174.1z"/>
	</g>
	<path class="st20" d="M184.1,217.3c-9.3,17.7-23.5,8.9-18.6,6c0,0,0,0,0,0"/>
	<g>
		<path class="st128" d="M164.8,224.1c0,0-0.2,0.1-0.5,0.3c-0.4,0.2-0.7,0.5-1.1,0.9c-0.4,0.5-0.8,1.1-1,2c-0.3,0.8-0.3,1.9-0.2,3
			c0.1,1.1,0.6,2.3,1.3,3.3c0.7,1.1,1.7,2,2.9,2.7c0.6,0.4,1.3,0.6,2,0.8c0.3,0.1,0.7,0.1,1.1,0.2l0.5,0.1l0.1,0l0,0c0,0,0,0,0,0
			l0.1,0l0.3,0l1.2,0.1c0.4,0,0.8-0.1,1.1-0.1c0.8,0,1.5-0.2,2.2-0.4c1.5-0.5,2.9-1,4.1-1.9l0.5-0.3l0.4-0.4
			c0.3-0.2,0.6-0.5,0.9-0.7c0.5-0.5,1.1-1,1.6-1.6c0.5-0.6,1-1.1,1.3-1.7c0.4-0.6,0.8-1.1,1.1-1.7c0.3-0.6,0.7-1.1,0.9-1.7
			c0.3-0.6,0.6-1.1,0.8-1.7c0.5-1.1,0.8-2.1,1.1-3c0.3-0.9,0.4-1.7,0.6-2.4c0.2-1.4,0.3-2.1,0.3-2.1l0,0c0-0.1,0.1-0.2,0.2-0.2
			c0.1,0,0.2,0.1,0.2,0.2c0,0-0.1,0.8-0.3,2.2c-0.2,0.7-0.3,1.5-0.6,2.4c-0.3,0.9-0.6,2-1,3.1c-0.2,0.6-0.5,1.1-0.7,1.7
			c-0.3,0.6-0.6,1.2-0.9,1.8c-0.3,0.6-0.7,1.2-1.1,1.8c-0.4,0.6-0.9,1.2-1.4,1.7c-0.5,0.6-1.1,1.1-1.6,1.6c-0.3,0.2-0.6,0.5-0.9,0.7
			l-0.5,0.4l-0.5,0.3c-1.3,0.9-2.8,1.6-4.3,2.1c-1.5,0.4-3.3,0.6-4.8,0.5l-0.3,0l-0.1,0l-0.1,0l0,0l-0.1,0l-0.6-0.1
			c-0.4-0.1-0.8-0.1-1.2-0.2c-0.8-0.2-1.5-0.5-2.2-0.9c-1.4-0.7-2.5-1.7-3.3-3c-0.8-1.2-1.3-2.5-1.5-3.7c-0.2-1.2-0.1-2.4,0.1-3.4
			c0.2-1,0.7-1.8,1.2-2.4c0.5-0.6,1.1-1,1.4-1.2c0.3-0.2,0.5-0.3,0.5-0.3c0.3-0.2,0.6-0.1,0.8,0.2
			C165.2,223.6,165.1,224,164.8,224.1C164.8,224.1,164.8,224.1,164.8,224.1z"/>
	</g>
	<ellipse class="st129" cx="193.4" cy="162.7" rx="10.5" ry="14.6"/>
	<path class="st130" d="M155.4,165.9c-1.1-8-6.7-13.9-12.4-13.3c-5.7,0.7-9.4,7.7-8.3,15.7c1.1,8,6.7,13.9,12.4,13.3
		c1.8-0.2,3.4-1.1,4.7-2.4c1.9-3.5,3.2-7.9,3.7-12.1C155.5,166.7,155.5,166.3,155.4,165.9z"/>
	<path class="st18" d="M155.4,159.8c-7.2-36.5-34.2-22.5-29.5,1.6c3.7,18.8,12.9,27.4,19.8,24.4
		C152.6,182.9,157.1,168.4,155.4,159.8z"/>
	<g>
		<path class="st131" d="M213.1,447.3c0.8-1.9,1.8-3.7,3.1-5.4c0.7-0.8,1.4-1.6,2.4-2.2c0.9-0.5,1.8-0.9,2.7-1.4
			c1.7-1,3.4-2.1,5.1-3.2c1.7-1.1,3.3-2.3,5-3.4c3.3-2.3,6.6-4.7,9.8-7.1c3.2-2.4,6.4-4.9,9.6-7.4c3.2-2.5,6.3-5,9.5-7.6
			c3.1-2.6,6.2-5.2,9.3-7.8c3.1-2.6,6.1-5.3,9-8.1c1.5-1.4,2.9-2.8,4.4-4.2c1.4-1.4,2.8-2.9,4.1-4.4l0,0l-0.1,0.7
			c-0.7-1.6-1.4-3.2-2-4.8c-0.6-1.6-1.2-3.2-1.8-4.9c-0.6-1.6-1.1-3.3-1.6-4.9c-0.5-1.7-1-3.3-1.5-5c-0.5-1.7-0.9-3.3-1.3-5
			c-0.4-1.7-0.8-3.4-1.2-5c-0.8-3.4-1.5-6.8-2.2-10.1c-0.7-3.4-1.3-6.8-2-10.2l-1.9-10.2l-0.2-1.3l-0.2-1.3l-0.5-2.5l-1-5.1
			c-0.3-1.7-0.6-3.4-0.9-5.1c-0.3-1.7-0.6-3.4-0.9-5.1l0.6-0.1c0.5,1.7,0.9,3.3,1.4,5c0.4,1.7,0.9,3.3,1.3,5l1.3,5l0.6,2.5l0.3,1.3
			l0.3,1.3c0.7,3.4,1.5,6.7,2.2,10.1l2.1,10.1l2.1,10.1c0.8,3.4,1.5,6.7,2.3,10c0.8,3.3,1.7,6.6,2.7,9.9c0.5,1.7,1,3.3,1.5,4.9
			c0.5,1.6,1.1,3.3,1.6,4.9l0.1,0.4l-0.3,0.3l0,0c-2.9,2.9-5.9,5.6-8.9,8.3c-3,2.7-6.1,5.3-9.2,7.9c-3.1,2.6-6.2,5.2-9.4,7.7
			l-9.5,7.6c-3.2,2.5-6.4,5-9.6,7.5l-4.8,3.7c-1.6,1.2-3.2,2.4-4.9,3.6c-1.6,1.2-3.3,2.4-5,3.5c-1.7,1.1-3.3,2.3-5.1,3.4
			c-0.9,0.6-1.7,1-2.6,1.5c-0.8,0.4-1.4,1.2-2,1.9c-1.1,1.6-2.1,3.4-2.8,5.2L213.1,447.3z"/>
	</g>
	<g>
		<path class="st131" d="M144.4,279.8c0,0-0.3,0.4-0.9,1.3c-0.6,0.8-1.4,2-2.6,3.5c-0.6,0.7-1.2,1.6-1.9,2.5
			c-0.7,0.9-1.5,1.8-2.3,2.9c-1.7,2-3.6,4.3-5.8,6.6c-2.2,2.4-4.7,4.8-7.4,7.4c-2.7,2.5-5.6,5.1-8.7,7.8c-1.5,1.3-3,2.7-4.5,4.2
			c-1.5,1.5-2.8,3-3.9,4.8c-1.1,1.7-2.1,3.6-2.8,5.6l-0.1,0.4l-0.1,0.4l-0.2,0.8c-0.2,0.5-0.3,1-0.4,1.5c-0.3,1-0.4,2-0.6,3.1
			c-0.6,4.1-0.4,8.4,0.7,12.3c0.5,2,1.2,3.9,2.2,5.6c0.9,1.7,2,3.4,3.2,4.8l0.2,0.3l0,0c0,0-0.1-0.1,0,0l0.1,0.1l0.1,0.1l0.5,0.5
			c0.4,0.3,0.7,0.7,1,1c0.3,0.3,0.7,0.6,1,0.9c0.4,0.3,0.7,0.5,1.1,0.8c0.7,0.6,1.5,1,2.3,1.4c0.8,0.4,1.6,0.8,2.4,1.1
			c3.3,1.3,6.6,1.9,9.7,2c0.8,0,1.5,0.1,2.3,0c0.8,0,1.5,0,2.2-0.1c1.4-0.1,2.8-0.2,4.1-0.4c0.6-0.1,1.3-0.2,1.9-0.3
			c0.6-0.1,1.2-0.2,1.7-0.4c0.6-0.1,1.1-0.2,1.6-0.3c0.5-0.1,1-0.2,1.4-0.4c0.9-0.2,1.7-0.4,2.4-0.6c0.7-0.2,1.3-0.4,1.8-0.5
			c1-0.3,1.5-0.4,1.5-0.4s-0.5,0.2-1.4,0.7c-0.9,0.4-2.2,1.1-4,1.8c-0.4,0.2-0.9,0.4-1.4,0.5c-0.5,0.2-1,0.3-1.6,0.5
			c-0.5,0.2-1.1,0.4-1.7,0.5c-0.6,0.2-1.2,0.3-1.9,0.5c-2.6,0.6-5.6,1.1-8.9,1.1c-3.3,0-7-0.5-10.6-1.9c-0.9-0.3-1.8-0.8-2.7-1.2
			c-0.8-0.5-1.8-1-2.6-1.6c-0.4-0.3-0.8-0.6-1.2-0.9c-0.4-0.3-0.8-0.7-1.2-1.1c-0.4-0.4-0.7-0.7-1.1-1.1l-0.5-0.5l-0.1-0.1l-0.1-0.1
			l-0.1-0.1l0,0l-0.2-0.3c-2.7-3.3-4.7-7.3-5.6-11.6c-1-4.3-1-8.8-0.2-13.2c0.2-1.1,0.5-2.2,0.8-3.2c0.1-0.5,0.3-1.1,0.5-1.6
			l0.3-0.8l0.1-0.4l0.2-0.4c0.8-2,1.9-4,3.1-5.7c1.2-1.8,2.7-3.4,4.2-4.8c1.5-1.4,3.1-2.8,4.6-4.1c3.1-2.6,6.1-5.1,8.8-7.6
			c2.7-2.5,5.3-4.9,7.5-7.2c2.3-2.3,4.2-4.5,6-6.5c1.7-2,3.1-3.8,4.3-5.3c1.2-1.5,2-2.7,2.6-3.5
			C144.1,280.2,144.4,279.8,144.4,279.8z"/>
	</g>
	<g>
		<path class="st131" d="M166.2,358.1c0,0,0.2,0.3,0.4,0.9c0.3,0.6,0.7,1.5,1.4,2.5c0.3,0.5,0.6,1.1,1.1,1.7
			c0.4,0.6,0.9,1.3,1.4,1.9c0.6,0.6,1.1,1.3,1.8,2c0.3,0.3,0.7,0.7,1,1c0.4,0.3,0.8,0.7,1.2,1c1.6,1.4,3.4,2.6,5.5,3.8
			c2.1,1.2,4.3,2.2,6.7,3.1c2.4,0.8,5,1.6,7.7,2c2.7,0.5,5.4,0.7,8.2,0.7c2.7,0,5.5-0.2,8.2-0.7c0.7-0.1,1.3-0.3,2-0.4
			c0.7-0.1,1.3-0.3,1.9-0.5c0.6-0.2,1.3-0.4,1.9-0.5c0.6-0.2,1.2-0.4,1.8-0.7c0.6-0.2,1.2-0.5,1.8-0.7c0.6-0.3,1.2-0.5,1.7-0.8
			c0.5-0.3,1.1-0.6,1.6-0.9c0.3-0.1,0.5-0.3,0.8-0.4c0.3-0.2,0.5-0.3,0.8-0.5c0.5-0.3,1-0.6,1.5-0.9c0.5-0.3,0.9-0.7,1.4-1
			c0.4-0.3,0.9-0.6,1.3-1c0.4-0.4,0.8-0.7,1.2-1c0.8-0.7,1.5-1.4,2.2-2.1c0.3-0.3,0.7-0.7,1-1c0.3-0.3,0.6-0.7,0.9-1
			c1.1-1.3,2-2.5,2.7-3.5c0.7-1,1.2-1.8,1.6-2.4c0.4-0.6,0.5-0.9,0.5-0.9s-0.1,0.3-0.4,0.9c-0.3,0.6-0.6,1.5-1.3,2.6
			c-0.6,1.1-1.3,2.4-2.4,3.8c-0.3,0.4-0.5,0.7-0.8,1.1c-0.3,0.4-0.6,0.7-0.9,1.1c-0.6,0.8-1.3,1.6-2.1,2.3c-0.4,0.4-0.8,0.8-1.2,1.2
			c-0.4,0.4-0.9,0.7-1.3,1.1c-0.5,0.4-0.9,0.8-1.4,1.1c-0.5,0.3-1,0.7-1.5,1.1c-0.3,0.2-0.5,0.4-0.8,0.5c-0.3,0.2-0.5,0.3-0.8,0.5
			c-0.6,0.3-1.1,0.7-1.7,1c-0.6,0.3-1.2,0.6-1.8,0.9c-0.6,0.3-1.2,0.6-1.8,0.8c-0.6,0.3-1.3,0.5-1.9,0.8c-0.7,0.2-1.3,0.4-2,0.6
			c-0.7,0.2-1.3,0.4-2,0.6c-0.7,0.2-1.4,0.4-2.1,0.5c-2.8,0.5-5.7,0.8-8.6,0.8c-2.9,0-5.8-0.3-8.6-0.8c-2.8-0.5-5.5-1.4-8.1-2.4
			c-2.5-1-4.9-2.2-7-3.6c-2.1-1.4-3.9-2.8-5.5-4.4c-0.4-0.4-0.8-0.8-1.1-1.1c-0.3-0.4-0.7-0.8-1-1.2c-0.7-0.7-1.2-1.5-1.7-2.2
			c-0.5-0.7-0.9-1.4-1.3-2.1c-0.4-0.6-0.7-1.3-0.9-1.9c-0.6-1.1-0.8-2.1-1-2.7C166.3,358.5,166.2,358.1,166.2,358.1z"/>
	</g>
	<g>
		<path class="st131" d="M60.1,502.5c0,0,0.6,0.9,1.9,2.7c1.2,1.7,3.1,4.2,5.6,7.2c2.6,3,5.9,6.5,10,10.1c4.1,3.6,9.1,7.3,14.9,10.8
			c5.8,3.5,12.4,6.6,19.7,9.3c1.8,0.7,3.7,1.2,5.6,1.9c0.5,0.1,1,0.3,1.4,0.4l1.5,0.4c1,0.3,2,0.5,3,0.8c2,0.5,4,1.1,6,1.6
			c2,0.4,4.1,0.9,6.1,1.3c2,0.5,4.2,0.8,6.3,1.1c1.1,0.2,2.1,0.3,3.2,0.5c1.1,0.2,2.1,0.3,3.2,0.4c2.2,0.2,4.3,0.4,6.5,0.5
			c1.1,0.1,2.2,0.1,3.3,0.1c1.1,0,2.2,0,3.3,0.1c8.9,0,17.9-0.7,26.7-2.6c8.8-1.9,17.4-4.7,25.5-8.3c8.1-3.6,15.7-8,22.6-12.9
			c6.9-4.9,13.1-10.3,18.5-15.8c5.4-5.5,10.2-11.2,14.2-16.6c4-5.5,7.3-10.7,9.9-15.6c2.6-4.9,4.6-9.2,5.9-13
			c0.4-0.9,0.7-1.8,0.9-2.6c0.3-0.8,0.5-1.6,0.8-2.3c0.4-1.5,0.7-2.7,1-3.8c0.4-2.1,0.6-3.2,0.6-3.2l1.3,0.2c0,0-0.2,1.1-0.5,3.3
			c-0.2,1.1-0.6,2.3-0.9,3.9c-0.2,0.7-0.5,1.5-0.7,2.4c-0.3,0.9-0.5,1.8-0.9,2.7c-1.3,3.8-3.3,8.3-5.8,13.2c-2.5,5-5.8,10.4-9.8,16
			c-4,5.6-8.7,11.4-14.2,17c-5.5,5.7-11.7,11.2-18.7,16.2c-7,5-14.7,9.6-22.9,13.4c-8.2,3.8-17,6.7-26,8.6c-9,1.9-18.2,2.7-27.3,2.7
			c-1.1,0-2.3,0-3.4,0c-1.1,0-2.3,0-3.4-0.1c-2.2-0.2-4.5-0.4-6.7-0.5c-1.1-0.1-2.2-0.2-3.3-0.4c-1.1-0.2-2.2-0.3-3.3-0.5
			c-2.2-0.3-4.3-0.6-6.4-1.1c-2.1-0.4-4.2-0.9-6.3-1.3c-2.1-0.4-4-1.1-6-1.6c-1-0.3-2-0.5-3-0.8l-1.5-0.4c-0.6-0.2-1-0.3-1.5-0.5
			c-1.9-0.6-3.8-1.2-5.7-2c-7.4-2.8-14.2-6.1-20.1-9.7c-5.9-3.6-10.9-7.6-15-11.4c-4.1-3.8-7.4-7.5-9.9-10.6
			c-2.5-3.2-4.3-5.8-5.4-7.6c-1.1-1.8-1.7-2.8-1.7-2.8L60.1,502.5z"/>
	</g>
	<g>
		<path class="st131" d="M50.1,431.8c0,0-0.1,0.9-0.3,2.3c-0.2,1.4-0.5,3.2-0.7,5c-0.3,1.8-0.6,3.6-0.9,5c-0.3,1.4-0.5,2.2-0.5,2.2
			l-1.3-0.1c0,0-0.1-0.9,0-2.3c0-1.4,0.2-3.3,0.6-5.1c0.3-1.8,0.8-3.7,1.2-5c0.4-1.3,0.8-2.2,0.8-2.2L50.1,431.8z"/>
	</g>
	<g>
		<path class="st131" d="M107.7,356.8c0,0-1.1,0.6-3.1,1.6c-1,0.5-2.1,1.1-3.4,1.9c-0.6,0.4-1.3,0.8-2.1,1.2c-0.7,0.5-1.4,1-2.2,1.5
			c-1.6,1-3.1,2.3-4.9,3.5c-0.9,0.6-1.7,1.4-2.5,2.1c-0.9,0.7-1.8,1.4-2.6,2.2c-0.9,0.8-1.7,1.6-2.6,2.4c-0.9,0.8-1.7,1.7-2.6,2.6
			c-0.9,0.9-1.7,1.8-2.5,2.7c-0.8,0.9-1.7,1.8-2.5,2.8c-0.8,1-1.6,1.9-2.4,2.9c-0.8,1-1.5,2-2.2,2.9c-0.4,0.5-0.7,1-1.1,1.5
			c-0.3,0.5-0.7,1-1,1.5c-0.7,1-1.4,2-2,2.9c-1.2,2-2.5,3.8-3.5,5.7c-0.5,0.9-1.1,1.8-1.6,2.7c-0.5,0.9-0.9,1.7-1.4,2.5
			c-0.9,1.6-1.7,3.1-2.4,4.5c-0.4,0.7-0.7,1.3-1,1.9c-0.3,0.6-0.6,1.1-0.8,1.6c-1,1.9-1.7,3-1.7,3l-1.2-0.5c0,0,0.3-1.2,1.1-3.3
			c0.3-1.1,0.8-2.3,1.4-3.7c0.3-0.7,0.6-1.5,1-2.3c0.4-0.8,0.8-1.6,1.2-2.5c0.4-0.8,0.9-1.7,1.4-2.6c0.5-0.9,1.1-1.8,1.6-2.7
			c1.1-1.9,2.4-3.8,3.7-5.8c0.7-1,1.4-2,2.1-3c0.4-0.5,0.7-1,1.1-1.5c0.4-0.5,0.8-1,1.1-1.5c0.8-1,1.5-2,2.3-3
			c0.8-1,1.6-1.9,2.5-2.9c0.8-1,1.7-1.9,2.6-2.8c0.9-0.9,1.7-1.8,2.6-2.7c0.9-0.9,1.8-1.7,2.7-2.6c0.9-0.8,1.8-1.6,2.7-2.4
			c0.9-0.8,1.8-1.5,2.7-2.2c0.9-0.7,1.8-1.4,2.7-2c1.8-1.2,3.5-2.5,5.1-3.4c0.8-0.5,1.6-1,2.3-1.4c0.8-0.4,1.5-0.8,2.2-1.2
			c1.4-0.7,2.6-1.4,3.6-1.8c2-0.9,3.2-1.4,3.2-1.4L107.7,356.8z"/>
	</g>
	<g>
		<path class="st131" d="M103.3,326.7c0,0-4.8,5.6-11.9,14c-1.8,2.1-3.7,4.4-5.8,6.8c-2,2.4-4.2,4.9-6.3,7.6c-1,1.4-2.1,2.8-3.2,4.2
			c-1,1.4-2.1,2.9-3.2,4.3c-2.1,2.9-4.2,5.9-6.3,8.9c-2,3-4,6.1-5.9,9.2c-1.9,3.1-3.7,6.1-5.4,9.1c-0.9,1.5-1.7,3-2.4,4.4
			c-0.8,1.4-1.5,2.9-2.2,4.3c-0.7,1.4-1.4,2.8-2,4.1c-0.6,1.3-1.3,2.6-1.9,3.8c-0.6,1.2-1.1,2.4-1.7,3.6c-0.5,1.1-1,2.2-1.4,3.3
			c-0.9,2-1.6,3.8-2.2,5.3c-1.2,3-1.8,4.7-1.8,4.7l-1.2-0.4c0,0,0.5-1.8,1.5-4.8c0.6-1.5,1.1-3.4,2-5.5c0.4-1,0.9-2.2,1.3-3.3
			c0.5-1.2,1-2.4,1.5-3.7c1.1-2.5,2.4-5.3,3.8-8.1c0.7-1.4,1.4-2.9,2.2-4.3c0.8-1.5,1.6-3,2.4-4.5c0.8-1.5,1.7-3,2.6-4.6
			c0.9-1.5,1.9-3.1,2.8-4.6c1.9-3.1,3.9-6.2,6-9.2c2.1-3,4.2-6,6.4-9c2.2-2.9,4.4-5.7,6.5-8.4c2.2-2.7,4.4-5.2,6.5-7.6
			c2.1-2.4,4.1-4.6,5.9-6.7c3.7-4.1,6.7-7.5,8.9-9.9c2.2-2.4,3.4-3.7,3.4-3.7L103.3,326.7z"/>
	</g>
	<g>
		<path class="st131" d="M173.6,252.9c0,0-0.3,0.2-1,0.5c-0.7,0.3-1.6,0.7-2.9,1.2c-2.5,0.9-6.1,2-10.4,3.3
			c-2.2,0.6-4.5,1.3-6.9,2.2c-2.4,0.8-5,1.8-7.4,3.1c-1.2,0.7-2.3,1.4-3.3,2.4c-0.2,0.2-0.5,0.5-0.6,0.7c-0.1,0.1-0.2,0.3-0.3,0.4
			l-0.3,0.5c-0.4,0.6-0.7,1.3-1.1,1.9c-1.4,2.6-2.9,5.2-4.3,7.9c-2.9,5.3-5.8,10.5-8.6,15.4c-0.7,1.2-1.4,2.4-2.1,3.6
			c-0.7,1.2-1.4,2.3-2.1,3.4c-1.4,2.2-2.7,4.3-4,6.1c-1.3,1.9-2.5,3.5-3.6,5c-1.1,1.4-2.1,2.7-3.1,3.7c-0.4,0.5-0.8,0.9-1.2,1.3
			c-0.4,0.4-0.7,0.7-1,0.9c-0.5,0.5-0.8,0.7-0.8,0.7l-0.3-0.3c0,0,0.3-0.3,0.7-0.8c0.2-0.3,0.5-0.6,0.9-0.9c0.3-0.4,0.7-0.9,1.1-1.4
			c0.8-1,1.7-2.3,2.8-3.8c1-1.5,2.2-3.2,3.4-5.1c1.2-1.9,2.5-4,3.8-6.2c1.3-2.2,2.7-4.6,4.1-7c2.8-4.9,5.7-10.1,8.6-15.4
			c1.4-2.7,2.9-5.3,4.3-7.9c0.4-0.7,0.7-1.3,1.1-1.9l0.3-0.5c0.1-0.2,0.2-0.3,0.4-0.5c0.2-0.3,0.5-0.6,0.8-0.9
			c1.1-1.1,2.4-1.9,3.7-2.6c2.6-1.4,5.2-2.3,7.6-3.2c2.5-0.8,4.8-1.5,7-2.1c4.3-1.2,8-2.2,10.4-3.1c1.2-0.4,2.2-0.8,2.8-1.1
			c0.6-0.3,1-0.5,1-0.5L173.6,252.9z"/>
	</g>
	<path class="st1" d="M168.4,506.4C168.4,506.4,168.4,506.4,168.4,506.4c-0.3,0.4-5.5,6.2-16.8,19.5c-3.8,4.4,2.5,13,10.6,5.7
		c12.5-11.5,22.8-18.5,22.8-18.5c5-3.2,22.3-10.8,28.9-16.3c5.7-4.7,8.1-9,10.9-13c0.4-0.5,0.7-1,1.1-1.5c1.3-1.8,9.1-6.2,11-7.8
		c0,0,1.5-5.5-3.2-17.7c-4.4-11.5-8.9-13.9-8.9-13.9c-0.3,0.1-8.4,4-8.7,4.1c-0.8,0.2-1.6,0.4-2.5,0.6c-9.2,1.7-21.5-0.7-21.5-0.7
		s-22.9-12.4-27.2-16.3c-2.1-1.9-9.8,6.3,4.6,17c9.5,7.1,7.1,10.8,7.1,10.8l-10,3c0,0-28.9-6-38.1-7.7c-5.7-1.1-10,8.7,0.3,12
		c16.2,5.2,27.7,10.6,27.7,10.6l-2.1,0.5c0,0-16.4,2.6-34.1,6.2c-5.7,1.2-6,11.8,4.8,11c16.9-1.3,34.3-1.5,34.3-1.5
		s-11.8,6.8-27.1,16.5c-4.9,3.1-1.4,13.2,8.4,8.5C156,510.4,167.9,506.5,168.4,506.4"/>
	<g>
		<path class="st2" d="M169.6,447.6c3.3,2.5,5.2,4.5,6.2,6.2l0.8,1.4l0.2,2.8c0,0,2.3-8.2-7.3-15.3c-4.9-3.7-7.2-7-8.1-9.8
			C160.4,435.9,161.2,441.3,169.6,447.6z"/>
		<path class="st2" d="M129,465.6c8,2.6,22.8,8.6,27.7,10.6c3.6-0.6,0-4.9,0-4.9s-11.5-5.5-27.7-10.6c-3.1-1-4.9-2.5-5.7-4.2
			C121.8,459.4,122.8,463.6,129,465.6z"/>
		<path class="st2" d="M168.4,501.5c-0.5,0.2-12.5,4-27.5,11.1c-5.3,2.5-8.7,0.7-10-1.9c-2.1,4,1.6,10.7,10,6.8
			c8.7-4.1,22.1-9.1,27.2-11C172,501.9,168.2,501.7,168.4,501.5z"/>
		<path class="st2" d="M236.9,474.5c-2,1.6-9.7,6-11,7.8c-0.4,0.5-0.7,1-1.1,1.5c-2.8,4-5.3,8.3-10.9,13c-6.6,5.5-23.9,13-28.9,16.3
			c0,0-10.3,7-22.8,18.5c-7.6,7-13.7-0.5-11-5c1.6,3,6,4.7,11,0.1c12.5-11.5,22.8-18.5,22.8-18.5c5-3.2,22.3-10.8,28.9-16.3
			c5.7-4.7,8.1-9,10.9-13c0.4-0.5,0.7-1,1.1-1.5c0.7-1,3.3-2.7,5.9-4.4c0,0-0.1-16.7-8.3-25.6c-0.7-0.8-2.4-2.1-2.4-2.1l2.4-1.9
			C223.6,443.5,235.4,446.5,236.9,474.5"/>
		<path class="st2" d="M159.6,487.6c0,0-17.4,0.2-34.3,1.5c-4.5,0.4-7.1-1.3-8.1-3.4c-1.7,3.5,0.3,8.9,8.1,8.3
			c9.5-0.7,27.7-1.3,34.3-1.5c1.3-0.8,2.1-0.7,2.4-1.3C162.8,489.3,159.6,487.6,159.6,487.6z"/>
	</g>
	<g>
		<path class="st19" d="M168.2,505.8l0.5-0.2l0.3-0.1l0.1,0l0.1,0l0,0l0,0l0,0c0,0,0.1,0,0.2,0c0.1,0,0.1,0,0.3,0.1
			c0.1,0.1,0.3,0.2,0.3,0.4c0,0.3-0.1,0.4-0.1,0.4c0,0-0.1,0.1-0.1,0.1l0,0c-2.2,2.1-4.2,4.1-6.2,6.3c-2,2.1-3.9,4.4-5.9,6.6
			c-1.9,2.2-3.8,4.4-5.7,6.7l-0.2,0.2l-0.1,0.1l-0.1,0.1c-0.1,0.1-0.2,0.3-0.3,0.4c-0.2,0.3-0.3,0.6-0.4,0.9c-0.2,0.6-0.2,1.3-0.2,2
			c0.2,1.3,1,2.6,2,3.4c1.1,0.8,2.5,1.1,3.8,0.9c1.3-0.2,2.6-0.8,3.7-1.7c1.1-0.8,2.2-1.9,3.2-2.9c1.1-1,2.2-2,3.3-2.9
			c4.4-3.9,9-7.6,13.7-11.1c1.2-0.9,2.4-1.7,3.6-2.6c1.3-0.8,2.6-1.5,3.9-2.2c2.6-1.4,5.2-2.7,7.8-4c2.6-1.3,5.2-2.7,7.8-4.1
			c2.6-1.4,5.1-2.9,7.5-4.5c1.2-0.8,2.3-1.7,3.4-2.7c1.1-1,2.1-2,3.1-3c1.9-2.1,3.6-4.5,5.3-6.9l1.3-1.8l0.7-0.9l0.3-0.4
			c0.1-0.1,0.1-0.1,0.2-0.3l0.2-0.2c0.6-0.6,1.2-1.1,1.8-1.5c0.6-0.4,1.2-0.9,1.8-1.3c2.4-1.6,5-3.1,7.3-4.8l0,0l-0.2,0.3
			c0.1-0.6,0.2-1.3,0.2-2c0-0.7,0-1.4-0.1-2.1c-0.1-0.7-0.1-1.4-0.2-2.1c-0.1-0.7-0.2-1.4-0.4-2.1c-0.3-1.4-0.6-2.8-1.1-4.2
			c-0.2-0.7-0.4-1.4-0.7-2.1c-0.2-0.7-0.5-1.4-0.7-2c-0.2-0.7-0.5-1.3-0.8-2c-0.3-0.7-0.6-1.3-0.9-2c-0.3-0.7-0.6-1.3-0.9-1.9
			c-0.3-0.6-0.7-1.3-1-1.9c-0.4-0.6-0.7-1.2-1.1-1.8c-0.4-0.6-0.8-1.2-1.2-1.7c-0.4-0.6-0.9-1.1-1.4-1.6c-0.5-0.5-1-1-1.5-1.3l0,0
			l0.5,0l-7.6,3.5l-1,0.4c-0.4,0.1-0.7,0.2-1.1,0.3c-0.7,0.2-1.4,0.3-2.1,0.4c-1.4,0.2-2.8,0.3-4.2,0.4c-1.4,0.1-2.8,0-4.2,0
			c-1.4-0.1-2.8-0.1-4.2-0.3c-2.8-0.3-5.6-0.6-8.4-1.2l0,0c0,0,0,0-0.1,0c-5-2.7-10-5.4-14.9-8.3c-2.5-1.4-4.9-2.9-7.3-4.4
			c-1.2-0.8-2.4-1.5-3.6-2.4c-0.3-0.2-0.6-0.4-0.9-0.7L165,431c-0.1-0.1-0.3-0.3-0.4-0.3c-0.4-0.2-1,0-1.5,0.4
			c-1,0.8-1.5,2.2-1.6,3.5c-0.1,1.3,0.2,2.7,0.7,3.9c1.1,2.5,3,4.6,5.1,6.5c1,0.9,2.2,1.7,3.3,2.6c0.6,0.4,1.1,0.9,1.7,1.4
			c0.6,0.5,1.1,1,1.6,1.5c1,1,2,2.1,2.7,3.5c0.4,0.7,0.7,1.4,0.8,2.2c0.1,0.8,0.2,1.6-0.3,2.6l0,0c-0.1,0.1-0.2,0.2-0.3,0.3l0,0
			l-10,3l0,0l-0.1,0c-0.1,0-0.2,0-0.2,0c-7-2.1-14.2-3.4-21.3-4.9c-3.6-0.7-7.2-1.4-10.7-2l-5.4-1l-0.7-0.1c-0.2,0-0.5-0.1-0.7-0.1
			c-0.4,0-0.8,0.1-1.2,0.2c-0.8,0.2-1.5,0.7-2.1,1.3c-1.2,1.2-1.7,3.1-1.3,4.7c0.4,1.6,1.6,3,3.1,3.8c1.5,0.9,3.2,1.3,5,1.9
			c1.7,0.6,3.5,1.1,5.2,1.7c3.4,1.2,6.9,2.5,10.3,3.8c3.4,1.3,6.8,2.7,10.1,4.3l0,0l0,0c0.3,0.2,0.4,0.5,0.3,0.9
			c-0.1,0.2-0.3,0.3-0.5,0.3c-0.7,0.1-1.4,0.3-2.1,0.4l0,0l0,0c-1.8,0.2-3.6,0.5-5.4,0.7c-1.8,0.2-3.6,0.6-5.4,0.9
			c-3.6,0.6-7.2,1.3-10.8,2c-3.6,0.7-7.2,1.4-10.8,2.2c-0.9,0.2-1.8,0.3-2.6,0.7c-0.8,0.4-1.4,0.9-1.8,1.7c-0.9,1.4-1,3.3-0.3,4.8
			c0.7,1.5,2.2,2.6,3.9,3c1.7,0.5,3.4,0.3,5.3,0.1c3.6-0.3,7.3-0.6,11-0.8c3.7-0.2,7.3-0.4,11-0.5c3.7-0.1,7.3-0.2,11-0.2h0l0,0
			c0.4,0,0.6,0.3,0.6,0.6c0,0.2-0.1,0.5-0.3,0.6c-2.9,1.6-5.9,3.2-8.8,4.9c-2.9,1.7-5.8,3.4-8.6,5.2c-2.9,1.7-5.7,3.5-8.5,5.3
			c-0.7,0.5-1.5,0.9-2,1.4c-0.6,0.5-0.9,1.2-1.1,1.9c-0.4,1.5-0.1,3.1,0.9,4.3c0.9,1.2,2.4,1.9,3.9,2c1.5,0.1,3.1-0.4,4.5-1l4.5-2.2
			c1.5-0.7,3-1.4,4.6-2.1c3.1-1.4,6.2-2.6,9.3-3.8c1.6-0.6,3.2-1.1,4.7-1.7C165,506.7,166.6,506.2,168.2,505.8l0.4,1.2l-4.7,1.8
			l-4.7,1.8l-4.6,1.8c-1.5,0.6-3.1,1.2-4.6,1.9l-4.6,2l-4.6,2c-1.6,0.7-3.4,1.1-5.2,1c-1.8-0.1-3.6-1-4.7-2.6
			c-1.1-1.5-1.4-3.5-0.9-5.2c0.3-0.9,0.7-1.7,1.4-2.3c0.7-0.6,1.4-1,2.1-1.4l8.5-5.3c5.7-3.5,11.4-7,17.1-10.6l0.3,1.2l0,0l-11,0.3
			l-11,0.4c-3.7,0.2-7.3,0.3-11,0.6c-1.8,0.1-3.8,0.3-5.6-0.3c-1.9-0.5-3.7-1.7-4.5-3.6c-0.8-1.8-0.6-4,0.4-5.7
			c0.5-0.8,1.3-1.5,2.2-1.9c1-0.4,1.8-0.5,2.7-0.7l10.8-2l10.8-2c1.8-0.3,3.6-0.6,5.4-1c1.8-0.4,3.6-0.7,5.4-1.1l0,0
			c0.7-0.2,1.4-0.4,2.1-0.6l-0.1,1.2l0,0c-3.3-1.5-6.6-3-10-4.3c-3.4-1.4-6.8-2.7-10.2-3.9c-1.7-0.6-3.4-1.2-5.2-1.8l-2.6-0.9
			c-0.9-0.3-1.8-0.7-2.6-1.2c-1.6-1-3.1-2.5-3.5-4.5c-0.4-1.9,0.2-4,1.6-5.4c0.7-0.7,1.5-1.2,2.5-1.5c0.5-0.1,1-0.2,1.5-0.2
			c0.3,0,0.5,0,0.7,0.1l0.7,0.1l5.4,1.1l10.7,2.3c7.1,1.4,14.2,3.1,21.5,3.9l-0.3,0l0,0l10-3l-0.4,0.3l0,0c0.1-0.1,0.2-0.4,0.2-0.7
			c0-0.3,0-0.6-0.1-0.9c-0.1-0.6-0.4-1.2-0.7-1.8c-0.6-1.2-1.5-2.2-2.5-3.2c-0.5-0.5-1-1-1.5-1.4c-0.5-0.5-1.1-0.9-1.6-1.3
			c-1.1-0.9-2.3-1.7-3.3-2.7c-2.1-1.9-4.1-4.2-5.2-6.9c-0.6-1.4-0.9-2.9-0.7-4.4c0.1-1.5,0.7-3,2-4c0.3-0.2,0.7-0.5,1.1-0.6
			c0.4-0.1,0.9-0.1,1.4,0.1c0.2,0.2,0.3,0.3,0.5,0.4l0.4,0.3c0.3,0.2,0.5,0.4,0.8,0.6c1.1,0.8,2.3,1.6,3.5,2.4
			c2.4,1.5,4.8,3,7.2,4.5c4.9,2.9,9.8,5.7,14.8,8.5l-0.1,0l0,0c2.8,0.5,5.6,0.8,8.3,0.9c1.4,0.1,2.8,0.1,4.2,0.2
			c1.4,0,2.8,0,4.2-0.1c1.4-0.1,2.7-0.2,4.1-0.5c0.7-0.1,1.3-0.3,2-0.4c0.3-0.1,0.7-0.2,1-0.3l0.9-0.4l3.8-1.9l1.9-0.9l0.9-0.5
			c0.3-0.2,0.6-0.3,1-0.5c0.2-0.1,0.3-0.1,0.5,0l0,0l0,0c0.8,0.5,1.3,1,1.8,1.5c0.5,0.5,1,1.1,1.5,1.7c0.5,0.6,0.9,1.2,1.3,1.8
			c0.4,0.6,0.8,1.3,1.2,1.9c0.4,0.6,0.7,1.3,1.1,2c0.3,0.7,0.7,1.3,1,2c0.3,0.7,0.6,1.4,0.9,2c0.3,0.7,0.6,1.4,0.8,2.1
			c0.2,0.7,0.5,1.4,0.7,2.1c0.2,0.7,0.5,1.4,0.7,2.1c0.4,1.4,0.8,2.8,1.1,4.3c0.2,0.7,0.3,1.5,0.4,2.2c0.1,0.7,0.2,1.5,0.2,2.2
			c0.1,0.7,0.1,1.5,0.1,2.2c0,0.8-0.1,1.5-0.3,2.3c0,0.1-0.1,0.2-0.2,0.3l0,0l0,0c-1.2,1-2.5,1.7-3.7,2.5c-1.2,0.8-2.5,1.6-3.7,2.4
			c-1.2,0.8-2.5,1.7-3.3,2.6l-0.2,0.2c0,0-0.1,0.1-0.1,0.2l-0.3,0.4l-0.6,0.9l-1.2,1.8c-1.6,2.4-3.4,4.9-5.4,7.1
			c-2,2.2-4.2,4.2-6.7,5.9c-2.5,1.7-5,3.1-7.6,4.6c-2.6,1.4-5.2,2.7-7.8,4.1c-2.6,1.3-5.2,2.6-7.8,4c-1.3,0.7-2.6,1.4-3.7,2.1
			c-1.2,0.8-2.4,1.7-3.5,2.6c-4.7,3.5-9.2,7.2-13.7,11c-1.1,0.9-2.2,1.9-3.3,2.9c-1.1,1-2.1,2-3.4,2.9c-1.2,0.9-2.7,1.6-4.3,1.8
			c-1.6,0.2-3.3-0.2-4.5-1.2c-1.3-1-2.1-2.4-2.3-4c-0.1-0.8,0-1.6,0.2-2.4c0.1-0.4,0.3-0.7,0.5-1.1c0.1-0.2,0.2-0.3,0.3-0.5l0.1-0.1
			l0.1-0.1l0.2-0.2l5.8-6.6l5.9-6.6c2-2.2,3.9-4.4,5.8-6.6l0,0c0,0,0,0-0.1,0.1c0,0.1-0.1,0.1-0.1,0.4c0,0.2,0.2,0.3,0.3,0.4
			c0.1,0.1,0.2,0.1,0.3,0.1c0.1,0,0.1,0,0.2,0c0.1,0,0,0,0,0l0,0l0,0l-0.1,0l-0.1,0.1l-0.3,0.1l-0.5,0.2L168.2,505.8z"/>
	</g>
	<path class="st132" d="M216.2,447C216.2,447,216.2,447,216.2,447c3.3-10.2,13.1-5.6,18.7,13.1c6.4,21.2-3.1,27.4-9,22.2"/>
	<g>
		<path class="st19" d="M42.6,437.7c0.8-1,1.6-2,2.6-2.9c0.9-0.9,1.9-1.8,2.8-2.6c0.5-0.4,1-0.8,1.5-1.2c0.5-0.3,1.1-0.7,1.6-1.1
			c0.5-0.4,1-0.8,1.5-1.2c0.5-0.4,1-0.8,1.5-1.2c0.5-0.4,0.9-0.8,1.3-1.3c0.4-0.5,0.8-1,1.1-1.5c0.6-1.1,0.9-2.2,0.9-3.4
			c0-1.2-0.3-2.4-0.8-3.5c-0.3-0.5-0.6-1.1-0.9-1.6c-0.4-0.5-0.8-1-1.2-1.4l0,0l0.6,0.2c-0.7,0.1-1.5,0.4-2.3,0.7
			c-0.8,0.3-1.5,0.6-2.3,1c-1.5,0.7-3,1.6-4.4,2.4c-1.4,0.9-2.8,1.9-4.1,2.9c-1.3,1.1-2.5,2.2-3.7,3.5c-4.6,5-7.4,11.4-8.5,18
			c-0.3,1.7-0.5,3.3-0.6,5c-0.1,1.7-0.1,3.4-0.1,5.1c0,0.8,0.1,1.7,0.1,2.5l0.3,2.5c0.2,1.7,0.5,3.4,0.8,5l0.6,2.5
			c0.2,0.8,0.4,1.7,0.7,2.4c0.5,1.6,1.2,3.2,1.9,4.7c0.8,1.5,1.6,3,2.5,4.4c0.9,1.4,1.9,2.8,3,4l0,0l0,0.1c0.6,1,1.2,2,1.9,3
			c0.6,1,1.3,1.9,2,2.8c0.7,0.9,1.4,1.8,2.2,2.7c0.8,0.9,1.6,1.7,2.4,2.5c0.8,0.8,1.7,1.6,2.5,2.4c0.9,0.8,1.8,1.5,2.7,2.2
			c0.9,0.7,1.9,1.4,2.8,2l1.5,0.9l1.5,0.8l1.6,0.8c0.5,0.3,1,0.5,1.6,0.7c1,0.5,2.1,0.9,3.2,1.2c1.1,0.3,2.2,0.4,3.2,0.2
			c1.1-0.2,2-0.8,2.6-1.7c0.6-0.9,0.8-2.1,0.7-3.2c-0.1-1.1-0.7-2.2-1.8-2.6c-1-0.6-2-1.3-3-1.9c-1-0.6-2-1.3-3-1.9l0.8-1
			c1.7,1.6,3.5,3.2,5.4,4.4c0.2,0.1,0.5,0.3,0.8,0.5c0.2,0.2,0.4,0.5,0.6,0.7c0.3,0.5,0.5,1.1,0.6,1.7c0.2,1.2,0,2.5-0.6,3.6
			c-0.6,1.1-1.7,2-2.9,2.3c-1.2,0.4-2.5,0.3-3.8,0.1c-1.2-0.2-2.3-0.7-3.5-1.1c-0.6-0.2-1.1-0.5-1.7-0.7l-1.6-0.8l-1.6-0.9l-1.5-0.9
			c-1-0.7-2-1.3-2.9-2.1c-0.9-0.7-1.9-1.5-2.8-2.3l-1.3-1.2l-1.3-1.3c-0.8-0.9-1.6-1.7-2.4-2.7c-0.8-0.9-1.5-1.8-2.2-2.8
			c-0.7-1-1.4-1.9-2-2.9c-0.7-1-1.2-2-1.8-3.1l0.1,0.1c-1.1-1.4-2.1-2.8-3.1-4.2c-0.9-1.5-1.8-3-2.5-4.5c-0.8-1.6-1.4-3.2-2-4.8
			c-0.3-0.8-0.5-1.7-0.7-2.5l-0.6-2.5c-0.3-1.7-0.6-3.4-0.8-5.1l-0.3-2.6c0-0.9-0.1-1.7-0.2-2.6c-0.1-1.7-0.1-3.5,0.1-5.2
			c0.1-1.7,0.3-3.4,0.6-5.2c1.2-6.8,4-13.4,8.8-18.6c1.2-1.3,2.4-2.5,3.8-3.6c1.3-1.1,2.7-2.1,4.2-3.1c1.5-0.9,3-1.8,4.5-2.6
			c0.8-0.4,1.6-0.7,2.4-1.1c0.8-0.3,1.6-0.6,2.6-0.8l0.3-0.1l0.2,0.2l0,0c0.5,0.5,0.9,1.1,1.2,1.6c0.4,0.6,0.7,1.2,0.9,1.8
			c0.5,1.2,0.8,2.6,0.8,3.9c0,1.4-0.5,2.7-1.2,3.8c-0.3,0.6-0.7,1.1-1.2,1.6c-0.4,0.5-0.9,0.9-1.4,1.4c-0.5,0.4-1,0.8-1.5,1.2
			c-0.5,0.4-1,0.7-1.5,1.1c-0.5,0.4-1,0.8-1.4,1.3c-0.5,0.4-1,0.8-1.5,1.2c-1,0.8-2,1.6-3,2.4c-1,0.8-1.9,1.6-2.9,2.5L42.6,437.7z"
			/>
	</g>
	<g>
		<path class="st19" d="M42.6,458.8c0,0,1.2,0.5,3.4,1.3c1.1,0.4,2.4,0.9,4,1.4c1.5,0.5,3.3,0.9,5.2,1.5c1.9,0.6,4.1,0.9,6.3,1.1
			c2.3,0.2,4.7,0.2,7.1,0c2.5-0.2,5-0.6,7.5-1.4c0.7-0.2,1.2-0.5,1.7-0.7c0.5-0.3,1.1-0.7,1.5-1.1c0.8-0.9,1.3-2.1,1.2-3.3
			c0-1.2-0.7-2.5-1.7-3.2c-0.5-0.3-1.1-0.7-1.7-0.7c-0.6,0-1.3,0.1-1.9,0.1c-2.7,0.1-5.3,0-7.8-0.4c-2.5-0.4-4.9-1-7.1-1.6
			c-2.2-0.7-4.3-1.4-6.1-2.1c-1.9-0.7-3.6-1.3-5.1-2c-1.5-0.6-2.8-1.2-3.8-1.8c-1-0.6-1.8-1.1-2.3-1.5c-0.5-0.4-0.7-0.7-0.7-0.7
			s1.3,0.4,3.4,1.5c1,0.5,2.3,1.1,3.8,1.8c1.5,0.7,3.1,1.4,5,2.1c3.8,1.3,8.3,2.5,13.1,3.4c2.4,0.4,5,0.8,7.6,0.8c0.7,0,1.3-0.1,2,0
			c0.7,0,1.4,0.4,1.9,0.8c0.3,0.2,0.5,0.5,0.7,0.7c0.1,0.1,0.2,0.3,0.3,0.4l0.3,0.4c0.2,0.3,0.3,0.6,0.5,0.9c0.1,0.3,0.2,0.7,0.3,1
			c0.1,0.7,0.1,1.5-0.1,2.2l-0.2,0.5c-0.1,0.2-0.2,0.3-0.3,0.5l-0.3,0.5c-0.1,0.1-0.2,0.3-0.4,0.4c-0.5,0.6-1.1,0.9-1.7,1.3
			c-0.6,0.3-1.3,0.6-1.9,0.8c-2.6,0.8-5.2,1.1-7.7,1.3c-2.5,0.1-5,0.1-7.3-0.1c-2.3-0.2-4.4-0.6-6.4-0.9c-2-0.3-3.8-0.9-5.3-1.4
			c-1.5-0.5-2.9-1.1-3.9-1.6c-2.1-1-3.3-1.7-3.3-1.7L42.6,458.8z"/>
	</g>
	<g>
		<path class="st19" d="M41.5,472.1c0,0,0.3,0.1,0.7,0.4c0.5,0.3,1.2,0.7,2.1,1.2c1.8,1,4.5,2.3,7.8,3.5c3.3,1.2,7.3,2.2,11.6,2.7
			c2.2,0.2,4.4,0.3,6.7,0.2c1.1-0.1,2.3-0.2,3.4-0.4c0.6-0.1,1.2-0.2,1.7-0.4l0.8-0.3l0.7-0.4c0.9-0.5,1.7-1.2,2.1-2.2
			c0.4-1,0.3-2.1,0-3.1c-0.4-1-1.1-1.9-2.1-2.3c-0.3-0.1-0.5-0.1-0.8-0.2l-0.8-0.1c-0.6,0-1.1-0.1-1.7-0.2c-2.2-0.3-4.3-0.8-6.3-1.3
			c-2-0.5-3.8-1.1-5.4-1.8c-3.3-1.2-6-2.5-7.8-3.5c-0.9-0.5-1.6-0.9-2.1-1.1c-0.2-0.1-0.4-0.2-0.5-0.3c-0.1-0.1-0.1-0.3-0.1-0.3
			s0.1-0.1,0.3-0.1c0.2,0,0.3,0.2,0.6,0.3c0.5,0.3,1.2,0.6,2.1,1.1c1.8,0.9,4.5,2.2,7.8,3.5c3.3,1.2,7.2,2.6,11.6,3.1
			c0.5,0.1,1.1,0.1,1.6,0.2l0.8,0c0.3,0,0.6,0.1,0.9,0.2c1.2,0.4,2,1.4,2.5,2.5c0.5,1.1,0.7,2.4,0.4,3.7c-0.3,1.3-1.3,2.4-2.4,3
			c-0.3,0.2-0.6,0.3-0.8,0.5l-0.9,0.3c-0.6,0.3-1.2,0.3-1.8,0.4c-1.2,0.2-2.4,0.3-3.6,0.3c-2.4,0.1-4.7-0.1-6.9-0.4
			c-4.4-0.6-8.4-1.8-11.7-3.2c-3.3-1.3-5.9-2.8-7.6-3.9c-0.9-0.5-1.6-1-2-1.3C41.8,472.2,41.5,472.1,41.5,472.1z"/>
	</g>
	<g>
		<path class="st19" d="M41.7,479.7c0,0,0.7,0.6,2,1.6c1.3,1,3.1,2.4,5.5,3.9c1.2,0.8,2.5,1.5,3.9,2.2c1.4,0.7,2.9,1.4,4.5,2.1
			c3.2,1.3,6.7,2.4,10.3,3c0.9,0.2,1.8,0.3,2.7,0.4c0.4,0,0.9,0.1,1.3,0.1c0.5,0,0.9,0,1.4,0c0.4,0,0.8-0.1,1.2-0.1
			c0.4-0.1,0.8-0.2,1.2-0.3c0.7-0.3,1.5-0.7,2-1.4c1-1.3,1.1-3.1,0.5-4.6c-0.3-0.7-0.8-1.3-1.4-1.7c-0.6-0.4-1.4-0.4-2.1-0.6
			c-2.7-0.7-4.9-1.6-6.5-2.1c-1.5-0.6-2.4-0.9-2.4-0.9l0.6-1.1c0,0,0.8,0.5,2.2,1.4c1.4,0.8,3.5,1.9,6.2,2.6
			c0.7,0.2,1.4,0.3,2.1,0.7c0.7,0.4,1.2,1.1,1.5,1.8c0.7,1.5,0.9,3.4-0.1,5.1c-0.5,0.8-1.3,1.4-2.1,1.9c-0.4,0.2-0.9,0.4-1.4,0.5
			c-0.5,0.1-1,0.2-1.5,0.3c-0.5,0-0.9,0.1-1.4,0.1c-0.5,0-1,0-1.5,0c-0.9,0-1.9-0.2-2.8-0.3c-3.8-0.6-7.4-1.8-10.6-3.3
			c-1.6-0.7-3.1-1.5-4.5-2.4c-1.4-0.8-2.7-1.7-3.8-2.5c-1.2-0.8-2.2-1.6-3-2.4c-0.9-0.8-1.6-1.4-2.2-2c-0.6-0.6-1-1-1.3-1.3
			C41.8,479.9,41.7,479.7,41.7,479.7z"/>
	</g>
	<path class="st133" d="M272.1,324.3c-6.1,26-2.1,61,2.7,72.8"/>
	<path class="st26" d="M231.8,207.6c0,0,0,18.1,0.4,27.3c0,0.8,0.1,1.6,0.1,2.4c0.4,7.2,0.8,10.1,0.8,15.6
		c0,22.7-47.5,28.5-47.5,12.3c0-13.6,0-13.6,0-13.6"/>
	<path d="M151.9,164.9c0.7,5-1.6,9.4-5.2,9.9c-3.6,0.4-7.1-3.3-7.8-8.3c-0.7-5,1.6-9.4,5.2-9.9c0.3,0,0.6,0,0.9,0
		c-1.2,0.8-1.9,2.6-1.6,4.6c0.4,2.5,2.1,4.4,3.9,4.2c1.8-0.2,3-2.4,2.6-4.9c0-0.3-0.1-0.6-0.2-0.8
		C150.9,161,151.6,162.9,151.9,164.9z"/>
	<path d="M196.3,162c1.3,0,2.5-1.1,3-2.7c0.2,0.9,0.3,1.8,0.3,2.7c0,5.1-2.9,9.2-6.6,9.2c-3.6,0-6.6-4.1-6.6-9.2
		c0-5.1,2.9-9.2,6.6-9.2c0.7,0,1.3,0.1,1.9,0.4c-1.1,0.7-1.9,2.3-1.9,4.2C193,159.9,194.4,162,196.3,162z"/>
	<path class="st3" d="M196.3,152.8c-0.5,0-0.9,0.1-1.4,0.4c-1.1,0.7-1.9,2.3-1.9,4.2c0,2.5,1.5,4.6,3.3,4.6c1.3,0,2.5-1.1,3-2.7
		c0.2-0.6,0.3-1.2,0.3-1.9C199.5,154.8,198.1,152.8,196.3,152.8z"/>
	<path class="st3" d="M150,160.4c0-0.3-0.1-0.6-0.2-0.8c0,0,0,0,0,0c-0.6-2.1-2.1-3.5-3.7-3.3c-0.4,0-0.7,0.2-1,0.4
		c-1.2,0.8-1.9,2.6-1.6,4.5c0.4,2.5,2.1,4.4,3.9,4.2C149.2,165.1,150.3,162.9,150,160.4z"/>
	<path class="st121" d="M198.6,110.2c0,0-9-9.6-16.2-8.8c-2.3,0.2-6.5-1.7-6.5-1.7C181.2,94.3,192.9,94.3,198.6,110.2z"/>
	<g>
		<path class="st27" d="M174.7,99.8l1.6-1.2l0.4-0.3l0.4-0.3l0.9-0.5l0.9-0.4c0.6-0.3,1.2-0.4,1.8-0.6c0.6-0.1,1.3-0.2,1.9-0.3
			c0.6,0,1.3-0.1,1.9,0l1,0.1c0.3,0.1,0.6,0.2,0.9,0.2c0.6,0.1,1.2,0.4,1.8,0.6c0.6,0.2,1.1,0.6,1.7,0.9c0.6,0.3,1.1,0.7,1.6,1.1
			c0.5,0.3,1,0.8,1.4,1.3c0.2,0.2,0.5,0.4,0.7,0.7l0.6,0.7c0.4,0.5,0.8,1,1.2,1.5l1.1,1.6l0.9,1.7c0.3,0.5,0.6,1.1,0.9,1.7
			c0.3,0.6,0.6,1.2,0.8,1.7l1.4,2.8l-2.5-2.2l0,0c-0.7-0.7-1.5-1.5-2.3-2.2c-0.8-0.7-1.6-1.4-2.5-2c-0.8-0.6-1.7-1.2-2.6-1.8
			c-0.4-0.3-0.9-0.5-1.4-0.8c-0.5-0.3-0.9-0.5-1.4-0.7c-0.5-0.2-1-0.4-1.4-0.6c-0.5-0.2-1-0.3-1.5-0.4c-0.5-0.1-1-0.2-1.5-0.2
			l-0.7,0l-0.4,0l-0.4,0c-0.6,0-1.2-0.1-1.8-0.2c-0.6-0.1-1.1-0.3-1.6-0.4c-1.1-0.3-2.1-0.7-3.1-1.1L174.7,99.8z M177,99.4
			c0.7,0.3,1.4,0.6,2.1,0.8c1,0.3,2,0.5,3,0.5l1.7,0c0.6,0,1.1,0.1,1.7,0.2c0.5,0.2,1.1,0.3,1.6,0.5c0.5,0.2,1.1,0.4,1.6,0.6
			c0.5,0.2,1,0.5,1.5,0.7c0.5,0.3,1,0.5,1.4,0.8c0.9,0.6,1.8,1.2,2.7,1.9c0.9,0.7,1.7,1.4,2.5,2.1c0.8,0.7,1.6,1.5,2.4,2.3l0,0
			l-1,0.6c-0.2-0.6-0.4-1.2-0.6-1.8c-0.2-0.6-0.4-1.2-0.7-1.7l-0.8-1.7l-1-1.6c-0.3-0.6-0.7-1-1.1-1.5l-0.6-0.7
			c-0.2-0.2-0.4-0.4-0.7-0.7c-0.5-0.4-0.9-0.9-1.4-1.3c-0.5-0.4-1-0.8-1.5-1.1c-0.6-0.3-1.1-0.6-1.7-0.8c-0.6-0.2-1.2-0.5-1.8-0.6
			c-0.3-0.1-0.6-0.1-0.9-0.2l-0.9-0.1c-0.6-0.1-1.2,0-1.9,0.1c-0.6,0.1-1.2,0.2-1.8,0.4c-0.6,0.2-1.2,0.4-1.7,0.7l-0.8,0.5l-0.7,0.5
			C177.4,99,177.2,99.2,177,99.4z"/>
	</g>
	<g>
		<path class="st27" d="M119.2,150.9c-1.4-0.7-2.9-1.3-4.3-2.1c-1.4-0.7-2.8-1.5-4.2-2.3c-0.7-0.4-1.4-0.8-2-1.3
			c-0.7-0.4-1.3-0.8-2-1.3c-1.3-0.9-2.6-1.8-3.9-2.8c-1.2-1-2.5-2-3.7-3.1c-0.6-0.5-1.2-1.1-1.7-1.6c-0.6-0.6-1.2-1.1-1.7-1.7
			c-1.1-1.1-2.2-2.4-3.2-3.6l-1.5-1.9l-1.4-1.9l-1.3-2l-1.2-2.1l-1.1-2.1c-0.3-0.7-0.7-1.4-1-2.2c-0.6-1.5-1.2-3-1.7-4.5
			c-0.2-0.8-0.5-1.5-0.7-2.3c-0.2-0.8-0.4-1.6-0.5-2.4c-0.3-1.6-0.5-3.2-0.6-4.8c-0.1-1.6-0.1-3.2,0.1-4.8c0.2-1.6,0.4-3.2,0.9-4.8
			c0.2-0.8,0.5-1.6,0.8-2.3c0.2-0.4,0.3-0.8,0.5-1.1l0.6-1l0,0c1.7-3,3.9-5.6,6.5-7.8l1-0.8c0.3-0.3,0.7-0.5,1-0.7l2.1-1.5
			c0.7-0.5,1.4-0.9,2.2-1.3c0.7-0.4,1.4-0.9,2.2-1.2c3-1.5,6.2-2.7,9.4-3.6c1.6-0.4,3.2-0.9,4.9-1.1c1.7-0.3,3.3-0.6,5-0.7
			c3.3-0.4,6.7-0.3,10.1-0.2l5,0.5c1.7,0.2,3.3,0.6,5,0.8c1.7,0.2,3.3,0.7,4.9,1.1c1.6,0.5,3.3,0.8,4.8,1.4l4.7,1.6
			c1.6,0.5,3.1,1.2,4.6,1.8c3.1,1.2,6.1,2.5,9.1,3.8c3,1.3,6.1,2.6,9.2,3.7l4.7,1.7l4.7,1.6l4.7,1.4c1.6,0.5,3.2,0.9,4.8,1.3
			c1.6,0.4,3.2,0.7,4.8,1.1c1.6,0.2,3.2,0.6,4.9,0.7c3.3,0.4,6.6,0.3,9.8-0.3c0.8-0.1,1.6-0.4,2.4-0.6c0.4-0.1,0.8-0.2,1.2-0.4
			l1.1-0.5c0.4-0.2,0.8-0.3,1.1-0.5l1-0.7c0.7-0.4,1.4-0.9,2.1-1.3l8.3-5.4l-8.2,5.5c-0.7,0.5-1.4,0.9-2.1,1.4l-1,0.7
			c-0.4,0.2-0.7,0.4-1.1,0.6l-1.1,0.5c-0.4,0.2-0.8,0.3-1.2,0.4c-0.8,0.3-1.6,0.6-2.4,0.7c-3.2,0.8-6.6,0.9-9.9,0.6
			c-1.7-0.1-3.3-0.4-5-0.6c-1.6-0.3-3.3-0.6-4.9-0.9c-1.6-0.4-3.2-0.7-4.8-1.2l-4.8-1.3l-4.8-1.4l-4.7-1.5l-4.7-1.6l-4.7-1.5
			l-4.7-1.6c-1.6-0.5-3.1-1.1-4.6-1.7c-1.5-0.6-3.1-1.2-4.6-1.8l-4.6-1.6c-1.5-0.6-3.1-0.9-4.7-1.4c-1.6-0.4-3.1-0.9-4.7-1.1
			c-1.6-0.3-3.2-0.6-4.8-0.9l-4.8-0.5c-3.2-0.2-6.5-0.3-9.7,0c-1.6,0-3.2,0.4-4.8,0.6c-1.6,0.2-3.2,0.6-4.8,1
			c-3.1,0.8-6.2,1.9-9.1,3.3c-0.8,0.3-1.4,0.8-2.1,1.1c-0.7,0.4-1.4,0.8-2.1,1.2L94,83c-0.3,0.2-0.7,0.4-1,0.7l-0.9,0.8
			c-2.5,2-4.7,4.5-6.3,7.2l0,0l-0.6,1c-0.2,0.3-0.3,0.7-0.5,1c-0.3,0.7-0.5,1.4-0.8,2.2c-0.4,1.5-0.7,3-0.9,4.5
			c-0.1,1.5-0.2,3.1-0.1,4.6c0.1,1.5,0.3,3.1,0.5,4.6c0.1,0.8,0.3,1.5,0.5,2.3c0.2,0.8,0.4,1.5,0.6,2.3c0.4,1.5,1,3,1.6,4.4
			c0.3,0.7,0.6,1.4,1,2.1l1.1,2.1l1.2,2l1.3,2l1.4,1.9l1.4,1.9c1,1.2,2,2.4,3.1,3.5c0.5,0.6,1.1,1.1,1.7,1.7
			c0.6,0.6,1.1,1.1,1.7,1.6c1.1,1.1,2.4,2.1,3.6,3c1.2,1,2.5,1.9,3.8,2.8c0.6,0.5,1.3,0.9,2,1.3c0.7,0.4,1.3,0.9,2,1.2
			c1.4,0.8,2.7,1.6,4.1,2.3c1.4,0.8,2.8,1.4,4.2,2.1L119.2,150.9z"/>
	</g>
	<g>
		<path class="st1" d="M125.9,161.4c-3.5-17.8,10.5-30.2,20.8-20.5l0,0c-15-19.5-34.2,1.7-16.6,33.9l0,0
			C128.4,171.2,126.9,166.7,125.9,161.4z"/>
		<path class="st27" d="M125.2,161.5c-0.1-0.8-0.3-1.6-0.4-2.5c-0.1-0.8-0.1-1.7-0.2-2.5c0-0.8,0-1.7,0.1-2.5
			c0.1-0.8,0.2-1.7,0.3-2.5c0.1-0.8,0.3-1.7,0.6-2.5l0.4-1.2l0.5-1.2c0.3-0.8,0.7-1.5,1.1-2.3c0.4-0.7,0.9-1.4,1.4-2.1l0.8-1
			c0.3-0.3,0.6-0.6,0.9-0.9c0.6-0.6,1.3-1.1,2-1.6c0.7-0.5,1.5-0.9,2.3-1.2c0.4-0.2,0.8-0.3,1.3-0.4c0.4-0.1,0.9-0.2,1.3-0.2
			c0.9-0.1,1.8-0.1,2.6,0c0.9,0.1,1.7,0.4,2.5,0.7c0.4,0.2,0.8,0.4,1.2,0.5l1.1,0.7l1,0.8l1,0.8l0,0l-1,0.9c-0.4-0.5-0.8-1-1.1-1.6
			c-0.4-0.5-0.8-1-1.3-1.5c-0.4-0.5-0.9-0.9-1.4-1.3c-0.5-0.4-1-0.8-1.5-1.2c-0.6-0.3-1.1-0.7-1.7-1c-0.6-0.2-1.2-0.5-1.8-0.7
			c-1.2-0.4-2.5-0.5-3.8-0.3c-1.3,0.1-2.5,0.6-3.6,1.3c-1.1,0.6-2,1.6-2.8,2.6c-0.4,0.5-0.8,1-1.1,1.6c-0.2,0.3-0.3,0.6-0.5,0.8
			l-0.4,0.9c-0.5,1.2-0.9,2.4-1.2,3.7c-0.1,0.6-0.2,1.3-0.3,1.9c-0.1,0.6-0.1,1.3-0.2,1.9c-0.1,1.3-0.1,2.6,0,3.9
			c0,0.7,0.1,1.3,0.2,1.9c0.1,0.6,0.1,1.3,0.3,1.9c0.1,0.6,0.2,1.3,0.3,1.9l0.4,1.9c0.1,0.6,0.4,1.3,0.5,1.9
			c0.2,0.6,0.4,1.3,0.6,1.9l0.7,1.8c0.2,0.6,0.5,1.2,0.7,1.8c0.5,1.2,1.1,2.4,1.6,3.6c0.6,1.2,1.2,2.3,1.8,3.5l0,0l-0.6-0.3l0,0
			l-0.6,0.9C127.5,170.8,126.1,166.2,125.2,161.5L125.2,161.5z M126.5,161.3c0.9,4.6,2.2,9.1,4.2,13.3c0.2,0.3,0,0.7-0.3,0.9
			c-0.1,0-0.2,0.1-0.3,0.1l0,0l0,0c-0.2,0-0.5-0.1-0.6-0.3l0,0c-0.6-1.2-1.2-2.4-1.8-3.6c-0.5-1.2-1.1-2.4-1.5-3.7
			c-0.2-0.6-0.5-1.2-0.7-1.9l-0.6-1.9c-0.4-1.3-0.7-2.5-1.1-3.8l-0.4-1.9c-0.1-0.7-0.2-1.3-0.3-2c-0.1-0.7-0.2-1.3-0.2-2
			c-0.1-0.7-0.1-1.3-0.1-2c-0.1-1.3,0-2.7,0.1-4c0.1-0.7,0.1-1.3,0.2-2c0.1-0.7,0.2-1.3,0.4-2c0.3-1.3,0.7-2.6,1.2-3.8l0.4-0.9
			c0.2-0.3,0.3-0.6,0.5-0.9c0.3-0.6,0.7-1.1,1.1-1.7c0.9-1,1.8-2,3-2.7c1.2-0.7,2.5-1.2,3.8-1.3c1.3-0.1,2.7,0,4,0.4
			c1.3,0.3,2.5,1,3.7,1.6c0.5,0.4,1.1,0.7,1.7,1.1c0.5,0.4,1.1,0.8,1.5,1.3c0.5,0.5,1,0.9,1.5,1.4l1.4,1.5c0.2,0.3,0.2,0.7,0,0.9
			c-0.2,0.2-0.6,0.2-0.8,0l-0.1-0.1l0,0l-0.9-0.8l-1-0.7l-1-0.6c-0.4-0.2-0.7-0.3-1.1-0.5c-0.7-0.3-1.5-0.5-2.2-0.6
			c-0.8-0.1-1.5-0.1-2.3,0c-0.4,0-0.8,0.1-1.1,0.2c-0.4,0.1-0.7,0.2-1.1,0.3c-0.7,0.3-1.4,0.6-2.1,1c-0.7,0.4-1.3,0.9-1.9,1.4
			c-0.3,0.3-0.6,0.6-0.8,0.8L130,143c-0.5,0.6-0.9,1.3-1.3,2c-0.4,0.7-0.7,1.4-1.1,2.1l-0.4,1.1l-0.4,1.1c-0.2,0.8-0.4,1.5-0.5,2.3
			c-0.1,0.8-0.2,1.6-0.3,2.4c-0.1,0.8-0.1,1.6-0.1,2.4c0,0.8,0.1,1.6,0.2,2.4C126.2,159.7,126.4,160.5,126.5,161.3L126.5,161.3z"/>
	</g>
	<g>
		<path class="st28" d="M177.2,152.1c-0.1,2,0,3.3,0,3.3l0,0C177.2,154.3,177.2,153.2,177.2,152.1z"/>
		<g>
			<path class="st1" d="M180.6,133.9c-2.6,6.4-3.2,13.9-3.4,18.1c1-32.4,34-25.8,30.4,4.1c-0.1,1.1-0.3,2.2-0.5,3.2l0,0
				C215.4,130.5,190.1,110.1,180.6,133.9z"/>
			<path class="st27" d="M180.8,134c-0.6,1.4-1,2.9-1.4,4.4c-0.4,1.5-0.7,3-1,4.5c-0.5,3-0.8,6.1-0.9,9.2l-0.7,0
				c0.1-1.4,0.1-2.8,0.3-4.1c0.1-1.4,0.4-2.7,0.7-4.1l0.6-2c0.2-0.7,0.5-1.3,0.7-2c0.6-1.3,1.2-2.5,2-3.7c0.4-0.6,0.9-1.1,1.3-1.7
				c0.5-0.5,1-1,1.5-1.5c0.6-0.4,1.1-0.9,1.7-1.2c0.6-0.4,1.3-0.7,1.9-0.9c1.3-0.5,2.7-0.8,4.2-0.8c0.7-0.1,1.4,0.1,2.1,0.1
				c0.4,0,0.7,0.1,1,0.2c0.3,0.1,0.7,0.2,1,0.3l1,0.4c0.3,0.1,0.6,0.3,1,0.5c0.7,0.3,1.2,0.7,1.8,1.1c0.6,0.4,1.1,0.9,1.7,1.3
				c0.5,0.5,1,1,1.5,1.5c0.5,0.5,0.9,1.1,1.3,1.7l0.6,0.9l0.5,0.9c0.4,0.6,0.6,1.3,0.9,1.9c0.3,0.6,0.5,1.3,0.7,2
				c0.2,0.7,0.4,1.3,0.6,2l0.2,1l0.2,1c0.2,1.4,0.3,2.8,0.4,4.2l0,2.1c0,0.7-0.1,1.4-0.1,2.1c0,0.4,0,0.7-0.1,1.1l-0.2,1l-0.3,2l0,0
				l-0.9-0.7l0,0l0,0l-0.4,0.4c0.3-1.2,0.7-2.4,0.9-3.6c0.1-0.6,0.3-1.2,0.4-1.8l0.3-1.8c0.1-0.6,0.1-1.2,0.2-1.9
				c0.1-0.6,0.1-1.2,0.1-1.9c0-1.2-0.1-2.5-0.1-3.7c-0.2-1.2-0.3-2.5-0.6-3.7c-0.1-0.6-0.3-1.2-0.4-1.8c-0.2-0.6-0.3-1.2-0.5-1.8
				c-0.2-0.6-0.4-1.2-0.7-1.7c-0.2-0.6-0.5-1.2-0.8-1.7c-0.6-1.1-1.2-2.2-1.9-3.2c-0.4-0.5-0.7-1-1.1-1.5l-0.6-0.7l-0.7-0.7
				c-0.9-0.9-1.9-1.6-2.9-2.3c-1.1-0.6-2.2-1.1-3.4-1.4c-0.6-0.2-1.2-0.2-1.8-0.3l-0.9,0l-0.5,0l-0.5,0.1c-1.2,0.2-2.4,0.7-3.4,1.3
				c-1,0.7-2,1.5-2.8,2.4c-0.4,0.5-0.8,0.9-1.1,1.5c-0.3,0.5-0.7,1-1,1.6C181.8,131.7,181.3,132.8,180.8,134L180.8,134z
				 M180.3,133.7c0.5-1.2,1-2.3,1.7-3.4c0.3-0.6,0.7-1.1,1-1.6c0.3-0.5,0.8-1,1.2-1.5c0.8-1,1.8-1.8,2.9-2.5
				c1.1-0.6,2.3-1.2,3.6-1.4l0.5-0.1l0.5,0l1,0c0.6,0.1,1.3,0.1,1.9,0.2c1.3,0.2,2.5,0.8,3.6,1.4c1.1,0.7,2.2,1.4,3.1,2.3l0.7,0.7
				l0.6,0.7c0.4,0.5,0.8,1,1.2,1.5c0.8,1,1.4,2.1,2,3.3c0.3,0.6,0.6,1.1,0.8,1.7c0.3,0.6,0.5,1.2,0.7,1.8c0.2,0.6,0.4,1.2,0.6,1.8
				c0.2,0.6,0.4,1.2,0.5,1.9c0.3,1.2,0.5,2.5,0.7,3.8c0.1,1.3,0.2,2.5,0.2,3.8c0,0.6,0,1.3,0,1.9c0,0.6,0,1.3-0.1,1.9l-0.2,1.9
				c-0.1,0.6-0.2,1.3-0.3,1.9c-0.2,1.3-0.6,2.5-0.8,3.7l-0.1,0.3l-0.3,0.1l0,0l0,0l-0.9-0.7l0,0l0.3-2l0.2-1c0-0.3,0.1-0.7,0.1-1
				c0.1-0.7,0.1-1.3,0.2-2l0-2c0-1.3-0.1-2.7-0.3-4l-0.1-1l-0.2-1c-0.1-0.7-0.3-1.3-0.5-1.9c-0.2-0.6-0.4-1.3-0.7-1.9
				c-0.3-0.6-0.5-1.2-0.9-1.8l-0.5-0.9l-0.6-0.8c-0.3-0.6-0.8-1.1-1.2-1.6c-0.4-0.5-0.9-1-1.4-1.4c-0.5-0.4-1-0.9-1.5-1.3
				c-0.6-0.3-1.1-0.8-1.7-1c-0.3-0.1-0.6-0.3-0.9-0.4l-0.9-0.3c-0.3-0.1-0.6-0.2-0.9-0.3c-0.3-0.1-0.6-0.2-1-0.2
				c-0.7-0.1-1.3-0.2-2-0.1c-1.3,0-2.6,0.3-3.9,0.7c-0.6,0.2-1.2,0.5-1.8,0.9c-0.6,0.3-1.1,0.7-1.6,1.1c-0.5,0.4-1,0.9-1.5,1.4
				c-0.4,0.5-0.9,1-1.3,1.6c-0.8,1.1-1.4,2.3-2,3.5c-0.2,0.6-0.5,1.2-0.7,1.9l-0.6,1.9c-0.3,1.3-0.6,2.6-0.8,4
				c-0.2,1.3-0.2,2.7-0.4,4.1l-0.7,0c0.1-3.1,0.4-6.2,1-9.2c0.3-1.5,0.6-3,1-4.5C179.2,136.7,179.7,135.2,180.3,133.7L180.3,133.7z"
				/>
		</g>
	</g>
	<path class="st127" d="M246.3,79.4c-17.2,27-10.6,58-2.5,77.1c10,23.6,42.8,46.7,87,31.6c0,0-40.3-18.7-46.1-36
		C261.9,84.9,246.3,79.4,246.3,79.4z"/>
	<path class="st126" d="M117.9,171.7c-9.3,30.9-24.9,40.8-24.9,40.8s10.6,16.2,21.7,18.9c4.7,1.2-1.3-7.9-0.7-23.7
		C114.5,194.5,117.9,171.7,117.9,171.7z"/>
	<g>
		<path class="st19" d="M237.2,168.1c0,0,0,0.1,0,0.4c0,0.1,0,0.3,0,0.4c0,0.2,0,0.3,0,0.6c0,0.4,0,0.9-0.1,1.5
			c0,0.3-0.1,0.5-0.2,0.8c-0.1,0.3-0.2,0.6-0.3,0.8c-0.1,0.3-0.3,0.5-0.4,0.8c-0.2,0.2-0.3,0.5-0.5,0.7c-0.2,0.2-0.4,0.4-0.6,0.5
			c-0.2,0.1-0.4,0.2-0.6,0.3c-0.4,0.2-0.8,0.2-1,0.3c-0.2,0-0.4,0-0.4,0c-0.1,0-0.2-0.1-0.2-0.2c0-0.1,0.1-0.2,0.2-0.2
			c0,0,0.1,0,0.3-0.1c0.2-0.1,0.5-0.1,0.8-0.3c0.2-0.1,0.3-0.2,0.5-0.3c0.2-0.1,0.3-0.3,0.5-0.5c0.1-0.2,0.3-0.4,0.4-0.6
			c0.1-0.2,0.2-0.4,0.3-0.7c0.1-0.2,0.1-0.5,0.2-0.7c0-0.2,0.1-0.5,0.1-0.7c0-0.5,0-0.9,0-1.3c0-0.2-0.1-0.4-0.1-0.5
			c0-0.2-0.1-0.3-0.1-0.4c0-0.2-0.1-0.4-0.1-0.4c-0.1-0.4,0.2-0.7,0.5-0.7S237.1,167.6,237.2,168.1C237.2,168,237.2,168,237.2,168.1
			z"/>
	</g>
	<path class="st12" d="M185.6,216.5c-2.6,7.3-7.9,13.4-16,13.4c-8.1,0-4,5.8,2.5,4.9c6.5-1,13.2-5.1,15.9-19L185.6,216.5z"/>
	<g>
		<path d="M165.4,223.8c-1-0.3-1.8-0.8-2.6-1.4c-0.8-0.6-1.5-1.4-1.9-2.2c-0.5-0.9-0.7-1.9-0.8-2.9l0-0.7l0-0.2c0-0.2,0-0.1,0-0.2
			l0-0.3c0-0.4,0.2-1,0.4-1.5c0.4-1,1.2-1.9,2.3-2.2c1-0.4,2.1-0.4,3-0.3c1.9,0.3,3.7,1,5.4,1.9c0.8,0.5,1.6,0.9,2.3,1.3
			c0.8,0.4,1.6,0.7,2.4,1c1.7,0.5,3.4,0.9,5.2,0.8c0.9,0,1.7-0.1,2.6-0.3c0.9-0.2,1.7-0.5,2.5-0.8c1.6-0.7,3.1-1.7,4.5-2.9
			c0,0,0,0,0,0l-0.1-0.1l0.2,0.2l-0.1-0.1c0,0,0,0,0,0c-1.1,1.5-2.5,2.8-4.1,3.7c-0.8,0.5-1.8,0.8-2.6,1c-0.9,0.2-1.9,0.4-2.8,0.4
			c-1.9,0.1-3.8-0.2-5.6-0.8c-0.9-0.3-1.8-0.6-2.6-1c-0.9-0.4-1.7-0.9-2.4-1.3c-1.5-0.8-3.2-1.5-4.9-1.7c-0.8-0.1-1.7-0.1-2.4,0.2
			c-0.7,0.3-1.2,0.8-1.5,1.5c-0.1,0.4-0.3,0.7-0.3,1.2l0,0.3c0,0,0,0.2,0,0.1l0,0.2l0,0.6c0,0.8,0.2,1.6,0.6,2.4
			c0.4,0.7,0.9,1.4,1.6,1.9c0.6,0.5,1.4,1,2.2,1.3L165.4,223.8z"/>
	</g>
	<path class="st29" d="M163.7,155.4c1.4,20.6-3.2,25.9-8.2,33.5c-1.3,1.9,4.8,3.6,6.5-1.6C167.3,171.5,163.7,155.4,163.7,155.4z"/>
	<path class="st134" d="M177.2,152c1-32.4,38.7-25.3,29,11.4l0,0C224.7,124.5,178,114.3,177.2,152"/>
	<path class="st134" d="M129,172.1c-9.6-21.6,3.6-38.8,14.2-34l0,0C127.3,131.2,114.5,149.4,129,172.1L129,172.1z"/>
	<path class="st29" d="M188.8,187.3c6.5,0.8,14.6-7,18.3-10.2c3.7-3.2,4.9-2.4,5.4,3.1c0.7,7.7-12.7,22.3-27.1,12.7
		C182.9,191.2,180.3,186.3,188.8,187.3z"/>
	<path class="st1" d="M128.2,185.1c3.5-4.4,5.6,7.2,10.6,7.9c5,0.7,1.3,2.5-3.2,2.7C127.9,196.1,125.1,189,128.2,185.1z"/>
	<g>
		<path class="st131" d="M185.9,255c-0.8,0.6-1.7,1.1-2.5,1.7c-0.4,0.3-0.8,0.6-1.2,0.9l-1.1,1c-0.4,0.3-0.7,0.7-1.1,1
			c-0.4,0.3-0.7,0.7-1,1.1c-0.3,0.4-0.6,0.8-0.9,1.2c-0.3,0.4-0.6,0.8-0.8,1.2c-0.2,0.4-0.5,0.8-0.6,1.3c-0.2,0.4-0.4,0.9-0.5,1.4
			c-0.1,0.5-0.3,0.9-0.3,1.4c-0.1,0.5-0.2,1-0.2,1.4c-0.1,1,0,1.9,0.1,2.9c0,0.5,0.2,1,0.2,1.4c0.1,0.5,0.2,0.9,0.4,1.4
			c0.6,1.9,1.3,3.8,1.9,5.7c0.6,1.9,1.2,3.9,1.8,5.8c1.2,3.9,2.2,7.8,3.3,11.7l-0.8-0.4l0,0l11.9-4.1l11.9-4.2l11.9-4.2
			c2-0.7,4-1.4,5.9-2.2c1.9-0.8,3.8-1.7,5.6-2.7c1.8-1,3.6-2.1,5.3-3.4c1.7-1.3,3.3-2.6,4.7-4.2c1.4-1.6,2.5-3.3,3.5-5.1
			c0.5-0.9,0.9-1.8,1.3-2.8c0.3-0.9,0.6-1.9,0.8-2.9c0.4-2,0.3-4-0.3-5.9c-0.5-1.9-1.5-3.8-2.7-5.4c-1.2-1.6-2.7-3-4.4-4.2
			c-0.8-0.6-1.7-1.1-2.6-1.5c-0.9-0.4-1.9-0.6-2.7-0.6l-0.2-1.3c1.3-0.1,2.4,0.2,3.4,0.6c1,0.4,2,0.9,2.9,1.5
			c1.8,1.2,3.4,2.7,4.7,4.5c1.3,1.7,2.3,3.7,2.9,5.9c0.5,2.1,0.6,4.4,0.2,6.5c-0.2,1.1-0.5,2.1-0.9,3.1c-0.4,1-0.9,2-1.5,2.9
			c-1.2,1.8-2.6,3.4-4.1,4.9c-1.5,1.5-3.1,2.9-4.8,4.2c-1.7,1.3-3.5,2.4-5.3,3.5c-1.8,1-3.7,2-5.7,2.8c-1.9,0.8-3.9,1.5-5.9,2.2
			l-11.8,4.4l-11.8,4.4l-11.8,4.5l0,0l-0.7,0.2l-0.2-0.7c-1-3.9-2.1-7.8-3.3-11.7c-0.6-1.9-1.2-3.9-1.8-5.8c-0.6-1.9-1.3-3.8-2-5.8
			c-0.1-0.5-0.3-1-0.4-1.5c-0.1-0.5-0.2-1-0.3-1.6c-0.1-1-0.2-2.1-0.1-3.2c0-0.5,0.1-1.1,0.2-1.6c0.1-0.5,0.2-1,0.4-1.5
			c0.1-0.5,0.3-1,0.5-1.5c0.2-0.5,0.4-1,0.7-1.4c0.2-0.5,0.5-0.9,0.8-1.3c0.3-0.4,0.6-0.9,0.9-1.3c0.3-0.4,0.7-0.8,1-1.2
			c0.4-0.4,0.7-0.8,1.1-1.1l1.2-1c0.4-0.3,0.8-0.6,1.2-0.9c0.8-0.7,1.7-1.1,2.5-1.7L185.9,255z"/>
	</g>
	<g>
		<path class="st131" d="M185.6,262.4c0,0,0-0.2-0.2-0.6c-0.2-0.3-0.5-0.7-1.1-0.8c-0.6-0.1-1.3,0.1-2,0.3c-0.7,0.3-1.5,0.6-2.3,1.1
			c-0.7,0.4-1.4,0.9-2.1,1.5c-0.6,0.5-1.2,1.1-1.6,1.6c-0.4,0.5-0.7,1-0.8,1.3c-0.2,0.4-0.2,0.6-0.2,0.6s0-0.1,0-0.2
			c0-0.1,0-0.3,0-0.5c0-0.4,0.1-1,0.5-1.7c0.3-0.7,0.8-1.4,1.4-2c0.3-0.3,0.6-0.6,1-0.9c0.4-0.3,0.8-0.6,1.2-0.8
			c0.8-0.5,1.7-0.9,2.6-1.1c0.9-0.2,1.8-0.2,2.6,0.1c0.4,0.1,0.7,0.4,0.9,0.7c0.2,0.3,0.2,0.5,0.3,0.8
			C185.6,262.2,185.5,262.4,185.6,262.4z"/>
	</g>
	<g>
		<path class="st131" d="M233.1,255.8c0,0,0.1-0.2,0.2-0.6c0.1-0.4,0.3-0.9,0.7-1.5c0.2-0.3,0.3-0.6,0.6-0.9c0.2-0.3,0.5-0.6,0.8-1
			c0.3-0.3,0.6-0.6,1-0.9c0.4-0.3,0.7-0.6,1.2-0.8c0.4-0.2,0.9-0.4,1.3-0.5c0.2-0.1,0.5-0.1,0.7-0.1c0.2,0,0.5-0.1,0.7-0.1
			c0.5,0,0.9,0,1.3,0.1c0.4,0.1,0.8,0.2,1.1,0.4c0.3,0.1,0.6,0.3,0.8,0.5c0.2,0.2,0.4,0.4,0.5,0.5c0.2,0.3,0.3,0.6,0.3,0.6
			c0,0-0.1-0.2-0.5-0.4c-0.1-0.1-0.4-0.2-0.6-0.3c-0.2-0.1-0.5-0.2-0.8-0.2c-0.3-0.1-0.6-0.1-1-0.1c-0.3,0-0.7,0-1.1,0.1
			c-0.4,0-0.7,0.2-1.1,0.3c-0.4,0.1-0.7,0.3-1.1,0.5c-0.4,0.1-0.7,0.4-1,0.6c-0.3,0.2-0.6,0.5-0.9,0.7c-0.3,0.3-0.6,0.5-0.8,0.8
			c-0.3,0.2-0.5,0.5-0.7,0.7c-0.5,0.4-0.8,0.9-1.1,1.2C233.3,255.6,233.1,255.8,233.1,255.8z"/>
	</g>
	<g>
		<path class="st131" d="M227.9,264.6c0,0,0.2-0.2,0.6-0.6c0.2-0.2,0.4-0.5,0.7-0.7c0.3-0.2,0.6-0.5,1-0.8c0.4-0.3,0.8-0.5,1.3-0.8
			c0.5-0.3,1-0.5,1.6-0.7c0.6-0.2,1.2-0.4,1.8-0.5c0.6-0.1,1.3-0.2,1.9-0.2c0.7,0,1.3,0.1,1.9,0.2c0.6,0.1,1.2,0.3,1.8,0.6
			c0.3,0.1,0.6,0.2,0.8,0.4c0.3,0.2,0.5,0.3,0.7,0.4c0.5,0.3,0.9,0.6,1.2,1c0.4,0.3,0.6,0.7,0.8,1c0.2,0.3,0.3,0.7,0.4,0.9
			c0.1,0.5,0.2,0.8,0.2,0.8s-0.2-0.3-0.4-0.7c-0.2-0.2-0.4-0.5-0.6-0.7c-0.3-0.2-0.5-0.5-0.9-0.8c-0.3-0.3-0.8-0.5-1.2-0.7
			c-0.2-0.1-0.5-0.2-0.7-0.3c-0.2-0.1-0.5-0.2-0.7-0.3c-0.5-0.2-1.1-0.3-1.6-0.4c-0.6-0.1-1.1-0.2-1.7-0.1c-0.6,0-1.2,0-1.7,0.1
			c-0.6,0.1-1.1,0.2-1.7,0.3c-0.5,0.2-1,0.3-1.5,0.5c-0.5,0.2-0.9,0.4-1.3,0.6c-0.4,0.2-0.8,0.4-1.1,0.6c-0.3,0.2-0.6,0.4-0.8,0.5
			C228.2,264.5,227.9,264.6,227.9,264.6z"/>
	</g>
	<g>
		<path class="st131" d="M217.9,270.9c0,0,0.2-0.2,0.7-0.4c0.2-0.1,0.5-0.3,0.8-0.4c0.3-0.1,0.7-0.3,1.2-0.3
			c0.4-0.1,0.9-0.1,1.5-0.1c0.5,0,1.1,0.1,1.6,0.3c0.5,0.2,1.1,0.4,1.6,0.7c0.5,0.3,1,0.6,1.5,1c0.4,0.4,0.9,0.8,1.3,1.2
			c0.4,0.4,0.7,0.9,1,1.4c0.6,0.9,1,1.9,1.3,2.7c0.3,0.8,0.4,1.6,0.4,2.1c0,0.3-0.1,0.5-0.2,0.6c-0.1,0.1-0.2,0.1-0.2,0.1
			c0,0,0.1-0.1,0.1-0.2c0-0.1,0-0.3,0-0.5c-0.1-0.5-0.4-1.1-0.8-1.8c-0.8-1.4-2.1-3.2-3.8-4.6c-0.4-0.3-0.8-0.7-1.3-0.9
			c-0.4-0.3-0.9-0.5-1.3-0.7c-0.5-0.2-0.9-0.3-1.4-0.4c-0.4-0.1-0.9-0.1-1.3-0.1c-0.8,0-1.5,0.1-2,0.2
			C218.2,270.8,217.9,270.9,217.9,270.9z"/>
	</g>
	<g>
		<path class="st131" d="M211.5,273.1c0,0,0.2,0.9,0.3,2.2c0.1,0.6,0.2,1.4,0.3,2.2c0.1,0.8,0.2,1.7,0.3,2.5
			c0.1,0.9,0.2,1.7,0.3,2.5c0.1,0.4,0.1,0.8,0.2,1.1c0.1,0.4,0.1,0.7,0.2,1c0.1,0.3,0.1,0.6,0.2,0.9c0.1,0.3,0.1,0.5,0.2,0.7
			c0.1,0.4,0.2,0.6,0.2,0.6s-0.2-0.2-0.4-0.5c-0.1-0.1-0.3-0.3-0.4-0.6c-0.1-0.2-0.3-0.5-0.5-0.8c-0.1-0.3-0.3-0.6-0.4-1
			c-0.1-0.4-0.3-0.7-0.4-1.2c-0.1-0.4-0.2-0.8-0.3-1.3c-0.1-0.4-0.1-0.9-0.2-1.3c-0.2-1.8-0.2-3.5,0-4.9
			C211.3,274,211.5,273.1,211.5,273.1z"/>
	</g>
	<g>
		<path class="st131" d="M185.9,267.4c0,0-0.1,0-0.2-0.1c-0.1,0-0.2-0.1-0.4-0.2c-0.2,0-0.4-0.1-0.6,0c-0.2,0-0.5,0.1-0.8,0.2
			c-0.1,0-0.3,0.1-0.4,0.2c-0.2,0.1-0.3,0.1-0.5,0.2c-0.3,0.2-0.6,0.4-0.9,0.6c-0.3,0.2-0.6,0.5-0.9,0.8c-0.3,0.3-0.6,0.6-0.9,0.9
			c-0.6,0.6-1.1,1.3-1.6,2c-0.2,0.3-0.5,0.7-0.7,1c-0.2,0.3-0.4,0.6-0.6,0.9c-0.3,0.6-0.6,1.1-0.8,1.4c-0.2,0.4-0.3,0.6-0.3,0.6
			s0-0.2,0.1-0.6c0-0.2,0-0.5,0.1-0.7c0.1-0.3,0.1-0.6,0.2-0.9c0.2-0.7,0.5-1.4,0.9-2.2c0.2-0.4,0.4-0.8,0.7-1.1
			c0.3-0.4,0.6-0.7,0.9-1.1c0.3-0.3,0.7-0.7,1-1c0.3-0.3,0.7-0.6,1.1-0.8c0.4-0.2,0.8-0.4,1.2-0.6c0.4-0.2,0.8-0.2,1.1-0.3
			c0.2,0,0.4,0,0.5,0c0.2,0,0.3,0.1,0.5,0.1c0.3,0,0.6,0.2,0.7,0.3c0.2,0.1,0.2,0.3,0.3,0.3C185.9,267.3,185.9,267.4,185.9,267.4z"
			/>
	</g>
	<g>
		<path class="st131" d="M193.4,273.4c0,0-0.1,0-0.2-0.1c-0.1-0.1-0.4-0.1-0.6-0.2c-0.5-0.1-1.4-0.1-2.2,0.2
			c-1.8,0.6-3.8,2.2-5.4,4.2c-1.6,2-2.9,4.3-3.6,6.1c-0.3,0.9-0.6,1.7-0.7,2.3c-0.1,0.6-0.2,0.9-0.2,0.9s0-0.1,0-0.2
			c0-0.2-0.1-0.4,0-0.7c0-0.6,0-1.4,0.2-2.4c0.2-1,0.6-2.2,1.1-3.3c0.3-0.6,0.6-1.2,1-1.7c0.4-0.6,0.8-1.1,1.2-1.7
			c0.9-1.1,1.9-2,3-2.7c1.1-0.7,2.2-1.2,3.3-1.4c1.1-0.2,2,0,2.5,0.3c0.3,0.1,0.5,0.3,0.6,0.4C193.3,273.3,193.4,273.4,193.4,273.4z
			"/>
	</g>
	<g>
		<path class="st131" d="M199.3,274.3c0,0-0.1,0.3-0.2,0.8c-0.1,0.5-0.3,1.2-0.5,2.1c-0.2,0.9-0.4,1.9-0.7,3
			c-0.2,1.1-0.5,2.3-0.7,3.4c-0.3,1.2-0.4,2.3-0.6,3.4c-0.1,0.6-0.2,1.1-0.2,1.6c-0.1,0.5-0.1,1-0.2,1.4c-0.1,0.4-0.1,0.8-0.1,1.2
			c0,0.4,0,0.7,0,0.9c0,0.3,0.1,0.5,0.1,0.6c0,0.1,0,0.2,0,0.2s0-0.1-0.1-0.2c-0.1-0.1-0.2-0.3-0.3-0.6c-0.1-0.3-0.2-0.6-0.2-0.9
			c-0.1-0.4-0.1-0.8-0.2-1.3c-0.1-0.9-0.1-2,0-3.2c0.1-0.6,0.1-1.2,0.2-1.8c0.1-0.6,0.2-1.2,0.3-1.8c0.1-0.6,0.3-1.2,0.4-1.8
			c0.1-0.6,0.3-1.1,0.5-1.7c0.3-1.1,0.7-2.1,1.1-2.9c0.4-0.8,0.7-1.5,1-2C199.2,274.6,199.3,274.3,199.3,274.3z"/>
	</g>
	<g>
		<path class="st128" d="M190.8,213c-0.8,0.5-1.7,0.7-2.6,0.9c-0.5,0.1-0.9,0.1-1.4,0.1c-0.5,0-0.9,0-1.4,0c-0.5,0-0.9-0.1-1.4-0.2
			c-0.5-0.1-0.9-0.2-1.4-0.3c-0.5-0.1-0.9-0.3-1.3-0.5c-0.4-0.2-0.9-0.3-1.3-0.6c-0.4-0.2-0.8-0.4-1.2-0.7l-1.2-0.8
			c-0.8-0.5-1.5-1.2-2.2-1.7c-0.7-0.6-1.3-1.3-2-2l-1.8-2.1l0.6,0.2c-1.3,0.3-2.6,0.5-4,0.6c-1.3,0.1-2.7,0.1-4.1-0.3l0.4-0.1
			c-0.4,0.3-0.8,0.6-1.2,0.9c-0.4,0.3-0.8,0.6-1.1,1c-0.4,0.3-0.7,0.7-1.1,1.1c-0.3,0.4-0.7,0.8-0.9,1.2c-0.3,0.4-0.6,0.8-0.8,1.3
			c-0.3,0.4-0.4,0.9-0.6,1.3c-0.2,0.5-0.3,0.9-0.4,1.4c0,0.5-0.2,1-0.1,1.4c0,0.5,0,1,0.2,1.4l0.2,0.7c0.1,0.2,0.2,0.4,0.3,0.7
			l0.3,0.7c0.1,0.2,0.3,0.4,0.4,0.6c0.3,0.5,0.5,0.8,0.8,1.2c0.3,0.4,0.6,0.7,1,1.1c0.4,0.3,0.7,0.6,1.2,0.8
			c0.4,0.2,0.8,0.4,1.3,0.4c0.4,0.1,0.9,0,1.3-0.1l0.3,1.1c-0.6,0.2-1.2,0.2-1.8,0.1c-0.6-0.1-1.1-0.3-1.6-0.5c-0.5-0.3-1-0.6-1.4-1
			c-0.4-0.4-0.8-0.8-1.1-1.2c-0.3-0.4-0.7-0.9-0.9-1.3c-0.1-0.2-0.3-0.4-0.4-0.7l-0.3-0.7c-0.1-0.3-0.2-0.5-0.3-0.8l-0.2-0.8
			c-0.2-0.5-0.2-1.1-0.2-1.6c-0.1-0.6,0.1-1.1,0.1-1.7c0.1-0.5,0.2-1.1,0.4-1.6c0.2-0.5,0.4-1,0.7-1.5c0.2-0.5,0.6-0.9,0.9-1.4
			c0.3-0.4,0.7-0.8,1-1.3c0.4-0.4,0.7-0.8,1.1-1.1c0.4-0.4,0.8-0.7,1.2-1.1c0.4-0.3,0.8-0.6,1.3-1l0.2-0.1l0.2,0.1
			c1.2,0.3,2.4,0.3,3.7,0.2c1.3-0.1,2.5-0.3,3.8-0.6l0.4-0.1l0.2,0.3l1.7,2.1c0.6,0.7,1.2,1.3,1.9,2c0.7,0.6,1.3,1.2,2.1,1.7
			l1.1,0.8c0.4,0.2,0.8,0.5,1.2,0.7c0.4,0.2,0.8,0.4,1.2,0.6c0.4,0.2,0.8,0.4,1.2,0.5c0.4,0.1,0.8,0.3,1.3,0.4
			c0.4,0.1,0.9,0.2,1.3,0.2c0.4,0.1,0.9,0.1,1.3,0.1c0.4,0,0.9-0.1,1.3-0.1c0.9-0.1,1.8-0.4,2.6-0.8L190.8,213z"/>
	</g>
	<g>
		<path class="st131" d="M232.6,236.7c0,0,0.3,0.2,0.9,0.4c0.6,0.3,1.5,0.8,2.7,1.2c2.3,1,6,2.3,10.6,3.7c4.7,1.4,10.4,2.9,17,4.6
			c3.3,0.8,6.8,1.8,10.5,2.8c3.7,1.1,7.5,2.2,11.4,3.9c1,0.4,1.9,1,2.9,1.5c1,0.5,1.8,1.3,2.6,2.1c1.5,1.6,2.9,3.4,4.1,5.4
			c2.5,3.8,4.6,8,6.7,12.4c4.1,8.7,7.8,18.2,11.4,28c1.8,4.9,3.5,10,5.2,15.1c1.7,5.1,3.4,10.3,5.1,15.6c3.3,10.5,6.4,21.3,9.1,32.1
			c1.4,5.4,2.7,10.9,3.7,16.4c0.3,1.4,0.5,2.8,0.7,4.1l0.2,1l0,0.1c0,0,0,0.2,0,0.2l0,0.3c0,0.2,0,0.4,0,0.6
			c-0.1,0.9-0.3,1.5-0.4,2.2c-0.7,2.8-1.8,5.4-2.9,7.9c-2.2,5.1-4.8,10-7.6,14.6c-2.8,4.7-5.8,9.1-8.9,13.3
			c-6.3,8.4-13.2,16-20.3,22.6c-3.5,3.3-7.1,6.4-10.7,9.2c-3.6,2.8-7.2,5.4-10.7,7.7c-3.5,2.3-7,4.4-10.3,6.4
			c-3.4,1.9-6.6,3.6-9.7,5c-6.2,3-11.7,5.2-16.4,6.8c-1.2,0.4-2.3,0.8-3.3,1.1c-0.5,0.2-0.9,0.4-1.4,0.6c-0.5,0.2-1,0.4-1.5,0.5
			c-2,0.5-3.8,0.4-5.2,0c-1.4-0.3-2.3-0.8-2.9-1.2c-0.6-0.4-0.9-0.5-0.9-0.5l0.7-1.1c0,0,0.3,0.2,0.9,0.4c0.6,0.3,1.5,0.7,2.7,0.9
			c1.2,0.3,2.7,0.3,4.4-0.2c0.4-0.1,0.8-0.3,1.3-0.5c0.4-0.2,1-0.5,1.5-0.6c1-0.4,2.1-0.8,3.2-1.2c4.5-1.8,10-4,16-7.1
			c6-3.1,12.7-6.8,19.6-11.4c3.4-2.3,7-4.9,10.5-7.6c3.5-2.8,7.1-5.8,10.6-9c7-6.5,13.9-13.9,20.1-22.2c6.3-8.3,12.1-17.4,16.6-27.3
			c1.1-2.5,2.1-5,2.9-7.6c0.2-0.6,0.3-1.3,0.4-1.9c0-0.1,0.1-0.2,0-0.4l0-0.3c0-0.1,0,0,0,0l0-0.1l-0.1-1c-0.2-1.4-0.4-2.7-0.7-4.1
			c-1-5.4-2.2-10.9-3.5-16.3c-2.6-10.8-5.6-21.6-8.8-32.1c-1.6-5.3-3.2-10.5-4.9-15.6c-1.7-5.1-3.4-10.1-5.2-15.1
			c-3.6-9.8-7.3-19.3-11.4-27.9c-2-4.3-4.2-8.5-6.6-12.2c-1.2-1.9-2.5-3.7-4-5.2c-0.7-0.8-1.5-1.4-2.4-1.9c-0.9-0.5-1.8-1-2.8-1.4
			c-3.8-1.7-7.6-2.8-11.3-3.9c-3.7-1-7.2-1.9-10.5-2.8c-6.6-1.6-12.4-3.1-17.1-4.4c-4.7-1.4-8.4-2.6-10.8-3.6
			c-1.3-0.5-2.1-1-2.7-1.2c-0.6-0.3-0.9-0.4-0.9-0.4L232.6,236.7z"/>
	</g>
	<g>
		<g>
			<g>
				<path class="st19" d="M119.6,152.6c0,0,0.1,0.8,0.3,2.4c0.2,1.6,0.4,3.9,0.6,6.8c0.4,5.9,0.7,14.3,0.1,24.4
					c0,0.6-0.1,1.2-0.1,1.9c0,0.6,0,1.3,0,1.9c0,0.7,0,1.3,0.1,1.9c0.1,0.6,0.1,1.3,0.1,2c0.4,2.6,0.8,5.4,1.6,8.1
					c1.5,5.5,3.8,11.1,6.7,16.6c3,5.5,6.6,10.8,11,15.6l1.7,1.8l1.8,1.7c1.2,1.2,2.4,2.2,3.7,3.2c2.5,2.1,5.3,3.9,8.2,5.4
					c5.8,3,12.3,4.8,18.7,4.8c6.5,0.1,12.9-0.8,18.8-2.8c5.9-1.8,11.3-4.5,16-7.8c4.7-3.3,8.6-7,11.7-10.9c3.1-3.9,5.6-7.8,7.2-11.5
					c0.2-0.5,0.4-0.9,0.7-1.4c0.2-0.4,0.4-0.9,0.5-1.3c0.3-0.9,0.7-1.7,1-2.6c0.6-1.7,1-3.2,1.4-4.6c0.3-1.4,0.6-2.7,0.8-3.8
					c0.3-1.1,0.3-2.1,0.4-2.9c0.2-1.6,0.3-2.4,0.3-2.4s-0.1,0.8-0.2,2.4c-0.1,0.8-0.1,1.8-0.3,2.9c-0.2,1.1-0.4,2.4-0.6,3.9
					c-0.4,1.4-0.7,3-1.2,4.7c-0.3,0.8-0.6,1.7-0.9,2.6c-0.2,0.5-0.3,0.9-0.5,1.4c-0.2,0.5-0.4,0.9-0.6,1.4c-1.6,3.8-3.9,7.9-7,12
					c-3.1,4-7,8-11.8,11.5c-4.7,3.5-10.2,6.4-16.4,8.4c-6,2-12.7,3.1-19.4,3.1c-6.8,0-13.7-1.9-19.8-5c-3-1.6-6-3.5-8.6-5.7
					c-1.3-1.1-2.6-2.2-3.8-3.4l-1.8-1.8l-1.7-1.9c-4.5-5-8.2-10.5-11.2-16.2c-3-5.7-5.1-11.5-6.5-17.1c-0.7-2.8-1.2-5.7-1.5-8.4
					c-0.1-0.7-0.1-1.4-0.1-2.1c0-0.7-0.1-1.4,0-2c0-0.7,0.1-1.3,0.1-1.9c0.1-0.6,0.1-1.3,0.2-1.9c0.4-5,0.7-9.6,0.8-13.7
					c0.1-4.1,0.1-7.7,0-10.6c-0.1-2.9-0.2-5.2-0.3-6.8C119.7,153.4,119.6,152.6,119.6,152.6z"/>
			</g>
		</g>
	</g>
	<g>
		<path class="st29" d="M178.4,441.7c-8-6.7-8,2.4,5.2,9.8c13.2,7.5-7,12.9-11.7,13s-31.4-6.8-37.9-8c-6.5-1.3-2.2,2.9,5,4.6
			c7.2,1.7,15.8,4.6,22.1,7.2c6.3,2.6,3.9,8-3.9,10c-2.8,0.7-7.9,1.9-11.5,2.4c-6.5,0.9-11,0.9-10.6,2.7c0.8,3.3,20,0.7,23.1,0.7
			c8.5-0.1,40.1-1.2,60.2-27.6c-0.9-3.2-2.3-5.1-2.3-5.1C198.6,452.1,186.4,448.4,178.4,441.7z"/>
	</g>
	<g>
		<path class="st29" d="M35.8,471.5c0-0.1-0.2-0.3-0.4-0.6C36.1,472.6,36.4,473,35.8,471.5z"/>
		<path class="st29" d="M71,456.5c-12.5-2-28.8-5.3-33.9-15c-1-14.1,14.8-23.1,12.4-21.7c-10.3,5.7-11.9,9.2-13.7,13.4
			c-1.4,3.3-4.3,14.9-3.6,20.9c1.7,14.2,27.1,14.2,12.6,8.8c-9.8-3.6-9-14.3-5.2-11.4c1.8,1.2,4.3,2.4,7.6,3.3
			C65.4,459.9,73.1,456.9,71,456.5z"/>
	</g>
	<path class="st125" d="M185.6,392c-19.4-6-23.5-15.6-55.2-12.1c-44.7,4.9-46.2,33.8-36.2,44.1c14.5,15,44.4,9.9,72,0
		C191,415.1,197.3,395.6,185.6,392z"/>
	<path class="st125" d="M122.7,331.3c0,0,12.9,8.1,32,0.1c11.2-4.7,37.2,31.1,63.2,4.9c5.4-5.4,24.6-35.4,23.2-41.6
		c-1.2-5.5-28.5,11.8-48.1,15.9c-12.4,2.6-35.5,5.5-45.4,6.2C128.8,318.3,117.6,319.1,122.7,331.3z"/>
	<path class="st125" d="M238.7,434.6c-5,4.5-6.3,13.1,6,8.4c41.3-15.9,64.5-50.6,66.9-55.2s-23-60.7-23-60.7s8.4,47.9,11,50.7
		c2.6,2.8,2.8,7.9,2.8,7.9s-1.9,1.1-21.6,16.5S238.7,434.6,238.7,434.6z"/>
	<path class="st125" d="M282.6,284.8c-6.4-5.6-17-7.5-22.5-3.3s2.1-14.6,14.9-14.7S289.6,291,282.6,284.8z"/>
	<path class="st31" d="M184.1,214.8c-6.2,0.1-11-2.3-13.7-4.4c-2.6-2.1,0.3-3.9,2.9-0.7C176.8,214.2,184.1,214.8,184.1,214.8z"/>
	<g>
		<g>
			<path class="st27" d="M230,187.3c1,0.3,2,0.5,2.9,0.5c0.5,0,1,0,1.5-0.2c0.5-0.1,0.9-0.2,1.4-0.4c0.5-0.2,0.9-0.4,1.3-0.7
				c0.4-0.3,0.8-0.5,1.2-0.9c0.4-0.3,0.8-0.7,1.1-1l0.5-0.6l0.5-0.6c0.3-0.4,0.6-0.8,0.8-1.3c0.3-0.4,0.5-0.9,0.7-1.3
				c0.4-0.9,0.8-1.9,1.1-2.8c0.1-0.5,0.3-1,0.4-1.5l0.3-1.5l0.2-1.5l0.1-1.5l0,0l0.5,0.6l-2.7-0.8c-0.9-0.3-1.7-0.8-2.6-1.2
				c-1.7-0.9-3.3-1.9-4.7-3.2c-0.4-0.3-0.8-0.6-1.1-0.9l-1-1l-1-1c-0.3-0.4-0.6-0.8-0.9-1.1c-1.2-1.5-2.2-3.1-3.1-4.7
				c-0.8-1.7-1.7-3.4-2.4-5.1c-0.4-0.9-0.7-1.7-1-2.6l-0.9-2.7c-0.4-1.8-1-3.6-1.3-5.5l-0.5-2.8l-0.4-2.8c-0.3-1.8-0.4-3.7-0.6-5.6
				c-0.1-1.9-0.2-3.7-0.2-5.6l0-5.5c0-1.9-0.1-3.6-0.3-5.4c-0.7-7.2-3.1-14.2-7.2-20.2l1-0.8c2.3,3,4.2,6.3,5.5,9.8
				c1.4,3.5,2.2,7.2,2.7,10.9c0.2,1.8,0.4,3.8,0.4,5.6l0.1,5.5c0.1,1.8,0.2,3.6,0.3,5.5l0.3,2.7c0.1,0.9,0.2,1.8,0.3,2.7l0.4,2.7
				l0.5,2.7c0.3,1.8,0.8,3.5,1.2,5.3l0.8,2.6c0.2,0.9,0.6,1.7,0.9,2.6c0.3,0.8,0.6,1.7,1,2.5l1.1,2.4c0.9,1.6,1.7,3.1,2.8,4.5
				c0.3,0.4,0.5,0.7,0.8,1.1l0.9,1l0.9,1c0.3,0.3,0.7,0.6,1,0.9c1.3,1.2,2.7,2.3,4.3,3.2c0.8,0.4,1.6,0.9,2.4,1.2l2.5,0.9l0.5,0.2
				l0,0.5l0,0l-0.1,1.6l-0.2,1.6l-0.4,1.6c-0.2,0.5-0.3,1-0.5,1.5c-0.4,1-0.8,2-1.3,2.9c-0.3,0.5-0.5,0.9-0.8,1.4
				c-0.3,0.4-0.6,0.9-0.9,1.3l-0.5,0.6l-0.6,0.6c-0.4,0.4-0.8,0.7-1.2,1.1c-0.4,0.4-0.9,0.6-1.3,0.9c-0.5,0.2-1,0.5-1.5,0.7
				c-0.5,0.2-1,0.3-1.6,0.4c-0.6,0.1-1.1,0.1-1.6,0.1c-1.1,0-2.2-0.2-3.1-0.6L230,187.3z"/>
		</g>
	</g>
</g>
</svg>
