<?xml version="1.0" encoding="utf-8"?>
<!-- Generator: Adobe Illustrator 25.4.1, SVG Export Plug-In . SVG Version: 6.00 Build 0)  -->
<svg version="1.1" xmlns="http://www.w3.org/2000/svg" xmlns:xlink="http://www.w3.org/1999/xlink" x="0px" y="0px"
	 viewBox="0 0 512 512" style="enable-background:new 0 0 512 512;" xml:space="preserve">
<style type="text/css">
	.st0{fill:#FFFFFF;stroke:#D2D2D2;stroke-miterlimit:10;}
	.st1{fill:#9690AE;stroke:#10001C;stroke-width:4.0446;stroke-miterlimit:10;}
	.st2{fill:#746C94;}
	.st3{fill:#F7591A;}
	.st4{fill:#FEBD56;}
	.st5{fill:#FFFFFF;}
	.st6{fill:#F6F6F6;stroke:#10001C;stroke-width:4.0446;stroke-miterlimit:10;}
	.st7{fill:#C5C1D2;}
	.st8{fill:#D7D7E2;}
	.st9{fill:#381849;}
	.st10{fill:none;stroke:#10001C;stroke-width:4.0446;stroke-miterlimit:10;}
	.st11{fill:#DD1B1D;}
	.st12{fill:#DED4E2;}
	.st13{fill:#FFFFFF;stroke:#10001C;stroke-width:4.0446;stroke-miterlimit:10;}
	.st14{fill:#CFCFDA;}
</style>
<g id="Layer_1">
</g>
<g id="safe">
	<path class="st0" d="M467.4,426.4c-5.7-6.7-21.5-16.6-37.4-16.6c-5.7,0-11,1.3-15.5,3.7c-5.8-6.2-14.2-11.9-24.6-11.9
		c-6.4-12-14.9-15.5-17.9-16.5c-8.2-38.3-20.1-87.9-32.4-115.4c3.2-3,4.7-7.5,3.9-11.8c-1-5.1-2.7-10.4-5.1-16.1
		c7.1-5.4,12.8-10.1,17.4-14.1c0.2,0.2,0.5,0.3,0.7,0.5c6.6,4.4,8.8,5.9,12.4,5.9c2.8,0,5.5-1.2,7.4-3.2c2.7-2.9,3.9-6.9,3.4-11.2
		c-1.1-9.1-10.4-20.7-14.1-23.1c-41.3-27.7-82.6-48.1-122.8-60.7c-1.5-3.8-3.9-6.4-5-7.7c-2.6-2.9-5.3-4.4-7.6-5
		c-8.7-13.4-22.1-33.5-31.5-45.9c-4-5.3-25.9-31.6-60.6-31.6c-14.2,0-28.3,4.5-42,13.4c-19.2,11.8-31,26.8-35,44.4
		c-8,34.8,15.3,71.5,34,100.9c0.9,1.4,1.8,2.8,2.7,4.2c-0.5,1.5-0.7,3-0.9,4.3c0,0.3-0.1,0.6-0.1,0.9c-0.7,4.4,0.9,8.7,4.3,12.4
		c1,8,3.2,16.4,6.6,25c4.3,42.8,11.2,76.6,20.5,100.4c0.9,2.3,1.8,4.5,2.5,6.6c2.7,7,4.9,12.6,6.9,16.9c0.7,1.5,1.2,2.7,1.7,3.8
		c1.5,3.5,4.2,10,11.7,10c5.2,0,8.4-3.5,11-6.3c2.6-2.9,3.4-7,1.9-10.6c-2.3-5.6-2.7-8.7-2.7-10.1c2.6-1.9,5.3-3.8,7.9-5.6
		c6.8,8.2,12.3,13.9,14,15.6c1.9,2.3,5.1,4.4,9.5,4.7c13.2,11.7,37.8,31.7,71.3,50.7c8.8,5,18.8,10.2,29.7,15.6
		c-6.6,1.8-13.2,4.5-19.7,8.2c-8.3,4.7-12.3,8.8-13.3,13.7c-0.7,3.1,0,6.2,1.7,8.6c1.9,2.6,4.9,4.1,8.1,4.1h133.2
		c0,0,56.4,0.7,56.5,0.7c4.7,0,8.8-3.3,9.8-7.9C472.2,457.9,475.4,435.8,467.4,426.4z M353.4,427.2c-0.8,0.6-1.6,1.1-2.3,1.7
		c-1.1-0.5-2.2-1.1-3.3-1.6c-4-4.1-8.1-5.8-11.6-6.5c-20.1-12-41.9-28.2-42.2-28.4c-0.2-0.1-0.4-0.3-0.6-0.4
		c-1.4-1.4-2.8-2.8-4.2-4.2c2.4-2.8,4.7-6.5,6.6-11.3c0.3-0.8,0.6-1.7,0.8-2.6c3.4,1.1,6.8,1.7,10.2,1.7c7.2,0,13.9-2.6,19.1-7.3
		c1.8,3.8,3.6,7.6,5.4,11.4c3.1,6.7,6.2,13.4,9.2,19.9C345.3,410.3,349.7,419.9,353.4,427.2z"/>
	<g>
		<path class="st1" d="M113.5,186.8c0,0,1.4,103.9,23.8,161.2c3.9,10,6.7,17.6,9.2,22.8c4,8.7,3.1,10.3,8,5c-5.1-12.3-4-18.8-0.9-21
			c47.2-33.8,81-53.9,81-53.9s94-59.9,119.7-85.4c0.7-0.7,14,9.3,14.6,8.7c4-4.3-7.1-18-8.9-19.3c-124.2-83.4-216.2-77.1-227.7-66.7
			C120.8,148.6,113.5,186.8,113.5,186.8z"/>
		<path class="st2" d="M158.9,348.2c0,0-25.6-47.9-21.8-65.4c21.8,27.4,35.5,56.3,35.5,56.3L158.9,348.2z"/>
		<path class="st2" d="M323.9,237.4l17.2-13.3c0,0-34.2-39.6-60.7-38.2C303.7,203.1,318.3,225.8,323.9,237.4z"/>
		<path class="st3" d="M296.3,292.2c0,0,20.4,32.9,44.1,83.4c16.1,34.4,31.6,71.2,30.8,57.2c0,0-25.5-141.3-47.9-171.7
			C295.3,265.5,296.3,292.2,296.3,292.2z"/>
		<path class="st4" d="M303.2,284c0,0,26.9,60.8,49,100.3c-8.3-60.6-30.6-111.1-30.6-111.1L303.2,284z"/>
		<path class="st5" d="M319.5,279.9c0,0,9.2,31,12.4,40.2c2.5,7.1,7.4,26.8,7.4,26.8s-30.2-57.8-30.7-66.5
			c-0.5-8.8,10.7-6.1,10.7-6.1L319.5,279.9z"/>
		<path class="st3" d="M186.9,357.6c0,0,29.8,31.5,81.8,61c34.1,19.4,74.9,35.9,74.9,35.9S272,388.3,205.8,314.8
			C177.9,331.3,186.9,357.6,186.9,357.6z"/>
		<path class="st4" d="M200,352.1c0,0,38.8,48.2,103.1,73.1c-46.5-44-93-98.1-93-98.1L200,352.1z"/>
		<path class="st5" d="M211.1,335.1c0,0,37.6,44.7,47.2,51.6c1.6,1.2,23.9,19.4,23.9,19.4s-73.2-42.3-83.9-65.1
			c-4.4-9.5,10-12,10-12L211.1,335.1z"/>
		<path class="st6" d="M293.4,195.7c8.1,6.7,34.9,37.6,40.2,64.3c0.2,1-0.2,2.1-1.1,2.7c-39.4,30.4-37.6,21.3-37.6,21.3
			s-56.6-58.6-44.2-87.7C263,167.2,293.4,195.7,293.4,195.7z"/>
		<path class="st6" d="M183.5,256.6c2.2,1.5,38.3,47.1,54.4,77.6c-41.8,42.4-47.4,31.1-47.4,31.1s-55.7-55.3-46-90.5
			S183.5,256.6,183.5,256.6z"/>
		<path class="st3" d="M403.4,467.5l56.4,0.7c0,0,6-28.2,0-35.2c-6-7-33.1-22.6-47.2-4.9c0,0-10.6-20.4-28.2-15.5
			c-17.6,4.9-16.9,23.6-16.9,23.6s-16.3,0.6-26.2,11.9c-9.9,11.3-4.1,9.6-4.1,9.6s-24.3-17.3-58.5,2.1c-10,5.7-8.5,7.8-8.5,7.8"/>
		<path class="st3" d="M288,400.5c0,0,57.6,42.9,74.4,42.3c16.8-0.6,7.5-2.9,7.5-2.9l-1.1-45.2c0,0,13.6,2.9,17.9,29.6
			c4.4,26.8-21.2,31.7-21.2,31.7l-31.7,3.7L288,400.5z"/>
		<path class="st3" d="M325.7,439.5c0,0-15.7-4-21.7,10.1c-6,14.1-6,14.1-6,14.1l99.7-1.6l-70.4-22.9
			C327.3,439.1,348.2,427.4,325.7,439.5z"/>
		<path class="st5" d="M358.6,206.1c0,0-71.2-46.4-122.9-59.8c11,8.7,10.1,6.5,10.1,6.5s29.7,11.1,58.8,26.3
			c23.3,12.2,47.8,26.8,61.4,38C367.5,213.2,358.6,206.1,358.6,206.1z"/>
		<path class="st7" d="M276,190.8c1.2,0,30.8,29.2,49.3,63.9c3.4,6.4,0.2,6.8-5.8,10.8c-1.8,1.2-8.4,7.4-8.4,7.4l-10.9,5.2
			l-56.4-82.7c0,0,11.6-15.3,23.4-8.3"/>
		<path class="st7" d="M151.4,291.9c-0.4,1.1,11.3,36,37.9,65.1c4.9,5.3,13,6.2,18.7,1.9c1.8-1.3,2.3-1.7,2.3-1.7l13.8-10.4L165,266
			C165,266,148.7,278.5,151.4,291.9"/>
		<path class="st2" d="M266.7,195.4c1.3,0,36.5,27.8,54.1,68.8c-3.8,6.6-20.5,16.3-20.5,16.3l-6.3,1.7l-56.4-82.7
			C237.6,199.6,254.9,188.4,266.7,195.4"/>
		<path class="st2" d="M170,272.5c1.3-0.1,38.2,25.5,58.2,65.4c-3.4,6.8-19.4,17.5-19.4,17.5l-6.1,2.1l-61.3-79.1
			C141.3,278.5,157.7,266.3,170,272.5"/>
		<g>
			<path class="st5" d="M381.6,421.9c2.7-1,5.6-1.2,8.4-0.8c2.8,0.4,5.6,1.4,8.1,2.9c2.5,1.5,4.7,3.5,6.3,6c0.9,1.1,1.4,2.5,2,3.8
				c0.5,1.3,0.9,2.7,1.1,4.1c-1.1-1-1.8-2.1-2.8-3c-1-0.9-1.8-1.9-2.8-2.8c-1.8-1.8-3.9-3.2-5.9-4.6c-2.1-1.3-4.4-2.4-6.8-3.3
				C386.8,423.2,384.3,422.5,381.6,421.9z"/>
		</g>
		<g>
			<path class="st5" d="M350.2,450.4c-0.7-2.5-0.4-5.3,0.5-7.8c0.9-2.5,2.5-4.8,4.5-6.7c1-0.8,2.1-1.7,3.3-2.4
				c1.1-0.7,2.4-1.2,3.6-1.7c0.6-0.3,1.3-0.4,1.9-0.5c0.6-0.1,1.3-0.3,1.9-0.4c1.3-0.1,2.6-0.2,3.9-0.1c-1.1,0.8-2.2,1.3-3.3,1.9
				c-0.5,0.3-1,0.7-1.6,1c-0.5,0.3-1,0.6-1.5,0.9c-0.5,0.3-1,0.7-1.5,1c-0.5,0.3-0.9,0.7-1.4,1c-1,0.6-1.8,1.4-2.6,2.1
				c-1.6,1.5-3.1,3.2-4.4,5.1C352.3,446,351.1,448,350.2,450.4z"/>
		</g>
		<g>
			<path class="st5" d="M449.8,447c0-2.3-0.1-4.5-0.6-6.4c-0.4-2-1.4-3.6-2.6-4.8c-1.3-1.2-3-2.1-4.8-2.7c-1.8-0.6-3.9-0.9-5.8-1.1
				l0.3,0c-0.8,0.1-1.7,0.4-2.6,0.6c-0.9,0.3-1.8,0.6-2.6,0.9c-0.9,0.4-1.8,0.7-2.6,1.2c-0.9,0.4-1.7,0.9-2.6,1.4
				c0.5-0.9,1.1-1.7,1.8-2.4c0.7-0.7,1.5-1.4,2.3-2.1c0.8-0.6,1.7-1.2,2.6-1.7c0.9-0.5,1.8-0.9,3-1.3l0,0l0.2,0
				c1.3-0.1,2.4-0.1,3.6,0c1.2,0.1,2.4,0.3,3.6,0.6c2.3,0.7,4.7,1.9,6.4,4c1.7,2,2.5,4.7,2.4,7.1C451.7,442.7,451,445,449.8,447z"/>
		</g>
		<g>
			<path class="st5" d="M318.1,440.7c0.8-2.6,2.3-4.9,4.1-6.9c1.8-2,4.2-3.8,7.1-4.6c1.4-0.4,3-0.6,4.6-0.4c1.5,0.2,3,0.8,4.2,1.7
				c2.4,1.7,4,4.2,4.7,6.7c-2.1-1.7-4.2-3.1-6.2-4c-2.1-0.8-4.1-0.8-6.1-0.2c-2.1,0.6-4.1,1.8-6.1,3.2
				C322.3,437.5,320.3,439,318.1,440.7z"/>
		</g>
		<g>
			<path class="st5" d="M298.6,453.1c1.5-1.9,3.5-3.1,5.7-4c2.2-0.9,4.6-1.3,7.1-1.2c2.4,0.1,4.8,0.7,6.9,1.9c1.1,0.5,2,1.3,2.9,2
				c0.9,0.8,1.6,1.7,2.3,2.7c-1.2-0.2-2.2-0.7-3.3-0.9c-1.1-0.3-2.1-0.6-3.1-0.8c-2-0.5-4-0.7-6-0.8c-2-0.1-4,0-6.1,0.2
				C303,452.3,300.9,452.7,298.6,453.1z"/>
		</g>
		<g>
			<path class="st5" d="M407.8,466.9c-0.7-2.5-0.4-5.3,0.5-7.8c0.9-2.5,2.5-4.8,4.5-6.7c1-0.8,2.1-1.7,3.3-2.4
				c1.1-0.7,2.4-1.2,3.6-1.7c0.6-0.3,1.3-0.4,1.9-0.5c0.6-0.1,1.3-0.3,1.9-0.4c1.3-0.1,2.6-0.2,3.9-0.1c-1.1,0.8-2.2,1.3-3.3,1.9
				c-0.5,0.3-1,0.7-1.6,1c-0.5,0.3-1,0.6-1.5,0.9c-0.5,0.3-1,0.7-1.5,1c-0.5,0.3-0.9,0.7-1.4,1c-1,0.6-1.8,1.4-2.6,2.1
				c-1.6,1.5-3.1,3.2-4.4,5.1C409.9,462.4,408.8,464.5,407.8,466.9z"/>
		</g>
		<path class="st6" d="M177.8,330.4c-35-32.9-70.6-79.4-67.4-120.1c-25.2-41.1-73.2-103.3-9.1-142.8c44.5-28.9,79.1,2.4,89.3,15.8
			c15.2,20,40.9,60.5,40.9,60.5l7.2,6c7.8,6.5,14.5,14.3,19.7,23c10.5,17.7,34.7,50.9,45.1,68.6c18.9,32.3-13.7,32.1-13.7,32.1
			l-32.6-41.5c0,0,53.1,72.9,65.9,102.9c9.8,22.9-12.3,41.1-32.7,24.2c-18.3-15.2-51.7-55.6-51.7-55.6s54,54.1,47.9,69.4
			c-6.9,17.2-22.2,21.7-43.6,1.4c-33.4-31.8-44.7-43.5-44.7-43.5l-0.1,0.1C192.3,336,183.5,335.8,177.8,330.4z"/>
		<path class="st8" d="M290.3,224.4c0,0-53-68.7-60.5-59.8c-6.3,7.5-5.3,15.7-4.6,20.1c2.3,14.4,19.4,33.6,24.7,33.6
			c5.3,0,11.1,7.8,19.5,19.2c8.3,11.4,33.5,30.1,33.5,30.1s-2.1,1.2-5.3,3.1c-1.6,0.9-6.1,3.6-10.3-2c-5-6.7-12.9-21.6-23-29.7
			c-15.2-12.2-40.3-20-46.2-32.8c-9.9-21.2,9.1-58.8,16.3-59.3c4,4.7,10.1,10.1,14.4,15.8C269.7,190.4,290.3,224.4,290.3,224.4z"/>
		<path d="M250.3,286.7c0,0-5.1,18.7-28.3,26.2C237.6,299.1,250.4,290,250.3,286.7z"/>
		<path class="st9" d="M117.7,74.9c0,0-52.7,19-34.3,63.8c13.5,32.9,24.2,44.9,50.9,37.2c26.7-7.7,55.1-32.2,48.1-58.5
			C173.2,83.4,140.2,66.2,117.7,74.9z"/>
		<line class="st10" x1="198.3" y1="330.9" x2="169.5" y2="296.1"/>
		<path class="st5" d="M167.9,288"/>
		<path class="st5" d="M95.3,101.4c0,0-8.9,9.9-5.7,27.2c0.9,4.6,7.8,5.3,8.5,0.9c1.7-10.6,4-22.8,13.6-31.3c2.8-2.5,1-7-2.7-6.7
			C104.5,92,99,95.2,95.3,101.4z"/>
		<path class="st5" d="M110.3,147.5c0-3.4-2.9-6.1-6.5-6.1s-6.5,2.7-6.5,6.1c0,3.4,2.9,6.1,6.5,6.1S110.3,150.9,110.3,147.5z"/>
		<path class="st8" d="M181.5,158.1c0,0-23.7,29.6-54.5,30C127,188.1,157.6,193.9,181.5,158.1z"/>
		<path class="st11" d="M185.7,369.6"/>
		<path class="st12" d="M112.1,217.3"/>
		<path class="st13" d="M158.9,256.4c-2.5,0-5-1.2-6.6-3.4c-2.6-3.6-1.8-8.7,1.9-11.3l57.2-41.1c3.6-2.6,8.7-1.8,11.3,1.9
			c2.6,3.6,1.8,8.7-1.9,11.3l-57.2,41.1C162.2,255.9,160.6,256.4,158.9,256.4z"/>
		
			<rect x="177.1" y="219.6" transform="matrix(0.8252 -0.5648 0.5648 0.8252 -96.4994 144.9324)" class="st13" width="17.6" height="17.6"/>
		<path class="st13" d="M184,243c-1.5,0-3-0.8-3.9-2.1l-8-11.6c-0.7-1.1-1-2.4-0.8-3.6c0.2-1.3,1-2.4,2-3.1l11.6-8
			c1.1-0.7,2.4-1,3.6-0.8c1.3,0.2,2.4,1,3.1,2l8,11.6c1.5,2.2,0.9,5.2-1.3,6.7l-11.6,8C186,242.8,185,243,184,243z"/>
		<polygon class="st8" points="188.5,219.7 178,227.6 182.8,235.4 186.9,232.2 184.7,229.3 191.3,224.1 		"/>
		<path class="st13" d="M260.3,240.4c-0.5,0-28.4-7.3-28.4-7.3c-1.6-0.4-4-1.8-4.9-3.2L207,195.7c-3-5.1-2.7-10.6-1.3-16.3
			c4.1-16.1,18.4-44.7,18.4-44.7c1.3-3.1,3.9-2.3,6.2,0.2c3.9,4.4,4.3,7.4,3,10.5l-16.1,32.5c-2.8,6.8-1.3,12.7,0.5,15.7l15.1,24.2
			c2.2,3.5,5.3,6.3,9,8.2c4.2,2.1,10.2,4.9,16.8,7.5C261.4,234.4,263.1,240.4,260.3,240.4z"/>
		<path class="st13" d="M166,287c-0.6-3.3-1.2-6.9-1.8-10c-1-6-3.5-11.7-7.3-16.5l-17.3-22.1c-4.1-5.2-9.5-9.2-15.7-11.6l-9.3-3.5
			c-3.2-1-8.7-4.5-8.1-8c0.5-3.3,0.5-6.1,3.7-5.1l17.8,5.7c8.3,2.7,15.7,7.9,20.9,14.9l24.8,33.1c0.7,1,2.2,13.2,2.3,14.4l0.8,19.4
			c0.2,3.3,1.9,7.2-1.5,7.4c0,0-0.2-0.2-0.4-0.4C170.3,299.8,167.3,293.6,166,287z"/>
		<path class="st8" d="M112.9,225c0,0-1.2,37,63,101.3c10.7,9.8,15.6,5.6,15.6,5.6s-10.8-4.8-10.4-12.6s-37-38.4-45.6-59
			c-8.1-19.5-6.9-28.8-6.9-28.8s-0.2-0.5-5.6-2.9C117.7,226.3,112.9,225,112.9,225z"/>
		<path class="st8" d="M95.5,74.2c0,0,47.8-47.8,99.2,17c29,39.4,27.2,42.4,27.2,42.4l-4.7,10.7c0,0-39-88.5-87.8-79.8
			C109.2,66.3,95.5,74.2,95.5,74.2z"/>
		<polygon class="st8" points="171.4,231.9 178.4,241.8 174.9,244.3 168.1,234.3 		"/>
		<polygon class="st8" points="197.4,213.3 204.3,223.2 200.6,225.8 194,215.7 		"/>
		<polygon class="st8" points="209.6,204.3 216.4,214.4 212.7,217 206.3,206.7 		"/>
		<polygon class="st8" points="162.2,238.5 169.2,248.4 165.7,250.9 158.9,240.8 		"/>
		<path class="st8" d="M115.9,221.4l9.2,3.5c6.1,2.3,11.5,6.2,15.5,11.4l17.1,21.7c3.7,4.7,6.2,10.3,7.2,16.2
			c0.5,3.1,1.1,6.6,1.7,9.9c1.2,6.5,4,13,8.5,17.9c0.2,0.3,0.3,0,0.3,0c-0.2,0-3.4-8.5-3.1-8.7c-2.5-11.8-5.2-23.7-5.7-26.8
			c-0.7-4.3-20.2-30.4-30.2-38.2c-6.9-5.4-27.7-13.6-27.8-13.3C108,218.4,112.7,220.4,115.9,221.4z"/>
	</g>
	<path class="st14" d="M252.4,270.2c-1.5,0-3.2,0.7-5.2,2.4c-13.7,11.4-8.1,6.5-43.4,31.4c-6.5,5.5-1.1,16,4.2,18
		c28,10.5,35.4,22.8,48,33.6c12.2,10.5,18.6,19.9,23.1,19.9c1.5,0,2.8-1.1,4.1-3.6c1.9-3.9-2.4-13.1-8.3-22.8
		c-1.6-2.2-3.2-4.6-5-6.9c-15.7-16.6-31.6-35.8-32.8-37.3c-3.9,3.1-8.9,6-15.2,8c13.8-12.1,25.4-20.6,27.8-24.7
		c0.3-0.9,0.5-1.4,0.5-1.4c0,0.4-0.2,0.9-0.5,1.4c-1,2.6-3.7,8.5-9.6,14.1c1.2,1.2,14.2,14.3,26.3,29c2.4,2.9,4.7,5.7,6.7,8.4
		c6.7,7.1,13.3,13.6,18.6,18c2.9,2.4,5.7,4,8.4,4.9c3.6-1.3,3.7-8-8.6-20.8c-15.3-15.9-37.2-40-33.9-52
		C260.1,280.3,258,270.2,252.4,270.2"/>
	<path class="st8" d="M211.6,188.4c5.6,16.9,20.1,37,25.4,40c3.6,2,12.6,6.7,22.8,9.4c-0.5-1.5-1.2-2.2-2.4-2.7
		c-6.6-2.6-13.2-5.9-17.4-7.9c-3.7-1.8-7.6-5.8-9.8-9.4l-14.5-23.4c-1.8-3-3.3-9.4-0.5-16.2l15.6-32.9c1.3-3,2.7-3.4-1.1-7.6
		C224.8,151,208.4,178.8,211.6,188.4z"/>
</g>
</svg>
