<?xml version="1.0" encoding="utf-8"?>
<!-- Generator: Adobe Illustrator 25.4.1, SVG Export Plug-In . SVG Version: 6.00 Build 0)  -->
<svg version="1.1" xmlns="http://www.w3.org/2000/svg" xmlns:xlink="http://www.w3.org/1999/xlink" x="0px" y="0px"
	 viewBox="0 0 512 512" style="enable-background:new 0 0 512 512;" xml:space="preserve">
<style type="text/css">
	.st0{fill:#9690AE;stroke:#10001C;stroke-width:4.3232;stroke-miterlimit:10;}
	.st1{fill:#746C94;}
	.st2{fill:#F7591A;}
	.st3{fill:#FEBD56;}
	.st4{fill:#FFFFFF;}
	.st5{fill:#F6F6F6;stroke:#10001C;stroke-width:4.3232;stroke-miterlimit:10;}
	.st6{fill:#C5C1D2;}
	.st7{fill:#D7D7E2;}
	.st8{fill:#381849;}
	.st9{fill:none;stroke:#10001C;stroke-width:4.3232;stroke-miterlimit:10;}
	.st10{fill:#DD1B1D;}
	.st11{fill:#DED4E2;}
	.st12{fill:#FFFFFF;stroke:#10001C;stroke-width:4.3232;stroke-miterlimit:10;}
	.st13{fill:#CFCFDA;}
</style>
<g id="Layer_1">
</g>
<g id="safe">
	<g>
		<path class="st0" d="M103,181.6c0,0,1.5,111.1,25.5,172.3c4.2,10.7,7.2,18.8,9.8,24.4c4.3,9.3,3.3,11,8.5,5.3
			c-5.5-13.1-4.2-20.1-0.9-22.4c50.5-36.1,86.6-57.6,86.6-57.6s100.5-64.1,127.9-91.3c0.8-0.8,14.9,10,15.6,9.3
			c4.2-4.6-7.6-19.3-9.5-20.6c-132.7-89.1-231.1-82.4-243.4-71.3C110.8,140.8,103,181.6,103,181.6z"/>
		<path class="st1" d="M151.5,354.2c0,0-27.4-51.2-23.3-69.9c23.3,29.3,37.9,60.2,37.9,60.2L151.5,354.2z"/>
		<path class="st1" d="M327.9,235.7l18.4-14.2c0,0-36.6-42.3-64.9-40.8C306.3,199.1,321.9,223.3,327.9,235.7z"/>
		<path class="st2" d="M298.4,294.3c0,0,21.8,35.1,47.1,89.2c17.2,36.8,33.7,76.1,32.9,61.1c0,0-27.3-151.1-51.2-183.6
			C297.3,265.8,298.4,294.3,298.4,294.3z"/>
		<path class="st3" d="M305.8,285.5c0,0,28.7,65,52.3,107.2c-8.8-64.8-32.7-118.8-32.7-118.8L305.8,285.5z"/>
		<path class="st4" d="M323.2,281.2c0,0,9.8,33.1,13.3,43c2.7,7.5,7.9,28.6,7.9,28.6s-32.3-61.7-32.8-71.1
			c-0.5-9.4,11.4-6.6,11.4-6.6L323.2,281.2z"/>
		<path class="st2" d="M181.5,364.2c0,0,31.8,33.7,87.4,65.2c36.5,20.7,80,38.3,80,38.3S272.4,397,201.6,318.5
			C171.8,336.1,181.5,364.2,181.5,364.2z"/>
		<path class="st3" d="M195.4,358.3c0,0,41.5,51.5,110.2,78.1c-49.7-47-99.4-104.8-99.4-104.8L195.4,358.3z"/>
		<path class="st4" d="M207.4,340.1c0,0,40.2,47.8,50.5,55.1c1.7,1.2,25.5,20.7,25.5,20.7s-78.3-45.2-89.7-69.6
			c-4.7-10.1,10.7-12.8,10.7-12.8L207.4,340.1z"/>
		<path class="st5" d="M295.3,191.1c8.6,7.2,37.3,40.2,42.9,68.7c0.2,1.1-0.3,2.2-1.1,2.9c-42.1,32.5-40.2,22.8-40.2,22.8
			s-60.5-62.6-47.3-93.7C262.8,160.6,295.3,191.1,295.3,191.1z"/>
		<path class="st5" d="M177.9,256.2c2.4,1.6,41,50.3,58.1,82.9c-44.7,45.3-50.6,33.3-50.6,33.3s-59.5-59.1-49.1-96.7
			S177.9,256.2,177.9,256.2z"/>
		<path class="st2" d="M412.9,481.6l60.3,0.8c0,0,6.4-30.1,0-37.7c-6.4-7.5-35.4-24.1-50.5-5.3c0,0-11.3-21.9-30.1-16.6
			c-18.8,5.3-18.1,25.2-18.1,25.2s-17.5,0.7-28,12.8c-10.5,12.1-4.4,10.2-4.4,10.2s-26-18.5-62.5,2.3c-10.7,6.1-9,8.3-9,8.3"/>
		<path class="st2" d="M289.5,410.1c0,0,61.5,45.9,79.5,45.2c18-0.7,8-3.1,8-3.1l-1.2-48.3c0,0,14.5,3.1,19.2,31.7
			c4.7,28.6-22.6,33.9-22.6,33.9l-33.9,4L289.5,410.1z"/>
		<path class="st2" d="M329.8,451.7c0,0-16.8-4.3-23.2,10.7c-6.4,15-6.4,15-6.4,15l106.6-1.7l-75.2-24.5
			C331.6,451.3,353.9,438.8,329.8,451.7z"/>
		<path class="st4" d="M364.9,202.2c0,0-76.1-49.6-131.3-63.9c11.7,9.3,10.8,6.9,10.8,6.9s31.8,11.8,62.9,28.1
			c24.9,13.1,51.1,28.7,65.6,40.6C374.4,209.9,364.9,202.2,364.9,202.2z"/>
		<path class="st6" d="M276.7,185.9c1.2,0,32.9,31.2,52.7,68.3c3.6,6.8,0.2,7.3-6.2,11.6c-2,1.3-9,7.9-9,7.9l-11.7,5.6l-60.2-88.4
			c0,0,12.4-16.4,25-8.9"/>
		<path class="st6" d="M143.5,294c-0.4,1.2,12.1,38.5,40.5,69.6c5.2,5.7,13.8,6.6,20,2c1.9-1.4,2.4-1.9,2.4-1.9l14.7-11.1L158,266.3
			C158,266.3,140.6,279.6,143.5,294"/>
		<path class="st1" d="M266.7,190.8c1.4,0,39,29.7,57.8,73.6c-4.1,7-21.9,17.4-21.9,17.4l-6.7,1.8l-60.2-88.4
			C235.7,195.3,254.1,183.3,266.7,190.8"/>
		<path class="st1" d="M163.3,273.3c1.4-0.1,40.8,27.2,62.2,69.9c-3.7,7.3-20.8,18.7-20.8,18.7l-6.6,2.3l-65.5-84.5
			C132.7,279.6,150.3,266.6,163.3,273.3"/>
		<g>
			<path class="st4" d="M389.5,432.9c2.8-1.1,6-1.3,9-0.9c3,0.4,6,1.5,8.7,3.1c2.6,1.6,5,3.8,6.7,6.4c0.9,1.2,1.5,2.7,2.2,4
				c0.3,0.7,0.5,1.4,0.7,2.2c0.2,0.7,0.4,1.5,0.5,2.2c-1.1-1.1-2-2.2-3-3.2c-1-1-1.9-2.1-3-2.9c-1.9-1.9-4.1-3.5-6.4-4.9
				c-2.2-1.4-4.7-2.6-7.2-3.5C395.1,434.4,392.4,433.6,389.5,432.9z"/>
		</g>
		<g>
			<path class="st4" d="M356,463.4c-0.8-2.7-0.4-5.7,0.6-8.3c1-2.7,2.7-5.2,4.8-7.2c1.1-0.9,2.2-1.9,3.5-2.5
				c1.2-0.8,2.5-1.3,3.9-1.8c0.6-0.3,1.3-0.4,2-0.6c0.7-0.2,1.4-0.3,2-0.4c1.4-0.1,2.8-0.2,4.2-0.1c-1.2,0.8-2.3,1.4-3.5,2.1
				c-0.6,0.4-1.1,0.7-1.7,1c-0.5,0.3-1.1,0.6-1.6,1c-0.5,0.4-1,0.7-1.6,1c-0.5,0.3-1,0.7-1.5,1.1c-1,0.7-1.9,1.5-2.8,2.3
				c-1.7,1.7-3.3,3.4-4.7,5.5C358.2,458.6,357,460.9,356,463.4z"/>
		</g>
		<g>
			<path class="st4" d="M462.5,459.7c0-2.4-0.2-4.8-0.7-6.9c-0.5-2.1-1.5-3.8-2.8-5.2c-1.4-1.3-3.2-2.2-5.1-2.8
				c-2-0.6-4.2-1-6.2-1.1l0.3,0c-0.8,0.1-1.8,0.4-2.8,0.6c-0.9,0.3-1.9,0.6-2.8,1c-0.9,0.4-1.9,0.8-2.8,1.3c-0.9,0.4-1.8,1-2.8,1.5
				c0.6-0.9,1.2-1.8,2-2.6c0.7-0.8,1.6-1.5,2.4-2.2c0.9-0.7,1.8-1.3,2.8-1.8c1-0.5,2-1,3.2-1.4l0,0l0.2,0c1.4-0.1,2.6-0.1,3.9,0
				c1.3,0.1,2.6,0.3,3.8,0.7c2.5,0.7,5,2.1,6.9,4.2c1.8,2.2,2.7,5,2.6,7.6C464.5,455.2,463.7,457.6,462.5,459.7z"/>
		</g>
		<g>
			<path class="st4" d="M321.7,453c0.9-2.8,2.4-5.2,4.4-7.4c2-2.1,4.4-4,7.5-5c1.5-0.5,3.2-0.6,4.9-0.4c1.6,0.2,3.2,0.9,4.5,1.8
				c2.6,1.9,4.2,4.4,5,7.2c-2.3-1.8-4.4-3.4-6.7-4.2c-2.2-0.8-4.4-0.9-6.6-0.2c-2.2,0.6-4.4,1.9-6.5,3.4
				C326.2,449.6,324,451.2,321.7,453z"/>
		</g>
		<g>
			<path class="st4" d="M300.9,466.2c1.6-2,3.8-3.4,6.1-4.3c2.4-0.9,5-1.4,7.5-1.2c2.6,0.1,5.2,0.8,7.4,2c1.2,0.5,2.2,1.4,3.1,2.1
				c0.5,0.4,0.9,0.9,1.3,1.4c0.4,0.5,0.8,1,1.2,1.5c-1.3-0.3-2.4-0.7-3.5-1c-1.1-0.3-2.2-0.6-3.3-0.8c-2.1-0.5-4.3-0.8-6.4-0.9
				c-2.1-0.1-4.3,0-6.5,0.2C305.6,465.4,303.3,465.8,300.9,466.2z"/>
		</g>
		<g>
			<path class="st4" d="M417.6,481c-0.8-2.7-0.4-5.7,0.6-8.3c1-2.7,2.7-5.2,4.8-7.2c1.1-0.9,2.2-1.9,3.5-2.5
				c1.2-0.8,2.5-1.3,3.9-1.8c0.6-0.3,1.3-0.4,2-0.6c0.7-0.2,1.4-0.3,2-0.4c1.4-0.1,2.8-0.2,4.2-0.1c-1.2,0.8-2.3,1.4-3.5,2.1
				c-0.6,0.4-1.1,0.7-1.7,1c-0.5,0.3-1.1,0.6-1.6,1c-0.5,0.4-1,0.7-1.6,1c-0.5,0.3-1,0.7-1.5,1.1c-1,0.7-1.9,1.5-2.8,2.3
				c-1.7,1.7-3.3,3.4-4.7,5.5C419.8,476.2,418.6,478.5,417.6,481z"/>
		</g>
		<path class="st5" d="M171.8,335.2c-37.5-35.2-75.4-84.8-72.1-128.4C72.7,162.9,21.4,96.4,90,54.2c47.5-30.9,84.5,2.5,95.5,16.9
			c16.3,21.3,43.7,64.7,43.7,64.7l7.7,6.4c8.3,7,15.5,15.3,21,24.6c11.3,18.9,37.1,54.4,48.2,73.4c20.2,34.5-14.6,34.3-14.6,34.3
			l-34.9-44.4c0,0,56.8,77.9,70.5,109.9c10.5,24.5-13.1,44-34.9,25.9c-19.5-16.2-55.3-59.4-55.3-59.4s57.7,57.8,51.2,74.2
			c-7.4,18.4-23.8,23.2-46.6,1.5c-35.8-33.9-47.7-46.5-47.7-46.5l-0.1,0.1C187.2,341.1,177.8,340.9,171.8,335.2z"/>
		<path class="st7" d="M292,221.9c0,0-56.6-73.5-64.6-63.9c-6.7,8-5.6,16.7-4.9,21.5c2.4,15.4,20.7,35.9,26.4,35.9
			c5.7,0,11.9,8.4,20.8,20.5c8.9,12.2,35.8,32.2,35.8,32.2s-2.3,1.3-5.7,3.3c-1.7,1-6.5,3.8-11-2.1c-5.4-7.1-13.8-23.1-24.6-31.7
			c-16.2-13-43-21.4-49.4-35.1c-10.5-22.7,9.7-62.8,17.4-63.4c4.2,5,10.8,10.7,15.4,16.9C269.9,185.5,292,221.9,292,221.9z"/>
		<path d="M249.2,288.4c0,0-5.4,20-30.3,28C235.7,301.6,249.3,292,249.2,288.4z"/>
		<path class="st8" d="M107.5,62c0,0-56.4,20.3-36.7,68.2c14.5,35.2,25.8,48,54.4,39.7c28.5-8.2,58.9-34.4,51.4-62.5
			C166.9,71.1,131.5,52.7,107.5,62z"/>
		<line class="st9" x1="193.7" y1="335.6" x2="162.8" y2="298.5"/>
		<path class="st4" d="M161.1,289.8"/>
		<path class="st4" d="M83.6,90.4c0,0-9.6,10.5-6.1,29.1c0.9,4.9,8.3,5.7,9.1,1c1.8-11.4,4.3-24.3,14.6-33.5c3-2.6,1.1-7.5-2.9-7.2
			C93.4,80.2,87.6,83.8,83.6,90.4z"/>
		<path class="st4" d="M99.6,139.7c0-3.6-3.1-6.5-7-6.5s-7,2.9-7,6.5c0,3.6,3.1,6.5,7,6.5S99.6,143.3,99.6,139.7z"/>
		<path class="st7" d="M175.7,150.9c0,0-25.3,31.6-58.3,32.1C117.4,183,150.1,189.2,175.7,150.9z"/>
		<path class="st10" d="M180.2,377"/>
		<path class="st11" d="M101.5,214.2"/>
		<path class="st12" d="M151.6,256c-2.7,0-5.3-1.3-7-3.6c-2.8-3.9-1.9-9.3,2-12.1l61.2-43.9c3.9-2.8,9.3-1.9,12.1,2
			c2.8,3.9,1.9,9.3-2,12.1l-61.2,43.9C155.1,255.5,153.3,256,151.6,256z"/>
		
			<rect x="171" y="216.7" transform="matrix(0.8252 -0.5648 0.5648 0.8252 -96.1573 141.4164)" class="st12" width="18.8" height="18.8"/>
		<path class="st12" d="M178.4,241.7c-1.6,0-3.2-0.8-4.2-2.3l-8.5-12.4c-0.8-1.1-1.1-2.5-0.8-3.9c0.3-1.4,1-2.6,2.2-3.3l12.4-8.5
			c1.1-0.8,2.5-1.1,3.9-0.8c1.4,0.3,2.5,1,3.3,2.2l8.5,12.4c1.6,2.4,1,5.6-1.4,7.2l-12.4,8.5C180.5,241.4,179.4,241.7,178.4,241.7z"
			/>
		<polygon class="st7" points="183.2,216.8 172,225.3 177.1,233.6 181.4,230.2 179.1,227 186.2,221.5 		"/>
		<path class="st12" d="M259.9,238.9c-0.5,0-30.3-7.8-30.3-7.8c-1.7-0.4-4.3-2-5.2-3.4l-21.5-36.6c-3.2-5.4-2.9-11.3-1.4-17.4
			c4.4-17.2,19.7-47.8,19.7-47.8c1.4-3.3,4.2-2.4,6.6,0.2c4.2,4.7,4.6,7.9,3.2,11.2l-17.2,34.7c-3,7.3-1.4,13.6,0.6,16.8l16.2,25.8
			c2.4,3.8,5.7,6.8,9.7,8.7c4.5,2.2,11,5.2,18,8C261.1,232.6,262.9,238.9,259.9,238.9z"/>
		<path class="st12" d="M159.2,288.7c-0.7-3.6-1.3-7.4-1.9-10.7c-1.1-6.4-3.7-12.5-7.8-17.6L131,236.8c-4.4-5.6-10.2-9.8-16.8-12.3
			l-10-3.8c-3.4-1.1-9.3-4.8-8.7-8.6c0.5-3.5,0.5-6.5,3.9-5.4l19.1,6.1c8.9,2.9,16.7,8.4,22.4,15.9l26.5,35.3
			c0.8,1,2.4,14.1,2.4,15.4l0.8,20.7c0.2,3.6,2,7.7-1.6,7.9c0,0-0.2-0.2-0.4-0.4C163.7,302.4,160.5,295.8,159.2,288.7z"/>
		<path class="st7" d="M102.3,222.5c0,0-1.3,39.6,67.4,108.3c11.4,10.5,16.7,6,16.7,6s-11.6-5.1-11.1-13.5
			c0.5-8.3-39.6-41-48.7-63.1c-8.6-20.9-7.4-30.8-7.4-30.8s-0.2-0.6-6-3.1S102.3,222.5,102.3,222.5z"/>
		<path class="st7" d="M83.7,61.3c0,0,51.1-51.1,106,18.1c31,42.1,29.1,45.3,29.1,45.3l-5.1,11.5c0,0-41.7-94.6-93.8-85.3
			C98.4,52.8,83.7,61.3,83.7,61.3z"/>
		<polygon class="st7" points="164.9,229.8 172.4,240.4 168.6,243.1 161.3,232.4 		"/>
		<polygon class="st7" points="192.6,209.9 200.1,220.5 196.1,223.3 189.1,212.5 		"/>
		<polygon class="st7" points="205.7,200.3 213,211.2 209.1,213.9 202.2,202.9 		"/>
		<polygon class="st7" points="155.1,236.9 162.6,247.5 158.8,250.2 151.5,239.4 		"/>
		<path class="st7" d="M105.5,218.6l9.8,3.7c6.5,2.5,12.3,6.7,16.6,12.1l18.2,23.2c4,5.1,6.6,11,7.6,17.3c0.5,3.3,1.2,7,1.8,10.5
			c1.3,7,4.2,13.9,9.1,19.1c0.3,0.3,0.3,0,0.3,0c-0.2,0-3.7-9.1-3.4-9.3c-2.7-12.7-5.5-25.3-6.1-28.7c-0.8-4.6-21.5-32.4-32.3-40.9
			c-7.4-5.8-29.6-14.5-29.7-14.2C97.1,215.4,102.2,217.5,105.5,218.6z"/>
	</g>
	<path class="st13" d="M251.5,270.8c-1.6,0-3.5,0.8-5.6,2.5c-14.7,12.2-8.7,6.9-46.4,33.5c-6.9,5.9-1.2,17.1,4.5,19.2
		c29.9,11.2,37.8,24.3,51.3,36c13,11.2,19.9,21.3,24.7,21.3c1.6,0,3-1.2,4.4-3.8c2.1-4.2-2.5-14-8.8-24.4c-1.7-2.4-3.5-4.9-5.4-7.4
		c-16.8-17.8-33.8-38.3-35.1-39.8c-4.2,3.3-9.5,6.4-16.2,8.5c14.8-13,27.1-22,29.7-26.5c0.4-1,0.5-1.5,0.5-1.5
		c0,0.4-0.2,0.9-0.5,1.5c-1.1,2.8-4,9-10.2,15.1c1.3,1.3,15.1,15.3,28.1,31c2.6,3.1,5,6.1,7.1,9c7.2,7.6,14.2,14.6,19.8,19.2
		c3.1,2.6,6.1,4.3,9,5.3c3.9-1.4,4-8.6-9.2-22.2c-16.4-17-39.8-42.7-36.3-55.6C259.7,281.5,257.5,270.8,251.5,270.8"/>
	<path class="st7" d="M207.9,183.4c6,18.1,21.5,39.6,27.2,42.8c3.8,2.2,13.4,7.1,24.4,10.1c-0.5-1.6-1.3-2.4-2.6-2.9
		c-7-2.8-14.1-6.3-18.6-8.5c-4-2-8.1-6.2-10.5-10l-15.5-25c-2-3.2-3.6-10.1-0.6-17.3l16.7-35.2c1.4-3.2,2.8-3.7-1.2-8.1
		C222,143.4,204.5,173.1,207.9,183.4z"/>
</g>
</svg>
